<svg xmlns="http://www.w3.org/2000/svg">
  <symbol id="BasketballSvg" viewBox="0.00 0.00 1024.00 1024.00">

      <g stroke-width="2.00" fill="none" stroke-linecap="butt">
        <path stroke="#7f5e27" vector-effect="non-scaling-stroke" d="&#xA;  M 336.69 447.37&#xA;  Q 365.79 444.11 392.78 430.72&#xA;  C 419.35 417.55 443.25 399.09 465.51 379.51&#xA;  C 497.53 351.33 531.73 318.00 562.14 290.90&#xA;  C 597.64 259.27 636.64 229.97 678.75 207.73&#xA;  Q 703.89 194.44 732.06 185.08&#xA;  Q 740.60 182.24 749.86 180.72&#xA;  A 0.36 0.36 0.0 0 0 750.00 180.07&#xA;  C 735.80 170.80 721.98 161.92 708.02 154.51&#xA;  Q 661.64 129.91 610.50 117.26&#xA;  Q 573.83 108.19 534.24 106.11&#xA;  Q 520.90 105.40 503.27 106.04&#xA;  Q 498.93 106.20 496.45 107.71&#xA;  Q 483.71 115.50 472.95 126.48&#xA;  Q 449.70 150.16 432.87 178.38&#xA;  Q 415.68 207.19 403.22 233.51&#xA;  Q 380.63 281.22 363.10 334.37&#xA;  C 351.38 369.91 342.55 407.15 336.40 442.89&#xA;  Q 335.96 445.45 336.14 446.94&#xA;  A 0.49 0.49 0.0 0 0 336.69 447.37"></path>
        <path stroke="#7f5e27" vector-effect="non-scaling-stroke" d="&#xA;  M 435.55 113.26&#xA;  A 0.22 0.22 0.0 0 0 435.35 112.90&#xA;  C 403.77 119.11 373.31 129.99 344.14 143.40&#xA;  Q 297.06 165.04 255.90 196.64&#xA;  C 244.25 205.59 236.06 213.09 223.93 224.00&#xA;  C 220.69 226.91 219.76 228.83 218.42 232.68&#xA;  C 208.97 259.83 206.04 288.27 208.34 316.52&#xA;  C 210.99 349.12 220.25 379.83 239.86 405.17&#xA;  Q 262.37 434.25 297.93 443.82&#xA;  A 0.63 0.62 10.5 0 0 298.72 443.28&#xA;  Q 299.26 437.89 300.86 429.17&#xA;  Q 324.72 299.92 385.65 186.64&#xA;  C 399.82 160.31 416.06 135.11 435.55 113.26"></path>
        <path stroke="#733c19" vector-effect="non-scaling-stroke" d="&#xA;  M 860.55 506.70&#xA;  Q 890.38 500.64 919.75 492.66&#xA;  A 0.65 0.64 -9.2 0 0 920.22 492.02&#xA;  Q 917.11 405.98 877.69 329.79&#xA;  Q 863.36 302.08 845.59 276.51"></path>
        <path stroke="#7f5e27" vector-effect="non-scaling-stroke" d="&#xA;  M 845.59 276.51&#xA;  Q 833.33 259.56 826.34 250.90&#xA;  Q 809.32 229.82 789.11 211.92&#xA;  A 2.19 2.17 62.9 0 0 787.49 211.39&#xA;  Q 780.22 212.00 773.03 213.33&#xA;  C 737.24 219.97 702.13 235.29 670.89 254.39&#xA;  Q 629.01 279.99 592.00 313.01&#xA;  C 571.67 331.14 547.02 355.16 526.29 374.04&#xA;  Q 499.20 398.69 497.73 399.98&#xA;  C 463.68 429.59 432.19 454.49 392.96 470.21&#xA;  Q 364.04 481.81 331.62 482.96&#xA;  A 0.59 0.59 0.0 0 0 331.06 483.48&#xA;  Q 328.24 508.14 327.11 535.74&#xA;  Q 326.88 541.39 327.05 543.32&#xA;  A 0.63 0.62 0.1 0 0 327.62 543.88&#xA;  C 338.12 544.79 345.71 544.82 355.07 545.76&#xA;  C 359.45 546.20 365.45 545.93 370.75 546.40&#xA;  Q 375.24 546.79 376.25 546.80&#xA;  Q 390.51 546.99 404.58 547.43&#xA;  Q 424.93 548.06 432.92 547.95&#xA;  C 442.93 547.81 459.55 548.06 474.02 547.65&#xA;  Q 497.93 546.97 501.60 547.01&#xA;  C 512.63 547.11 523.66 545.99 535.17 545.94&#xA;  C 540.08 545.91 544.35 544.97 549.46 545.02&#xA;  C 554.70 545.07 561.48 544.15 567.47 544.01&#xA;  Q 570.10 543.95 574.77 543.57&#xA;  Q 588.79 542.42 598.71 541.92&#xA;  C 602.88 541.71 606.14 541.08 609.86 541.03&#xA;  Q 612.85 541.00 618.27 540.47&#xA;  Q 632.97 539.05 647.52 537.83&#xA;  Q 677.46 535.31 719.50 530.01&#xA;  Q 790.47 521.07 860.55 506.70"></path>
        <path stroke="#f29940" vector-effect="non-scaling-stroke" d="&#xA;  M 845.59 276.51&#xA;  Q 845.72 277.45 845.30 277.48&#xA;  Q 844.80 277.53 844.50 277.10&#xA;  Q 833.44 261.28 821.71 246.95&#xA;  C 817.03 241.22 812.17 236.25 807.19 230.81&#xA;  Q 800.40 223.39 789.23 213.53&#xA;  Q 788.19 212.61 785.74 212.85&#xA;  Q 769.66 214.41 755.52 218.30&#xA;  Q 743.77 221.53 738.20 223.48&#xA;  C 705.08 235.10 674.25 251.74 645.61 271.87&#xA;  Q 619.65 290.12 599.44 307.69&#xA;  C 592.08 314.09 581.88 323.17 574.17 330.42&#xA;  Q 544.65 358.18 528.18 373.42&#xA;  Q 501.45 398.14 488.56 409.04&#xA;  Q 473.25 422.00 457.75 433.75&#xA;  C 423.74 459.54 384.57 480.06 341.50 483.49&#xA;  Q 336.57 483.88 332.91 483.85&#xA;  A 0.95 0.95 0.0 0 0 331.95 484.71&#xA;  Q 330.86 496.86 329.43 514.12&#xA;  Q 328.76 522.24 328.56 527.92&#xA;  Q 328.26 536.67 328.12 541.79&#xA;  A 0.80 0.79 14.6 0 0 328.55 542.51&#xA;  Q 329.91 543.24 331.75 543.31&#xA;  Q 344.58 543.80 359.59 544.74&#xA;  C 366.66 545.18 371.69 544.98 378.25 545.57&#xA;  Q 382.28 545.93 394.50 546.00&#xA;  Q 409.44 546.08 435.75 546.47&#xA;  Q 456.66 546.78 461.25 546.47&#xA;  C 469.03 545.94 480.40 546.05 499.00 546.03&#xA;  C 505.06 546.02 512.35 545.16 518.51 545.03&#xA;  Q 532.17 544.74 539.50 544.15&#xA;  Q 540.21 544.09 544.18 544.04&#xA;  C 548.63 543.98 554.19 543.30 557.44 543.27&#xA;  Q 563.41 543.21 566.06 543.02&#xA;  Q 572.59 542.55 609.65 539.83&#xA;  Q 612.85 539.60 613.32 539.50&#xA;  C 616.32 538.88 619.44 539.15 622.51 538.86&#xA;  Q 631.69 538.01 663.74 535.05&#xA;  Q 683.26 533.25 720.76 528.65&#xA;  C 736.32 526.74 750.59 524.56 765.61 522.34&#xA;  Q 807.26 516.21 850.99 507.30&#xA;  Q 853.52 506.78 860.48 505.60&#xA;  A 0.27 0.27 0.0 0 1 860.79 505.95&#xA;  L 860.55 506.70"></path>
        <path stroke="#7f5e27" vector-effect="non-scaling-stroke" d="&#xA;  M 172.58 286.16&#xA;  C 171.53 287.08 170.76 289.32 169.75 290.91&#xA;  Q 116.12 375.73 107.32 475.65&#xA;  C 106.94 479.92 106.90 484.24 106.67 489.12&#xA;  A 1.76 1.76 0.0 0 0 107.43 490.64&#xA;  Q 126.93 503.85 149.05 512.17&#xA;  C 177.84 522.98 208.79 529.57 240.32 534.13&#xA;  Q 264.94 537.70 288.26 539.73&#xA;  A 0.54 0.53 4.9 0 0 288.84 539.25&#xA;  C 289.88 528.54 289.95 519.18 290.60 509.09&#xA;  Q 291.66 492.62 293.16 478.63&#xA;  A 0.50 0.50 0.0 0 0 292.79 478.10&#xA;  Q 251.42 467.43 221.23 436.73&#xA;  C 183.97 398.85 169.42 343.31 172.23 291.25&#xA;  Q 172.34 289.10 173.11 286.49&#xA;  A 0.33 0.32 -13.0 0 0 172.58 286.16"></path>
        <path stroke="#7f5e27" vector-effect="non-scaling-stroke" d="&#xA;  M 848.94 546.42&#xA;  Q 801.47 555.65 758.14 561.83&#xA;  Q 706.36 569.22 655.74 573.98&#xA;  C 608.45 578.43 559.23 581.76 513.50 582.89&#xA;  Q 499.59 583.24 474.72 583.65&#xA;  C 452.38 584.03 431.54 583.10 408.87 582.94&#xA;  C 402.90 582.90 394.46 582.04 388.41 582.14&#xA;  Q 383.89 582.21 373.09 581.45&#xA;  Q 367.60 581.06 357.50 580.78&#xA;  Q 353.38 580.66 327.69 579.02&#xA;  A 0.46 0.45 1.8 0 0 327.20 579.47&#xA;  C 327.07 588.01 328.03 596.72 328.09 604.14&#xA;  Q 328.11 607.18 328.65 611.35&#xA;  C 329.11 614.88 328.92 618.70 329.55 622.44&#xA;  Q 329.87 624.29 330.05 626.28&#xA;  A 1.16 1.16 0.0 0 0 331.11 627.33&#xA;  Q 350.64 628.96 369.49 634.54&#xA;  C 433.30 653.44 486.24 697.51 538.53 737.46&#xA;  C 567.16 759.33 594.93 777.75 626.74 794.49"></path>
        <path stroke="#733c19" vector-effect="non-scaling-stroke" d="&#xA;  M 626.74 794.49&#xA;  C 654.10 808.95 684.06 820.60 714.20 826.80&#xA;  C 721.03 828.21 729.97 829.35 735.44 829.82&#xA;  Q 750.75 831.15 767.06 828.08&#xA;  Q 769.30 827.66 770.39 826.89&#xA;  Q 776.59 822.57 784.09 816.08&#xA;  Q 826.85 779.09 857.24 729.99&#xA;  Q 910.77 643.53 919.52 540.26&#xA;  Q 920.06 533.91 920.11 529.47&#xA;  A 0.40 0.39 82.5 0 0 919.61 529.08&#xA;  Q 885.22 538.85 849.98 546.04&#xA;  Q 849.80 546.08 849.48 546.25&#xA;  Q 849.22 546.39 848.94 546.42"></path>
        <path stroke="#f29940" vector-effect="non-scaling-stroke" d="&#xA;  M 626.74 794.49&#xA;  L 627.05 794.33&#xA;  A 0.40 0.40 0.0 0 0 627.06 793.63&#xA;  Q 611.78 785.25 601.37 779.14&#xA;  C 578.85 765.93 555.55 749.21 533.19 732.07&#xA;  Q 487.19 696.80 478.71 690.80&#xA;  C 457.98 676.12 436.85 662.57 414.16 651.09&#xA;  C 398.62 643.23 381.74 636.29 364.61 632.08&#xA;  Q 352.43 629.08 349.67 628.61&#xA;  Q 343.46 627.55 332.03 626.15&#xA;  A 1.25 1.25 0.0 0 1 330.94 625.05&#xA;  Q 330.28 619.46 330.06 615.36&#xA;  Q 329.65 607.86 329.43 605.65&#xA;  Q 328.33 594.48 328.52 580.78&#xA;  A 0.65 0.65 0.0 0 1 329.22 580.14&#xA;  Q 390.70 584.36 449.55 584.70&#xA;  Q 451.90 584.71 455.44 584.86&#xA;  C 460.29 585.07 465.64 584.55 470.18 584.62&#xA;  Q 480.44 584.79 493.26 584.48&#xA;  Q 541.43 583.31 570.77 581.58&#xA;  Q 572.93 581.45 585.53 580.66&#xA;  Q 669.65 575.42 755.53 563.29&#xA;  Q 796.61 557.48 845.60 548.23"></path>
        <path stroke="#d86a28" vector-effect="non-scaling-stroke" d="&#xA;  M 845.60 548.23&#xA;  Q 839.94 566.33 833.37 583.13&#xA;  Q 828.70 595.11 823.31 606.07&#xA;  Q 790.75 672.30 736.86 722.36&#xA;  Q 722.79 735.42 708.94 746.40&#xA;  Q 675.46 772.91 636.33 791.52&#xA;  C 634.22 792.53 632.25 793.80 629.86 794.34&#xA;  A 0.26 0.26 0.0 0 0 629.80 794.83&#xA;  C 650.60 805.50 672.07 814.29 694.24 820.56&#xA;  Q 703.42 823.16 704.93 823.56&#xA;  Q 708.02 824.39 719.56 826.54&#xA;  Q 723.49 827.27 727.10 827.58&#xA;  Q 733.54 828.13 734.66 828.28&#xA;  C 745.04 829.68 754.59 828.88 765.77 827.01&#xA;  Q 767.78 826.68 769.40 825.87&#xA;  Q 771.68 824.72 772.69 823.93&#xA;  Q 792.43 808.31 811.02 788.63&#xA;  C 813.76 785.73 815.32 783.27 817.80 780.99&#xA;  C 821.17 777.90 824.16 773.60 827.44 769.74&#xA;  Q 830.37 766.30 831.99 764.21&#xA;  Q 849.18 742.19 862.97 718.23&#xA;  Q 898.97 655.70 912.13 585.49&#xA;  Q 916.03 564.68 918.02 542.99&#xA;  Q 918.67 535.93 919.19 531.67&#xA;  A 0.88 0.88 0.0 0 0 918.08 530.71&#xA;  Q 884.02 540.18 849.20 547.38"></path>
        <path stroke="#f29940" vector-effect="non-scaling-stroke" d="&#xA;  M 849.20 547.38&#xA;  Q 849.34 547.15 849.36 546.93&#xA;  Q 849.38 546.75 849.23 546.62&#xA;  Q 849.11 546.53 848.94 546.42"></path>
        <path stroke="#e48c36" vector-effect="non-scaling-stroke" d="&#xA;  M 845.60 548.23&#xA;  L 849.20 547.38"></path>
        <path stroke="#7f5e27" vector-effect="non-scaling-stroke" d="&#xA;  M 171.97 734.03&#xA;  C 173.79 725.61 176.17 717.85 180.08 709.87&#xA;  C 193.11 683.32 214.98 661.38 240.58 646.80&#xA;  C 256.34 637.82 273.59 630.73 291.73 627.84&#xA;  A 0.42 0.42 0.0 0 0 292.08 627.40&#xA;  L 288.60 577.16&#xA;  A 0.56 0.56 0.0 0 0 288.09 576.64&#xA;  Q 246.91 573.37 208.75 566.00&#xA;  Q 177.80 560.02 152.53 551.43&#xA;  C 135.59 545.67 120.46 539.34 106.11 530.16&#xA;  A 0.10 0.10 0.0 0 0 105.96 530.25&#xA;  Q 108.94 582.44 123.93 632.84&#xA;  Q 140.08 687.13 171.42 734.13&#xA;  A 0.30 0.30 0.0 0 0 171.97 734.03"></path>
        <path stroke="#7f5e27" vector-effect="non-scaling-stroke" d="&#xA;  M 410.19 903.67&#xA;  Q 398.36 893.98 387.48 881.02&#xA;  C 360.64 849.06 340.07 810.72 325.39 771.15&#xA;  Q 305.76 718.27 297.30 662.36&#xA;  A 0.43 0.42 -8.7 0 0 296.81 662.01&#xA;  C 266.51 667.59 235.73 684.80 219.30 711.51&#xA;  Q 203.24 737.62 208.41 768.81&#xA;  C 209.50 775.37 210.77 783.62 214.11 787.47&#xA;  Q 232.00 808.03 248.66 822.67&#xA;  Q 271.21 842.49 297.18 858.08&#xA;  Q 350.06 889.82 409.94 904.17&#xA;  A 0.29 0.29 0.0 0 0 410.19 903.67"></path>
        <path stroke="#7f5e27" vector-effect="non-scaling-stroke" d="&#xA;  M 719.68 861.61&#xA;  A 0.26 0.26 0.0 0 0 719.44 861.28&#xA;  Q 709.13 860.65 697.01 857.96&#xA;  C 654.38 848.47 615.26 829.61 577.03 807.28&#xA;  C 542.68 787.23 511.47 762.93 480.44 738.21&#xA;  C 465.35 726.19 449.92 715.19 434.00 704.49&#xA;  Q 411.94 689.67 388.38 678.63&#xA;  Q 363.30 666.88 335.52 662.99&#xA;  A 0.33 0.32 0.1 0 0 335.15 663.35&#xA;  Q 340.43 701.72 351.97 738.52&#xA;  Q 370.54 797.68 406.42 848.58&#xA;  Q 417.80 864.73 434.35 881.12&#xA;  Q 459.65 906.19 490.23 915.13&#xA;  Q 493.11 915.97 495.33 916.14&#xA;  Q 512.06 917.43 527.26 916.80&#xA;  Q 593.62 914.08 656.79 891.49&#xA;  Q 691.45 879.09 719.55 861.97&#xA;  A 0.13 0.13 0.0 0 0 719.61 861.88&#xA;  L 719.68 861.61"></path>
        <path stroke="#f29940" vector-effect="non-scaling-stroke" d="&#xA;  M 746.69 179.25&#xA;  Q 744.31 177.58 741.56 175.82&#xA;  Q 729.20 167.93 720.62 162.91&#xA;  Q 684.91 142.00 644.98 128.52&#xA;  Q 598.22 112.75 554.99 108.88&#xA;  C 537.82 107.35 523.17 106.33 505.78 106.98&#xA;  Q 499.54 107.21 497.03 108.61&#xA;  C 489.28 112.92 482.08 118.80 475.54 125.17&#xA;  Q 458.94 141.36 446.05 160.04&#xA;  Q 435.38 175.51 426.05 192.03&#xA;  C 402.03 234.61 382.95 279.61 367.19 325.95&#xA;  Q 357.42 354.67 351.16 379.19&#xA;  Q 344.22 406.35 337.41 443.51&#xA;  Q 337.33 443.95 336.90 444.58&#xA;  A 0.88 0.87 -74.4 0 0 337.67 445.95&#xA;  Q 340.45 445.77 344.23 445.18&#xA;  C 374.45 440.45 403.63 425.92 428.96 407.45&#xA;  Q 445.09 395.69 457.71 384.70&#xA;  Q 466.88 376.71 473.87 370.62&#xA;  Q 481.30 364.16 510.75 336.75&#xA;  Q 526.42 322.16 550.06 300.16&#xA;  Q 554.71 295.83 562.06 289.50&#xA;  Q 570.56 282.17 574.24 279.02&#xA;  Q 577.05 276.61 585.13 269.89&#xA;  Q 605.08 253.28 631.35 235.10&#xA;  Q 657.90 216.73 687.14 202.16&#xA;  Q 707.40 192.07 728.60 185.01&#xA;  Q 734.47 183.05 737.58 182.26&#xA;  Q 746.36 180.01 746.64 179.87&#xA;  A 0.36 0.36 0.0 0 0 746.69 179.25"></path>
        <path stroke="#f29940" vector-effect="non-scaling-stroke" d="&#xA;  M 431.22 114.95&#xA;  C 402.28 120.70 374.33 130.85 347.23 143.06&#xA;  Q 289.96 168.86 243.86 207.64&#xA;  Q 240.25 210.68 237.46 213.04&#xA;  C 232.82 216.96 228.84 221.27 224.03 225.02&#xA;  Q 222.25 226.40 221.41 228.40&#xA;  Q 213.54 247.01 210.27 273.75&#xA;  Q 207.92 292.95 208.98 307.75&#xA;  Q 209.02 308.34 209.91 319.70&#xA;  Q 211.99 346.16 221.71 371.03&#xA;  C 231.00 394.82 247.41 417.05 269.07 430.29&#xA;  Q 282.29 438.37 296.51 442.22&#xA;  A 1.11 1.11 0.0 0 0 297.91 441.19&#xA;  Q 297.99 439.02 298.33 437.02&#xA;  Q 306.98 386.62 322.81 334.25&#xA;  Q 342.26 269.85 375.06 204.54&#xA;  Q 390.81 173.20 407.28 148.43&#xA;  C 414.98 136.86 423.20 125.91 431.76 115.87&#xA;  A 0.57 0.56 14.7 0 0 431.22 114.95"></path>
        <path stroke="#d86a28" vector-effect="non-scaling-stroke" d="&#xA;  M 861.77 504.05&#xA;  A 0.84 0.84 0.0 0 0 862.76 505.05&#xA;  Q 891.23 499.01 918.50 491.81&#xA;  A 0.86 0.85 85.6 0 0 919.13 491.07&#xA;  Q 919.33 488.71 919.15 487.25&#xA;  C 918.38 481.06 918.29 473.14 917.42 466.85&#xA;  Q 916.87 462.93 915.88 454.03&#xA;  Q 914.45 441.17 909.47 419.48&#xA;  Q 898.22 370.51 874.51 326.23&#xA;  Q 864.22 307.01 851.95 288.05&#xA;  A 0.52 0.52 0.0 0 0 851.01 288.48&#xA;  Q 854.82 301.33 856.42 306.80&#xA;  Q 868.73 348.92 870.90 393.28&#xA;  Q 871.18 399.07 871.13 403.97&#xA;  C 871.03 413.28 871.32 421.59 870.75 430.76&#xA;  Q 869.22 454.90 866.05 479.51&#xA;  Q 864.51 491.45 861.77 504.05"></path>
        <path stroke="#f29940" vector-effect="non-scaling-stroke" d="&#xA;  M 169.65 293.05&#xA;  Q 155.64 314.74 142.62 343.87&#xA;  Q 115.92 403.59 109.52 465.81&#xA;  Q 109.10 469.93 108.80 474.73&#xA;  C 108.50 479.53 107.63 483.93 107.89 488.93&#xA;  A 1.67 1.66 15.5 0 0 108.61 490.20&#xA;  Q 127.68 502.97 150.16 511.36&#xA;  Q 163.19 516.23 177.63 520.15&#xA;  Q 206.14 527.91 237.22 532.47&#xA;  Q 238.20 532.62 240.74 533.02&#xA;  Q 254.60 535.20 273.01 537.05&#xA;  Q 283.47 538.10 287.10 538.26&#xA;  A 0.97 0.97 0.0 0 0 288.11 537.34&#xA;  C 288.24 534.98 287.96 532.48 288.13 529.87&#xA;  Q 289.35 510.72 290.16 498.50&#xA;  Q 290.82 488.47 291.87 479.51&#xA;  A 0.61 0.60 11.2 0 0 291.43 478.86&#xA;  C 279.39 475.41 267.98 471.31 257.02 465.25&#xA;  Q 231.84 451.32 213.48 430.03&#xA;  Q 200.39 414.86 190.93 395.43&#xA;  Q 181.86 376.80 176.99 356.51&#xA;  Q 171.97 335.60 171.24 319.98&#xA;  C 170.72 308.81 170.41 302.95 170.68 296.32&#xA;  Q 170.75 294.64 170.11 293.09&#xA;  A 0.26 0.26 0.0 0 0 169.65 293.05"></path>
        <path stroke="#f29940" vector-effect="non-scaling-stroke" d="&#xA;  M 108.24 532.77&#xA;  A 0.55 0.55 0.0 0 0 107.42 533.24&#xA;  C 107.34 538.74 108.19 543.88 108.63 548.90&#xA;  Q 109.28 556.25 110.90 568.59&#xA;  C 111.17 570.61 111.91 572.20 111.83 573.98&#xA;  Q 111.77 575.13 112.30 578.04&#xA;  Q 117.70 607.92 124.45 630.80&#xA;  Q 140.13 684.01 170.37 730.82&#xA;  A 0.67 0.66 35.0 0 0 171.58 730.61&#xA;  C 175.49 713.25 184.69 697.10 195.51 683.76&#xA;  Q 205.53 671.41 215.73 662.98&#xA;  Q 221.63 658.11 223.03 657.05&#xA;  Q 245.34 640.21 272.84 631.15&#xA;  Q 282.60 627.94 290.22 626.92&#xA;  A 1.40 1.40 0.0 0 0 291.40 625.25&#xA;  Q 290.07 618.91 290.07 612.73&#xA;  C 290.08 610.63 289.16 606.88 289.12 604.08&#xA;  Q 289.05 598.79 288.65 595.15&#xA;  C 287.96 588.98 288.14 585.37 287.80 578.45&#xA;  A 0.83 0.83 0.0 0 0 287.04 577.66&#xA;  Q 247.95 574.58 208.07 566.91&#xA;  Q 190.01 563.43 169.28 557.64&#xA;  Q 146.54 551.29 126.88 542.63&#xA;  C 120.43 539.79 115.90 537.09 108.24 532.77"></path>
        <path stroke="#e48c36" vector-effect="non-scaling-stroke" d="&#xA;  M 208.90 761.72&#xA;  C 209.53 769.55 210.69 777.88 213.74 785.09&#xA;  A 3.86 3.75 15.6 0 0 214.23 785.93&#xA;  Q 215.70 787.78 219.98 792.58&#xA;  Q 224.95 798.17 237.03 810.28&#xA;  Q 257.44 830.73 282.39 847.39&#xA;  Q 332.72 881.00 392.93 898.66&#xA;  Q 398.95 900.43 403.73 901.18&#xA;  A 0.63 0.63 0.0 0 0 404.22 900.06&#xA;  Q 402.09 898.36 400.76 897.04&#xA;  Q 387.63 883.95 375.30 867.27&#xA;  Q 359.05 845.29 346.42 821.06&#xA;  Q 346.18 820.59 345.17 819.55"></path>
        <path stroke="#f29940" vector-effect="non-scaling-stroke" d="&#xA;  M 345.17 819.55&#xA;  Q 345.17 819.02 344.93 818.55&#xA;  Q 332.15 793.56 323.66 769.89&#xA;  Q 315.37 746.78 311.40 732.66&#xA;  Q 301.85 698.67 296.38 664.17&#xA;  A 0.91 0.91 0.0 0 0 295.31 663.42&#xA;  Q 264.05 669.51 239.62 689.62&#xA;  Q 232.43 695.54 226.21 703.46&#xA;  Q 212.48 720.97 209.07 743.01&#xA;  Q 207.89 750.66 208.90 761.72"></path>
        <path stroke="#d86a28" vector-effect="non-scaling-stroke" d="&#xA;  M 345.17 819.55&#xA;  Q 344.19 819.72 343.62 819.62&#xA;  Q 333.43 817.81 324.23 815.71&#xA;  Q 304.17 811.11 284.55 802.45&#xA;  Q 264.16 793.44 257.54 789.94&#xA;  Q 234.91 777.95 209.86 761.09&#xA;  A 0.57 0.57 0.0 0 0 209.00 761.39&#xA;  L 208.90 761.72"></path>
        <path stroke="#e48c36" vector-effect="non-scaling-stroke" d="&#xA;  M 399.77 837.07&#xA;  Q 412.68 856.62 422.77 867.48&#xA;  Q 436.08 881.83 443.33 887.91&#xA;  Q 451.77 894.99 457.81 898.96&#xA;  Q 472.11 908.37 490.49 914.09&#xA;  Q 490.80 914.18 495.48 914.84&#xA;  Q 497.84 915.17 500.53 915.14&#xA;  Q 510.70 914.98 518.15 915.27&#xA;  C 523.55 915.48 527.60 915.13 532.59 915.13&#xA;  Q 538.47 915.12 543.41 914.69&#xA;  Q 562.34 913.05 574.92 911.09&#xA;  Q 625.72 903.18 673.35 883.84&#xA;  Q 696.02 874.63 715.51 863.10&#xA;  A 0.44 0.44 0.0 0 0 715.34 862.28&#xA;  Q 699.03 860.29 680.95 855.05&#xA;  Q 644.93 844.60 610.36 826.70&#xA;  Q 594.40 818.43 586.20 813.80&#xA;  Q 584.79 813.00 583.88 812.98"></path>
        <path stroke="#f29940" vector-effect="non-scaling-stroke" d="&#xA;  M 583.88 812.98&#xA;  Q 583.00 811.99 582.38 811.63&#xA;  Q 563.02 800.69 545.40 788.59&#xA;  Q 523.62 773.62 502.65 757.18&#xA;  Q 496.73 752.54 484.26 742.64&#xA;  Q 472.35 733.18 461.47 725.12&#xA;  C 455.22 720.50 448.86 716.32 443.77 712.60&#xA;  Q 439.93 709.80 431.18 704.09&#xA;  Q 421.22 697.60 418.36 695.90&#xA;  Q 408.09 689.80 393.23 682.27&#xA;  Q 367.04 669.00 337.53 664.34&#xA;  A 0.76 0.76 0.0 0 0 336.66 665.19&#xA;  Q 339.13 683.98 342.92 700.22&#xA;  C 349.26 727.47 357.00 752.98 367.98 777.97&#xA;  Q 381.63 809.04 399.77 837.07"></path>
        <path stroke="#d86a28" vector-effect="non-scaling-stroke" d="&#xA;  M 583.88 812.98&#xA;  Q 571.31 818.52 554.32 823.29&#xA;  Q 510.19 835.66 467.01 837.83&#xA;  Q 435.93 839.40 419.00 838.01&#xA;  Q 406.02 836.95 399.77 837.07"></path>
      </g>
      <path fill="#000000" d="&#xA;  M 100.92 332.39&#xA;  Q 101.82 329.94 105.00 323.00&#xA;  Q 110.02 312.07 117.06 299.03&#xA;  Q 147.08 243.45 190.63 198.29&#xA;  C 197.15 191.54 204.64 184.78 209.42 180.43&#xA;  C 253.10 140.67 307.52 109.01 364.58 89.80&#xA;  Q 407.71 75.27 449.44 69.46&#xA;  Q 451.56 69.16 454.99 68.58&#xA;  Q 458.46 68.00 460.56 67.95&#xA;  Q 463.28 67.87 465.24 67.32&#xA;  A 6.89 6.78 -52.3 0 1 467.07 67.07&#xA;  C 470.82 67.07 473.96 66.45 477.24 66.21&#xA;  Q 499.49 64.55 523.56 65.06&#xA;  Q 529.93 65.19 533.46 65.50&#xA;  C 539.68 66.03 543.96 65.73 549.53 66.51&#xA;  Q 552.99 66.99 555.74 67.01&#xA;  Q 560.11 67.06 561.56 67.66&#xA;  Q 561.63 67.69 567.33 68.18&#xA;  Q 576.48 68.95 599.66 73.44&#xA;  C 632.84 79.86 665.62 90.03 696.51 103.98&#xA;  Q 727.94 118.18 757.01 136.49&#xA;  Q 801.12 164.27 837.83 202.41&#xA;  Q 840.81 205.51 844.11 209.30&#xA;  C 846.56 212.10 849.47 215.02 852.47 218.48&#xA;  Q 873.89 243.13 894.01 276.03&#xA;  Q 938.18 348.25 952.55 430.72&#xA;  Q 955.92 450.05 956.88 461.53&#xA;  Q 957.28 466.26 957.46 467.20&#xA;  C 958.28 471.31 957.72 475.33 958.28 479.18&#xA;  Q 958.77 482.62 958.86 485.40&#xA;  Q 959.57 509.16 958.93 531.22&#xA;  Q 958.83 534.69 958.35 538.26&#xA;  C 957.82 542.13 958.20 546.05 957.50 550.30&#xA;  C 956.90 553.97 957.27 556.79 956.43 560.02&#xA;  Q 956.23 560.78 955.91 564.74&#xA;  Q 955.77 566.50 954.29 576.54&#xA;  Q 954.23 576.93 952.49 587.30&#xA;  Q 933.44 700.68 861.63 789.62&#xA;  Q 847.72 806.85 830.14 824.77&#xA;  C 803.17 852.27 771.99 875.69 739.03 895.03&#xA;  Q 669.38 935.92 589.24 949.51&#xA;  Q 582.23 950.69 578.06 951.10&#xA;  Q 577.28 951.18 575.01 951.60&#xA;  C 571.94 952.18 569.81 951.84 567.04 952.58&#xA;  A 9.70 9.62 -51.9 0 1 564.50 952.90&#xA;  C 560.93 952.88 557.38 953.93 554.51 953.93&#xA;  C 549.01 953.94 544.01 955.00 538.53 954.96&#xA;  C 529.97 954.91 516.86 955.75 506.16 955.46&#xA;  Q 485.65 954.89 483.50 954.67&#xA;  Q 481.58 954.47 479.65 954.27&#xA;  C 475.90 953.90 472.45 954.10 468.82 953.46&#xA;  C 465.57 952.89 462.02 953.27 459.40 952.54&#xA;  C 456.97 951.87 454.71 952.09 452.21 951.70&#xA;  Q 441.33 950.03 441.01 949.98&#xA;  Q 415.96 945.95 392.12 939.65&#xA;  Q 337.80 925.29 289.88 898.35&#xA;  C 199.39 847.48 131.39 764.55 94.43 667.80&#xA;  Q 79.93 629.85 72.54 591.22&#xA;  Q 70.86 582.42 69.84 574.55&#xA;  Q 69.66 573.14 69.24 571.39&#xA;  C 68.88 569.87 69.02 568.23 68.71 566.28&#xA;  Q 67.32 557.53 66.99 551.29&#xA;  Q 66.76 546.86 66.16 543.25&#xA;  C 65.67 540.34 66.08 535.97 65.67 532.51&#xA;  Q 65.08 527.47 65.03 521.50&#xA;  Q 64.97 514.01 65.02 494.86&#xA;  Q 65.03 490.14 65.42 485.67&#xA;  Q 66.08 478.00 66.02 476.48&#xA;  C 65.86 472.76 67.07 468.74 67.01 464.87&#xA;  C 66.96 461.94 67.92 459.22 67.97 456.03&#xA;  Q 67.99 454.62 68.29 452.49&#xA;  Q 69.82 441.42 71.12 432.70&#xA;  C 71.36 431.09 72.05 429.67 71.99 428.17&#xA;  Q 71.97 427.73 72.23 426.35&#xA;  Q 81.34 377.69 100.55 333.03&#xA;  Q 100.56 333.01 100.70 332.82&#xA;  A 1.76 1.75 -18.2 0 0 100.92 332.39&#xA;  Z&#xA;  M 336.69 447.37&#xA;  Q 365.79 444.11 392.78 430.72&#xA;  C 419.35 417.55 443.25 399.09 465.51 379.51&#xA;  C 497.53 351.33 531.73 318.00 562.14 290.90&#xA;  C 597.64 259.27 636.64 229.97 678.75 207.73&#xA;  Q 703.89 194.44 732.06 185.08&#xA;  Q 740.60 182.24 749.86 180.72&#xA;  A 0.36 0.36 0.0 0 0 750.00 180.07&#xA;  C 735.80 170.80 721.98 161.92 708.02 154.51&#xA;  Q 661.64 129.91 610.50 117.26&#xA;  Q 573.83 108.19 534.24 106.11&#xA;  Q 520.90 105.40 503.27 106.04&#xA;  Q 498.93 106.20 496.45 107.71&#xA;  Q 483.71 115.50 472.95 126.48&#xA;  Q 449.70 150.16 432.87 178.38&#xA;  Q 415.68 207.19 403.22 233.51&#xA;  Q 380.63 281.22 363.10 334.37&#xA;  C 351.38 369.91 342.55 407.15 336.40 442.89&#xA;  Q 335.96 445.45 336.14 446.94&#xA;  A 0.49 0.49 0.0 0 0 336.69 447.37&#xA;  Z&#xA;  M 435.55 113.26&#xA;  A 0.22 0.22 0.0 0 0 435.35 112.90&#xA;  C 403.77 119.11 373.31 129.99 344.14 143.40&#xA;  Q 297.06 165.04 255.90 196.64&#xA;  C 244.25 205.59 236.06 213.09 223.93 224.00&#xA;  C 220.69 226.91 219.76 228.83 218.42 232.68&#xA;  C 208.97 259.83 206.04 288.27 208.34 316.52&#xA;  C 210.99 349.12 220.25 379.83 239.86 405.17&#xA;  Q 262.37 434.25 297.93 443.82&#xA;  A 0.63 0.62 10.5 0 0 298.72 443.28&#xA;  Q 299.26 437.89 300.86 429.17&#xA;  Q 324.72 299.92 385.65 186.64&#xA;  C 399.82 160.31 416.06 135.11 435.55 113.26&#xA;  Z&#xA;  M 860.55 506.70&#xA;  Q 890.38 500.64 919.75 492.66&#xA;  A 0.65 0.64 -9.2 0 0 920.22 492.02&#xA;  Q 917.11 405.98 877.69 329.79&#xA;  Q 863.36 302.08 845.59 276.51&#xA;  Q 833.33 259.56 826.34 250.90&#xA;  Q 809.32 229.82 789.11 211.92&#xA;  A 2.19 2.17 62.9 0 0 787.49 211.39&#xA;  Q 780.22 212.00 773.03 213.33&#xA;  C 737.24 219.97 702.13 235.29 670.89 254.39&#xA;  Q 629.01 279.99 592.00 313.01&#xA;  C 571.67 331.14 547.02 355.16 526.29 374.04&#xA;  Q 499.20 398.69 497.73 399.98&#xA;  C 463.68 429.59 432.19 454.49 392.96 470.21&#xA;  Q 364.04 481.81 331.62 482.96&#xA;  A 0.59 0.59 0.0 0 0 331.06 483.48&#xA;  Q 328.24 508.14 327.11 535.74&#xA;  Q 326.88 541.39 327.05 543.32&#xA;  A 0.63 0.62 0.1 0 0 327.62 543.88&#xA;  C 338.12 544.79 345.71 544.82 355.07 545.76&#xA;  C 359.45 546.20 365.45 545.93 370.75 546.40&#xA;  Q 375.24 546.79 376.25 546.80&#xA;  Q 390.51 546.99 404.58 547.43&#xA;  Q 424.93 548.06 432.92 547.95&#xA;  C 442.93 547.81 459.55 548.06 474.02 547.65&#xA;  Q 497.93 546.97 501.60 547.01&#xA;  C 512.63 547.11 523.66 545.99 535.17 545.94&#xA;  C 540.08 545.91 544.35 544.97 549.46 545.02&#xA;  C 554.70 545.07 561.48 544.15 567.47 544.01&#xA;  Q 570.10 543.95 574.77 543.57&#xA;  Q 588.79 542.42 598.71 541.92&#xA;  C 602.88 541.71 606.14 541.08 609.86 541.03&#xA;  Q 612.85 541.00 618.27 540.47&#xA;  Q 632.97 539.05 647.52 537.83&#xA;  Q 677.46 535.31 719.50 530.01&#xA;  Q 790.47 521.07 860.55 506.70&#xA;  Z&#xA;  M 172.58 286.16&#xA;  C 171.53 287.08 170.76 289.32 169.75 290.91&#xA;  Q 116.12 375.73 107.32 475.65&#xA;  C 106.94 479.92 106.90 484.24 106.67 489.12&#xA;  A 1.76 1.76 0.0 0 0 107.43 490.64&#xA;  Q 126.93 503.85 149.05 512.17&#xA;  C 177.84 522.98 208.79 529.57 240.32 534.13&#xA;  Q 264.94 537.70 288.26 539.73&#xA;  A 0.54 0.53 4.9 0 0 288.84 539.25&#xA;  C 289.88 528.54 289.95 519.18 290.60 509.09&#xA;  Q 291.66 492.62 293.16 478.63&#xA;  A 0.50 0.50 0.0 0 0 292.79 478.10&#xA;  Q 251.42 467.43 221.23 436.73&#xA;  C 183.97 398.85 169.42 343.31 172.23 291.25&#xA;  Q 172.34 289.10 173.11 286.49&#xA;  A 0.33 0.32 -13.0 0 0 172.58 286.16&#xA;  Z&#xA;  M 848.94 546.42&#xA;  Q 801.47 555.65 758.14 561.83&#xA;  Q 706.36 569.22 655.74 573.98&#xA;  C 608.45 578.43 559.23 581.76 513.50 582.89&#xA;  Q 499.59 583.24 474.72 583.65&#xA;  C 452.38 584.03 431.54 583.10 408.87 582.94&#xA;  C 402.90 582.90 394.46 582.04 388.41 582.14&#xA;  Q 383.89 582.21 373.09 581.45&#xA;  Q 367.60 581.06 357.50 580.78&#xA;  Q 353.38 580.66 327.69 579.02&#xA;  A 0.46 0.45 1.8 0 0 327.20 579.47&#xA;  C 327.07 588.01 328.03 596.72 328.09 604.14&#xA;  Q 328.11 607.18 328.65 611.35&#xA;  C 329.11 614.88 328.92 618.70 329.55 622.44&#xA;  Q 329.87 624.29 330.05 626.28&#xA;  A 1.16 1.16 0.0 0 0 331.11 627.33&#xA;  Q 350.64 628.96 369.49 634.54&#xA;  C 433.30 653.44 486.24 697.51 538.53 737.46&#xA;  C 567.16 759.33 594.93 777.75 626.74 794.49&#xA;  C 654.10 808.95 684.06 820.60 714.20 826.80&#xA;  C 721.03 828.21 729.97 829.35 735.44 829.82&#xA;  Q 750.75 831.15 767.06 828.08&#xA;  Q 769.30 827.66 770.39 826.89&#xA;  Q 776.59 822.57 784.09 816.08&#xA;  Q 826.85 779.09 857.24 729.99&#xA;  Q 910.77 643.53 919.52 540.26&#xA;  Q 920.06 533.91 920.11 529.47&#xA;  A 0.40 0.39 82.5 0 0 919.61 529.08&#xA;  Q 885.22 538.85 849.98 546.04&#xA;  Q 849.80 546.08 849.48 546.25&#xA;  Q 849.22 546.39 848.94 546.42&#xA;  Z&#xA;  M 171.97 734.03&#xA;  C 173.79 725.61 176.17 717.85 180.08 709.87&#xA;  C 193.11 683.32 214.98 661.38 240.58 646.80&#xA;  C 256.34 637.82 273.59 630.73 291.73 627.84&#xA;  A 0.42 0.42 0.0 0 0 292.08 627.40&#xA;  L 288.60 577.16&#xA;  A 0.56 0.56 0.0 0 0 288.09 576.64&#xA;  Q 246.91 573.37 208.75 566.00&#xA;  Q 177.80 560.02 152.53 551.43&#xA;  C 135.59 545.67 120.46 539.34 106.11 530.16&#xA;  A 0.10 0.10 0.0 0 0 105.96 530.25&#xA;  Q 108.94 582.44 123.93 632.84&#xA;  Q 140.08 687.13 171.42 734.13&#xA;  A 0.30 0.30 0.0 0 0 171.97 734.03&#xA;  Z&#xA;  M 410.19 903.67&#xA;  Q 398.36 893.98 387.48 881.02&#xA;  C 360.64 849.06 340.07 810.72 325.39 771.15&#xA;  Q 305.76 718.27 297.30 662.36&#xA;  A 0.43 0.42 -8.7 0 0 296.81 662.01&#xA;  C 266.51 667.59 235.73 684.80 219.30 711.51&#xA;  Q 203.24 737.62 208.41 768.81&#xA;  C 209.50 775.37 210.77 783.62 214.11 787.47&#xA;  Q 232.00 808.03 248.66 822.67&#xA;  Q 271.21 842.49 297.18 858.08&#xA;  Q 350.06 889.82 409.94 904.17&#xA;  A 0.29 0.29 0.0 0 0 410.19 903.67&#xA;  Z&#xA;  M 719.68 861.61&#xA;  A 0.26 0.26 0.0 0 0 719.44 861.28&#xA;  Q 709.13 860.65 697.01 857.96&#xA;  C 654.38 848.47 615.26 829.61 577.03 807.28&#xA;  C 542.68 787.23 511.47 762.93 480.44 738.21&#xA;  C 465.35 726.19 449.92 715.19 434.00 704.49&#xA;  Q 411.94 689.67 388.38 678.63&#xA;  Q 363.30 666.88 335.52 662.99&#xA;  A 0.33 0.32 0.1 0 0 335.15 663.35&#xA;  Q 340.43 701.72 351.97 738.52&#xA;  Q 370.54 797.68 406.42 848.58&#xA;  Q 417.80 864.73 434.35 881.12&#xA;  Q 459.65 906.19 490.23 915.13&#xA;  Q 493.11 915.97 495.33 916.14&#xA;  Q 512.06 917.43 527.26 916.80&#xA;  Q 593.62 914.08 656.79 891.49&#xA;  Q 691.45 879.09 719.55 861.97&#xA;  A 0.13 0.13 0.0 0 0 719.61 861.88&#xA;  L 719.68 861.61&#xA;  Z"></path>
      <path fill="#febb4d" d="&#xA;  M 336.14 446.94&#xA;  Q 335.96 445.45 336.40 442.89&#xA;  C 342.55 407.15 351.38 369.91 363.10 334.37&#xA;  Q 380.63 281.22 403.22 233.51&#xA;  Q 415.68 207.19 432.87 178.38&#xA;  Q 449.70 150.16 472.95 126.48&#xA;  Q 483.71 115.50 496.45 107.71&#xA;  Q 498.93 106.20 503.27 106.04&#xA;  Q 520.90 105.40 534.24 106.11&#xA;  Q 573.83 108.19 610.50 117.26&#xA;  Q 661.64 129.91 708.02 154.51&#xA;  C 721.98 161.92 735.80 170.80 750.00 180.07&#xA;  A 0.36 0.36 0.0 0 1 749.86 180.72&#xA;  Q 740.60 182.24 732.06 185.08&#xA;  Q 703.89 194.44 678.75 207.73&#xA;  C 636.64 229.97 597.64 259.27 562.14 290.90&#xA;  C 531.73 318.00 497.53 351.33 465.51 379.51&#xA;  C 443.25 399.09 419.35 417.55 392.78 430.72&#xA;  Q 365.79 444.11 336.69 447.37&#xA;  A 0.49 0.49 0.0 0 1 336.14 446.94&#xA;  Z&#xA;  M 746.69 179.25&#xA;  Q 744.31 177.58 741.56 175.82&#xA;  Q 729.20 167.93 720.62 162.91&#xA;  Q 684.91 142.00 644.98 128.52&#xA;  Q 598.22 112.75 554.99 108.88&#xA;  C 537.82 107.35 523.17 106.33 505.78 106.98&#xA;  Q 499.54 107.21 497.03 108.61&#xA;  C 489.28 112.92 482.08 118.80 475.54 125.17&#xA;  Q 458.94 141.36 446.05 160.04&#xA;  Q 435.38 175.51 426.05 192.03&#xA;  C 402.03 234.61 382.95 279.61 367.19 325.95&#xA;  Q 357.42 354.67 351.16 379.19&#xA;  Q 344.22 406.35 337.41 443.51&#xA;  Q 337.33 443.95 336.90 444.58&#xA;  A 0.88 0.87 -74.4 0 0 337.67 445.95&#xA;  Q 340.45 445.77 344.23 445.18&#xA;  C 374.45 440.45 403.63 425.92 428.96 407.45&#xA;  Q 445.09 395.69 457.71 384.70&#xA;  Q 466.88 376.71 473.87 370.62&#xA;  Q 481.30 364.16 510.75 336.75&#xA;  Q 526.42 322.16 550.06 300.16&#xA;  Q 554.71 295.83 562.06 289.50&#xA;  Q 570.56 282.17 574.24 279.02&#xA;  Q 577.05 276.61 585.13 269.89&#xA;  Q 605.08 253.28 631.35 235.10&#xA;  Q 657.90 216.73 687.14 202.16&#xA;  Q 707.40 192.07 728.60 185.01&#xA;  Q 734.47 183.05 737.58 182.26&#xA;  Q 746.36 180.01 746.64 179.87&#xA;  A 0.36 0.36 0.0 0 0 746.69 179.25&#xA;  Z"></path>
      <path fill="#e67732" d="&#xA;  M 746.64 179.87&#xA;  Q 746.36 180.01 737.58 182.26&#xA;  Q 734.47 183.05 728.60 185.01&#xA;  Q 707.40 192.07 687.14 202.16&#xA;  Q 657.90 216.73 631.35 235.10&#xA;  Q 605.08 253.28 585.13 269.89&#xA;  Q 577.05 276.61 574.24 279.02&#xA;  Q 570.56 282.17 562.06 289.50&#xA;  Q 554.71 295.83 550.06 300.16&#xA;  Q 526.42 322.16 510.75 336.75&#xA;  Q 481.30 364.16 473.87 370.62&#xA;  Q 466.88 376.71 457.71 384.70&#xA;  Q 445.09 395.69 428.96 407.45&#xA;  C 403.63 425.92 374.45 440.45 344.23 445.18&#xA;  Q 340.45 445.77 337.67 445.95&#xA;  A 0.88 0.87 -74.4 0 1 336.90 444.58&#xA;  Q 337.33 443.95 337.41 443.51&#xA;  Q 344.22 406.35 351.16 379.19&#xA;  Q 357.42 354.67 367.19 325.95&#xA;  C 382.95 279.61 402.03 234.61 426.05 192.03&#xA;  Q 435.38 175.51 446.05 160.04&#xA;  Q 458.94 141.36 475.54 125.17&#xA;  C 482.08 118.80 489.28 112.92 497.03 108.61&#xA;  Q 499.54 107.21 505.78 106.98&#xA;  C 523.17 106.33 537.82 107.35 554.99 108.88&#xA;  Q 598.22 112.75 644.98 128.52&#xA;  Q 684.91 142.00 720.62 162.91&#xA;  Q 729.20 167.93 741.56 175.82&#xA;  Q 744.31 177.58 746.69 179.25&#xA;  A 0.36 0.36 0.0 0 1 746.64 179.87&#xA;  Z"></path>
      <path fill="#febb4d" d="&#xA;  M 435.55 113.26&#xA;  C 416.06 135.11 399.82 160.31 385.65 186.64&#xA;  Q 324.72 299.92 300.86 429.17&#xA;  Q 299.26 437.89 298.72 443.28&#xA;  A 0.63 0.62 10.5 0 1 297.93 443.82&#xA;  Q 262.37 434.25 239.86 405.17&#xA;  C 220.25 379.83 210.99 349.12 208.34 316.52&#xA;  C 206.04 288.27 208.97 259.83 218.42 232.68&#xA;  C 219.76 228.83 220.69 226.91 223.93 224.00&#xA;  C 236.06 213.09 244.25 205.59 255.90 196.64&#xA;  Q 297.06 165.04 344.14 143.40&#xA;  C 373.31 129.99 403.77 119.11 435.35 112.90&#xA;  A 0.22 0.22 0.0 0 1 435.55 113.26&#xA;  Z&#xA;  M 431.22 114.95&#xA;  C 402.28 120.70 374.33 130.85 347.23 143.06&#xA;  Q 289.96 168.86 243.86 207.64&#xA;  Q 240.25 210.68 237.46 213.04&#xA;  C 232.82 216.96 228.84 221.27 224.03 225.02&#xA;  Q 222.25 226.40 221.41 228.40&#xA;  Q 213.54 247.01 210.27 273.75&#xA;  Q 207.92 292.95 208.98 307.75&#xA;  Q 209.02 308.34 209.91 319.70&#xA;  Q 211.99 346.16 221.71 371.03&#xA;  C 231.00 394.82 247.41 417.05 269.07 430.29&#xA;  Q 282.29 438.37 296.51 442.22&#xA;  A 1.11 1.11 0.0 0 0 297.91 441.19&#xA;  Q 297.99 439.02 298.33 437.02&#xA;  Q 306.98 386.62 322.81 334.25&#xA;  Q 342.26 269.85 375.06 204.54&#xA;  Q 390.81 173.20 407.28 148.43&#xA;  C 414.98 136.86 423.20 125.91 431.76 115.87&#xA;  A 0.57 0.56 14.7 0 0 431.22 114.95&#xA;  Z"></path>
      <path fill="#e67732" d="&#xA;  M 431.22 114.95&#xA;  A 0.57 0.56 14.7 0 1 431.76 115.87&#xA;  C 423.20 125.91 414.98 136.86 407.28 148.43&#xA;  Q 390.81 173.20 375.06 204.54&#xA;  Q 342.26 269.85 322.81 334.25&#xA;  Q 306.98 386.62 298.33 437.02&#xA;  Q 297.99 439.02 297.91 441.19&#xA;  A 1.11 1.11 0.0 0 1 296.51 442.22&#xA;  Q 282.29 438.37 269.07 430.29&#xA;  C 247.41 417.05 231.00 394.82 221.71 371.03&#xA;  Q 211.99 346.16 209.91 319.70&#xA;  Q 209.02 308.34 208.98 307.75&#xA;  Q 207.92 292.95 210.27 273.75&#xA;  Q 213.54 247.01 221.41 228.40&#xA;  Q 222.25 226.40 224.03 225.02&#xA;  C 228.84 221.27 232.82 216.96 237.46 213.04&#xA;  Q 240.25 210.68 243.86 207.64&#xA;  Q 289.96 168.86 347.23 143.06&#xA;  C 374.33 130.85 402.28 120.70 431.22 114.95&#xA;  Z"></path>
      <path fill="#febb4d" d="&#xA;  M 845.59 276.51&#xA;  Q 845.72 277.45 845.30 277.48&#xA;  Q 844.80 277.53 844.50 277.10&#xA;  Q 833.44 261.28 821.71 246.95&#xA;  C 817.03 241.22 812.17 236.25 807.19 230.81&#xA;  Q 800.40 223.39 789.23 213.53&#xA;  Q 788.19 212.61 785.74 212.85&#xA;  Q 769.66 214.41 755.52 218.30&#xA;  Q 743.77 221.53 738.20 223.48&#xA;  C 705.08 235.10 674.25 251.74 645.61 271.87&#xA;  Q 619.65 290.12 599.44 307.69&#xA;  C 592.08 314.09 581.88 323.17 574.17 330.42&#xA;  Q 544.65 358.18 528.18 373.42&#xA;  Q 501.45 398.14 488.56 409.04&#xA;  Q 473.25 422.00 457.75 433.75&#xA;  C 423.74 459.54 384.57 480.06 341.50 483.49&#xA;  Q 336.57 483.88 332.91 483.85&#xA;  A 0.95 0.95 0.0 0 0 331.95 484.71&#xA;  Q 330.86 496.86 329.43 514.12&#xA;  Q 328.76 522.24 328.56 527.92&#xA;  Q 328.26 536.67 328.12 541.79&#xA;  A 0.80 0.79 14.6 0 0 328.55 542.51&#xA;  Q 329.91 543.24 331.75 543.31&#xA;  Q 344.58 543.80 359.59 544.74&#xA;  C 366.66 545.18 371.69 544.98 378.25 545.57&#xA;  Q 382.28 545.93 394.50 546.00&#xA;  Q 409.44 546.08 435.75 546.47&#xA;  Q 456.66 546.78 461.25 546.47&#xA;  C 469.03 545.94 480.40 546.05 499.00 546.03&#xA;  C 505.06 546.02 512.35 545.16 518.51 545.03&#xA;  Q 532.17 544.74 539.50 544.15&#xA;  Q 540.21 544.09 544.18 544.04&#xA;  C 548.63 543.98 554.19 543.30 557.44 543.27&#xA;  Q 563.41 543.21 566.06 543.02&#xA;  Q 572.59 542.55 609.65 539.83&#xA;  Q 612.85 539.60 613.32 539.50&#xA;  C 616.32 538.88 619.44 539.15 622.51 538.86&#xA;  Q 631.69 538.01 663.74 535.05&#xA;  Q 683.26 533.25 720.76 528.65&#xA;  C 736.32 526.74 750.59 524.56 765.61 522.34&#xA;  Q 807.26 516.21 850.99 507.30&#xA;  Q 853.52 506.78 860.48 505.60&#xA;  A 0.27 0.27 0.0 0 1 860.79 505.95&#xA;  L 860.55 506.70&#xA;  Q 790.47 521.07 719.50 530.01&#xA;  Q 677.46 535.31 647.52 537.83&#xA;  Q 632.97 539.05 618.27 540.47&#xA;  Q 612.85 541.00 609.86 541.03&#xA;  C 606.14 541.08 602.88 541.71 598.71 541.92&#xA;  Q 588.79 542.42 574.77 543.57&#xA;  Q 570.10 543.95 567.47 544.01&#xA;  C 561.48 544.15 554.70 545.07 549.46 545.02&#xA;  C 544.35 544.97 540.08 545.91 535.17 545.94&#xA;  C 523.66 545.99 512.63 547.11 501.60 547.01&#xA;  Q 497.93 546.97 474.02 547.65&#xA;  C 459.55 548.06 442.93 547.81 432.92 547.95&#xA;  Q 424.93 548.06 404.58 547.43&#xA;  Q 390.51 546.99 376.25 546.80&#xA;  Q 375.24 546.79 370.75 546.40&#xA;  C 365.45 545.93 359.45 546.20 355.07 545.76&#xA;  C 345.71 544.82 338.12 544.79 327.62 543.88&#xA;  A 0.63 0.62 0.1 0 1 327.05 543.32&#xA;  Q 326.88 541.39 327.11 535.74&#xA;  Q 328.24 508.14 331.06 483.48&#xA;  A 0.59 0.59 0.0 0 1 331.62 482.96&#xA;  Q 364.04 481.81 392.96 470.21&#xA;  C 432.19 454.49 463.68 429.59 497.73 399.98&#xA;  Q 499.20 398.69 526.29 374.04&#xA;  C 547.02 355.16 571.67 331.14 592.00 313.01&#xA;  Q 629.01 279.99 670.89 254.39&#xA;  C 702.13 235.29 737.24 219.97 773.03 213.33&#xA;  Q 780.22 212.00 787.49 211.39&#xA;  A 2.19 2.17 62.9 0 1 789.11 211.92&#xA;  Q 809.32 229.82 826.34 250.90&#xA;  Q 833.33 259.56 845.59 276.51&#xA;  Z"></path>
      <path fill="#e67732" d="&#xA;  M 845.59 276.51&#xA;  Q 863.36 302.08 877.69 329.79&#xA;  Q 917.11 405.98 920.22 492.02&#xA;  A 0.65 0.64 -9.2 0 1 919.75 492.66&#xA;  Q 890.38 500.64 860.55 506.70&#xA;  L 860.79 505.95&#xA;  A 0.27 0.27 0.0 0 0 860.48 505.60&#xA;  Q 853.52 506.78 850.99 507.30&#xA;  Q 807.26 516.21 765.61 522.34&#xA;  C 750.59 524.56 736.32 526.74 720.76 528.65&#xA;  Q 683.26 533.25 663.74 535.05&#xA;  Q 631.69 538.01 622.51 538.86&#xA;  C 619.44 539.15 616.32 538.88 613.32 539.50&#xA;  Q 612.85 539.60 609.65 539.83&#xA;  Q 572.59 542.55 566.06 543.02&#xA;  Q 563.41 543.21 557.44 543.27&#xA;  C 554.19 543.30 548.63 543.98 544.18 544.04&#xA;  Q 540.21 544.09 539.50 544.15&#xA;  Q 532.17 544.74 518.51 545.03&#xA;  C 512.35 545.16 505.06 546.02 499.00 546.03&#xA;  C 480.40 546.05 469.03 545.94 461.25 546.47&#xA;  Q 456.66 546.78 435.75 546.47&#xA;  Q 409.44 546.08 394.50 546.00&#xA;  Q 382.28 545.93 378.25 545.57&#xA;  C 371.69 544.98 366.66 545.18 359.59 544.74&#xA;  Q 344.58 543.80 331.75 543.31&#xA;  Q 329.91 543.24 328.55 542.51&#xA;  A 0.80 0.79 14.6 0 1 328.12 541.79&#xA;  Q 328.26 536.67 328.56 527.92&#xA;  Q 328.76 522.24 329.43 514.12&#xA;  Q 330.86 496.86 331.95 484.71&#xA;  A 0.95 0.95 0.0 0 1 332.91 483.85&#xA;  Q 336.57 483.88 341.50 483.49&#xA;  C 384.57 480.06 423.74 459.54 457.75 433.75&#xA;  Q 473.25 422.00 488.56 409.04&#xA;  Q 501.45 398.14 528.18 373.42&#xA;  Q 544.65 358.18 574.17 330.42&#xA;  C 581.88 323.17 592.08 314.09 599.44 307.69&#xA;  Q 619.65 290.12 645.61 271.87&#xA;  C 674.25 251.74 705.08 235.10 738.20 223.48&#xA;  Q 743.77 221.53 755.52 218.30&#xA;  Q 769.66 214.41 785.74 212.85&#xA;  Q 788.19 212.61 789.23 213.53&#xA;  Q 800.40 223.39 807.19 230.81&#xA;  C 812.17 236.25 817.03 241.22 821.71 246.95&#xA;  Q 833.44 261.28 844.50 277.10&#xA;  Q 844.80 277.53 845.30 277.48&#xA;  Q 845.72 277.45 845.59 276.51&#xA;  Z&#xA;  M 861.77 504.05&#xA;  A 0.84 0.84 0.0 0 0 862.76 505.05&#xA;  Q 891.23 499.01 918.50 491.81&#xA;  A 0.86 0.85 85.6 0 0 919.13 491.07&#xA;  Q 919.33 488.71 919.15 487.25&#xA;  C 918.38 481.06 918.29 473.14 917.42 466.85&#xA;  Q 916.87 462.93 915.88 454.03&#xA;  Q 914.45 441.17 909.47 419.48&#xA;  Q 898.22 370.51 874.51 326.23&#xA;  Q 864.22 307.01 851.95 288.05&#xA;  A 0.52 0.52 0.0 0 0 851.01 288.48&#xA;  Q 854.82 301.33 856.42 306.80&#xA;  Q 868.73 348.92 870.90 393.28&#xA;  Q 871.18 399.07 871.13 403.97&#xA;  C 871.03 413.28 871.32 421.59 870.75 430.76&#xA;  Q 869.22 454.90 866.05 479.51&#xA;  Q 864.51 491.45 861.77 504.05&#xA;  Z"></path>
      <path fill="#febb4d" d="&#xA;  M 172.58 286.16&#xA;  A 0.33 0.32 -13.0 0 1 173.11 286.49&#xA;  Q 172.34 289.10 172.23 291.25&#xA;  C 169.42 343.31 183.97 398.85 221.23 436.73&#xA;  Q 251.42 467.43 292.79 478.10&#xA;  A 0.50 0.50 0.0 0 1 293.16 478.63&#xA;  Q 291.66 492.62 290.60 509.09&#xA;  C 289.95 519.18 289.88 528.54 288.84 539.25&#xA;  A 0.54 0.53 4.9 0 1 288.26 539.73&#xA;  Q 264.94 537.70 240.32 534.13&#xA;  C 208.79 529.57 177.84 522.98 149.05 512.17&#xA;  Q 126.93 503.85 107.43 490.64&#xA;  A 1.76 1.76 0.0 0 1 106.67 489.12&#xA;  C 106.90 484.24 106.94 479.92 107.32 475.65&#xA;  Q 116.12 375.73 169.75 290.91&#xA;  C 170.76 289.32 171.53 287.08 172.58 286.16&#xA;  Z&#xA;  M 169.65 293.05&#xA;  Q 155.64 314.74 142.62 343.87&#xA;  Q 115.92 403.59 109.52 465.81&#xA;  Q 109.10 469.93 108.80 474.73&#xA;  C 108.50 479.53 107.63 483.93 107.89 488.93&#xA;  A 1.67 1.66 15.5 0 0 108.61 490.20&#xA;  Q 127.68 502.97 150.16 511.36&#xA;  Q 163.19 516.23 177.63 520.15&#xA;  Q 206.14 527.91 237.22 532.47&#xA;  Q 238.20 532.62 240.74 533.02&#xA;  Q 254.60 535.20 273.01 537.05&#xA;  Q 283.47 538.10 287.10 538.26&#xA;  A 0.97 0.97 0.0 0 0 288.11 537.34&#xA;  C 288.24 534.98 287.96 532.48 288.13 529.87&#xA;  Q 289.35 510.72 290.16 498.50&#xA;  Q 290.82 488.47 291.87 479.51&#xA;  A 0.61 0.60 11.2 0 0 291.43 478.86&#xA;  C 279.39 475.41 267.98 471.31 257.02 465.25&#xA;  Q 231.84 451.32 213.48 430.03&#xA;  Q 200.39 414.86 190.93 395.43&#xA;  Q 181.86 376.80 176.99 356.51&#xA;  Q 171.97 335.60 171.24 319.98&#xA;  C 170.72 308.81 170.41 302.95 170.68 296.32&#xA;  Q 170.75 294.64 170.11 293.09&#xA;  A 0.26 0.26 0.0 0 0 169.65 293.05&#xA;  Z"></path>
      <path fill="#c95c1e" d="&#xA;  M 861.77 504.05&#xA;  Q 864.51 491.45 866.05 479.51&#xA;  Q 869.22 454.90 870.75 430.76&#xA;  C 871.32 421.59 871.03 413.28 871.13 403.97&#xA;  Q 871.18 399.07 870.90 393.28&#xA;  Q 868.73 348.92 856.42 306.80&#xA;  Q 854.82 301.33 851.01 288.48&#xA;  A 0.52 0.52 0.0 0 1 851.95 288.05&#xA;  Q 864.22 307.01 874.51 326.23&#xA;  Q 898.22 370.51 909.47 419.48&#xA;  Q 914.45 441.17 915.88 454.03&#xA;  Q 916.87 462.93 917.42 466.85&#xA;  C 918.29 473.14 918.38 481.06 919.15 487.25&#xA;  Q 919.33 488.71 919.13 491.07&#xA;  A 0.86 0.85 85.6 0 1 918.50 491.81&#xA;  Q 891.23 499.01 862.76 505.05&#xA;  A 0.84 0.84 0.0 0 1 861.77 504.05&#xA;  Z"></path>
      <path fill="#e67732" d="&#xA;  M 170.11 293.09&#xA;  Q 170.75 294.64 170.68 296.32&#xA;  C 170.41 302.95 170.72 308.81 171.24 319.98&#xA;  Q 171.97 335.60 176.99 356.51&#xA;  Q 181.86 376.80 190.93 395.43&#xA;  Q 200.39 414.86 213.48 430.03&#xA;  Q 231.84 451.32 257.02 465.25&#xA;  C 267.98 471.31 279.39 475.41 291.43 478.86&#xA;  A 0.61 0.60 11.2 0 1 291.87 479.51&#xA;  Q 290.82 488.47 290.16 498.50&#xA;  Q 289.35 510.72 288.13 529.87&#xA;  C 287.96 532.48 288.24 534.98 288.11 537.34&#xA;  A 0.97 0.97 0.0 0 1 287.10 538.26&#xA;  Q 283.47 538.10 273.01 537.05&#xA;  Q 254.60 535.20 240.74 533.02&#xA;  Q 238.20 532.62 237.22 532.47&#xA;  Q 206.14 527.91 177.63 520.15&#xA;  Q 163.19 516.23 150.16 511.36&#xA;  Q 127.68 502.97 108.61 490.20&#xA;  A 1.67 1.66 15.5 0 1 107.89 488.93&#xA;  C 107.63 483.93 108.50 479.53 108.80 474.73&#xA;  Q 109.10 469.93 109.52 465.81&#xA;  Q 115.92 403.59 142.62 343.87&#xA;  Q 155.64 314.74 169.65 293.05&#xA;  A 0.26 0.26 0.0 0 1 170.11 293.09&#xA;  Z"></path>
      <path fill="#e67732" d="&#xA;  M 626.74 794.49&#xA;  L 627.05 794.33&#xA;  A 0.40 0.40 0.0 0 0 627.06 793.63&#xA;  Q 611.78 785.25 601.37 779.14&#xA;  C 578.85 765.93 555.55 749.21 533.19 732.07&#xA;  Q 487.19 696.80 478.71 690.80&#xA;  C 457.98 676.12 436.85 662.57 414.16 651.09&#xA;  C 398.62 643.23 381.74 636.29 364.61 632.08&#xA;  Q 352.43 629.08 349.67 628.61&#xA;  Q 343.46 627.55 332.03 626.15&#xA;  A 1.25 1.25 0.0 0 1 330.94 625.05&#xA;  Q 330.28 619.46 330.06 615.36&#xA;  Q 329.65 607.86 329.43 605.65&#xA;  Q 328.33 594.48 328.52 580.78&#xA;  A 0.65 0.65 0.0 0 1 329.22 580.14&#xA;  Q 390.70 584.36 449.55 584.70&#xA;  Q 451.90 584.71 455.44 584.86&#xA;  C 460.29 585.07 465.64 584.55 470.18 584.62&#xA;  Q 480.44 584.79 493.26 584.48&#xA;  Q 541.43 583.31 570.77 581.58&#xA;  Q 572.93 581.45 585.53 580.66&#xA;  Q 669.65 575.42 755.53 563.29&#xA;  Q 796.61 557.48 845.60 548.23&#xA;  Q 839.94 566.33 833.37 583.13&#xA;  Q 828.70 595.11 823.31 606.07&#xA;  Q 790.75 672.30 736.86 722.36&#xA;  Q 722.79 735.42 708.94 746.40&#xA;  Q 675.46 772.91 636.33 791.52&#xA;  C 634.22 792.53 632.25 793.80 629.86 794.34&#xA;  A 0.26 0.26 0.0 0 0 629.80 794.83&#xA;  C 650.60 805.50 672.07 814.29 694.24 820.56&#xA;  Q 703.42 823.16 704.93 823.56&#xA;  Q 708.02 824.39 719.56 826.54&#xA;  Q 723.49 827.27 727.10 827.58&#xA;  Q 733.54 828.13 734.66 828.28&#xA;  C 745.04 829.68 754.59 828.88 765.77 827.01&#xA;  Q 767.78 826.68 769.40 825.87&#xA;  Q 771.68 824.72 772.69 823.93&#xA;  Q 792.43 808.31 811.02 788.63&#xA;  C 813.76 785.73 815.32 783.27 817.80 780.99&#xA;  C 821.17 777.90 824.16 773.60 827.44 769.74&#xA;  Q 830.37 766.30 831.99 764.21&#xA;  Q 849.18 742.19 862.97 718.23&#xA;  Q 898.97 655.70 912.13 585.49&#xA;  Q 916.03 564.68 918.02 542.99&#xA;  Q 918.67 535.93 919.19 531.67&#xA;  A 0.88 0.88 0.0 0 0 918.08 530.71&#xA;  Q 884.02 540.18 849.20 547.38&#xA;  Q 849.34 547.15 849.36 546.93&#xA;  Q 849.38 546.75 849.23 546.62&#xA;  Q 849.11 546.53 848.94 546.42&#xA;  Q 849.22 546.39 849.48 546.25&#xA;  Q 849.80 546.08 849.98 546.04&#xA;  Q 885.22 538.85 919.61 529.08&#xA;  A 0.40 0.39 82.5 0 1 920.11 529.47&#xA;  Q 920.06 533.91 919.52 540.26&#xA;  Q 910.77 643.53 857.24 729.99&#xA;  Q 826.85 779.09 784.09 816.08&#xA;  Q 776.59 822.57 770.39 826.89&#xA;  Q 769.30 827.66 767.06 828.08&#xA;  Q 750.75 831.15 735.44 829.82&#xA;  C 729.97 829.35 721.03 828.21 714.20 826.80&#xA;  C 684.06 820.60 654.10 808.95 626.74 794.49&#xA;  Z"></path>
      <path fill="#febb4d" d="&#xA;  M 171.97 734.03&#xA;  A 0.30 0.30 0.0 0 1 171.42 734.13&#xA;  Q 140.08 687.13 123.93 632.84&#xA;  Q 108.94 582.44 105.96 530.25&#xA;  A 0.10 0.10 0.0 0 1 106.11 530.16&#xA;  C 120.46 539.34 135.59 545.67 152.53 551.43&#xA;  Q 177.80 560.02 208.75 566.00&#xA;  Q 246.91 573.37 288.09 576.64&#xA;  A 0.56 0.56 0.0 0 1 288.60 577.16&#xA;  L 292.08 627.40&#xA;  A 0.42 0.42 0.0 0 1 291.73 627.84&#xA;  C 273.59 630.73 256.34 637.82 240.58 646.80&#xA;  C 214.98 661.38 193.11 683.32 180.08 709.87&#xA;  C 176.17 717.85 173.79 725.61 171.97 734.03&#xA;  Z&#xA;  M 108.24 532.77&#xA;  A 0.55 0.55 0.0 0 0 107.42 533.24&#xA;  C 107.34 538.74 108.19 543.88 108.63 548.90&#xA;  Q 109.28 556.25 110.90 568.59&#xA;  C 111.17 570.61 111.91 572.20 111.83 573.98&#xA;  Q 111.77 575.13 112.30 578.04&#xA;  Q 117.70 607.92 124.45 630.80&#xA;  Q 140.13 684.01 170.37 730.82&#xA;  A 0.67 0.66 35.0 0 0 171.58 730.61&#xA;  C 175.49 713.25 184.69 697.10 195.51 683.76&#xA;  Q 205.53 671.41 215.73 662.98&#xA;  Q 221.63 658.11 223.03 657.05&#xA;  Q 245.34 640.21 272.84 631.15&#xA;  Q 282.60 627.94 290.22 626.92&#xA;  A 1.40 1.40 0.0 0 0 291.40 625.25&#xA;  Q 290.07 618.91 290.07 612.73&#xA;  C 290.08 610.63 289.16 606.88 289.12 604.08&#xA;  Q 289.05 598.79 288.65 595.15&#xA;  C 287.96 588.98 288.14 585.37 287.80 578.45&#xA;  A 0.83 0.83 0.0 0 0 287.04 577.66&#xA;  Q 247.95 574.58 208.07 566.91&#xA;  Q 190.01 563.43 169.28 557.64&#xA;  Q 146.54 551.29 126.88 542.63&#xA;  C 120.43 539.79 115.90 537.09 108.24 532.77&#xA;  Z"></path>
      <path fill="#c95c1e" d="&#xA;  M 845.60 548.23&#xA;  L 849.20 547.38&#xA;  Q 884.02 540.18 918.08 530.71&#xA;  A 0.88 0.88 0.0 0 1 919.19 531.67&#xA;  Q 918.67 535.93 918.02 542.99&#xA;  Q 916.03 564.68 912.13 585.49&#xA;  Q 898.97 655.70 862.97 718.23&#xA;  Q 849.18 742.19 831.99 764.21&#xA;  Q 830.37 766.30 827.44 769.74&#xA;  C 824.16 773.60 821.17 777.90 817.80 780.99&#xA;  C 815.32 783.27 813.76 785.73 811.02 788.63&#xA;  Q 792.43 808.31 772.69 823.93&#xA;  Q 771.68 824.72 769.40 825.87&#xA;  Q 767.78 826.68 765.77 827.01&#xA;  C 754.59 828.88 745.04 829.68 734.66 828.28&#xA;  Q 733.54 828.13 727.10 827.58&#xA;  Q 723.49 827.27 719.56 826.54&#xA;  Q 708.02 824.39 704.93 823.56&#xA;  Q 703.42 823.16 694.24 820.56&#xA;  C 672.07 814.29 650.60 805.50 629.80 794.83&#xA;  A 0.26 0.26 0.0 0 1 629.86 794.34&#xA;  C 632.25 793.80 634.22 792.53 636.33 791.52&#xA;  Q 675.46 772.91 708.94 746.40&#xA;  Q 722.79 735.42 736.86 722.36&#xA;  Q 790.75 672.30 823.31 606.07&#xA;  Q 828.70 595.11 833.37 583.13&#xA;  Q 839.94 566.33 845.60 548.23&#xA;  Z"></path>
      <path fill="#e67732" d="&#xA;  M 108.24 532.77&#xA;  C 115.90 537.09 120.43 539.79 126.88 542.63&#xA;  Q 146.54 551.29 169.28 557.64&#xA;  Q 190.01 563.43 208.07 566.91&#xA;  Q 247.95 574.58 287.04 577.66&#xA;  A 0.83 0.83 0.0 0 1 287.80 578.45&#xA;  C 288.14 585.37 287.96 588.98 288.65 595.15&#xA;  Q 289.05 598.79 289.12 604.08&#xA;  C 289.16 606.88 290.08 610.63 290.07 612.73&#xA;  Q 290.07 618.91 291.40 625.25&#xA;  A 1.40 1.40 0.0 0 1 290.22 626.92&#xA;  Q 282.60 627.94 272.84 631.15&#xA;  Q 245.34 640.21 223.03 657.05&#xA;  Q 221.63 658.11 215.73 662.98&#xA;  Q 205.53 671.41 195.51 683.76&#xA;  C 184.69 697.10 175.49 713.25 171.58 730.61&#xA;  A 0.67 0.66 35.0 0 1 170.37 730.82&#xA;  Q 140.13 684.01 124.45 630.80&#xA;  Q 117.70 607.92 112.30 578.04&#xA;  Q 111.77 575.13 111.83 573.98&#xA;  C 111.91 572.20 111.17 570.61 110.90 568.59&#xA;  Q 109.28 556.25 108.63 548.90&#xA;  C 108.19 543.88 107.34 538.74 107.42 533.24&#xA;  A 0.55 0.55 0.0 0 1 108.24 532.77&#xA;  Z"></path>
      <path fill="#febb4d" d="&#xA;  M 848.94 546.42&#xA;  Q 849.11 546.53 849.23 546.62&#xA;  Q 849.38 546.75 849.36 546.93&#xA;  Q 849.34 547.15 849.20 547.38&#xA;  L 845.60 548.23&#xA;  Q 796.61 557.48 755.53 563.29&#xA;  Q 669.65 575.42 585.53 580.66&#xA;  Q 572.93 581.45 570.77 581.58&#xA;  Q 541.43 583.31 493.26 584.48&#xA;  Q 480.44 584.79 470.18 584.62&#xA;  C 465.64 584.55 460.29 585.07 455.44 584.86&#xA;  Q 451.90 584.71 449.55 584.70&#xA;  Q 390.70 584.36 329.22 580.14&#xA;  A 0.65 0.65 0.0 0 0 328.52 580.78&#xA;  Q 328.33 594.48 329.43 605.65&#xA;  Q 329.65 607.86 330.06 615.36&#xA;  Q 330.28 619.46 330.94 625.05&#xA;  A 1.25 1.25 0.0 0 0 332.03 626.15&#xA;  Q 343.46 627.55 349.67 628.61&#xA;  Q 352.43 629.08 364.61 632.08&#xA;  C 381.74 636.29 398.62 643.23 414.16 651.09&#xA;  C 436.85 662.57 457.98 676.12 478.71 690.80&#xA;  Q 487.19 696.80 533.19 732.07&#xA;  C 555.55 749.21 578.85 765.93 601.37 779.14&#xA;  Q 611.78 785.25 627.06 793.63&#xA;  A 0.40 0.40 0.0 0 1 627.05 794.33&#xA;  L 626.74 794.49&#xA;  C 594.93 777.75 567.16 759.33 538.53 737.46&#xA;  C 486.24 697.51 433.30 653.44 369.49 634.54&#xA;  Q 350.64 628.96 331.11 627.33&#xA;  A 1.16 1.16 0.0 0 1 330.05 626.28&#xA;  Q 329.87 624.29 329.55 622.44&#xA;  C 328.92 618.70 329.11 614.88 328.65 611.35&#xA;  Q 328.11 607.18 328.09 604.14&#xA;  C 328.03 596.72 327.07 588.01 327.20 579.47&#xA;  A 0.46 0.45 1.8 0 1 327.69 579.02&#xA;  Q 353.38 580.66 357.50 580.78&#xA;  Q 367.60 581.06 373.09 581.45&#xA;  Q 383.89 582.21 388.41 582.14&#xA;  C 394.46 582.04 402.90 582.90 408.87 582.94&#xA;  C 431.54 583.10 452.38 584.03 474.72 583.65&#xA;  Q 499.59 583.24 513.50 582.89&#xA;  C 559.23 581.76 608.45 578.43 655.74 573.98&#xA;  Q 706.36 569.22 758.14 561.83&#xA;  Q 801.47 555.65 848.94 546.42&#xA;  Z"></path>
      <path fill="#febb4d" d="&#xA;  M 410.19 903.67&#xA;  A 0.29 0.29 0.0 0 1 409.94 904.17&#xA;  Q 350.06 889.82 297.18 858.08&#xA;  Q 271.21 842.49 248.66 822.67&#xA;  Q 232.00 808.03 214.11 787.47&#xA;  C 210.77 783.62 209.50 775.37 208.41 768.81&#xA;  Q 203.24 737.62 219.30 711.51&#xA;  C 235.73 684.80 266.51 667.59 296.81 662.01&#xA;  A 0.43 0.42 -8.7 0 1 297.30 662.36&#xA;  Q 305.76 718.27 325.39 771.15&#xA;  C 340.07 810.72 360.64 849.06 387.48 881.02&#xA;  Q 398.36 893.98 410.19 903.67&#xA;  Z&#xA;  M 208.90 761.72&#xA;  C 209.53 769.55 210.69 777.88 213.74 785.09&#xA;  A 3.86 3.75 15.6 0 0 214.23 785.93&#xA;  Q 215.70 787.78 219.98 792.58&#xA;  Q 224.95 798.17 237.03 810.28&#xA;  Q 257.44 830.73 282.39 847.39&#xA;  Q 332.72 881.00 392.93 898.66&#xA;  Q 398.95 900.43 403.73 901.18&#xA;  A 0.63 0.63 0.0 0 0 404.22 900.06&#xA;  Q 402.09 898.36 400.76 897.04&#xA;  Q 387.63 883.95 375.30 867.27&#xA;  Q 359.05 845.29 346.42 821.06&#xA;  Q 346.18 820.59 345.17 819.55&#xA;  Q 345.17 819.02 344.93 818.55&#xA;  Q 332.15 793.56 323.66 769.89&#xA;  Q 315.37 746.78 311.40 732.66&#xA;  Q 301.85 698.67 296.38 664.17&#xA;  A 0.91 0.91 0.0 0 0 295.31 663.42&#xA;  Q 264.05 669.51 239.62 689.62&#xA;  Q 232.43 695.54 226.21 703.46&#xA;  Q 212.48 720.97 209.07 743.01&#xA;  Q 207.89 750.66 208.90 761.72&#xA;  Z"></path>
      <path fill="#febb4d" d="&#xA;  M 719.68 861.61&#xA;  L 719.61 861.88&#xA;  A 0.13 0.13 0.0 0 1 719.55 861.97&#xA;  Q 691.45 879.09 656.79 891.49&#xA;  Q 593.62 914.08 527.26 916.80&#xA;  Q 512.06 917.43 495.33 916.14&#xA;  Q 493.11 915.97 490.23 915.13&#xA;  Q 459.65 906.19 434.35 881.12&#xA;  Q 417.80 864.73 406.42 848.58&#xA;  Q 370.54 797.68 351.97 738.52&#xA;  Q 340.43 701.72 335.15 663.35&#xA;  A 0.33 0.32 0.1 0 1 335.52 662.99&#xA;  Q 363.30 666.88 388.38 678.63&#xA;  Q 411.94 689.67 434.00 704.49&#xA;  C 449.92 715.19 465.35 726.19 480.44 738.21&#xA;  C 511.47 762.93 542.68 787.23 577.03 807.28&#xA;  C 615.26 829.61 654.38 848.47 697.01 857.96&#xA;  Q 709.13 860.65 719.44 861.28&#xA;  A 0.26 0.26 0.0 0 1 719.68 861.61&#xA;  Z&#xA;  M 399.77 837.07&#xA;  Q 412.68 856.62 422.77 867.48&#xA;  Q 436.08 881.83 443.33 887.91&#xA;  Q 451.77 894.99 457.81 898.96&#xA;  Q 472.11 908.37 490.49 914.09&#xA;  Q 490.80 914.18 495.48 914.84&#xA;  Q 497.84 915.17 500.53 915.14&#xA;  Q 510.70 914.98 518.15 915.27&#xA;  C 523.55 915.48 527.60 915.13 532.59 915.13&#xA;  Q 538.47 915.12 543.41 914.69&#xA;  Q 562.34 913.05 574.92 911.09&#xA;  Q 625.72 903.18 673.35 883.84&#xA;  Q 696.02 874.63 715.51 863.10&#xA;  A 0.44 0.44 0.0 0 0 715.34 862.28&#xA;  Q 699.03 860.29 680.95 855.05&#xA;  Q 644.93 844.60 610.36 826.70&#xA;  Q 594.40 818.43 586.20 813.80&#xA;  Q 584.79 813.00 583.88 812.98&#xA;  Q 583.00 811.99 582.38 811.63&#xA;  Q 563.02 800.69 545.40 788.59&#xA;  Q 523.62 773.62 502.65 757.18&#xA;  Q 496.73 752.54 484.26 742.64&#xA;  Q 472.35 733.18 461.47 725.12&#xA;  C 455.22 720.50 448.86 716.32 443.77 712.60&#xA;  Q 439.93 709.80 431.18 704.09&#xA;  Q 421.22 697.60 418.36 695.90&#xA;  Q 408.09 689.80 393.23 682.27&#xA;  Q 367.04 669.00 337.53 664.34&#xA;  A 0.76 0.76 0.0 0 0 336.66 665.19&#xA;  Q 339.13 683.98 342.92 700.22&#xA;  C 349.26 727.47 357.00 752.98 367.98 777.97&#xA;  Q 381.63 809.04 399.77 837.07&#xA;  Z"></path>
      <path fill="#e67732" d="&#xA;  M 345.17 819.55&#xA;  Q 344.19 819.72 343.62 819.62&#xA;  Q 333.43 817.81 324.23 815.71&#xA;  Q 304.17 811.11 284.55 802.45&#xA;  Q 264.16 793.44 257.54 789.94&#xA;  Q 234.91 777.95 209.86 761.09&#xA;  A 0.57 0.57 0.0 0 0 209.00 761.39&#xA;  L 208.90 761.72&#xA;  Q 207.89 750.66 209.07 743.01&#xA;  Q 212.48 720.97 226.21 703.46&#xA;  Q 232.43 695.54 239.62 689.62&#xA;  Q 264.05 669.51 295.31 663.42&#xA;  A 0.91 0.91 0.0 0 1 296.38 664.17&#xA;  Q 301.85 698.67 311.40 732.66&#xA;  Q 315.37 746.78 323.66 769.89&#xA;  Q 332.15 793.56 344.93 818.55&#xA;  Q 345.17 819.02 345.17 819.55&#xA;  Z"></path>
      <path fill="#e67732" d="&#xA;  M 583.88 812.98&#xA;  Q 571.31 818.52 554.32 823.29&#xA;  Q 510.19 835.66 467.01 837.83&#xA;  Q 435.93 839.40 419.00 838.01&#xA;  Q 406.02 836.95 399.77 837.07&#xA;  Q 381.63 809.04 367.98 777.97&#xA;  C 357.00 752.98 349.26 727.47 342.92 700.22&#xA;  Q 339.13 683.98 336.66 665.19&#xA;  A 0.76 0.76 0.0 0 1 337.53 664.34&#xA;  Q 367.04 669.00 393.23 682.27&#xA;  Q 408.09 689.80 418.36 695.90&#xA;  Q 421.22 697.60 431.18 704.09&#xA;  Q 439.93 709.80 443.77 712.60&#xA;  C 448.86 716.32 455.22 720.50 461.47 725.12&#xA;  Q 472.35 733.18 484.26 742.64&#xA;  Q 496.73 752.54 502.65 757.18&#xA;  Q 523.62 773.62 545.40 788.59&#xA;  Q 563.02 800.69 582.38 811.63&#xA;  Q 583.00 811.99 583.88 812.98&#xA;  Z"></path>
      <path fill="#c95c1e" d="&#xA;  M 345.17 819.55&#xA;  Q 346.18 820.59 346.42 821.06&#xA;  Q 359.05 845.29 375.30 867.27&#xA;  Q 387.63 883.95 400.76 897.04&#xA;  Q 402.09 898.36 404.22 900.06&#xA;  A 0.63 0.63 0.0 0 1 403.73 901.18&#xA;  Q 398.95 900.43 392.93 898.66&#xA;  Q 332.72 881.00 282.39 847.39&#xA;  Q 257.44 830.73 237.03 810.28&#xA;  Q 224.95 798.17 219.98 792.58&#xA;  Q 215.70 787.78 214.23 785.93&#xA;  A 3.86 3.75 15.6 0 1 213.74 785.09&#xA;  C 210.69 777.88 209.53 769.55 208.90 761.72&#xA;  L 209.00 761.39&#xA;  A 0.57 0.57 0.0 0 1 209.86 761.09&#xA;  Q 234.91 777.95 257.54 789.94&#xA;  Q 264.16 793.44 284.55 802.45&#xA;  Q 304.17 811.11 324.23 815.71&#xA;  Q 333.43 817.81 343.62 819.62&#xA;  Q 344.19 819.72 345.17 819.55&#xA;  Z"></path>
      <path fill="#c95c1e" d="&#xA;  M 583.88 812.98&#xA;  Q 584.79 813.00 586.20 813.80&#xA;  Q 594.40 818.43 610.36 826.70&#xA;  Q 644.93 844.60 680.95 855.05&#xA;  Q 699.03 860.29 715.34 862.28&#xA;  A 0.44 0.44 0.0 0 1 715.51 863.10&#xA;  Q 696.02 874.63 673.35 883.84&#xA;  Q 625.72 903.18 574.92 911.09&#xA;  Q 562.34 913.05 543.41 914.69&#xA;  Q 538.47 915.12 532.59 915.13&#xA;  C 527.60 915.13 523.55 915.48 518.15 915.27&#xA;  Q 510.70 914.98 500.53 915.14&#xA;  Q 497.84 915.17 495.48 914.84&#xA;  Q 490.80 914.18 490.49 914.09&#xA;  Q 472.11 908.37 457.81 898.96&#xA;  Q 451.77 894.99 443.33 887.91&#xA;  Q 436.08 881.83 422.77 867.48&#xA;  Q 412.68 856.62 399.77 837.07&#xA;  Q 406.02 836.95 419.00 838.01&#xA;  Q 435.93 839.40 467.01 837.83&#xA;  Q 510.19 835.66 554.32 823.29&#xA;  Q 571.31 818.52 583.88 812.98&#xA;  Z"></path>
  </symbol>
</svg>