<svg xmlns="http://www.w3.org/2000/svg"><symbol id="BasketballSvg" viewBox="0 0 1024 1024"><g fill="none" stroke-width="2"><path stroke="#7f5e27" d="M336.69 447.37q29.1-3.26 56.09-16.65c26.57-13.17 50.47-31.63 72.73-51.21 32.02-28.18 66.22-61.51 96.63-88.61 35.5-31.63 74.5-60.93 116.61-83.17q25.14-13.29 53.31-22.65 8.54-2.84 17.8-4.36a.36.36 0 0 0 .14-.65c-14.2-9.27-28.02-18.15-41.98-25.56q-46.38-24.6-97.52-37.25-36.67-9.07-76.26-11.15-13.34-.71-30.97-.07-4.34.16-6.82 1.67-12.74 7.79-23.5 18.77-23.25 23.68-40.08 51.9-17.19 28.81-29.65 55.13-22.59 47.71-40.12 100.86c-11.72 35.54-20.55 72.78-26.7 108.52q-.44 2.56-.26 4.05a.49.49 0 0 0 .55.43m98.86-334.11a.22.22 0 0 0-.2-.36c-31.58 6.21-62.04 17.09-91.21 30.5q-47.08 21.64-88.24 53.24c-11.65 8.95-19.84 16.45-31.97 27.36-3.24 2.91-4.17 4.83-5.51 8.68-9.45 27.15-12.38 55.59-10.08 83.84 2.65 32.6 11.91 63.31 31.52 88.65q22.51 29.08 58.07 38.65a.63.62 10.5 0 0 .79-.54q.54-5.39 2.14-14.11 23.86-129.25 84.79-242.53c14.17-26.33 30.41-51.53 49.9-73.38" vector-effect="non-scaling-stroke"/><path stroke="#733c19" d="M860.55 506.7q29.83-6.06 59.2-14.04a.65.64-9.2 0 0 .47-.64q-3.11-86.04-42.53-162.23-14.33-27.71-32.1-53.28" vector-effect="non-scaling-stroke"/><path stroke="#7f5e27" d="M845.59 276.51q-12.26-16.95-19.25-25.61-17.02-21.08-37.23-38.98a2.19 2.17 62.9 0 0-1.62-.53q-7.27.61-14.46 1.94c-35.79 6.64-70.9 21.96-102.14 41.06q-41.88 25.6-78.89 58.62c-20.33 18.13-44.98 42.15-65.71 61.03q-27.09 24.65-28.56 25.94c-34.05 29.61-65.54 54.51-104.77 70.23q-28.92 11.6-61.34 12.75a.59.59 0 0 0-.56.52q-2.82 24.66-3.95 52.26-.23 5.65-.06 7.58a.63.62.1 0 0 .57.56c10.5.91 18.09.94 27.45 1.88 4.38.44 10.38.17 15.68.64q4.49.39 5.5.4 14.26.19 28.33.63 20.35.63 28.34.52c10.01-.14 26.63.11 41.1-.3q23.91-.68 27.58-.64c11.03.1 22.06-1.02 33.57-1.07 4.91-.03 9.18-.97 14.29-.92 5.24.05 12.02-.87 18.01-1.01q2.63-.06 7.3-.44 14.02-1.15 23.94-1.65c4.17-.21 7.43-.84 11.15-.89q2.99-.03 8.41-.56 14.7-1.42 29.25-2.64 29.94-2.52 71.98-7.82 70.97-8.94 141.05-23.31" vector-effect="non-scaling-stroke"/><path stroke="#f29940" d="M845.59 276.51q.13.94-.29.97-.5.05-.8-.38-11.06-15.82-22.79-30.15c-4.68-5.73-9.54-10.7-14.52-16.14q-6.79-7.42-17.96-17.28-1.04-.92-3.49-.68-16.08 1.56-30.22 5.45-11.75 3.23-17.32 5.18c-33.12 11.62-63.95 28.26-92.59 48.39q-25.96 18.25-46.17 35.82c-7.36 6.4-17.56 15.48-25.27 22.73q-29.52 27.76-45.99 43-26.73 24.72-39.62 35.62-15.31 12.96-30.81 24.71c-34.01 25.79-73.18 46.31-116.25 49.74q-4.93.39-8.59.36a.95.95 0 0 0-.96.86q-1.09 12.15-2.52 29.41-.67 8.12-.87 13.8-.3 8.75-.44 13.87a.8.79 14.6 0 0 .43.72q1.36.73 3.2.8 12.83.49 27.84 1.43c7.07.44 12.1.24 18.66.83q4.03.36 16.25.43 14.94.08 41.25.47 20.91.31 25.5 0c7.78-.53 19.15-.42 37.75-.44 6.06-.01 13.35-.87 19.51-1q13.66-.29 20.99-.88.71-.06 4.68-.11c4.45-.06 10.01-.74 13.26-.77q5.97-.06 8.62-.25 6.53-.47 43.59-3.19 3.2-.23 3.67-.33c3-.62 6.12-.35 9.19-.64q9.18-.85 41.23-3.81 19.52-1.8 57.02-6.4c15.56-1.91 29.83-4.09 44.85-6.31q41.65-6.13 85.38-15.04 2.53-.52 9.49-1.7a.27.27 0 0 1 .31.35l-.24.75" vector-effect="non-scaling-stroke"/><path stroke="#7f5e27" d="M172.58 286.16c-1.05.92-1.82 3.16-2.83 4.75q-53.63 84.82-62.43 184.74c-.38 4.27-.42 8.59-.65 13.47a1.76 1.76 0 0 0 .76 1.52q19.5 13.21 41.62 21.53c28.79 10.81 59.74 17.4 91.27 21.96q24.62 3.57 47.94 5.6a.54.53 4.9 0 0 .58-.48c1.04-10.71 1.11-20.07 1.76-30.16q1.06-16.47 2.56-30.46a.5.5 0 0 0-.37-.53q-41.37-10.67-71.56-41.37c-37.26-37.88-51.81-93.42-49-145.48q.11-2.15.88-4.76a.33.32-13 0 0-.53-.33m676.36 260.26q-47.47 9.23-90.8 15.41-51.78 7.39-102.4 12.15c-47.29 4.45-96.51 7.78-142.24 8.91q-13.91.35-38.78.76c-22.34.38-43.18-.55-65.85-.71-5.97-.04-14.41-.9-20.46-.8q-4.52.07-15.32-.69-5.49-.39-15.59-.67-4.12-.12-29.81-1.76a.46.45 1.8 0 0-.49.45c-.13 8.54.83 17.25.89 24.67q.02 3.04.56 7.21c.46 3.53.27 7.35.9 11.09q.32 1.85.5 3.84a1.16 1.16 0 0 0 1.06 1.05q19.53 1.63 38.38 7.21c63.81 18.9 116.75 62.97 169.04 102.92 28.63 21.87 56.4 40.29 88.21 57.03" vector-effect="non-scaling-stroke"/><path stroke="#733c19" d="M626.74 794.49c27.36 14.46 57.32 26.11 87.46 32.31 6.83 1.41 15.77 2.55 21.24 3.02q15.31 1.33 31.62-1.74 2.24-.42 3.33-1.19 6.2-4.32 13.7-10.81 42.76-36.99 73.15-86.09 53.53-86.46 62.28-189.73.54-6.35.59-10.79a.4.39 82.5 0 0-.5-.39q-34.39 9.77-69.63 16.96-.18.04-.5.21-.26.14-.54.17" vector-effect="non-scaling-stroke"/><path stroke="#f29940" d="m626.74 794.49.31-.16a.4.4 0 0 0 .01-.7q-15.28-8.38-25.69-14.49c-22.52-13.21-45.82-29.93-68.18-47.07q-46-35.27-54.48-41.27c-20.73-14.68-41.86-28.23-64.55-39.71-15.54-7.86-32.42-14.8-49.55-19.01q-12.18-3-14.94-3.47-6.21-1.06-17.64-2.46a1.25 1.25 0 0 1-1.09-1.1q-.66-5.59-.88-9.69-.41-7.5-.63-9.71-1.1-11.17-.91-24.87a.65.65 0 0 1 .7-.64q61.48 4.22 120.33 4.56 2.35.01 5.89.16c4.85.21 10.2-.31 14.74-.24q10.26.17 23.08-.14 48.17-1.17 77.51-2.9 2.16-.13 14.76-.92 84.12-5.24 170-17.37 41.08-5.81 90.07-15.06" vector-effect="non-scaling-stroke"/><path stroke="#d86a28" d="M845.6 548.23q-5.66 18.1-12.23 34.9-4.67 11.98-10.06 22.94-32.56 66.23-86.45 116.29-14.07 13.06-27.92 24.04-33.48 26.51-72.61 45.12c-2.11 1.01-4.08 2.28-6.47 2.82a.26.26 0 0 0-.06.49c20.8 10.67 42.27 19.46 64.44 25.73q9.18 2.6 10.69 3 3.09.83 14.63 2.98 3.93.73 7.54 1.04 6.44.55 7.56.7c10.38 1.4 19.93.6 31.11-1.27q2.01-.33 3.63-1.14 2.28-1.15 3.29-1.94 19.74-15.62 38.33-35.3c2.74-2.9 4.3-5.36 6.78-7.64 3.37-3.09 6.36-7.39 9.64-11.25q2.93-3.44 4.55-5.53 17.19-22.02 30.98-45.98 36-62.53 49.16-132.74 3.9-20.81 5.89-42.5.65-7.06 1.17-11.32a.88.88 0 0 0-1.11-.96q-34.06 9.47-68.88 16.67" vector-effect="non-scaling-stroke"/><path stroke="#f29940" d="M849.2 547.38q.14-.23.16-.45.02-.18-.13-.31-.12-.09-.29-.2" vector-effect="non-scaling-stroke"/><path stroke="#e48c36" d="m845.6 548.23 3.6-.85" vector-effect="non-scaling-stroke"/><path stroke="#7f5e27" d="M171.97 734.03c1.82-8.42 4.2-16.18 8.11-24.16 13.03-26.55 34.9-48.49 60.5-63.07 15.76-8.98 33.01-16.07 51.15-18.96a.42.42 0 0 0 .35-.44l-3.48-50.24a.56.56 0 0 0-.51-.52q-41.18-3.27-79.34-10.64-30.95-5.98-56.22-14.57c-16.94-5.76-32.07-12.09-46.42-21.27a.1.1 0 0 0-.15.09q2.98 52.19 17.97 102.59 16.15 54.29 47.49 101.29a.3.3 0 0 0 .55-.1m238.22 169.64q-11.83-9.69-22.71-22.65c-26.84-31.96-47.41-70.3-62.09-109.87q-19.63-52.88-28.09-108.79a.43.42-8.7 0 0-.49-.35c-30.3 5.58-61.08 22.79-77.51 49.5q-16.06 26.11-10.89 57.3c1.09 6.56 2.36 14.81 5.7 18.66q17.89 20.56 34.55 35.2 22.55 19.82 48.52 35.41 52.88 31.74 112.76 46.09a.29.29 0 0 0 .25-.5m309.49-42.06a.26.26 0 0 0-.24-.33q-10.31-.63-22.43-3.32c-42.63-9.49-81.75-28.35-119.98-50.68-34.35-20.05-65.56-44.35-96.59-69.07-15.09-12.02-30.52-23.02-46.44-33.72q-22.06-14.82-45.62-25.86-25.08-11.75-52.86-15.64a.33.32.1 0 0-.37.36q5.28 38.37 16.82 75.17 18.57 59.16 54.45 110.06 11.38 16.15 27.93 32.54 25.3 25.07 55.88 34.01 2.88.84 5.1 1.01 16.73 1.29 31.93.66 66.36-2.72 129.53-25.31 34.66-12.4 62.76-29.52a.13.13 0 0 0 .06-.09l.07-.27" vector-effect="non-scaling-stroke"/><path stroke="#f29940" d="M746.69 179.25q-2.38-1.67-5.13-3.43-12.36-7.89-20.94-12.91-35.71-20.91-75.64-34.39-46.76-15.77-89.99-19.64c-17.17-1.53-31.82-2.55-49.21-1.9q-6.24.23-8.75 1.63c-7.75 4.31-14.95 10.19-21.49 16.56q-16.6 16.19-29.49 34.87-10.67 15.47-20 31.99c-24.02 42.58-43.1 87.58-58.86 133.92q-9.77 28.72-16.03 53.24-6.94 27.16-13.75 64.32-.08.44-.51 1.07a.88.87-74.4 0 0 .77 1.37q2.78-.18 6.56-.77c30.22-4.73 59.4-19.26 84.73-37.73q16.13-11.76 28.75-22.75l16.16-14.08q7.43-6.46 36.88-33.87 15.67-14.59 39.31-36.59 4.65-4.33 12-10.66 8.5-7.33 12.18-10.48 2.81-2.41 10.89-9.13 19.95-16.61 46.22-34.79 26.55-18.37 55.79-32.94 20.26-10.09 41.46-17.15 5.87-1.96 8.98-2.75 8.78-2.25 9.06-2.39a.36.36 0 0 0 .05-.62m-315.47-64.3c-28.94 5.75-56.89 15.9-83.99 28.11q-57.27 25.8-103.37 64.58-3.61 3.04-6.4 5.4c-4.64 3.92-8.62 8.23-13.43 11.98q-1.78 1.38-2.62 3.38-7.87 18.61-11.14 45.35-2.35 19.2-1.29 34 .04.59.93 11.95 2.08 26.46 11.8 51.33c9.29 23.79 25.7 46.02 47.36 59.26q13.22 8.08 27.44 11.93a1.11 1.11 0 0 0 1.4-1.03q.08-2.17.42-4.17 8.65-50.4 24.48-102.77 19.45-64.4 52.25-129.71 15.75-31.34 32.22-56.11c7.7-11.57 15.92-22.52 24.48-32.56a.57.56 14.7 0 0-.54-.92" vector-effect="non-scaling-stroke"/><path stroke="#d86a28" d="M861.77 504.05a.84.84 0 0 0 .99 1q28.47-6.04 55.74-13.24a.86.85 85.6 0 0 .63-.74q.2-2.36.02-3.82c-.77-6.19-.86-14.11-1.73-20.4q-.55-3.92-1.54-12.82-1.43-12.86-6.41-34.55-11.25-48.97-34.96-93.25-10.29-19.22-22.56-38.18a.52.52 0 0 0-.94.43q3.81 12.85 5.41 18.32 12.31 42.12 14.48 86.48.28 5.79.23 10.69c-.1 9.31.19 17.62-.38 26.79q-1.53 24.14-4.7 48.75-1.54 11.94-4.28 24.54" vector-effect="non-scaling-stroke"/><path stroke="#f29940" d="M169.65 293.05q-14.01 21.69-27.03 50.82-26.7 59.72-33.1 121.94-.42 4.12-.72 8.92c-.3 4.8-1.17 9.2-.91 14.2a1.67 1.66 15.5 0 0 .72 1.27q19.07 12.77 41.55 21.16 13.03 4.87 27.47 8.79 28.51 7.76 59.59 12.32.98.15 3.52.55 13.86 2.18 32.27 4.03 10.46 1.05 14.09 1.21a.97.97 0 0 0 1.01-.92c.13-2.36-.15-4.86.02-7.47q1.22-19.15 2.03-31.37.66-10.03 1.71-18.99a.61.6 11.2 0 0-.44-.65c-12.04-3.45-23.45-7.55-34.41-13.61q-25.18-13.93-43.54-35.22-13.09-15.17-22.55-34.6-9.07-18.63-13.94-38.92-5.02-20.91-5.75-36.53c-.52-11.17-.83-17.03-.56-23.66q.07-1.68-.57-3.23a.26.26 0 0 0-.46-.04m-61.41 239.72a.55.55 0 0 0-.82.47c-.08 5.5.77 10.64 1.21 15.66q.65 7.35 2.27 19.69c.27 2.02 1.01 3.61.93 5.39q-.06 1.15.47 4.06 5.4 29.88 12.15 52.76 15.68 53.21 45.92 100.02a.67.66 35 0 0 1.21-.21c3.91-17.36 13.11-33.51 23.93-46.85q10.02-12.35 20.22-20.78 5.9-4.87 7.3-5.93 22.31-16.84 49.81-25.9 9.76-3.21 17.38-4.23a1.4 1.4 0 0 0 1.18-1.67q-1.33-6.34-1.33-12.52c.01-2.1-.91-5.85-.95-8.65q-.07-5.29-.47-8.93c-.69-6.17-.51-9.78-.85-16.7a.83.83 0 0 0-.76-.79q-39.09-3.08-78.97-10.75-18.06-3.48-38.79-9.27-22.74-6.35-42.4-15.01c-6.45-2.84-10.98-5.54-18.64-9.86" vector-effect="non-scaling-stroke"/><path stroke="#e48c36" d="M208.9 761.72c.63 7.83 1.79 16.16 4.84 23.37a3.86 3.75 15.6 0 0 .49.84q1.47 1.85 5.75 6.65 4.97 5.59 17.05 17.7 20.41 20.45 45.36 37.11 50.33 33.61 110.54 51.27 6.02 1.77 10.8 2.52a.63.63 0 0 0 .49-1.12q-2.13-1.7-3.46-3.02-13.13-13.09-25.46-29.77-16.25-21.98-28.88-46.21-.24-.47-1.25-1.51" vector-effect="non-scaling-stroke"/><path stroke="#f29940" d="M345.17 819.55q0-.53-.24-1-12.78-24.99-21.27-48.66-8.29-23.11-12.26-37.23-9.55-33.99-15.02-68.49a.91.91 0 0 0-1.07-.75q-31.26 6.09-55.69 26.2-7.19 5.92-13.41 13.84-13.73 17.51-17.14 39.55-1.18 7.65-.17 18.71" vector-effect="non-scaling-stroke"/><path stroke="#d86a28" d="M345.17 819.55q-.98.17-1.55.07-10.19-1.81-19.39-3.91-20.06-4.6-39.68-13.26-20.39-9.01-27.01-12.51-22.63-11.99-47.68-28.85a.57.57 0 0 0-.86.3l-.1.33" vector-effect="non-scaling-stroke"/><path stroke="#e48c36" d="M399.77 837.07q12.91 19.55 23 30.41 13.31 14.35 20.56 20.43 8.44 7.08 14.48 11.05 14.3 9.41 32.68 15.13.31.09 4.99.75 2.36.33 5.05.3 10.17-.16 17.62.13c5.4.21 9.45-.14 14.44-.14q5.88-.01 10.82-.44 18.93-1.64 31.51-3.6 50.8-7.91 98.43-27.25 22.67-9.21 42.16-20.74a.44.44 0 0 0-.17-.82q-16.31-1.99-34.39-7.23-36.02-10.45-70.59-28.35-15.96-8.27-24.16-12.9-1.41-.8-2.32-.82" vector-effect="non-scaling-stroke"/><path stroke="#f29940" d="M583.88 812.98q-.88-.99-1.5-1.35-19.36-10.94-36.98-23.04-21.78-14.97-42.75-31.41-5.92-4.64-18.39-14.54-11.91-9.46-22.79-17.52c-6.25-4.62-12.61-8.8-17.7-12.52q-3.84-2.8-12.59-8.51-9.96-6.49-12.82-8.19-10.27-6.1-25.13-13.63-26.19-13.27-55.7-17.93a.76.76 0 0 0-.87.85q2.47 18.79 6.26 35.03c6.34 27.25 14.08 52.76 25.06 77.75q13.65 31.07 31.79 59.1" vector-effect="non-scaling-stroke"/><path stroke="#d86a28" d="M583.88 812.98q-12.57 5.54-29.56 10.31-44.13 12.37-87.31 14.54-31.08 1.57-48.01.18-12.98-1.06-19.23-.94" vector-effect="non-scaling-stroke"/></g><path d="M100.92 332.39q.9-2.45 4.08-9.39 5.02-10.93 12.06-23.97 30.02-55.58 73.57-100.74c6.52-6.75 14.01-13.51 18.79-17.86 43.68-39.76 98.1-71.42 155.16-90.63q43.13-14.53 84.86-20.34 2.12-.3 5.55-.88 3.47-.58 5.57-.63 2.72-.08 4.68-.63a6.89 6.78-52.3 0 1 1.83-.25c3.75 0 6.89-.62 10.17-.86q22.25-1.66 46.32-1.15 6.37.13 9.9.44c6.22.53 10.5.23 16.07 1.01q3.46.48 6.21.5 4.37.05 5.82.65.07.03 5.77.52 9.15.77 32.33 5.26c33.18 6.42 65.96 16.59 96.85 30.54q31.43 14.2 60.5 32.51 44.11 27.78 80.82 65.92 2.98 3.1 6.28 6.89c2.45 2.8 5.36 5.72 8.36 9.18q21.42 24.65 41.54 57.55 44.17 72.22 58.54 154.69 3.37 19.33 4.33 30.81.4 4.73.58 5.67c.82 4.11.26 8.13.82 11.98q.49 3.44.58 6.22.71 23.76.07 45.82-.1 3.47-.58 7.04c-.53 3.87-.15 7.79-.85 12.04-.6 3.67-.23 6.49-1.07 9.72q-.2.76-.52 4.72-.14 1.76-1.62 11.8-.06.39-1.8 10.76-19.05 113.38-90.86 202.32-13.91 17.23-31.49 35.15c-26.97 27.5-58.15 50.92-91.11 70.26q-69.65 40.89-149.79 54.48-7.01 1.18-11.18 1.59-.78.08-3.05.5c-3.07.58-5.2.24-7.97.98a9.7 9.62-51.9 0 1-2.54.32c-3.57-.02-7.12 1.03-9.99 1.03-5.5.01-10.5 1.07-15.98 1.03-8.56-.05-21.67.79-32.37.5q-20.51-.57-22.66-.79l-3.85-.4c-3.75-.37-7.2-.17-10.83-.81-3.25-.57-6.8-.19-9.42-.92-2.43-.67-4.69-.45-7.19-.84l-11.2-1.72q-25.05-4.03-48.89-10.33-54.32-14.36-102.24-41.3c-90.49-50.87-158.49-133.8-195.45-230.55q-14.5-37.95-21.89-76.58-1.68-8.8-2.7-16.67-.18-1.41-.6-3.16c-.36-1.52-.22-3.16-.53-5.11q-1.39-8.75-1.72-14.99-.23-4.43-.83-8.04c-.49-2.91-.08-7.28-.49-10.74q-.59-5.04-.64-11.01-.06-7.49-.01-26.64.01-4.72.4-9.19.66-7.67.6-9.19c-.16-3.72 1.05-7.74.99-11.61-.05-2.93.91-5.65.96-8.84q.02-1.41.32-3.54 1.53-11.07 2.83-19.79c.24-1.61.93-3.03.87-4.53q-.02-.44.24-1.82 9.11-48.66 28.32-93.32.01-.02.15-.21a1.76 1.75-18.2 0 0 .22-.43m235.77 114.98q29.1-3.26 56.09-16.65c26.57-13.17 50.47-31.63 72.73-51.21 32.02-28.18 66.22-61.51 96.63-88.61 35.5-31.63 74.5-60.93 116.61-83.17q25.14-13.29 53.31-22.65 8.54-2.84 17.8-4.36a.36.36 0 0 0 .14-.65c-14.2-9.27-28.02-18.15-41.98-25.56q-46.38-24.6-97.52-37.25-36.67-9.07-76.26-11.15-13.34-.71-30.97-.07-4.34.16-6.82 1.67-12.74 7.79-23.5 18.77-23.25 23.68-40.08 51.9-17.19 28.81-29.65 55.13-22.59 47.71-40.12 100.86c-11.72 35.54-20.55 72.78-26.7 108.52q-.44 2.56-.26 4.05a.49.49 0 0 0 .55.43m98.86-334.11a.22.22 0 0 0-.2-.36c-31.58 6.21-62.04 17.09-91.21 30.5q-47.08 21.64-88.24 53.24c-11.65 8.95-19.84 16.45-31.97 27.36-3.24 2.91-4.17 4.83-5.51 8.68-9.45 27.15-12.38 55.59-10.08 83.84 2.65 32.6 11.91 63.31 31.52 88.65q22.51 29.08 58.07 38.65a.63.62 10.5 0 0 .79-.54q.54-5.39 2.14-14.11 23.86-129.25 84.79-242.53c14.17-26.33 30.41-51.53 49.9-73.38m425 393.44q29.83-6.06 59.2-14.04a.65.64-9.2 0 0 .47-.64q-3.11-86.04-42.53-162.23-14.33-27.71-32.1-53.28-12.26-16.95-19.25-25.61-17.02-21.08-37.23-38.98a2.19 2.17 62.9 0 0-1.62-.53q-7.27.61-14.46 1.94c-35.79 6.64-70.9 21.96-102.14 41.06q-41.88 25.6-78.89 58.62c-20.33 18.13-44.98 42.15-65.71 61.03q-27.09 24.65-28.56 25.94c-34.05 29.61-65.54 54.51-104.77 70.23q-28.92 11.6-61.34 12.75a.59.59 0 0 0-.56.52q-2.82 24.66-3.95 52.26-.23 5.65-.06 7.58a.63.62.1 0 0 .57.56c10.5.91 18.09.94 27.45 1.88 4.38.44 10.38.17 15.68.64q4.49.39 5.5.4 14.26.19 28.33.63 20.35.63 28.34.52c10.01-.14 26.63.11 41.1-.3q23.91-.68 27.58-.64c11.03.1 22.06-1.02 33.57-1.07 4.91-.03 9.18-.97 14.29-.92 5.24.05 12.02-.87 18.01-1.01q2.63-.06 7.3-.44 14.02-1.15 23.94-1.65c4.17-.21 7.43-.84 11.15-.89q2.99-.03 8.41-.56 14.7-1.42 29.25-2.64 29.94-2.52 71.98-7.82 70.97-8.94 141.05-23.31M172.58 286.16c-1.05.92-1.82 3.16-2.83 4.75q-53.63 84.82-62.43 184.74c-.38 4.27-.42 8.59-.65 13.47a1.76 1.76 0 0 0 .76 1.52q19.5 13.21 41.62 21.53c28.79 10.81 59.74 17.4 91.27 21.96q24.62 3.57 47.94 5.6a.54.53 4.9 0 0 .58-.48c1.04-10.71 1.11-20.07 1.76-30.16q1.06-16.47 2.56-30.46a.5.5 0 0 0-.37-.53q-41.37-10.67-71.56-41.37c-37.26-37.88-51.81-93.42-49-145.48q.11-2.15.88-4.76a.33.32-13 0 0-.53-.33m676.36 260.26q-47.47 9.23-90.8 15.41-51.78 7.39-102.4 12.15c-47.29 4.45-96.51 7.78-142.24 8.91q-13.91.35-38.78.76c-22.34.38-43.18-.55-65.85-.71-5.97-.04-14.41-.9-20.46-.8q-4.52.07-15.32-.69-5.49-.39-15.59-.67-4.12-.12-29.81-1.76a.46.45 1.8 0 0-.49.45c-.13 8.54.83 17.25.89 24.67q.02 3.04.56 7.21c.46 3.53.27 7.35.9 11.09q.32 1.85.5 3.84a1.16 1.16 0 0 0 1.06 1.05q19.53 1.63 38.38 7.21c63.81 18.9 116.75 62.97 169.04 102.92 28.63 21.87 56.4 40.29 88.21 57.03 27.36 14.46 57.32 26.11 87.46 32.31 6.83 1.41 15.77 2.55 21.24 3.02q15.31 1.33 31.62-1.74 2.24-.42 3.33-1.19 6.2-4.32 13.7-10.81 42.76-36.99 73.15-86.09 53.53-86.46 62.28-189.73.54-6.35.59-10.79a.4.39 82.5 0 0-.5-.39q-34.39 9.77-69.63 16.96-.18.04-.5.21-.26.14-.54.17M171.97 734.03c1.82-8.42 4.2-16.18 8.11-24.16 13.03-26.55 34.9-48.49 60.5-63.07 15.76-8.98 33.01-16.07 51.15-18.96a.42.42 0 0 0 .35-.44l-3.48-50.24a.56.56 0 0 0-.51-.52q-41.18-3.27-79.34-10.64-30.95-5.98-56.22-14.57c-16.94-5.76-32.07-12.09-46.42-21.27a.1.1 0 0 0-.15.09q2.98 52.19 17.97 102.59 16.15 54.29 47.49 101.29a.3.3 0 0 0 .55-.1m238.22 169.64q-11.83-9.69-22.71-22.65c-26.84-31.96-47.41-70.3-62.09-109.87q-19.63-52.88-28.09-108.79a.43.42-8.7 0 0-.49-.35c-30.3 5.58-61.08 22.79-77.51 49.5q-16.06 26.11-10.89 57.3c1.09 6.56 2.36 14.81 5.7 18.66q17.89 20.56 34.55 35.2 22.55 19.82 48.52 35.41 52.88 31.74 112.76 46.09a.29.29 0 0 0 .25-.5m309.49-42.06a.26.26 0 0 0-.24-.33q-10.31-.63-22.43-3.32c-42.63-9.49-81.75-28.35-119.98-50.68-34.35-20.05-65.56-44.35-96.59-69.07-15.09-12.02-30.52-23.02-46.44-33.72q-22.06-14.82-45.62-25.86-25.08-11.75-52.86-15.64a.33.32.1 0 0-.37.36q5.28 38.37 16.82 75.17 18.57 59.16 54.45 110.06 11.38 16.15 27.93 32.54 25.3 25.07 55.88 34.01 2.88.84 5.1 1.01 16.73 1.29 31.93.66 66.36-2.72 129.53-25.31 34.66-12.4 62.76-29.52a.13.13 0 0 0 .06-.09z"/><path fill="#febb4d" d="M336.14 446.94q-.18-1.49.26-4.05c6.15-35.74 14.98-72.98 26.7-108.52q17.53-53.15 40.12-100.86 12.46-26.32 29.65-55.13 16.83-28.22 40.08-51.9 10.76-10.98 23.5-18.77 2.48-1.51 6.82-1.67 17.63-.64 30.97.07 39.59 2.08 76.26 11.15 51.14 12.65 97.52 37.25c13.96 7.41 27.78 16.29 41.98 25.56a.36.36 0 0 1-.14.65q-9.26 1.52-17.8 4.36-28.17 9.36-53.31 22.65c-42.11 22.24-81.11 51.54-116.61 83.17-30.41 27.1-64.61 60.43-96.63 88.61-22.26 19.58-46.16 38.04-72.73 51.21q-26.99 13.39-56.09 16.65a.49.49 0 0 1-.55-.43m410.55-267.69q-2.38-1.67-5.13-3.43-12.36-7.89-20.94-12.91-35.71-20.91-75.64-34.39-46.76-15.77-89.99-19.64c-17.17-1.53-31.82-2.55-49.21-1.9q-6.24.23-8.75 1.63c-7.75 4.31-14.95 10.19-21.49 16.56q-16.6 16.19-29.49 34.87-10.67 15.47-20 31.99c-24.02 42.58-43.1 87.58-58.86 133.92q-9.77 28.72-16.03 53.24-6.94 27.16-13.75 64.32-.08.44-.51 1.07a.88.87-74.4 0 0 .77 1.37q2.78-.18 6.56-.77c30.22-4.73 59.4-19.26 84.73-37.73q16.13-11.76 28.75-22.75l16.16-14.08q7.43-6.46 36.88-33.87 15.67-14.59 39.31-36.59 4.65-4.33 12-10.66 8.5-7.33 12.18-10.48 2.81-2.41 10.89-9.13 19.95-16.61 46.22-34.79 26.55-18.37 55.79-32.94 20.26-10.09 41.46-17.15 5.87-1.96 8.98-2.75 8.78-2.25 9.06-2.39a.36.36 0 0 0 .05-.62"/><path fill="#e67732" d="M746.64 179.87q-.28.14-9.06 2.39-3.11.79-8.98 2.75-21.2 7.06-41.46 17.15-29.24 14.57-55.79 32.94-26.27 18.18-46.22 34.79-8.08 6.72-10.89 9.13-3.68 3.15-12.18 10.48-7.35 6.33-12 10.66-23.64 22-39.31 36.59-29.45 27.41-36.88 33.87l-16.16 14.08q-12.62 10.99-28.75 22.75c-25.33 18.47-54.51 33-84.73 37.73q-3.78.59-6.56.77a.88.87-74.4 0 1-.77-1.37q.43-.63.51-1.07 6.81-37.16 13.75-64.32 6.26-24.52 16.03-53.24c15.76-46.34 34.84-91.34 58.86-133.92q9.33-16.52 20-31.99 12.89-18.68 29.49-34.87c6.54-6.37 13.74-12.25 21.49-16.56q2.51-1.4 8.75-1.63c17.39-.65 32.04.37 49.21 1.9q43.23 3.87 89.99 19.64 39.93 13.48 75.64 34.39 8.58 5.02 20.94 12.91 2.75 1.76 5.13 3.43a.36.36 0 0 1-.05.62"/><path fill="#febb4d" d="M435.55 113.26c-19.49 21.85-35.73 47.05-49.9 73.38q-60.93 113.28-84.79 242.53-1.6 8.72-2.14 14.11a.63.62 10.5 0 1-.79.54q-35.56-9.57-58.07-38.65c-19.61-25.34-28.87-56.05-31.52-88.65-2.3-28.25.63-56.69 10.08-83.84 1.34-3.85 2.27-5.77 5.51-8.68 12.13-10.91 20.32-18.41 31.97-27.36q41.16-31.6 88.24-53.24c29.17-13.41 59.63-24.29 91.21-30.5a.22.22 0 0 1 .2.36m-4.33 1.69c-28.94 5.75-56.89 15.9-83.99 28.11q-57.27 25.8-103.37 64.58-3.61 3.04-6.4 5.4c-4.64 3.92-8.62 8.23-13.43 11.98q-1.78 1.38-2.62 3.38-7.87 18.61-11.14 45.35-2.35 19.2-1.29 34 .04.59.93 11.95 2.08 26.46 11.8 51.33c9.29 23.79 25.7 46.02 47.36 59.26q13.22 8.08 27.44 11.93a1.11 1.11 0 0 0 1.4-1.03q.08-2.17.42-4.17 8.65-50.4 24.48-102.77 19.45-64.4 52.25-129.71 15.75-31.34 32.22-56.11c7.7-11.57 15.92-22.52 24.48-32.56a.57.56 14.7 0 0-.54-.92"/><path fill="#e67732" d="M431.22 114.95a.57.56 14.7 0 1 .54.92c-8.56 10.04-16.78 20.99-24.48 32.56q-16.47 24.77-32.22 56.11-32.8 65.31-52.25 129.71-15.83 52.37-24.48 102.77-.34 2-.42 4.17a1.11 1.11 0 0 1-1.4 1.03q-14.22-3.85-27.44-11.93c-21.66-13.24-38.07-35.47-47.36-59.26q-9.72-24.87-11.8-51.33-.89-11.36-.93-11.95-1.06-14.8 1.29-34 3.27-26.74 11.14-45.35.84-2 2.62-3.38c4.81-3.75 8.79-8.06 13.43-11.98q2.79-2.36 6.4-5.4 46.1-38.78 103.37-64.58c27.1-12.21 55.05-22.36 83.99-28.11"/><path fill="#febb4d" d="M845.59 276.51q.13.94-.29.97-.5.05-.8-.38-11.06-15.82-22.79-30.15c-4.68-5.73-9.54-10.7-14.52-16.14q-6.79-7.42-17.96-17.28-1.04-.92-3.49-.68-16.08 1.56-30.22 5.45-11.75 3.23-17.32 5.18c-33.12 11.62-63.95 28.26-92.59 48.39q-25.96 18.25-46.17 35.82c-7.36 6.4-17.56 15.48-25.27 22.73q-29.52 27.76-45.99 43-26.73 24.72-39.62 35.62-15.31 12.96-30.81 24.71c-34.01 25.79-73.18 46.31-116.25 49.74q-4.93.39-8.59.36a.95.95 0 0 0-.96.86q-1.09 12.15-2.52 29.41-.67 8.12-.87 13.8-.3 8.75-.44 13.87a.8.79 14.6 0 0 .43.72q1.36.73 3.2.8 12.83.49 27.84 1.43c7.07.44 12.1.24 18.66.83q4.03.36 16.25.43 14.94.08 41.25.47 20.91.31 25.5 0c7.78-.53 19.15-.42 37.75-.44 6.06-.01 13.35-.87 19.51-1q13.66-.29 20.99-.88.71-.06 4.68-.11c4.45-.06 10.01-.74 13.26-.77q5.97-.06 8.62-.25 6.53-.47 43.59-3.19 3.2-.23 3.67-.33c3-.62 6.12-.35 9.19-.64q9.18-.85 41.23-3.81 19.52-1.8 57.02-6.4c15.56-1.91 29.83-4.09 44.85-6.31q41.65-6.13 85.38-15.04 2.53-.52 9.49-1.7a.27.27 0 0 1 .31.35l-.24.75q-70.08 14.37-141.05 23.31-42.04 5.3-71.98 7.82-14.55 1.22-29.25 2.64-5.42.53-8.41.56c-3.72.05-6.98.68-11.15.89q-9.92.5-23.94 1.65-4.67.38-7.3.44c-5.99.14-12.77 1.06-18.01 1.01-5.11-.05-9.38.89-14.29.92-11.51.05-22.54 1.17-33.57 1.07q-3.67-.04-27.58.64c-14.47.41-31.09.16-41.1.3q-7.99.11-28.34-.52-14.07-.44-28.33-.63-1.01-.01-5.5-.4c-5.3-.47-11.3-.2-15.68-.64-9.36-.94-16.95-.97-27.45-1.88a.63.62.1 0 1-.57-.56q-.17-1.93.06-7.58 1.13-27.6 3.95-52.26a.59.59 0 0 1 .56-.52q32.42-1.15 61.34-12.75c39.23-15.72 70.72-40.62 104.77-70.23q1.47-1.29 28.56-25.94c20.73-18.88 45.38-42.9 65.71-61.03q37.01-33.02 78.89-58.62c31.24-19.1 66.35-34.42 102.14-41.06q7.19-1.33 14.46-1.94a2.19 2.17 62.9 0 1 1.62.53q20.21 17.9 37.23 38.98 6.99 8.66 19.25 25.61"/><path fill="#e67732" d="M845.59 276.51q17.77 25.57 32.1 53.28 39.42 76.19 42.53 162.23a.65.64-9.2 0 1-.47.64q-29.37 7.98-59.2 14.04l.24-.75a.27.27 0 0 0-.31-.35q-6.96 1.18-9.49 1.7-43.73 8.91-85.38 15.04c-15.02 2.22-29.29 4.4-44.85 6.31q-37.5 4.6-57.02 6.4-32.05 2.96-41.23 3.81c-3.07.29-6.19.02-9.19.64q-.47.1-3.67.33-37.06 2.72-43.59 3.19-2.65.19-8.62.25c-3.25.03-8.81.71-13.26.77q-3.97.05-4.68.11-7.33.59-20.99.88c-6.16.13-13.45.99-19.51 1-18.6.02-29.97-.09-37.75.44q-4.59.31-25.5 0-26.31-.39-41.25-.47-12.22-.07-16.25-.43c-6.56-.59-11.59-.39-18.66-.83q-15.01-.94-27.84-1.43-1.84-.07-3.2-.8a.8.79 14.6 0 1-.43-.72q.14-5.12.44-13.87.2-5.68.87-13.8 1.43-17.26 2.52-29.41a.95.95 0 0 1 .96-.86q3.66.03 8.59-.36c43.07-3.43 82.24-23.95 116.25-49.74q15.5-11.75 30.81-24.71 12.89-10.9 39.62-35.62 16.47-15.24 45.99-43c7.71-7.25 17.91-16.33 25.27-22.73q20.21-17.57 46.17-35.82c28.64-20.13 59.47-36.77 92.59-48.39q5.57-1.95 17.32-5.18 14.14-3.89 30.22-5.45 2.45-.24 3.49.68 11.17 9.86 17.96 17.28c4.98 5.44 9.84 10.41 14.52 16.14q11.73 14.33 22.79 30.15.3.43.8.38.42-.03.29-.97m16.18 227.54a.84.84 0 0 0 .99 1q28.47-6.04 55.74-13.24a.86.85 85.6 0 0 .63-.74q.2-2.36.02-3.82c-.77-6.19-.86-14.11-1.73-20.4q-.55-3.92-1.54-12.82-1.43-12.86-6.41-34.55-11.25-48.97-34.96-93.25-10.29-19.22-22.56-38.18a.52.52 0 0 0-.94.43q3.81 12.85 5.41 18.32 12.31 42.12 14.48 86.48.28 5.79.23 10.69c-.1 9.31.19 17.62-.38 26.79q-1.53 24.14-4.7 48.75-1.54 11.94-4.28 24.54"/><path fill="#febb4d" d="M172.58 286.16a.33.32-13 0 1 .53.33q-.77 2.61-.88 4.76c-2.81 52.06 11.74 107.6 49 145.48q30.19 30.7 71.56 41.37a.5.5 0 0 1 .37.53q-1.5 13.99-2.56 30.46c-.65 10.09-.72 19.45-1.76 30.16a.54.53 4.9 0 1-.58.48q-23.32-2.03-47.94-5.6c-31.53-4.56-62.48-11.15-91.27-21.96q-22.12-8.32-41.62-21.53a1.76 1.76 0 0 1-.76-1.52c.23-4.88.27-9.2.65-13.47q8.8-99.92 62.43-184.74c1.01-1.59 1.78-3.83 2.83-4.75m-2.93 6.89q-14.01 21.69-27.03 50.82-26.7 59.72-33.1 121.94-.42 4.12-.72 8.92c-.3 4.8-1.17 9.2-.91 14.2a1.67 1.66 15.5 0 0 .72 1.27q19.07 12.77 41.55 21.16 13.03 4.87 27.47 8.79 28.51 7.76 59.59 12.32.98.15 3.52.55 13.86 2.18 32.27 4.03 10.46 1.05 14.09 1.21a.97.97 0 0 0 1.01-.92c.13-2.36-.15-4.86.02-7.47q1.22-19.15 2.03-31.37.66-10.03 1.71-18.99a.61.6 11.2 0 0-.44-.65c-12.04-3.45-23.45-7.55-34.41-13.61q-25.18-13.93-43.54-35.22-13.09-15.17-22.55-34.6-9.07-18.63-13.94-38.92-5.02-20.91-5.75-36.53c-.52-11.17-.83-17.03-.56-23.66q.07-1.68-.57-3.23a.26.26 0 0 0-.46-.04"/><path fill="#c95c1e" d="M861.77 504.05q2.74-12.6 4.28-24.54 3.17-24.61 4.7-48.75c.57-9.17.28-17.48.38-26.79q.05-4.9-.23-10.69-2.17-44.36-14.48-86.48-1.6-5.47-5.41-18.32a.52.52 0 0 1 .94-.43q12.27 18.96 22.56 38.18 23.71 44.28 34.96 93.25 4.98 21.69 6.41 34.55.99 8.9 1.54 12.82c.87 6.29.96 14.21 1.73 20.4q.18 1.46-.02 3.82a.86.85 85.6 0 1-.63.74q-27.27 7.2-55.74 13.24a.84.84 0 0 1-.99-1"/><path fill="#e67732" d="M170.11 293.09q.64 1.55.57 3.23c-.27 6.63.04 12.49.56 23.66q.73 15.62 5.75 36.53 4.87 20.29 13.94 38.92 9.46 19.43 22.55 34.6 18.36 21.29 43.54 35.22c10.96 6.06 22.37 10.16 34.41 13.61a.61.6 11.2 0 1 .44.65q-1.05 8.96-1.71 18.99-.81 12.22-2.03 31.37c-.17 2.61.11 5.11-.02 7.47a.97.97 0 0 1-1.01.92q-3.63-.16-14.09-1.21-18.41-1.85-32.27-4.03-2.54-.4-3.52-.55-31.08-4.56-59.59-12.32-14.44-3.92-27.47-8.79-22.48-8.39-41.55-21.16a1.67 1.66 15.5 0 1-.72-1.27c-.26-5 .61-9.4.91-14.2q.3-4.8.72-8.92 6.4-62.22 33.1-121.94 13.02-29.13 27.03-50.82a.26.26 0 0 1 .46.04m456.63 501.4.31-.16a.4.4 0 0 0 .01-.7q-15.28-8.38-25.69-14.49c-22.52-13.21-45.82-29.93-68.18-47.07q-46-35.27-54.48-41.27c-20.73-14.68-41.86-28.23-64.55-39.71-15.54-7.86-32.42-14.8-49.55-19.01q-12.18-3-14.94-3.47-6.21-1.06-17.64-2.46a1.25 1.25 0 0 1-1.09-1.1q-.66-5.59-.88-9.69-.41-7.5-.63-9.71-1.1-11.17-.91-24.87a.65.65 0 0 1 .7-.64q61.48 4.22 120.33 4.56 2.35.01 5.89.16c4.85.21 10.2-.31 14.74-.24q10.26.17 23.08-.14 48.17-1.17 77.51-2.9 2.16-.13 14.76-.92 84.12-5.24 170-17.37 41.08-5.81 90.07-15.06-5.66 18.1-12.23 34.9-4.67 11.98-10.06 22.94-32.56 66.23-86.45 116.29-14.07 13.06-27.92 24.04-33.48 26.51-72.61 45.12c-2.11 1.01-4.08 2.28-6.47 2.82a.26.26 0 0 0-.06.49c20.8 10.67 42.27 19.46 64.44 25.73q9.18 2.6 10.69 3 3.09.83 14.63 2.98 3.93.73 7.54 1.04 6.44.55 7.56.7c10.38 1.4 19.93.6 31.11-1.27q2.01-.33 3.63-1.14 2.28-1.15 3.29-1.94 19.74-15.62 38.33-35.3c2.74-2.9 4.3-5.36 6.78-7.64 3.37-3.09 6.36-7.39 9.64-11.25q2.93-3.44 4.55-5.53 17.19-22.02 30.98-45.98 36-62.53 49.16-132.74 3.9-20.81 5.89-42.5.65-7.06 1.17-11.32a.88.88 0 0 0-1.11-.96q-34.06 9.47-68.88 16.67.14-.23.16-.45.02-.18-.13-.31-.12-.09-.29-.2.28-.03.54-.17.32-.17.5-.21 35.24-7.19 69.63-16.96a.4.39 82.5 0 1 .5.39q-.05 4.44-.59 10.79-8.75 103.27-62.28 189.73-30.39 49.1-73.15 86.09-7.5 6.49-13.7 10.81-1.09.77-3.33 1.19-16.31 3.07-31.62 1.74c-5.47-.47-14.41-1.61-21.24-3.02-30.14-6.2-60.1-17.85-87.46-32.31"/><path fill="#febb4d" d="M171.97 734.03a.3.3 0 0 1-.55.1q-31.34-47-47.49-101.29-14.99-50.4-17.97-102.59a.1.1 0 0 1 .15-.09c14.35 9.18 29.48 15.51 46.42 21.27q25.27 8.59 56.22 14.57 38.16 7.37 79.34 10.64a.56.56 0 0 1 .51.52l3.48 50.24a.42.42 0 0 1-.35.44c-18.14 2.89-35.39 9.98-51.15 18.96-25.6 14.58-47.47 36.52-60.5 63.07-3.91 7.98-6.29 15.74-8.11 24.16m-63.73-201.26a.55.55 0 0 0-.82.47c-.08 5.5.77 10.64 1.21 15.66q.65 7.35 2.27 19.69c.27 2.02 1.01 3.61.93 5.39q-.06 1.15.47 4.06 5.4 29.88 12.15 52.76 15.68 53.21 45.92 100.02a.67.66 35 0 0 1.21-.21c3.91-17.36 13.11-33.51 23.93-46.85q10.02-12.35 20.22-20.78 5.9-4.87 7.3-5.93 22.31-16.84 49.81-25.9 9.76-3.21 17.38-4.23a1.4 1.4 0 0 0 1.18-1.67q-1.33-6.34-1.33-12.52c.01-2.1-.91-5.85-.95-8.65q-.07-5.29-.47-8.93c-.69-6.17-.51-9.78-.85-16.7a.83.83 0 0 0-.76-.79q-39.09-3.08-78.97-10.75-18.06-3.48-38.79-9.27-22.74-6.35-42.4-15.01c-6.45-2.84-10.98-5.54-18.64-9.86"/><path fill="#c95c1e" d="m845.6 548.23 3.6-.85q34.82-7.2 68.88-16.67a.88.88 0 0 1 1.11.96q-.52 4.26-1.17 11.32-1.99 21.69-5.89 42.5-13.16 70.21-49.16 132.74-13.79 23.96-30.98 45.98-1.62 2.09-4.55 5.53c-3.28 3.86-6.27 8.16-9.64 11.25-2.48 2.28-4.04 4.74-6.78 7.64q-18.59 19.68-38.33 35.3-1.01.79-3.29 1.94-1.62.81-3.63 1.14c-11.18 1.87-20.73 2.67-31.11 1.27q-1.12-.15-7.56-.7-3.61-.31-7.54-1.04-11.54-2.15-14.63-2.98-1.51-.4-10.69-3c-22.17-6.27-43.64-15.06-64.44-25.73a.26.26 0 0 1 .06-.49c2.39-.54 4.36-1.81 6.47-2.82q39.13-18.61 72.61-45.12 13.85-10.98 27.92-24.04 53.89-50.06 86.45-116.29 5.39-10.96 10.06-22.94 6.57-16.8 12.23-34.9"/><path fill="#e67732" d="M108.24 532.77c7.66 4.32 12.19 7.02 18.64 9.86q19.66 8.66 42.4 15.01 20.73 5.79 38.79 9.27 39.88 7.67 78.97 10.75a.83.83 0 0 1 .76.79c.34 6.92.16 10.53.85 16.7q.4 3.64.47 8.93c.04 2.8.96 6.55.95 8.65q0 6.18 1.33 12.52a1.4 1.4 0 0 1-1.18 1.67q-7.62 1.02-17.38 4.23-27.5 9.06-49.81 25.9-1.4 1.06-7.3 5.93-10.2 8.43-20.22 20.78c-10.82 13.34-20.02 29.49-23.93 46.85a.67.66 35 0 1-1.21.21q-30.24-46.81-45.92-100.02-6.75-22.88-12.15-52.76-.53-2.91-.47-4.06c.08-1.78-.66-3.37-.93-5.39q-1.62-12.34-2.27-19.69c-.44-5.02-1.29-10.16-1.21-15.66a.55.55 0 0 1 .82-.47"/><path fill="#febb4d" d="M848.94 546.42q.17.11.29.2.15.13.13.31-.02.22-.16.45l-3.6.85q-48.99 9.25-90.07 15.06-85.88 12.13-170 17.37-12.6.79-14.76.92-29.34 1.73-77.51 2.9-12.82.31-23.08.14c-4.54-.07-9.89.45-14.74.24q-3.54-.15-5.89-.16-58.85-.34-120.33-4.56a.65.65 0 0 0-.7.64q-.19 13.7.91 24.87.22 2.21.63 9.71.22 4.1.88 9.69a1.25 1.25 0 0 0 1.09 1.1q11.43 1.4 17.64 2.46 2.76.47 14.94 3.47c17.13 4.21 34.01 11.15 49.55 19.01 22.69 11.48 43.82 25.03 64.55 39.71q8.48 6 54.48 41.27c22.36 17.14 45.66 33.86 68.18 47.07q10.41 6.11 25.69 14.49a.4.4 0 0 1-.01.7l-.31.16c-31.81-16.74-59.58-35.16-88.21-57.03-52.29-39.95-105.23-84.02-169.04-102.92q-18.85-5.58-38.38-7.21a1.16 1.16 0 0 1-1.06-1.05q-.18-1.99-.5-3.84c-.63-3.74-.44-7.56-.9-11.09q-.54-4.17-.56-7.21c-.06-7.42-1.02-16.13-.89-24.67a.46.45 1.8 0 1 .49-.45q25.69 1.64 29.81 1.76 10.1.28 15.59.67 10.8.76 15.32.69c6.05-.1 14.49.76 20.46.8 22.67.16 43.51 1.09 65.85.71q24.87-.41 38.78-.76c45.73-1.13 94.95-4.46 142.24-8.91q50.62-4.76 102.4-12.15 43.33-6.18 90.8-15.41M410.19 903.67a.29.29 0 0 1-.25.5q-59.88-14.35-112.76-46.09-25.97-15.59-48.52-35.41-16.66-14.64-34.55-35.2c-3.34-3.85-4.61-12.1-5.7-18.66q-5.17-31.19 10.89-57.3c16.43-26.71 47.21-43.92 77.51-49.5a.43.42-8.7 0 1 .49.35q8.46 55.91 28.09 108.79c14.68 39.57 35.25 77.91 62.09 109.87q10.88 12.96 22.71 22.65M208.9 761.72c.63 7.83 1.79 16.16 4.84 23.37a3.86 3.75 15.6 0 0 .49.84q1.47 1.85 5.75 6.65 4.97 5.59 17.05 17.7 20.41 20.45 45.36 37.11 50.33 33.61 110.54 51.27 6.02 1.77 10.8 2.52a.63.63 0 0 0 .49-1.12q-2.13-1.7-3.46-3.02-13.13-13.09-25.46-29.77-16.25-21.98-28.88-46.21-.24-.47-1.25-1.51 0-.53-.24-1-12.78-24.99-21.27-48.66-8.29-23.11-12.26-37.23-9.55-33.99-15.02-68.49a.91.91 0 0 0-1.07-.75q-31.26 6.09-55.69 26.2-7.19 5.92-13.41 13.84-13.73 17.51-17.14 39.55-1.18 7.65-.17 18.71m510.78 99.89-.07.27a.13.13 0 0 1-.06.09q-28.1 17.12-62.76 29.52-63.17 22.59-129.53 25.31-15.2.63-31.93-.66-2.22-.17-5.1-1.01-30.58-8.94-55.88-34.01-16.55-16.39-27.93-32.54-35.88-50.9-54.45-110.06-11.54-36.8-16.82-75.17a.33.32.1 0 1 .37-.36q27.78 3.89 52.86 15.64 23.56 11.04 45.62 25.86c15.92 10.7 31.35 21.7 46.44 33.72 31.03 24.72 62.24 49.02 96.59 69.07 38.23 22.33 77.35 41.19 119.98 50.68q12.12 2.69 22.43 3.32a.26.26 0 0 1 .24.33m-319.91-24.54q12.91 19.55 23 30.41 13.31 14.35 20.56 20.43 8.44 7.08 14.48 11.05 14.3 9.41 32.68 15.13.31.09 4.99.75 2.36.33 5.05.3 10.17-.16 17.62.13c5.4.21 9.45-.14 14.44-.14q5.88-.01 10.82-.44 18.93-1.64 31.51-3.6 50.8-7.91 98.43-27.25 22.67-9.21 42.16-20.74a.44.44 0 0 0-.17-.82q-16.31-1.99-34.39-7.23-36.02-10.45-70.59-28.35-15.96-8.27-24.16-12.9-1.41-.8-2.32-.82-.88-.99-1.5-1.35-19.36-10.94-36.98-23.04-21.78-14.97-42.75-31.41-5.92-4.64-18.39-14.54-11.91-9.46-22.79-17.52c-6.25-4.62-12.61-8.8-17.7-12.52q-3.84-2.8-12.59-8.51-9.96-6.49-12.82-8.19-10.27-6.1-25.13-13.63-26.19-13.27-55.7-17.93a.76.76 0 0 0-.87.85q2.47 18.79 6.26 35.03c6.34 27.25 14.08 52.76 25.06 77.75q13.65 31.07 31.79 59.1"/><path fill="#e67732" d="M345.17 819.55q-.98.17-1.55.07-10.19-1.81-19.39-3.91-20.06-4.6-39.68-13.26-20.39-9.01-27.01-12.51-22.63-11.99-47.68-28.85a.57.57 0 0 0-.86.3l-.1.33q-1.01-11.06.17-18.71 3.41-22.04 17.14-39.55 6.22-7.92 13.41-13.84 24.43-20.11 55.69-26.2a.91.91 0 0 1 1.07.75q5.47 34.5 15.02 68.49 3.97 14.12 12.26 37.23 8.49 23.67 21.27 48.66.24.47.24 1m238.71-6.57q-12.57 5.54-29.56 10.31-44.13 12.37-87.31 14.54-31.08 1.57-48.01.18-12.98-1.06-19.23-.94-18.14-28.03-31.79-59.1c-10.98-24.99-18.72-50.5-25.06-77.75q-3.79-16.24-6.26-35.03a.76.76 0 0 1 .87-.85q29.51 4.66 55.7 17.93 14.86 7.53 25.13 13.63 2.86 1.7 12.82 8.19 8.75 5.71 12.59 8.51c5.09 3.72 11.45 7.9 17.7 12.52q10.88 8.06 22.79 17.52 12.47 9.9 18.39 14.54 20.97 16.44 42.75 31.41 17.62 12.1 36.98 23.04.62.36 1.5 1.35"/><path fill="#c95c1e" d="M345.17 819.55q1.01 1.04 1.25 1.51 12.63 24.23 28.88 46.21 12.33 16.68 25.46 29.77 1.33 1.32 3.46 3.02a.63.63 0 0 1-.49 1.12q-4.78-.75-10.8-2.52-60.21-17.66-110.54-51.27-24.95-16.66-45.36-37.11-12.08-12.11-17.05-17.7-4.28-4.8-5.75-6.65a3.86 3.75 15.6 0 1-.49-.84c-3.05-7.21-4.21-15.54-4.84-23.37l.1-.33a.57.57 0 0 1 .86-.3q25.05 16.86 47.68 28.85 6.62 3.5 27.01 12.51 19.62 8.66 39.68 13.26 9.2 2.1 19.39 3.91.57.1 1.55-.07m238.71-6.57q.91.02 2.32.82 8.2 4.63 24.16 12.9 34.57 17.9 70.59 28.35 18.08 5.24 34.39 7.23a.44.44 0 0 1 .17.82q-19.49 11.53-42.16 20.74-47.63 19.34-98.43 27.25-12.58 1.96-31.51 3.6-4.94.43-10.82.44c-4.99 0-9.04.35-14.44.14q-7.45-.29-17.62-.13-2.69.03-5.05-.3-4.68-.66-4.99-.75-18.38-5.72-32.68-15.13-6.04-3.97-14.48-11.05-7.25-6.08-20.56-20.43-10.09-10.86-23-30.41 6.25-.12 19.23.94 16.93 1.39 48.01-.18 43.18-2.17 87.31-14.54 16.99-4.77 29.56-10.31"/></symbol></svg>