<svg xmlns="http://www.w3.org/2000/svg"><symbol id="BooksSvg" viewBox="0 0 1024 1024"><g fill="none" stroke-width="2"><path stroke="#813a1d" d="M867.87 212.46a.33.33 0 0 0-.13-.63q-.24-.01-3.94-.08-8.87-.16-57.3-2.83-135.71-7.49-324.75-18.71-7.26-.43-25.24-1.22-9.19-.4-18.22 2.06-90.86 24.77-182.1 49.91-50.09 13.8-67.31 18.94-2.15.64-3.58 1.36a.31.31 0 0 0 .13.58q9.44.21 23.57 1.27c78.14 5.85 152.45 10.73 225.49 16.18q150.93 11.25 179.26 13.46 2.73.21 4.23-.74 7.31-4.63 14.79-6.98 31.63-9.95 75.86-23.41 46.09-14.02 158.6-48.87.1-.03.64-.29" vector-effect="non-scaling-stroke"/><path stroke="#86837d" d="M857.64 232.22q-109.24 32.89-214.42 66.25c-6.26 1.99-12.14 3.88-17.41 7.09q-13.36 8.13-18.91 23.8-9.96 28.1-3.01 58.53c1.17 5.11 5.41 16.74 10.76 18.29a2.62 2.58 47.5 0 0 1.19.06q7.66-1.4 16.27-4.37 114.67-39.56 229.09-79.63a1.28 1.27 70 0 0 .77-1.66c-8.85-23.18-9.58-49.01-6.7-73.72.51-4.39 1.67-9.54 2.8-14.23a.34.34 0 0 0-.43-.41" vector-effect="non-scaling-stroke"/><path stroke="#813a1d" d="M603.89 302.54q-2.62-.01-14.39-.8-22.44-1.5-129.02-9.22Q329 283 217.75 274.94q-15.33-1.11-38.19-2.95c-7.12-.58-10.77-1.48-14.69 4.17q-12.52 18.05-14.49 40.06c-1.68 18.74.76 38.44 9.3 55.36 3.33 6.61 10.86 15.73 18.83 16.36q39.05 3.11 161.49 13.46 114.75 9.7 229.13 18.99c13.09 1.06 24.94 2.46 36.27 2.75a.44.44 0 0 0 .35-.72c-8.52-9.91-13.5-20.39-16.47-33.26-3.74-16.18-3.99-34.03-1.17-50.15 2.25-12.85 7.62-25.82 15.98-36.04a.26.26 0 0 0-.2-.43" vector-effect="non-scaling-stroke"/><path stroke="#6e2f18" d="M627.77 418.96q-1.04-.03-2.73.73" vector-effect="non-scaling-stroke"/><path stroke="#813a1d" d="m625.04 419.69-4.18.58a.39.39 0 0 0-.1.75c13.25 5.72 26.57.74 39.77-3.95q58.93-20.91 124.94-43.44 21.51-7.34 41.2-14.24 31.64-11.1 41.31-13.9 1.48-.43 5.07-1.93c3.01-1.26 3.6-5.42 3.36-8.26a1.33 1.33 0 0 0-1.41-1.22q-3.23.2-5.56 1.01-81.95 28.53-98.95 34.49-25.67 8.99-50.42 17.63-45.45 15.86-86.73 29.79-2.54.86-5.57 1.96" vector-effect="non-scaling-stroke"/><path stroke="#db531f" d="m625.04 419.69 1.56 1.51a1.62 1.62 0 0 0 .88.44q7.81 1.36 14.96-.21.46-.11 6.26-1.73c6.66-1.87 11.84-3.9 22.28-7.77 12.13-4.5 27.69-9.6 39.37-13.8 18.59-6.67 40.01-13.63 55.6-19.24 13.88-5 31.72-10.57 42.85-14.58q34.65-12.47 63.23-21.6a5 4.99 82.4 0 0 3.47-4.55l.01-.11a2.41 2.4 81.8 0 0-3.18-2.38q-63.56 21.71-93.84 32.32-12.88 4.52-14.47 4.95c-3.34.92-6.39 2.51-10 3.77q-4.37 1.54-23 7.79c-3.34 1.12-6.9 2.68-10.46 3.63-4.19 1.13-9.2 3.51-12.52 4.63q-26.45 8.91-49.57 17.14-1.52.54-25.75 8.81-3.33 1.13-4.95.25" vector-effect="non-scaling-stroke"/><path stroke="#1b1d1e" d="M651.45 552.22q-8.52-14.53-10.28-31.15-2.13-20.08 1.87-39.8c2.76-13.6 8.73-26.19 18.85-35.97 5.5-5.31 12.52-8.29 19.6-10.58 12.02-3.9 23.38-7.37 37.23-12.54 19.98-7.46 39.4-13.28 59.15-20.66q21.71-8.13 71.83-25.56 20.81-7.23 36.81-12.22 6.72-2.1 11.6-5.31a1.09 1.09 0 0 0 .08-1.76c-3.33-2.69-9.62-1.98-13.44-.92-16.76 4.63-31.87 10.15-50.13 17.1-15.92 6.07-37.41 12.9-53.41 18.66q-38.75 13.94-60.53 21.51c-20.21 7.01-45.65 16.81-65.37 23.3q-20.12 6.63-41.16 5.28-53.78-3.44-102.3-7.71-69.63-6.14-129.07-11.59c-18.74-1.72-30.36-2.2-48.54-4.18q-6.11-.66-27.14-2.32c-22.83-1.79-62.02-5.84-93.97-8.44q-10.71-.88-31.97-3.77-6.33-.86-17.69-4.29c-2.28-.69-4.92-1.19-6.62.31-9.44 8.39-15.21 21.42-18.16 34.05q-5.93 25.37.58 50.88 2.38 9.3 8.13 16.12a1.53 1.53 0 0 0 .86.52c8.03 1.77 16.3 1.85 24 3.02a.31.31 0 0 0 .33-.44c-11.72-25.74-13.67-57.04-2.27-83.43q.9-2.09 2.93-4.26c2.35-2.49 5.06-.82 7.53.56a.99.99 0 0 1 .51.83q.17 3.29-.69 5.1c-8.76 18.58-9.51 40.68-4.92 60.32 2 8.54 4.9 14.82 9.05 22.02a.81.81 0 0 0 .6.4q49.02 5.35 57.57 5.97c19.37 1.4 34.38 3.37 53.09 5.23q49.76 4.94 100.83 10.18c8.11.83 18.36 1.53 26.31 2.46 22.69 2.63 44.72 5.24 65.17 7.13q11.02 1.02 34.28 3.64 20.18 2.28 88.28 8.85c1.86.18 3.6.03 6.19-.08a.34.33-14.8 0 0 .29-.48q-4.55-9.3-6.49-16.52-7-26.03-1.51-54.14 2.11-10.78 8-20.45 1.55-2.55 4.96-2.93a1.76 1.73-34.7 0 1 .93.16q5.09 2.48 2.54 7.39c-8.43 16.22-10.15 36.51-7.84 54.66q1.5 11.72 3.74 17.18c2.11 5.13 4.9 10.32 5.77 15.89a.68.68 0 0 0 .59.57l23.08 2.72a.34.34 0 0 0 .34-.51" vector-effect="non-scaling-stroke"/><path stroke="#86837d" d="M881.41 380.26c-63.16 21.63-138.14 48.35-198.35 70.38-12.49 4.57-18.95 15.45-22.66 27.69q-7.54 24.9-2.55 50.3 1.63 8.27 6.65 15.33c4.93 6.93 12.63 3.56 19.56.83q50.6-19.95 201.29-78.98a1.05 1.05 0 0 0 .59-1.38q-6.11-14.62-7.67-30.18-2.72-27.11 3.4-53.76a.2.2 0 0 0-.26-.23" vector-effect="non-scaling-stroke"/><path stroke="#1b1d1e" d="M674.9 564.16q6.05 3.56 12.86 2.39c8.24-1.4 13.58-3.42 21.88-6.28 8.98-3.11 18.33-7.28 25.48-9.86 11.55-4.16 22.76-9.49 35.16-14.12q8.59-3.22 20.32-7.95 31.01-12.5 56.92-22.82c13.31-5.29 22.56-9.38 35.55-14.82 3.73-1.57 9.59-3.55 13.94-5.78q4.21-2.17 2.97-7.46a.78.77-6.3 0 0-.74-.59q-3.56-.06-7 1.16-11.81 4.22-20.59 7.96c-14.74 6.29-32.44 12.44-46.45 18.41-6.84 2.92-13.99 5.16-20.11 7.82q-5.23 2.28-13.19 5.23-9.74 3.6-13.29 5.03-9.22 3.71-10.59 4.27-24.01 9.83-24.58 10.08-4.38 1.86-10.2 3.86c-4.63 1.59-10.85 4.51-16.33 6.51q-5.68 2.06-6.25 2.34-5.08 2.49-9.28 3.71-.88.26-14.09 5.54-6.44 2.57-12.31 4.6a.43.43 0 0 0-.08.77" vector-effect="non-scaling-stroke"/><path stroke="#826421" d="M673.59 595.05c6.39-3.09 12.73-5.08 20.48-8.13q10.44-4.11 26.07-10.59 58.32-24.14 100.98-41.68 20.9-8.59 43.64-18.42 15.33-6.62 22.82-10.65 1.58-.85 2.5-2.43a.38.38 0 0 0-.48-.54q-6.41 2.75-13.26 5.58-90.34 37.35-152.17 62.17-16.32 6.55-38.34 15-7.69 2.95-12.61 9.23a.3.3 0 0 0 .37.46m-8.96-13.92Q437.73 557.84 172 528.95c-6.06-.66-12.17-1.65-16.4 1.67q-2.51 1.98-5.43 6.32c-12.29 18.29-14.09 43.32-11.55 64.9 1.84 15.62 7.91 32.02 20.18 42.43 3.14 2.66 7.34 4.11 10.92 4.39q25.54 2 49.53 4.87 201.4 24.05 244.65 29.5 1.96.25 25.59 3.09 160.24 19.28 171.26 20.66a.23.23 0 0 0 .18-.41q-2.22-1.82-4.01-4.03-9.73-12.06-13.1-27.64-7.12-33.01 3.42-63.8c3.73-10.92 9.64-21.96 17.52-29.39a.22.22 0 0 0-.13-.38" vector-effect="non-scaling-stroke"/><path stroke="#86837d" d="M872.37 529.82q-2.46.91-63.26 26.69c-40.74 17.27-83.1 34.65-122.85 51.27q-6.43 2.69-20.19 6.4-2.9.78-4.12 2.78-1.9 3.1-3.13 8.12-5.33 21.73-1.54 42.37c1.63 8.88 6.65 25.29 17.68 25.51 4.15.08 10.47-3.08 13.72-4.54q75.69-33.99 185.92-84.19a.86.84-21.5 0 0 .46-1.04q-5.15-15.57-5.66-31.52c-.42-13.27.48-27.99 3.47-41.41a.38.38 0 0 0-.5-.44" vector-effect="non-scaling-stroke"/><path stroke="#826421" d="M680.25 707.95q8.1 3.72 16.93 1.18 16.02-4.61 34.41-13.03 52.32-23.97 104.37-48.4c14.58-6.84 27.54-12.47 40.88-19.12q8.63-4.3 14.71-8.27 2.04-1.33 2.87-3.52a1.97 1.72-73.6 0 0-1.18-2.57q-1.23-.23-3.1.42-6.98 2.42-11.12 4.36-16.55 7.74-32.71 15.05c-65.7 29.7-97.36 43.75-125.42 56.7q-15.63 7.22-27.78 12.26c-4.37 1.81-8.4 2.88-12.81 4.22a.39.39 0 0 0-.05.72" vector-effect="non-scaling-stroke"/><path stroke="#142536" d="M690.73 735.75q5.67-1.73 10.03-3.75c25.42-11.72 50.3-23.49 72.26-33.28q51.45-22.95 83.96-37.97 2.87-1.33 23.1-10.23c4.5-1.98 7.93-4.15 11.79-6.42q1.65-.97 2.05-3.02a1.04 1.04 0 0 0-1.26-1.21q-2.11.49-2.26.55c-16.15 5.92-30.32 11.63-47.6 19.76q-26.58 12.51-54.96 25.62c-22.37 10.33-39.07 18.5-63.01 29.47q-8.67 3.97-11.5 4.98c-7.3 2.62-20.19 6.97-23.24 14.8a.53.52-87.7 0 0 .64.7m-18.65 114.8q-10.68-16.85-13.01-37.08-2.62-22.69 1.51-44.69c2.23-11.88 6.26-23.51 12.24-33.8q3.35-5.78 4.73-8.47a.83.83 0 0 0-.63-1.2q-32.18-4.14-74.4-9.08c-11.95-1.4-27.07-3.54-41.02-5.15q-49.88-5.77-101.75-11.97-61.07-7.32-121.98-14.94-61.13-7.65-91.82-11.24-74.78-8.72-91.86-10.81c-4.07-.5-7.66-1.27-11.35-1.31a3.19 3.17 18.1 0 0-2.65 1.33c-12.81 17.97-16.71 38-16.12 60.02q.41 15.05 4.32 27.92 2.67 8.8 5.93 13.97c3.7 5.87 7.47 10.98 13.6 12.89q7.14 2.23 15.31 3.19 3.21.38 22.1 3.4 13.18 2.11 25.31 3.7 15.04 1.97 25.37 3.52 19.29 2.89 46.84 6.81 2.92.42 77.01 11.17 30.11 4.37 33.49 4.9 7.73 1.2 16.66 2.33 10.58 1.33 16.65 2.35 16.98 2.84 33.26 4.98 16.2 2.13 33.31 4.68 82.03 12.21 98.72 14.65c9.62 1.41 18.69 2.48 27.88 4 12.06 1.99 24.54 3.14 36.27 4.04q8.01.61 15.73.53a.42.42 0 0 0 .35-.64" vector-effect="non-scaling-stroke"/><path stroke="#86837d" d="M876.78 668.58a.36.36 0 0 0-.5-.41q-95.69 43.3-171.75 78.35c-6.73 3.11-15.21 7.15-23.33 7.2a.88.87 9.1 0 0-.81.58q-7.99 22.4-7.64 45.02.11 6.65.56 12.39c.5 6.27 3.73 23.93 12.72 24.28q5.42.21 10.89-2.54 68.32-34.33 181.01-90.15a1.18 1.18 0 0 0 .59-1.46q-1.77-4.81-2.81-10.27-3.08-16.22-2.41-32.82c.46-11.28 1.29-21.17 3.48-30.17" vector-effect="non-scaling-stroke"/><path stroke="#142536" d="M689.64 851.5a.48.48 0 0 0-.2.86c10.63 7.92 32.83-3.91 42.71-8.97q59.33-30.33 125.58-64.97 28.54-14.92 34.97-18.51a6.41 6.4-8.8 0 0 3.15-4.3l.26-1.28a1.98 1.98 0 0 0-2.77-2.19q-33.15 15.47-50.57 24.14-83.85 41.77-126.33 63.88-12.18 6.34-18.99 8.73-6.87 2.42-7.81 2.61" vector-effect="non-scaling-stroke"/><path stroke="#ece3d6" d="M603.5 363.09a.19.19 0 0 0 .37-.01q1.27-17.97 12.82-31.65 3.82-4.53 7.85-7.14 9.17-5.94 18.9-9.09 73.75-23.88 158.31-50.41 30.31-9.5 49.76-14.77a3.28 3.26 87.5 0 0 2.37-2.6l2.09-12.09a.89.88-3.6 0 0-1.13-.99q-57.87 17.42-122.41 37.42-52.2 16.18-68.03 21.22-5.09 1.62-12.37 4.05c-4.81 1.6-14.01 3.96-20.46 6.82q-14.43 6.4-21.18 20.99c-3.52 7.62-5.6 14.48-6.28 22.16q-.16 1.77-.6 4.99-.77 5.56-.01 11.1" vector-effect="non-scaling-stroke"/><path stroke="#813a1d" d="M170.47 332.71c.33 16.56 4.06 32.3 12.58 47.08a3.77 3.77 0 0 0 5.54 1.12l.2-.15a5.13 5.13 0 0 0 1.47-6.4c-6.71-13.22-10.13-27.39-10.43-41.84-.29-14.46 2.55-28.76 8.71-42.24a5.13 5.13 0 0 0-1.73-6.33l-.21-.14a3.77 3.77 0 0 0-5.49 1.34c-7.91 15.12-10.98 30.99-10.64 47.56m382.81 30.8c.2 14.79 2.65 28.61 8.64 41.84q1.55 3.42 3.05 5.27a1.91 1.86 80.7 0 0 .76.56c4.19 1.64 6.98-3.28 5.67-6.73q-2.84-7.5-3.67-9.93c-3.23-9.44-4.74-20.14-4.89-31.14-.15-11.01 1.07-21.74 4.05-31.26q.76-2.46 3.39-10.03c1.22-3.49-1.7-8.33-5.85-6.57a1.91 1.86-82.2 0 0-.74.58q-1.45 1.89-2.91 5.34c-5.62 13.39-7.7 27.28-7.5 42.07" vector-effect="non-scaling-stroke"/><path stroke="#db531f" d="M164.77 376.92c2.73 3.28 5.59 7.67 10.14 8.93q5.57 1.54 10.78 1.52c5.55-.03 8.64.6 14.33.74a9.01 8.89 52.8 0 1 2.01.29c5.26 1.4 9.76.63 15.09 1.33q3.05.41 7.55.37a3.4 3.09 47.8 0 1 .62.06l6.73 1.23a.55.37 37.5 0 0 .17.01q4.77-.2 7.44.14c5.4.7 9.44.24 14.63 1.41a8.23 7.61-35.1 0 0 1.49.2q17.64.71 19.79 1.12 5.38 1.02 9.96 1.03c4.12 0 6.45.58 10.84.7 2.78.07 5.83.69 8.37 1.21a7.06 6.78 49.2 0 0 1.61.15c4.87-.09 8.39.69 12.99.69q3.35.01 8.26 1.14a8.93 8.67 49.7 0 0 2.28.22q5.71-.2 7.67.12c4.33.7 9.21.15 14.15 1.43a11 10.95-37 0 0 2.46.34q12.03.29 22.01 1.55c3.41.43 7.57.06 10.1.79a6.48 6.24-36.2 0 0 1.7.23q5.62-.05 11 1.29a6.91 6.88 50.7 0 0 2.05.21c4.84-.23 7.9.53 12.9.68q4.06.13 8.96 1.26a2.33 1.94 25.2 0 0 .32.04l18.6.77a4.37 4.3-34.1 0 1 1.3.24q3.03 1.07 6.42 1.02c4.82-.07 9.29.79 13.49.7a7.25 7.08-39.3 0 1 1.6.14q6 1.21 10.25 1.08 3.47-.1 6.74.45 1.24.21 6.77.35a8.52 8.49-38 0 1 1.64.2q5.25 1.17 6.27 1.09 3.27-.26 10.55.52 3.78.4 5.8.28a7.06 6.87 49.5 0 1 2.06.19q4.9 1.2 11.24.96a.53.48 47.9 0 1 .1.01l12.14.94a3.55 2.94-21.7 0 1 .47.07l4.88 1.07a.87.78 48.2 0 0 .18.02q5.74-.22 8.01.12 3.75.56 6.3.54 3.45-.03 8.99 1.05a9.06 8.84 49.5 0 0 1.63.15q10.79-.05 21.51 1.93a7.9 7.78 47.7 0 0 1.97.11q5.06-.37 9.32.7a1.15 1.15 0 0 0 1.22-1.77l-4.17-5.97a5.11 5.1-15 0 0-3.76-2.16l-22.16-1.85a1.29 1.25 30.2 0 0-.77.19l-2.81 1.78a1.48 1.45 27.1 0 1-.7.22c-2.99.15-3.73-.63-5.43-2.43a1.15 1.14-19.6 0 0-.7-.33L193.1 378.91a2.61 2.61 0 0 0-2.41 1.19c-3.08 4.77-7.37 2.97-9.48-1.07-.88-1.68-2.62-1.04-4.19-1.33q-6.24-1.17-11.87-1.53a.46.46 0 0 0-.38.75" vector-effect="non-scaling-stroke"/><path stroke="#ece3d6" d="M659.26 503.58q0-.03-.15-2.15a10.64 10.56 54.1 0 1 .74-4.74q2.5-6.15 5.13-10.96c3.44-6.28 9.11-10.66 15-14.39q3.9-2.47 12.15-5.71 32.74-12.87 35.74-14 20.85-7.88 124.04-45 5.22-1.88 23.55-7.6a1.81 1.73-77.2 0 0 .83-.55q.94-1.12 1.32-3.35 1.23-7.28 1.54-9.9.1-.89.08-.96a1.79 1.78 73.4 0 0-2.32-1.26q-38.24 13.44-63.02 22.14-67.09 23.55-130.16 46.6-10.46 3.83-16 13.24-9.8 16.63-9.23 37.01.02.57.13 1.57a.32.32 0 0 0 .63.01" vector-effect="non-scaling-stroke"/><path stroke="#e0a423" d="M757.61 558.83q-.41-.08-.49-.07a.27.25-50.6 0 0 .03.51q.26-.03.51-.24a.11.11 0 0 0-.05-.2m-2.353.933a1.09.27-18 0 0-1.12.08 1.09.27-18 0 0-.954.594 1.09.27-18 0 0 1.12-.08 1.09.27-18 0 0 .954-.594m-2.245.887a.7.2-23.5 0 0-.722.097.7.2-23.5 0 0-.562.462.7.2-23.5 0 0 .722-.096.7.2-23.5 0 0 .562-.462m-3.242 1.709q.22.01.63-.34a.21.2 23 0 0-.15-.36q-.18.01-.59.23a.25.25 0 0 0 .11.47m-23.498 9.428a.68.22-16.4 0 0-.714-.019.68.22-16.4 0 0-.59.403.68.22-16.4 0 0 .714.019.68.22-16.4 0 0 .59-.403" vector-effect="non-scaling-stroke"/><path stroke="#dc7d23" d="M721.22 573.75q-.23.02-.28.12a.09.09 0 0 0 .09.12l.31-.01a.15.1 28.4 0 0-.12-.23" vector-effect="non-scaling-stroke"/><path stroke="#e0a423" d="M718.95 574.69a2.13.27-20.9 0 0-2.086.508 2.13.27-20.9 0 0-1.894 1.012 2.13.27-20.9 0 0 2.086-.508 2.13.27-20.9 0 0 1.894-1.012m-7.965 3.12a.54.21-20.7 0 0-.58-.006.54.21-20.7 0 0-.43.387.54.21-20.7 0 0 .58.005.54.21-20.7 0 0 .43-.387" vector-effect="non-scaling-stroke"/><path stroke="#dc7d23" d="M707.86 579.35q.18-.01.92-.35a.16.16 0 0 0-.08-.3q-.78.07-.98.2a.25.24 27.9 0 0 .14.45m-1.414.395a.77.24-17 0 0-.806-.005.77.24-17 0 0-.666.455.77.24-17 0 0 .806.004.77.24-17 0 0 .666-.454" vector-effect="non-scaling-stroke"/><path stroke="#e0a423" d="M704.014 580.683a2.77.27-21.1 0 0-2.681.745 2.77.27-21.1 0 0-2.487 1.25 2.77.27-21.1 0 0 2.681-.746 2.77.27-21.1 0 0 2.487-1.25" vector-effect="non-scaling-stroke"/><path stroke="#826421" d="M163.28 593.64c.37 15.77 3.56 31.77 10.79 45.73 1.7 3.27 5.19 5.57 8 2.39 1.26-1.44 1.34-3.97.56-5.56-6.55-13.4-9.36-27.97-9.72-42.79-.35-14.81 1.76-29.5 7.67-43.2.7-1.62.49-4.15-.83-5.53-2.96-3.04-6.34-.57-7.88 2.78-6.55 14.29-8.97 30.41-8.59 46.18m444.8 49.58c.1 16.04 2.69 33.06 9.91 47.03q1.09 2.11 2.61 3.31a3.52 3.2-39.5 0 0 3.74.18c3.85-2.18 2.66-5.77 1.14-9.51-5.37-13.25-7.56-26.58-7.65-41.07s1.94-27.84 7.15-41.16c1.47-3.75 2.61-7.36-1.26-9.49a3.52 3.2 38.8 0 0-3.74.23q-1.51 1.22-2.57 3.34c-7.05 14.06-9.43 31.11-9.33 47.14" vector-effect="non-scaling-stroke"/><path stroke="#e0a423" d="M648.3 692.63q-10.33 0-19.38-2.87a.6.6 0 0 0-.76.39c-1.06 3.4-4.39 6.42-8.08 4.36q-1.18-.66-3.76-4.26a.95.95 0 0 0-.89-.39c-.7.1-1.29.29-2.13.21q-9.3-.97-20.8-2.42-37.41-4.74-67.47-8.35-55.25-6.63-65.76-7.99-28.09-3.63-59.26-7.23-16.41-1.89-56.26-6.83-4.36-.54-9.98-.87c-7.56-.44-14.08-1.13-24.89-2.55q-64.01-8.37-123.14-14.08a1.79 1.78 21 0 0-1.61.71c-1.86 2.5-3.05 4.72-6.44 3.82-2.6-.69-4.49-3.76-5.97-6.32a.48.46-11.4 0 0-.38-.24l-17.29-1.69a.53.53 0 0 0-.46.86c3.73 4.59 7.79 9.18 14.16 10.04q6.56.88 8.32.92 5.34.15 8.34.6c7.01 1.05 15.39 1.31 23.57 2.38q5.35.7 11.58 1.1c2.39.15 5.47 1.24 7.19 1.28 6.25.16 15.1 2.19 21.02 2.44 6.12.27 11.46 1.5 17.98 2.08q8.61.76 20.06 2.35 9.87 1.36 11.45 1.52 8.32.8 11.47 1.41c3.67.71 8.56.61 12.18 1.29q6.25 1.17 9.09 1.27.57.02 20.71 2.19c6.13.66 11.68 1.78 18.1 2.26 2.7.2 6.42 1.13 8.69 1.25 6.95.38 13.22 1.53 19.67 2.25q14.71 1.63 17.28 1.96 2.45.31 4.77.63 7.34.99 14.67 1.71 4.34.42 6.94.92c5.71 1.11 11.04 1.08 17.34 2.11 5.1.83 10.2.89 15.59 1.82 5.42.93 10.73 1.03 16.83 2.11 3.94.69 8.44.83 12.72 1.6 3.27.59 5.31.99 8.68 1.21q5.78.38 8.87.97 5.11.98 8.84 1.04c3.54.07 9.33 1.28 14.3 1.75 3.09.29 7.43.66 11 1.29 5.88 1.03 11.45 1.2 17.33 2.17 4.71.78 11.34.84 16.75 1.98q2.73.58 6.65.81 2.87.16 9.98 1.18 3.85.54 10.82 1.15c3.59.31 6.78 1.34 9.91 1.49q3.58.17 7.48.72 9.84 1.38 16.95 1.88a5.03 4.94 55 0 1 1.08.2q1.91.58 4.3.79a.53.53 0 0 0 .48-.83l-7.87-11.25a.67.67 0 0 0-.56-.3" vector-effect="non-scaling-stroke"/><path stroke="#ece3d6" d="M658 652.41q1.39-6.94 2.5-9.53c3.72-8.73 12.4-13.34 20.83-16.83q41.02-16.95 70.39-29.19c27.68-11.53 52.97-21.26 76.03-31.42q22.84-10.06 39.47-16.18a2.7 2.68 83.3 0 0 1.74-2.22l1.71-14.51a.43.43 0 0 0-.6-.45q-15.94 6.62-36.93 15.59-48.9 20.87-94.68 39.68c-17.19 7.06-38.5 16.26-56.28 23.3q-5.19 2.05-14.93 4.38c-1.54.37-3.66 1.43-4.4 2.82-2.57 4.82-3.33 11.12-4.66 15.82a3.97 3.82 52 0 0-.13 1.27q.26 4.54-.55 7.31a1.62 1.4-40.9 0 0-.06.42l-.26 9.91a.12.12 0 0 0 .11.12l.26.04a.41.4-81.5 0 0 .44-.33" vector-effect="non-scaling-stroke"/><path stroke="#e0a423" d="M684.34 707.8q4.05 1.78 8.22 1 5.12-.95 11.86-3.17 10.11-3.33 24.06-9.73 15.79-7.24 31.43-14.34 16.4-7.45 102.31-47.33 13.83-6.42 26.22-13.28c1.99-1.09 4.75-2.98 4.45-4.96a.8.8 0 0 0-1.03-.64q-5.98 1.86-11.4 4.36-44.24 20.38-95.63 43.31c-4 1.78-9.09 4.39-13.77 6.35q-5.45 2.29-10.42 4.53-29.9 13.49-48.08 21.92-11.43 5.3-21.34 9.38-3.33 1.36-6.76 1.78a.43.43 0 0 0-.12.82" vector-effect="non-scaling-stroke"/><path stroke="#142536" d="M167.79 773.78a4.77 4.77 0 0 0 2.6-6.2q-4.62-11.44-6.09-17.32-1.78-7.13-2.35-15.49-1.1-16.02.4-28.76c.98-8.36 3.33-15.93 6.38-23.26 1.57-3.74 1.66-6.87-1.79-9.14a2.15 2.13-25.4 0 0-.99-.35q-3.5-.36-5.19 2.76-2.73 5.04-4.59 11.68-8.95 31.82-1.23 65.1 1.91 8.27 6.46 18.76a4.57 4.57 0 0 0 5.94 2.4l.45-.18m476.85 62.77q.22-2.95-.88-5.56c-5.63-13.38-7.36-29.53-6.92-44q.55-18.53 4.44-31.12 1.26-4.07 2.03-5.74c1.59-3.42 3.82-7.65 2.76-10.71-1.25-3.62-6.45-5.21-8.61-.95q-6.95 13.71-9.12 29.31c-2.84 20.46-1.92 43.11 4.7 62.91.97 2.92 3.31 8.53 6.57 8.96q2.85.38 4.68-2.12a1.85 1.83-25.7 0 0 .35-.98" vector-effect="non-scaling-stroke"/><path stroke="#ece3d6" d="M874.58 671.72a.89.89 0 0 0-1.25-.94q-18.95 8.75-43.28 19.78-60.64 27.48-125.44 57.29c-6.77 3.11-14.69 6.71-22.32 7.14a1.37 1.35-81.9 0 0-1.21.92q-5.15 14.98-6.22 30a.36.35 60.7 0 0 .67.19c2-3.91 3.96-7.89 7.08-11.08a6.38 6.36 6.4 0 1 1.22-.97q5.8-3.55 10.93-6.06 9.82-4.81 29.38-13.84 33.4-15.43 67.41-31.08c15.11-6.96 32.51-14.36 49.65-22.12q14.34-6.49 28.24-11.8c2.01-.77 2.76-1.85 3.14-3.77q.05-.25 2-13.66" vector-effect="non-scaling-stroke"/></g><path fill="#141616" d="M134.42 643.34q-12.1-18.3-14.9-40.6-1.04-8.23-1.31-13.49c-.4-7.98.37-15.61 1.35-22.63q2.57-18.44 11.67-34.57c2.5-4.44 5.84-8.77 9.58-13.06a.57.57 0 0 0-.04-.78c-1.86-1.8-4.7-3.6-6.78-6.18q-6.37-7.93-9.82-16.68-7.25-18.42-7.05-38.5.12-11.48 2.76-24.09c3.01-14.44 9.08-29.34 19.1-40.31 2.36-2.58 5.54-4.54 8.17-6.63a.69.68-36.5 0 0 .14-.93c-10.98-15.9-15.53-35.34-16.14-54.64q-.74-23.08 7.04-44.07 4.63-12.5 13.89-23.6 9.75-11.69 25.38-15.98l80.26-22.04q137.07-37.64 171.79-47.27 8.51-2.36 13.96-3.17 6.94-1.03 14.29-.63 7.72.42 10.65.53 6.77.25 9.16.6c4.75.7 11.17.27 16.69.97q2.4.31 7.51.38 4.46.06 10.98.73c4.86.5 9.5.19 14.69.75 6.09.66 12.18.39 18.5 1.25q1.95.26 7.43.31 4.73.04 10.24.67c4.4.51 8.63.21 13.7.79 5.37.63 11.54.4 16.59.89 6.66.65 12.38.45 19.22 1.21 6.12.68 13.76.4 19.61 1.09 4.82.58 9.38.16 14.66.76q4.95.56 10.25.6c5.82.05 10.53.92 16.69.94q2.77.01 10.31.77c3.74.38 8.66.27 13.78.67q16.63 1.28 27.82 1.66c6.81.23 11.47.92 18.03 1.01q3.65.05 9.98.75c4.32.47 8.7.1 13.32.7 6.77.87 14.87.38 22.34 1.18 5.42.58 10.62.27 17.11.79q7.1.57 15.4.64a3.91 3.83 52.7 0 1 1.1.16c2.82.8 6.69.68 11.06.72q2.32.02 9.31.6 5.17.44 12.64.5c2.6.02 5.83.72 8.65.75 5.89.06 11.57.47 16.84 2.06 5.63 1.71 9.09 6.05 9.56 11.97q.54 6.85-3.98 10.97-4.06 3.7-9.8 5.28a3.54 3.54 0 0 0-2.44 2.35c-3.83 12.16-5.47 25.79-5.83 39.02q-.44 15.97 2.37 31.83 1.41 7.98 4.45 15.26a3.78 3.77-3 0 0 2.41 2.16c6.37 1.88 11.75 4.03 13.77 11.2.97 3.47 1.78 6.97.89 10.23q-.46 1.69-.26 2.96a.88.88 0 0 0 .81.74q7.29.5 12.65 2.22c9.21 2.96 10.29 13.38 6.25 20.81a3.64 3.52-9.4 0 1-.63.85q-4.82 4.9-11.36 7.18a2.83 2.81 88 0 0-1.78 1.92q-5.16 19.33-5.79 39.89-.56 18.36 3.77 36.46 1.13 4.72 3.05 9.32a2.14 2.13 80.5 0 0 1.82 1.31q10.54.72 12.87 11.07c.7 3.09.52 8.81-.92 12.09q-2.27 5.15-7.66 8.18a.91.9-32.2 0 0-.3 1.3q5.62 8.06 1.07 16.52c-3.21 5.96-8.59 7.99-14.53 10.22a2.85 2.83-1.8 0 0-1.72 1.82q-8.87 28.96-4.91 58.87c.6 4.53 1.96 9.95 3.82 14.11a1.48 1.48 0 0 0 1.23.87q4.58.39 8.83 1.86c7.48 2.58 10.78 8.24 10.89 16.01q.1 7.5-6.17 13.15a.6.6 0 0 0 .12.98c7.23 3.87 7.92 12.7 4.36 19.36-2.98 5.59-8.73 7.61-14.13 10.54a1.31 1.29-9.4 0 0-.66.91q-3.2 16.85-3.65 20.04c-2.25 15.73-2.61 31.04.06 45.94q1.02 5.65 2.48 9.78a2.3 2.29 81.8 0 0 2.02 1.52q3.41.2 7.85 1.39 9.44 2.52 10.26 12.66c.67 8.49-4.71 14.26-11.44 18.42q-9.88 6.1-23.7 13.58-33.93 18.36-88.65 47.08-1.66.87-15.66 8.17-42.35 22.06-52.66 27.25-12.45 6.25-27.05 7.07-3.01.17-24-2.6-17.01-2.24-32.74-4.53-74.24-10.77-126.65-18.6-42.14-6.29-72.7-10.61-37.77-5.33-72.72-10.65-1.88-.29-117.46-17.2-57.1-8.36-60.02-8.77-12.47-1.77-25.21-3.69c-3.53-.53-7.26-1.33-11.27-1.97q-20.05-3.2-31.52-20.53-8.25-12.48-11.32-27.96-3.71-18.73-2.33-39.83c1.31-19.99 7.54-40.7 21.21-55.76 2.12-2.34 4.88-4.33 7.08-6.68a.72.71-40.7 0 0 .07-.89m733.45-430.88a.33.33 0 0 0-.13-.63q-.24-.01-3.94-.08-8.87-.16-57.3-2.83-135.71-7.49-324.75-18.71-7.26-.43-25.24-1.22-9.19-.4-18.22 2.06-90.86 24.77-182.1 49.91-50.09 13.8-67.31 18.94-2.15.64-3.58 1.36a.31.31 0 0 0 .13.58q9.44.21 23.57 1.27c78.14 5.85 152.45 10.73 225.49 16.18q150.93 11.25 179.26 13.46 2.73.21 4.23-.74 7.31-4.63 14.79-6.98 31.63-9.95 75.86-23.41 46.09-14.02 158.6-48.87.1-.03.64-.29m-10.23 19.76q-109.24 32.89-214.42 66.25c-6.26 1.99-12.14 3.88-17.41 7.09q-13.36 8.13-18.91 23.8-9.96 28.1-3.01 58.53c1.17 5.11 5.41 16.74 10.76 18.29a2.62 2.58 47.5 0 0 1.19.06q7.66-1.4 16.27-4.37 114.67-39.56 229.09-79.63a1.28 1.27 70 0 0 .77-1.66c-8.85-23.18-9.58-49.01-6.7-73.72.51-4.39 1.67-9.54 2.8-14.23a.34.34 0 0 0-.43-.41m-253.75 70.32q-2.62-.01-14.39-.8-22.44-1.5-129.02-9.22Q329 283 217.75 274.94q-15.33-1.11-38.19-2.95c-7.12-.58-10.77-1.48-14.69 4.17q-12.52 18.05-14.49 40.06c-1.68 18.74.76 38.44 9.3 55.36 3.33 6.61 10.86 15.73 18.83 16.36q39.05 3.11 161.49 13.46 114.75 9.7 229.13 18.99c13.09 1.06 24.94 2.46 36.27 2.75a.44.44 0 0 0 .35-.72c-8.52-9.91-13.5-20.39-16.47-33.26-3.74-16.18-3.99-34.03-1.17-50.15 2.25-12.85 7.62-25.82 15.98-36.04a.26.26 0 0 0-.2-.43m23.88 116.42q-1.04-.03-2.73.73l-4.18.58a.39.39 0 0 0-.1.75c13.25 5.72 26.57.74 39.77-3.95q58.93-20.91 124.94-43.44 21.51-7.34 41.2-14.24 31.64-11.1 41.31-13.9 1.48-.43 5.07-1.93c3.01-1.26 3.6-5.42 3.36-8.26a1.33 1.33 0 0 0-1.41-1.22q-3.23.2-5.56 1.01-81.95 28.53-98.95 34.49-25.67 8.99-50.42 17.63-45.45 15.86-86.73 29.79-2.54.86-5.57 1.96m23.68 133.26q-8.52-14.53-10.28-31.15-2.13-20.08 1.87-39.8c2.76-13.6 8.73-26.19 18.85-35.97 5.5-5.31 12.52-8.29 19.6-10.58 12.02-3.9 23.38-7.37 37.23-12.54 19.98-7.46 39.4-13.28 59.15-20.66q21.71-8.13 71.83-25.56 20.81-7.23 36.81-12.22 6.72-2.1 11.6-5.31a1.09 1.09 0 0 0 .08-1.76c-3.33-2.69-9.62-1.98-13.44-.92-16.76 4.63-31.87 10.15-50.13 17.1-15.92 6.07-37.41 12.9-53.41 18.66q-38.75 13.94-60.53 21.51c-20.21 7.01-45.65 16.81-65.37 23.3q-20.12 6.63-41.16 5.28-53.78-3.44-102.3-7.71-69.63-6.14-129.07-11.59c-18.74-1.72-30.36-2.2-48.54-4.18q-6.11-.66-27.14-2.32c-22.83-1.79-62.02-5.84-93.97-8.44q-10.71-.88-31.97-3.77-6.33-.86-17.69-4.29c-2.28-.69-4.92-1.19-6.62.31-9.44 8.39-15.21 21.42-18.16 34.05q-5.93 25.37.58 50.88 2.38 9.3 8.13 16.12a1.53 1.53 0 0 0 .86.52c8.03 1.77 16.3 1.85 24 3.02a.31.31 0 0 0 .33-.44c-11.72-25.74-13.67-57.04-2.27-83.43q.9-2.09 2.93-4.26c2.35-2.49 5.06-.82 7.53.56a.99.99 0 0 1 .51.83q.17 3.29-.69 5.1c-8.76 18.58-9.51 40.68-4.92 60.32 2 8.54 4.9 14.82 9.05 22.02a.81.81 0 0 0 .6.4q49.02 5.35 57.57 5.97c19.37 1.4 34.38 3.37 53.09 5.23q49.76 4.94 100.83 10.18c8.11.83 18.36 1.53 26.31 2.46 22.69 2.63 44.72 5.24 65.17 7.13q11.02 1.02 34.28 3.64 20.18 2.28 88.28 8.85c1.86.18 3.6.03 6.19-.08a.34.33-14.8 0 0 .29-.48q-4.55-9.3-6.49-16.52-7-26.03-1.51-54.14 2.11-10.78 8-20.45 1.55-2.55 4.96-2.93a1.76 1.73-34.7 0 1 .93.16q5.09 2.48 2.54 7.39c-8.43 16.22-10.15 36.51-7.84 54.66q1.5 11.72 3.74 17.18c2.11 5.13 4.9 10.32 5.77 15.89a.68.68 0 0 0 .59.57l23.08 2.72a.34.34 0 0 0 .34-.51m229.96-171.96c-63.16 21.63-138.14 48.35-198.35 70.38-12.49 4.57-18.95 15.45-22.66 27.69q-7.54 24.9-2.55 50.3 1.63 8.27 6.65 15.33c4.93 6.93 12.63 3.56 19.56.83q50.6-19.95 201.29-78.98a1.05 1.05 0 0 0 .59-1.38q-6.11-14.62-7.67-30.18-2.72-27.11 3.4-53.76a.2.2 0 0 0-.26-.23M674.9 564.16q6.05 3.56 12.86 2.39c8.24-1.4 13.58-3.42 21.88-6.28 8.98-3.11 18.33-7.28 25.48-9.86 11.55-4.16 22.76-9.49 35.16-14.12q8.59-3.22 20.32-7.95 31.01-12.5 56.92-22.82c13.31-5.29 22.56-9.38 35.55-14.82 3.73-1.57 9.59-3.55 13.94-5.78q4.21-2.17 2.97-7.46a.78.77-6.3 0 0-.74-.59q-3.56-.06-7 1.16-11.81 4.22-20.59 7.96c-14.74 6.29-32.44 12.44-46.45 18.41-6.84 2.92-13.99 5.16-20.11 7.82q-5.23 2.28-13.19 5.23-9.74 3.6-13.29 5.03-9.22 3.71-10.59 4.27-24.01 9.83-24.58 10.08-4.38 1.86-10.2 3.86c-4.63 1.59-10.85 4.51-16.33 6.51q-5.68 2.06-6.25 2.34-5.08 2.49-9.28 3.71-.88.26-14.09 5.54-6.44 2.57-12.31 4.6a.43.43 0 0 0-.08.77m-1.31 30.89c6.39-3.09 12.73-5.08 20.48-8.13q10.44-4.11 26.07-10.59 58.32-24.14 100.98-41.68 20.9-8.59 43.64-18.42 15.33-6.62 22.82-10.65 1.58-.85 2.5-2.43a.38.38 0 0 0-.48-.54q-6.41 2.75-13.26 5.58-90.34 37.35-152.17 62.17-16.32 6.55-38.34 15-7.69 2.95-12.61 9.23a.3.3 0 0 0 .37.46m-8.96-13.92Q437.73 557.84 172 528.95c-6.06-.66-12.17-1.65-16.4 1.67q-2.51 1.98-5.43 6.32c-12.29 18.29-14.09 43.32-11.55 64.9 1.84 15.62 7.91 32.02 20.18 42.43 3.14 2.66 7.34 4.11 10.92 4.39q25.54 2 49.53 4.87 201.4 24.05 244.65 29.5 1.96.25 25.59 3.09 160.24 19.28 171.26 20.66a.23.23 0 0 0 .18-.41q-2.22-1.82-4.01-4.03-9.73-12.06-13.1-27.64-7.12-33.01 3.42-63.8c3.73-10.92 9.64-21.96 17.52-29.39a.22.22 0 0 0-.13-.38m207.74-51.31q-2.46.91-63.26 26.69c-40.74 17.27-83.1 34.65-122.85 51.27q-6.43 2.69-20.19 6.4-2.9.78-4.12 2.78-1.9 3.1-3.13 8.12-5.33 21.73-1.54 42.37c1.63 8.88 6.65 25.29 17.68 25.51 4.15.08 10.47-3.08 13.72-4.54q75.69-33.99 185.92-84.19a.86.84-21.5 0 0 .46-1.04q-5.15-15.57-5.66-31.52c-.42-13.27.48-27.99 3.47-41.41a.38.38 0 0 0-.5-.44M680.25 707.95q8.1 3.72 16.93 1.18 16.02-4.61 34.41-13.03 52.32-23.97 104.37-48.4c14.58-6.84 27.54-12.47 40.88-19.12q8.63-4.3 14.71-8.27 2.04-1.33 2.87-3.52a1.97 1.72-73.6 0 0-1.18-2.57q-1.23-.23-3.1.42-6.98 2.42-11.12 4.36-16.55 7.74-32.71 15.05c-65.7 29.7-97.36 43.75-125.42 56.7q-15.63 7.22-27.78 12.26c-4.37 1.81-8.4 2.88-12.81 4.22a.39.39 0 0 0-.05.72m10.48 27.8q5.67-1.73 10.03-3.75c25.42-11.72 50.3-23.49 72.26-33.28q51.45-22.95 83.96-37.97 2.87-1.33 23.1-10.23c4.5-1.98 7.93-4.15 11.79-6.42q1.65-.97 2.05-3.02a1.04 1.04 0 0 0-1.26-1.21q-2.11.49-2.26.55c-16.15 5.92-30.32 11.63-47.6 19.76q-26.58 12.51-54.96 25.62c-22.37 10.33-39.07 18.5-63.01 29.47q-8.67 3.97-11.5 4.98c-7.3 2.62-20.19 6.97-23.24 14.8a.53.52-87.7 0 0 .64.7m-18.65 114.8q-10.68-16.85-13.01-37.08-2.62-22.69 1.51-44.69c2.23-11.88 6.26-23.51 12.24-33.8q3.35-5.78 4.73-8.47a.83.83 0 0 0-.63-1.2q-32.18-4.14-74.4-9.08c-11.95-1.4-27.07-3.54-41.02-5.15q-49.88-5.77-101.75-11.97-61.07-7.32-121.98-14.94-61.13-7.65-91.82-11.24-74.78-8.72-91.86-10.81c-4.07-.5-7.66-1.27-11.35-1.31a3.19 3.17 18.1 0 0-2.65 1.33c-12.81 17.97-16.71 38-16.12 60.02q.41 15.05 4.32 27.92 2.67 8.8 5.93 13.97c3.7 5.87 7.47 10.98 13.6 12.89q7.14 2.23 15.31 3.19 3.21.38 22.1 3.4 13.18 2.11 25.31 3.7 15.04 1.97 25.37 3.52 19.29 2.89 46.84 6.81 2.92.42 77.01 11.17 30.11 4.37 33.49 4.9 7.73 1.2 16.66 2.33 10.58 1.33 16.65 2.35 16.98 2.84 33.26 4.98 16.2 2.13 33.31 4.68 82.03 12.21 98.72 14.65c9.62 1.41 18.69 2.48 27.88 4 12.06 1.99 24.54 3.14 36.27 4.04q8.01.61 15.73.53a.42.42 0 0 0 .35-.64m204.7-181.97a.36.36 0 0 0-.5-.41q-95.69 43.3-171.75 78.35c-6.73 3.11-15.21 7.15-23.33 7.2a.88.87 9.1 0 0-.81.58q-7.99 22.4-7.64 45.02.11 6.65.56 12.39c.5 6.27 3.73 23.93 12.72 24.28q5.42.21 10.89-2.54 68.32-34.33 181.01-90.15a1.18 1.18 0 0 0 .59-1.46q-1.77-4.81-2.81-10.27-3.08-16.22-2.41-32.82c.46-11.28 1.29-21.17 3.48-30.17M689.64 851.5a.48.48 0 0 0-.2.86c10.63 7.92 32.83-3.91 42.71-8.97q59.33-30.33 125.58-64.97 28.54-14.92 34.97-18.51a6.41 6.4-8.8 0 0 3.15-4.3l.26-1.28a1.98 1.98 0 0 0-2.77-2.19q-33.15 15.47-50.57 24.14-83.85 41.77-126.33 63.88-12.18 6.34-18.99 8.73-6.87 2.42-7.81 2.61"/><path fill="#ed5e24" d="M867.87 212.46q-.54.26-.64.29-112.51 34.85-158.6 48.87-44.23 13.46-75.86 23.41-7.48 2.35-14.79 6.98-1.5.95-4.23.74-28.33-2.21-179.26-13.46c-73.04-5.45-147.35-10.33-225.49-16.18q-14.13-1.06-23.57-1.27a.31.31 0 0 1-.13-.58q1.43-.72 3.58-1.36 17.22-5.14 67.31-18.94 91.24-25.14 182.1-49.91 9.03-2.46 18.22-2.06 17.98.79 25.24 1.22 189.04 11.22 324.75 18.71 48.43 2.67 57.3 2.83 3.7.07 3.94.08a.33.33 0 0 1 .13.63"/><path fill="#f8f0e4" d="M857.64 232.22a.34.34 0 0 1 .43.41c-1.13 4.69-2.29 9.84-2.8 14.23-2.88 24.71-2.15 50.54 6.7 73.72a1.28 1.27 70 0 1-.77 1.66q-114.42 40.07-229.09 79.63-8.61 2.97-16.27 4.37a2.62 2.58 47.5 0 1-1.19-.06c-5.35-1.55-9.59-13.18-10.76-18.29q-6.95-30.43 3.01-58.53 5.55-15.67 18.91-23.8c5.27-3.21 11.15-5.1 17.41-7.09q105.18-33.36 214.42-66.25M603.5 363.09a.19.19 0 0 0 .37-.01q1.27-17.97 12.82-31.65 3.82-4.53 7.85-7.14 9.17-5.94 18.9-9.09 73.75-23.88 158.31-50.41 30.31-9.5 49.76-14.77a3.28 3.26 87.5 0 0 2.37-2.6l2.09-12.09a.89.88-3.6 0 0-1.13-.99q-57.87 17.42-122.41 37.42-52.2 16.18-68.03 21.22-5.09 1.62-12.37 4.05c-4.81 1.6-14.01 3.96-20.46 6.82q-14.43 6.4-21.18 20.99c-3.52 7.62-5.6 14.48-6.28 22.16q-.16 1.77-.6 4.99-.77 5.56-.01 11.1"/><path fill="#dfd5c8" d="M603.5 363.09q-.76-5.54.01-11.1.44-3.22.6-4.99c.68-7.68 2.76-14.54 6.28-22.16q6.75-14.59 21.18-20.99c6.45-2.86 15.65-5.22 20.46-6.82q7.28-2.43 12.37-4.05 15.83-5.04 68.03-21.22 64.54-20 122.41-37.42a.89.88-3.6 0 1 1.13.99l-2.09 12.09a3.28 3.26 87.5 0 1-2.37 2.6q-19.45 5.27-49.76 14.77-84.56 26.53-158.31 50.41-9.73 3.15-18.9 9.09-4.03 2.61-7.85 7.14-11.55 13.68-12.82 31.65a.19.19 0 0 1-.37.01"/><path fill="#ed5e24" d="M603.89 302.54a.26.26 0 0 1 .2.43c-8.36 10.22-13.73 23.19-15.98 36.04-2.82 16.12-2.57 33.97 1.17 50.15 2.97 12.87 7.95 23.35 16.47 33.26a.44.44 0 0 1-.35.72c-11.33-.29-23.18-1.69-36.27-2.75Q454.75 411.1 340 401.4q-122.44-10.35-161.49-13.46c-7.97-.63-15.5-9.75-18.83-16.36-8.54-16.92-10.98-36.62-9.3-55.36q1.97-22.01 14.49-40.06c3.92-5.65 7.57-4.75 14.69-4.17q22.86 1.84 38.19 2.95Q329 283 460.48 292.52q106.58 7.72 129.02 9.22 11.77.79 14.39.8m-433.42 30.17c.33 16.56 4.06 32.3 12.58 47.08a3.77 3.77 0 0 0 5.54 1.12l.2-.15a5.13 5.13 0 0 0 1.47-6.4c-6.71-13.22-10.13-27.39-10.43-41.84-.29-14.46 2.55-28.76 8.71-42.24a5.13 5.13 0 0 0-1.73-6.33l-.21-.14a3.77 3.77 0 0 0-5.49 1.34c-7.91 15.12-10.98 30.99-10.64 47.56m382.81 30.8c.2 14.79 2.65 28.61 8.64 41.84q1.55 3.42 3.05 5.27a1.91 1.86 80.7 0 0 .76.56c4.19 1.64 6.98-3.28 5.67-6.73q-2.84-7.5-3.67-9.93c-3.23-9.44-4.74-20.14-4.89-31.14-.15-11.01 1.07-21.74 4.05-31.26q.76-2.46 3.39-10.03c1.22-3.49-1.7-8.33-5.85-6.57a1.91 1.86-82.2 0 0-.74.58q-1.45 1.89-2.91 5.34c-5.62 13.39-7.7 27.28-7.5 42.07m-388.51 13.41c2.73 3.28 5.59 7.67 10.14 8.93q5.57 1.54 10.78 1.52c5.55-.03 8.64.6 14.33.74a9.01 8.89 52.8 0 1 2.01.29c5.26 1.4 9.76.63 15.09 1.33q3.05.41 7.55.37a3.4 3.09 47.8 0 1 .62.06l6.73 1.23a.55.37 37.5 0 0 .17.01q4.77-.2 7.44.14c5.4.7 9.44.24 14.63 1.41a8.23 7.61-35.1 0 0 1.49.2q17.64.71 19.79 1.12 5.38 1.02 9.96 1.03c4.12 0 6.45.58 10.84.7 2.78.07 5.83.69 8.37 1.21a7.06 6.78 49.2 0 0 1.61.15c4.87-.09 8.39.69 12.99.69q3.35.01 8.26 1.14a8.93 8.67 49.7 0 0 2.28.22q5.71-.2 7.67.12c4.33.7 9.21.15 14.15 1.43a11 10.95-37 0 0 2.46.34q12.03.29 22.01 1.55c3.41.43 7.57.06 10.1.79a6.48 6.24-36.2 0 0 1.7.23q5.62-.05 11 1.29a6.91 6.88 50.7 0 0 2.05.21c4.84-.23 7.9.53 12.9.68q4.06.13 8.96 1.26a2.33 1.94 25.2 0 0 .32.04l18.6.77a4.37 4.3-34.1 0 1 1.3.24q3.03 1.07 6.42 1.02c4.82-.07 9.29.79 13.49.7a7.25 7.08-39.3 0 1 1.6.14q6 1.21 10.25 1.08 3.47-.1 6.74.45 1.24.21 6.77.35a8.52 8.49-38 0 1 1.64.2q5.25 1.17 6.27 1.09 3.27-.26 10.55.52 3.78.4 5.8.28a7.06 6.87 49.5 0 1 2.06.19q4.9 1.2 11.24.96a.53.48 47.9 0 1 .1.01l12.14.94a3.55 2.94-21.7 0 1 .47.07l4.88 1.07a.87.78 48.2 0 0 .18.02q5.74-.22 8.01.12 3.75.56 6.3.54 3.45-.03 8.99 1.05a9.06 8.84 49.5 0 0 1.63.15q10.79-.05 21.51 1.93a7.9 7.78 47.7 0 0 1.97.11q5.06-.37 9.32.7a1.15 1.15 0 0 0 1.22-1.77l-4.17-5.97a5.11 5.1-15 0 0-3.76-2.16l-22.16-1.85a1.29 1.25 30.2 0 0-.77.19l-2.81 1.78a1.48 1.45 27.1 0 1-.7.22c-2.99.15-3.73-.63-5.43-2.43a1.15 1.14-19.6 0 0-.7-.33L193.1 378.91a2.61 2.61 0 0 0-2.41 1.19c-3.08 4.77-7.37 2.97-9.48-1.07-.88-1.68-2.62-1.04-4.19-1.33q-6.24-1.17-11.87-1.53a.46.46 0 0 0-.38.75"/><path fill="#141616" d="M179.83 332.52c.3 14.45 3.72 28.62 10.43 41.84a5.13 5.13 0 0 1-1.47 6.4l-.2.15a3.77 3.77 0 0 1-5.54-1.12c-8.52-14.78-12.25-30.52-12.58-47.08-.34-16.57 2.73-32.44 10.64-47.56a3.77 3.77 0 0 1 5.49-1.34l.21.14a5.13 5.13 0 0 1 1.73 6.33c-6.16 13.48-9 27.78-8.71 42.24m383.01 30.86c.15 11 1.66 21.7 4.89 31.14q.83 2.43 3.67 9.93c1.31 3.45-1.48 8.37-5.67 6.73a1.91 1.86 80.7 0 1-.76-.56q-1.5-1.85-3.05-5.27c-5.99-13.23-8.44-27.05-8.64-41.84s1.88-28.68 7.5-42.07q1.46-3.45 2.91-5.34a1.91 1.86-82.2 0 1 .74-.58c4.15-1.76 7.07 3.08 5.85 6.57q-2.63 7.57-3.39 10.03c-2.98 9.52-4.2 20.25-4.05 31.26"/><path fill="#ed5e24" d="m625.04 419.69 1.56 1.51a1.62 1.62 0 0 0 .88.44q7.81 1.36 14.96-.21.46-.11 6.26-1.73c6.66-1.87 11.84-3.9 22.28-7.77 12.13-4.5 27.69-9.6 39.37-13.8 18.59-6.67 40.01-13.63 55.6-19.24 13.88-5 31.72-10.57 42.85-14.58q34.65-12.47 63.23-21.6a5 4.99 82.4 0 0 3.47-4.55l.01-.11a2.41 2.4 81.8 0 0-3.18-2.38q-63.56 21.71-93.84 32.32-12.88 4.52-14.47 4.95c-3.34.92-6.39 2.51-10 3.77q-4.37 1.54-23 7.79c-3.34 1.12-6.9 2.68-10.46 3.63-4.19 1.13-9.2 3.51-12.52 4.63q-26.45 8.91-49.57 17.14-1.52.54-25.75 8.81-3.33 1.13-4.95.25 3.03-1.1 5.57-1.96 41.28-13.93 86.73-29.79 24.75-8.64 50.42-17.63 17-5.96 98.95-34.49 2.33-.81 5.56-1.01a1.33 1.33 0 0 1 1.41 1.22c.24 2.84-.35 7-3.36 8.26q-3.59 1.5-5.07 1.93-9.67 2.8-41.31 13.9-19.69 6.9-41.2 14.24-66.01 22.53-124.94 43.44c-13.2 4.69-26.52 9.67-39.77 3.95a.39.39 0 0 1 .1-.75z"/><path fill="#c84719" d="M625.04 419.69q1.69-.76 2.73-.73 1.62.88 4.95-.25 24.23-8.27 25.75-8.81 23.12-8.23 49.57-17.14c3.32-1.12 8.33-3.5 12.52-4.63 3.56-.95 7.12-2.51 10.46-3.63q18.63-6.25 23-7.79c3.61-1.26 6.66-2.85 10-3.77q1.59-.43 14.47-4.95 30.28-10.61 93.84-32.32a2.41 2.4 81.8 0 1 3.18 2.38l-.01.11a5 4.99 82.4 0 1-3.47 4.55q-28.58 9.13-63.23 21.6c-11.13 4.01-28.97 9.58-42.85 14.58-15.59 5.61-37.01 12.57-55.6 19.24-11.68 4.2-27.24 9.3-39.37 13.8-10.44 3.87-15.62 5.9-22.28 7.77q-5.8 1.62-6.26 1.73-7.15 1.57-14.96.21a1.62 1.62 0 0 1-.88-.44z"/><path fill="#212426" d="m651.11 552.73-23.08-2.72a.68.68 0 0 1-.59-.57c-.87-5.57-3.66-10.76-5.77-15.89q-2.24-5.46-3.74-17.18c-2.31-18.15-.59-38.44 7.84-54.66q2.55-4.91-2.54-7.39a1.76 1.73-34.7 0 0-.93-.16q-3.41.38-4.96 2.93-5.89 9.67-8 20.45-5.49 28.11 1.51 54.14 1.94 7.22 6.49 16.52a.34.33-14.8 0 1-.29.48c-2.59.11-4.33.26-6.19.08q-68.1-6.57-88.28-8.85-23.26-2.62-34.28-3.64c-20.45-1.89-42.48-4.5-65.17-7.13-7.95-.93-18.2-1.63-26.31-2.46q-51.07-5.24-100.83-10.18c-18.71-1.86-33.72-3.83-53.09-5.23q-8.55-.62-57.57-5.97a.81.81 0 0 1-.6-.4c-4.15-7.2-7.05-13.48-9.05-22.02-4.59-19.64-3.84-41.74 4.92-60.32q.86-1.81.69-5.1a.99.99 0 0 0-.51-.83c-2.47-1.38-5.18-3.05-7.53-.56q-2.03 2.17-2.93 4.26c-11.4 26.39-9.45 57.69 2.27 83.43a.31.31 0 0 1-.33.44c-7.7-1.17-15.97-1.25-24-3.02a1.53 1.53 0 0 1-.86-.52q-5.75-6.82-8.13-16.12-6.51-25.51-.58-50.88c2.95-12.63 8.72-25.66 18.16-34.05 1.7-1.5 4.34-1 6.62-.31q11.36 3.43 17.69 4.29 21.26 2.89 31.97 3.77c31.95 2.6 71.14 6.65 93.97 8.44q21.03 1.66 27.14 2.32c18.18 1.98 29.8 2.46 48.54 4.18q59.44 5.45 129.07 11.59 48.52 4.27 102.3 7.71 21.04 1.35 41.16-5.28c19.72-6.49 45.16-16.29 65.37-23.3q21.78-7.57 60.53-21.51c16-5.76 37.49-12.59 53.41-18.66 18.26-6.95 33.37-12.47 50.13-17.1 3.82-1.06 10.11-1.77 13.44.92a1.09 1.09 0 0 1-.08 1.76q-4.88 3.21-11.6 5.31-16 4.99-36.81 12.22-50.12 17.43-71.83 25.56c-19.75 7.38-39.17 13.2-59.15 20.66-13.85 5.17-25.21 8.64-37.23 12.54-7.08 2.29-14.1 5.27-19.6 10.58-10.12 9.78-16.09 22.37-18.85 35.97q-4 19.72-1.87 39.8 1.76 16.62 10.28 31.15a.34.34 0 0 1-.34.51"/><path fill="#c84719" d="M164.77 376.92a.46.46 0 0 1 .38-.75q5.63.36 11.87 1.53c1.57.29 3.31-.35 4.19 1.33 2.11 4.04 6.4 5.84 9.48 1.07a2.61 2.61 0 0 1 2.41-1.19l369.02 30.82a1.15 1.14-19.6 0 1 .7.33c1.7 1.8 2.44 2.58 5.43 2.43a1.48 1.45 27.1 0 0 .7-.22l2.81-1.78a1.29 1.25 30.2 0 1 .77-.19l22.16 1.85a5.11 5.1-15 0 1 3.76 2.16l4.17 5.97a1.15 1.15 0 0 1-1.22 1.77q-4.26-1.07-9.32-.7a7.9 7.78 47.7 0 1-1.97-.11q-10.72-1.98-21.51-1.93a9.06 8.84 49.5 0 1-1.63-.15q-5.54-1.08-8.99-1.05-2.55.02-6.3-.54-2.27-.34-8.01-.12a.87.78 48.2 0 1-.18-.02l-4.88-1.07a3.55 2.94-21.7 0 0-.47-.07l-12.14-.94a.53.48 47.9 0 0-.1-.01q-6.34.24-11.24-.96a7.06 6.87 49.5 0 0-2.06-.19q-2.02.12-5.8-.28-7.28-.78-10.55-.52-1.02.08-6.27-1.09a8.52 8.49-38 0 0-1.64-.2q-5.53-.14-6.77-.35-3.27-.55-6.74-.45-4.25.13-10.25-1.08a7.25 7.08-39.3 0 0-1.6-.14c-4.2.09-8.67-.77-13.49-.7q-3.39.05-6.42-1.02a4.37 4.3-34.1 0 0-1.3-.24l-18.6-.77a2.33 1.94 25.2 0 1-.32-.04q-4.9-1.13-8.96-1.26c-5-.15-8.06-.91-12.9-.68a6.91 6.88 50.7 0 1-2.05-.21q-5.38-1.34-11-1.29a6.48 6.24-36.2 0 1-1.7-.23c-2.53-.73-6.69-.36-10.1-.79q-9.98-1.26-22.01-1.55a11 10.95-37 0 1-2.46-.34c-4.94-1.28-9.82-.73-14.15-1.43q-1.96-.32-7.67-.12a8.93 8.67 49.7 0 1-2.28-.22q-4.91-1.13-8.26-1.14c-4.6 0-8.12-.78-12.99-.69a7.06 6.78 49.2 0 1-1.61-.15c-2.54-.52-5.59-1.14-8.37-1.21-4.39-.12-6.72-.7-10.84-.7q-4.58-.01-9.96-1.03-2.15-.41-19.79-1.12a8.23 7.61-35.1 0 1-1.49-.2c-5.19-1.17-9.23-.71-14.63-1.41q-2.67-.34-7.44-.14a.55.37 37.5 0 1-.17-.01l-6.73-1.23a3.4 3.09 47.8 0 0-.62-.06q-4.5.04-7.55-.37c-5.33-.7-9.83.07-15.09-1.33a9.01 8.89 52.8 0 0-2.01-.29c-5.69-.14-8.78-.77-14.33-.74q-5.21.02-10.78-1.52c-4.55-1.26-7.41-5.65-10.14-8.93"/><path fill="#f8f0e4" d="M881.41 380.26a.2.2 0 0 1 .26.23q-6.12 26.65-3.4 53.76 1.56 15.56 7.67 30.18a1.05 1.05 0 0 1-.59 1.38q-150.69 59.03-201.29 78.98c-6.93 2.73-14.63 6.1-19.56-.83q-5.02-7.06-6.65-15.33-4.99-25.4 2.55-50.3c3.71-12.24 10.17-23.12 22.66-27.69 60.21-22.03 135.19-48.75 198.35-70.38M659.26 503.58q0-.03-.15-2.15a10.64 10.56 54.1 0 1 .74-4.74q2.5-6.15 5.13-10.96c3.44-6.28 9.11-10.66 15-14.39q3.9-2.47 12.15-5.71 32.74-12.87 35.74-14 20.85-7.88 124.04-45 5.22-1.88 23.55-7.6a1.81 1.73-77.2 0 0 .83-.55q.94-1.12 1.32-3.35 1.23-7.28 1.54-9.9.1-.89.08-.96a1.79 1.78 73.4 0 0-2.32-1.26q-38.24 13.44-63.02 22.14-67.09 23.55-130.16 46.6-10.46 3.83-16 13.24-9.8 16.63-9.23 37.01.02.57.13 1.57a.32.32 0 0 0 .63.01"/><path fill="#dfd5c8" d="M658.63 503.57q-.11-1-.13-1.57-.57-20.38 9.23-37.01 5.54-9.41 16-13.24 63.07-23.05 130.16-46.6 24.78-8.7 63.02-22.14a1.79 1.78 73.4 0 1 2.32 1.26q.02.07-.08.96-.31 2.62-1.54 9.9-.38 2.23-1.32 3.35a1.81 1.73-77.2 0 1-.83.55q-18.33 5.72-23.55 7.6-103.19 37.12-124.04 45-3 1.13-35.74 14-8.25 3.24-12.15 5.71c-5.89 3.73-11.56 8.11-15 14.39q-2.63 4.81-5.13 10.96a10.64 10.56 54.1 0 0-.74 4.74q.15 2.12.15 2.15a.32.32 0 0 1-.63-.01"/><path fill="#212426" d="M674.9 564.16a.43.43 0 0 1 .08-.77q5.87-2.03 12.31-4.6 13.21-5.28 14.09-5.54 4.2-1.22 9.28-3.71.57-.28 6.25-2.34c5.48-2 11.7-4.92 16.33-6.51q5.82-2 10.2-3.86.57-.25 24.58-10.08 1.37-.56 10.59-4.27 3.55-1.43 13.29-5.03 7.96-2.95 13.19-5.23c6.12-2.66 13.27-4.9 20.11-7.82 14.01-5.97 31.71-12.12 46.45-18.41q8.78-3.74 20.59-7.96 3.44-1.22 7-1.16a.78.77-6.3 0 1 .74.59q1.24 5.29-2.97 7.46c-4.35 2.23-10.21 4.21-13.94 5.78-12.99 5.44-22.24 9.53-35.55 14.82q-25.91 10.32-56.92 22.82-11.73 4.73-20.32 7.95c-12.4 4.63-23.61 9.96-35.16 14.12-7.15 2.58-16.5 6.75-25.48 9.86-8.3 2.86-13.64 4.88-21.88 6.28q-6.81 1.17-12.86-2.39"/><path fill="#efb22c" d="M673.59 595.05a.3.3 0 0 1-.37-.46q4.92-6.28 12.61-9.23 22.02-8.45 38.34-15 61.83-24.82 152.17-62.17 6.85-2.83 13.26-5.58a.38.38 0 0 1 .48.54q-.92 1.58-2.5 2.43-7.49 4.03-22.82 10.65-22.74 9.83-43.64 18.42-42.66 17.54-100.98 41.68-15.63 6.48-26.07 10.59c-7.75 3.05-14.09 5.04-20.48 8.13m84.02-36.22q-.41-.08-.49-.07a.27.25-50.6 0 0 .03.51q.26-.03.51-.24a.11.11 0 0 0-.05-.2m-2.353.933a1.09.27-18 0 0-1.12.08 1.09.27-18 0 0-.954.594 1.09.27-18 0 0 1.12-.08 1.09.27-18 0 0 .954-.594m-2.245.888a.7.2-23.5 0 0-.722.096.7.2-23.5 0 0-.562.462.7.2-23.5 0 0 .722-.096.7.2-23.5 0 0 .562-.462m-3.242 1.709q.22.01.63-.34a.21.2 23 0 0-.15-.36q-.18.01-.59.23a.25.25 0 0 0 .11.47m-23.498 9.428a.68.22-16.4 0 0-.714-.019.68.22-16.4 0 0-.59.403.68.22-16.4 0 0 .714.019.68.22-16.4 0 0 .59-.403m-5.052 1.962q-.23.02-.28.12a.09.09 0 0 0 .09.12l.31-.01a.15.1 28.4 0 0-.12-.23m-2.27.94a2.13.27-20.9 0 0-2.086.508 2.13.27-20.9 0 0-1.894 1.012 2.13.27-20.9 0 0 2.086-.508 2.13.27-20.9 0 0 1.894-1.012m-7.965 3.12a.54.21-20.7 0 0-.58-.006.54.21-20.7 0 0-.43.387.54.21-20.7 0 0 .58.005.54.21-20.7 0 0 .43-.387m-3.125 1.54q.18-.01.92-.35a.16.16 0 0 0-.08-.3q-.78.07-.98.2a.25.24 27.9 0 0 .14.45m-1.414.395a.77.24-17 0 0-.806-.005.77.24-17 0 0-.666.455.77.24-17 0 0 .806.004.77.24-17 0 0 .666-.454m-2.432.938a2.77.27-21.1 0 0-2.681.745 2.77.27-21.1 0 0-2.487 1.25 2.77.27-21.1 0 0 2.681-.746 2.77.27-21.1 0 0 2.487-1.25m-39.384.449a.22.22 0 0 1 .13.38c-7.88 7.43-13.79 18.47-17.52 29.39q-10.54 30.79-3.42 63.8 3.37 15.58 13.1 27.64 1.79 2.21 4.01 4.03a.23.23 0 0 1-.18.41q-11.02-1.38-171.26-20.66-23.63-2.84-25.59-3.09-43.25-5.45-244.65-29.5-23.99-2.87-49.53-4.87c-3.58-.28-7.78-1.73-10.92-4.39-12.27-10.41-18.34-26.81-20.18-42.43-2.54-21.58-.74-46.61 11.55-64.9q2.92-4.34 5.43-6.32c4.23-3.32 10.34-2.33 16.4-1.67q265.73 28.89 492.63 52.18m-501.35 12.51c.37 15.77 3.56 31.77 10.79 45.73 1.7 3.27 5.19 5.57 8 2.39 1.26-1.44 1.34-3.97.56-5.56-6.55-13.4-9.36-27.97-9.72-42.79-.35-14.81 1.76-29.5 7.67-43.2.7-1.62.49-4.15-.83-5.53-2.96-3.04-6.34-.57-7.88 2.78-6.55 14.29-8.97 30.41-8.59 46.18m444.8 49.58c.1 16.04 2.69 33.06 9.91 47.03q1.09 2.11 2.61 3.31a3.52 3.2-39.5 0 0 3.74.18c3.85-2.18 2.66-5.77 1.14-9.51-5.37-13.25-7.56-26.58-7.65-41.07s1.94-27.84 7.15-41.16c1.47-3.75 2.61-7.36-1.26-9.49a3.52 3.2 38.8 0 0-3.74.23q-1.51 1.22-2.57 3.34c-7.05 14.06-9.43 31.11-9.33 47.14m40.22 49.41q-10.33 0-19.38-2.87a.6.6 0 0 0-.76.39c-1.06 3.4-4.39 6.42-8.08 4.36q-1.18-.66-3.76-4.26a.95.95 0 0 0-.89-.39c-.7.1-1.29.29-2.13.21q-9.3-.97-20.8-2.42-37.41-4.74-67.47-8.35-55.25-6.63-65.76-7.99-28.09-3.63-59.26-7.23-16.41-1.89-56.26-6.83-4.36-.54-9.98-.87c-7.56-.44-14.08-1.13-24.89-2.55q-64.01-8.37-123.14-14.08a1.79 1.78 21 0 0-1.61.71c-1.86 2.5-3.05 4.72-6.44 3.82-2.6-.69-4.49-3.76-5.97-6.32a.48.46-11.4 0 0-.38-.24l-17.29-1.69a.53.53 0 0 0-.46.86c3.73 4.59 7.79 9.18 14.16 10.04q6.56.88 8.32.92 5.34.15 8.34.6c7.01 1.05 15.39 1.31 23.57 2.38q5.35.7 11.58 1.1c2.39.15 5.47 1.24 7.19 1.28 6.25.16 15.1 2.19 21.02 2.44 6.12.27 11.46 1.5 17.98 2.08q8.61.76 20.06 2.35 9.87 1.36 11.45 1.52 8.32.8 11.47 1.41c3.67.71 8.56.61 12.18 1.29q6.25 1.17 9.09 1.27.57.02 20.71 2.19c6.13.66 11.68 1.78 18.1 2.26 2.7.2 6.42 1.13 8.69 1.25 6.95.38 13.22 1.53 19.67 2.25q14.71 1.63 17.28 1.96 2.45.31 4.77.63 7.34.99 14.67 1.71 4.34.42 6.94.92c5.71 1.11 11.04 1.08 17.34 2.11 5.1.83 10.2.89 15.59 1.82 5.42.93 10.73 1.03 16.83 2.11 3.94.69 8.44.83 12.72 1.6 3.27.59 5.31.99 8.68 1.21q5.78.38 8.87.97 5.11.98 8.84 1.04c3.54.07 9.33 1.28 14.3 1.75 3.09.29 7.43.66 11 1.29 5.88 1.03 11.45 1.2 17.33 2.17 4.71.78 11.34.84 16.75 1.98q2.73.58 6.65.81 2.87.16 9.98 1.18 3.85.54 10.82 1.15c3.59.31 6.78 1.34 9.91 1.49q3.58.17 7.48.72 9.84 1.38 16.95 1.88a5.03 4.94 55 0 1 1.08.2q1.91.58 4.3.79a.53.53 0 0 0 .48-.83l-7.87-11.25a.67.67 0 0 0-.56-.3"/><path fill="#f8f0e4" d="M872.37 529.82a.38.38 0 0 1 .5.44c-2.99 13.42-3.89 28.14-3.47 41.41q.51 15.95 5.66 31.52a.86.84-21.5 0 1-.46 1.04q-110.23 50.2-185.92 84.19c-3.25 1.46-9.57 4.62-13.72 4.54-11.03-.22-16.05-16.63-17.68-25.51q-3.79-20.64 1.54-42.37 1.23-5.02 3.13-8.12 1.22-2 4.12-2.78 13.76-3.71 20.19-6.4c39.75-16.62 82.11-34 122.85-51.27q60.8-25.78 63.26-26.69M658 652.41q1.39-6.94 2.5-9.53c3.72-8.73 12.4-13.34 20.83-16.83q41.02-16.95 70.39-29.19c27.68-11.53 52.97-21.26 76.03-31.42q22.84-10.06 39.47-16.18a2.7 2.68 83.3 0 0 1.74-2.22l1.71-14.51a.43.43 0 0 0-.6-.45q-15.94 6.62-36.93 15.59-48.9 20.87-94.68 39.68c-17.19 7.06-38.5 16.26-56.28 23.3q-5.19 2.05-14.93 4.38c-1.54.37-3.66 1.43-4.4 2.82-2.57 4.82-3.33 11.12-4.66 15.82a3.97 3.82 52 0 0-.13 1.27q.26 4.54-.55 7.31a1.62 1.4-40.9 0 0-.06.42l-.26 9.91a.12.12 0 0 0 .11.12l.26.04a.41.4-81.5 0 0 .44-.33"/><path fill="#dfd5c8" d="M658 652.41a.41.4-81.5 0 1-.44.33l-.26-.04a.12.12 0 0 1-.11-.12l.26-9.91a1.62 1.4-40.9 0 1 .06-.42q.81-2.77.55-7.31a3.97 3.82 52 0 1 .13-1.27c1.33-4.7 2.09-11 4.66-15.82.74-1.39 2.86-2.45 4.4-2.82q9.74-2.33 14.93-4.38c17.78-7.04 39.09-16.24 56.28-23.3q45.78-18.81 94.68-39.68 20.99-8.97 36.93-15.59a.43.43 0 0 1 .6.45l-1.71 14.51a2.7 2.68 83.3 0 1-1.74 2.22q-16.63 6.12-39.47 16.18c-23.06 10.16-48.35 19.89-76.03 31.42q-29.37 12.24-70.39 29.19c-8.43 3.49-17.11 8.1-20.83 16.83q-1.11 2.59-2.5 9.53"/><path fill="#141616" d="M172.91 593.41c.36 14.82 3.17 29.39 9.72 42.79.78 1.59.7 4.12-.56 5.56-2.81 3.18-6.3.88-8-2.39-7.23-13.96-10.42-29.96-10.79-45.73-.38-15.77 2.04-31.89 8.59-46.18 1.54-3.35 4.92-5.82 7.88-2.78 1.32 1.38 1.53 3.91.83 5.53-5.91 13.7-8.02 28.39-7.67 43.2"/><path fill="#d1951a" d="M757.66 559.03q-.25.21-.51.24a.27.25-50.6 0 1-.03-.51q.08-.01.49.07a.11.11 0 0 1 .05.2"/><ellipse fill="#d1951a" rx="1.09" ry=".27" transform="rotate(-18 2145.276 -2100.929)"/><ellipse fill="#d1951a" rx=".7" ry=".2" transform="rotate(-23.5 1724.572 -1528.114)"/><path fill="#d1951a" d="M749.66 561.89q.41-.22.59-.23a.21.2 23 0 1 .15.36q-.41.35-.63.34a.25.25 0 0 1-.11-.47"/><ellipse fill="#d1951a" rx=".68" ry=".22" transform="rotate(-16.4 2347.443 -2231.737)"/><path fill="#c84719" d="m721.34 573.98-.31.01a.09.09 0 0 1-.09-.12q.05-.1.28-.12a.15.1 28.4 0 1 .12.23"/><ellipse fill="#d1951a" rx="2.13" ry=".27" transform="rotate(-20.9 1918.502 -1655.924)"/><ellipse fill="#d1951a" rx=".54" ry=".21" transform="rotate(-20.7 1937.653 -1656.11)"/><path fill="#c84719" d="M707.72 578.9q.2-.13.98-.2a.16.16 0 0 1 .08.3q-.74.34-.92.35a.25.24 27.9 0 1-.14-.45"/><ellipse fill="#c84719" rx=".77" ry=".24" transform="rotate(-17 2293.19 -2071.023)"/><ellipse fill="#d1951a" rx="2.77" ry=".27" transform="rotate(-21.1 1912.34 -1592.276)"/><path fill="#141616" d="M617.83 643.16c.09 14.49 2.28 27.82 7.65 41.07 1.52 3.74 2.71 7.33-1.14 9.51a3.52 3.2-39.5 0 1-3.74-.18q-1.52-1.2-2.61-3.31c-7.22-13.97-9.81-30.99-9.91-47.03-.1-16.03 2.28-33.08 9.33-47.14q1.06-2.12 2.57-3.34a3.52 3.2 38.8 0 1 3.74-.23c3.87 2.13 2.73 5.74 1.26 9.49-5.21 13.32-7.24 26.67-7.15 41.16"/><path fill="#efb22c" d="M680.25 707.95a.39.39 0 0 1 .05-.72c4.41-1.34 8.44-2.41 12.81-4.22q12.15-5.04 27.78-12.26c28.06-12.95 59.72-27 125.42-56.7q16.16-7.31 32.71-15.05 4.14-1.94 11.12-4.36 1.87-.65 3.1-.42a1.97 1.72-73.6 0 1 1.18 2.57q-.83 2.19-2.87 3.52-6.08 3.97-14.71 8.27c-13.34 6.65-26.3 12.28-40.88 19.12q-52.05 24.43-104.37 48.4-18.39 8.42-34.41 13.03-8.83 2.54-16.93-1.18m4.09-.15q4.05 1.78 8.22 1 5.12-.95 11.86-3.17 10.11-3.33 24.06-9.73 15.79-7.24 31.43-14.34 16.4-7.45 102.31-47.33 13.83-6.42 26.22-13.28c1.99-1.09 4.75-2.98 4.45-4.96a.8.8 0 0 0-1.03-.64q-5.98 1.86-11.4 4.36-44.24 20.38-95.63 43.31c-4 1.78-9.09 4.39-13.77 6.35q-5.45 2.29-10.42 4.53-29.9 13.49-48.08 21.92-11.43 5.3-21.34 9.38-3.33 1.36-6.76 1.78a.43.43 0 0 0-.12.82"/><path fill="#d1951a" d="M684.34 707.8a.43.43 0 0 1 .12-.82q3.43-.42 6.76-1.78 9.91-4.08 21.34-9.38 18.18-8.43 48.08-21.92 4.97-2.24 10.42-4.53c4.68-1.96 9.77-4.57 13.77-6.35q51.39-22.93 95.63-43.31 5.42-2.5 11.4-4.36a.8.8 0 0 1 1.03.64c.3 1.98-2.46 3.87-4.45 4.96q-12.39 6.86-26.22 13.28-85.91 39.88-102.31 47.33-15.64 7.1-31.43 14.34-13.95 6.4-24.06 9.73-6.74 2.22-11.86 3.17-4.17.78-8.22-1m-35.48-14.87 7.87 11.25a.53.53 0 0 1-.48.83q-2.39-.21-4.3-.79a5.03 4.94 55 0 0-1.08-.2q-7.11-.5-16.95-1.88-3.9-.55-7.48-.72c-3.13-.15-6.32-1.18-9.91-1.49q-6.97-.61-10.82-1.15-7.11-1.02-9.98-1.18-3.92-.23-6.65-.81c-5.41-1.14-12.04-1.2-16.75-1.98-5.88-.97-11.45-1.14-17.33-2.17-3.57-.63-7.91-1-11-1.29-4.97-.47-10.76-1.68-14.3-1.75q-3.73-.06-8.84-1.04-3.09-.59-8.87-.97c-3.37-.22-5.41-.62-8.68-1.21-4.28-.77-8.78-.91-12.72-1.6-6.1-1.08-11.41-1.18-16.83-2.11-5.39-.93-10.49-.99-15.59-1.82-6.3-1.03-11.63-1-17.34-2.11q-2.6-.5-6.94-.92-7.33-.72-14.67-1.71-2.32-.32-4.77-.63-2.57-.33-17.28-1.96c-6.45-.72-12.72-1.87-19.67-2.25-2.27-.12-5.99-1.05-8.69-1.25-6.42-.48-11.97-1.6-18.1-2.26q-20.14-2.17-20.71-2.19-2.84-.1-9.09-1.27c-3.62-.68-8.51-.58-12.18-1.29q-3.15-.61-11.47-1.41-1.58-.16-11.45-1.52-11.45-1.59-20.06-2.35c-6.52-.58-11.86-1.81-17.98-2.08-5.92-.25-14.77-2.28-21.02-2.44-1.72-.04-4.8-1.13-7.19-1.28q-6.23-.4-11.58-1.1c-8.18-1.07-16.56-1.33-23.57-2.38q-3-.45-8.34-.6-1.76-.04-8.32-.92c-6.37-.86-10.43-5.45-14.16-10.04a.53.53 0 0 1 .46-.86l17.29 1.69a.48.46-11.4 0 1 .38.24c1.48 2.56 3.37 5.63 5.97 6.32 3.39.9 4.58-1.32 6.44-3.82a1.79 1.78 21 0 1 1.61-.71q59.13 5.71 123.14 14.08c10.81 1.42 17.33 2.11 24.89 2.55q5.62.33 9.98.87 39.85 4.94 56.26 6.83 31.17 3.6 59.26 7.23 10.51 1.36 65.76 7.99 30.06 3.61 67.47 8.35 11.5 1.45 20.8 2.42c.84.08 1.43-.11 2.13-.21a.95.95 0 0 1 .89.39q2.58 3.6 3.76 4.26c3.69 2.06 7.02-.96 8.08-4.36a.6.6 0 0 1 .76-.39q9.05 2.87 19.38 2.87a.67.67 0 0 1 .56.3"/><path fill="#133456" d="M690.73 735.75a.53.52-87.7 0 1-.64-.7c3.05-7.83 15.94-12.18 23.24-14.8q2.83-1.01 11.5-4.98c23.94-10.97 40.64-19.14 63.01-29.47q28.38-13.11 54.96-25.62c17.28-8.13 31.45-13.84 47.6-19.76q.15-.06 2.26-.55a1.04 1.04 0 0 1 1.26 1.21q-.4 2.05-2.05 3.02c-3.86 2.27-7.29 4.44-11.79 6.42q-20.23 8.9-23.1 10.23-32.51 15.02-83.96 37.97c-21.96 9.79-46.84 21.56-72.26 33.28q-4.36 2.02-10.03 3.75m-18.65 114.8a.42.42 0 0 1-.35.64q-7.72.08-15.73-.53c-11.73-.9-24.21-2.05-36.27-4.04-9.19-1.52-18.26-2.59-27.88-4q-16.69-2.44-98.72-14.65-17.11-2.55-33.31-4.68-16.28-2.14-33.26-4.98-6.07-1.02-16.65-2.35-8.93-1.13-16.66-2.33-3.38-.53-33.49-4.9-74.09-10.75-77.01-11.17-27.55-3.92-46.84-6.81-10.33-1.55-25.37-3.52-12.13-1.59-25.31-3.7-18.89-3.02-22.1-3.4-8.17-.96-15.31-3.19c-6.13-1.91-9.9-7.02-13.6-12.89q-3.26-5.17-5.93-13.97-3.91-12.87-4.32-27.92c-.59-22.02 3.31-42.05 16.12-60.02a3.19 3.17 18.1 0 1 2.65-1.33c3.69.04 7.28.81 11.35 1.31q17.08 2.09 91.86 10.81 30.69 3.59 91.82 11.24 60.91 7.62 121.98 14.94 51.87 6.2 101.75 11.97c13.95 1.61 29.07 3.75 41.02 5.15q42.22 4.94 74.4 9.08a.83.83 0 0 1 .63 1.2q-1.38 2.69-4.73 8.47c-5.98 10.29-10.01 21.92-12.24 33.8q-4.13 22-1.51 44.69 2.33 20.23 13.01 37.08m-504.29-76.77a4.77 4.77 0 0 0 2.6-6.2q-4.62-11.44-6.09-17.32-1.78-7.13-2.35-15.49-1.1-16.02.4-28.76c.98-8.36 3.33-15.93 6.38-23.26 1.57-3.74 1.66-6.87-1.79-9.14a2.15 2.13-25.4 0 0-.99-.35q-3.5-.36-5.19 2.76-2.73 5.04-4.59 11.68-8.95 31.82-1.23 65.1 1.91 8.27 6.46 18.76a4.57 4.57 0 0 0 5.94 2.4zm476.85 62.77q.22-2.95-.88-5.56c-5.63-13.38-7.36-29.53-6.92-44q.55-18.53 4.44-31.12 1.26-4.07 2.03-5.74c1.59-3.42 3.82-7.65 2.76-10.71-1.25-3.62-6.45-5.21-8.61-.95q-6.95 13.71-9.12 29.31c-2.84 20.46-1.92 43.11 4.7 62.91.97 2.92 3.31 8.53 6.57 8.96q2.85.38 4.68-2.12a1.85 1.83-25.7 0 0 .35-.98"/><path fill="#f8f0e4" d="M876.78 668.58c-2.19 9-3.02 18.89-3.48 30.17q-.67 16.6 2.41 32.82 1.04 5.46 2.81 10.27a1.18 1.18 0 0 1-.59 1.46q-112.69 55.82-181.01 90.15-5.47 2.75-10.89 2.54c-8.99-.35-12.22-18.01-12.72-24.28q-.45-5.74-.56-12.39-.35-22.62 7.64-45.02a.88.87 9.1 0 1 .81-.58c8.12-.05 16.6-4.09 23.33-7.2q76.06-35.05 171.75-78.35a.36.36 0 0 1 .5.41m-2.2 3.14a.89.89 0 0 0-1.25-.94q-18.95 8.75-43.28 19.78-60.64 27.48-125.44 57.29c-6.77 3.11-14.69 6.71-22.32 7.14a1.37 1.35-81.9 0 0-1.21.92q-5.15 14.98-6.22 30a.36.35 60.7 0 0 .67.19c2-3.91 3.96-7.89 7.08-11.08a6.38 6.36 6.4 0 1 1.22-.97q5.8-3.55 10.93-6.06 9.82-4.81 29.38-13.84 33.4-15.43 67.41-31.08c15.11-6.96 32.51-14.36 49.65-22.12q14.34-6.49 28.24-11.8c2.01-.77 2.76-1.85 3.14-3.77q.05-.25 2-13.66"/><path fill="#dfd5c8" d="M874.58 671.72q-1.95 13.41-2 13.66c-.38 1.92-1.13 3-3.14 3.77q-13.9 5.31-28.24 11.8c-17.14 7.76-34.54 15.16-49.65 22.12q-34.01 15.65-67.41 31.08-19.56 9.03-29.38 13.84-5.13 2.51-10.93 6.06a6.38 6.36 6.4 0 0-1.22.97c-3.12 3.19-5.08 7.17-7.08 11.08a.36.35 60.7 0 1-.67-.19q1.07-15.02 6.22-30a1.37 1.35-81.9 0 1 1.21-.92c7.63-.43 15.55-4.03 22.32-7.14q64.8-29.81 125.44-57.29 24.33-11.03 43.28-19.78a.89.89 0 0 1 1.25.94"/><path fill="#141616" d="m167.79 773.78-.45.18a4.57 4.57 0 0 1-5.94-2.4q-4.55-10.49-6.46-18.76-7.72-33.28 1.23-65.1 1.86-6.64 4.59-11.68 1.69-3.12 5.19-2.76a2.15 2.13-25.4 0 1 .99.35c3.45 2.27 3.36 5.4 1.79 9.14-3.05 7.33-5.4 14.9-6.38 23.26q-1.5 12.74-.4 28.76.57 8.36 2.35 15.49 1.47 5.88 6.09 17.32a4.77 4.77 0 0 1-2.6 6.2m476.5 63.75q-1.83 2.5-4.68 2.12c-3.26-.43-5.6-6.04-6.57-8.96-6.62-19.8-7.54-42.45-4.7-62.91q2.17-15.6 9.12-29.31c2.16-4.26 7.36-2.67 8.61.95 1.06 3.06-1.17 7.29-2.76 10.71q-.77 1.67-2.03 5.74-3.89 12.59-4.44 31.12c-.44 14.47 1.29 30.62 6.92 44q1.1 2.61.88 5.56a1.85 1.83-25.7 0 1-.35.98"/><path fill="#133456" d="M689.64 851.5q.94-.19 7.81-2.61 6.81-2.39 18.99-8.73 42.48-22.11 126.33-63.88 17.42-8.67 50.57-24.14a1.98 1.98 0 0 1 2.77 2.19l-.26 1.28a6.41 6.4-8.8 0 1-3.15 4.3q-6.43 3.59-34.97 18.51-66.25 34.64-125.58 64.97c-9.88 5.06-32.08 16.89-42.71 8.97a.48.48 0 0 1 .2-.86"/></symbol></svg>