<svg xmlns="http://www.w3.org/2000/svg"><symbol id="DadJerseySVG" viewBox="0 0 1024 1536"><g fill="none" stroke-width="2"><path stroke="#253042" d="m353.97 444.64-.67-.28a1.07 1.02 43 0 0-.82.01l-21.84 9.45" vector-effect="non-scaling-stroke"/><path stroke="#7f431b" d="m330.64 453.82-15.82 6.62a.87.87 0 0 0-.51.99q2.62 11.62 4 23.07 5.23 43.47 3.33 87.38c-.57 13.19-2.2 27.23-4.27 39.34q-3.08 18.02-9.84 36.82-16.53 46.07-52.4 78.32-6.07 5.46-13.38 9.51a2.53 2.52-14.4 0 0-1.31 2.21v452.43a1.21 1.2 5.2 0 0 .99 1.18l27.3 4.91" vector-effect="non-scaling-stroke"/><path stroke="#253042" d="M268.73 1196.6q1.34.1 2.78.32 34.99 5.33 66 9.65 34.87 4.86 85 7.79 12.47.73 47.68 2.01 82.12 3 164.12-3.76c40.53-3.34 80.8-9 120.93-15.81q.32-.05.56-.33" vector-effect="non-scaling-stroke"/><path stroke="#7f431b" d="M755.8 1196.47q.21-.02.36.03a.7.01 20.2 0 0 .63.22l28.01-5.07a.83.82-87.1 0 0 .65-.59q.38-1.3.38-3.06.03-263.67-.02-449.09a2.75 2.73 15.5 0 0-1.34-2.35q-12.09-7.23-22.26-17.55-19.59-19.87-32.44-43.69c-13.46-24.94-21.38-54.74-23.85-83.11q-2.76-31.78-1.95-54.15.81-22.54 1.35-30.06 1.72-23.96 6.05-46.76a1.1 1.1 0 0 0-.64-1.21q-7.25-3.1-14.51-6.02-1.14-.46-1.27.25" vector-effect="non-scaling-stroke"/><path stroke="#253042" d="M694.95 454.26q-.55-.96-1.07-1.16-10.2-3.81-20.13-8.3a1.53 1.52 50.9 0 0-.93-.1q-.65.14-1.11.07" vector-effect="non-scaling-stroke"/><path stroke="#7f431b" d="M671.71 444.77q.33-.76-.56-1.15-8.32-3.63-15.67-6.48a.73.72-67.4 0 0-.93.39c-21.34 48.54-66.89 86.11-120.24 92.79q-19.43 2.43-40.18.22-29.49-3.14-56.04-18.2-46.03-26.12-67.38-74.69a.77.77 0 0 0-1.05-.38q-7.05 3.48-14.71 6.11c-.6.21-.92.65-.98 1.26" vector-effect="non-scaling-stroke"/><path stroke="#7f5246" d="M671.71 444.77q-.66.18-1.01.95c-13.48 29.47-34.03 55.08-60.55 73.67q-26.65 18.69-58.04 26.49c-17.19 4.27-33.52 4.97-51.15 4.2-40.51-1.76-79.85-20.82-108.28-49.26q-24.03-24.05-38.04-55.64-.14-.32-.67-.54m340.98 9.62q-.18 1.8-1.12 7.01-12.17 67.69-4.92 137.15 3.27 31.37 14.95 62.44c10.95 29.16 28.26 55.32 51.09 75.56q1.11.99 1.11 4.08-.03 312.14-.03 453.5 0 1.25-.23 2.47m-487.07.13-.11-457a3.4 3.4 0 0 1 1.07-2.48q36.69-34.23 53.49-81.46 6.8-19.11 10.42-37.71c4.6-23.62 6.58-48.42 6.33-73.73q-.39-39.86-7.66-81.19-.76-4.32-1.63-9.21m299.472 203.433a37.98 37.98 0 0 0-37.913-38.046l-7.72-.014a37.98 37.98 0 0 0-38.047 37.914l-.064 36.88a37.98 37.98 0 0 0 37.914 38.046l7.72.014a37.98 37.98 0 0 0 38.046-37.914l.064-36.88M415.33 689.35a.48.48 0 0 1 .48-.48h33.34a.48.48 0 0 0 .48-.48v-22.27a.48.48 0 0 0-.48-.48h-33.23a.48.48 0 0 1-.48-.48v-20.88a.48.48 0 0 1 .48-.48h41.55a.48.48 0 0 0 .48-.48v-22.51a.48.48 0 0 0-.48-.48h-66.51a.48.48 0 0 0-.48.48v109.73a.48.48 0 0 0 .48.48h23.89a.48.48 0 0 0 .48-.48v-41.19m56.25-69.02a.51.51 0 0 0-.51.51V730.5a.51.51 0 0 0 .51.51h63.04a.51.51 0 0 0 .51-.51v-23.63a.51.51 0 0 0-.51-.51h-37.83a.51.51 0 0 1-.51-.51v-85.01a.51.51 0 0 0-.51-.51h-24.19m-39.16 345.29.31 12.86c.42 17.48 6.78 31.93 20.25 42.87q14.93 12.11 36.7 12.12 38.18 0 38.76-.01 12.2-.22 19.05-2.02 17.64-4.63 29.59-19.35 12.44-15.35 12.69-35.84.28-23.09-.13-52.42c-.33-23.82-14.69-43.94-37.78-50.14q-6.86-1.85-22.35-1.77-33.62.15-48.58.12a.78.78 0 0 1-.77-.78v-46.48a.56.56 0 0 1 .56-.56h108.13a.94.94 0 0 0 .94-.94v-44.05a.39.39 0 0 0-.39-.39H433.15a.57.56 90 0 0-.56.57v140.61a.37.37 0 0 0 .37.37q55.19-.07 92.56.09c8.17.03 15.47 1.23 15.5 10.78q.09 29.9-.02 45.74-.05 6.06-4.61 8.94-2.64 1.67-8.59 1.72-22.88.19-37.01-.09-7.21-.14-9.68-6.92a3.62 3.49 35.4 0 1-.22-1.17l-.31-13.81a.69.69 0 0 0-.69-.67h-46.86a.61.61 0 0 0-.61.62" vector-effect="non-scaling-stroke"/><path stroke="#7f5246" d="M604.45 658.12a15.06 15.06 0 0 0-15.06-15.06h-1.92a15.06 15.06 0 0 0-15.06 15.06v34.92a15.06 15.06 0 0 0 15.06 15.06h1.92a15.06 15.06 0 0 0 15.06-15.06v-34.92" vector-effect="non-scaling-stroke"/></g><path fill="#242117" d="M728.02 545.59q-.4 32.25 5 62.65 5.37 30.25 18.16 55.37 8.41 16.53 23.21 33.1c3.86 4.32 8.33 7.86 13.29 12.42q1.95 1.79 12.89 8.74c6.17 3.92 9.31 6.84 9.3 14.13q-.05 62.24-.02 463.81 0 7.46-1.45 10.42-2.68 5.45-9.44 7.21-18.65 4.85-40.29 8.72-39.85 7.12-76.9 11.36-18.45 2.12-19.66 2.24-8.84.85-39.61 3.43-9.77.82-12.51.8c-6.07-.05-10.41.96-16.72.96-7.15.01-14.09 1.01-20.69 1.03-10.36.02-21.63.87-32.11.92-20.78.12-42.21.41-63.27-.47q-13.84-.58-21.14-.5-3.93.04-9.59-.56c-5.19-.54-11.59-.08-17.06-.85-5.92-.83-10.59-.42-17.52-1.13q-4.27-.44-10.14-.52c-.95-.01-2.38-.43-3.6-.53q-25.12-2.03-47.24-4.39-1.96-.21-4.71-.73c-2.27-.44-4.79-.01-7.08-.68-2.37-.7-5.02-.55-8.13-.95q-9.6-1.21-22.5-3.04-11.99-1.7-20.18-3.14-6.24-1.11-11.65-1.95-19.69-3.05-48.4-9.43-5.41-1.2-8.15-4.57-3.51-4.3-3.51-10.06.04-433.16-.04-468.15c-.01-5.71 3.11-9.79 7.35-12.34q5.37-3.23 5.75-3.51 26.29-19.44 41.65-46.06 4.6-7.98 9.29-18.82 4.19-9.68 7.11-19.73 6.05-20.85 7.9-39.54 1.17-11.88 1.44-14.49c1.11-10.64.91-22.22 1.63-31.17a.6.6 0 0 0-.6-.65q-21.63 0-54.57.02c-2.2 0-6.03-1.14-8.22-2.39-9.5-5.43-15.08-15.6-14.18-26.62q.8-9.76 5.35-17.75 7.46-13.09 20.91-22.35 7.34-5.05 10.2-6.76 9.29-5.57 22.7-12.06 7.19-3.47 9.99-5a3.22 3.2-6.1 0 0 1.52-1.87c1.9-6.25 5.52-7.61 11.95-10.38q40.77-17.59 66.06-28.74.3-.14 5.01-1.6c3.03-.94 5.3-.2 7.79 1.07q.94.48 1.54-.84a1.05 1.05 0 0 1 .48-.51l115.48-62.96a1.56 1.55 75.3 0 0 .81-1.4q-.19-9.46-.14-33.21.02-8.35 1.74-12.01 2.95-6.28 9.81-9.49 3.69-1.72 9.97-4.57c6.21-2.8 13.81-8.79 17.44-15.2q5.79-10.2 4.32-22.33c-1.41-11.6-11.33-22.96-22.63-26.36q-13.77-4.15-26.24 2.78-10.01 5.55-14.89 17.69a4.99 4.91-32.8 0 0-.34 1.51c-.12 2.1-.76 4.27-.96 6.99q-.32 4.41-1.35 6.86-1.79 4.28-6.59 6.59c-5.28 2.54-10.98 1.27-14.7-3.2q-3.68-4.43-3.23-12.53.86-15.59 9.06-27.89 14.4-21.58 40.23-26.07 7.66-1.33 16.77-.32c3.32.36 5.53 1.09 8.94 1.89 8.39 1.98 16.21 7.02 23.66 14.02q11 10.33 15.59 24.68 1.79 5.59 2.64 11.98c1.18 8.85-.45 18.46-3.41 27.21q-1.82 5.36-4.81 10.08-3.73 5.86-6.51 9.12-4.31 5.05-11.51 9.71-7.38 4.78-16.08 8.2c-1.94.76-1.75 2.3-1.75 4.11q-.04 10.23.07 30.42a1.34 1.33 14.4 0 0 .7 1.17l117.89 63a1.07 1.07 0 0 0 .92.04q3.84-1.59 9.36.72 32.75 13.69 63.87 27.7 3.38 1.52 5.83 2.46 2.81 1.08 5.75 2.68c1.72.93 3.11 2.77 3.82 4.95q.43 1.32 2.1 4.17a1.77 1.73 87.7 0 0 .71.67q4.25 2.17 13.08 6.47 6.35 3.09 18.93 10.24 14.16 8.04 24.97 19.93 7.68 8.44 10.36 20.93 2.61 12.17-2.93 21.78-5.43 9.43-17.52 12.44a4.93 4.69-50.5 0 1-1.15.14h-54.02a.65.65 0 0 0-.65.64m-97.57-112.97a.63.63 0 0 0-.26-.84l-116.81-62.42a.95.93 44.4 0 0-.89 0l-117.28 63.28a.16.15 62.6 0 0-.06.2q5.7 12.44 14.24 23.03 6.38 7.92 9.72 11.52 18.23 19.64 44.86 30.14 11.13 4.39 22.05 6.36 7.51 1.35 10.11 1.71 17.36 2.35 34.69-.05 2.15-.29 10.04-1.74 5.07-.93 9.87-2.44 7.81-2.47 11.28-3.88 26.63-10.84 45.8-31.92 2.02-2.23 7.23-8.63c6.31-7.75 10.79-15.38 15.41-24.32m-276.48 12.02-.67-.28a1.07 1.02 43 0 0-.82.01l-21.84 9.45-15.82 6.62a.87.87 0 0 0-.51.99q2.62 11.62 4 23.07 5.23 43.47 3.33 87.38c-.57 13.19-2.2 27.23-4.27 39.34q-3.08 18.02-9.84 36.82-16.53 46.07-52.4 78.32-6.07 5.46-13.38 9.51a2.53 2.52-14.4 0 0-1.31 2.21v452.43a1.21 1.2 5.2 0 0 .99 1.18l27.3 4.91q1.34.1 2.78.32 34.99 5.33 66 9.65 34.87 4.86 85 7.79 12.47.73 47.68 2.01 82.12 3 164.12-3.76c40.53-3.34 80.8-9 120.93-15.81q.32-.05.56-.33.21-.02.36.03a.7.01 20.2 0 0 .63.22l28.01-5.07a.83.82-87.1 0 0 .65-.59q.38-1.3.38-3.06.03-263.67-.02-449.09a2.75 2.73 15.5 0 0-1.34-2.35q-12.09-7.23-22.26-17.55-19.59-19.87-32.44-43.69c-13.46-24.94-21.38-54.74-23.85-83.11q-2.76-31.78-1.95-54.15.81-22.54 1.35-30.06 1.72-23.96 6.05-46.76a1.1 1.1 0 0 0-.64-1.21q-7.25-3.1-14.51-6.02-1.14-.46-1.27.25-.55-.96-1.07-1.16-10.2-3.81-20.13-8.3a1.53 1.52 50.9 0 0-.93-.1q-.65.14-1.11.07.33-.76-.56-1.15-8.32-3.63-15.67-6.48a.73.72-67.4 0 0-.93.39c-21.34 48.54-66.89 86.11-120.24 92.79q-19.43 2.43-40.18.22-29.49-3.14-56.04-18.2-46.03-26.12-67.38-74.69a.77.77 0 0 0-1.05-.38q-7.05 3.48-14.71 6.11c-.6.21-.92.65-.98 1.26m-55.53 73.95-3.92-38.82a.95.94-2.4 0 0-.93-.85c-1.02-.01-2.18 1.33-3.33 1.85q-14.54 6.51-26.47 14.25c-4.59 2.98-9.43 7.42-12.25 11.03q-3.75 4.79-4.48 11.37a1.42 1.41 3.1 0 0 1.41 1.56h49.61a.36.35-2.9 0 0 .36-.39m480.64.07q.29-4.87-2.16-8.79-3.21-5.15-7.46-8.82-7.66-6.61-17.74-11.99-7.44-3.96-18.78-9.62a.56.56 0 0 0-.81.46q-.3 3.64-1.33 11.21-.78 5.74-.85 8.83-.07 3.31-.88 8.82-.16 1.15-.39 9.69a.54.54 0 0 0 .54.56h49.49a.37.37 0 0 0 .37-.35"/><path fill="#d9641e" d="M671.71 444.77q-.66.18-1.01.95c-13.48 29.47-34.03 55.08-60.55 73.67q-26.65 18.69-58.04 26.49c-17.19 4.27-33.52 4.97-51.15 4.2-40.51-1.76-79.85-20.82-108.28-49.26q-24.03-24.05-38.04-55.64-.14-.32-.67-.54c.06-.61.38-1.05.98-1.26q7.66-2.63 14.71-6.11a.77.77 0 0 1 1.05.38q21.35 48.57 67.38 74.69 26.55 15.06 56.04 18.2 20.75 2.21 40.18-.22c53.35-6.68 98.9-44.25 120.24-92.79a.73.72-67.4 0 1 .93-.39q7.35 2.85 15.67 6.48.89.39.56 1.15"/><path fill="#253f6d" d="M353.97 444.64q.53.22.67.54 14.01 31.59 38.04 55.64c28.43 28.44 67.77 47.5 108.28 49.26 17.63.77 33.96.07 51.15-4.2q31.39-7.8 58.04-26.49c26.52-18.59 47.07-44.2 60.55-73.67q.35-.77 1.01-.95.46.07 1.11-.07a1.53 1.52 50.9 0 1 .93.1q9.93 4.49 20.13 8.3.52.2 1.07 1.16-.18 1.8-1.12 7.01-12.17 67.69-4.92 137.15 3.27 31.37 14.95 62.44c10.95 29.16 28.26 55.32 51.09 75.56q1.11.99 1.11 4.08-.03 312.14-.03 453.5 0 1.25-.23 2.47-.24.28-.56.33c-40.13 6.81-80.4 12.47-120.93 15.81q-82 6.76-164.12 3.76-35.21-1.28-47.68-2.01-50.13-2.93-85-7.79-31.01-4.32-66-9.65-1.44-.22-2.78-.32l-.11-457a3.4 3.4 0 0 1 1.07-2.48q36.69-34.23 53.49-81.46 6.8-19.11 10.42-37.71c4.6-23.62 6.58-48.42 6.33-73.73q-.39-39.86-7.66-81.19-.76-4.32-1.63-9.21l21.84-9.45a1.07 1.02 43 0 1 .82-.01zm276.142 212.613a37.98 37.98 0 0 0-37.913-38.046l-7.72-.014a37.98 37.98 0 0 0-38.047 37.914l-.064 36.88a37.98 37.98 0 0 0 37.914 38.046l7.72.014a37.98 37.98 0 0 0 38.046-37.914zM415.33 689.35a.48.48 0 0 1 .48-.48h33.34a.48.48 0 0 0 .48-.48v-22.27a.48.48 0 0 0-.48-.48h-33.23a.48.48 0 0 1-.48-.48v-20.88a.48.48 0 0 1 .48-.48h41.55a.48.48 0 0 0 .48-.48v-22.51a.48.48 0 0 0-.48-.48h-66.51a.48.48 0 0 0-.48.48v109.73a.48.48 0 0 0 .48.48h23.89a.48.48 0 0 0 .48-.48zm56.25-69.02a.51.51 0 0 0-.51.51V730.5a.51.51 0 0 0 .51.51h63.04a.51.51 0 0 0 .51-.51v-23.63a.51.51 0 0 0-.51-.51h-37.83a.51.51 0 0 1-.51-.51v-85.01a.51.51 0 0 0-.51-.51zm-39.16 345.29.31 12.86c.42 17.48 6.78 31.93 20.25 42.87q14.93 12.11 36.7 12.12 38.18 0 38.76-.01 12.2-.22 19.05-2.02 17.64-4.63 29.59-19.35 12.44-15.35 12.69-35.84.28-23.09-.13-52.42c-.33-23.82-14.69-43.94-37.78-50.14q-6.86-1.85-22.35-1.77-33.62.15-48.58.12a.78.78 0 0 1-.77-.78v-46.48a.56.56 0 0 1 .56-.56h108.13a.94.94 0 0 0 .94-.94v-44.05a.39.39 0 0 0-.39-.39H433.15a.57.56 90 0 0-.56.57v140.61a.37.37 0 0 0 .37.37q55.19-.07 92.56.09c8.17.03 15.47 1.23 15.5 10.78q.09 29.9-.02 45.74-.05 6.06-4.61 8.94-2.64 1.67-8.59 1.72-22.88.19-37.01-.09-7.21-.14-9.68-6.92a3.62 3.49 35.4 0 1-.22-1.17l-.31-13.81a.69.69 0 0 0-.69-.67h-46.86a.61.61 0 0 0-.61.62"/><path fill="#d9641e" d="M755.8 1196.47q.23-1.22.23-2.47 0-141.36.03-453.5 0-3.09-1.11-4.08c-22.83-20.24-40.14-46.4-51.09-75.56q-11.68-31.07-14.95-62.44-7.25-69.46 4.92-137.15.94-5.21 1.12-7.01.13-.71 1.27-.25 7.26 2.92 14.51 6.02a1.1 1.1 0 0 1 .64 1.21q-4.33 22.8-6.05 46.76-.54 7.52-1.35 30.06-.81 22.37 1.95 54.15c2.47 28.37 10.39 58.17 23.85 83.11q12.85 23.82 32.44 43.69 10.17 10.32 22.26 17.55a2.75 2.73 15.5 0 1 1.34 2.35q.05 185.42.02 449.09 0 1.76-.38 3.06a.83.82-87.1 0 1-.65.59l-28.01 5.07a.7.01 20.2 0 1-.63-.22q-.15-.05-.36-.03M330.64 453.82q.87 4.89 1.63 9.21 7.27 41.33 7.66 81.19c.25 25.31-1.73 50.11-6.33 73.73q-3.62 18.6-10.42 37.71-16.8 47.23-53.49 81.46a3.4 3.4 0 0 0-1.07 2.48l.11 457-27.3-4.91a1.21 1.2 5.2 0 1-.99-1.18V738.08a2.53 2.52-14.4 0 1 1.31-2.21q7.31-4.05 13.38-9.51 35.87-32.25 52.4-78.32 6.76-18.8 9.84-36.82c2.07-12.11 3.7-26.15 4.27-39.34q1.9-43.91-3.33-87.38-1.38-11.45-4-23.07a.87.87 0 0 1 .51-.99zm299.408 240.313A37.98 37.98 0 0 1 592 732.047l-7.72-.014a37.98 37.98 0 0 1-37.913-38.046l.064-36.88a37.98 37.98 0 0 1 38.047-37.914l7.72.014a37.98 37.98 0 0 1 37.913 38.046zM604.45 658.12a15.06 15.06 0 0 0-15.06-15.06h-1.92a15.06 15.06 0 0 0-15.06 15.06v34.92a15.06 15.06 0 0 0 15.06 15.06h1.92a15.06 15.06 0 0 0 15.06-15.06zm-189.12 31.23v41.19a.48.48 0 0 1-.48.48h-23.89a.48.48 0 0 1-.48-.48V620.81a.48.48 0 0 1 .48-.48h66.51a.48.48 0 0 1 .48.48v22.51a.48.48 0 0 1-.48.48h-41.55a.48.48 0 0 0-.48.48v20.88a.48.48 0 0 0 .48.48h33.23a.48.48 0 0 1 .48.48v22.27a.48.48 0 0 1-.48.48h-33.34a.48.48 0 0 0-.48.48m56.25-69.02h24.19a.51.51 0 0 1 .51.51v85.01a.51.51 0 0 0 .51.51h37.83a.51.51 0 0 1 .51.51v23.63a.51.51 0 0 1-.51.51h-63.04a.51.51 0 0 1-.51-.51V620.84a.51.51 0 0 1 .51-.51"/><rect width="32.04" height="65.04" x="572.41" y="643.06" fill="#253f6d" rx="15.06"/><path fill="#d9641e" d="M432.42 965.62a.61.61 0 0 1 .61-.62h46.86a.69.69 0 0 1 .69.67l.31 13.81a3.62 3.49 35.4 0 0 .22 1.17q2.47 6.78 9.68 6.92 14.13.28 37.01.09 5.95-.05 8.59-1.72 4.56-2.88 4.61-8.94.11-15.84.02-45.74c-.03-9.55-7.33-10.75-15.5-10.78q-37.37-.16-92.56-.09a.37.37 0 0 1-.37-.37V779.41a.57.56 90 0 1 .56-.57H589.4a.39.39 0 0 1 .39.39v44.05a.94.94 0 0 1-.94.94H480.72a.56.56 0 0 0-.56.56v46.48a.78.78 0 0 0 .77.78q14.96.03 48.58-.12 15.49-.08 22.35 1.77c23.09 6.2 37.45 26.32 37.78 50.14q.41 29.33.13 52.42-.25 20.49-12.69 35.84-11.95 14.72-29.59 19.35-6.85 1.8-19.05 2.02-.58.01-38.76.01-21.77-.01-36.7-12.12c-13.47-10.94-19.83-25.39-20.25-42.87z"/></symbol></svg>