<svg xmlns="http://www.w3.org/2000/svg"><symbol id="DuffelBagSvg" viewBox="0 0 1536 1024"><g fill="none" stroke-width="2"><path stroke="#783c19" d="M820.05 167.14c-9.8-9.12-9.36-28.31-6.33-39.96q1.09-4.21 2.23-8.66a.72.72 0 0 0-.34-.81c-5.53-3.06-12.45-3.57-18.86-3.58L682 113.96c-9.6-.21-17.5.66-23.17 8.34q-3.44 4.66-3.99 13.22c-.71 10.97.6 22.04 8.31 29.25q3.81 3.56 10.09 3.48 25.55-.32 140.76-.24 1.78 0 5.8-.18a.4.4 0 0 0 .25-.69m13.31 232.61 29.75.81a.99.97 9.9 0 0 .94-.65q.51-1.48.87-3.43 3.21-17.09 9.18-45.55 3.83-18.26 9.3-48.95 4.29-24.06 7.05-49.73c3.75-34.8 2.45-75.08-23.21-101.67-7.15-7.42-15.88-12.22-25.39-15.23a.7.7 0 0 0-.91.67v14.38a2.36 2.35-73 0 0 1.03 1.95q11.92 8.12 17.99 21.96 5.85 13.33 6.99 26.46 1.81 20.68-.94 43.73-5.83 48.74-18.18 96.07-6.83 26.19-14.99 58.5a.55.54 8 0 0 .52.68M497.48 389.4a.36.36 0 0 0 .31.51l28.94 1.4a1.03 1.03 0 0 0 1.07-.82q8.49-40.57 20.12-79.64c10.8-36.28 25.29-69.97 45.87-100.55q8.4-12.47 21.41-27.07 12.01-13.47 25.81-22.11a1.68 1.68 0 0 0 .72-1.91q-2.33-7.58-2.86-15.99a.48.48 0 0 0-.72-.38q-18.09 10.31-32.18 23.85-23.91 22.96-40.44 49.06c-15.67 24.75-27.93 50.88-38.05 78.2q-16.45 44.42-29.19 93.33-.23.86-.81 2.12m158.4-64.47q-4.11-20.72-4.96-41.3-2.11-50.81 6.01-99.41a.86.85 27.9 0 0-.24-.76l-6.6-6.6a2.56 2.55-36.2 0 0-2.98-.46c-6.42 3.34-7.12 8.45-9.06 15.86q-3.45 13.14-6.55 31.99c-5.54 33.69-7.53 66.84-4.51 99.42a1.09 1.09 0 0 0 1.05.99l27.45.74a.39.39 0 0 0 .39-.47m245.19-143.85q.14.68 1.18 4.97 1.95 8.05 2.92 18.96.28 3.06.89 3.94c25.98 37.32 43.32 80.31 53.34 124.5a.87.87 0 0 0 .82.68l26.26.71a.29.29 0 0 0 .28-.38c-14.2-41.43-32.23-81.97-56.5-118.22q-12.72-19-28.74-35.39a.26.26 0 0 0-.45.23" vector-effect="non-scaling-stroke"/><path stroke="#1c283c" d="M1104.22 353.54a.35.35 0 0 0-.17-.66q-5.46.26-10.82.09-33.79-1.07-75.98-1.78-8.19-.13-14.49-.28-38.56-.87-49.51-.95c-7.46-.05-19.37-.92-29.01-.93q-13.29-.01-33.22-.89a1.24 1.23 7.2 0 0-1.26.97l-11.37 50.87a.78.78 0 0 0 .67.95c12.4 1.33 14.84 10.25 12.59 20.76q-8.36 39.08-8.75 40.94-1.5 7.11-2.74 9.33c-3.93 7.05-11.41 8.33-19.16 8.11q-36.26-1.03-52.75-1.14-6.04-.05-8.55-1.19-7.41-3.38-6.72-11.98.3-3.79.53-4.75 10.38-43.37 10.85-45.15c2.08-7.84 4.51-12.52 11.8-15.32a2.47 2.45-3.6 0 0 1.51-1.7l13.03-51.58a.53.52-81.8 0 0-.48-.65q-8.86-.42-27.13-.77c-4.33-.09-9.81-.75-13.34-.79q-14.25-.2-24.69-.68c-8.88-.4-17.28-.06-26.24-.64q-8.29-.54-19.66-.75c-31.83-.61-63.47-2.13-95.23-3.13q-2.34-.07-9.94-.37-22.36-.87-57.86-2.47a.99.98 9.2 0 0-1 .72q-7.1 25.87-13.02 52.92a.66.65-78.3 0 0 .51.78c3.77.76 7.57 1.69 9.8 4.9q4.12 5.94 2.61 13.17-4.56 21.87-9.71 44.82c-1.23 5.47-2.36 10.06-6.91 13.33-4.49 3.23-11.8 3.05-18.21 2.92q-30.98-.63-51.74-1.75-10.95-.59-12.53-10.32c-.72-4.45.83-9.64 2.07-14.77q5.65-23.5 9.92-39.05c1.84-6.71 5.02-12.16 12.3-13.97q1.67-.42 2.21-.99a1.67 1.63 71.7 0 0 .43-.88q.4-2.59.93-4.57 7.07-26.7 13.62-48.37a.49.49 0 0 0-.45-.63c-16.82-.36-34.12-1.37-53.12-2.14q-15.51-.63-20.68-.04c-12.34 1.42-22.85 4.37-34.37 9.24-40.7 17.2-65.84 54.87-76.64 96.5q-4.56 17.6-7.46 38.12a.75.75 0 0 0 .7.85q70.28 4.47 139.41 8.25c4.91.27 9.73.86 14.78.89q1.66 0 11.1.51c54.66 2.92 99.63 4.95 143.57 7.4 2.23.13 6.53-.06 9.65.17 9.37.7 17.21.67 24.48 1.13q6.96.45 52.62 2.67.94.04 3.25.09 11.82.24 57.77 2 11.03.42 11.82.48c9 .62 17.5.43 26.39 1.11 7.21.56 13.16.27 21.11.82 10.65.74 23.44.44 34.41 1.15 7.48.49 14.77.19 22.02.77q7.07.58 16.49.67 10.98.12 24.74.95c2.72.17 6.01-.16 9.01-.06q37.77 1.25 88.17 2.29a1.31 1.3-84.6 0 0 1.31-1.09q6.89-40.06 22.55-76.76c9.2-21.57 20.93-40.44 36.34-57.1q12.31-13.3 27.84-20.6m78.58 10.94c3.21 5.35 7.3 10.15 9.01 16.72 3.5 13.41 4.02 30.28-1.51 43.21-5.7 13.32-16.02 25.19-30.76 27.63-2.55.42-3.88.95-4.73 3.32q-4.47 12.46-7.99 26.06a1.51 1.5 18.4 0 0 .89 1.77c2.32.95 5.22 1.67 7.6 2.97 10.03 5.48 18.11 15.47 18.97 27.33.79 10.95-1.52 20.13-9.59 27.19q-4.03 3.51-8.24 4.73c-3.19.92-5.83.65-10 .76a2.61 2.6-77.9 0 0-2.28 1.48q-2.77 5.78-7.2 14.11-15.4 28.94-32.82 55.42-15.35 23.32-30.06 42.69-15.64 20.61-22.4 28.09-12.1 13.4-27.84 29.96c-1.69 1.78-2.85 3.76-2.75 6.08q.82 19.9 3.55 38.92 2.34 16.35 8.12 29.26c6.17 13.78 19.19 24.52 34.25 25.55q1.89.13 17.65.29 8.02.08 17.63-1.01 21.46-2.43 31.45-4.28 37.75-7.02 80.48-21.91c5.62-1.96 12.69-4.06 18.1-7.03 10.35-5.67 18.52-19.13 21.51-30.93q3.21-12.68 4.9-27.87 2.33-21.04 4.06-46.24 1.07-15.54 2.24-46.75c.26-7 .9-14.03.86-20.69q-.22-36.96-1.17-53.8-1.33-23.7-6.62-60.61-1.8-12.54-6.43-30.8c-5.71-22.5-13.17-42.34-24.51-61.76q-7.49-12.82-17.96-22.79-5.94-5.65-16.2-12.82-4.45-3.12-9.49-5.1a.59.59 0 0 0-.72.85" vector-effect="non-scaling-stroke"/><path stroke="#1c283c" d="M1112.24 365.54q-7.29 3.18-13.9 8.8-14.13 12.02-23.89 26.58-6.39 9.54-8.33 13.2-13.86 26.28-20.78 48.45-14.7 47.12-19.1 97.67-2.3 26.4-3.43 52.41a.33.32 63.7 0 0 .59.2q10.5-14.89 19.14-28.55c7.57-11.97 14.63-22.33 21.77-34.78q3.3-5.74 14.57-25.33a.56.56 0 0 0-.31-.81q-7.35-2.55-8.45-10.36c-1.53-10.92 2.89-20.8 9.95-28.62q7.71-8.54 19.35-10.11c4.14-.56 10.1-.32 14.28-.38q4.28-.05 5.62-3.86 5.03-14.32 7.88-21.57a.61.6-65.6 0 0-.28-.76q-16.58-8.46-22.1-26.27-3.92-12.61-2.86-25.18 1.08-12.69 1.45-14.88c1.32-7.66 2.71-11.37 9.11-15.5a.18.18 0 0 0 .07-.23h-.01a.26.26 0 0 0-.34-.12m56.83 5.33a1.24 1.24 0 0 0-1.22-1.18c-11.37-.16-19.94 1.19-34.08 3.57q-2.06.35-2.86 1.48a.96.93-38.2 0 0-.12.89q1.89 4.99 1.98 6.36.23 3.35.29 7.27a1.42 1.42 0 0 0 1.49 1.4q15.27-.65 28.89-6.77c5.37-2.42 5.89-7.78 5.63-13.02" vector-effect="non-scaling-stroke"/><path stroke="#444543" d="m1131.89 435.87.64-7.31a2.53 2.52-63.7 0 0-.65-1.93q-.89-.97-3.54-3.71c-8.27-8.58-9.09-23.47-6.18-34.34a3.09 3.09 0 0 0-.81-2.99q-1.28-1.28-2.79-1.96a2.7 2.69-61.7 0 0-3.36 1.01q-.94 1.44-1.32 4.05c-1.65 11.15-1.26 22.32 3.6 32.86 2.91 6.31 7.47 9.69 13.44 14.72a.59.59 0 0 0 .97-.4m50.04-48.52a.56.56 0 0 0-.96-.44l-4.92 4.92a3.49 3.47-23.7 0 0-1.02 2.6c.4 10.69-.62 21.81-7.38 30.42-1.33 1.7-4.3 3.95-5.73 5.17a1.42 1.38-16.3 0 0-.48.85l-1.4 8.61a.41.41 0 0 0 .57.44q12.72-5.67 17.94-18.35c3.45-8.37 5.04-18.03 3.88-26.99q-.66-5.09-.5-7.23" vector-effect="non-scaling-stroke"/><path stroke="#1c283c" d="M1163.31 397.92c-6.89 1.68-11.54 2.92-16.93 3.68q-9.05 1.28-13.45 2.14a1.1 1.09-7.8 0 0-.88 1.15c.3 4.54 2.71 10.69 4.37 13.86a.62.62 0 0 0 1.12-.06c1.87-4.69 6.03-7.67 11.34-6.28 4.12 1.08 5.72 2.97 8.37 6.05a1.34 1.34 0 0 0 2.21-.26q4.88-9.46 4.37-19.9a.42.41-8 0 0-.52-.38M508.5 419.39a.32.32 0 0 0 .44.06l16.62-12.72a.32.32 0 0 0-.18-.57l-27.37-1.34a.32.32 0 0 0-.27.52l10.76 14.05" vector-effect="non-scaling-stroke"/><path stroke="#783c19" d="M497.66 428.93a.34.34 0 0 0 .06-.48l-14.49-18.92a.34.34 0 0 0-.6.12l-9.4 37.22a.34.34 0 0 0 .54.36l23.89-18.3m20.68.37a.36.36 0 0 0-.07.51l12.97 16.93a.36.36 0 0 0 .64-.14l7.23-32.4a.36.36 0 0 0-.57-.37l-20.2 15.47" vector-effect="non-scaling-stroke"/><path stroke="#1c283c" d="M845.66 428.77a.32.32 0 0 0 .44.05l16.93-12.97a.32.32 0 0 0-.18-.57l-28.83-.78a.32.32 0 0 0-.25.53l11.89 13.74" vector-effect="non-scaling-stroke"/><path stroke="#783c19" d="M834.51 437.59a.34.34 0 0 0 .05-.49l-15.38-17.77a.34.34 0 0 0-.59.15l-7.97 35.64a.34.34 0 0 0 .54.34l23.35-17.87m19.83 2.27 14.56 16.8a.11.11 0 0 0 .19-.05q4.05-18.6 6.35-29.63.16-.8 1.31-4.22a.35.34-78.4 0 0-.3-.46q-.03 0-.1-.01a.17.1-48.6 0 0-.14.05L854.4 439.3a.39.39 0 0 0-.06.56" vector-effect="non-scaling-stroke"/><path stroke="#444543" d="M1152.63 532.84q1.44.33 3.09-.71 5.54-3.49 6.88-10.5c2.23-11.67-4.15-21.73-14.56-26.91q-4.39-2.18-9.89-5.12-4.03-2.16-2.92-6.85 1.03-4.37 2.23-7.78 6.09-17.41 11.19-30.54 1.96-5.04 2.2-11.01a.83.83 0 0 0-.69-.85l-4.77-.78a1.09 1.09 0 0 0-1.21.75c-2.19 7.02-6.21 15.88-8.76 23.33q-1.04 3.04-7.34 20.73c-1.18 3.33-3.19 7.79-6.62 7.91q-10.17.35-17.19 1.04c-12.22 1.22-23.86 11.55-23.14 24.47a1.48 1.46 6.7 0 0 1.07 1.34q1.8.5 3.27.31a1.32 1.32 0 0 0 1.1-.94c2.36-8.06 5.46-14.67 14.72-15.89 4.15-.55 8.46-.78 12.32-.46q6.62.54 12.2-.29a3.25 3.24-33.4 0 1 2.16.44q6.13 3.72 12.84 6.54c9.59 4.04 16.1 10.93 13.87 21.91q-1.08 5.36-2.34 9.34a.41.4-74.7 0 0 .29.52" vector-effect="non-scaling-stroke"/><path stroke="#783c19" d="M507.58 439.22a.35.35 0 0 0-.48-.05l-19.58 14.99a.35.35 0 0 0 .21.63l33.33.9a.35.35 0 0 0 .27-.58l-13.75-15.89m335.93 9.02a.32.32 0 0 0-.44-.05l-20.18 15.45a.32.32 0 0 0 .18.57l34.37.93a.32.32 0 0 0 .25-.53l-14.18-16.37m170.58 76.34q-68.1-1.52-88.1-2.1-63.87-1.86-127.25-4.08-49.98-1.75-100.26-3.79-30.06-1.22-50.7-2.24-6.14-.31-9.74-.46-47.06-2.03-145.04-7.2-54.31-2.87-143.81-8.18-27.72-1.65-45.61-3.41a.86.85-83 0 0-.93.73q-3.38 23.35-4.79 48.4-.86 15.2-1.35 30.14a.73.73 0 0 0 .66.76q10.92 1.11 32.08 2.61c73.64 5.19 147.05 9.66 220.27 12.82q19.45.84 26.48 1.2 130.67 6.71 257.2 10.87 11.62.39 13.1.39c11.32-.01 19.44.66 32.79.97q47.6 1.11 65.38 1.58c18.93.51 44.1.54 62.16 1.19a.49.48 3.1 0 0 .5-.44l7.06-79.65a.11.1 5.4 0 0-.1-.11" vector-effect="non-scaling-stroke"/><path stroke="#1c283c" d="M244.76 675.99a.77.76-66.2 0 0 1.35-.53q-.02-.36-.04-1.14-.82-29.87 9.79-56.26 6.05-15.03 14.2-29.02c3-5.15 6.27-9.35 9.38-13.85q2.07-3 2.16-4.18 1.27-17.1 1.47-27 .14-7.39 1.82-31.44.14-1.92 1.42-10.63a.26.26 0 0 0-.44-.21c-1.69 1.75-3.36 3.19-4.84 5.03q-21.6 26.75-34.27 58.26-8.93 22.24-12.58 44.3-2.73 16.51-1.69 30.49 1.25 16.85 10.4 33.43.81 1.47 1.87 2.75m858.02-170.16q1.86 1.17 4.5 1.44a2.03 2.01 64.5 0 1 .92.33q3.18 2.07 13.17 4.32 5.93 1.34 19.77 6.92a1.8 1.1-7.4 0 0 .21.07l2.69.56a.75.75 0 0 0 .82-1.07q-2.07-4.14-6.67-6.13-7.04-3.05-12.33-6.23a5.69 5.66 60.3 0 0-2.92-.81h-19.98a.33.32-28.6 0 0-.18.6M688.34 790.91a.73.72 7.3 0 0-.78.6l-5.65 34.74a1.42 1.42 0 0 0 1.19 1.63q25.24 3.71 51.65 4.9 13.42.61 26.23-.35 16.88-1.26 18.9-1.37c10.52-.58 22.74-2.81 31.07-4.88q44.97-11.2 86.22-33.03c21.67-11.48 42.67-24.47 62.23-39.31q12.54-9.51 15.1-11.59 29.88-24.18 55.04-52.02c7.56-8.37 13.94-16.63 20.5-24.19q7.09-8.18 14.68-18.7c16.08-22.27 30.45-42.84 44.56-66.69 12.39-20.97 17.6-28.62 24.66-43.47a2.65 2.64-53.1 0 0-.4-2.87q-.22-.25-1.89-1.22-5.5-3.2-10.71-6.18c-7.02-4-13.07-6.3-20.49-8.73a1.89 1.89 0 0 0-2.27.94q-5.4 10.68-9.78 18.06c-6.4 10.79-13.88 25.08-21.6 36.85-5.51 8.41-11.43 18.88-18.29 29.15q-17.51 26.19-36.42 50.17-5.47 6.92-11.57 13.68-21.47 23.76-42.02 41.45-22.24 19.15-29.18 23.85-19.87 13.47-26.27 17.25-16.19 9.55-35.59 18.16c-18.72 8.29-37.29 13.59-55.95 18.03q-10.84 2.58-26.76 4.31-14.75 1.61-19.75 1.89-38.13 2.18-76.66-1.06" vector-effect="non-scaling-stroke"/><path stroke="#1c283c" d="M1006.42 620.47q-39.94-.84-81.74-2.31-.77-.02-10.68-.23-6.46-.13-62.25-1.69-6.17-.17-8.82-.15c-10.45.07-21.4-.8-30.76-.93-9.2-.13-17.74-.75-25.4-.85q-10.83-.13-19.03-.44-38.8-1.44-110.91-4.85-11.39-.54-31.18-1.29-21.26-.79-31.16-1.27-17.11-.83-27.23-1.39-48.59-2.67-111.41-5.98c-22.93-1.21-42.1-2.63-65.34-3.7q-2.58-.12-10.7-.67-22.52-1.51-53.68-3.25-6.91-.38-14.24-1.1-2.39-.24-14.25-.93a.52.51-86.7 0 0-.54.49q-1.02 19.44-1.08 23.07-.58 40.94.21 60.73 1 24.93 2.97 44.4.2 1.93 2.01 2.94 16.01 8.88 33.99 14.99 25.63 8.71 57.15 14.38 2.53.45 3.85.47a1.21 1.2 10.8 0 0 1.14-.77q9.61-24.8 34.56-29.41 6.2-1.14 20.82-.21 13.26.84 35.75 1.62c3.5.12 8.66.82 12.88.65q2.31-.09 9.66.48 3.83.3 16.24.76 35.23 1.32 77 3.73 4.34.25 4.49.25 21.54.84 40.24 2.36 12.06.98 21.33 7.08 19.63 12.92 19.29 36.99a.82.82 0 0 0 .75.84q31.97 2.82 64.89 1.87 35.6-1.03 69.47-10.51c55.12-15.43 104.18-47.38 144.13-87.8q12-12.14 24.52-26.73 7.48-8.7 11.94-15.3 1.39-2.04 1.48-4.55.22-6.26.15-11.27a.52.52 0 0 0-.51-.52" vector-effect="non-scaling-stroke"/><path stroke="#1c283c" d="M239.2 690.41q4.06 16.08 9.9 27.04 6.39 12.01 10.94 18.53 19.88 28.51 51.41 43.33 22.24 10.47 44.32 15.6 15.52 3.61 31.11 5.91a.87.86 8.4 0 0 .98-.72l5.38-33.02a.9.9 0 0 0-.73-1.03q-25.13-4.51-50.34-11.8-11.62-3.35-20.69-7.19c-13.53-5.72-25.61-10.35-36.73-17.57q-23.6-15.33-42.91-36.25a1.46.68 34 0 1-.11-.14l-1.79-2.99a.41.4 22.7 0 0-.74.3m795.49 127.36a.33.33 0 0 0 .09-.58c-10.22-7.03-16.58-18.71-19.62-30.28q-6.78-25.89-7.17-52.76a.54.54 0 0 0-.89-.4q-4.75 4.16-17.42 14.99-10.2 8.71-18.08 14.17-1.89 1.31-14.85 10.81-5.73 4.2-15.15 10.34-21.41 13.94-41.74 24.83a.53.52-41.3 0 0-.06.89q.33.23 1.2.28c8.03.48 15.37.49 23.74 1.05q15.55 1.03 31 1.95 26.17 1.56 45.26 2.6 8.1.44 10.18.63c8.04.72 16.07 1.02 21.57 1.71q.85.11 1.94-.23" vector-effect="non-scaling-stroke"/><path stroke="#783c19" d="M639.29 746.01a.57.57 0 0 0-.54-.66l-193.06-9.37a.57.57 0 0 0-.59.48l-15.64 96.02a.57.57 0 0 0 .54.66l192.97 9.94a.57.57 0 0 0 .59-.47l15.73-96.6m-208.91-8.41a.37.36-5.3 0 0-.49-.4q-12.57 4.57-17.81 15.47-1.57 3.26-4.2 19.44-.39 2.38-5.13 29.89c-1.3 7.52-2.63 15.02 2.37 21.38q3.71 4.74 9.15 7.37a.72.72 0 0 0 1.03-.53l15.08-92.62m209.04 106.47c11.09-.06 19.84-4.99 25.14-14.56q1.97-3.55 3.49-14.11 1.1-7.61 6.36-39.86 2.11-12.96-7.08-21.87-5.2-5.04-12.45-6.64a.29.29 0 0 0-.35.24l-15.66 96.16a.56.55 4.4 0 0 .55.64" vector-effect="non-scaling-stroke"/><path stroke="#ca581c" d="M658.82 153.94a.59.59 0 0 0-.56.78q1.6 4.71 5.22 8.6c2.7 2.88 5.84 3.67 9.78 3.62 37.38-.49 100.9.08 143.6-.27a.46.45 72.5 0 0 .37-.72q-3.61-5.07-5.4-11.56a.63.62-8 0 0-.6-.45H658.82m-84.83 86.38a.47.47 0 0 0 .83-.01q8.59-16.58 17.64-29.97c1.46-2.15 3.23-4.2 4.84-6.73q1.09-1.69 3.85-4.89.32-.37 3.18-4.26 1.88-2.57 3.28-4.14 3.98-4.5 6.22-6.99 7.32-8.13 15.55-15.21c3.33-2.86 7.03-5.19 10.32-7.38a1.9 1.9 0 0 0 .74-2.21q-2.21-6.29-2.1-12.7a1.18 1.18 0 0 0-1.79-1.03q-10.92 6.64-13.85 8.88-4.75 3.65-7.53 6.07-29.18 25.45-49.66 58.05a1.46 1.45 53.6 0 0-.17 1.16q3.29 11.76 8.65 21.36m74.03-63.16c-6.68 3.3-6.56 7.9-8.39 13.56q-.95 2.93-1.75 6.5-5.77 25.88-8.74 52.84-.27 2.45-.27 3.39c0 2.93-.88 5.71-.91 8.49-.09 7.18-1.51 14.78-1.2 22.43q.22 5.21.16 22.87-.01 3.97.68 7.5.58 3 .26 7.38a.92.92 0 0 0 .87 1l24.61 1.19a1.2 1.19-4.8 0 0 1.23-1.45q-3.22-14.2-4.32-29.31c-.2-2.79-.1-5.93-.45-8.79q-.62-5.05-.62-6.56-.06-15.35.12-28.7c.07-4.94.71-10.12.91-14.77q.78-18.53 3.91-36.91.69-4.06.64-5.64a3.54 3.45 55.1 0 1 .22-1.33q.62-1.62.96-6.22a1.28 1.27 24.9 0 0-.36-.98l-6.28-6.27a1.11 1.11 0 0 0-1.28-.22M904.33 186a.39.39 0 0 0-.61.37l3.13 21.23a3.32 3.27 25.4 0 0 .43 1.18q1.27 2.11 1.81 2.9 8.77 13.05 14.11 22.62 17.38 31.17 28.11 65.16 4.74 15.01 8.45 29.33.3 1.18.24 1.94c-.17 2.14 1.52 2.44 3.48 2.41q8.93-.14 20.07.29a1.14 1.14 0 0 0 1.12-1.52q-5.66-15.83-8.67-23.28-2.51-6.22-4.95-12.49-2.45-6.3-5.05-11.96-8.69-18.87-17.45-35.81c-4.89-9.46-12.33-21.57-16.69-28.13q-9.63-14.49-22.75-29.97-1.93-2.28-4.78-4.27M428.87 739.58a.35.34-6.5 0 0-.47-.37q-8.5 3.22-13.33 10.58c-2.22 3.38-3.66 8.63-4.33 12.47q-4.36 24.9-7.83 45.74-2.42 14.58 10.67 20.91a.57.57 0 0 0 .81-.42l14.48-88.91m212.69 103.11q9.57-.3 16.58-6.58 4.86-4.36 6.81-10.86.48-1.63.95-4.46 5.64-34.06 6.17-38.3c.76-6.05 1.87-11.33.75-17.95q-.39-2.28-2.72-5.73-5.03-7.47-13.54-10.23a1.03 1.03 0 0 0-1.34.84q-2.37 16.83-5.34 33.76-2.26 12.87-7.38 46.57-.22 1.44-1.62 8.87-.03.17.02 3.44a.64.64 0 0 0 .66.63" vector-effect="non-scaling-stroke"/></g><path fill="#151611" d="M502.06 318.45c10.54-31.95 23.09-63.09 38.94-91.96q14.55-26.5 32.87-48.62 11.6-13.99 27.13-28.18c3.77-3.44 8.69-6.98 12.05-9.64q12.66-10 26.83-16.24a1.63 1.61 89.7 0 0 .83-.85q4.71-11.23 13.6-16.97 8.71-5.63 17.51-6.63 4.95-.56 16.43-.57 56.51-.07 113 .02 6.65.01 11.75 1.19 15.44 3.55 23.69 16.71a2.86 2.84-9.6 0 0 1.79 1.26q13.47 2.98 25.49 10.1 11.72 6.96 23.2 19.95a4.48 4.32 86.7 0 0 .66.61c22.58 16.52 41.67 38.01 57.09 61.19 4.35 6.56 10.43 16.25 14.9 24.34q26.26 47.5 42.39 99.61a1.28 1.28 0 0 0 1.18.9q45.72 1.23 68.88 1.63 1.51.03 3.25.08 34.66 1.09 68.59 1.75 2.83.06 5.24.5c3.12.57 6.42.04 9.49 1.04q1.41.46 3.82.44a3.75 3.62 50.4 0 1 .97.11c4.55 1.11 8.67 1.9 12.95 3.35q30.4 10.25 50.93 34.97 9.83 11.85 17.91 26.57 9.46 17.23 17.82 44.13 5.82 18.72 8.7 35.27 3.28 18.8 4.98 33.24 1.06 8.91 2.1 21.34.93 10.99 1.28 21.39 2.02 60.49-1.69 113.23-.72 10.15-.69 10.85c.17 4.18-1 8.09-.9 12.2.11 4.28-1.11 9.4-1.12 14.24a9.38 9.18-38.9 0 1-.23 1.96c-.75 3.27-.52 6.83-1.1 9.66q-.16.76-1.23 9.06-2.58 20.02-8.64 35.29-6.81 17.13-20.99 27.46-8 5.82-20.7 10.05-2.13.7-22.82 7.38-14.48 4.67-22.98 6.92-19.33 5.09-38.21 8.7-11.85 2.26-23.09 3.56-1.75.2-4.18.69c-2.32.47-4.76.09-7.24.68-3.77.89-8.81.43-12.82 1.08q-3.13.51-10.92.53-37.08.06-42.25-.31-12.04-.87-14.98-.77-4.42.14-10.02-.57c-4.36-.56-11.03-.06-16.44-.91q-2.54-.41-6.45-.39-3.68.01-9.15-.74c-3.71-.51-7.57-.26-12.26-.68q-15.95-1.44-26.34-1.87c-1.99-.09-3.94-.73-5.85-.71q-6.95.06-11.43-.59c-3.86-.56-7.91-.26-10.82-.72q-5.69-.88-8.56-.82-5.45.1-8.58-.61-.74-.17-6.34-.33-2.98-.08-6.29-.5-6.35-.8-13.84-.51a6.13 5.93-54.5 0 0-1.53.28c-6.41 2.07-12.91 5.1-19.32 7.34q-2.49.87-11.17 3.75-24.68 8.19-50.77 11.42c-2.91.36-5.62.12-8.08.92a5.07 5.04-52.8 0 1-1.72.24c-3.72-.14-7.62.76-11.72.96q-21.44 1.04-42.39.12-5.06-.22-5.39-.27c-4.4-.7-6.85-.43-10.76-1.27-3.29-.7-6.54-.09-9.93-1q-1.53-.4-4.34-.56a4.66 4.62 56.6 0 1-1.34-.28q-2.22-.81-5.74-.74a1.92 1.69 48.7 0 1-.46-.06l-11.21-2.76a.77.76-66.6 0 0-.84.34c-5.18 8.13-12.55 13.54-21.99 15.95q-5.63 1.43-10.21 1.69-2.43.13-10.15-.04-5.55-.13-10.14-.59c-7.34-.75-13.91-.2-21.78-1-6.54-.67-13.29-.08-19.53-.97q-3.53-.51-9.1-.47-5.7.05-12.47-.69c-5.3-.58-11.07-.06-16.68-.85-6.15-.86-14.91-.26-22.12-1.08q-4.05-.46-11.01-.45c-4.08 0-7.83-.93-11.68-.9q-6.55.04-10.42-.29-9.36-.79-11.33-.76c-5.15.08-10.04-.88-15.12-.92q-9.15-.08-13.98-.74c-4.6-.63-11.23.13-14.99-.59q-3.37-.64-7.25-.71c-3.45-.06-5.02-.76-8.21-1.07q-.54-.05-3.22-.77-13.82-3.67-21.69-15.81-3.87-5.96-4.44-12.69a1.67 1.67 0 0 0-1.56-1.53q-2.47-.17-2.87-.22-34.38-4.26-67.78-17.88-1.99-.82-10.84-5.14-5.57-2.72-10.55-5.69-15.42-9.2-28.53-21.73-4.51-4.31-13.82-16.28-12.65-16.28-20.9-38.11-15.1-39.95-12.94-83.26.2-4.05.5-6.16.42-3 .44-6.2a4.89 4.87 53 0 1 .16-1.16c.69-2.7.69-5.24 1.12-7.73q2.97-17.36 7.99-33.25.92-2.92 4.57-12.56 3.04-8.03 4.99-12.38 14.47-32.29 39.16-59.81 5.47-6.1 12.24-11.69a3.45 3.45 0 0 0 1.22-2.2q2.8-21.22 8.45-42.45c6.03-22.66 16.4-44.92 30.75-63.11q31.94-40.47 85.02-51.1 6.74-1.35 14.75-1.88 9.51-.63 24.43.38c9.08.62 14.09.36 23.32.94q18.89 1.17 24.87 1.61a.92.91 10.9 0 0 .94-.63m317.99-151.31c-9.8-9.12-9.36-28.31-6.33-39.96q1.09-4.21 2.23-8.66a.72.72 0 0 0-.34-.81c-5.53-3.06-12.45-3.57-18.86-3.58L682 113.96c-9.6-.21-17.5.66-23.17 8.34q-3.44 4.66-3.99 13.22c-.71 10.97.6 22.04 8.31 29.25q3.81 3.56 10.09 3.48 25.55-.32 140.76-.24 1.78 0 5.8-.18a.4.4 0 0 0 .25-.69m13.31 232.61 29.75.81a.99.97 9.9 0 0 .94-.65q.51-1.48.87-3.43 3.21-17.09 9.18-45.55 3.83-18.26 9.3-48.95 4.29-24.06 7.05-49.73c3.75-34.8 2.45-75.08-23.21-101.67-7.15-7.42-15.88-12.22-25.39-15.23a.7.7 0 0 0-.91.67v14.38a2.36 2.35-73 0 0 1.03 1.95q11.92 8.12 17.99 21.96 5.85 13.33 6.99 26.46 1.81 20.68-.94 43.73-5.83 48.74-18.18 96.07-6.83 26.19-14.99 58.5a.55.54 8 0 0 .52.68M497.48 389.4a.36.36 0 0 0 .31.51l28.94 1.4a1.03 1.03 0 0 0 1.07-.82q8.49-40.57 20.12-79.64c10.8-36.28 25.29-69.97 45.87-100.55q8.4-12.47 21.41-27.07 12.01-13.47 25.81-22.11a1.68 1.68 0 0 0 .72-1.91q-2.33-7.58-2.86-15.99a.48.48 0 0 0-.72-.38q-18.09 10.31-32.18 23.85-23.91 22.96-40.44 49.06c-15.67 24.75-27.93 50.88-38.05 78.2q-16.45 44.42-29.19 93.33-.23.86-.81 2.12m173.88-64.68a.98.98 0 0 0 .9.81q10.87.64 21.49.62.81 0 3.02.5a7.78 7.25-36.4 0 0 1.55.18q18.86.07 33.54.89c7.38.4 16.13.12 23.64.55q17.51.99 30.48.8c2.79-.04 7.01.88 10.41.88q13.77.02 16.61.29 11.18 1.09 21.59.69a.73.73 0 0 0 .68-.56q8.68-38.31 14.06-75.45.17-1.2.87-7.63.44-4.02.83-7.61.9-8.07.97-11.44c.1-5.39.99-9.78.66-15.31q-.53-9.02-1.15-12.51-.74-4.2-1.84-8.87-.89-3.77-3.51-9.94-1.15-2.73-2.95-5.07-1.33-1.74-3.03-.65c-3.58 2.27-6.9 4.94-10.21 5.86q-4.09 1.14-5.24 1.18-4.97.13-9.48.12-22.86-.06-142.46.1a.48.48 0 0 0-.48.42q-1.18 9.44-1.95 14c-.47 2.85-.3 5.79-1.06 8.71a7.3 7.05-38.8 0 0-.22 1.76q-.01 3.48-.45 5.5c-.86 3.96-.39 8.14-1.33 11.78a7.44 7.28 52.8 0 0-.25 1.98c.02 7.89-1.08 15.37-1.1 23.31q-.03 11.49 0 23.51.01 4.6.54 8.73c.6 4.67.19 8.99 1.05 13.67q.45 2.48.48 4.96c.04 3.1.77 4.96.99 8.32q.1 1.46.92 6.28.01.07 1.43 8.64m-15.48.21q-4.11-20.72-4.96-41.3-2.11-50.81 6.01-99.41a.86.85 27.9 0 0-.24-.76l-6.6-6.6a2.56 2.55-36.2 0 0-2.98-.46c-6.42 3.34-7.12 8.45-9.06 15.86q-3.45 13.14-6.55 31.99c-5.54 33.69-7.53 66.84-4.51 99.42a1.09 1.09 0 0 0 1.05.99l27.45.74a.39.39 0 0 0 .39-.47m245.19-143.85q.14.68 1.18 4.97 1.95 8.05 2.92 18.96.28 3.06.89 3.94c25.98 37.32 43.32 80.31 53.34 124.5a.87.87 0 0 0 .82.68l26.26.71a.29.29 0 0 0 .28-.38c-14.2-41.43-32.23-81.97-56.5-118.22q-12.72-19-28.74-35.39a.26.26 0 0 0-.45.23m-279.8 17.03q-10.84 12.96-19.58 27.31-14.64 24.02-25.65 51.1-9.31 22.91-16.11 45.95a.37.37 0 0 0 .36.47q17.97-.22 28.57.56 6.84.51 11.33.5 7.27-.02 11.21.66a.57.56 88.9 0 0 .65-.68q-.63-2.83-.89-5.23c-1.7-15.14-1.23-32.38-.23-49.16q.51-8.59 1.17-14.14 1.87-15.57 2.33-18.68.22-1.51.43-3.3 1.98-17.07 6.2-33.19.32-1.23.73-1.84a.27.26-54.7 0 0-.06-.36l-.01-.01a.33.32 39.2 0 0-.45.04M906.25 237c-.34 3.79-.18 7.43-.58 12q-3.57 41.23-12.41 82.9a.74.74 0 0 0 .7.89l49.36 1.33a.77.76-7 0 0 .76-.97q-2.34-8.33-5.48-19.02-5.68-19.38-14.02-39.51-4.31-10.38-8.6-19-2.1-4.21-9.18-18.73a.29.29 0 0 0-.55.11m197.97 116.54a.35.35 0 0 0-.17-.66q-5.46.26-10.82.09-33.79-1.07-75.98-1.78-8.19-.13-14.49-.28-38.56-.87-49.51-.95c-7.46-.05-19.37-.92-29.01-.93q-13.29-.01-33.22-.89a1.24 1.23 7.2 0 0-1.26.97l-11.37 50.87a.78.78 0 0 0 .67.95c12.4 1.33 14.84 10.25 12.59 20.76q-8.36 39.08-8.75 40.94-1.5 7.11-2.74 9.33c-3.93 7.05-11.41 8.33-19.16 8.11q-36.26-1.03-52.75-1.14-6.04-.05-8.55-1.19-7.41-3.38-6.72-11.98.3-3.79.53-4.75 10.38-43.37 10.85-45.15c2.08-7.84 4.51-12.52 11.8-15.32a2.47 2.45-3.6 0 0 1.51-1.7l13.03-51.58a.53.52-81.8 0 0-.48-.65q-8.86-.42-27.13-.77c-4.33-.09-9.81-.75-13.34-.79q-14.25-.2-24.69-.68c-8.88-.4-17.28-.06-26.24-.64q-8.29-.54-19.66-.75c-31.83-.61-63.47-2.13-95.23-3.13q-2.34-.07-9.94-.37-22.36-.87-57.86-2.47a.99.98 9.2 0 0-1 .72q-7.1 25.87-13.02 52.92a.66.65-78.3 0 0 .51.78c3.77.76 7.57 1.69 9.8 4.9q4.12 5.94 2.61 13.17-4.56 21.87-9.71 44.82c-1.23 5.47-2.36 10.06-6.91 13.33-4.49 3.23-11.8 3.05-18.21 2.92q-30.98-.63-51.74-1.75-10.95-.59-12.53-10.32c-.72-4.45.83-9.64 2.07-14.77q5.65-23.5 9.92-39.05c1.84-6.71 5.02-12.16 12.3-13.97q1.67-.42 2.21-.99a1.67 1.63 71.7 0 0 .43-.88q.4-2.59.93-4.57 7.07-26.7 13.62-48.37a.49.49 0 0 0-.45-.63c-16.82-.36-34.12-1.37-53.12-2.14q-15.51-.63-20.68-.04c-12.34 1.42-22.85 4.37-34.37 9.24-40.7 17.2-65.84 54.87-76.64 96.5q-4.56 17.6-7.46 38.12a.75.75 0 0 0 .7.85q70.28 4.47 139.41 8.25c4.91.27 9.73.86 14.78.89q1.66 0 11.1.51c54.66 2.92 99.63 4.95 143.57 7.4 2.23.13 6.53-.06 9.65.17 9.37.7 17.21.67 24.48 1.13q6.96.45 52.62 2.67.94.04 3.25.09 11.82.24 57.77 2 11.03.42 11.82.48c9 .62 17.5.43 26.39 1.11 7.21.56 13.16.27 21.11.82 10.65.74 23.44.44 34.41 1.15 7.48.49 14.77.19 22.02.77q7.07.58 16.49.67 10.98.12 24.74.95c2.72.17 6.01-.16 9.01-.06q37.77 1.25 88.17 2.29a1.31 1.3-84.6 0 0 1.31-1.09q6.89-40.06 22.55-76.76c9.2-21.57 20.93-40.44 36.34-57.1q12.31-13.3 27.84-20.6m78.58 10.94c3.21 5.35 7.3 10.15 9.01 16.72 3.5 13.41 4.02 30.28-1.51 43.21-5.7 13.32-16.02 25.19-30.76 27.63-2.55.42-3.88.95-4.73 3.32q-4.47 12.46-7.99 26.06a1.51 1.5 18.4 0 0 .89 1.77c2.32.95 5.22 1.67 7.6 2.97 10.03 5.48 18.11 15.47 18.97 27.33.79 10.95-1.52 20.13-9.59 27.19q-4.03 3.51-8.24 4.73c-3.19.92-5.83.65-10 .76a2.61 2.6-77.9 0 0-2.28 1.48q-2.77 5.78-7.2 14.11-15.4 28.94-32.82 55.42-15.35 23.32-30.06 42.69-15.64 20.61-22.4 28.09-12.1 13.4-27.84 29.96c-1.69 1.78-2.85 3.76-2.75 6.08q.82 19.9 3.55 38.92 2.34 16.35 8.12 29.26c6.17 13.78 19.19 24.52 34.25 25.55q1.89.13 17.65.29 8.02.08 17.63-1.01 21.46-2.43 31.45-4.28 37.75-7.02 80.48-21.91c5.62-1.96 12.69-4.06 18.1-7.03 10.35-5.67 18.52-19.13 21.51-30.93q3.21-12.68 4.9-27.87 2.33-21.04 4.06-46.24 1.07-15.54 2.24-46.75c.26-7 .9-14.03.86-20.69q-.22-36.96-1.17-53.8-1.33-23.7-6.62-60.61-1.8-12.54-6.43-30.8c-5.71-22.5-13.17-42.34-24.51-61.76q-7.49-12.82-17.96-22.79-5.94-5.65-16.2-12.82-4.45-3.12-9.49-5.1a.59.59 0 0 0-.72.85m-70.56 1.06q-7.29 3.18-13.9 8.8-14.13 12.02-23.89 26.58-6.39 9.54-8.33 13.2-13.86 26.28-20.78 48.45-14.7 47.12-19.1 97.67-2.3 26.4-3.43 52.41a.33.32 63.7 0 0 .59.2q10.5-14.89 19.14-28.55c7.57-11.97 14.63-22.33 21.77-34.78q3.3-5.74 14.57-25.33a.56.56 0 0 0-.31-.81q-7.35-2.55-8.45-10.36c-1.53-10.92 2.89-20.8 9.95-28.62q7.71-8.54 19.35-10.11c4.14-.56 10.1-.32 14.28-.38q4.28-.05 5.62-3.86 5.03-14.32 7.88-21.57a.61.6-65.6 0 0-.28-.76q-16.58-8.46-22.1-26.27-3.92-12.61-2.86-25.18 1.08-12.69 1.45-14.88c1.32-7.66 2.71-11.37 9.11-15.5a.18.18 0 0 0 .07-.23h-.01a.26.26 0 0 0-.34-.12m56.83 5.33a1.24 1.24 0 0 0-1.22-1.18c-11.37-.16-19.94 1.19-34.08 3.57q-2.06.35-2.86 1.48a.96.93-38.2 0 0-.12.89q1.89 4.99 1.98 6.36.23 3.35.29 7.27a1.42 1.42 0 0 0 1.49 1.4q15.27-.65 28.89-6.77c5.37-2.42 5.89-7.78 5.63-13.02m-37.18 65 .64-7.31a2.53 2.52-63.7 0 0-.65-1.93q-.89-.97-3.54-3.71c-8.27-8.58-9.09-23.47-6.18-34.34a3.09 3.09 0 0 0-.81-2.99q-1.28-1.28-2.79-1.96a2.7 2.69-61.7 0 0-3.36 1.01q-.94 1.44-1.32 4.05c-1.65 11.15-1.26 22.32 3.6 32.86 2.91 6.31 7.47 9.69 13.44 14.72a.59.59 0 0 0 .97-.4m50.04-48.52a.56.56 0 0 0-.96-.44l-4.92 4.92a3.49 3.47-23.7 0 0-1.02 2.6c.4 10.69-.62 21.81-7.38 30.42-1.33 1.7-4.3 3.95-5.73 5.17a1.42 1.38-16.3 0 0-.48.85l-1.4 8.61a.41.41 0 0 0 .57.44q12.72-5.67 17.94-18.35c3.45-8.37 5.04-18.03 3.88-26.99q-.66-5.09-.5-7.23m-18.62 10.57c-6.89 1.68-11.54 2.92-16.93 3.68q-9.05 1.28-13.45 2.14a1.1 1.09-7.8 0 0-.88 1.15c.3 4.54 2.71 10.69 4.37 13.86a.62.62 0 0 0 1.12-.06c1.87-4.69 6.03-7.67 11.34-6.28 4.12 1.08 5.72 2.97 8.37 6.05a1.34 1.34 0 0 0 2.21-.26q4.88-9.46 4.37-19.9a.42.41-8 0 0-.52-.38M508.5 419.39a.32.32 0 0 0 .44.06l16.62-12.72a.32.32 0 0 0-.18-.57l-27.37-1.34a.32.32 0 0 0-.27.52zm-10.84 9.54a.34.34 0 0 0 .06-.48l-14.49-18.92a.34.34 0 0 0-.6.12l-9.4 37.22a.34.34 0 0 0 .54.36zm20.68.37a.36.36 0 0 0-.07.51l12.97 16.93a.36.36 0 0 0 .64-.14l7.23-32.4a.36.36 0 0 0-.57-.37zm327.32-.53a.32.32 0 0 0 .44.05l16.93-12.97a.32.32 0 0 0-.18-.57l-28.83-.78a.32.32 0 0 0-.25.53zm-11.15 8.82a.34.34 0 0 0 .05-.49l-15.38-17.77a.34.34 0 0 0-.59.15l-7.97 35.64a.34.34 0 0 0 .54.34zm19.83 2.27 14.56 16.8a.11.11 0 0 0 .19-.05q4.05-18.6 6.35-29.63.16-.8 1.31-4.22a.35.34-78.4 0 0-.3-.46q-.03 0-.1-.01a.17.1-48.6 0 0-.14.05L854.4 439.3a.39.39 0 0 0-.06.56m298.29 92.98q1.44.33 3.09-.71 5.54-3.49 6.88-10.5c2.23-11.67-4.15-21.73-14.56-26.91q-4.39-2.18-9.89-5.12-4.03-2.16-2.92-6.85 1.03-4.37 2.23-7.78 6.09-17.41 11.19-30.54 1.96-5.04 2.2-11.01a.83.83 0 0 0-.69-.85l-4.77-.78a1.09 1.09 0 0 0-1.21.75c-2.19 7.02-6.21 15.88-8.76 23.33q-1.04 3.04-7.34 20.73c-1.18 3.33-3.19 7.79-6.62 7.91q-10.17.35-17.19 1.04c-12.22 1.22-23.86 11.55-23.14 24.47a1.48 1.46 6.7 0 0 1.07 1.34q1.8.5 3.27.31a1.32 1.32 0 0 0 1.1-.94c2.36-8.06 5.46-14.67 14.72-15.89 4.15-.55 8.46-.78 12.32-.46q6.62.54 12.2-.29a3.25 3.24-33.4 0 1 2.16.44q6.13 3.72 12.84 6.54c9.59 4.04 16.1 10.93 13.87 21.91q-1.08 5.36-2.34 9.34a.41.4-74.7 0 0 .29.52m-645.05-93.62a.35.35 0 0 0-.48-.05l-19.58 14.99a.35.35 0 0 0 .21.63l33.33.9a.35.35 0 0 0 .27-.58zm335.93 9.02a.32.32 0 0 0-.44-.05l-20.18 15.45a.32.32 0 0 0 .18.57l34.37.93a.32.32 0 0 0 .25-.53zm170.58 76.34q-68.1-1.52-88.1-2.1-63.87-1.86-127.25-4.08-49.98-1.75-100.26-3.79-30.06-1.22-50.7-2.24-6.14-.31-9.74-.46-47.06-2.03-145.04-7.2-54.31-2.87-143.81-8.18-27.72-1.65-45.61-3.41a.86.85-83 0 0-.93.73q-3.38 23.35-4.79 48.4-.86 15.2-1.35 30.14a.73.73 0 0 0 .66.76q10.92 1.11 32.08 2.61c73.64 5.19 147.05 9.66 220.27 12.82q19.45.84 26.48 1.2 130.67 6.71 257.2 10.87 11.62.39 13.1.39c11.32-.01 19.44.66 32.79.97q47.6 1.11 65.38 1.58c18.93.51 44.1.54 62.16 1.19a.49.48 3.1 0 0 .5-.44l7.06-79.65a.11.1 5.4 0 0-.1-.11M244.76 675.99a.77.76-66.2 0 0 1.35-.53q-.02-.36-.04-1.14-.82-29.87 9.79-56.26 6.05-15.03 14.2-29.02c3-5.15 6.27-9.35 9.38-13.85q2.07-3 2.16-4.18 1.27-17.1 1.47-27 .14-7.39 1.82-31.44.14-1.92 1.42-10.63a.26.26 0 0 0-.44-.21c-1.69 1.75-3.36 3.19-4.84 5.03q-21.6 26.75-34.27 58.26-8.93 22.24-12.58 44.3-2.73 16.51-1.69 30.49 1.25 16.85 10.4 33.43.81 1.47 1.87 2.75m858.02-170.16q1.86 1.17 4.5 1.44a2.03 2.01 64.5 0 1 .92.33q3.18 2.07 13.17 4.32 5.93 1.34 19.77 6.92a1.8 1.1-7.4 0 0 .21.07l2.69.56a.75.75 0 0 0 .82-1.07q-2.07-4.14-6.67-6.13-7.04-3.05-12.33-6.23a5.69 5.66 60.3 0 0-2.92-.81h-19.98a.33.32-28.6 0 0-.18.6M688.34 790.91a.73.72 7.3 0 0-.78.6l-5.65 34.74a1.42 1.42 0 0 0 1.19 1.63q25.24 3.71 51.65 4.9 13.42.61 26.23-.35 16.88-1.26 18.9-1.37c10.52-.58 22.74-2.81 31.07-4.88q44.97-11.2 86.22-33.03c21.67-11.48 42.67-24.47 62.23-39.31q12.54-9.51 15.1-11.59 29.88-24.18 55.04-52.02c7.56-8.37 13.94-16.63 20.5-24.19q7.09-8.18 14.68-18.7c16.08-22.27 30.45-42.84 44.56-66.69 12.39-20.97 17.6-28.62 24.66-43.47a2.65 2.64-53.1 0 0-.4-2.87q-.22-.25-1.89-1.22-5.5-3.2-10.71-6.18c-7.02-4-13.07-6.3-20.49-8.73a1.89 1.89 0 0 0-2.27.94q-5.4 10.68-9.78 18.06c-6.4 10.79-13.88 25.08-21.6 36.85-5.51 8.41-11.43 18.88-18.29 29.15q-17.51 26.19-36.42 50.17-5.47 6.92-11.57 13.68-21.47 23.76-42.02 41.45-22.24 19.15-29.18 23.85-19.87 13.47-26.27 17.25-16.19 9.55-35.59 18.16c-18.72 8.29-37.29 13.59-55.95 18.03q-10.84 2.58-26.76 4.31-14.75 1.61-19.75 1.89-38.13 2.18-76.66-1.06m318.08-170.44q-39.94-.84-81.74-2.31-.77-.02-10.68-.23-6.46-.13-62.25-1.69-6.17-.17-8.82-.15c-10.45.07-21.4-.8-30.76-.93-9.2-.13-17.74-.75-25.4-.85q-10.83-.13-19.03-.44-38.8-1.44-110.91-4.85-11.39-.54-31.18-1.29-21.26-.79-31.16-1.27-17.11-.83-27.23-1.39-48.59-2.67-111.41-5.98c-22.93-1.21-42.1-2.63-65.34-3.7q-2.58-.12-10.7-.67-22.52-1.51-53.68-3.25-6.91-.38-14.24-1.1-2.39-.24-14.25-.93a.52.51-86.7 0 0-.54.49q-1.02 19.44-1.08 23.07-.58 40.94.21 60.73 1 24.93 2.97 44.4.2 1.93 2.01 2.94 16.01 8.88 33.99 14.99 25.63 8.71 57.15 14.38 2.53.45 3.85.47a1.21 1.2 10.8 0 0 1.14-.77q9.61-24.8 34.56-29.41 6.2-1.14 20.82-.21 13.26.84 35.75 1.62c3.5.12 8.66.82 12.88.65q2.31-.09 9.66.48 3.83.3 16.24.76 35.23 1.32 77 3.73 4.34.25 4.49.25 21.54.84 40.24 2.36 12.06.98 21.33 7.08 19.63 12.92 19.29 36.99a.82.82 0 0 0 .75.84q31.97 2.82 64.89 1.87 35.6-1.03 69.47-10.51c55.12-15.43 104.18-47.38 144.13-87.8q12-12.14 24.52-26.73 7.48-8.7 11.94-15.3 1.39-2.04 1.48-4.55.22-6.26.15-11.27a.52.52 0 0 0-.51-.52m-725.21-22.54q-5.38 10.29-9.66 20.12-5.88 13.52-8.66 27.16-2.25 11-2.16 23.33.1 14.05 1.63 23.4c.29 1.74 2.76 2.81 3.65 3.83q1.25 1.45 6.56 6.04 2.8 2.41 10.96 8.82a.32.31 15.1 0 0 .51-.29c-2.09-13.78-2.14-25.77-2.84-40.09q-.82-16.96-.46-56 .07-7.74 1.06-16.14a.31.31 0 0 0-.59-.18m-42.01 92.48q4.06 16.08 9.9 27.04 6.39 12.01 10.94 18.53 19.88 28.51 51.41 43.33 22.24 10.47 44.32 15.6 15.52 3.61 31.11 5.91a.87.86 8.4 0 0 .98-.72l5.38-33.02a.9.9 0 0 0-.73-1.03q-25.13-4.51-50.34-11.8-11.62-3.35-20.69-7.19c-13.53-5.72-25.61-10.35-36.73-17.57q-23.6-15.33-42.91-36.25a1.46.68 34 0 1-.11-.14l-1.79-2.99a.41.4 22.7 0 0-.74.3m795.49 127.36a.33.33 0 0 0 .09-.58c-10.22-7.03-16.58-18.71-19.62-30.28q-6.78-25.89-7.17-52.76a.54.54 0 0 0-.89-.4q-4.75 4.16-17.42 14.99-10.2 8.71-18.08 14.17-1.89 1.31-14.85 10.81-5.73 4.2-15.15 10.34-21.41 13.94-41.74 24.83a.53.52-41.3 0 0-.06.89q.33.23 1.2.28c8.03.48 15.37.49 23.74 1.05q15.55 1.03 31 1.95 26.17 1.56 45.26 2.6 8.1.44 10.18.63c8.04.72 16.07 1.02 21.57 1.71q.85.11 1.94-.23m-395.4-71.76a.57.57 0 0 0-.54-.66l-193.06-9.37a.57.57 0 0 0-.59.48l-15.64 96.02a.57.57 0 0 0 .54.66l192.97 9.94a.57.57 0 0 0 .59-.47zm-208.91-8.41a.37.36-5.3 0 0-.49-.4q-12.57 4.57-17.81 15.47-1.57 3.26-4.2 19.44-.39 2.38-5.13 29.89c-1.3 7.52-2.63 15.02 2.37 21.38q3.71 4.74 9.15 7.37a.72.72 0 0 0 1.03-.53zm209.04 106.47c11.09-.06 19.84-4.99 25.14-14.56q1.97-3.55 3.49-14.11 1.1-7.61 6.36-39.86 2.11-12.96-7.08-21.87-5.2-5.04-12.45-6.64a.29.29 0 0 0-.35.24l-15.66 96.16a.56.55 4.4 0 0 .55.64"/><path fill="#db6221" d="M820.05 167.14a.4.4 0 0 1-.25.69q-4.02.18-5.8.18-115.21-.08-140.76.24-6.28.08-10.09-3.48c-7.71-7.21-9.02-18.28-8.31-29.25q.55-8.56 3.99-13.22c5.67-7.68 13.57-8.55 23.17-8.34l114.75.17c6.41.01 13.33.52 18.86 3.58a.72.72 0 0 1 .34.81q-1.14 4.45-2.23 8.66c-3.03 11.65-3.47 30.84 6.33 39.96m-161.23-13.2a.59.59 0 0 0-.56.78q1.6 4.71 5.22 8.6c2.7 2.88 5.84 3.67 9.78 3.62 37.38-.49 100.9.08 143.6-.27a.46.45 72.5 0 0 .37-.72q-3.61-5.07-5.4-11.56a.63.62-8 0 0-.6-.45zm174.02 245.13q8.16-32.31 14.99-58.5 12.35-47.33 18.18-96.07 2.75-23.05.94-43.73-1.14-13.13-6.99-26.46-6.07-13.84-17.99-21.96a2.36 2.35-73 0 1-1.03-1.95v-14.38a.7.7 0 0 1 .91-.67c9.51 3.01 18.24 7.81 25.39 15.23 25.66 26.59 26.96 66.87 23.21 101.67q-2.76 25.67-7.05 49.73-5.47 30.69-9.3 48.95-5.97 28.46-9.18 45.55-.36 1.95-.87 3.43a.99.97 9.9 0 1-.94.65l-29.75-.81a.55.54 8 0 1-.52-.68m-335.36-9.67q.58-1.26.81-2.12 12.74-48.91 29.19-93.33c10.12-27.32 22.38-53.45 38.05-78.2q16.53-26.1 40.44-49.06 14.09-13.54 32.18-23.85a.48.48 0 0 1 .72.38q.53 8.41 2.86 15.99a1.68 1.68 0 0 1-.72 1.91q-13.8 8.64-25.81 22.11-13.01 14.6-21.41 27.07c-20.58 30.58-35.07 64.27-45.87 100.55q-11.63 39.07-20.12 79.64a1.03 1.03 0 0 1-1.07.82l-28.94-1.4a.36.36 0 0 1-.31-.51m76.51-149.08a.47.47 0 0 0 .83-.01q8.59-16.58 17.64-29.97c1.46-2.15 3.23-4.2 4.84-6.73q1.09-1.69 3.85-4.89.32-.37 3.18-4.26 1.88-2.57 3.28-4.14 3.98-4.5 6.22-6.99 7.32-8.13 15.55-15.21c3.33-2.86 7.03-5.19 10.32-7.38a1.9 1.9 0 0 0 .74-2.21q-2.21-6.29-2.1-12.7a1.18 1.18 0 0 0-1.79-1.03q-10.92 6.64-13.85 8.88-4.75 3.65-7.53 6.07-29.18 25.45-49.66 58.05a1.46 1.45 53.6 0 0-.17 1.16q3.29 11.76 8.65 21.36"/><path fill="#b94e16" d="M573.99 240.32q-5.36-9.6-8.65-21.36a1.46 1.45 53.6 0 1 .17-1.16q20.48-32.6 49.66-58.05 2.78-2.42 7.53-6.07 2.93-2.24 13.85-8.88a1.18 1.18 0 0 1 1.79 1.03q-.11 6.41 2.1 12.7a1.9 1.9 0 0 1-.74 2.21c-3.29 2.19-6.99 4.52-10.32 7.38q-8.23 7.08-15.55 15.21-2.24 2.49-6.22 6.99-1.4 1.57-3.28 4.14-2.86 3.89-3.18 4.26-2.76 3.2-3.85 4.89c-1.61 2.53-3.38 4.58-4.84 6.73q-9.05 13.39-17.64 29.97a.47.47 0 0 1-.83.01m84.83-86.38h152.41a.63.62-8 0 1 .6.45q1.79 6.49 5.4 11.56a.46.45 72.5 0 1-.37.72c-42.7.35-106.22-.22-143.6.27-3.94.05-7.08-.74-9.78-3.62q-3.62-3.89-5.22-8.6a.59.59 0 0 1 .56-.78"/><path fill="#db6221" d="M655.88 324.93a.39.39 0 0 1-.39.47l-27.45-.74a1.09 1.09 0 0 1-1.05-.99c-3.02-32.58-1.03-65.73 4.51-99.42q3.1-18.85 6.55-31.99c1.94-7.41 2.64-12.52 9.06-15.86a2.56 2.55-36.2 0 1 2.98.46l6.6 6.6a.86.85 27.9 0 1 .24.76q-8.12 48.6-6.01 99.41.85 20.58 4.96 41.3m-7.86-147.77c-6.68 3.3-6.56 7.9-8.39 13.56q-.95 2.93-1.75 6.5-5.77 25.88-8.74 52.84-.27 2.45-.27 3.39c0 2.93-.88 5.71-.91 8.49-.09 7.18-1.51 14.78-1.2 22.43q.22 5.21.16 22.87-.01 3.97.68 7.5.58 3 .26 7.38a.92.92 0 0 0 .87 1l24.61 1.19a1.2 1.19-4.8 0 0 1.23-1.45q-3.22-14.2-4.32-29.31c-.2-2.79-.1-5.93-.45-8.79q-.62-5.05-.62-6.56-.06-15.35.12-28.7c.07-4.94.71-10.12.91-14.77q.78-18.53 3.91-36.91.69-4.06.64-5.64a3.54 3.45 55.1 0 1 .22-1.33q.62-1.62.96-6.22a1.28 1.27 24.9 0 0-.36-.98l-6.28-6.27a1.11 1.11 0 0 0-1.28-.22"/><path fill="#b94e16" d="m649.3 177.38 6.28 6.27a1.28 1.27 24.9 0 1 .36.98q-.34 4.6-.96 6.22a3.54 3.45 55.1 0 0-.22 1.33q.05 1.58-.64 5.64-3.13 18.38-3.91 36.91c-.2 4.65-.84 9.83-.91 14.77q-.18 13.35-.12 28.7 0 1.51.62 6.56c.35 2.86.25 6 .45 8.79q1.1 15.11 4.32 29.31a1.2 1.19-4.8 0 1-1.23 1.45l-24.61-1.19a.92.92 0 0 1-.87-1q.32-4.38-.26-7.38-.69-3.53-.68-7.5.06-17.66-.16-22.87c-.31-7.65 1.11-15.25 1.2-22.43.03-2.78.91-5.56.91-8.49q0-.94.27-3.39 2.97-26.96 8.74-52.84.8-3.57 1.75-6.5c1.83-5.66 1.71-10.26 8.39-13.56a1.11 1.11 0 0 1 1.28.22"/><path fill="#db6221" d="M901.52 180.85q16.02 16.39 28.74 35.39c24.27 36.25 42.3 76.79 56.5 118.22a.29.29 0 0 1-.28.38l-26.26-.71a.87.87 0 0 1-.82-.68c-10.02-44.19-27.36-87.18-53.34-124.5q-.61-.88-.89-3.94-.97-10.91-2.92-18.96-1.04-4.29-1.18-4.97a.26.26 0 0 1 .45-.23m2.81 5.15a.39.39 0 0 0-.61.37l3.13 21.23a3.32 3.27 25.4 0 0 .43 1.18q1.27 2.11 1.81 2.9 8.77 13.05 14.11 22.62 17.38 31.17 28.11 65.16 4.74 15.01 8.45 29.33.3 1.18.24 1.94c-.17 2.14 1.52 2.44 3.48 2.41q8.93-.14 20.07.29a1.14 1.14 0 0 0 1.12-1.52q-5.66-15.83-8.67-23.28-2.51-6.22-4.95-12.49-2.45-6.3-5.05-11.96-8.69-18.87-17.45-35.81c-4.89-9.46-12.33-21.57-16.69-28.13q-9.63-14.49-22.75-29.97-1.93-2.28-4.78-4.27"/><path fill="#b94e16" d="M904.33 186q2.85 1.99 4.78 4.27 13.12 15.48 22.75 29.97c4.36 6.56 11.8 18.67 16.69 28.13q8.76 16.94 17.45 35.81 2.6 5.66 5.05 11.96 2.44 6.27 4.95 12.49 3.01 7.45 8.67 23.28a1.14 1.14 0 0 1-1.12 1.52q-11.14-.43-20.07-.29c-1.96.03-3.65-.27-3.48-2.41q.06-.76-.24-1.94-3.71-14.32-8.45-29.33-10.73-33.99-28.11-65.16-5.34-9.57-14.11-22.62-.54-.79-1.81-2.9a3.32 3.27 25.4 0 1-.43-1.18l-3.13-21.23a.39.39 0 0 1 .61-.37"/><path fill="#233a66" d="M1104.22 353.54q-15.53 7.3-27.84 20.6c-15.41 16.66-27.14 35.53-36.34 57.1q-15.66 36.7-22.55 76.76a1.31 1.3-84.6 0 1-1.31 1.09q-50.4-1.04-88.17-2.29c-3-.1-6.29.23-9.01.06q-13.76-.83-24.74-.95-9.42-.09-16.49-.67c-7.25-.58-14.54-.28-22.02-.77-10.97-.71-23.76-.41-34.41-1.15-7.95-.55-13.9-.26-21.11-.82-8.89-.68-17.39-.49-26.39-1.11q-.79-.06-11.82-.48-45.95-1.76-57.77-2-2.31-.05-3.25-.09-45.66-2.22-52.62-2.67c-7.27-.46-15.11-.43-24.48-1.13-3.12-.23-7.42-.04-9.65-.17-43.94-2.45-88.91-4.48-143.57-7.4q-9.44-.51-11.1-.51c-5.05-.03-9.87-.62-14.78-.89q-69.13-3.78-139.41-8.25a.75.75 0 0 1-.7-.85q2.9-20.52 7.46-38.12c10.8-41.63 35.94-79.3 76.64-96.5 11.52-4.87 22.03-7.82 34.37-9.24q5.17-.59 20.68.04c19 .77 36.3 1.78 53.12 2.14a.49.49 0 0 1 .45.63q-6.55 21.67-13.62 48.37-.53 1.98-.93 4.57a1.67 1.63 71.7 0 1-.43.88q-.54.57-2.21.99c-7.28 1.81-10.46 7.26-12.3 13.97q-4.27 15.55-9.92 39.05c-1.24 5.13-2.79 10.32-2.07 14.77q1.58 9.73 12.53 10.32 20.76 1.12 51.74 1.75c6.41.13 13.72.31 18.21-2.92 4.55-3.27 5.68-7.86 6.91-13.33q5.15-22.95 9.71-44.82 1.51-7.23-2.61-13.17c-2.23-3.21-6.03-4.14-9.8-4.9a.66.65-78.3 0 1-.51-.78q5.92-27.05 13.02-52.92a.99.98 9.2 0 1 1-.72q35.5 1.6 57.86 2.47 7.6.3 9.94.37c31.76 1 63.4 2.52 95.23 3.13q11.37.21 19.66.75c8.96.58 17.36.24 26.24.64q10.44.48 24.69.68c3.53.04 9.01.7 13.34.79q18.27.35 27.13.77a.53.52-81.8 0 1 .48.65l-13.03 51.58a2.47 2.45-3.6 0 1-1.51 1.7c-7.29 2.8-9.72 7.48-11.8 15.32q-.47 1.78-10.85 45.15-.23.96-.53 4.75-.69 8.6 6.72 11.98 2.51 1.14 8.55 1.19 16.49.11 52.75 1.14c7.75.22 15.23-1.06 19.16-8.11q1.24-2.22 2.74-9.33.39-1.86 8.75-40.94c2.25-10.51-.19-19.43-12.59-20.76a.78.78 0 0 1-.67-.95l11.37-50.87a1.24 1.23 7.2 0 1 1.26-.97q19.93.88 33.22.89c9.64.01 21.55.88 29.01.93q10.95.08 49.51.95 6.3.15 14.49.28 42.19.71 75.98 1.78 5.36.17 10.82-.09a.35.35 0 0 1 .17.66m78.58 10.94a.59.59 0 0 1 .72-.85q5.04 1.98 9.49 5.1 10.26 7.17 16.2 12.82 10.47 9.97 17.96 22.79c11.34 19.42 18.8 39.26 24.51 61.76q4.63 18.26 6.43 30.8 5.29 36.91 6.62 60.61.95 16.84 1.17 53.8c.04 6.66-.6 13.69-.86 20.69q-1.17 31.21-2.24 46.75-1.73 25.2-4.06 46.24-1.69 15.19-4.9 27.87c-2.99 11.8-11.16 25.26-21.51 30.93-5.41 2.97-12.48 5.07-18.1 7.03q-42.73 14.89-80.48 21.91-9.99 1.85-31.45 4.28-9.61 1.09-17.63 1.01-15.76-.16-17.65-.29c-15.06-1.03-28.08-11.77-34.25-25.55q-5.78-12.91-8.12-29.26-2.73-19.02-3.55-38.92c-.1-2.32 1.06-4.3 2.75-6.08q15.74-16.56 27.84-29.96 6.76-7.48 22.4-28.09 14.71-19.37 30.06-42.69 17.42-26.48 32.82-55.42 4.43-8.33 7.2-14.11a2.61 2.6-77.9 0 1 2.28-1.48c4.17-.11 6.81.16 10-.76q4.21-1.22 8.24-4.73c8.07-7.06 10.38-16.24 9.59-27.19-.86-11.86-8.94-21.85-18.97-27.33-2.38-1.3-5.28-2.02-7.6-2.97a1.51 1.5 18.4 0 1-.89-1.77q3.52-13.6 7.99-26.06c.85-2.37 2.18-2.9 4.73-3.32 14.74-2.44 25.06-14.31 30.76-27.63 5.53-12.93 5.01-29.8 1.51-43.21-1.71-6.57-5.8-11.37-9.01-16.72"/><path fill="#233a66" d="M1112.24 365.54a.26.26 0 0 1 .34.12h.01a.18.18 0 0 1-.07.23c-6.4 4.13-7.79 7.84-9.11 15.5q-.37 2.19-1.45 14.88-1.06 12.57 2.86 25.18 5.52 17.81 22.1 26.27a.61.6-65.6 0 1 .28.76q-2.85 7.25-7.88 21.57-1.34 3.81-5.62 3.86c-4.18.06-10.14-.18-14.28.38q-11.64 1.57-19.35 10.11c-7.06 7.82-11.48 17.7-9.95 28.62q1.1 7.81 8.45 10.36a.56.56 0 0 1 .31.81q-11.27 19.59-14.57 25.33c-7.14 12.45-14.2 22.81-21.77 34.78q-8.64 13.66-19.14 28.55a.33.32 63.7 0 1-.59-.2q1.13-26.01 3.43-52.41 4.4-50.55 19.1-97.67 6.92-22.17 20.78-48.45 1.94-3.66 8.33-13.2 9.76-14.56 23.89-26.58 6.61-5.62 13.9-8.8m56.83 5.33c.26 5.24-.26 10.6-5.63 13.02q-13.62 6.12-28.89 6.77a1.42 1.42 0 0 1-1.49-1.4q-.06-3.92-.29-7.27-.09-1.37-1.98-6.36a.96.93-38.2 0 1 .12-.89q.8-1.13 2.86-1.48c14.14-2.38 22.71-3.73 34.08-3.57a1.24 1.24 0 0 1 1.22 1.18"/><path fill="#737375" d="M1131.89 435.87a.59.59 0 0 1-.97.4c-5.97-5.03-10.53-8.41-13.44-14.72-4.86-10.54-5.25-21.71-3.6-32.86q.38-2.61 1.32-4.05a2.7 2.69-61.7 0 1 3.36-1.01q1.51.68 2.79 1.96a3.09 3.09 0 0 1 .81 2.99c-2.91 10.87-2.09 25.76 6.18 34.34q2.65 2.74 3.54 3.71a2.53 2.52-63.7 0 1 .65 1.93zm50.04-48.52q-.16 2.14.5 7.23c1.16 8.96-.43 18.62-3.88 26.99q-5.22 12.68-17.94 18.35a.41.41 0 0 1-.57-.44l1.4-8.61a1.42 1.38-16.3 0 1 .48-.85c1.43-1.22 4.4-3.47 5.73-5.17 6.76-8.61 7.78-19.73 7.38-30.42a3.49 3.47-23.7 0 1 1.02-2.6l4.92-4.92a.56.56 0 0 1 .96.44"/><path fill="#233a66" d="M1163.31 397.92a.42.41-8 0 1 .52.38q.51 10.44-4.37 19.9a1.34 1.34 0 0 1-2.21.26c-2.65-3.08-4.25-4.97-8.37-6.05-5.31-1.39-9.47 1.59-11.34 6.28a.62.62 0 0 1-1.12.06c-1.66-3.17-4.07-9.32-4.37-13.86a1.1 1.09-7.8 0 1 .88-1.15q4.4-.86 13.45-2.14c5.39-.76 10.04-2 16.93-3.68M508.5 419.39l-10.76-14.05a.32.32 0 0 1 .27-.52l27.37 1.34a.32.32 0 0 1 .18.57l-16.62 12.72a.32.32 0 0 1-.44-.06"/><path fill="#db6221" d="m497.66 428.93-23.89 18.3a.34.34 0 0 1-.54-.36l9.4-37.22a.34.34 0 0 1 .6-.12l14.49 18.92a.34.34 0 0 1-.06.48m20.68.37 20.2-15.47a.36.36 0 0 1 .57.37l-7.23 32.4a.36.36 0 0 1-.64.14l-12.97-16.93a.36.36 0 0 1 .07-.51"/><path fill="#233a66" d="m845.66 428.77-11.89-13.74a.32.32 0 0 1 .25-.53l28.83.78a.32.32 0 0 1 .18.57l-16.93 12.97a.32.32 0 0 1-.44-.05"/><path fill="#db6221" d="m834.51 437.59-23.35 17.87a.34.34 0 0 1-.54-.34l7.97-35.64a.34.34 0 0 1 .59-.15l15.38 17.77a.34.34 0 0 1-.05.49m19.83 2.27a.39.39 0 0 1 .06-.56l21.81-16.96a.17.1-48.6 0 1 .14-.05q.07.01.1.01a.35.34-78.4 0 1 .3.46q-1.15 3.42-1.31 4.22-2.3 11.03-6.35 29.63a.11.11 0 0 1-.19.05z"/><path fill="#737375" d="M1152.63 532.84a.41.4-74.7 0 1-.29-.52q1.26-3.98 2.34-9.34c2.23-10.98-4.28-17.87-13.87-21.91q-6.71-2.82-12.84-6.54a3.25 3.24-33.4 0 0-2.16-.44q-5.58.83-12.2.29c-3.86-.32-8.17-.09-12.32.46-9.26 1.22-12.36 7.83-14.72 15.89a1.32 1.32 0 0 1-1.1.94q-1.47.19-3.27-.31a1.48 1.46 6.7 0 1-1.07-1.34c-.72-12.92 10.92-23.25 23.14-24.47q7.02-.69 17.19-1.04c3.43-.12 5.44-4.58 6.62-7.91q6.3-17.69 7.34-20.73c2.55-7.45 6.57-16.31 8.76-23.33a1.09 1.09 0 0 1 1.21-.75l4.77.78a.83.83 0 0 1 .69.85q-.24 5.97-2.2 11.01-5.1 13.13-11.19 30.54-1.2 3.41-2.23 7.78-1.11 4.69 2.92 6.85 5.5 2.94 9.89 5.12c10.41 5.18 16.79 15.24 14.56 26.91q-1.34 7.01-6.88 10.5-1.65 1.04-3.09.71"/><path fill="#db6221" d="m507.58 439.22 13.75 15.89a.35.35 0 0 1-.27.58l-33.33-.9a.35.35 0 0 1-.21-.63l19.58-14.99a.35.35 0 0 1 .48.05m335.93 9.02 14.18 16.37a.32.32 0 0 1-.25.53l-34.37-.93a.32.32 0 0 1-.18-.57l20.18-15.45a.32.32 0 0 1 .44.05m170.58 76.34a.11.1 5.4 0 1 .1.11l-7.06 79.65a.49.48 3.1 0 1-.5.44c-18.06-.65-43.23-.68-62.16-1.19q-17.78-.47-65.38-1.58c-13.35-.31-21.47-.98-32.79-.97q-1.48 0-13.1-.39-126.53-4.16-257.2-10.87-7.03-.36-26.48-1.2c-73.22-3.16-146.63-7.63-220.27-12.82q-21.16-1.5-32.08-2.61a.73.73 0 0 1-.66-.76q.49-14.94 1.35-30.14 1.41-25.05 4.79-48.4a.86.85-83 0 1 .93-.73q17.89 1.76 45.61 3.41 89.5 5.31 143.81 8.18 97.98 5.17 145.04 7.2 3.6.15 9.74.46 20.64 1.02 50.7 2.24 50.28 2.04 100.26 3.79 63.38 2.22 127.25 4.08 20 .58 88.1 2.1"/><path fill="#233a66" d="M244.76 675.99q-1.06-1.28-1.87-2.75-9.15-16.58-10.4-33.43-1.04-13.98 1.69-30.49 3.65-22.06 12.58-44.3 12.67-31.51 34.27-58.26c1.48-1.84 3.15-3.28 4.84-5.03a.26.26 0 0 1 .44.21q-1.28 8.71-1.42 10.63-1.68 24.05-1.82 31.44-.2 9.9-1.47 27-.09 1.18-2.16 4.18c-3.11 4.5-6.38 8.7-9.38 13.85q-8.15 13.99-14.2 29.02-10.61 26.39-9.79 56.26.02.78.04 1.14a.77.76-66.2 0 1-1.35.53m858.02-170.16a.33.32-28.6 0 1 .18-.6h19.98a5.69 5.66 60.3 0 1 2.92.81q5.29 3.18 12.33 6.23 4.6 1.99 6.67 6.13a.75.75 0 0 1-.82 1.07l-2.69-.56a1.8 1.1-7.4 0 1-.21-.07q-13.84-5.58-19.77-6.92-9.99-2.25-13.17-4.32a2.03 2.01 64.5 0 0-.92-.33q-2.64-.27-4.5-1.44M688.34 790.91q38.53 3.24 76.66 1.06 5-.28 19.75-1.89 15.92-1.73 26.76-4.31c18.66-4.44 37.23-9.74 55.95-18.03q19.4-8.61 35.59-18.16 6.4-3.78 26.27-17.25 6.94-4.7 29.18-23.85 20.55-17.69 42.02-41.45 6.1-6.76 11.57-13.68 18.91-23.98 36.42-50.17c6.86-10.27 12.78-20.74 18.29-29.15 7.72-11.77 15.2-26.06 21.6-36.85q4.38-7.38 9.78-18.06a1.89 1.89 0 0 1 2.27-.94c7.42 2.43 13.47 4.73 20.49 8.73q5.21 2.98 10.71 6.18 1.67.97 1.89 1.22a2.65 2.64-53.1 0 1 .4 2.87c-7.06 14.85-12.27 22.5-24.66 43.47-14.11 23.85-28.48 44.42-44.56 66.69q-7.59 10.52-14.68 18.7c-6.56 7.56-12.94 15.82-20.5 24.19q-25.16 27.84-55.04 52.02-2.56 2.08-15.1 11.59c-19.56 14.84-40.56 27.83-62.23 39.31q-41.25 21.83-86.22 33.03c-8.33 2.07-20.55 4.3-31.07 4.88q-2.02.11-18.9 1.37-12.81.96-26.23.35-26.41-1.19-51.65-4.9a1.42 1.42 0 0 1-1.19-1.63l5.65-34.74a.73.72 7.3 0 1 .78-.6"/><path fill="#233a66" d="M1006.42 620.47a.52.52 0 0 1 .51.52q.07 5.01-.15 11.27-.09 2.51-1.48 4.55-4.46 6.6-11.94 15.3-12.52 14.59-24.52 26.73c-39.95 40.42-89.01 72.37-144.13 87.8q-33.87 9.48-69.47 10.51-32.92.95-64.89-1.87a.82.82 0 0 1-.75-.84q.34-24.07-19.29-36.99-9.27-6.1-21.33-7.08-18.7-1.52-40.24-2.36-.15 0-4.49-.25-41.77-2.41-77-3.73-12.41-.46-16.24-.76-7.35-.57-9.66-.48c-4.22.17-9.38-.53-12.88-.65q-22.49-.78-35.75-1.62-14.62-.93-20.82.21-24.95 4.61-34.56 29.41a1.21 1.2 10.8 0 1-1.14.77q-1.32-.02-3.85-.47-31.52-5.67-57.15-14.38-17.98-6.11-33.99-14.99-1.81-1.01-2.01-2.94-1.97-19.47-2.97-44.4-.79-19.79-.21-60.73.06-3.63 1.08-23.07a.52.51-86.7 0 1 .54-.49q11.86.69 14.25.93 7.33.72 14.24 1.1 31.16 1.74 53.68 3.25 8.12.55 10.7.67c23.24 1.07 42.41 2.49 65.34 3.7q62.82 3.31 111.41 5.98 10.12.56 27.23 1.39 9.9.48 31.16 1.27 19.79.75 31.18 1.29 72.11 3.41 110.91 4.85 8.2.31 19.03.44c7.66.1 16.2.72 25.4.85 9.36.13 20.31 1 30.76.93q2.65-.02 8.82.15 55.79 1.56 62.25 1.69 9.91.21 10.68.23 41.8 1.47 81.74 2.31"/><path fill="#233a66" d="m239.94 690.11 1.79 2.99a1.46.68 34 0 0 .11.14q19.31 20.92 42.91 36.25c11.12 7.22 23.2 11.85 36.73 17.57q9.07 3.84 20.69 7.19 25.21 7.29 50.34 11.8a.9.9 0 0 1 .73 1.03l-5.38 33.02a.87.86 8.4 0 1-.98.72q-15.59-2.3-31.11-5.91-22.08-5.13-44.32-15.6-31.53-14.82-51.41-43.33-4.55-6.52-10.94-18.53-5.84-10.96-9.9-27.04a.41.4 22.7 0 1 .74-.3m794.75 127.66q-1.09.34-1.94.23c-5.5-.69-13.53-.99-21.57-1.71q-2.08-.19-10.18-.63-19.09-1.04-45.26-2.6-15.45-.92-31-1.95c-8.37-.56-15.71-.57-23.74-1.05q-.87-.05-1.2-.28a.53.52-41.3 0 1 .06-.89q20.33-10.89 41.74-24.83 9.42-6.14 15.15-10.34 12.96-9.5 14.85-10.81 7.88-5.46 18.08-14.17 12.67-10.83 17.42-14.99a.54.54 0 0 1 .89.4q.39 26.87 7.17 52.76c3.04 11.57 9.4 23.25 19.62 30.28a.33.33 0 0 1-.09.58"/><path fill="#db6221" d="m639.29 746.01-15.73 96.6a.57.57 0 0 1-.59.47L430 833.14a.57.57 0 0 1-.54-.66l15.64-96.02a.57.57 0 0 1 .59-.48l193.06 9.37a.57.57 0 0 1 .54.66m-208.91-8.41-15.08 92.62a.72.72 0 0 1-1.03.53q-5.44-2.63-9.15-7.37c-5-6.36-3.67-13.86-2.37-21.38q4.74-27.51 5.13-29.89 2.63-16.18 4.2-19.44 5.24-10.9 17.81-15.47a.37.36-5.3 0 1 .49.4m-1.51 1.98a.35.34-6.5 0 0-.47-.37q-8.5 3.22-13.33 10.58c-2.22 3.38-3.66 8.63-4.33 12.47q-4.36 24.9-7.83 45.74-2.42 14.58 10.67 20.91a.57.57 0 0 0 .81-.42z"/><path fill="#b94e16" d="m428.87 739.58-14.48 88.91a.57.57 0 0 1-.81.42q-13.09-6.33-10.67-20.91 3.47-20.84 7.83-45.74c.67-3.84 2.11-9.09 4.33-12.47q4.83-7.36 13.33-10.58a.35.34-6.5 0 1 .47.37"/><path fill="#db6221" d="M639.42 844.07a.56.55 4.4 0 1-.55-.64l15.66-96.16a.29.29 0 0 1 .35-.24q7.25 1.6 12.45 6.64 9.19 8.91 7.08 21.87-5.26 32.25-6.36 39.86-1.52 10.56-3.49 14.11c-5.3 9.57-14.05 14.5-25.14 14.56m2.14-1.38q9.57-.3 16.58-6.58 4.86-4.36 6.81-10.86.48-1.63.95-4.46 5.64-34.06 6.17-38.3c.76-6.05 1.87-11.33.75-17.95q-.39-2.28-2.72-5.73-5.03-7.47-13.54-10.23a1.03 1.03 0 0 0-1.34.84q-2.37 16.83-5.34 33.76-2.26 12.87-7.38 46.57-.22 1.44-1.62 8.87-.03.17.02 3.44a.64.64 0 0 0 .66.63"/><path fill="#b94e16" d="M640.9 842.06q-.05-3.27-.02-3.44 1.4-7.43 1.62-8.87 5.12-33.7 7.38-46.57 2.97-16.93 5.34-33.76a1.03 1.03 0 0 1 1.34-.84q8.51 2.76 13.54 10.23 2.33 3.45 2.72 5.73c1.12 6.62.01 11.9-.75 17.95q-.53 4.24-6.17 38.3-.47 2.83-.95 4.46-1.95 6.5-6.81 10.86-7.01 6.28-16.58 6.58a.64.64 0 0 1-.66-.63"/></symbol></svg>