<svg xmlns="http://www.w3.org/2000/svg"><symbol id="Harden7sSVG" viewBox="0 0 1536 1024"><g fill="none" stroke-width="2"><path stroke="#60bab8" d="m1339.5 106.94-5.23-.41a1.21 1.2-58.2 0 0-.76.18q-2.69 1.62-6.1 4.46c-4.56 3.82-6.43 10.63-7.14 16.34q-1.05 8.45-1.22 10.74-2.41 33.39-2.08 67.19.02 1.74-.29 3.55-.29 1.73-.58 3.52" vector-effect="non-scaling-stroke"/><path stroke="#84d2ce" d="M1316.1 212.51q-2.88-3.71-6.44-7.17c-6.1-5.92-18.34-11.41-26.91-12.82q-7.15-1.18-20.69-2.07" vector-effect="non-scaling-stroke"/><path stroke="#72c2bf" d="M1335.14 244.08q-.63.24-.63.67-.12 12.97-.63 23.62a.21.21 0 0 1-.41.02c-2.04-12.84-4.15-26.46-8.86-38.7q-1.07-2.79-4.17-8.63-2.24-4.23-4.34-8.55m-445.33 20.23-.38.2a1.66 1.62 32.2 0 1-.88.19q-30.15-1.8-56.79 14.08-17.91 10.68-48.23 31.26-.64.44-1.22.43a.35.35 0 0 0-.16.67q7.79 3.84 15.11 7.97 4.26 2.4 9.11 6.65" vector-effect="non-scaling-stroke"/><path stroke="#84d2ce" d="M787.33 294.19q3.72 3.44 7.42 6.88 4.37 4.07 6.92 7.39 3.83 4.99 6.88 10.75 1.43 2.71 2.94 8.47a.29.29 0 0 0 .57-.07v-3.84a4.08 4.07 67.5 0 1 1.18-2.87q5.94-5.99 14.1-12.37 2.53-1.98 4.64-3.18 1.45-.84 4.54-3.32 2.03-1.62 6.46-2.72c1.84-.46 4.12.07 6.04-.94a1.92 1.89-2.2 0 0 .87-.92q3-6.71 11.43-11.84 9.16-5.58 16.73-.42a.65.65 0 0 0 .92-.19l14.14-22.58" vector-effect="non-scaling-stroke"/><path stroke="#72c2bf" d="m893.11 262.42 13.32-22.78m182.24 30.39q-10.89-.99-19.18-.5c-23.76 1.42-45.87 12.49-65.87 25.35q-8.54 5.49-25.02 16.56a.25.25 0 0 0 .06.44q15.66 5.67 27.98 15.17a1.29 1.28 47 0 0 1.49.06q14.14-9.27 28.87-18.09c16.06-9.63 36.37-20 55.5-18.72q7.89.53 13.28 1.68c10.61 2.28 21.06 4.9 30.83 9.53q25.02 11.86 44.49 31.39c7.25 7.29 15.64 17.18 24.01 23.65q20.99 16.24 48.66 20.41c12.62 1.9 26.66 1.69 38.24-3.07q18.93-7.79 30-25.25 15.06-23.75 13.88-51.6-.32-7.69-.97-15.15a.08.07-4.1 0 0-.08-.06h-.26a.3.3 0 0 0-.3.3q-.17 16.46-5.14 32.07c-11.48 36.09-48.74 55.5-84.7 41.18a1.02 1.02 0 0 1-.4-1.61q7.1-8.36 11.86-18.85c10.78-23.74 15.46-50.69 16.43-76.92q.36-9.52-.86-17.22-.47-2.97-1.68-4.99a2.27 2.26 65.1 0 0-2.66-.98q-2.91.97-5.54 3.28c-10.75 9.44-17.76 24.04-22.9 37.31-8.31 21.44-15.29 44.19-22.09 64.56a1.5 1.5 0 0 1-2.19.82q-3.94-2.31-7.52-5.17-7.71-6.18-18.38-14.86-22.89-18.64-48.76-33.01-12.91-7.16-31.27-13.15" vector-effect="non-scaling-stroke"/><path stroke="#84d2ce" d="M1384.31 461.73q-.3.17-.51.08-7.53-3.14-16.71-5.14c-5.73-1.25-10.2-1.03-16.57-.89-9.81.22-18.55 3.53-26.38 9.83-8.93 7.19-16.42 16.19-22.6 24.93q-11.22 15.86-20.02 28.73a8.31 8.01 85.6 0 1-.89 1.08q-2.55 2.57-3.23 3.56-20.34 29.73-42.41 54.08c-3.02 3.34-7.34 7.16-11.02 11.31q-11.48 12.92-25.52 22.73" vector-effect="non-scaling-stroke"/><path stroke="#72c2bf" d="m1198.45 612.03-7.87.39" vector-effect="non-scaling-stroke"/><path stroke="#84d2ce" d="m1190.58 612.42-13.13-.44" vector-effect="non-scaling-stroke"/><path stroke="#72c2bf" d="M1177.45 611.98c23.05-34.24 42.62-71.2 49.34-111.81q3.87-23.31 1.89-44.19-3.11-32.89-17.7-63.51c-11.14-23.38-25.94-44.69-46.54-60.69q-11.54-8.96-23.17-15.29-9.69-5.27-18.6-7.87c-4.39-1.28-12.66-3.94-18.34-4.7q-13.09-1.76-26.32 1.66c-6.53 1.69-16.36 5.06-22.33 8.36-7.7 4.25-16.73 9.36-25.68 15.11q-40.9 26.28-48.58 31.4-15.34 10.21-42.39 27.8c-8.53 5.54-16.33 11.04-24.85 16.3q-6.9 4.26-18.73 12.11-95.23 63.17-108.26 71.8-17.62 11.67-59.01 38.9-42.11 27.71-58.93 39.08-16.11 10.9-47.89 31.87a1.07 1.07 0 0 0 .07 1.82l2.17 1.21a2.8 2.8 0 0 0 2.91-.11q19.28-12.78 51.03-33.44 1.06-.69 1.2-.71a2.75 2.74-14.4 0 1 2.83 1.67c2.5 6 6.5 11.3 12.42 13.91a1.39 1.39 0 0 0 1.93-1.54c-.74-3.77-1.9-6.5-4.79-9.5q-3.82-3.98-6.85-7.52a.76.76 0 0 1 .16-1.13l74.87-49.34a1.48 1.48 0 0 1 2.09.47q1.05 1.73 3.07 2.98a3.78 3.75 5.1 0 1 1.51 1.79c2.22 5.45 4.92 9.58 10.77 11.17a.64.64 0 0 0 .81-.69c-.59-5.92-3.38-9.6-8.01-12.94q-3.05-2.2-4.43-5.55a1.2 1.2 0 0 1 .45-1.47l68.99-45.47a2.16 2.16 0 0 1 2.62.19l1.95 1.74a2.24 2.03 13.5 0 1 .41.6c2.02 4.52 5.09 11.06 9.24 13.36q1.07.6 1.84.42a2.16 1.88 77.6 0 0 1.36-2.48q-.73-3.44-2.89-7.59a1.28.87 89.4 0 0-.16-.23l-7.6-8.89a1.28 1.28 0 0 1 .27-1.9l63.4-41.79a1 .99 57.6 0 1 1.4.32q6.68 11.17 6.79 11.37 2.4 4.63 7.74 5.61a.84.84 0 0 0 .99-.78c.22-4.76-3.81-10.55-7.25-13.36q-2.24-1.83-4.59-3.63a1.48 1.47 37.9 0 1-.26-2.08q1.11-1.4 3.07-2.67 25.11-16.26 59.78-39.03a1.06 1.06 0 0 1 1.57.53q2.44 6.84 8.68 11.7c1.77 1.39 3.25 2.53 5.02 2.57a1.19 1.18-2 0 0 1.2-1.28c-.59-7.25-5.39-11.79-11.05-15.56a.69.69 0 0 1-.04-1.13q3.38-2.55 6.2-4.42 24.39-16.17 40.31-26.19 11-6.91 16.75-10.23a.95.94 57.1 0 1 1.24.27q2.88 4.02 6.71 7.65a4.89 4.84-85.9 0 1 .66.77q2.56 3.67 3.05 4.43c2.02 3.12 4.31 4.94 7.45 6.77q1.91 1.11 2.31 3.34c.86 4.88 5.61 14.65 11.34 13.46a.77.77 0 0 0 .61-.8q-.33-6.65-4.71-11.28c-1.54-1.64-3.7-2.26-6.13-3.11a1.46 1.44-80.1 0 1-.97-1.4c.1-4.26-3.33-9.33-6.15-11.89q-2.87-2.6-3.26-3.03a3.28 3.19 13.2 0 1-.57-.89q-1.77-4.26-4.99-7.49a.58.57 51.7 0 1 .1-.9q11.95-7.25 25.33-12.22c13.33-4.95 26.25-4.55 39.54-.93q19.65 5.35 35.42 16.38c3.99 2.78 4.64 13.93 11.4 11.66a.49.48 81.1 0 1 .64.47q-.05 8.91 5.72 15.83 1.77 2.12 3.88 3.36a.98.98 0 0 0 1.43-.54q.83-2.52-.27-5.36-3.18-8.25-9.76-15.45a.42.42 0 0 1 .57-.62q9.16 6.96 16.3 14.85 8.25 9.1 13.08 16.27 20.23 30 28.93 67.1 2.42 10.36 3.29 20.21 1.01 11.46 1.33 21.52a.27.26-57.1 0 1-.51.11l-1.67-4.15a.73.72 84.1 0 0-.55-.45l-.45-.09a.57.56-77.8 0 1-.44-.69c1.18-4.97-.61-15.32-5.49-18.09a1.58 1.58 0 0 1-.79-1.54q1.14-10.32-6.37-17.32a1.45 1.43-71.2 0 1-.44-.91c-.44-5.33-1.1-15.38-7.05-17.61a.69.69 0 0 0-.91.46q-2.42 8.75 3.19 15.72c.67.83 1.95 1.31 2.68 2.09a.89.88-56.1 0 1 .18.94q-.88 2.28.03 6.03 1.9 7.81 6.99 11.18a1.6 1.59 19.1 0 1 .71 1.45c-.29 4.29.28 15.38 5.23 17.43a1.37 1.37 0 0 1 .81 1.52l-.84 4.38a1.24.69-55.6 0 0-.02.21q.24 7.39 3.06 12.84a3.32 3.25 35.5 0 1 .34 1.89c-3.02 25.14-11.83 50.9-23.36 72.53q-10.44 19.59-12.73 22.98c-1.55 2.28-2.82 3.77-3.92 5.7q-2.05 3.61-8.09 14.03-.67 1.17-3.27 3.94" vector-effect="non-scaling-stroke"/><path stroke="#84d2ce" d="M1171.15 612.1q-13.82-1.5-27.9-3.1-7.52-.86-15.08-1.15-6.59-.25-13.16-.81-1.11-.1-2.25-.15-40.95-1.97-81.95.92" vector-effect="non-scaling-stroke"/><path stroke="#72c2bf" d="M1030.81 607.81q-.57-8.21-6.14-12.94-.82-.7-1.42-.86a1.19 1.18 8.6 0 0-1.48 1.09q-.35 6.69 2.98 13.37" vector-effect="non-scaling-stroke"/><path stroke="#84d2ce" d="M1024.75 608.47q-37.24 4.02-73.17 13.55-5.04 1.34-6.77 1.94c-5.82 2.05-11.77 3.38-16.84 5.15-19.07 6.64-34.61 11.79-52.07 20.78-2.19 1.12-5.02 2.09-7.67 2.96a3.85 3.76 16.6 0 0-1.1.58q-3.28 2.53-4.63 3.31-25.78 14.84-35.67 21.11-8.07 5.11-23.77 15.78-2.3 1.56-6.74 4.03-2.56 1.43-6.62 4.25-7.4 5.14-16.82 8.21-7.87 2.56-28.48 9.25-7.63 2.47-14.56 3.97-7.38 1.59-14.71 3.51c-7.34 1.92-14.07 2.98-21 4.41q-5.25 1.09-15.86 2.65-15.7 2.32-22.5 3.3-11.83 1.7-22.58 2.63-24.5 2.12-51.18 3.94-13.06.89-23.7 1.12-14.53.32-22.62.59-29.7 1.02-58.74-.05c-10.94-.4-24.57-.46-37.06-1.28-2.57-.17-5.63.02-8.64-.14q-33.32-1.8-65.42-5.63c-7.08-.84-11.78-1.94-17.14-2.18q-6.4-.29-12.89-1.18-12.43-1.7-37.28-5.37-24.16-3.57-60.31-11.95-28.74-6.66-49.24-13.73-12.95-4.46-25.23-12.17a1.29 1.29 0 0 1-.28-1.95q.85-.97 1.97-1.91 18.36-15.57 39.19-26.06a.4.39-63.3 0 0-.24-.74q-4.08.77-8.88.74-35.49-.19-65.68-2.5c-5.12-.4-8.89-1.05-13.23-1.28q-6.28-.34-9.92-.76-30.94-3.63-60.39-10.31c-10.99-2.5-23.88-6.41-34.52-9.54q-5.13-1.51-9.36-4.68m439.74-203.94q3.25.18 6.59-.23 5.23-.64 6.57-.69 12.61-.44 24.2 1.28 5.21.78 12.99 1.98 6.33.98 12.83 2.71 18.35 4.89 36.43 11.83" vector-effect="non-scaling-stroke"/><path stroke="#72c2bf" d="m541.75 445.76-20.86 14.65a3.59 3.58 35.9 0 1-3.13.5q-22.85-7.04-46.7-11.17c-22.84-3.96-44.6-4.7-65.71 3.85q-19.18 7.78-35.3 21.37a.43.43 0 0 0 .18.75l8.23 1.88" vector-effect="non-scaling-stroke"/><path stroke="#84d2ce" d="M378.46 477.59 345.21 490a.15.15 0 0 0 .02.29q4.59 1.2 10.55 2.66 12.97 3.16 30.88 10.42a.28.27-78.3 0 1 .17.27q-.02.71-1.59.47" vector-effect="non-scaling-stroke"/><path stroke="#72c2bf" d="M385.24 504.11q-13.6-5.28-27.71-9.32-8.18-2.34-15.28-3.28c-4.39-.58-9.43-.55-13.65 1.18q-1.47.61-2.82 3.36-.91 1.86-2.21 4.05-.34.57-1.5 1.41a.56.56 0 0 0 .33 1.02l6.31.01" vector-effect="non-scaling-stroke"/><path stroke="#84d2ce" d="m328.71 502.54 3.08.46a1.06 1.05 77.3 0 1 .72.46q.59.91 1.75 1.33 27.1 9.95 53.85 24.92 4.56 2.55 12.54 7.48 6.26 3.86 12.51 7.56" vector-effect="non-scaling-stroke"/><path stroke="#72c2bf" d="m413.16 544.75 11.21 7.48" vector-effect="non-scaling-stroke"/><path stroke="#84d2ce" d="M424.37 552.23q2.08 1.78 4.59 3.52 2.8 1.93 4.63 3.48 7.41 6.25 15.8 10.53a3.51 3.51 0 0 0 2.99.11q9.51-4.02 17.2-6.35 4.85-1.47 11.79-4.49 5.98-2.61 11.73-4.76" vector-effect="non-scaling-stroke"/><path stroke="#72c2bf" d="M493.1 554.27q7.96-.57 14.72.65" vector-effect="non-scaling-stroke"/><path stroke="#84d2ce" d="M507.82 554.92q10.36 1.74 20.29 4.23 22.05 5.55 42.87 14.67 19.06 8.34 37.38 18.43" vector-effect="non-scaling-stroke"/><path stroke="#72c2bf" d="M608.36 592.25q2.01.47 2.85-.05 6.98-4.34 17.45-11.43" vector-effect="non-scaling-stroke"/><path stroke="#84d2ce" d="M628.66 580.77q14.13-7.8 26.54-17.25" vector-effect="non-scaling-stroke"/><path stroke="#72c2bf" d="m655.2 563.52 15.67-10.57a.6.59-36.1 0 0 .14-.86q-6.3-8.19-13.32-16.85-12.79-15.77-29.17-32.08-2.16-2.14-3.34-2.11-23.5.59-45.97 5.57-2.49.55-7.91 2.46" vector-effect="non-scaling-stroke"/><path stroke="#84d2ce" d="m571.3 509.08-1.05.04a.31.31 0 0 1-.14-.59q4.12-2.03 11.09-3.66c14.82-3.46 29.29-4.51 43.28-5.02a.34.34 0 0 0 .28-.5c-2.53-4.49-8.05-8.05-12.48-10.61q-3.66-2.11-8.88-2.31" vector-effect="non-scaling-stroke"/><path stroke="#72c2bf" d="m603.4 486.43-9.88-3.21a.91.9-68.7 0 1-.54-1.24l1.48-3.15" vector-effect="non-scaling-stroke"/><path stroke="#84d2ce" d="M594.46 478.83q5.38-9.26 15.66-13.19 2.47-.95 9-.72" vector-effect="non-scaling-stroke"/><path stroke="#72c2bf" d="M619.12 464.92q6.98 1.6 13.58 5.93" vector-effect="non-scaling-stroke"/><path stroke="#84d2ce" d="m632.7 470.85 9.59 7.62a4.33 4.31-29.4 0 0 3.22.89q13.09-1.71 26.74-1.31 20.15.59 39.13 3.86" vector-effect="non-scaling-stroke"/><path stroke="#72c2bf" d="M711.38 481.91c14.6 3.57 26.62 8.3 37.64 17.21a1.14 1.14 0 0 0 1.35.07l11.45-7.55a.87.87 0 0 0 .22-1.26c-13.65-17.91-28.56-35.05-46.67-52.06q-2.18-2.05-4.41-2.17c-17.14-.96-34.37-.16-50.78 4.77-6.36 1.91-13.36 5.96-19.61 9.39" vector-effect="non-scaling-stroke"/><path stroke="#84d2ce" d="M640.57 450.31q-1.19-.74.89-1.77a3.22 3.16 9.5 0 0 .76-.53q8.95-8.35 15.54-12.99 9.1-6.41 20.67-13.66a4.75 4.75 0 0 0 2.05-2.73q1.14-3.97 3.65-6.22c4.5-4.04 9.31-7.25 15.27-8.37q5.49-1.03 10.81-.14" vector-effect="non-scaling-stroke"/><path stroke="#72c2bf" d="M710.21 403.9q7.32 2.56 13.97 6.57" vector-effect="non-scaling-stroke"/><path stroke="#84d2ce" d="M724.18 410.47q3.35 2.14 7.54 4.01 2.09.93 4.16.69 16.28-1.91 31.8-.23 2.85.31 17.82 1.35 9.44.65 24.76 5.46" vector-effect="non-scaling-stroke"/><path stroke="#72c2bf" d="M810.26 421.75q17.36 4.43 31.93 14.26a1.29 1.29 0 0 0 1.43.01l7.78-5.13a.86.86 0 0 0 .18-1.29c-15.32-17.56-30.53-34.22-47.62-49.1-1.7-1.48-3.98-2.74-5.92-3.04q-16.98-2.63-35.28-.85-7.26.7-11.34 2.26-8.51 3.26-22.17 11.18" vector-effect="non-scaling-stroke"/><path stroke="#84d2ce" d="M729.25 390.05q6.66-7.88 12.36-12.69 4.62-3.9 17.57-12.96 6.28-4.39 7.68-6.54c3.33-5.1 11.17-9.06 16.68-11.32" vector-effect="non-scaling-stroke"/><path stroke="#72c2bf" d="M783.54 346.54c10.2-4.32 20.56-5.16 29.67 2.02" vector-effect="non-scaling-stroke"/><path stroke="#84d2ce" d="m813.21 348.56 7.08 6.52a4.75 4.74-23.7 0 0 3.21 1.25c6.09-.02 12.18.76 18.08 1.21 18.13 1.38 35.9 5.06 53.13 10.74" vector-effect="non-scaling-stroke"/><path stroke="#72c2bf" d="M894.71 368.28q6.45 3.02 12.67 6.09 4.63 2.28 12.87 9.71a.8.79-40.7 0 0 .98.07l9.53-6.27a.86.86 0 0 0 .16-1.29c-16.91-18.57-32.21-35.69-49.93-52.58-3.16-3.02-7.97-7.14-12.64-8.11-15.97-3.34-38.65-2.21-48.55 13.41q-.81 1.28-.64 4.31" vector-effect="non-scaling-stroke"/><path stroke="#84d2ce" d="M819.16 333.62q-1.12 1.69-3.06 2.21-5.79 1.58-9.63 3.19" vector-effect="non-scaling-stroke"/><path stroke="#72c2bf" d="M806.47 339.02c-4.57 1.09-9.02 1.75-11.53-1.73q-9.35-12.95-19.21-22.25-6.53-6.16-13.48-9.77-22.91-11.92-49.78-20.69c-10.92-3.56-18.4-5.16-28.94-4.26q-18.46 1.57-27.74 17.44" vector-effect="non-scaling-stroke"/><path stroke="#84d2ce" d="M655.79 297.76q-3.37 8.81-11.7 14.45-1.21.83-1.35 2.1a.52.52 0 0 0 .47.57q6.25.55 8.47 1.23 7.37 2.26 15.17 4.57 6.85 2.02 18.86 8.11c4.01 2.03 7.95 4.97 10.73 7.72q.38.38.19 1.32" vector-effect="non-scaling-stroke"/><path stroke="#72c2bf" d="m696.63 337.83-16.95 12.48a2.47 2.45 40.4 0 1-2.57.2q-21.01-10.8-40.99-17.1-8.1-2.55-17.98-3.82-7.1-.9-15.39.07c-6.31.74-12 4.53-16.93 8.13q-6.31 4.6-10.17 12.25" vector-effect="non-scaling-stroke"/><path stroke="#84d2ce" d="M575.65 350.04q-13.48 7.39-17.7 10.39-6.45 4.57-6.62 4.61a6.07 5.23-49.2 0 1-.94.14q-1.91.1-2.21.33a.23.23 0 0 0 .14.41q3.66-.05 5.14.2 36.56 6.09 69.07 24.82" vector-effect="non-scaling-stroke"/><path stroke="#72c2bf" d="m622.53 390.94-20.01 13.65a2.55 2.54 40.3 0 1-2.52.2q-11.9-5.67-20.43-9.32-11.8-5.05-27.3-9.64c-7.3-2.16-13.27-2.97-21.02-3.71q-17.48-1.67-30.66 7.31c-3.47 2.36-5.97 3.98-8.48 7.19q-2.08 2.66-4.53 5.84" vector-effect="non-scaling-stroke"/><path stroke="#84d2ce" d="M487.58 402.46q-9.3 5.93-19.38 11.43-.08.05-3.22 1.9-4.33 2.54-9.19 3.37" vector-effect="non-scaling-stroke"/><path stroke="#72c2bf" d="M981.94 342.97q-2.22-1.03-16.14-6.73c-14.4-5.89-28.97-9.51-43.61-12.66q-1.62-.35-3.26-1.19a.32.32 0 0 0-.38.5q16.93 18.66 32.79 39.92a.87.87 0 0 0 1.17.21l29.47-19.43a.36.35-48.9 0 0-.04-.62m190.602 17.557a10.52 3.6-120.3 0 0 2.2 10.9 10.52 3.6-120.3 0 0 8.416 7.266 10.52 3.6-120.3 0 0-2.2-10.9 10.52 3.6-120.3 0 0-8.416-7.266m-97.712 7.06a9.05 3.34-125 0 0 2.454 9.329 9.05 3.34-125 0 0 7.927 5.497 9.05 3.34-125 0 0-2.455-9.329 9.05 3.34-125 0 0-7.927-5.497M841.58 377.38a.24.23-14 0 0-.23.38q16.48 19.4 29.25 39.51a.5.5 0 0 0 .69.15l25.37-16.72a.37.37 0 0 0 0-.62q-4.88-3.24-7.03-4.68c-13.26-8.95-27.67-12.6-44.64-16.73-1.27-.31-2.28-1.07-3.41-1.29" vector-effect="non-scaling-stroke"/><path stroke="#72c2bf" d="M1183.562 379.77a9.52 3.2-116.5 0 0 1.384 9.948 9.52 3.2-116.5 0 0 7.112 7.092 9.52 3.2-116.5 0 0-1.384-9.948 9.52 3.2-116.5 0 0-7.112-7.092m-97.178 3.737a9.52 3.05-119.9 0 0 2.102 9.773 9.52 3.05-119.9 0 0 7.39 6.733 9.52 3.05-119.9 0 0-2.102-9.773 9.52 3.05-119.9 0 0-7.39-6.733m-96.478 5.077a9.44 3.44-129.1 0 0 3.284 9.495 9.44 3.44-129.1 0 0 8.624 5.157 9.44 3.44-129.1 0 0-3.284-9.495 9.44 3.44-129.1 0 0-8.624-5.157" vector-effect="non-scaling-stroke"/><path stroke="#72c2bf" d="M1193.49 398.04q-2.33.79-1.24 6.52 1.45 7.62 6.71 11.47.33.23.72.1.38-.13.49-.52 1.81-6.26-1.71-13.18-2.64-5.19-4.97-4.39m-86.35 19.16q1.41-11.12-8.7-16.38a.77.77 0 0 0-1.01.27c-2.3 3.59.54 7.7 2.78 11.74q1.58 2.86 6.22 4.79a.52.51-75 0 0 .71-.42m-103.893-13.379a9.64 3.28-125.9 0 0 2.996 9.732 9.64 3.28-125.9 0 0 8.31 5.886 9.64 3.28-125.9 0 0-2.996-9.732 9.64 3.28-125.9 0 0-8.31-5.886m113.913 32.929q.73.7.7 1.37-.38 9.18 6.17 15.14.83.75 1.23.68a2.51 2.33-4.7 0 0 2.06-2.26q.27-10.47-9.22-14.71-.35-.15-.94-.22m0 0c.47-6.98-2.32-15.44-9.06-18.64a.59.59 0 0 0-.82.39q-.66 2.57.06 5.21 2.32 8.64 9.82 13.04" vector-effect="non-scaling-stroke"/><path stroke="#72c2bf" d="M1016.32 420.9a1.05 1.05 0 0 0-1.5 1.07q.97 8.43 7.64 13.08a2.56 2.54 71.7 0 0 .67.34l2.89 1.02a2.01 2.01 0 0 1 1.34 2.04c-.53 7.55 4.75 14.56 11.33 16.98a.89.89 0 0 1 .54 1.1c-1.36 4.42 3.46 11.27 6.46 14.59q1.21 1.33 2.59 1.67a1.86 1.55-84.5 0 0 1.91-1.9c0-2.56-1.35-4.92-2.28-7.07q-2.35-5.43-8.08-8.04a1.5 1.49 10.4 0 1-.86-1.23q-.86-11.7-11.23-17.5a1.3 1.29 7.2 0 1-.63-.81q-.24-.9-.36-2.3c-.47-5.78-5.14-10.52-10.43-13.04m-263.77 14.4a.24.24 0 0 0-.18.4q16.82 19.56 30.69 40.83a.32.31 55.8 0 0 .44.09l35.77-23.57a.39.39 0 0 0-.06-.68q-17.57-7.29-35.52-11.26-8.89-1.97-28.16-4.93c-1.17-.18-2.04-.87-2.98-.88m169.29.81c-.29 2.9 2.2 6.47 4.61 9.72q2.36 3.19 6.3 4.76a.89.89 0 0 0 1.21-.98c-1.06-6.24-4.3-12.65-10.86-14.38a1.01 1.01 0 0 0-1.26.88m13.05 16.12c-.11 6.27 5.46 13.49 11.46 15.93a1.35 1.35 0 0 1 .83 1.23q.07 6.97 5.18 12.56 2.74 2.99 4.38 3.06a1.21 1.2 27.5 0 0 .74-.23c1.19-.89 1.72-2.48 1.24-4.07q-2.47-8.22-10.39-12.17a1.04 1.04 0 0 1-.58-1.01q.06-.9-1.18-4.77-2.61-8.11-9.95-11.6a1.21 1.21 0 0 0-1.73 1.07m193.016 3.814a9.35 3.4-117.2 0 0 1.25 9.87 9.35 3.4-117.2 0 0 7.298 6.762 9.35 3.4-117.2 0 0-1.25-9.87 9.35 3.4-117.2 0 0-7.298-6.762" vector-effect="non-scaling-stroke"/><path stroke="#72c2bf" d="M1051.214 474.732a9.77 3.23-119.2 0 0 1.947 10.104 9.77 3.23-119.2 0 0 7.585 6.952 9.77 3.23-119.2 0 0-1.947-10.104 9.77 3.23-119.2 0 0-7.585-6.952m85.966.138q-1.71 10.7 7.67 17.32a1.97 1.97 0 0 1 .75 2.19q-1 3.22-.08 6.03c1.29 3.98 4 8.36 6.99 11.69a1.7 1.7 0 0 1 .45 1.13c.09 5.53 2.62 13.33 7.57 16.79a1.26 1.26 0 0 1 .53 1.2q-1.37 10.11 5.6 16.88a.98.98 0 0 0 1.66-.62c.57-6.9-.32-14.5-6.74-18.2a.93.92 25.6 0 1-.41-1.14c1.25-3.22-.27-7.22-1.65-10.46q-1.64-3.84-5.3-5.78a1.02 1.01-68.4 0 1-.5-1.17q1.6-5.52-1.21-10.64-1.84-3.35-3.34-4.77-2.1-1.97-2.95-2.81a1.19 1.18 25.7 0 1-.35-.99c.69-5.78-1.42-14.78-7.75-17.2a.71.7-74.9 0 0-.94.55m-283.59 6.48q-.49 2.85.87 5.4c1.95 3.67 5.71 10.22 9.82 10.65a.8.79-4.3 0 1 .68.58c.32 1.17.01 2.99.71 4.19 2.71 4.69 5.11 8.63 10.15 11.02a.79.79 0 0 0 1.12-.62c.66-5.62-4.23-11.84-8.47-14.45q-2.8-1.71-3.41-1.95a.89.87 9.6 0 1-.57-.79q-.24-6.6-5.53-11.61c-1.31-1.24-2.79-1.74-4.16-2.87a.75.74 24.4 0 0-1.21.45m105.453 4.224a10.14 3.2-123.5 0 0 2.929 10.222 10.14 3.2-123.5 0 0 8.265 6.69 10.14 3.2-123.5 0 0-2.929-10.222 10.14 3.2-123.5 0 0-8.265-6.69" vector-effect="non-scaling-stroke"/><path stroke="#72c2bf" d="M1062.023 492.99a9.62 3.15-117.4 0 0 1.63 9.99 9.62 3.15-117.4 0 0 7.224 7.09 9.62 3.15-117.4 0 0-1.63-9.99 9.62 3.15-117.4 0 0-7.224-7.09m-400.983 4.44a.34.34 0 0 0-.3.56q16.35 19.11 30.01 40.3a.41.41 0 0 0 .57.12l36.72-24.2a.79.78-50.2 0 0-.12-1.38c-10.06-4.35-18.46-6.72-30.49-9.65q-6.57-1.61-13.15-2.53-18.94-2.65-23.24-3.22m321.95 21.74c-.58-5.96-4.13-14.12-10.54-15.81a.69.68 19.7 0 0-.79.37c-2.2 4.69 5.05 17.14 10.76 16.18a.69.68-7.7 0 0 .57-.74" vector-effect="non-scaling-stroke"/><path stroke="#72c2bf" d="M1090.12 545.71q2.22-12.31-9.22-16.6a.7.7 0 0 1-.45-.77q1.66-9.89-6.23-16.67a1.43 1.42-60.5 0 0-2.28.64c-1.34 4.11.75 7.31 2.91 10.94q2.64 4.45 5.46 6.34a1.42 1.39 11.8 0 1 .61.91q.55 2.87.9 4.42c.62 2.7 4.01 10.77 7.46 11.37a.72.72 0 0 0 .84-.58m-211.898-30.85a9.5 3.11-124.7 0 0 2.851 9.58 9.5 3.11-124.7 0 0 7.965 6.04 9.5 3.11-124.7 0 0-2.851-9.58 9.5 3.11-124.7 0 0-7.965-6.04M984.64 531.5c1.92 3.2 4.33 5.61 7.8 6.67a.77.77 0 0 0 1-.8q-.36-5.2-2.88-9.41-2.52-4.2-6.93-6.99a.77.77 0 0 0-1.17.51c-.71 3.56.27 6.82 2.18 10.02m-206.06-.29c-.44 4.76 5.16 10.93 8.58 13.68q1.59 1.28 3.77 1.19a.87.86-89.7 0 1 .9.91c-.33 6.18 4.22 11.14 9.33 14.19q2.05 1.22 3.15.59a.93.92-19.6 0 0 .46-.96q-1.63-10.2-11.26-13.73a2.66 2.45 70.5 0 1-.55-.29q-.94-.64-1.66-2.84c-1.79-5.41-5.71-12.13-12.03-13.26a.58.58 0 0 0-.69.52" vector-effect="non-scaling-stroke"/><path stroke="#72c2bf" d="M890.66 531.21a.43.42 16.3 0 0-.57.31c-1.25 6.04 5.25 15.16 11.3 16.55a.79.78-81.2 0 1 .61.84q-.55 5.87 3.09 10.54c1.55 2 4.35 5.06 6.39 5.34a1.62 1.61-.9 0 0 1.81-1.86c-1.05-6.28-4.7-12.03-10.72-14.89a1.02 1.02 0 0 1-.57-.73c-1.38-7.17-4.13-13.34-11.34-16.1m103.3 8.81q-.62.32-.71 1.31c-.51 6.26 3.58 13.49 9.54 16.1q.08.03.2-.03-.02.01 0-.07c1.36-6.37-2.11-13.91-7.5-17.15q-.85-.51-1.53-.16m120.83 64.19q.93-8.49-3.37-15.55c-.97-1.6-2.79-2.88-3.99-4.15a1.3 1.3 0 0 1-.34-.99c.48-5.75-1.16-11.65-5.42-15.49q-1.5-1.35-2.24-2.5a1.7 1.7 0 0 1-.27-1.05q.72-10.52-7.5-17.67a.53.53 0 0 0-.81.14q-1.97 3.43-.48 7.58c1.54 4.28 3.84 9.54 7.67 11.28a1.58 1.57 24.4 0 1 .79 2.08c-2.12 4.73 1.61 11.78 4.78 15.3.75.84 1.69 1.28 2.9 1.7a1.04 1.04 0 0 1 .63 1.36c-2.3 6 2.78 14.55 6.96 18.23a.42.42 0 0 0 .69-.27m53.974-54.457a10.02 3.26-108.6 0 0 .106 10.537 10.02 3.26-108.6 0 0 6.286 8.457 10.02 3.26-108.6 0 0-.106-10.537 10.02 3.26-108.6 0 0-6.286-8.457" vector-effect="non-scaling-stroke"/><path stroke="#72c2bf" d="M1003.787 558.286a9.28 3.26-116.1 0 0 1.155 9.768 9.28 3.26-116.1 0 0 7.01 6.9 9.28 3.26-116.1 0 0-1.154-9.768 9.28 3.26-116.1 0 0-7.01-6.9m-199.079 4.509a9.84 3.35-127.8 0 0 3.384 9.828 9.84 3.35-127.8 0 0 8.678 5.722 9.84 3.35-127.8 0 0-3.384-9.828 9.84 3.35-127.8 0 0-8.678-5.722m108.956 3.763a9.97 3.13-120.6 0 0 2.38 10.175 9.97 3.13-120.6 0 0 7.77 6.989 9.97 3.13-120.6 0 0-2.38-10.175 9.97 3.13-120.6 0 0-7.77-6.989m261.995 14.392q1.22 4.93 5.9 9.31a.49.49 0 0 0 .75-.12c1.6-2.74 1.01-7.79.24-10.89q-1.22-4.93-5.9-9.3a.49.49 0 0 0-.76.11c-1.59 2.74-1 7.8-.23 10.89" vector-effect="non-scaling-stroke"/><path stroke="#72c2bf" d="M1012.677 576.287a9.32 3.32-116.6 0 0 1.204 9.82 9.32 3.32-116.6 0 0 7.142 6.846 9.32 3.32-116.6 0 0-1.204-9.82 9.32 3.32-116.6 0 0-7.142-6.846m-194.987 3.334a9.95 3.48-126.3 0 0 3.085 10.08 9.95 3.48-126.3 0 0 8.696 5.958 9.95 3.48-126.3 0 0-3.086-10.08 9.95 3.48-126.3 0 0-8.696-5.958M698.75 583.51a2.53 2.04 80.9 0 0-1.6 2.79c.94 6.1 7.01 10.41 12.57 11.83a1.35 1.3 81.9 0 1 .82.64c1.02 1.87.35 4.08 1.28 6.07q3 6.43 9.51 9.53a1.76 1.76 0 0 0 2.46-2.04q-1.58-6.01-6.31-10.31c-1.91-1.72-4.66-2.76-6.66-4.32a1.24 1.21 13.7 0 1-.45-.72q-1.4-6.74-6.92-11.04-1.69-1.31-2.21-1.53-2.24-.94-2.49-.9m226.608 1.416a9.59 3.31-121.3 0 0 2.154 9.914 9.59 3.31-121.3 0 0 7.81 6.474 9.59 3.31-121.3 0 0-2.154-9.914 9.59 3.31-121.3 0 0-7.81-6.474" vector-effect="non-scaling-stroke"/><path stroke="#72c2bf" d="M830.186 596.521a9.96 3.16-124.8 0 0 3.09 9.983 9.96 3.16-124.8 0 0 8.278 6.375 9.96 3.16-124.8 0 0-3.09-9.983 9.96 3.16-124.8 0 0-8.278-6.375m106.044 6.589q-.61.38-.62 1.4c-.04 6.45 4.71 13.52 11.01 15.73q.08.03.21-.05-.02.02-.01-.07c.89-6.62-3.25-14.06-9.01-16.96q-.92-.45-1.58-.05" vector-effect="non-scaling-stroke"/><path stroke="#72c2bf" d="M842.91 613.86c-.21 7.29 2.61 11.47 8.05 15.99a2.21 2.19 66.4 0 0 1.23.49q.81.05 1.37-.1a.47.46 80.7 0 1 .58.42q.17 2.28.01 3.5a2.97 2.92-44.6 0 0-.01.64q.52 5.76 4.31 10.32c2.06 2.48 5.65 4.2 7.73 6.28a.52.52 0 0 0 .87-.51q-.49-1.76-3.44-10.42c-1.46-4.29-3.28-6.88-7.15-8.95a3.01 3-81.9 0 1-1.51-2.02c-1.25-5.88-5.4-14.24-11.44-16.07a.47.46-80.5 0 0-.6.43m-106.97 15.22q1.09-2.77.41-4.33-3.3-7.51-10.67-10.46a.6.59 14.1 0 0-.81.48c-.81 6.85 3.45 13.1 10.19 14.77a.76.76 0 0 0 .88-.46m13.67 16.46q.55-.44.43-1.44c-.76-6.27-6.25-12.55-12.65-13.92q-.09-.02-.2.07.02-.02.02.07c-.05 6.54 4.9 13.26 10.85 15.37q.95.33 1.55-.15" vector-effect="non-scaling-stroke"/><path stroke="#72c2bf" d="M750.734 646.67a10.04 3.37-129.2 0 0 3.734 9.91 10.04 3.37-129.2 0 0 8.958 5.65 10.04 3.37-129.2 0 0-3.734-9.91 10.04 3.37-129.2 0 0-8.958-5.65" vector-effect="non-scaling-stroke"/><path stroke="#72c2bf" d="M764.53 663.509a10.16 3.22-127.4 0 0 3.612 10.027 10.16 3.22-127.4 0 0 8.729 6.115 10.16 3.22-127.4 0 0-3.613-10.027 10.16 3.22-127.4 0 0-8.729-6.115" vector-effect="non-scaling-stroke"/><path stroke="#72c2bf" d="M791.96 696.73q-.4-1.75-3.63-8.21-2.63-5.27-6.71-7.27c-3.11-1.52-3.99 1.52-2.94 3.59q4.31 8.53 12.88 12.22a.29.29 0 0 0 .4-.33" vector-effect="non-scaling-stroke"/><path stroke="#60bab8" d="M893.11 262.42q-8.86-2.93-17.67-3.99-20.72-2.48-39.82 5.6-9.78 4.13-18.64 9.97-14.79 9.74-29.65 20.19m19.14 44.83q-1.94 1.84-5.3 1.49a.46.45 8.4 0 0-.49.36l-.06.33a.75.75 0 0 0 .61.88q6.53 1.12 12.09 5.27.63.47.44 1.14-.03.09-.55.07m-29.67-2.02q-.48.08-.6.01a.34.34 0 0 1 .02-.6l4.72-2.28a.73.73 0 0 0 .27-1.09q-9.9-13.53-23.84-23.24c-1.76-1.23-2.77-1.47-4.56-.3q-12.74 8.29-26.81 18.95-2.33 1.77-4.13 4.06a.45.45 0 0 1-.77-.1q-1.55-3.59-2.83-6.99-.58-1.52-3.55-6.59-2.38-4.07-3.89-8.44" vector-effect="non-scaling-stroke"/><path stroke="#72c2bf" d="M717.57 319.93q.94-.22 1.53-.83 7.91-7.96 15.94-15.63a.62.62 0 0 0-.19-1.02q-12.33-5.19-24.14-9.06c-6.1-2-13.81-3.4-20.69-5.19" vector-effect="non-scaling-stroke"/><path stroke="#60bab8" d="M690.02 288.2c-6.09-1.86-10.87-3.06-16.84-1.27q-7.95 2.39-17.39 10.83" vector-effect="non-scaling-stroke"/><path stroke="#84d2ce" d="M690.02 288.2c3.18 1.65 6.33 3.16 8.88 5.63q3.56 3.44 7.08 8.17 7.23 9.68 11.59 17.93" vector-effect="non-scaling-stroke"/><path stroke="#60bab8" d="m729.25 390.05-15.09 11.51a2.1 1.84 13.7 0 1-.61.32q-2.29.75-3.34 2.02m-69.64 46.41-19.35 13.25a.78.72-65.8 0 1-.28.12l-2.54.54a.3.3 0 0 0-.05.58q.22.08.77.12m-24.66 13.91q-1.55.57-2.83 2.25a2.94 2.86-84.5 0 1-.92.78q-10.2 5.34-18.77 11.35-12.27 8.6-25.8 18.01c-2.77 1.93-5.44 4.66-8.11 5.9a.35.35 0 0 0 .08.66l3.56.68a3.29 3.27-58 0 0 2.58-.6c12.32-9.32 21.82-16.2 34.75-22.58q13.08-6.45 24.4-8.85m-32.1 22.65q-11.35 4.01-22.32 9.87a.59.59 0 0 0 .17 1.1l11.41 2.19a1.07 1.05 26.2 0 0 1-.33q.52-.59 1.98-1.34 11.29-5.77 24.78-7.67c12.26-1.73 21.47-2.87 30.94-3.11 4.3-.11 6.01 1.83 9.37 5q5.7 5.37 12.26 12.11a.76.76 0 0 1-.14 1.17q-9.49 5.98-19.41 12.77-.81.55-2.64.05a.24.23-70.7 0 0-.28.14v.01a.23.22-69 0 0 .12.28q10.4 4.84 24.33 13.35 7.49 4.58 12.33 8.85m-26.54 17.25q-8.26-3.93-16.62-8.18-8.84-4.49-15.64-7.48-12.45-5.48-15.93-6.84-26.35-10.35-54.29-15.93-9.08-1.81-17.66-1.18a3.01 2.97-71.9 0 0-2.09 1.08l-7.35 8.91a3.22 3.16 16 0 1-2.09 1.13q-2.7.3-3.89 1.99m-68.73-2.04q3.99-4.43 7.22-6.89 8.61-6.55 9.05-7.19.6-.84 1.84-1.14a.37.37 0 0 0 .13-.65c-4.21-3.23-8.59-5.5-12.6-8.49q-3.49-2.61-10.15-6.49-17.6-10.25-34.62-17.27m-6.78-26.52q1.83.51 2.53-.46.88-1.21.99-1.29 1.39-1.1 2.86-2.01 18.19-11.26 38.43-18.03" vector-effect="non-scaling-stroke"/><path stroke="#84d2ce" d="M423.27 455.8q2.07 1.7 3.12 3.56 4.72 8.32 22.77 40.71 1.73 3.1.96 7.14" vector-effect="non-scaling-stroke"/><path stroke="#60bab8" d="M450.12 507.21q.09-1.11-.62-.08a.64.63 37.2 0 0 .12.84l14.68 12.11a.72.72 0 0 0 .88.02q11.61-8.65 25.52-17.65c2.67-1.72 5.8-4.29 8.36-5.96q28.74-18.74 57.43-38" vector-effect="non-scaling-stroke"/><path stroke="#84d2ce" d="M556.49 458.49c2.39 5.27 8.41 14.88 15.96 12.07 8.5-3.16 7.66-17.48 6.79-24.63" vector-effect="non-scaling-stroke"/><path stroke="#60bab8" d="M579.24 445.93q23.16-16.46 46.78-32.41 9.27-6.26 18.39-12.16" vector-effect="non-scaling-stroke"/><path stroke="#84d2ce" d="M644.41 401.36q1.34 2.26 2.95 5.38 1.75 3.41 4.92 5.06c6.62 3.44 14.16-.74 15.96-7.63q1.79-6.86.39-16.95" vector-effect="non-scaling-stroke"/><path stroke="#60bab8" d="m668.63 387.22 36.29-28.52a1.67 1.66 60.8 0 0 .53-1.9q-3.86-10.36-8.82-18.97m480.82 274.15-6.3.12M894.71 368.28q3.63.85 6.04-.12c2.05-.83 2.99-1.09 4.74-1.4a.87.86 65.2 0 0 .51-1.4q-9.11-11.17-20.12-23.64-3.01-3.42-7.45-7.86c-4.38-4.37-9.18-9.8-14-10.8q-12.83-2.65-25.3 1.57-9.18 3.11-16.94 8.33-2.55 1.71-3.03.66" vector-effect="non-scaling-stroke"/><path stroke="#72c2bf" d="M668.63 387.22q-1.01-3.96-2.07-6.52-2.31-5.55-6.68-14.46" vector-effect="non-scaling-stroke"/><path stroke="#60bab8" d="M659.88 366.24q6.5-4.21 11.25-8.34 1.03-.9 2.15-2.43a.37.37 0 0 0-.17-.57l-25.07-9.52" vector-effect="non-scaling-stroke"/><path stroke="#72c2bf" d="M648.04 345.38q-10.93-4.49-22.16-7.76-10.9-3.18-22.18-2.02" vector-effect="non-scaling-stroke"/><path stroke="#60bab8" d="M603.7 335.6q-.68 1.71-2.23 2.39-14.37 6.29-25.82 12.05" vector-effect="non-scaling-stroke"/><path stroke="#84d2ce" d="M648.04 345.38q-1.24.76-2.46.76a.48.48 0 0 0-.37.8c5.3 6.08 9.77 12.67 14.67 19.3" vector-effect="non-scaling-stroke"/><path stroke="#72c2bf" d="M644.41 401.36q-3.07-10.53-7.6-19.78" vector-effect="non-scaling-stroke"/><path stroke="#84d2ce" d="M636.81 381.58q-4.92-10.52-12.1-20.05-9.76-12.93-21.01-25.93" vector-effect="non-scaling-stroke"/><path stroke="#60bab8" d="m636.81 381.58-14.28 9.36m187.73 30.81q-.33-.44-.42-.83a.43.43 0 0 1 .6-.49q1.23.56 2.34-.14 5.63-3.56 10.09-7.76a.66.65 47.2 0 0 .03-.92q-11.12-12.34-22.74-22.28-4.92-4.2-11.38-4.42-17.96-.6-31.54 1.29-5.16.71-10.72 3.79-12.53 6.93-21.89 17.41-.54.6-.45 3.07" vector-effect="non-scaling-stroke"/><path stroke="#72c2bf" d="m579.24 445.93-7.19-19.29" vector-effect="non-scaling-stroke"/><path stroke="#60bab8" d="m572.05 426.64 22.81-16.99a.44.44 0 0 0-.14-.78q-3.39-1.02-6.66-2.46-12.59-5.53-27.9-10.46-2.26-.72-5.61-2.08" vector-effect="non-scaling-stroke"/><path stroke="#72c2bf" d="M554.55 393.87q-14.51-6.86-33.05-5.94-.54.03-1.12.57" vector-effect="non-scaling-stroke"/><path stroke="#60bab8" d="M520.38 388.5q-.63.41-1.09.53c-10.04 2.66-18.88 6.88-27.95 11.53a2.48 2.45-79 0 0-.6.41q-1.64 1.49-3.16 1.49" vector-effect="non-scaling-stroke"/><path stroke="#84d2ce" d="M554.55 393.87q3.26 6.56 6.97 12.46 3.11 4.96 5.17 9.38 2.54 5.47 5.36 10.93" vector-effect="non-scaling-stroke"/><path stroke="#72c2bf" d="m556.49 458.49-6.45-17.88" vector-effect="non-scaling-stroke"/><path stroke="#84d2ce" d="M550.04 440.61q-8.41-19.67-20.58-38.39-4.48-6.9-9.08-13.72" vector-effect="non-scaling-stroke"/><path stroke="#60bab8" d="m550.04 440.61-8.29 5.15m169.63 36.15q.81-.77 2.41-.95 1.62-.18 2.46-.7 8.19-5.15 16.21-11.25a.6.59-39.3 0 0 .09-.87c-7.22-8.01-14.02-15.3-21.78-22.02-2.29-1.98-3.98-2.16-7.02-2.25q-14.08-.41-26.95 1.29c-12.56 1.66-23.34 6.97-33.4 13.74q-8.43 5.68-12.55 8.13a.56.56 0 0 0-.07.91l2.54 2.09a.48.47 62.8 0 1-.27.84q-.16.01-.35-.02" vector-effect="non-scaling-stroke"/><path stroke="#72c2bf" d="m450.12 507.21 21.15-15.1" vector-effect="non-scaling-stroke"/><path stroke="#60bab8" d="m471.27 492.11 37.09-24.3a.58.58 0 0 0-.12-1.03c-17.14-6.24-30.99-8.39-52.77-12.42q-2.28-.42-5.3-.28" vector-effect="non-scaling-stroke"/><path stroke="#72c2bf" d="M450.17 454.08q-11.2-1.59-23.15.19-1.64.24-3.75 1.53" vector-effect="non-scaling-stroke"/><path stroke="#84d2ce" d="m450.17 454.08 21.1 38.03" vector-effect="non-scaling-stroke"/><path stroke="#60bab8" d="M1016.94 830.96q1.46-2.21 3.69-3.87 3.41-2.54 4.18-3.31 7.91-7.89 15.36-16.84c12.18-14.6 22.51-25.57 33.49-39.15q12.74-15.74 31.3-38.1 14.02-16.88 35.01-42.59c16.63-20.37 29.02-36.92 46.31-59.08q3.72-4.77 9.37-13.09a2.67 2.56-.8 0 1 .73-.72q1.45-.98 2.07-2.18m-785.29-67.28q2.32-2.63 3.85-5.06 1.09-1.71-.17-3.8-.59-.98-.85-1.2-5.47-4.57-13.67-11.06-5.45-4.31-15.05-9.31c-13.88-7.22-28.36-12.65-43.71-14.63q-4.51-.58-7.53.82-4.22 1.96-7.32 2.03m279.65 89.71q-.35-4.11-1.25-6.07c-2.02-4.42-9.28-8.87-13.4-11.15q-23.98-13.24-48.96-20.02-2.45-.67-13.77-3.49-7.25-1.81-13.23-1.79c-3.57.01-7.04 3.08-9.93 5.19m522.99 52.89-6.06.66m165.83 3.95-1.25 3.01a3.17 3.1 75.3 0 1-.42.74c-6.9 9.1-12.74 17.47-19.53 26.06q-53.42 67.58-76.3 94.61-18.01 21.28-24.31 29.08c-6.45 7.99-14.29 17.38-19.06 22.43q-2.29 2.42-10.02 12.14-2.59 3.25-10.14 12.06-6.79 7.92-14.74 19.46" vector-effect="non-scaling-stroke"/><path stroke="#a8dedc" d="m772.54 871.54 21.67-.5" vector-effect="non-scaling-stroke"/><path stroke="#60bab8" d="m794.21 871.04-1.54.3a.28.25-8 0 0-.22.26v.01a.24.24 0 0 0 .23.23q5.98.21 10.15-.1c20.6-1.51 41.46-3.48 62.15-6.44q8.63-1.23 15.17-2.18 13.01-1.87 40.82-7.95 16.68-3.65 25.51-6.39 1.68-.52 2.73-2.55a1.04 1.02-44.4 0 0 .02-.92q-.91-1.92-1.91-3.39-11.36-16.7-25-33.19-5.83-7.06-13.58-15.4-11.38-12.26-14.14-14.87-14.13-13.38-32.24-25.22-17.37-11.34-38.08-12.2-7.49-.31-15.15 2.14-6.86 2.2-12.47 8.5c-7.11 7.99-10.43 16.75-13.08 27.24-5.44 21.6-9.94 42.59-13.49 63.01-1.77 10.12-3.8 17.35-4.11 27.03a2.45 2.44-72.4 0 0 1.09 2.11q2.41 1.6 5.47.47" vector-effect="non-scaling-stroke"/><path stroke="#96cecd" d="M794.21 871.04q49.37-2.76 88.21-9.44 37.59-6.46 62.69-13.32 1.47-.4 2.4-.82a1.64 1.63-26.2 0 0 .77-2.25q-2.05-3.87-3.73-6.25-18.91-26.63-37.56-46.46-12.97-13.79-23.74-23.03-7.29-6.26-18.65-13.82-7.16-4.76-14.88-8.14c-13.31-5.81-29.73-8.13-43.12-2.39-9.01 3.87-15.85 14.44-19.07 23.42q-2.24 6.26-4.67 16.59-7.91 33.6-15.51 77.24-.6 3.5-.39 6.71a2.27 2.27 0 0 0 2.03 2.1l3.55.36" vector-effect="non-scaling-stroke"/></g><path fill="#72cac7" d="m1339.5 106.94-5.23-.41a1.21 1.2-58.2 0 0-.76.18q-2.69 1.62-6.1 4.46c-4.56 3.82-6.43 10.63-7.14 16.34q-1.05 8.45-1.22 10.74-2.41 33.39-2.08 67.19.02 1.74-.29 3.55-.29 1.73-.58 3.52-2.88-3.71-6.44-7.17c-6.1-5.92-18.34-11.41-26.91-12.82q-7.15-1.18-20.69-2.07.02-3.41-.35-6.65-.51-4.48-.69-6.62-.71-8.34-1.8-23.68-.3-4.21-.24-20.82c.02-4.26.56-7.73 1.09-12.67q.95-8.73 4.57-15.13 3.32-5.86 10.88-7.64c2.81-.65 8.42-.32 12.29.19q13.49 1.81 22.99 3.45 2.66.46 10.45 1.39 1.15.13 10.44 1.55 4.51.7 7.81 3.12"/><path fill="#4eaaa8" d="M1339.5 106.94q3.51 1.72 6.13 6.19 2.5 4.26 3.79 9.48 2.02 8.18 1.44 16.11-.86 11.95-3.94 29.04-1.04 5.77-7.76 35.49-.48 2.13-1.45 8.16c-.56 3.51-1.3 7.38-1.69 10.9q-.57 5.16-1.38 13.06-.44 4.29-.29 7.76.03.66.79.95-.63.24-.63.67-.12 12.97-.63 23.62a.21.21 0 0 1-.41.02c-2.04-12.84-4.15-26.46-8.86-38.7q-1.07-2.79-4.17-8.63-2.24-4.23-4.34-8.55.29-1.79.58-3.52.31-1.81.29-3.55-.33-33.8 2.08-67.19.17-2.29 1.22-10.74c.71-5.71 2.58-12.52 7.14-16.34q3.41-2.84 6.1-4.46a1.21 1.2-58.2 0 1 .76-.18z"/><path fill="#96d9d5" d="m870.77 232.74-.38.2a1.66 1.62 32.2 0 1-.88.19q-30.15-1.8-56.79 14.08-17.91 10.68-48.23 31.26-.64.44-1.22.43a.35.35 0 0 0-.16.67q7.79 3.84 15.11 7.97 4.26 2.4 9.11 6.65 3.72 3.44 7.42 6.88 4.37 4.07 6.92 7.39 3.83 4.99 6.88 10.75 1.43 2.71 2.94 8.47a.29.29 0 0 0 .57-.07v-3.84a4.08 4.07 67.5 0 1 1.18-2.87q5.94-5.99 14.1-12.37 2.53-1.98 4.64-3.18 1.45-.84 4.54-3.32 2.03-1.62 6.46-2.72c1.84-.46 4.12.07 6.04-.94a1.92 1.89-2.2 0 0 .87-.92q3-6.71 11.43-11.84 9.16-5.58 16.73-.42a.65.65 0 0 0 .92-.19l14.14-22.58 13.32-22.78q10.23-19.64 20.7-39.22 9.41-17.59 21.66-32.38 4.85-5.85 12.3-10.97 8.5-5.85 19.18-6.8 11.59-1.03 23.33 1.39 38.29 7.88 65.52 35.5c10.56 10.72 17.42 22.92 20.71 37.23q1.05 4.59 1.25 7.49c.21 3.29.93 6.58.88 10.11q-.2 13.8-3.29 28.04-10.89-.99-19.18-.5c-23.76 1.42-45.87 12.49-65.87 25.35q-8.54 5.49-25.02 16.56a.25.25 0 0 0 .06.44q15.66 5.67 27.98 15.17a1.29 1.28 47 0 0 1.49.06q14.14-9.27 28.87-18.09c16.06-9.63 36.37-20 55.5-18.72q7.89.53 13.28 1.68c10.61 2.28 21.06 4.9 30.83 9.53q25.02 11.86 44.49 31.39c7.25 7.29 15.64 17.18 24.01 23.65q20.99 16.24 48.66 20.41c12.62 1.9 26.66 1.69 38.24-3.07q18.93-7.79 30-25.25 15.06-23.75 13.88-51.6-.32-7.69-.97-15.15a.08.07-4.1 0 0-.08-.06h-.26a.3.3 0 0 0-.3.3q-.17 16.46-5.14 32.07c-11.48 36.09-48.74 55.5-84.7 41.18a1.02 1.02 0 0 1-.4-1.61q7.1-8.36 11.86-18.85c10.78-23.74 15.46-50.69 16.43-76.92q.36-9.52-.86-17.22-.47-2.97-1.68-4.99a2.27 2.26 65.1 0 0-2.66-.98q-2.91.97-5.54 3.28c-10.75 9.44-17.76 24.04-22.9 37.31-8.31 21.44-15.29 44.19-22.09 64.56a1.5 1.5 0 0 1-2.19.82q-3.94-2.31-7.52-5.17-7.71-6.18-18.38-14.86-22.89-18.64-48.76-33.01-12.91-7.16-31.27-13.15 14.77-25.22 35.15-45.46 2.67-2.66 9.83-8.23c18.65-14.53 41.25-23.99 64.56-28.37q7.86-1.47 12.99-1.62c2.3-.07 4.29-.69 6.67-.8q12.2-.57 24.38.34 13.54.89 20.69 2.07c8.57 1.41 20.81 6.9 26.91 12.82q3.56 3.46 6.44 7.17 2.1 4.32 4.34 8.55 3.1 5.84 4.17 8.63c4.71 12.24 6.82 25.86 8.86 38.7a.21.21 0 0 0 .41-.02q.51-10.65.63-23.62 0-.43.63-.67 4.96 6.44 8.61 13.94 10.02 20.61 14.67 42.78 5.3 25.27 9.56 54.2 1.96 13.36 4.02 25.25 2.21 12.79 3.2 20.17.19 1.45 8.54 55.09.35 2.29.57 6.22-.3.17-.51.08-7.53-3.14-16.71-5.14c-5.73-1.25-10.2-1.03-16.57-.89-9.81.22-18.55 3.53-26.38 9.83-8.93 7.19-16.42 16.19-22.6 24.93q-11.22 15.86-20.02 28.73a8.31 8.01 85.6 0 1-.89 1.08q-2.55 2.57-3.23 3.56-20.34 29.73-42.41 54.08c-3.02 3.34-7.34 7.16-11.02 11.31q-11.48 12.92-25.52 22.73l-7.87.39-13.13-.44c23.05-34.24 42.62-71.2 49.34-111.81q3.87-23.31 1.89-44.19-3.11-32.89-17.7-63.51c-11.14-23.38-25.94-44.69-46.54-60.69q-11.54-8.96-23.17-15.29-9.69-5.27-18.6-7.87c-4.39-1.28-12.66-3.94-18.34-4.7q-13.09-1.76-26.32 1.66c-6.53 1.69-16.36 5.06-22.33 8.36-7.7 4.25-16.73 9.36-25.68 15.11q-40.9 26.28-48.58 31.4-15.34 10.21-42.39 27.8c-8.53 5.54-16.33 11.04-24.85 16.3q-6.9 4.26-18.73 12.11-95.23 63.17-108.26 71.8-17.62 11.67-59.01 38.9-42.11 27.71-58.93 39.08-16.11 10.9-47.89 31.87a1.07 1.07 0 0 0 .07 1.82l2.17 1.21a2.8 2.8 0 0 0 2.91-.11q19.28-12.78 51.03-33.44 1.06-.69 1.2-.71a2.75 2.74-14.4 0 1 2.83 1.67c2.5 6 6.5 11.3 12.42 13.91a1.39 1.39 0 0 0 1.93-1.54c-.74-3.77-1.9-6.5-4.79-9.5q-3.82-3.98-6.85-7.52a.76.76 0 0 1 .16-1.13l74.87-49.34a1.48 1.48 0 0 1 2.09.47q1.05 1.73 3.07 2.98a3.78 3.75 5.1 0 1 1.51 1.79c2.22 5.45 4.92 9.58 10.77 11.17a.64.64 0 0 0 .81-.69c-.59-5.92-3.38-9.6-8.01-12.94q-3.05-2.2-4.43-5.55a1.2 1.2 0 0 1 .45-1.47l68.99-45.47a2.16 2.16 0 0 1 2.62.19l1.95 1.74a2.24 2.03 13.5 0 1 .41.6c2.02 4.52 5.09 11.06 9.24 13.36q1.07.6 1.84.42a2.16 1.88 77.6 0 0 1.36-2.48q-.73-3.44-2.89-7.59a1.28.87 89.4 0 0-.16-.23l-7.6-8.89a1.28 1.28 0 0 1 .27-1.9l63.4-41.79a1 .99 57.6 0 1 1.4.32q6.68 11.17 6.79 11.37 2.4 4.63 7.74 5.61a.84.84 0 0 0 .99-.78c.22-4.76-3.81-10.55-7.25-13.36q-2.24-1.83-4.59-3.63a1.48 1.47 37.9 0 1-.26-2.08q1.11-1.4 3.07-2.67 25.11-16.26 59.78-39.03a1.06 1.06 0 0 1 1.57.53q2.44 6.84 8.68 11.7c1.77 1.39 3.25 2.53 5.02 2.57a1.19 1.18-2 0 0 1.2-1.28c-.59-7.25-5.39-11.79-11.05-15.56a.69.69 0 0 1-.04-1.13q3.38-2.55 6.2-4.42 24.39-16.17 40.31-26.19 11-6.91 16.75-10.23a.95.94 57.1 0 1 1.24.27q2.88 4.02 6.71 7.65a4.89 4.84-85.9 0 1 .66.77q2.56 3.67 3.05 4.43c2.02 3.12 4.31 4.94 7.45 6.77q1.91 1.11 2.31 3.34c.86 4.88 5.61 14.65 11.34 13.46a.77.77 0 0 0 .61-.8q-.33-6.65-4.71-11.28c-1.54-1.64-3.7-2.26-6.13-3.11a1.46 1.44-80.1 0 1-.97-1.4c.1-4.26-3.33-9.33-6.15-11.89q-2.87-2.6-3.26-3.03a3.28 3.19 13.2 0 1-.57-.89q-1.77-4.26-4.99-7.49a.58.57 51.7 0 1 .1-.9q11.95-7.25 25.33-12.22c13.33-4.95 26.25-4.55 39.54-.93q19.65 5.35 35.42 16.38c3.99 2.78 4.64 13.93 11.4 11.66a.49.48 81.1 0 1 .64.47q-.05 8.91 5.72 15.83 1.77 2.12 3.88 3.36a.98.98 0 0 0 1.43-.54q.83-2.52-.27-5.36-3.18-8.25-9.76-15.45a.42.42 0 0 1 .57-.62q9.16 6.96 16.3 14.85 8.25 9.1 13.08 16.27 20.23 30 28.93 67.1 2.42 10.36 3.29 20.21 1.01 11.46 1.33 21.52a.27.26-57.1 0 1-.51.11l-1.67-4.15a.73.72 84.1 0 0-.55-.45l-.45-.09a.57.56-77.8 0 1-.44-.69c1.18-4.97-.61-15.32-5.49-18.09a1.58 1.58 0 0 1-.79-1.54q1.14-10.32-6.37-17.32a1.45 1.43-71.2 0 1-.44-.91c-.44-5.33-1.1-15.38-7.05-17.61a.69.69 0 0 0-.91.46q-2.42 8.75 3.19 15.72c.67.83 1.95 1.31 2.68 2.09a.89.88-56.1 0 1 .18.94q-.88 2.28.03 6.03 1.9 7.81 6.99 11.18a1.6 1.59 19.1 0 1 .71 1.45c-.29 4.29.28 15.38 5.23 17.43a1.37 1.37 0 0 1 .81 1.52l-.84 4.38a1.24.69-55.6 0 0-.02.21q.24 7.39 3.06 12.84a3.32 3.25 35.5 0 1 .34 1.89c-3.02 25.14-11.83 50.9-23.36 72.53q-10.44 19.59-12.73 22.98c-1.55 2.28-2.82 3.77-3.92 5.7q-2.05 3.61-8.09 14.03-.67 1.17-3.27 3.94-13.82-1.5-27.9-3.1-7.52-.86-15.08-1.15-6.59-.25-13.16-.81-1.11-.1-2.25-.15-40.95-1.97-81.95.92-.57-8.21-6.14-12.94-.82-.7-1.42-.86a1.19 1.18 8.6 0 0-1.48 1.09q-.35 6.69 2.98 13.37-37.24 4.02-73.17 13.55-5.04 1.34-6.77 1.94c-5.82 2.05-11.77 3.38-16.84 5.15-19.07 6.64-34.61 11.79-52.07 20.78-2.19 1.12-5.02 2.09-7.67 2.96a3.85 3.76 16.6 0 0-1.1.58q-3.28 2.53-4.63 3.31-25.78 14.84-35.67 21.11-8.07 5.11-23.77 15.78-2.3 1.56-6.74 4.03-2.56 1.43-6.62 4.25-7.4 5.14-16.82 8.21-7.87 2.56-28.48 9.25-7.63 2.47-14.56 3.97-7.38 1.59-14.71 3.51c-7.34 1.92-14.07 2.98-21 4.41q-5.25 1.09-15.86 2.65-15.7 2.32-22.5 3.3-11.83 1.7-22.58 2.63-24.5 2.12-51.18 3.94-13.06.89-23.7 1.12-14.53.32-22.62.59-29.7 1.02-58.74-.05c-10.94-.4-24.57-.46-37.06-1.28-2.57-.17-5.63.02-8.64-.14q-33.32-1.8-65.42-5.63c-7.08-.84-11.78-1.94-17.14-2.18q-6.4-.29-12.89-1.18-12.43-1.7-37.28-5.37-24.16-3.57-60.31-11.95-28.74-6.66-49.24-13.73-12.95-4.46-25.23-12.17a1.29 1.29 0 0 1-.28-1.95q.85-.97 1.97-1.91 18.36-15.57 39.19-26.06a.4.39-63.3 0 0-.24-.74q-4.08.77-8.88.74-35.49-.19-65.68-2.5c-5.12-.4-8.89-1.05-13.23-1.28q-6.28-.34-9.92-.76-30.94-3.63-60.39-10.31c-10.99-2.5-23.88-6.41-34.52-9.54q-5.13-1.51-9.36-4.68c6.7-5.6 13.85-11.81 20.38-16.44q19.84-14.06 41.93-23.66c13.8-6 28.33-12.06 44-17.68q36.9-13.24 53-19.09c5.28-1.92 9.25-3.6 13.91-5.2q32.65-11.17 82.61-30.28 1-.38 2.45-.9 19.55-7.01 60.87-22.76c3.07-1.17 4.07-2.36 5.36-5.48q3.3-7.98 8.59-13.57 4.06-4.28 9.77-5.67c4.04-.98 8.98.09 13.21.05a1.98 1.93 22.4 0 0 1.32-.53q10.97-10.45 26.57-19.73 18.84-11.21 38.18-18.57 4.33-1.65 17.59-4.43 3.25.18 6.59-.23 5.23-.64 6.57-.69 12.61-.44 24.2 1.28 5.21.78 12.99 1.98 6.33.98 12.83 2.71 18.35 4.89 36.43 11.83l-20.86 14.65a3.59 3.58 35.9 0 1-3.13.5q-22.85-7.04-46.7-11.17c-22.84-3.96-44.6-4.7-65.71 3.85q-19.18 7.78-35.3 21.37a.43.43 0 0 0 .18.75l8.23 1.88L345.21 490a.15.15 0 0 0 .02.29q4.59 1.2 10.55 2.66 12.97 3.16 30.88 10.42a.28.27-78.3 0 1 .17.27q-.02.71-1.59.47-13.6-5.28-27.71-9.32-8.18-2.34-15.28-3.28c-4.39-.58-9.43-.55-13.65 1.18q-1.47.61-2.82 3.36-.91 1.86-2.21 4.05-.34.57-1.5 1.41a.56.56 0 0 0 .33 1.02l6.31.01 3.08.46a1.06 1.05 77.3 0 1 .72.46q.59.91 1.75 1.33 27.1 9.95 53.85 24.92 4.56 2.55 12.54 7.48 6.26 3.86 12.51 7.56l11.21 7.48q2.08 1.78 4.59 3.52 2.8 1.93 4.63 3.48 7.41 6.25 15.8 10.53a3.51 3.51 0 0 0 2.99.11q9.51-4.02 17.2-6.35 4.85-1.47 11.79-4.49 5.98-2.61 11.73-4.76 7.96-.57 14.72.65 10.36 1.74 20.29 4.23 22.05 5.55 42.87 14.67 19.06 8.34 37.38 18.43 2.01.47 2.85-.05 6.98-4.34 17.45-11.43 14.13-7.8 26.54-17.25l15.67-10.57a.6.59-36.1 0 0 .14-.86q-6.3-8.19-13.32-16.85-12.79-15.77-29.17-32.08-2.16-2.14-3.34-2.11-23.5.59-45.97 5.57-2.49.55-7.91 2.46l-1.05.04a.31.31 0 0 1-.14-.59q4.12-2.03 11.09-3.66c14.82-3.46 29.29-4.51 43.28-5.02a.34.34 0 0 0 .28-.5c-2.53-4.49-8.05-8.05-12.48-10.61q-3.66-2.11-8.88-2.31l-9.88-3.21a.91.9-68.7 0 1-.54-1.24l1.48-3.15q5.38-9.26 15.66-13.19 2.47-.95 9-.72 6.98 1.6 13.58 5.93l9.59 7.62a4.33 4.31-29.4 0 0 3.22.89q13.09-1.71 26.74-1.31 20.15.59 39.13 3.86c14.6 3.57 26.62 8.3 37.64 17.21a1.14 1.14 0 0 0 1.35.07l11.45-7.55a.87.87 0 0 0 .22-1.26c-13.65-17.91-28.56-35.05-46.67-52.06q-2.18-2.05-4.41-2.17c-17.14-.96-34.37-.16-50.78 4.77-6.36 1.91-13.36 5.96-19.61 9.39q-1.19-.74.89-1.77a3.22 3.16 9.5 0 0 .76-.53q8.95-8.35 15.54-12.99 9.1-6.41 20.67-13.66a4.75 4.75 0 0 0 2.05-2.73q1.14-3.97 3.65-6.22c4.5-4.04 9.31-7.25 15.27-8.37q5.49-1.03 10.81-.14 7.32 2.56 13.97 6.57 3.35 2.14 7.54 4.01 2.09.93 4.16.69 16.28-1.91 31.8-.23 2.85.31 17.82 1.35 9.44.65 24.76 5.46 17.36 4.43 31.93 14.26a1.29 1.29 0 0 0 1.43.01l7.78-5.13a.86.86 0 0 0 .18-1.29c-15.32-17.56-30.53-34.22-47.62-49.1-1.7-1.48-3.98-2.74-5.92-3.04q-16.98-2.63-35.28-.85-7.26.7-11.34 2.26-8.51 3.26-22.17 11.18 6.66-7.88 12.36-12.69 4.62-3.9 17.57-12.96 6.28-4.39 7.68-6.54c3.33-5.1 11.17-9.06 16.68-11.32 10.2-4.32 20.56-5.16 29.67 2.02l7.08 6.52a4.75 4.74-23.7 0 0 3.21 1.25c6.09-.02 12.18.76 18.08 1.21 18.13 1.38 35.9 5.06 53.13 10.74q6.45 3.02 12.67 6.09 4.63 2.28 12.87 9.71a.8.79-40.7 0 0 .98.07l9.53-6.27a.86.86 0 0 0 .16-1.29c-16.91-18.57-32.21-35.69-49.93-52.58-3.16-3.02-7.97-7.14-12.64-8.11-15.97-3.34-38.65-2.21-48.55 13.41q-.81 1.28-.64 4.31-1.12 1.69-3.06 2.21-5.79 1.58-9.63 3.19c-4.57 1.09-9.02 1.75-11.53-1.73q-9.35-12.95-19.21-22.25-6.53-6.16-13.48-9.77-22.91-11.92-49.78-20.69c-10.92-3.56-18.4-5.16-28.94-4.26q-18.46 1.57-27.74 17.44-3.37 8.81-11.7 14.45-1.21.83-1.35 2.1a.52.52 0 0 0 .47.57q6.25.55 8.47 1.23 7.37 2.26 15.17 4.57 6.85 2.02 18.86 8.11c4.01 2.03 7.95 4.97 10.73 7.72q.38.38.19 1.32l-16.95 12.48a2.47 2.45 40.4 0 1-2.57.2q-21.01-10.8-40.99-17.1-8.1-2.55-17.98-3.82-7.1-.9-15.39.07c-6.31.74-12 4.53-16.93 8.13q-6.31 4.6-10.17 12.25-13.48 7.39-17.7 10.39-6.45 4.57-6.62 4.61a6.07 5.23-49.2 0 1-.94.14q-1.91.1-2.21.33a.23.23 0 0 0 .14.41q3.66-.05 5.14.2 36.56 6.09 69.07 24.82l-20.01 13.65a2.55 2.54 40.3 0 1-2.52.2q-11.9-5.67-20.43-9.32-11.8-5.05-27.3-9.64c-7.3-2.16-13.27-2.97-21.02-3.71q-17.48-1.67-30.66 7.31c-3.47 2.36-5.97 3.98-8.48 7.19q-2.08 2.66-4.53 5.84-9.3 5.93-19.38 11.43-.08.05-3.22 1.9-4.33 2.54-9.19 3.37c1.31-2.17 3.03-4.24 4.15-5.97q20.88-32.15 57.33-43.76 3.07-.98 6.42-1.53c5.53-.91 9.03-1.6 12.69-1.85q5.1-.34 6.18-.61a3.74 3.67 43.2 0 1 1.35-.03l1.71.28a1 .99 12.5 0 0 1.13-.71q6.09-21.67 22.76-35.57 12.07-10.06 29.2-14.27 16.45-4.04 32.62-2.32c1.73.18 2.72.51 3.98.89a.51.51 0 0 0 .65-.45q1.08-13.51 2.24-16.83 6.15-17.5 21.53-26.7 17.1-10.22 36.95-8.89a1.88 1.87-71.5 0 0 1.69-.85q2.27-3.49 4.63-6.74c22.22-30.61 37.47-51.74 55.29-75.46q10.23-13.62 21.54-25.71c2.59-2.76 5.68-5.31 8.59-8.09q1.45-1.38 3.68-2.92c4.66-3.22 10.49-6.82 15.98-7.71 13.79-2.21 26.98 4.2 36.71 13.89q19.24 19.18 24.69 45.79.52 2.52.99 5.8c.71 4.99.79 9.89 1.15 14.84q.34 4.65-.85 19.06m111.17 110.23q-2.22-1.03-16.14-6.73c-14.4-5.89-28.97-9.51-43.61-12.66q-1.62-.35-3.26-1.19a.32.32 0 0 0-.38.5q16.93 18.66 32.79 39.92a.87.87 0 0 0 1.17.21l29.47-19.43a.36.35-48.9 0 0-.04-.62m190.602 17.557a10.52 3.6-120.3 0 0 2.2 10.9 10.52 3.6-120.3 0 0 8.416 7.266 10.52 3.6-120.3 0 0-2.2-10.9 10.52 3.6-120.3 0 0-8.416-7.266m-97.713 7.06a9.05 3.34-125 0 0 2.455 9.329 9.05 3.34-125 0 0 7.927 5.497 9.05 3.34-125 0 0-2.455-9.329 9.05 3.34-125 0 0-7.927-5.497M841.58 377.38a.24.23-14 0 0-.23.38q16.48 19.4 29.25 39.51a.5.5 0 0 0 .69.15l25.37-16.72a.37.37 0 0 0 0-.62q-4.88-3.24-7.03-4.68c-13.26-8.95-27.67-12.6-44.64-16.73-1.27-.31-2.28-1.07-3.41-1.29m341.982 2.39a9.52 3.2-116.5 0 0 1.384 9.948 9.52 3.2-116.5 0 0 7.112 7.092 9.52 3.2-116.5 0 0-1.384-9.948 9.52 3.2-116.5 0 0-7.112-7.092m-97.178 3.737a9.52 3.05-119.9 0 0 2.102 9.773 9.52 3.05-119.9 0 0 7.39 6.733 9.52 3.05-119.9 0 0-2.102-9.773 9.52 3.05-119.9 0 0-7.39-6.733m-96.478 5.077a9.44 3.44-129.1 0 0 3.284 9.495 9.44 3.44-129.1 0 0 8.624 5.157 9.44 3.44-129.1 0 0-3.284-9.495 9.44 3.44-129.1 0 0-8.624-5.157m203.584 9.456q-2.33.79-1.24 6.52 1.45 7.62 6.71 11.47.33.23.72.1.38-.13.49-.52 1.81-6.26-1.71-13.18-2.64-5.19-4.97-4.39m-86.35 19.16q1.41-11.12-8.7-16.38a.77.77 0 0 0-1.01.27c-2.3 3.59.54 7.7 2.78 11.74q1.58 2.86 6.22 4.79a.52.51-75 0 0 .71-.42m-103.893-13.379a9.64 3.28-125.9 0 0 2.996 9.732 9.64 3.28-125.9 0 0 8.31 5.886 9.64 3.28-125.9 0 0-2.996-9.732 9.64 3.28-125.9 0 0-8.31-5.886m113.913 32.929q.73.7.7 1.37-.38 9.18 6.17 15.14.83.75 1.23.68a2.51 2.33-4.7 0 0 2.06-2.26q.27-10.47-9.22-14.71-.35-.15-.94-.22c.47-6.98-2.32-15.44-9.06-18.64a.59.59 0 0 0-.82.39q-.66 2.57.06 5.21 2.32 8.64 9.82 13.04m-100.84-15.85a1.05 1.05 0 0 0-1.5 1.07q.97 8.43 7.64 13.08a2.56 2.54 71.7 0 0 .67.34l2.89 1.02a2.01 2.01 0 0 1 1.34 2.04c-.53 7.55 4.75 14.56 11.33 16.98a.89.89 0 0 1 .54 1.1c-1.36 4.42 3.46 11.27 6.46 14.59q1.21 1.33 2.59 1.67a1.86 1.55-84.5 0 0 1.91-1.9c0-2.56-1.35-4.92-2.28-7.07q-2.35-5.43-8.08-8.04a1.5 1.49 10.4 0 1-.86-1.23q-.86-11.7-11.23-17.5a1.3 1.29 7.2 0 1-.63-.81q-.24-.9-.36-2.3c-.47-5.78-5.14-10.52-10.43-13.04m-263.77 14.4a.24.24 0 0 0-.18.4q16.82 19.56 30.69 40.83a.32.31 55.8 0 0 .44.09l35.77-23.57a.39.39 0 0 0-.06-.68q-17.57-7.29-35.52-11.26-8.89-1.97-28.16-4.93c-1.17-.18-2.04-.87-2.98-.88m169.29.81c-.29 2.9 2.2 6.47 4.61 9.72q2.36 3.19 6.3 4.76a.89.89 0 0 0 1.21-.98c-1.06-6.24-4.3-12.65-10.86-14.38a1.01 1.01 0 0 0-1.26.88m13.05 16.12c-.11 6.27 5.46 13.49 11.46 15.93a1.35 1.35 0 0 1 .83 1.23q.07 6.97 5.18 12.56 2.74 2.99 4.38 3.06a1.21 1.2 27.5 0 0 .74-.23c1.19-.89 1.72-2.48 1.24-4.07q-2.47-8.22-10.39-12.17a1.04 1.04 0 0 1-.58-1.01q.06-.9-1.18-4.77-2.61-8.11-9.95-11.6a1.21 1.21 0 0 0-1.73 1.07m193.016 3.814a9.35 3.4-117.2 0 0 1.25 9.87 9.35 3.4-117.2 0 0 7.298 6.762 9.35 3.4-117.2 0 0-1.25-9.87 9.35 3.4-117.2 0 0-7.298-6.762m-76.692 18.688a9.77 3.23-119.2 0 0 1.947 10.104 9.77 3.23-119.2 0 0 7.585 6.952 9.77 3.23-119.2 0 0-1.947-10.104 9.77 3.23-119.2 0 0-7.585-6.952m85.966.138q-1.71 10.7 7.67 17.32a1.97 1.97 0 0 1 .75 2.19q-1 3.22-.08 6.03c1.29 3.98 4 8.36 6.99 11.69a1.7 1.7 0 0 1 .45 1.13c.09 5.53 2.62 13.33 7.57 16.79a1.26 1.26 0 0 1 .53 1.2q-1.37 10.11 5.6 16.88a.98.98 0 0 0 1.66-.62c.57-6.9-.32-14.5-6.74-18.2a.93.92 25.6 0 1-.41-1.14c1.25-3.22-.27-7.22-1.65-10.46q-1.64-3.84-5.3-5.78a1.02 1.01-68.4 0 1-.5-1.17q1.6-5.52-1.21-10.64-1.84-3.35-3.34-4.77-2.1-1.97-2.95-2.81a1.19 1.18 25.7 0 1-.35-.99c.69-5.78-1.42-14.78-7.75-17.2a.71.7-74.9 0 0-.94.55m-283.59 6.48q-.49 2.85.87 5.4c1.95 3.67 5.71 10.22 9.82 10.65a.8.79-4.3 0 1 .68.58c.32 1.17.01 2.99.71 4.19 2.71 4.69 5.11 8.63 10.15 11.02a.79.79 0 0 0 1.12-.62c.66-5.62-4.23-11.84-8.47-14.45q-2.8-1.71-3.41-1.95a.89.87 9.6 0 1-.57-.79q-.24-6.6-5.53-11.61c-1.31-1.24-2.79-1.74-4.16-2.87a.75.74 24.4 0 0-1.21.45m105.453 4.224a10.14 3.2-123.5 0 0 2.929 10.222 10.14 3.2-123.5 0 0 8.265 6.69 10.14 3.2-123.5 0 0-2.929-10.222 10.14 3.2-123.5 0 0-8.265-6.69m102.98 7.415a9.62 3.15-117.4 0 0 1.63 9.99 9.62 3.15-117.4 0 0 7.224 7.092 9.62 3.15-117.4 0 0-1.63-9.99 9.62 3.15-117.4 0 0-7.224-7.092M661.04 497.43a.34.34 0 0 0-.3.56q16.35 19.11 30.01 40.3a.41.41 0 0 0 .57.12l36.72-24.2a.79.78-50.2 0 0-.12-1.38c-10.06-4.35-18.46-6.72-30.49-9.65q-6.57-1.61-13.15-2.53-18.94-2.65-23.24-3.22m321.95 21.74c-.58-5.96-4.13-14.12-10.54-15.81a.69.68 19.7 0 0-.79.37c-2.2 4.69 5.05 17.14 10.76 16.18a.69.68-7.7 0 0 .57-.74m107.13 26.54q2.22-12.31-9.22-16.6a.7.7 0 0 1-.45-.77q1.66-9.89-6.23-16.67a1.43 1.42-60.5 0 0-2.28.64c-1.34 4.11.75 7.31 2.91 10.94q2.64 4.45 5.46 6.34a1.42 1.39 11.8 0 1 .61.91q.55 2.87.9 4.42c.62 2.7 4.01 10.77 7.46 11.37a.72.72 0 0 0 .84-.58m-211.898-30.85a9.5 3.11-124.7 0 0 2.851 9.58 9.5 3.11-124.7 0 0 7.965 6.04 9.5 3.11-124.7 0 0-2.851-9.58 9.5 3.11-124.7 0 0-7.965-6.04M984.64 531.5c1.92 3.2 4.33 5.61 7.8 6.67a.77.77 0 0 0 1-.8q-.36-5.2-2.88-9.41-2.52-4.2-6.93-6.99a.77.77 0 0 0-1.17.51c-.71 3.56.27 6.82 2.18 10.02m-206.06-.29c-.44 4.76 5.16 10.93 8.58 13.68q1.59 1.28 3.77 1.19a.87.86-89.7 0 1 .9.91c-.33 6.18 4.22 11.14 9.33 14.19q2.05 1.22 3.15.59a.93.92-19.6 0 0 .46-.96q-1.63-10.2-11.26-13.73a2.66 2.45 70.5 0 1-.55-.29q-.94-.64-1.66-2.84c-1.79-5.41-5.71-12.13-12.03-13.26a.58.58 0 0 0-.69.52m112.08 0a.43.42 16.3 0 0-.57.31c-1.25 6.04 5.25 15.16 11.3 16.55a.79.78-81.2 0 1 .61.84q-.55 5.87 3.09 10.54c1.55 2 4.35 5.06 6.39 5.34a1.62 1.61-.9 0 0 1.81-1.86c-1.05-6.28-4.7-12.03-10.72-14.89a1.02 1.02 0 0 1-.57-.73c-1.38-7.17-4.13-13.34-11.34-16.1m103.3 8.81q-.62.32-.71 1.31c-.51 6.26 3.58 13.49 9.54 16.1q.08.03.2-.03-.02.01 0-.07c1.36-6.37-2.11-13.91-7.5-17.15q-.85-.51-1.53-.16m120.83 64.19q.93-8.49-3.37-15.55c-.97-1.6-2.79-2.88-3.99-4.15a1.3 1.3 0 0 1-.34-.99c.48-5.75-1.16-11.65-5.42-15.49q-1.5-1.35-2.24-2.5a1.7 1.7 0 0 1-.27-1.05q.72-10.52-7.5-17.67a.53.53 0 0 0-.81.14q-1.97 3.43-.48 7.58c1.54 4.28 3.84 9.54 7.67 11.28a1.58 1.57 24.4 0 1 .79 2.08c-2.12 4.73 1.61 11.78 4.78 15.3.75.84 1.69 1.28 2.9 1.7a1.04 1.04 0 0 1 .63 1.36c-2.3 6 2.78 14.55 6.96 18.23a.42.42 0 0 0 .69-.27m53.974-54.457a10.02 3.26-108.6 0 0 .106 10.537 10.02 3.26-108.6 0 0 6.286 8.457 10.02 3.26-108.6 0 0-.106-10.537 10.02 3.26-108.6 0 0-6.286-8.457m-164.977 8.533a9.28 3.26-116.1 0 0 1.155 9.768 9.28 3.26-116.1 0 0 7.01 6.9 9.28 3.26-116.1 0 0-1.154-9.768 9.28 3.26-116.1 0 0-7.01-6.9m-199.078 4.509a9.84 3.35-127.8 0 0 3.384 9.828 9.84 3.35-127.8 0 0 8.678 5.722 9.84 3.35-127.8 0 0-3.384-9.828 9.84 3.35-127.8 0 0-8.678-5.722m108.956 3.763a9.97 3.13-120.6 0 0 2.38 10.175 9.97 3.13-120.6 0 0 7.77 6.989 9.97 3.13-120.6 0 0-2.38-10.175 9.97 3.13-120.6 0 0-7.77-6.989m261.995 14.392q1.22 4.93 5.9 9.31a.49.49 0 0 0 .75-.12c1.6-2.74 1.01-7.79.24-10.89q-1.22-4.93-5.9-9.3a.49.49 0 0 0-.76.11c-1.59 2.74-1 7.8-.23 10.89m-162.983-4.663a9.32 3.32-116.6 0 0 1.204 9.82 9.32 3.32-116.6 0 0 7.142 6.846 9.32 3.32-116.6 0 0-1.204-9.82 9.32 3.32-116.6 0 0-7.142-6.846m-194.988 3.334a9.95 3.48-126.3 0 0 3.086 10.08 9.95 3.48-126.3 0 0 8.696 5.958 9.95 3.48-126.3 0 0-3.086-10.08 9.95 3.48-126.3 0 0-8.696-5.958m-118.94 3.889a2.53 2.04 80.9 0 0-1.6 2.79c.94 6.1 7.01 10.41 12.57 11.83a1.35 1.3 81.9 0 1 .82.64c1.02 1.87.35 4.08 1.28 6.07q3 6.43 9.51 9.53a1.76 1.76 0 0 0 2.46-2.04q-1.58-6.01-6.31-10.31c-1.91-1.72-4.66-2.76-6.66-4.32a1.24 1.21 13.7 0 1-.45-.72q-1.4-6.74-6.92-11.04-1.69-1.31-2.21-1.53-2.24-.94-2.49-.9m226.608 1.416a9.59 3.31-121.3 0 0 2.154 9.914 9.59 3.31-121.3 0 0 7.81 6.474 9.59 3.31-121.3 0 0-2.154-9.914 9.59 3.31-121.3 0 0-7.81-6.474m-95.172 11.595a9.96 3.16-124.8 0 0 3.09 9.983 9.96 3.16-124.8 0 0 8.278 6.375 9.96 3.16-124.8 0 0-3.09-9.983 9.96 3.16-124.8 0 0-8.278-6.375m106.044 6.589q-.61.38-.62 1.4c-.04 6.45 4.71 13.52 11.01 15.73q.08.03.21-.05-.02.02-.01-.07c.89-6.62-3.25-14.06-9.01-16.96q-.92-.45-1.58-.05m-93.32 10.75c-.21 7.29 2.61 11.47 8.05 15.99a2.21 2.19 66.4 0 0 1.23.49q.81.05 1.37-.1a.47.46 80.7 0 1 .58.42q.17 2.28.01 3.5a2.97 2.92-44.6 0 0-.01.64q.52 5.76 4.31 10.32c2.06 2.48 5.65 4.2 7.73 6.28a.52.52 0 0 0 .87-.51q-.49-1.76-3.44-10.42c-1.46-4.29-3.28-6.88-7.15-8.95a3.01 3-81.9 0 1-1.51-2.02c-1.25-5.88-5.4-14.24-11.44-16.07a.47.46-80.5 0 0-.6.43m-106.97 15.22q1.09-2.77.41-4.33-3.3-7.51-10.67-10.46a.6.59 14.1 0 0-.81.48c-.81 6.85 3.45 13.1 10.19 14.77a.76.76 0 0 0 .88-.46m13.67 16.46q.55-.44.43-1.44c-.76-6.27-6.25-12.55-12.65-13.92q-.09-.02-.2.07.02-.02.02.07c-.05 6.54 4.9 13.26 10.85 15.37q.95.33 1.55-.15m1.124 1.13a10.04 3.37-129.2 0 0 3.734 9.91 10.04 3.37-129.2 0 0 8.958 5.65 10.04 3.37-129.2 0 0-3.734-9.91 10.04 3.37-129.2 0 0-8.958-5.65m13.795 16.839a10.16 3.22-127.4 0 0 3.613 10.027 10.16 3.22-127.4 0 0 8.729 6.115 10.16 3.22-127.4 0 0-3.613-10.027 10.16 3.22-127.4 0 0-8.729-6.115m27.431 33.221q-.4-1.75-3.63-8.21-2.63-5.27-6.71-7.27c-3.11-1.52-3.99 1.52-2.94 3.59q4.31 8.53 12.88 12.22a.29.29 0 0 0 .4-.33"/><path fill="#4eaaa8" d="M870.77 232.74q-.46.43.23.5 16.99 1.64 33.26 6.72.8.25 2.17-.32l-13.32 22.78q-8.86-2.93-17.67-3.99-20.72-2.48-39.82 5.6-9.78 4.13-18.64 9.97-14.79 9.74-29.65 20.19-4.85-4.25-9.11-6.65-7.32-4.13-15.11-7.97a.35.35 0 0 1 .16-.67q.58.01 1.22-.43 30.32-20.58 48.23-31.26 26.64-15.88 56.79-14.08a1.66 1.62 32.2 0 0 .88-.19zm217.9 37.29q10.33 1.28 19.81 4.56 18.36 5.99 31.27 13.15 25.87 14.37 48.76 33.01 10.67 8.68 18.38 14.86 3.58 2.86 7.52 5.17a1.5 1.5 0 0 0 2.19-.82c6.8-20.37 13.78-43.12 22.09-64.56 5.14-13.27 12.15-27.87 22.9-37.31q2.63-2.31 5.54-3.28a2.27 2.26 65.1 0 1 2.66.98q1.21 2.02 1.68 4.99 1.22 7.7.86 17.22c-.97 26.23-5.65 53.18-16.43 76.92q-4.76 10.49-11.86 18.85a1.02 1.02 0 0 0 .4 1.61c35.96 14.32 73.22-5.09 84.7-41.18q4.97-15.61 5.14-32.07a.3.3 0 0 1 .3-.3h.26a.08.07-4.1 0 1 .08.06q.65 7.46.97 15.15 1.18 27.85-13.88 51.6-11.07 17.46-30 25.25c-11.58 4.76-25.62 4.97-38.24 3.07q-27.67-4.17-48.66-20.41c-8.37-6.47-16.76-16.36-24.01-23.65q-19.47-19.53-44.49-31.39c-9.77-4.63-20.22-7.25-30.83-9.53q-5.39-1.15-13.28-1.68c-19.13-1.28-39.44 9.09-55.5 18.72q-14.73 8.82-28.87 18.09a1.29 1.28 47 0 1-1.49-.06q-12.32-9.5-27.98-15.17a.25.25 0 0 1-.06-.44q16.48-11.07 25.02-16.56c20-12.86 42.11-23.93 65.87-25.35q8.29-.49 19.18.5"/><path fill="#72cac7" d="M893.11 262.42 878.97 285a.65.65 0 0 1-.92.19q-7.57-5.16-16.73.42-8.43 5.13-11.43 11.84a1.92 1.89-2.2 0 1-.87.92c-1.92 1.01-4.2.48-6.04.94q-4.43 1.1-6.46 2.72-3.09 2.48-4.54 3.32-2.11 1.2-4.64 3.18-8.16 6.38-14.1 12.37a4.08 4.07 67.5 0 0-1.18 2.87v3.84a.29.29 0 0 1-.57.07q-1.51-5.76-2.94-8.47-3.05-5.76-6.88-10.75-2.55-3.32-6.92-7.39-3.7-3.44-7.42-6.88 14.86-10.45 29.65-20.19 8.86-5.84 18.64-9.97 19.1-8.08 39.82-5.6 8.81 1.06 17.67 3.99"/><path fill="#4eaaa8" d="M806.47 339.02q-1.94 1.84-5.3 1.49a.46.45 8.4 0 0-.49.36l-.06.33a.75.75 0 0 0 .61.88q6.53 1.12 12.09 5.27.63.47.44 1.14-.03.09-.55.07c-9.11-7.18-19.47-6.34-29.67-2.02q-.48.08-.6.01a.34.34 0 0 1 .02-.6l4.72-2.28a.73.73 0 0 0 .27-1.09q-9.9-13.53-23.84-23.24c-1.76-1.23-2.77-1.47-4.56-.3q-12.74 8.29-26.81 18.95-2.33 1.77-4.13 4.06a.45.45 0 0 1-.77-.1q-1.55-3.59-2.83-6.99-.58-1.52-3.55-6.59-2.38-4.07-3.89-8.44.94-.22 1.53-.83 7.91-7.96 15.94-15.63a.62.62 0 0 0-.19-1.02q-12.33-5.19-24.14-9.06c-6.1-2-13.81-3.4-20.69-5.19-6.09-1.86-10.87-3.06-16.84-1.27q-7.95 2.39-17.39 10.83 9.28-15.87 27.74-17.44c10.54-.9 18.02.7 28.94 4.26q26.87 8.77 49.78 20.69 6.95 3.61 13.48 9.77 9.86 9.3 19.21 22.25c2.51 3.48 6.96 2.82 11.53 1.73"/><path fill="#72cac7" d="M690.02 288.2c3.18 1.65 6.33 3.16 8.88 5.63q3.56 3.44 7.08 8.17 7.23 9.68 11.59 17.93 1.51 4.37 3.89 8.44 2.97 5.07 3.55 6.59 1.28 3.4 2.83 6.99a.45.45 0 0 0 .77.1q1.8-2.29 4.13-4.06 14.07-10.66 26.81-18.95c1.79-1.17 2.8-.93 4.56.3q13.94 9.71 23.84 23.24a.73.73 0 0 1-.27 1.09l-4.72 2.28a.34.34 0 0 0-.02.6q.12.07.6-.01c-5.51 2.26-13.35 6.22-16.68 11.32q-1.4 2.15-7.68 6.54-12.95 9.06-17.57 12.96-5.7 4.81-12.36 12.69l-15.09 11.51a2.1 1.84 13.7 0 1-.61.32q-2.29.75-3.34 2.02-5.32-.89-10.81.14c-5.96 1.12-10.77 4.33-15.27 8.37q-2.51 2.25-3.65 6.22a4.75 4.75 0 0 1-2.05 2.73q-11.57 7.25-20.67 13.66-6.59 4.64-15.54 12.99a3.22 3.16 9.5 0 1-.76.53q-2.08 1.03-.89 1.77l-19.35 13.25a.78.72-65.8 0 1-.28.12l-2.54.54a.3.3 0 0 0-.05.58q.22.08.77.12-6.53-.23-9 .72-10.28 3.93-15.66 13.19-1.55.57-2.83 2.25a2.94 2.86-84.5 0 1-.92.78q-10.2 5.34-18.77 11.35-12.27 8.6-25.8 18.01c-2.77 1.93-5.44 4.66-8.11 5.9a.35.35 0 0 0 .08.66l3.56.68a3.29 3.27-58 0 0 2.58-.6c12.32-9.32 21.82-16.2 34.75-22.58q13.08-6.45 24.4-8.85 5.22.2 8.88 2.31c4.43 2.56 9.95 6.12 12.48 10.61a.34.34 0 0 1-.28.5c-13.99.51-28.46 1.56-43.28 5.02q-6.97 1.63-11.09 3.66a.31.31 0 0 0 .14.59l1.05-.04q-11.35 4.01-22.32 9.87a.59.59 0 0 0 .17 1.1l11.41 2.19a1.07 1.05 26.2 0 0 1-.33q.52-.59 1.98-1.34 11.29-5.77 24.78-7.67c12.26-1.73 21.47-2.87 30.94-3.11 4.3-.11 6.01 1.83 9.37 5q5.7 5.37 12.26 12.11a.76.76 0 0 1-.14 1.17q-9.49 5.98-19.41 12.77-.81.55-2.64.05a.24.23-70.7 0 0-.28.14v.01a.23.22-69 0 0 .12.28q10.4 4.84 24.33 13.35 7.49 4.58 12.33 8.85-12.41 9.45-26.54 17.25-8.26-3.93-16.62-8.18-8.84-4.49-15.64-7.48-12.45-5.48-15.93-6.84-26.35-10.35-54.29-15.93-9.08-1.81-17.66-1.18a3.01 2.97-71.9 0 0-2.09 1.08l-7.35 8.91a3.22 3.16 16 0 1-2.09 1.13q-2.7.3-3.89 1.99-5.75 2.15-11.73 4.76-6.94 3.02-11.79 4.49-7.69 2.33-17.2 6.35a3.51 3.51 0 0 1-2.99-.11q-8.39-4.28-15.8-10.53-1.83-1.55-4.63-3.48-2.51-1.74-4.59-3.52 3.99-4.43 7.22-6.89 8.61-6.55 9.05-7.19.6-.84 1.84-1.14a.37.37 0 0 0 .13-.65c-4.21-3.23-8.59-5.5-12.6-8.49q-3.49-2.61-10.15-6.49-17.6-10.25-34.62-17.27 1.57.24 1.59-.47a.28.27-78.3 0 0-.17-.27q-17.91-7.26-30.88-10.42-5.96-1.46-10.55-2.66a.15.15 0 0 1-.02-.29l33.25-12.41q1.83.51 2.53-.46.88-1.21.99-1.29 1.39-1.1 2.86-2.01 18.19-11.26 38.43-18.03 2.07 1.7 3.12 3.56 4.72 8.32 22.77 40.71 1.73 3.1.96 7.14.09-1.11-.62-.08a.64.63 37.2 0 0 .12.84l14.68 12.11a.72.72 0 0 0 .88.02q11.61-8.65 25.52-17.65c2.67-1.72 5.8-4.29 8.36-5.96q28.74-18.74 57.43-38c2.39 5.27 8.41 14.88 15.96 12.07 8.5-3.16 7.66-17.48 6.79-24.63q23.16-16.46 46.78-32.41 9.27-6.26 18.39-12.16 1.34 2.26 2.95 5.38 1.75 3.41 4.92 5.06c6.62 3.44 14.16-.74 15.96-7.63q1.79-6.86.39-16.95l36.29-28.52a1.67 1.66 60.8 0 0 .53-1.9q-3.86-10.36-8.82-18.97.19-.94-.19-1.32c-2.78-2.75-6.72-5.69-10.73-7.72q-12.01-6.09-18.86-8.11-7.8-2.31-15.17-4.57-2.22-.68-8.47-1.23a.52.52 0 0 1-.47-.57q.14-1.27 1.35-2.1 8.33-5.64 11.7-14.45 9.44-8.44 17.39-10.83c5.97-1.79 10.75-.59 16.84 1.27"/><path fill="#96d9d5" d="M690.02 288.2c6.88 1.79 14.59 3.19 20.69 5.19q11.81 3.87 24.14 9.06a.62.62 0 0 1 .19 1.02q-8.03 7.67-15.94 15.63-.59.61-1.53.83-4.36-8.25-11.59-17.93-3.52-4.73-7.08-8.17c-2.55-2.47-5.7-3.98-8.88-5.63"/><path fill="#4eaaa8" d="m1177.45 611.98-6.3.12q2.6-2.77 3.27-3.94 6.04-10.42 8.09-14.03c1.1-1.93 2.37-3.42 3.92-5.7q2.29-3.39 12.73-22.98c11.53-21.63 20.34-47.39 23.36-72.53a3.32 3.25 35.5 0 0-.34-1.89q-2.82-5.45-3.06-12.84a1.24.69-55.6 0 1 .02-.21l.84-4.38a1.37 1.37 0 0 0-.81-1.52c-4.95-2.05-5.52-13.14-5.23-17.43a1.6 1.59 19.1 0 0-.71-1.45q-5.09-3.37-6.99-11.18-.91-3.75-.03-6.03a.89.88-56.1 0 0-.18-.94c-.73-.78-2.01-1.26-2.68-2.09q-5.61-6.97-3.19-15.72a.69.69 0 0 1 .91-.46c5.95 2.23 6.61 12.28 7.05 17.61a1.45 1.43-71.2 0 0 .44.91q7.51 7 6.37 17.32a1.58 1.58 0 0 0 .79 1.54c4.88 2.77 6.67 13.12 5.49 18.09a.57.56-77.8 0 0 .44.69l.45.09a.73.72 84.1 0 1 .55.45l1.67 4.15a.27.26-57.1 0 0 .51-.11q-.32-10.06-1.33-21.52-.87-9.85-3.29-20.21-8.7-37.1-28.93-67.1-4.83-7.17-13.08-16.27-7.14-7.89-16.3-14.85a.42.42 0 0 0-.57.62q6.58 7.2 9.76 15.45 1.1 2.84.27 5.36a.98.98 0 0 1-1.43.54q-2.11-1.24-3.88-3.36-5.77-6.92-5.72-15.83a.49.48 81.1 0 0-.64-.47c-6.76 2.27-7.41-8.88-11.4-11.66q-15.77-11.03-35.42-16.38c-13.29-3.62-26.21-4.02-39.54.93q-13.38 4.97-25.33 12.22a.58.57 51.7 0 0-.1.9q3.22 3.23 4.99 7.49a3.28 3.19 13.2 0 0 .57.89q.39.43 3.26 3.03c2.82 2.56 6.25 7.63 6.15 11.89a1.46 1.44-80.1 0 0 .97 1.4c2.43.85 4.59 1.47 6.13 3.11q4.38 4.63 4.71 11.28a.77.77 0 0 1-.61.8c-5.73 1.19-10.48-8.58-11.34-13.46q-.4-2.23-2.31-3.34c-3.14-1.83-5.43-3.65-7.45-6.77q-.49-.76-3.05-4.43a4.89 4.84-85.9 0 0-.66-.77q-3.83-3.63-6.71-7.65a.95.94 57.1 0 0-1.24-.27q-5.75 3.32-16.75 10.23-15.92 10.02-40.31 26.19-2.82 1.87-6.2 4.42a.69.69 0 0 0 .04 1.13c5.66 3.77 10.46 8.31 11.05 15.56a1.19 1.18-2 0 1-1.2 1.28c-1.77-.04-3.25-1.18-5.02-2.57q-6.24-4.86-8.68-11.7a1.06 1.06 0 0 0-1.57-.53q-34.67 22.77-59.78 39.03-1.96 1.27-3.07 2.67a1.48 1.47 37.9 0 0 .26 2.08q2.35 1.8 4.59 3.63c3.44 2.81 7.47 8.6 7.25 13.36a.84.84 0 0 1-.99.78q-5.34-.98-7.74-5.61-.11-.2-6.79-11.37a1 .99 57.6 0 0-1.4-.32l-63.4 41.79a1.28 1.28 0 0 0-.27 1.9l7.6 8.89a1.28.87 89.4 0 1 .16.23q2.16 4.15 2.89 7.59a2.16 1.88 77.6 0 1-1.36 2.48q-.77.18-1.84-.42c-4.15-2.3-7.22-8.84-9.24-13.36a2.24 2.03 13.5 0 0-.41-.6l-1.95-1.74a2.16 2.16 0 0 0-2.62-.19l-68.99 45.47a1.2 1.2 0 0 0-.45 1.47q1.38 3.35 4.43 5.55c4.63 3.34 7.42 7.02 8.01 12.94a.64.64 0 0 1-.81.69c-5.85-1.59-8.55-5.72-10.77-11.17a3.78 3.75 5.1 0 0-1.51-1.79q-2.02-1.25-3.07-2.98a1.48 1.48 0 0 0-2.09-.47l-74.87 49.34a.76.76 0 0 0-.16 1.13q3.03 3.54 6.85 7.52c2.89 3 4.05 5.73 4.79 9.5a1.39 1.39 0 0 1-1.93 1.54c-5.92-2.61-9.92-7.91-12.42-13.91a2.75 2.74-14.4 0 0-2.83-1.67q-.14.02-1.2.71-31.75 20.66-51.03 33.44a2.8 2.8 0 0 1-2.91.11l-2.17-1.21a1.07 1.07 0 0 1-.07-1.82q31.78-20.97 47.89-31.87 16.82-11.37 58.93-39.08 41.39-27.23 59.01-38.9 13.03-8.63 108.26-71.8 11.83-7.85 18.73-12.11c8.52-5.26 16.32-10.76 24.85-16.3q27.05-17.59 42.39-27.8 7.68-5.12 48.58-31.4c8.95-5.75 17.98-10.86 25.68-15.11 5.97-3.3 15.8-6.67 22.33-8.36q13.23-3.42 26.32-1.66c5.68.76 13.95 3.42 18.34 4.7q8.91 2.6 18.6 7.87 11.63 6.33 23.17 15.29c20.6 16 35.4 37.31 46.54 60.69q14.59 30.62 17.7 63.51 1.98 20.88-1.89 44.19c-6.72 40.61-26.29 77.57-49.34 111.81m-282.74-243.7q3.63.85 6.04-.12c2.05-.83 2.99-1.09 4.74-1.4a.87.86 65.2 0 0 .51-1.4q-9.11-11.17-20.12-23.64-3.01-3.42-7.45-7.86c-4.38-4.37-9.18-9.8-14-10.8q-12.83-2.65-25.3 1.57-9.18 3.11-16.94 8.33-2.55 1.71-3.03.66-.17-3.03.64-4.31c9.9-15.62 32.58-16.75 48.55-13.41 4.67.97 9.48 5.09 12.64 8.11 17.72 16.89 33.02 34.01 49.93 52.58a.86.86 0 0 1-.16 1.29l-9.53 6.27a.8.79-40.7 0 1-.98-.07q-8.24-7.43-12.87-9.71-6.22-3.07-12.67-6.09"/><path fill="#72cac7" d="M894.71 368.28c-17.23-5.68-35-9.36-53.13-10.74-5.9-.45-11.99-1.23-18.08-1.21a4.75 4.74-23.7 0 1-3.21-1.25l-7.08-6.52q.52.02.55-.07.19-.67-.44-1.14-5.56-4.15-12.09-5.27a.75.75 0 0 1-.61-.88l.06-.33a.46.45 8.4 0 1 .49-.36q3.36.35 5.3-1.49 3.84-1.61 9.63-3.19 1.94-.52 3.06-2.21.48 1.05 3.03-.66 7.76-5.22 16.94-8.33 12.47-4.22 25.3-1.57c4.82 1 9.62 6.43 14 10.8q4.44 4.44 7.45 7.86 11.01 12.47 20.12 23.64a.87.86 65.2 0 1-.51 1.4c-1.75.31-2.69.57-4.74 1.4q-2.41.97-6.04.12"/><path fill="#4eaaa8" d="M981.94 342.97a.36.35-48.9 0 1 .04.62l-29.47 19.43a.87.87 0 0 1-1.17-.21q-15.86-21.26-32.79-39.92a.32.32 0 0 1 .38-.5q1.64.84 3.26 1.19c14.64 3.15 29.21 6.77 43.61 12.66q13.92 5.7 16.14 6.73m-285.31-5.14q4.96 8.61 8.82 18.97a1.67 1.66 60.8 0 1-.53 1.9l-36.29 28.52q-1.01-3.96-2.07-6.52-2.31-5.55-6.68-14.46 6.5-4.21 11.25-8.34 1.03-.9 2.15-2.43a.37.37 0 0 0-.17-.57l-25.07-9.52q-10.93-4.49-22.16-7.76-10.9-3.18-22.18-2.02-.68 1.71-2.23 2.39-14.37 6.29-25.82 12.05 3.86-7.65 10.17-12.25c4.93-3.6 10.62-7.39 16.93-8.13q8.29-.97 15.39-.07 9.88 1.27 17.98 3.82 19.98 6.3 40.99 17.1a2.47 2.45 40.4 0 0 2.57-.2z"/><path fill="#96d9d5" d="M648.04 345.38q-1.24.76-2.46.76a.48.48 0 0 0-.37.8c5.3 6.08 9.77 12.67 14.67 19.3q4.37 8.91 6.68 14.46 1.06 2.56 2.07 6.52 1.4 10.09-.39 16.95c-1.8 6.89-9.34 11.07-15.96 7.63q-3.17-1.65-4.92-5.06-1.61-3.12-2.95-5.38-3.07-10.53-7.6-19.78-4.92-10.52-12.1-20.05-9.76-12.93-21.01-25.93 11.28-1.16 22.18 2.02 11.23 3.27 22.16 7.76"/><path fill="#72cac7" d="M603.7 335.6q11.25 13 21.01 25.93 7.18 9.53 12.1 20.05l-14.28 9.36q-32.51-18.73-69.07-24.82-1.48-.25-5.14-.2a.23.23 0 0 1-.14-.41q.3-.23 2.21-.33a6.07 5.23-49.2 0 0 .94-.14q.17-.04 6.62-4.61 4.22-3 17.7-10.39 11.45-5.76 25.82-12.05 1.55-.68 2.23-2.39m56.18 30.64c-4.9-6.63-9.37-13.22-14.67-19.3a.48.48 0 0 1 .37-.8q1.22 0 2.46-.76l25.07 9.52a.37.37 0 0 1 .17.57q-1.12 1.53-2.15 2.43-4.75 4.13-11.25 8.34"/><ellipse fill="#4eaaa8" rx="10.52" ry="3.6" transform="rotate(239.7 694.978 -153.158)"/><ellipse fill="#4eaaa8" rx="9.05" ry="3.34" transform="rotate(235 637.616 -93.611)"/><path fill="#4eaaa8" d="M810.26 421.75q-.33-.44-.42-.83a.43.43 0 0 1 .6-.49q1.23.56 2.34-.14 5.63-3.56 10.09-7.76a.66.65 47.2 0 0 .03-.92q-11.12-12.34-22.74-22.28-4.92-4.2-11.38-4.42-17.96-.6-31.54 1.29-5.16.71-10.72 3.79-12.53 6.93-21.89 17.41-.54.6-.45 3.07-6.65-4.01-13.97-6.57 1.05-1.27 3.34-2.02a2.1 1.84 13.7 0 0 .61-.32l15.09-11.51q13.66-7.92 22.17-11.18 4.08-1.56 11.34-2.26 18.3-1.78 35.28.85c1.94.3 4.22 1.56 5.92 3.04 17.09 14.88 32.3 31.54 47.62 49.1a.86.86 0 0 1-.18 1.29l-7.78 5.13a1.29 1.29 0 0 1-1.43-.01q-14.57-9.83-31.93-14.26m31.32-44.37c1.13.22 2.14.98 3.41 1.29 16.97 4.13 31.38 7.78 44.64 16.73q2.15 1.44 7.03 4.68a.37.37 0 0 1 0 .62l-25.37 16.72a.5.5 0 0 1-.69-.15q-12.77-20.11-29.25-39.51a.24.23-14 0 1 .23-.38"/><ellipse fill="#4eaaa8" rx="9.52" ry="3.2" transform="rotate(243.5 714.046 -173.375)"/><path fill="#4eaaa8" d="M636.81 381.58q4.53 9.25 7.6 19.78-9.12 5.9-18.39 12.16-23.62 15.95-46.78 32.41l-7.19-19.29 22.81-16.99a.44.44 0 0 0-.14-.78q-3.39-1.02-6.66-2.46-12.59-5.53-27.9-10.46-2.26-.72-5.61-2.08-14.51-6.86-33.05-5.94-.54.03-1.12.57-.63.41-1.09.53c-10.04 2.66-18.88 6.88-27.95 11.53a2.48 2.45-79 0 0-.6.41q-1.64 1.49-3.16 1.49 2.45-3.18 4.53-5.84c2.51-3.21 5.01-4.83 8.48-7.19q13.18-8.98 30.66-7.31c7.75.74 13.72 1.55 21.02 3.71q15.5 4.59 27.3 9.64 8.53 3.65 20.43 9.32a2.55 2.54 40.3 0 0 2.52-.2l20.01-13.65z"/><ellipse fill="#4eaaa8" rx="9.52" ry="3.05" transform="rotate(240.1 658.884 -119.737)"/><path fill="#72cac7" d="M810.26 421.75q-15.32-4.81-24.76-5.46-14.97-1.04-17.82-1.35-15.52-1.68-31.8.23-2.07.24-4.16-.69-4.19-1.87-7.54-4.01-.09-2.47.45-3.07 9.36-10.48 21.89-17.41 5.56-3.08 10.72-3.79 13.58-1.89 31.54-1.29 6.46.22 11.38 4.42 11.62 9.94 22.74 22.28a.66.65 47.2 0 1-.03.92q-4.46 4.2-10.09 7.76-1.11.7-2.34.14a.43.43 0 0 0-.6.49q.09.39.42.83"/><path fill="#96d9d5" d="M554.55 393.87q3.26 6.56 6.97 12.46 3.11 4.96 5.17 9.38 2.54 5.47 5.36 10.93l7.19 19.29c.87 7.15 1.71 21.47-6.79 24.63-7.55 2.81-13.57-6.8-15.96-12.07l-6.45-17.88q-8.41-19.67-20.58-38.39-4.48-6.9-9.08-13.72.58-.54 1.12-.57 18.54-.92 33.05 5.94"/><ellipse fill="#4eaaa8" rx="9.44" ry="3.44" transform="rotate(230.9 592.138 -39.012)"/><path fill="#72cac7" d="M520.38 388.5q4.6 6.82 9.08 13.72 12.17 18.72 20.58 38.39l-8.29 5.15q-18.08-6.94-36.43-11.83-6.5-1.73-12.83-2.71-7.78-1.2-12.99-1.98-11.59-1.72-24.2-1.28-1.34.05-6.57.69-3.34.41-6.59.23 6.84-5.78 13.65-9.72 4.86-.83 9.19-3.37 3.14-1.85 3.22-1.9 10.08-5.5 19.38-11.43 1.52 0 3.16-1.49a2.48 2.45-79 0 1 .6-.41c9.07-4.65 17.91-8.87 27.95-11.53q.46-.12 1.09-.53m51.67 38.14q-2.82-5.46-5.36-10.93-2.06-4.42-5.17-9.38-3.71-5.9-6.97-12.46 3.35 1.36 5.61 2.08 15.31 4.93 27.9 10.46 3.27 1.44 6.66 2.46a.44.44 0 0 1 .14.78z"/><path fill="#4eaaa8" d="M1199.68 416.13q-.39.13-.72-.1-5.26-3.85-6.71-11.47-1.09-5.73 1.24-6.52 2.33-.8 4.97 4.39 3.52 6.92 1.71 13.18-.11.39-.49.52m-93.25 1.49q-4.64-1.93-6.22-4.79c-2.24-4.04-5.08-8.15-2.78-11.74a.77.77 0 0 1 1.01-.27q10.11 5.26 8.7 16.38a.52.51-75 0 1-.71.42"/><ellipse fill="#4eaaa8" rx="9.64" ry="3.28" transform="rotate(234.1 609.544 -51.77)"/><path fill="#4eaaa8" d="M1117.16 436.75q-7.5-4.4-9.82-13.04-.72-2.64-.06-5.21a.59.59 0 0 1 .82-.39c6.74 3.2 9.53 11.66 9.06 18.64m-100.84-15.85c5.29 2.52 9.96 7.26 10.43 13.04q.12 1.4.36 2.3a1.3 1.29 7.2 0 0 .63.81q10.37 5.8 11.23 17.5a1.5 1.49 10.4 0 0 .86 1.23q5.73 2.61 8.08 8.04c.93 2.15 2.28 4.51 2.28 7.07a1.86 1.55-84.5 0 1-1.91 1.9q-1.38-.34-2.59-1.67c-3-3.32-7.82-10.17-6.46-14.59a.89.89 0 0 0-.54-1.1c-6.58-2.42-11.86-9.43-11.33-16.98a2.01 2.01 0 0 0-1.34-2.04l-2.89-1.02a2.56 2.54 71.7 0 1-.67-.34q-6.67-4.65-7.64-13.08a1.05 1.05 0 0 1 1.5-1.07m-263.77 14.4c.94.01 1.81.7 2.98.88q19.27 2.96 28.16 4.93 17.95 3.97 35.52 11.26a.39.39 0 0 1 .06.68l-35.77 23.57a.32.31 55.8 0 1-.44-.09q-13.87-21.27-30.69-40.83a.24.24 0 0 1 .18-.4m169.29.81a1.01 1.01 0 0 1 1.26-.88c6.56 1.73 9.8 8.14 10.86 14.38a.89.89 0 0 1-1.21.98q-3.94-1.57-6.3-4.76c-2.41-3.25-4.9-6.82-4.61-9.72m-210.46 45.8q.81-.77 2.41-.95 1.62-.18 2.46-.7 8.19-5.15 16.21-11.25a.6.59-39.3 0 0 .09-.87c-7.22-8.01-14.02-15.3-21.78-22.02-2.29-1.98-3.98-2.16-7.02-2.25q-14.08-.41-26.95 1.29c-12.56 1.66-23.34 6.97-33.4 13.74q-8.43 5.68-12.55 8.13a.56.56 0 0 0-.07.91l2.54 2.09a.48.47 62.8 0 1-.27.84q-.16.01-.35-.02-6.6-4.33-13.58-5.93-.55-.04-.77-.12a.3.3 0 0 1 .05-.58l2.54-.54a.78.72-65.8 0 0 .28-.12l19.35-13.25c6.25-3.43 13.25-7.48 19.61-9.39 16.41-4.93 33.64-5.73 50.78-4.77q2.23.12 4.41 2.17c18.11 17.01 33.02 34.15 46.67 52.06a.87.87 0 0 1-.22 1.26l-11.45 7.55a1.14 1.14 0 0 1-1.35-.07c-11.02-8.91-23.04-13.64-37.64-17.21m405.78-45.16q.59.07.94.22 9.49 4.24 9.22 14.71a2.51 2.33-4.7 0 1-2.06 2.26q-.4.07-1.23-.68-6.55-5.96-6.17-15.14.03-.67-.7-1.37m-567.12 3.86 6.45 17.88q-28.69 19.26-57.43 38c-2.56 1.67-5.69 4.24-8.36 5.96q-13.91 9-25.52 17.65a.72.72 0 0 1-.88-.02l-14.68-12.11a.64.63 37.2 0 1-.12-.84q.71-1.03.62.08l21.15-15.1 37.09-24.3a.58.58 0 0 0-.12-1.03c-17.14-6.24-30.99-8.39-52.77-12.42q-2.28-.42-5.3-.28-11.2-1.59-23.15.19-1.64.24-3.75 1.53-20.24 6.77-38.43 18.03-1.47.91-2.86 2.01-.11.08-.99 1.29-.7.97-2.53.46l-8.23-1.88a.43.43 0 0 1-.18-.75q16.12-13.59 35.3-21.37c21.11-8.55 42.87-7.81 65.71-3.85q23.85 4.13 46.7 11.17a3.59 3.58 35.9 0 0 3.13-.5l20.86-14.65z"/><path fill="#72cac7" d="M711.38 481.91q-18.98-3.27-39.13-3.86-13.65-.4-26.74 1.31a4.33 4.31-29.4 0 1-3.22-.89l-9.59-7.62q.19.03.35.02a.48.47 62.8 0 0 .27-.84l-2.54-2.09a.56.56 0 0 1 .07-.91q4.12-2.45 12.55-8.13c10.06-6.77 20.84-12.08 33.4-13.74q12.87-1.7 26.95-1.29c3.04.09 4.73.27 7.02 2.25 7.76 6.72 14.56 14.01 21.78 22.02a.6.59-39.3 0 1-.09.87q-8.02 6.1-16.21 11.25-.84.52-2.46.7-1.6.18-2.41.95"/><path fill="#4eaaa8" d="M934.89 452.23a1.21 1.21 0 0 1 1.73-1.07q7.34 3.49 9.95 11.6 1.24 3.87 1.18 4.77a1.04 1.04 0 0 0 .58 1.01q7.92 3.95 10.39 12.17c.48 1.59-.05 3.18-1.24 4.07a1.21 1.2 27.5 0 1-.74.23q-1.64-.07-4.38-3.06-5.11-5.59-5.18-12.56a1.35 1.35 0 0 0-.83-1.23c-6-2.44-11.57-9.66-11.46-15.93"/><path fill="#96d9d5" d="m450.17 454.08 21.1 38.03-21.15 15.1q.77-4.04-.96-7.14-18.05-32.39-22.77-40.71-1.05-1.86-3.12-3.56 2.11-1.29 3.75-1.53 11.95-1.78 23.15-.19"/><path fill="#72cac7" d="m471.27 492.11-21.1-38.03q3.02-.14 5.3.28c21.78 4.03 35.63 6.18 52.77 12.42a.58.58 0 0 1 .12 1.03z"/><ellipse fill="#4eaaa8" rx="9.35" ry="3.4" transform="rotate(242.8 707.813 -113.363)"/><path fill="#72cac7" d="m1384.31 461.73.4.61a2.61 2.57-89.6 0 0 .77.79q2.33 1.56 4.96 3.94 24.8 22.37 35.45 53.49c4.94 14.42 6.16 30.42 4.22 45.17a.94.94 0 0 0 .42.9q9.83 6.41 13.18 9.94c3.49 3.68 7.62 8.08 10.53 12.29q12.79 18.54 17.35 40.82.1.51 1.62 10.37.84 5.5.93 10.44.24 13.95-.25 19.01-1.22 12.44-3.3 20.4c-5.94 22.68-18.03 41.16-37.58 54.91q-11.38 8.01-25.04 14.14-10.14 4.56-20.13 7.6-36.23 11.06-74.84 16.38-2.88.39-3.61.54-3 .59-3.6.54c-2.06-.19-4.04.61-6.14.85q-3.49.4-12.57 1.68-5.42.77-24.05 2.87-7.45.84-15.92 1.65-3.78.36-4.7.52c-3.6.64-7.67.22-10.8 1-2.4.6-4.81.4-8.13.75q-14.46 1.55-27.25 2.53-5.22.4-7.78.8c-3.22.5-7.07.11-10.74.85q-1.55.31-2.92.38-9.64.45-20.27 1.74-3.35.4-6.05.42c-2.76.01-5.1.91-8.05.91q-3.88.01-7.44.75a9.63 9.07-49.7 0 1-1.87.21q-3.95.02-7.68.8a10.86 10.74 39.4 0 1-2.49.23q-1.47-.03-1.93.02-20.96 2.36-42.21 6.28-8.69 1.61-19.35 4.83-14.6 4.42-18.98 6.14-6.34 2.49-21.53 10.74 1.46-2.21 3.69-3.87 3.41-2.54 4.18-3.31 7.91-7.89 15.36-16.84c12.18-14.6 22.51-25.57 33.49-39.15q12.74-15.74 31.3-38.1 14.02-16.88 35.01-42.59c16.63-20.37 29.02-36.92 46.31-59.08q3.72-4.77 9.37-13.09a2.67 2.56-.8 0 1 .73-.72q1.45-.98 2.07-2.18 14.04-9.81 25.52-22.73c3.68-4.15 8-7.97 11.02-11.31q22.07-24.35 42.41-54.08.68-.99 3.23-3.56a8.31 8.01 85.6 0 0 .89-1.08q8.8-12.87 20.02-28.73c6.18-8.74 13.67-17.74 22.6-24.93 7.83-6.3 16.57-9.61 26.38-9.83 6.37-.14 10.84-.36 16.57.89q9.18 2 16.71 5.14.21.09.51-.08"/><ellipse fill="#4eaaa8" rx="9.77" ry="3.23" transform="rotate(240.8 669.753 -68.14)"/><path fill="#4eaaa8" d="M1137.18 474.87a.71.7-74.9 0 1 .94-.55c6.33 2.42 8.44 11.42 7.75 17.2a1.19 1.18 25.7 0 0 .35.99q.85.84 2.95 2.81 1.5 1.42 3.34 4.77 2.81 5.12 1.21 10.64a1.02 1.01-68.4 0 0 .5 1.17q3.66 1.94 5.3 5.78c1.38 3.24 2.9 7.24 1.65 10.46a.93.92 25.6 0 0 .41 1.14c6.42 3.7 7.31 11.3 6.74 18.2a.98.98 0 0 1-1.66.62q-6.97-6.77-5.6-16.88a1.26 1.26 0 0 0-.53-1.2c-4.95-3.46-7.48-11.26-7.57-16.79a1.7 1.7 0 0 0-.45-1.13c-2.99-3.33-5.7-7.71-6.99-11.69q-.92-2.81.08-6.03a1.97 1.97 0 0 0-.75-2.19q-9.38-6.62-7.67-17.32m-542.72 3.96-1.48 3.15a.91.9-68.7 0 0 .54 1.24l9.88 3.21q-11.32 2.4-24.4 8.85c-12.93 6.38-22.43 13.26-34.75 22.58a3.29 3.27-58 0 1-2.58.6l-3.56-.68a.35.35 0 0 1-.08-.66c2.67-1.24 5.34-3.97 8.11-5.9q13.53-9.41 25.8-18.01 8.57-6.01 18.77-11.35a2.94 2.86-84.5 0 0 .92-.78q1.28-1.68 2.83-2.25m259.13 2.52a.75.74 24.4 0 1 1.21-.45c1.37 1.13 2.85 1.63 4.16 2.87q5.29 5.01 5.53 11.61a.89.87 9.6 0 0 .57.79q.61.24 3.41 1.95c4.24 2.61 9.13 8.83 8.47 14.45a.79.79 0 0 1-1.12.62c-5.04-2.39-7.44-6.33-10.15-11.02-.7-1.2-.39-3.02-.71-4.19a.8.79-4.3 0 0-.68-.58c-4.11-.43-7.87-6.98-9.82-10.65q-1.36-2.55-.87-5.4"/><ellipse fill="#4eaaa8" rx="10.14" ry="3.2" transform="rotate(236.5 615.046 -12.145)"/><path fill="#4eaaa8" d="M385.24 504.11q17.02 7.02 34.62 17.27 6.66 3.88 10.15 6.49c4.01 2.99 8.39 5.26 12.6 8.49a.37.37 0 0 1-.13.65q-1.24.3-1.84 1.14-.44.64-9.05 7.19-3.23 2.46-7.22 6.89l-11.21-7.48q2.32-2.63 3.85-5.06 1.09-1.71-.17-3.8-.59-.98-.85-1.2-5.47-4.57-13.67-11.06-5.45-4.31-15.05-9.31c-13.88-7.22-28.36-12.65-43.71-14.63q-4.51-.58-7.53.82-4.22 1.96-7.32 2.03l-6.31-.01a.56.56 0 0 1-.33-1.02q1.16-.84 1.5-1.41 1.3-2.19 2.21-4.05 1.35-2.75 2.82-3.36c4.22-1.73 9.26-1.76 13.65-1.18q7.1.94 15.28 3.28 14.11 4.04 27.71 9.32"/><ellipse fill="#4eaaa8" rx="9.62" ry="3.15" transform="rotate(242.6 685.693 -73.44)"/><path fill="#4eaaa8" d="M661.04 497.43q4.3.57 23.24 3.22 6.58.92 13.15 2.53c12.03 2.93 20.43 5.3 30.49 9.65a.79.78-50.2 0 1 .12 1.38l-36.72 24.2a.41.41 0 0 1-.57-.12q-13.66-21.19-30.01-40.3a.34.34 0 0 1 .3-.56"/><path fill="#72cac7" d="M413.16 544.75q-6.25-3.7-12.51-7.56-7.98-4.93-12.54-7.48-26.75-14.97-53.85-24.92-1.16-.42-1.75-1.33a1.06 1.05 77.3 0 0-.72-.46l-3.08-.46q3.1-.07 7.32-2.03 3.02-1.4 7.53-.82c15.35 1.98 29.83 7.41 43.71 14.63q9.6 5 15.05 9.31 8.2 6.49 13.67 11.06.26.22.85 1.2 1.26 2.09.17 3.8-1.53 2.43-3.85 5.06"/><path fill="#4eaaa8" d="M655.2 563.52q-4.84-4.27-12.33-8.85-13.93-8.51-24.33-13.35a.23.22-69 0 1-.12-.28v-.01a.24.23-70.7 0 1 .28-.14q1.83.5 2.64-.05 9.92-6.79 19.41-12.77a.76.76 0 0 0 .14-1.17q-6.56-6.74-12.26-12.11c-3.36-3.17-5.07-5.11-9.37-5-9.47.24-18.68 1.38-30.94 3.11q-13.49 1.9-24.78 7.67-1.46.75-1.98 1.34a1.07 1.05 26.2 0 1-1 .33l-11.41-2.19a.59.59 0 0 1-.17-1.1q10.97-5.86 22.32-9.87 5.42-1.91 7.91-2.46 22.47-4.98 45.97-5.57 1.18-.03 3.34 2.11 16.38 16.31 29.17 32.08 7.02 8.66 13.32 16.85a.6.59-36.1 0 1-.14.86zm327.22-43.61c-5.71.96-12.96-11.49-10.76-16.18a.69.68 19.7 0 1 .79-.37c6.41 1.69 9.96 9.85 10.54 15.81a.69.68-7.7 0 1-.57.74m106.86 26.38c-3.45-.6-6.84-8.67-7.46-11.37q-.35-1.55-.9-4.42a1.42 1.39 11.8 0 0-.61-.91q-2.82-1.89-5.46-6.34c-2.16-3.63-4.25-6.83-2.91-10.94a1.43 1.42-60.5 0 1 2.28-.64q7.89 6.78 6.23 16.67a.7.7 0 0 0 .45.77q11.44 4.29 9.22 16.6a.72.72 0 0 1-.84.58"/><ellipse fill="#4eaaa8" rx="9.5" ry="3.11" transform="rotate(235.3 578.728 29.869)"/><path fill="#4eaaa8" d="M990.56 527.96q2.52 4.21 2.88 9.41a.77.77 0 0 1-1 .8c-3.47-1.06-5.88-3.47-7.8-6.67-1.91-3.2-2.89-6.46-2.18-10.02a.77.77 0 0 1 1.17-.51q4.41 2.79 6.93 6.99m-211.29 2.73c6.32 1.13 10.24 7.85 12.03 13.26q.72 2.2 1.66 2.84a2.66 2.45 70.5 0 0 .55.29q9.63 3.53 11.26 13.73a.93.92-19.6 0 1-.46.96q-1.1.63-3.15-.59c-5.11-3.05-9.66-8.01-9.33-14.19a.87.86-89.7 0 0-.9-.91q-2.18.09-3.77-1.19c-3.42-2.75-9.02-8.92-8.58-13.68a.58.58 0 0 1 .69-.52m111.39.52c7.21 2.76 9.96 8.93 11.34 16.1a1.02 1.02 0 0 0 .57.73c6.02 2.86 9.67 8.61 10.72 14.89a1.62 1.61-.9 0 1-1.81 1.86c-2.04-.28-4.84-3.34-6.39-5.34q-3.64-4.67-3.09-10.54a.79.78-81.2 0 0-.61-.84c-6.05-1.39-12.55-10.51-11.3-16.55a.43.42 16.3 0 1 .57-.31m103.3 8.81q.68-.35 1.53.16c5.39 3.24 8.86 10.78 7.5 17.15q-.02.08 0 .07-.12.06-.2.03c-5.96-2.61-10.05-9.84-9.54-16.1q.09-.99.71-1.31m-365.3 40.75q-10.47 7.09-17.45 11.43-.84.52-2.85.05-.35-4.11-1.25-6.07c-2.02-4.42-9.28-8.87-13.4-11.15q-23.98-13.24-48.96-20.02-2.45-.67-13.77-3.49-7.25-1.81-13.23-1.79c-3.57.01-7.04 3.08-9.93 5.19q-6.76-1.22-14.72-.65 1.19-1.69 3.89-1.99a3.22 3.16 16 0 0 2.09-1.13l7.35-8.91a3.01 2.97-71.9 0 1 2.09-1.08q8.58-.63 17.66 1.18 27.94 5.58 54.29 15.93 3.48 1.36 15.93 6.84 6.8 2.99 15.64 7.48 8.36 4.25 16.62 8.18m485.44 23.71c-4.18-3.68-9.26-12.23-6.96-18.23a1.04 1.04 0 0 0-.63-1.36c-1.21-.42-2.15-.86-2.9-1.7-3.17-3.52-6.9-10.57-4.78-15.3a1.58 1.57 24.4 0 0-.79-2.08c-3.83-1.74-6.13-7-7.67-11.28q-1.49-4.15.48-7.58a.53.53 0 0 1 .81-.14q8.22 7.15 7.5 17.67a1.7 1.7 0 0 0 .27 1.05q.74 1.15 2.24 2.5c4.26 3.84 5.9 9.74 5.42 15.49a1.3 1.3 0 0 0 .34.99c1.2 1.27 3.02 2.55 3.99 4.15q4.3 7.06 3.37 15.55a.42.42 0 0 1-.69.27"/><ellipse fill="#4eaaa8" rx="10.02" ry="3.26" transform="rotate(251.4 786.91 -141.444)"/><path fill="#72cac7" d="M608.36 592.25q-18.32-10.09-37.38-18.43-20.82-9.12-42.87-14.67-9.93-2.49-20.29-4.23c2.89-2.11 6.36-5.18 9.93-5.19q5.98-.02 13.23 1.79 11.32 2.82 13.77 3.49 24.98 6.78 48.96 20.02c4.12 2.28 11.38 6.73 13.4 11.15q.9 1.96 1.25 6.07"/><ellipse fill="#4eaaa8" rx="9.28" ry="3.26" transform="rotate(243.9 680.623 -30.972)"/><ellipse fill="#4eaaa8" rx="9.84" ry="3.35" transform="rotate(232.2 545.13 86.696)"/><ellipse fill="#4eaaa8" rx="9.97" ry="3.13" transform="rotate(239.4 623.397 25.55)"/><path fill="#4eaaa8" d="M1175.66 580.95c-.77-3.09-1.36-8.15.23-10.89a.49.49 0 0 1 .76-.11q4.68 4.37 5.9 9.3c.77 3.1 1.36 8.15-.24 10.89a.49.49 0 0 1-.75.12q-4.68-4.38-5.9-9.31"/><ellipse fill="#4eaaa8" rx="9.32" ry="3.32" transform="rotate(243.4 688.96 -21.7)"/><ellipse fill="#4eaaa8" rx="9.95" ry="3.48" transform="rotate(233.7 560.531 85.359)"/><path fill="#4eaaa8" d="M698.75 583.51q.25-.04 2.49.9.52.22 2.21 1.53 5.52 4.3 6.92 11.04a1.24 1.21 13.7 0 0 .45.72c2 1.56 4.75 2.6 6.66 4.32q4.73 4.3 6.31 10.31a1.76 1.76 0 0 1-2.46 2.04q-6.51-3.1-9.51-9.53c-.93-1.99-.26-4.2-1.28-6.07a1.35 1.3 81.9 0 0-.82-.64c-5.56-1.42-11.63-5.73-12.57-11.83a2.53 2.04 80.9 0 1 1.6-2.79"/><ellipse fill="#4eaaa8" rx="9.59" ry="3.31" transform="rotate(238.7 631.932 34.985)"/><path fill="#4eaaa8" d="m1030.81 607.81-6.06.66q-3.33-6.68-2.98-13.37a1.19 1.18 8.6 0 1 1.48-1.09q.6.16 1.42.86 5.57 4.73 6.14 12.94"/><ellipse fill="#4eaaa8" rx="9.96" ry="3.16" transform="rotate(235.2 576 83.859)"/><path fill="#4eaaa8" d="M946.83 620.19q-.13.08-.21.05c-6.3-2.21-11.05-9.28-11.01-15.73q.01-1.02.62-1.4.66-.4 1.58.05c5.76 2.9 9.9 10.34 9.01 16.96q-.01.09.01.07"/><path fill="#72cac7" d="m1171.15 612.1 6.3-.12 13.13.44-1.25 3.01a3.17 3.1 75.3 0 1-.42.74c-6.9 9.1-12.74 17.47-19.53 26.06q-53.42 67.58-76.3 94.61-18.01 21.28-24.31 29.08c-6.45 7.99-14.29 17.38-19.06 22.43q-2.29 2.42-10.02 12.14-2.59 3.25-10.14 12.06-6.79 7.92-14.74 19.46-6.8 7.25-15.1 14.2c-17.02 14.24-36.23 24.78-56.6 33.13q-21.46 8.8-45.93 15.04-29.38 7.49-56.44 11.47-12.4 1.82-26.11 3.52-5.1.63-6.56.67c-3.36.08-5.65.92-8.73.87q-4.22-.07-8.11.89a4.91 4.79 38.1 0 1-1.2.13q-6-.07-10.03.35c-8.5.9-14.53.61-23.17 1.23q-6.06.43-13.13.45-9.05.02-36.04-.01-9.9-.01-15.8-.36c-11.22-.65-16.69-.38-26.38-1.32q-3.9-.37-10.71-.32a19.97 19.13 48.1 0 1-3.41-.26c-5.22-.86-10.39-.47-15.42-1.3-4.02-.66-8.84-.14-13.54-.97q-2.65-.47-6.41-.48a11.13 10.84-38 0 1-2.19-.24c-3.72-.81-8.58-.42-12.06-1.29-2.27-.56-4.81-.44-7.95-.78q-14.15-1.5-24.29-2.62-3.05-.34-4.96-.69c-2.7-.49-4.85-.17-7.04-.63q-2.56-.53-9.94-1.33c-11.71-1.26-24.22-3.37-34.02-4.92-2.56-.41-5.1-.22-6.71-.77q-.93-.32-8.57-1.46-4.3-.65-8.6-1.46-13.98-2.63-31.41-5.76-16.9-3.03-44.73-9.09-40.76-8.88-69.31-16.67-23.49-6.42-35.18-9.76-36.48-10.41-72.88-24.38-28.01-10.76-49.64-23.39c-13.96-8.15-26.92-17.74-37.62-29.62a3.38 3.37-9.3 0 0-1.16-.83q-1.83-.77-2.75-1-28.96-7.14-57.56-15.91c-25.7-7.89-51.28-16.57-73.9-29.6Q7.08 723.03 0 717.29v-82.75q.79-1.6 2.4-1.72 4.23 3.17 9.36 4.68c10.64 3.13 23.53 7.04 34.52 9.54q29.45 6.68 60.39 10.31 3.64.42 9.92.76c4.34.23 8.11.88 13.23 1.28q30.19 2.31 65.68 2.5 4.8.03 8.88-.74a.4.39-63.3 0 1 .24.74q-20.83 10.49-39.19 26.06-1.12.94-1.97 1.91a1.29 1.29 0 0 0 .28 1.95q12.28 7.71 25.23 12.17 20.5 7.07 49.24 13.73 36.15 8.38 60.31 11.95 24.85 3.67 37.28 5.37 6.49.89 12.89 1.18c5.36.24 10.06 1.34 17.14 2.18q32.1 3.83 65.42 5.63c3.01.16 6.07-.03 8.64.14 12.49.82 26.12.88 37.06 1.28q29.04 1.07 58.74.05 8.09-.27 22.62-.59 10.64-.23 23.7-1.12 26.68-1.82 51.18-3.94 10.75-.93 22.58-2.63 6.8-.98 22.5-3.3 10.61-1.56 15.86-2.65c6.93-1.43 13.66-2.49 21-4.41q7.33-1.92 14.71-3.51 6.93-1.5 14.56-3.97 20.61-6.69 28.48-9.25 9.42-3.07 16.82-8.21 4.06-2.82 6.62-4.25 4.44-2.47 6.74-4.03 15.7-10.67 23.77-15.78 9.89-6.27 35.67-21.11 1.35-.78 4.63-3.31a3.85 3.76 16.6 0 1 1.1-.58c2.65-.87 5.48-1.84 7.67-2.96 17.46-8.99 33-14.14 52.07-20.78 5.07-1.77 11.02-3.1 16.84-5.15q1.73-.6 6.77-1.94 35.93-9.53 73.17-13.55l6.06-.66q41-2.89 81.95-.92 1.14.05 2.25.15 6.57.56 13.16.81 7.56.29 15.08 1.15 14.08 1.6 27.9 3.1M772.54 871.54l21.67-.5-1.54.3a.28.25-8 0 0-.22.26v.01a.24.24 0 0 0 .23.23q5.98.21 10.15-.1c20.6-1.51 41.46-3.48 62.15-6.44q8.63-1.23 15.17-2.18 13.01-1.87 40.82-7.95 16.68-3.65 25.51-6.39 1.68-.52 2.73-2.55a1.04 1.02-44.4 0 0 .02-.92q-.91-1.92-1.91-3.39-11.36-16.7-25-33.19-5.83-7.06-13.58-15.4-11.38-12.26-14.14-14.87-14.13-13.38-32.24-25.22-17.37-11.34-38.08-12.2-7.49-.31-15.15 2.14-6.86 2.2-12.47 8.5c-7.11 7.99-10.43 16.75-13.08 27.24-5.44 21.6-9.94 42.59-13.49 63.01-1.77 10.12-3.8 17.35-4.11 27.03a2.45 2.44-72.4 0 0 1.09 2.11q2.41 1.6 5.47.47"/><path fill="#4eaaa8" d="M1198.45 612.03q-.62 1.2-2.07 2.18a2.67 2.56-.8 0 0-.73.72q-5.65 8.32-9.37 13.09c-17.29 22.16-29.68 38.71-46.31 59.08q-20.99 25.71-35.01 42.59-18.56 22.36-31.3 38.1c-10.98 13.58-21.31 24.55-33.49 39.15q-7.45 8.95-15.36 16.84-.77.77-4.18 3.31-2.23 1.66-3.69 3.87-.42.54-2.13 1.05 7.95-11.54 14.74-19.46 7.55-8.81 10.14-12.06 7.73-9.72 10.02-12.14c4.77-5.05 12.61-14.44 19.06-22.43q6.3-7.8 24.31-29.08 22.88-27.03 76.3-94.61c6.79-8.59 12.63-16.96 19.53-26.06a3.17 3.1 75.3 0 0 .42-.74l1.25-3.01zm-354.94 1.4c6.04 1.83 10.19 10.19 11.44 16.07a3.01 3-81.9 0 0 1.51 2.02c3.87 2.07 5.69 4.66 7.15 8.95q2.95 8.66 3.44 10.42a.52.52 0 0 1-.87.51c-2.08-2.08-5.67-3.8-7.73-6.28q-3.79-4.56-4.31-10.32a2.97 2.92-44.6 0 1 .01-.64q.16-1.22-.01-3.5a.47.46 80.7 0 0-.58-.42q-.56.15-1.37.1a2.21 2.19 66.4 0 1-1.23-.49c-5.44-4.52-8.26-8.7-8.05-15.99a.47.46-80.5 0 1 .6-.43m-108.45 16.11c-6.74-1.67-11-7.92-10.19-14.77a.6.59 14.1 0 1 .81-.48q7.37 2.95 10.67 10.46.68 1.56-.41 4.33a.76.76 0 0 1-.88.46m14.55 16q-.6.48-1.55.15c-5.95-2.11-10.9-8.83-10.85-15.37q0-.09-.02-.07.11-.09.2-.07c6.4 1.37 11.89 7.65 12.65 13.92q.12 1-.43 1.44"/><ellipse fill="#4eaaa8" rx="10.04" ry="3.37" transform="rotate(230.8 533.918 147.481)"/><ellipse fill="#4eaaa8" rx="10.16" ry="3.22" transform="rotate(232.6 551.308 145.338)"/><path fill="#4eaaa8" d="M791.56 697.06q-8.57-3.69-12.88-12.22c-1.05-2.07-.17-5.11 2.94-3.59q4.08 2 6.71 7.27 3.23 6.46 3.63 8.21a.29.29 0 0 1-.4.33m2.65 173.98q49.37-2.76 88.21-9.44 37.59-6.46 62.69-13.32 1.47-.4 2.4-.82a1.64 1.63-26.2 0 0 .77-2.25q-2.05-3.87-3.73-6.25-18.91-26.63-37.56-46.46-12.97-13.79-23.74-23.03-7.29-6.26-18.65-13.82-7.16-4.76-14.88-8.14c-13.31-5.81-29.73-8.13-43.12-2.39-9.01 3.87-15.85 14.44-19.07 23.42q-2.24 6.26-4.67 16.59-7.91 33.6-15.51 77.24-.6 3.5-.39 6.71a2.27 2.27 0 0 0 2.03 2.1l3.55.36q-3.06 1.13-5.47-.47a2.45 2.44-72.4 0 1-1.09-2.11c.31-9.68 2.34-16.91 4.11-27.03 3.55-20.42 8.05-41.41 13.49-63.01 2.65-10.49 5.97-19.25 13.08-27.24q5.61-6.3 12.47-8.5 7.66-2.45 15.15-2.14 20.71.86 38.08 12.2 18.11 11.84 32.24 25.22 2.76 2.61 14.14 14.87 7.75 8.34 13.58 15.4 13.64 16.49 25 33.19 1 1.47 1.91 3.39a1.04 1.02-44.4 0 1-.02.92q-1.05 2.03-2.73 2.55-8.83 2.74-25.51 6.39-27.81 6.08-40.82 7.95-6.54.95-15.17 2.18c-20.69 2.96-41.55 4.93-62.15 6.44q-4.17.31-10.15.1a.24.24 0 0 1-.23-.23v-.01a.28.25-8 0 1 .22-.26z"/><path fill="#def1f1" d="m794.21 871.04-21.67.5-3.55-.36a2.27 2.27 0 0 1-2.03-2.1q-.21-3.21.39-6.71 7.6-43.64 15.51-77.24 2.43-10.33 4.67-16.59c3.22-8.98 10.06-19.55 19.07-23.42 13.39-5.74 29.81-3.42 43.12 2.39q7.72 3.38 14.88 8.14 11.36 7.56 18.65 13.82 10.77 9.24 23.74 23.03 18.65 19.83 37.56 46.46 1.68 2.38 3.73 6.25a1.64 1.63-26.2 0 1-.77 2.25q-.93.42-2.4.82-25.1 6.86-62.69 13.32-38.84 6.68-88.21 9.44"/></symbol></svg>