<svg xmlns="http://www.w3.org/2000/svg"><symbol id="HeadphonesSvg" viewBox="0 0 1024 1024"><g fill="none" stroke-width="2"><path stroke="#081623" d="M804 583.92q-1 .79-2.03-.39-1.98-2.29-2.33-2.67-6.85-7.27-10.97-11.12-4.54-4.25-5.51-5.31c-4.1-4.5-9.9-8.81-14.02-12.86q-6.51-6.39-15.66-14.53-7.34-6.52-17.18-8.85-14.52-3.44-30.27-7.22-6.08-1.46-17.02-1.62-9.67-.14-16.78 2.63c-13.96 5.45-21.18 15.4-26.35 29.31-3.84 10.33-7.57 23.03-11.05 33.39q-10.13 30.2-20.18 60.82-2.78 8.49-6.13 19.04c-5.28 16.67-13.19 39.11-19.05 56.87q-10.58 32.01-19.51 58.46-.67 1.98-4.14 12.46c-1.4 4.23-1.76 7.55-2.56 11.53-1.81 8.95-.32 17.43 3.26 26.35q5.07 12.67 14.25 19.62 4.5 3.41 10.32 6.21c9.99 4.8 19.5 8.03 31.25 11.37 8.42 2.39 16.53 3.2 25.19 2.94q.2-.01 22.01-3.24.43-.06 9.11-1.51 3.84-.63 9.23-.87c8.01-.35 16.05-.66 23.97-.43q8.91.25 19.08-2.12 14.53-3.39 22.8-7.02c3.89-1.71 5.66-2.82 9.47-4.78q3.12-1.61 6.81-4.13 12.86-8.78 22.87-20.37 7.54-8.73 9.41-11.32 13.37-18.63 22.51-40.22 4.52-10.69 7.48-19.83c1.5-4.64 2.29-8.61 3.75-12.98q4.13-12.42 7.53-32.27 1.81-10.62 1.56-12.07a1.99 1.96 51.7 0 1 .12-1.1c1.25-2.92.77-6.66 1.18-9.99.74-5.98.42-10.82.26-17.55q-.13-5.83-.91-11.39-4.08-29.03-19.3-53.42a3.67 3.39-71 0 1-.41-.93c-1.2-4.09-.11-8.59-.16-11.81-.17-11.74-.44-17.5.11-26.99q.62-10.86.16-19.2a1.75 1.75 0 0 1 1.49-1.82c11.32-1.67 20.44-10.32 20.98-22.08q.3-6.61.71-42.01c.06-4.96-.37-10.29-.31-15.56.06-5.86-.6-12.19-.88-19.33q-.28-7.41-4.11-32.92a2.43 2.19 32.6 0 0-.14-.51q-.52-1.34-.92-3.8-2.33-14.21-6.43-29.89-1.53-5.88-3.86-13.73-2.56-8.6-4.42-13.55-9.21-24.55-15.93-37.71-7.18-14.08-12.98-23.32-2.48-3.96-3.18-5.13-1.96-3.27-3.19-5.11-12.75-19.06-26.82-35.35c-3.54-4.1-7.95-8.03-11.06-11.47q-3.85-4.27-8.49-8.51-13.49-12.37-24.31-20.87-5.7-4.48-11.96-8.79-8.42-5.81-12.33-8.33-29.13-18.81-62.92-31.34-9.7-3.6-21.19-7.04-27.01-8.09-53.24-11.31-38.11-4.67-78.92-2.08c-2.12.13-4.43.91-6.67.94q-6.43.09-15.36 1.52-17.93 2.87-21.21 3.62-9.92 2.25-18.49 4.29-6.55 1.55-22.3 6.62-13.32 4.29-21.83 8.04-29.19 12.86-49.81 26.31-18.94 12.36-34.11 25.41c-6.3 5.41-12.7 10.7-18.66 16.65q-27.61 27.55-46.79 57.85-10.49 16.57-15.94 28.11-2.65 5.62-7.93 17.08-2.33 5.06-3.69 9.06c-2.68 7.84-5.68 14.96-8.06 23.07q-4.49 15.23-5.09 17.69-5.67 23.1-9.16 54.07-.75 6.68-1.19 17.37c-.7 16.88-1.21 25.45-1.05 42.74l.23 25.31q.14 13.81 10.51 20.52c3.78 2.45 7.55 2.55 11.61 3.9a.92.91 9.1 0 1 .62.85l.76 57.77a4.26 4.24-27.7 0 1-.8 2.54q-7.59 10.58-11.91 24.08-8.88 27.73-6.8 56.85c.33 4.63.98 12.63 1.88 18.95q3.12 21.74 10.74 46.25 1.26 4.05 1.51 4.79 7.65 22.59 18.83 42.89 11.79 21.42 32.66 40.38c7 6.35 15.03 11.17 22.55 14.88q6.04 2.98 16.07 6.01 16.39 4.95 31.37 4.68 13.14-.24 26.95.75 6.26.45 21.08 3.05c4.62.81 10.63 1.25 14.01 1.77 5.96.92 14.1.05 18.83-1.08q.84-.21 12.99-3.75c9.91-2.9 19.34-7.03 28.79-10.74a4.07 3.9-72.8 0 0 .9-.5l8.65-6.38q1.3-.97 6.09-6.81 2.92-3.57 4.9-7.69 5.87-12.24 5.22-26.21-.32-6.88-4.71-19.68-6.45-18.78-8.17-23.11c-1.1-2.78-1.44-5.57-2.48-8.58q-.12-.36-6.03-17.51-.43-1.26-.88-2.59-3.1-9.29-4.6-13.45-2.72-7.5-4.51-13.48c-2.61-8.7-4.76-14.04-7.63-23.13q-1.18-3.75-5.5-15.76c-1.08-3-1.73-5.83-2.86-9.22-5.34-16.01-10.95-31.6-16.15-47.48q-3.89-11.85-5.31-15.6c-.95-2.48-1.51-5.82-2.58-8.49q-3.45-8.56-11.24-33.66-1.68-5.41-5.05-12.17-3.23-6.49-7.49-10.57-5.55-5.32-10.35-8.08c-11.63-6.68-26.96-5.86-39.86-2.86q-31.97 7.46-33.51 7.93-8.07 2.5-10.04 4.2-4.93 4.25-6.01 5.24-3.43 3.14-33.66 31.6-2.39 2.25-13.07 13.01-.43.43-.74.25t-.33-.79" vector-effect="non-scaling-stroke"/><path stroke="#081623" d="M804.1 584.52q1.13.2 1.83-.3.62-.44.63-1.67.18-17.06.2-38.58a.71.7-83.9 0 0-.55-.69q-2.24-.48-4.86-.91-5.59-.91-10.88-4.55c-4.34-2.98-6.86-7.58-8.32-12.59q-.97-3.31-.59-10.48 1.72-32.67-2.01-64.47c-.69-5.92-2.1-12.44-2.91-17.89q-1.09-7.24-2.59-13.31-5.84-23.63-14.15-43.5-24.28-58.05-71.44-98.59-10.2-8.77-23.88-18.04-14.73-9.98-25.83-15.63-20.64-10.51-38.48-16.31-14.45-4.7-36.09-9.39-2.9-.63-6.41-.8-2.33-.11-6.43-.76c-6.09-.96-13.19-1.13-19.28-1.83q-5.07-.58-9.62-.74-24.61-.83-44.18 1.85c-5.15.7-13.93 1.58-19.98 2.79q-12.59 2.52-27.51 6.53-4.22 1.13-6.06 1.84-3.65 1.41-5.94 2.11-4.16 1.28-8.95 3.11-24.62 9.42-47.08 24.3-.88.58-1.3.59a.85.84-78.5 0 0-.76.51q-.15.36-2.51 1.86-6.24 4.01-16.8 12.38-1.51 1.2-1.82 1.75a1.3 1.25-83.3 0 1-.72.59c-2.48.81-5.38 4.79-7.45 6.4-5.3 4.13-9.83 9.29-14.7 13.88-9.92 9.34-17.17 19.64-26.05 32.16q-1.07 1.51-1.84 2.59-6.27 8.94-9.98 15.81-5.66 10.49-9.5 18.73-16.65 35.72-22.89 73.8c-.4 2.4-.3 4.6-1.12 6.3a2 1.93 61.1 0 0-.19.7q-.3 3.55-1.19 12.31c-.3 2.87-.97 5.31-.95 8.25.03 4.26-.96 9.63-1.02 13.37-.17 10.13-.55 18.67-.1 27.02q.08 1.48.08 14.63 0 6.26-1.25 9.19c-2.68 6.33-6.41 9.07-12.62 12.02-2.64 1.25-6.5 1.5-9.74 2.35a.93.93 0 0 0-.7.9c-.04 5.05.46 10.24.22 15.17q-.38 7.86.04 17.98.1 2.3-.46 5.29a.85.85 0 0 0 .71 1q.59.09.88-.27" vector-effect="non-scaling-stroke"/><path stroke="#836d31" d="M195.42 455.86h27.14a.93.92-86.9 0 0 .92-.83q1.86-18.55 4.66-33.15c17.93-93.32 83.01-173.83 171.69-208.77 53.64-21.13 113.31-25.93 169.6-15.74 43.76 7.92 87.58 27 122.81 54.81q34.07 26.88 57.72 61.6 38.69 56.8 48.43 127.1.57 4.09 1.64 14.39a.64.64 0 0 0 .64.57h26.65a.74.74 0 0 0 .74-.8c-1.95-26.58-6.03-52.5-13.38-78.24q-16.94-59.31-54.87-106.8-32.23-40.34-75.94-67.56c-38.95-24.26-82.63-39.98-128-45.18q-22.37-2.56-42.37-2.55-20.82.01-29.25.58c-58.35 3.93-114.5 22.93-161.28 57.92q-27.26 20.38-49.55 45.22-46.31 51.62-65.48 119.96-6.72 23.94-10.01 50.74-1 8.22-2.97 26.21a.47.46-86.7 0 0 .46.52" vector-effect="non-scaling-stroke"/><path stroke="#103c60" d="m220.93 478.78-26.06.1a.99.99 0 0 0-.99.99l.12 34.83a6.46 5.63 89.8 0 0 5.65 6.44l16.78-.06a6.46 5.63 89.8 0 0 5.61-6.48l-.12-34.83a.99.99 0 0 0-.99-.99m607.77.13-26.64-.04a.82.82 0 0 0-.82.82l-.06 34.37a7.03 6.1-89.9 0 0 6.08 7.04l16.08.02a7.03 6.1-89.9 0 0 6.12-7.02l.06-34.37a.82.82 0 0 0-.82-.82m-104.11 67.25a.58.57 16.1 0 0-.41-.73q-12.48-2.97-20.94-4.89-1.9-.43-4.6-.72c-4.82-.51-9.46-1.34-14.11-.8a5.21 4.7-55 0 0-.87.2q-14.29 4.74-18.82 19.86-2.18 7.26-8.01 24.11-2.52 7.25-8.06 24.09-17.81 54.16-33.5 101.5c-6.94 20.92-14.39 41.65-19.61 57.65q-5.58 17.09-8.72 25.34-3.68 9.66-4.14 15.86-1.11 15.08 9.36 25.56c7.85 7.87 22.18 11.91 33.33 13.73a1.46 1.46 0 0 0 1.62-.98l97.48-299.78m-424.62.39 98.34 299.48a1.28 1.28 0 0 0 1.58.83q10.38-3.04 15.34-4.62c15.11-4.81 27.23-16.11 27.01-32.98-.06-4.75-1.6-10.2-3.17-14.56-9.97-27.79-21.08-61.48-31.88-92.75q-4.58-13.25-9.59-28.83c-11.59-36.05-26.99-79.26-37-110.66q-2.71-8.5-4.5-11.09-4.17-6-8.46-8.68c-7.98-4.99-17.78-4.39-26.57-2.31q-8.01 1.91-20.44 4.98a.93.92-16.2 0 0-.66 1.19" vector-effect="non-scaling-stroke"/><path stroke="#836d31" d="M261.44 572.66a.37.37 0 0 0-.11.39l87.87 272.56a.37.37 0 0 0 .29.26l28.07 4.54a.37.37 0 0 0 .41-.48l-96.12-295.26a.37.37 0 0 0-.6-.16l-19.81 18.15m385.48 276.89a.46.45 7 0 0 .49.62l26.67-3.85a1.42 1.41 4.6 0 0 1.14-.96l87.99-270.56a1.74 1.74 0 0 0-.46-1.79l-19.16-17.9a.49.49 0 0 0-.8.22q-.55 1.74-8.23 25.69-34.21 106.65-85.97 264.07-.53 1.64-1.67 4.46" vector-effect="non-scaling-stroke"/><path stroke="#103c60" d="M243.64 588.74q-5.48 5.1-7.67 6.98-13.88 11.96-16.61 14.97-15.25 16.78-19 39.37-2.51 15.04-2.07 29.95.7 23.83 7.56 47.42 6.25 21.51 15.59 44.05c12.65 30.5 35.13 59.33 66.67 68.64q12.25 3.62 22.92 4.29 9.1.57 17.01 1.4a.34.34 0 0 0 .36-.44q-17.88-52.71-31.84-96.24c-16.65-51.94-37.64-116.49-49.93-154.51q-1.06-3.29-2.39-5.78a.39.38-35.2 0 0-.6-.1M696.1 845.16a.37.37 0 0 0 .34.53q12.77-.14 26.54-2.24 17.8-2.72 31.79-11.47c18.52-11.57 33.11-29.45 42.89-48.8q17.26-34.15 24.79-72.64 5.29-27.03 1.79-55.04c-2.46-19.77-10.63-36.87-25.85-50.14q-7.63-6.66-18.19-15.12a.26.25-61.1 0 0-.4.12q-26.65 82.09-40.02 122.68c-4.57 13.87-11.65 36.22-18.46 56.68q-11.61 34.85-19.19 58.41-4.18 12.97-6.03 17.03" vector-effect="non-scaling-stroke"/><path stroke="#ec9b21" d="M802.43 454.04h23.69a.5.5 0 0 0 .5-.55c-1.33-12.04-2.08-24.53-3.9-34.61q-4.34-24.06-8.17-37.73-3.89-13.91-7.73-24.51c-8.14-22.51-18.48-43.81-31.95-63.63q-13.69-20.14-21.75-29.06-1.37-1.52-3.63-4.27-2.93-3.57-3.57-4.23-15.3-15.87-19.31-19.31-7.18-6.15-12.19-10.32-6.91-5.75-12.55-9.81-30.81-22.17-66.03-36.83-19.42-8.09-38.85-12.92-17.87-4.44-26.28-5.7-36.84-5.53-71.2-4.38-14.11.47-22.76 1.1-17.79 1.29-33.55 4.63-17.54 3.72-25.32 5.94-42.12 12-78.96 35.67c-3.88 2.49-7.96 5.49-12.8 8.95q-5.38 3.85-9.31 7.08-13.45 11.05-17.73 14.77-1.24 1.08-16.48 16.22-7.73 7.69-13.21 14.39-8.84 10.83-12.15 15.32-26.31 35.68-41.22 77.29-1.27 3.56-6.32 19.65-1.93 6.16-3.44 13.27c-1.92 9.11-4.57 20.08-5.83 29.73q-.35 2.71-1.97 16.16-.22 1.87-1.69 16.19a1.4 1.4 0 0 0 1.39 1.54h22.52a1.86 1.85-87.8 0 0 1.85-1.72q1.33-17.67 5.18-35.45 9.33-43.13 29.74-79.52 3.29-5.86 8.86-15.07 3.99-6.59 17.12-23.86.7-.93 3.08-3.45 1.52-1.62 2.96-3.56 1.39-1.89 5.09-6.21 2.14-2.49 5.5-5.85 14.52-14.52 17.59-17.24 10.75-9.54 26.37-20.62 15.94-11.3 34.42-20.35 40.79-19.98 85.69-26.89 3.78-.58 5.76-.7 3.16-.2 5.79-.62 4.52-.73 8.67-1 19.7-1.25 39.48-.87 4.84.1 7.34.36 5.14.54 7.33.46 3.39-.12 9.95.95 3.35.54 10 .97a5.36 5.14-34.9 0 1 1.02.16q5.63 1.46 10.57 1.88a4.53 4.5-33.9 0 1 .94.18q3.86 1.09 6.13 1.44 1.09.17 6.72 1.41 5.31 1.16 13.68 3.64c28.38 8.42 55.79 21.02 80.22 37.6q54.91 37.26 87.18 95.68 7.53 13.64 9.31 17.43 8.23 17.48 14.45 37.04 2.56 8.04 3.18 11.35c.88 4.75 3.18 10.95 3.87 14.85 1.69 9.66 3.29 16.38 4.2 25.14q.95 9.16 1.21 11.26a1.31 1.3-3.5 0 0 1.3 1.14M374.37 848.46a1.11 1.11 0 0 0 1.24-1.44l-94.07-288.94a1.11 1.11 0 0 0-1.8-.48l-16.33 14.97a1.11 1.11 0 0 0-.31 1.16l87.1 270.2a1.11 1.11 0 0 0 .88.76l23.29 3.77m387.45-274.28-16.31-15.9a1.3 1.3 0 0 0-2.14.53l-93.91 288.81a.56.56 0 0 0 .61.73l22.31-3.22a2.35 2.35 0 0 0 1.9-1.6q8.52-26.29 22.06-67.24c6.02-18.22 12.43-39.03 17.69-54.78q14.39-43.06 26.82-82.39 17.16-54.25 20.48-63.12.34-.89.54-1.16a.5.49 40.9 0 0-.05-.66" vector-effect="non-scaling-stroke"/></g><path fill="#010102" d="M804 583.92q-1 .79-2.03-.39-1.98-2.29-2.33-2.67-6.85-7.27-10.97-11.12-4.54-4.25-5.51-5.31c-4.1-4.5-9.9-8.81-14.02-12.86q-6.51-6.39-15.66-14.53-7.34-6.52-17.18-8.85-14.52-3.44-30.27-7.22-6.08-1.46-17.02-1.62-9.67-.14-16.78 2.63c-13.96 5.45-21.18 15.4-26.35 29.31-3.84 10.33-7.57 23.03-11.05 33.39q-10.13 30.2-20.18 60.82-2.78 8.49-6.13 19.04c-5.28 16.67-13.19 39.11-19.05 56.87q-10.58 32.01-19.51 58.46-.67 1.98-4.14 12.46c-1.4 4.23-1.76 7.55-2.56 11.53-1.81 8.95-.32 17.43 3.26 26.35q5.07 12.67 14.25 19.62 4.5 3.41 10.32 6.21c9.99 4.8 19.5 8.03 31.25 11.37 8.42 2.39 16.53 3.2 25.19 2.94q.2-.01 22.01-3.24.43-.06 9.11-1.51 3.84-.63 9.23-.87c8.01-.35 16.05-.66 23.97-.43q8.91.25 19.08-2.12 14.53-3.39 22.8-7.02c3.89-1.71 5.66-2.82 9.47-4.78q3.12-1.61 6.81-4.13 12.86-8.78 22.87-20.37 7.54-8.73 9.41-11.32 13.37-18.63 22.51-40.22 4.52-10.69 7.48-19.83c1.5-4.64 2.29-8.61 3.75-12.98q4.13-12.42 7.53-32.27 1.81-10.62 1.56-12.07a1.99 1.96 51.7 0 1 .12-1.1c1.25-2.92.77-6.66 1.18-9.99.74-5.98.42-10.82.26-17.55q-.13-5.83-.91-11.39-4.08-29.03-19.3-53.42a3.67 3.39-71 0 1-.41-.93c-1.2-4.09-.11-8.59-.16-11.81-.17-11.74-.44-17.5.11-26.99q.62-10.86.16-19.2a1.75 1.75 0 0 1 1.49-1.82c11.32-1.67 20.44-10.32 20.98-22.08q.3-6.61.71-42.01c.06-4.96-.37-10.29-.31-15.56.06-5.86-.6-12.19-.88-19.33q-.28-7.41-4.11-32.92a2.43 2.19 32.6 0 0-.14-.51q-.52-1.34-.92-3.8-2.33-14.21-6.43-29.89-1.53-5.88-3.86-13.73-2.56-8.6-4.42-13.55-9.21-24.55-15.93-37.71-7.18-14.08-12.98-23.32-2.48-3.96-3.18-5.13-1.96-3.27-3.19-5.11-12.75-19.06-26.82-35.35c-3.54-4.1-7.95-8.03-11.06-11.47q-3.85-4.27-8.49-8.51-13.49-12.37-24.31-20.87-5.7-4.48-11.96-8.79-8.42-5.81-12.33-8.33-29.13-18.81-62.92-31.34-9.7-3.6-21.19-7.04-27.01-8.09-53.24-11.31-38.11-4.67-78.92-2.08c-2.12.13-4.43.91-6.67.94q-6.43.09-15.36 1.52-17.93 2.87-21.21 3.62-9.92 2.25-18.49 4.29-6.55 1.55-22.3 6.62-13.32 4.29-21.83 8.04-29.19 12.86-49.81 26.31-18.94 12.36-34.11 25.41c-6.3 5.41-12.7 10.7-18.66 16.65q-27.61 27.55-46.79 57.85-10.49 16.57-15.94 28.11-2.65 5.62-7.93 17.08-2.33 5.06-3.69 9.06c-2.68 7.84-5.68 14.96-8.06 23.07q-4.49 15.23-5.09 17.69-5.67 23.1-9.16 54.07-.75 6.68-1.19 17.37c-.7 16.88-1.21 25.45-1.05 42.74l.23 25.31q.14 13.81 10.51 20.52c3.78 2.45 7.55 2.55 11.61 3.9a.92.91 9.1 0 1 .62.85l.76 57.77a4.26 4.24-27.7 0 1-.8 2.54q-7.59 10.58-11.91 24.08-8.88 27.73-6.8 56.85c.33 4.63.98 12.63 1.88 18.95q3.12 21.74 10.74 46.25 1.26 4.05 1.51 4.79 7.65 22.59 18.83 42.89 11.79 21.42 32.66 40.38c7 6.35 15.03 11.17 22.55 14.88q6.04 2.98 16.07 6.01 16.39 4.95 31.37 4.68 13.14-.24 26.95.75 6.26.45 21.08 3.05c4.62.81 10.63 1.25 14.01 1.77 5.96.92 14.1.05 18.83-1.08q.84-.21 12.99-3.75c9.91-2.9 19.34-7.03 28.79-10.74a4.07 3.9-72.8 0 0 .9-.5l8.65-6.38q1.3-.97 6.09-6.81 2.92-3.57 4.9-7.69 5.87-12.24 5.22-26.21-.32-6.88-4.71-19.68-6.45-18.78-8.17-23.11c-1.1-2.78-1.44-5.57-2.48-8.58q-.12-.36-6.03-17.51-.43-1.26-.88-2.59-3.1-9.29-4.6-13.45-2.72-7.5-4.51-13.48c-2.61-8.7-4.76-14.04-7.63-23.13q-1.18-3.75-5.5-15.76c-1.08-3-1.73-5.83-2.86-9.22-5.34-16.01-10.95-31.6-16.15-47.48q-3.89-11.85-5.31-15.6c-.95-2.48-1.51-5.82-2.58-8.49q-3.45-8.56-11.24-33.66-1.68-5.41-5.05-12.17-3.23-6.49-7.49-10.57-5.55-5.32-10.35-8.08c-11.63-6.68-26.96-5.86-39.86-2.86q-31.97 7.46-33.51 7.93-8.07 2.5-10.04 4.2-4.93 4.25-6.01 5.24-3.43 3.14-33.66 31.6-2.39 2.25-13.07 13.01-.43.43-.74.25t-.33-.79q1-1.39 2.25-2.62 23.49-23.04 47.02-44.48c5.38-4.9 10.78-7.05 18.42-8.87q9.97-2.37 24.58-5.92c4.92-1.19 8.96-1.65 14.57-2.65 9.3-1.65 20.93-.51 29.7 4.04q10.77 5.59 17.72 16.08 3.49 5.26 8.68 21.03 6.26 19.01 78.42 233.36 2.57 7.63 2.67 17.81c.17 16.02-7.33 30.27-19.66 40.13q-6.76 5.4-20.17 10.29-13.58 4.95-24.92 8.21-12.4 3.58-24.73 2.27c-5.09-.54-14.39-2.21-22.89-3.62-10.84-1.79-21.66-1.7-36.8-1.94q-11.84-.19-25.01-2.98-25.75-5.44-45.87-22.82-22.41-19.36-36.77-46.98-13.64-26.22-21.36-55.61-4.94-18.79-7.15-35.55-2.53-19.21-1.42-39.32.83-14.89 6.38-32.79 4.54-14.63 12.91-26.34a2.6 2.6 0 0 0 .48-1.65q-1.65-27.72-1.07-57.12a.61.6 2.5 0 0-.57-.61q-9.77-.56-15.89-7.58-6.28-7.19-6.37-16.28-.24-22.61-.33-37.51-.15-24.77 3.72-58.68 4.44-38.97 17.68-75.99 13.29-37.17 34.93-69.73 26.84-40.38 65.95-72.56 58.86-48.43 132.46-65.57 35.31-8.23 68.05-9.03 24.66-.61 36.05.14 11.99.78 21.5 1.75 43.37 4.41 86.17 20.74 57.44 21.9 103.59 63.9 21.96 19.99 38.48 41.99c20.1 26.78 36.03 55.62 47.45 87.53q13.66 38.19 18.8 79.25.4 3.19 1.85 18.62.47 5.06.66 10.83.03.75.62 10.81.85 14.29.22 27.4-.3 6.21-.23 14.19.08 8.82-.65 14.18c-1.56 11.32-10.33 20.04-21.75 21.69a.37.36 85.4 0 0-.3.36q.13 14.51-.06 34.99c-.08 8.54-.85 15.55-.87 22.16a1.81 1.73 29.8 0 0 .28.95q12.9 20.31 17.67 42.55 4.25 19.8 2.74 41.06c-1.81 25.55-8.13 51.31-16.88 76.09q-10.11 28.67-27.42 52.57-6.54 9.04-17.08 19.41-18.6 18.31-42.85 26.09-12.38 3.98-23.5 4.57c-3.13.17-7.17.89-10.93.95-14.84.2-26.24.27-39.06 2.58q-10.97 1.96-20.24 3-12.1 1.34-26.04-2.27-10.95-2.83-22.39-7.17-13.98-5.31-20.84-10.76-13.3-10.59-17.88-27.51c-4.27-15.81 1.13-30.1 6.15-45.05q36.83-109.63 68.87-207.23c2-6.1 4.55-14.47 7.43-22.27q1.98-5.38 5.69-11.09 12.11-18.59 33.52-20.43 9.19-.79 21.74 1.98 21.74 4.78 31.46 7.31 9.51 2.48 17.2 9.26 16.5 14.55 44.03 41.73 3.63 3.59 5.29 5.88"/><path fill="#0e2a44" d="M804 583.92q-.1.17.1.6 1.13.2 1.83-.3.62-.44.63-1.67.18-17.06.2-38.58a.71.7-83.9 0 0-.55-.69q-2.24-.48-4.86-.91-5.59-.91-10.88-4.55c-4.34-2.98-6.86-7.58-8.32-12.59q-.97-3.31-.59-10.48 1.72-32.67-2.01-64.47c-.69-5.92-2.1-12.44-2.91-17.89q-1.09-7.24-2.59-13.31-5.84-23.63-14.15-43.5-24.28-58.05-71.44-98.59-10.2-8.77-23.88-18.04-14.73-9.98-25.83-15.63-20.64-10.51-38.48-16.31-14.45-4.7-36.09-9.39-2.9-.63-6.41-.8-2.33-.11-6.43-.76c-6.09-.96-13.19-1.13-19.28-1.83q-5.07-.58-9.62-.74-24.61-.83-44.18 1.85c-5.15.7-13.93 1.58-19.98 2.79q-12.59 2.52-27.51 6.53-4.22 1.13-6.06 1.84-3.65 1.41-5.94 2.11-4.16 1.28-8.95 3.11-24.62 9.42-47.08 24.3-.88.58-1.3.59a.85.84-78.5 0 0-.76.51q-.15.36-2.51 1.86-6.24 4.01-16.8 12.38-1.51 1.2-1.82 1.75a1.3 1.25-83.3 0 1-.72.59c-2.48.81-5.38 4.79-7.45 6.4-5.3 4.13-9.83 9.29-14.7 13.88-9.92 9.34-17.17 19.64-26.05 32.16q-1.07 1.51-1.84 2.59-6.27 8.94-9.98 15.81-5.66 10.49-9.5 18.73-16.65 35.72-22.89 73.8c-.4 2.4-.3 4.6-1.12 6.3a2 1.93 61.1 0 0-.19.7q-.3 3.55-1.19 12.31c-.3 2.87-.97 5.31-.95 8.25.03 4.26-.96 9.63-1.02 13.37-.17 10.13-.55 18.67-.1 27.02q.08 1.48.08 14.63 0 6.26-1.25 9.19c-2.68 6.33-6.41 9.07-12.62 12.02-2.64 1.25-6.5 1.5-9.74 2.35a.93.93 0 0 0-.7.9c-.04 5.05.46 10.24.22 15.17q-.38 7.86.04 17.98.1 2.3-.46 5.29a.85.85 0 0 0 .71 1q.59.09.88-.27.49.08.89-.51.02.61.33.79t.74-.25q10.68-10.76 13.07-13.01 30.23-28.46 33.66-31.6 1.08-.99 6.01-5.24 1.97-1.7 10.04-4.2 1.54-.47 33.51-7.93c12.9-3 28.23-3.82 39.86 2.86q4.8 2.76 10.35 8.08 4.26 4.08 7.49 10.57 3.37 6.76 5.05 12.17 7.79 25.1 11.24 33.66c1.07 2.67 1.63 6.01 2.58 8.49q1.42 3.75 5.31 15.6c5.2 15.88 10.81 31.47 16.15 47.48 1.13 3.39 1.78 6.22 2.86 9.22q4.32 12.01 5.5 15.76c2.87 9.09 5.02 14.43 7.63 23.13q1.79 5.98 4.51 13.48 1.5 4.16 4.6 13.45.45 1.33.88 2.59 5.91 17.15 6.03 17.51c1.04 3.01 1.38 5.8 2.48 8.58q1.72 4.33 8.17 23.11 4.39 12.8 4.71 19.68.65 13.97-5.22 26.21-1.98 4.12-4.9 7.69-4.79 5.84-6.09 6.81l-8.65 6.38a4.07 3.9-72.8 0 1-.9.5c-9.45 3.71-18.88 7.84-28.79 10.74q-12.15 3.54-12.99 3.75c-4.73 1.13-12.87 2-18.83 1.08-3.38-.52-9.39-.96-14.01-1.77q-14.82-2.6-21.08-3.05-13.81-.99-26.95-.75-14.98.27-31.37-4.68-10.03-3.03-16.07-6.01c-7.52-3.71-15.55-8.53-22.55-14.88q-20.87-18.96-32.66-40.38-11.18-20.3-18.83-42.89-.25-.74-1.51-4.79-7.62-24.51-10.74-46.25c-.9-6.32-1.55-14.32-1.88-18.95q-2.08-29.12 6.8-56.85 4.32-13.5 11.91-24.08a4.26 4.24-27.7 0 0 .8-2.54l-.76-57.77a.92.91 9.1 0 0-.62-.85c-4.06-1.35-7.83-1.45-11.61-3.9q-10.37-6.71-10.51-20.52l-.23-25.31c-.16-17.29.35-25.86 1.05-42.74q.44-10.69 1.19-17.37 3.49-30.97 9.16-54.07.6-2.46 5.09-17.69c2.38-8.11 5.38-15.23 8.06-23.07q1.36-4 3.69-9.06 5.28-11.46 7.93-17.08 5.45-11.54 15.94-28.11 19.18-30.3 46.79-57.85c5.96-5.95 12.36-11.24 18.66-16.65q15.17-13.05 34.11-25.41 20.62-13.45 49.81-26.31 8.51-3.75 21.83-8.04 15.75-5.07 22.3-6.62 8.57-2.04 18.49-4.29 3.28-.75 21.21-3.62 8.93-1.43 15.36-1.52c2.24-.03 4.55-.81 6.67-.94q40.81-2.59 78.92 2.08 26.23 3.22 53.24 11.31 11.49 3.44 21.19 7.04 33.79 12.53 62.92 31.34 3.91 2.52 12.33 8.33 6.26 4.31 11.96 8.79 10.82 8.5 24.31 20.87 4.64 4.24 8.49 8.51c3.11 3.44 7.52 7.37 11.06 11.47q14.07 16.29 26.82 35.35 1.23 1.84 3.19 5.11.7 1.17 3.18 5.13 5.8 9.24 12.98 23.32 6.72 13.16 15.93 37.71 1.86 4.95 4.42 13.55 2.33 7.85 3.86 13.73 4.1 15.68 6.43 29.89.4 2.46.92 3.8a2.43 2.19 32.6 0 1 .14.51q3.83 25.51 4.11 32.92c.28 7.14.94 13.47.88 19.33-.06 5.27.37 10.6.31 15.56q-.41 35.4-.71 42.01c-.54 11.76-9.66 20.41-20.98 22.08a1.75 1.75 0 0 0-1.49 1.82q.46 8.34-.16 19.2c-.55 9.49-.28 15.25-.11 26.99.05 3.22-1.04 7.72.16 11.81a3.67 3.39-71 0 0 .41.93q15.22 24.39 19.3 53.42.78 5.56.91 11.39c.16 6.73.48 11.57-.26 17.55-.41 3.33.07 7.07-1.18 9.99a1.99 1.96 51.7 0 0-.12 1.1q.25 1.45-1.56 12.07-3.4 19.85-7.53 32.27c-1.46 4.37-2.25 8.34-3.75 12.98q-2.96 9.14-7.48 19.83-9.14 21.59-22.51 40.22-1.87 2.59-9.41 11.32-10.01 11.59-22.87 20.37-3.69 2.52-6.81 4.13c-3.81 1.96-5.58 3.07-9.47 4.78q-8.27 3.63-22.8 7.02-10.17 2.37-19.08 2.12c-7.92-.23-15.96.08-23.97.43q-5.39.24-9.23.87-8.68 1.45-9.11 1.51-21.81 3.23-22.01 3.24c-8.66.26-16.77-.55-25.19-2.94-11.75-3.34-21.26-6.57-31.25-11.37q-5.82-2.8-10.32-6.21-9.18-6.95-14.25-19.62c-3.58-8.92-5.07-17.4-3.26-26.35.8-3.98 1.16-7.3 2.56-11.53q3.47-10.48 4.14-12.46 8.93-26.45 19.51-58.46c5.86-17.76 13.77-40.2 19.05-56.87q3.35-10.55 6.13-19.04 10.05-30.62 20.18-60.82c3.48-10.36 7.21-23.06 11.05-33.39 5.17-13.91 12.39-23.86 26.35-29.31q7.11-2.77 16.78-2.63 10.94.16 17.02 1.62 15.75 3.78 30.27 7.22 9.84 2.33 17.18 8.85 9.15 8.14 15.66 14.53c4.12 4.05 9.92 8.36 14.02 12.86q.97 1.06 5.51 5.31 4.12 3.85 10.97 11.12.35.38 2.33 2.67 1.03 1.18 2.03.39M195.42 455.86h27.14a.93.92-86.9 0 0 .92-.83q1.86-18.55 4.66-33.15c17.93-93.32 83.01-173.83 171.69-208.77 53.64-21.13 113.31-25.93 169.6-15.74 43.76 7.92 87.58 27 122.81 54.81q34.07 26.88 57.72 61.6 38.69 56.8 48.43 127.1.57 4.09 1.64 14.39a.64.64 0 0 0 .64.57h26.65a.74.74 0 0 0 .74-.8c-1.95-26.58-6.03-52.5-13.38-78.24q-16.94-59.31-54.87-106.8-32.23-40.34-75.94-67.56c-38.95-24.26-82.63-39.98-128-45.18q-22.37-2.56-42.37-2.55-20.82.01-29.25.58c-58.35 3.93-114.5 22.93-161.28 57.92q-27.26 20.38-49.55 45.22-46.31 51.62-65.48 119.96-6.72 23.94-10.01 50.74-1 8.22-2.97 26.21a.47.46-86.7 0 0 .46.52m25.51 22.92-26.06.1a.99.99 0 0 0-.99.99l.12 34.83a6.46 5.63 89.8 0 0 5.65 6.44l16.78-.06a6.46 5.63 89.8 0 0 5.61-6.48l-.12-34.83a.99.99 0 0 0-.99-.99m607.77.13-26.64-.04a.82.82 0 0 0-.82.82l-.06 34.37a7.03 6.1-89.9 0 0 6.08 7.04l16.08.02a7.03 6.1-89.9 0 0 6.12-7.02l.06-34.37a.82.82 0 0 0-.82-.82m-104.11 67.25a.58.57 16.1 0 0-.41-.73q-12.48-2.97-20.94-4.89-1.9-.43-4.6-.72c-4.82-.51-9.46-1.34-14.11-.8a5.21 4.7-55 0 0-.87.2q-14.29 4.74-18.82 19.86-2.18 7.26-8.01 24.11-2.52 7.25-8.06 24.09-17.81 54.16-33.5 101.5c-6.94 20.92-14.39 41.65-19.61 57.65q-5.58 17.09-8.72 25.34-3.68 9.66-4.14 15.86-1.11 15.08 9.36 25.56c7.85 7.87 22.18 11.91 33.33 13.73a1.46 1.46 0 0 0 1.62-.98zm-424.62.39 98.34 299.48a1.28 1.28 0 0 0 1.58.83q10.38-3.04 15.34-4.62c15.11-4.81 27.23-16.11 27.01-32.98-.06-4.75-1.6-10.2-3.17-14.56-9.97-27.79-21.08-61.48-31.88-92.75q-4.58-13.25-9.59-28.83c-11.59-36.05-26.99-79.26-37-110.66q-2.71-8.5-4.5-11.09-4.17-6-8.46-8.68c-7.98-4.99-17.78-4.39-26.57-2.31q-8.01 1.91-20.44 4.98a.93.92-16.2 0 0-.66 1.19m-38.53 26.11a.37.37 0 0 0-.11.39l87.87 272.56a.37.37 0 0 0 .29.26l28.07 4.54a.37.37 0 0 0 .41-.48l-96.12-295.26a.37.37 0 0 0-.6-.16zm385.48 276.89a.46.45 7 0 0 .49.62l26.67-3.85a1.42 1.41 4.6 0 0 1.14-.96l87.99-270.56a1.74 1.74 0 0 0-.46-1.79l-19.16-17.9a.49.49 0 0 0-.8.22q-.55 1.74-8.23 25.69-34.21 106.65-85.97 264.07-.53 1.64-1.67 4.46M243.64 588.74q-5.48 5.1-7.67 6.98-13.88 11.96-16.61 14.97-15.25 16.78-19 39.37-2.51 15.04-2.07 29.95.7 23.83 7.56 47.42 6.25 21.51 15.59 44.05c12.65 30.5 35.13 59.33 66.67 68.64q12.25 3.62 22.92 4.29 9.1.57 17.01 1.4a.34.34 0 0 0 .36-.44q-17.88-52.71-31.84-96.24c-16.65-51.94-37.64-116.49-49.93-154.51q-1.06-3.29-2.39-5.78a.39.38-35.2 0 0-.6-.1M696.1 845.16a.37.37 0 0 0 .34.53q12.77-.14 26.54-2.24 17.8-2.72 31.79-11.47c18.52-11.57 33.11-29.45 42.89-48.8q17.26-34.15 24.79-72.64 5.29-27.03 1.79-55.04c-2.46-19.77-10.63-36.87-25.85-50.14q-7.63-6.66-18.19-15.12a.26.25-61.1 0 0-.4.12q-26.65 82.09-40.02 122.68c-4.57 13.87-11.65 36.22-18.46 56.68q-11.61 34.85-19.19 58.41-4.18 12.97-6.03 17.03"/><path fill="#f8b01d" fill-opacity=".996" d="M195.42 455.86a.47.46-86.7 0 1-.46-.52q1.97-17.99 2.97-26.21 3.29-26.8 10.01-50.74 19.17-68.34 65.48-119.96 22.29-24.84 49.55-45.22c46.78-34.99 102.93-53.99 161.28-57.92q8.43-.57 29.25-.58 20-.01 42.37 2.55c45.37 5.2 89.05 20.92 128 45.18q43.71 27.22 75.94 67.56 37.93 47.49 54.87 106.8c7.35 25.74 11.43 51.66 13.38 78.24a.74.74 0 0 1-.74.8h-26.65a.64.64 0 0 1-.64-.57q-1.07-10.3-1.64-14.39-9.74-70.3-48.43-127.1-23.65-34.72-57.72-61.6c-35.23-27.81-79.05-46.89-122.81-54.81-56.29-10.19-115.96-5.39-169.6 15.74-88.68 34.94-153.76 115.45-171.69 208.77q-2.8 14.6-4.66 33.15a.93.92-86.9 0 1-.92.83zm607.01-1.82h23.69a.5.5 0 0 0 .5-.55c-1.33-12.04-2.08-24.53-3.9-34.61q-4.34-24.06-8.17-37.73-3.89-13.91-7.73-24.51c-8.14-22.51-18.48-43.81-31.95-63.63q-13.69-20.14-21.75-29.06-1.37-1.52-3.63-4.27-2.93-3.57-3.57-4.23-15.3-15.87-19.31-19.31-7.18-6.15-12.19-10.32-6.91-5.75-12.55-9.81-30.81-22.17-66.03-36.83-19.42-8.09-38.85-12.92-17.87-4.44-26.28-5.7-36.84-5.53-71.2-4.38-14.11.47-22.76 1.1-17.79 1.29-33.55 4.63-17.54 3.72-25.32 5.94-42.12 12-78.96 35.67c-3.88 2.49-7.96 5.49-12.8 8.95q-5.38 3.85-9.31 7.08-13.45 11.05-17.73 14.77-1.24 1.08-16.48 16.22-7.73 7.69-13.21 14.39-8.84 10.83-12.15 15.32-26.31 35.68-41.22 77.29-1.27 3.56-6.32 19.65-1.93 6.16-3.44 13.27c-1.92 9.11-4.57 20.08-5.83 29.73q-.35 2.71-1.97 16.16-.22 1.87-1.69 16.19a1.4 1.4 0 0 0 1.39 1.54h22.52a1.86 1.85-87.8 0 0 1.85-1.72q1.33-17.67 5.18-35.45 9.33-43.13 29.74-79.52 3.29-5.86 8.86-15.07 3.99-6.59 17.12-23.86.7-.93 3.08-3.45 1.52-1.62 2.96-3.56 1.39-1.89 5.09-6.21 2.14-2.49 5.5-5.85 14.52-14.52 17.59-17.24 10.75-9.54 26.37-20.62 15.94-11.3 34.42-20.35 40.79-19.98 85.69-26.89 3.78-.58 5.76-.7 3.16-.2 5.79-.62 4.52-.73 8.67-1 19.7-1.25 39.48-.87 4.84.1 7.34.36 5.14.54 7.33.46 3.39-.12 9.95.95 3.35.54 10 .97a5.36 5.14-34.9 0 1 1.02.16q5.63 1.46 10.57 1.88a4.53 4.5-33.9 0 1 .94.18q3.86 1.09 6.13 1.44 1.09.17 6.72 1.41 5.31 1.16 13.68 3.64c28.38 8.42 55.79 21.02 80.22 37.6q54.91 37.26 87.18 95.68 7.53 13.64 9.31 17.43 8.23 17.48 14.45 37.04 2.56 8.04 3.18 11.35c.88 4.75 3.18 10.95 3.87 14.85 1.69 9.66 3.29 16.38 4.2 25.14q.95 9.16 1.21 11.26a1.31 1.3-3.5 0 0 1.3 1.14"/><path fill="#e08624" d="M802.43 454.04a1.31 1.3-3.5 0 1-1.3-1.14q-.26-2.1-1.21-11.26c-.91-8.76-2.51-15.48-4.2-25.14-.69-3.9-2.99-10.1-3.87-14.85q-.62-3.31-3.18-11.35-6.22-19.56-14.45-37.04-1.78-3.79-9.31-17.43-32.27-58.42-87.18-95.68c-24.43-16.58-51.84-29.18-80.22-37.6q-8.37-2.48-13.68-3.64-5.63-1.24-6.72-1.41-2.27-.35-6.13-1.44a4.53 4.5-33.9 0 0-.94-.18q-4.94-.42-10.57-1.88a5.36 5.14-34.9 0 0-1.02-.16q-6.65-.43-10-.97-6.56-1.07-9.95-.95-2.19.08-7.33-.46-2.5-.26-7.34-.36-19.78-.38-39.48.87-4.15.27-8.67 1-2.63.42-5.79.62-1.98.12-5.76.7-44.9 6.91-85.69 26.89-18.48 9.05-34.42 20.35-15.62 11.08-26.37 20.62-3.07 2.72-17.59 17.24-3.36 3.36-5.5 5.85-3.7 4.32-5.09 6.21-1.44 1.94-2.96 3.56-2.38 2.52-3.08 3.45-13.13 17.27-17.12 23.86-5.57 9.21-8.86 15.07-20.41 36.39-29.74 79.52-3.85 17.78-5.18 35.45a1.86 1.85-87.8 0 1-1.85 1.72h-22.52a1.4 1.4 0 0 1-1.39-1.54q1.47-14.32 1.69-16.19 1.62-13.45 1.97-16.16c1.26-9.65 3.91-20.62 5.83-29.73q1.51-7.11 3.44-13.27 5.05-16.09 6.32-19.65 14.91-41.61 41.22-77.29 3.31-4.49 12.15-15.32 5.48-6.7 13.21-14.39 15.24-15.14 16.48-16.22 4.28-3.72 17.73-14.77 3.93-3.23 9.31-7.08c4.84-3.46 8.92-6.46 12.8-8.95q36.84-23.67 78.96-35.67 7.78-2.22 25.32-5.94 15.76-3.34 33.55-4.63 8.65-.63 22.76-1.1 34.36-1.15 71.2 4.38 8.41 1.26 26.28 5.7 19.43 4.83 38.85 12.92 35.22 14.66 66.03 36.83 5.64 4.06 12.55 9.81 5.01 4.17 12.19 10.32 4.01 3.44 19.31 19.31.64.66 3.57 4.23 2.26 2.75 3.63 4.27 8.06 8.92 21.75 29.06c13.47 19.82 23.81 41.12 31.95 63.63q3.84 10.6 7.73 24.51 3.83 13.67 8.17 37.73c1.82 10.08 2.57 22.57 3.9 34.61a.5.5 0 0 1-.5.55z"/><path fill="#010102" d="M804.1 584.52q.19.22.57.02a.6.59-14.5 0 0 .31-.52V544.5a.39.39 0 0 0-.41-.39q-2.29.09-6.18-.93c-8.05-2.1-13.49-7.33-16.88-14.6q-1.58-3.36-1.58-9.6 0-9.82.35-17.4.38-8.29.1-17.15-.38-11.91-.72-17.17-.77-11.75-3.21-27.76-2.14-14.02-5.71-27.33c-13.62-50.75-40.21-96.24-79.65-131.24q-36.49-32.39-83.07-49.67-27.48-10.19-57.58-14.02-2.5-.32-4.37-.36c-2.07-.04-3.89-.79-5.76-.79-6.51.02-13.17-1.1-20.08-1.12q-9.46-.01-20.4.07-4.66.03-8.64.64c-3.59.56-7.33.25-11.57.72q-28.19 3.11-55.32 11.71-27.47 8.7-51.57 23.09c-32.51 19.42-61.58 46.08-82.71 77.79q-31.52 47.32-41.63 104.84-3.1 17.63-4.26 35.93-.9 14.35-.92 15.24-.42 15.67.58 28.52c.46 5.88-.16 12.83-3.1 18.04-4.1 7.26-12.59 12.49-21.12 12.45a.57.57 0 0 0-.58.57l.02 38.7q-.29.36-.88.27a.85.85 0 0 1-.71-1q.56-2.99.46-5.29-.42-10.12-.04-17.98c.24-4.93-.26-10.12-.22-15.17a.93.93 0 0 1 .7-.9c3.24-.85 7.1-1.1 9.74-2.35 6.21-2.95 9.94-5.69 12.62-12.02q1.25-2.93 1.25-9.19 0-13.15-.08-14.63c-.45-8.35-.07-16.89.1-27.02.06-3.74 1.05-9.11 1.02-13.37-.02-2.94.65-5.38.95-8.25q.89-8.76 1.19-12.31a2 1.93 61.1 0 1 .19-.7c.82-1.7.72-3.9 1.12-6.3q6.24-38.08 22.89-73.8 3.84-8.24 9.5-18.73 3.71-6.87 9.98-15.81.77-1.08 1.84-2.59c8.88-12.52 16.13-22.82 26.05-32.16 4.87-4.59 9.4-9.75 14.7-13.88 2.07-1.61 4.97-5.59 7.45-6.4a1.3 1.25-83.3 0 0 .72-.59q.31-.55 1.82-1.75 10.56-8.37 16.8-12.38 2.36-1.5 2.51-1.86a.85.84-78.5 0 1 .76-.51q.42-.01 1.3-.59 22.46-14.88 47.08-24.3 4.79-1.83 8.95-3.11 2.29-.7 5.94-2.11 1.84-.71 6.06-1.84 14.92-4.01 27.51-6.53c6.05-1.21 14.83-2.09 19.98-2.79q19.57-2.68 44.18-1.85 4.55.16 9.62.74c6.09.7 13.19.87 19.28 1.83q4.1.65 6.43.76 3.51.17 6.41.8 21.64 4.69 36.09 9.39 17.84 5.8 38.48 16.31 11.1 5.65 25.83 15.63 13.68 9.27 23.88 18.04 47.16 40.54 71.44 98.59 8.31 19.87 14.15 43.5 1.5 6.07 2.59 13.31c.81 5.45 2.22 11.97 2.91 17.89q3.73 31.8 2.01 64.47-.38 7.17.59 10.48c1.46 5.01 3.98 9.61 8.32 12.59q5.29 3.64 10.88 4.55 2.62.43 4.86.91a.71.7-83.9 0 1 .55.69q-.02 21.52-.2 38.58-.01 1.23-.63 1.67-.7.5-1.83.3"/><path fill="#124d7b" d="M220.93 478.78a.99.99 0 0 1 .99.99l.12 34.83a6.46 5.63 89.8 0 1-5.61 6.48l-16.78.06a6.46 5.63 89.8 0 1-5.65-6.44l-.12-34.83a.99.99 0 0 1 .99-.99zm607.77.13a.82.82 0 0 1 .82.82l-.06 34.37a7.03 6.1-89.9 0 1-6.12 7.02l-16.08-.02a7.03 6.1-89.9 0 1-6.08-7.04l.06-34.37a.82.82 0 0 1 .82-.82zm-104.11 67.25-97.48 299.78a1.46 1.46 0 0 1-1.62.98c-11.15-1.82-25.48-5.86-33.33-13.73q-10.47-10.48-9.36-25.56.46-6.2 4.14-15.86 3.14-8.25 8.72-25.34c5.22-16 12.67-36.73 19.61-57.65q15.69-47.34 33.5-101.5 5.54-16.84 8.06-24.09 5.83-16.85 8.01-24.11 4.53-15.12 18.82-19.86a5.21 4.7-55 0 1 .87-.2c4.65-.54 9.29.29 14.11.8q2.7.29 4.6.72 8.46 1.92 20.94 4.89a.58.57 16.1 0 1 .41.73m-424.62.39a.93.92-16.2 0 1 .66-1.19q12.43-3.07 20.44-4.98c8.79-2.08 18.59-2.68 26.57 2.31q4.29 2.68 8.46 8.68 1.79 2.59 4.5 11.09c10.01 31.4 25.41 74.61 37 110.66q5.01 15.58 9.59 28.83c10.8 31.27 21.91 64.96 31.88 92.75 1.57 4.36 3.11 9.81 3.17 14.56.22 16.87-11.9 28.17-27.01 32.98q-4.96 1.58-15.34 4.62a1.28 1.28 0 0 1-1.58-.83z"/><path fill="#f8b01d" fill-opacity=".996" d="m261.44 572.66 19.81-18.15a.37.37 0 0 1 .6.16l96.12 295.26a.37.37 0 0 1-.41.48l-28.07-4.54a.37.37 0 0 1-.29-.26l-87.87-272.56a.37.37 0 0 1 .11-.39m112.93 275.8a1.11 1.11 0 0 0 1.24-1.44l-94.07-288.94a1.11 1.11 0 0 0-1.8-.48l-16.33 14.97a1.11 1.11 0 0 0-.31 1.16l87.1 270.2a1.11 1.11 0 0 0 .88.76zm272.55 1.09q1.14-2.82 1.67-4.46 51.76-157.42 85.97-264.07 7.68-23.95 8.23-25.69a.49.49 0 0 1 .8-.22l19.16 17.9a1.74 1.74 0 0 1 .46 1.79l-87.99 270.56a1.42 1.41 4.6 0 1-1.14.96l-26.67 3.85a.46.45 7 0 1-.49-.62m114.9-275.37-16.31-15.9a1.3 1.3 0 0 0-2.14.53l-93.91 288.81a.56.56 0 0 0 .61.73l22.31-3.22a2.35 2.35 0 0 0 1.9-1.6q8.52-26.29 22.06-67.24c6.02-18.22 12.43-39.03 17.69-54.78q14.39-43.06 26.82-82.39 17.16-54.25 20.48-63.12.34-.89.54-1.16a.5.49 40.9 0 0-.05-.66"/><path fill="#e08624" d="m374.37 848.46-23.29-3.77a1.11 1.11 0 0 1-.88-.76l-87.1-270.2a1.11 1.11 0 0 1 .31-1.16l16.33-14.97a1.11 1.11 0 0 1 1.8.48l94.07 288.94a1.11 1.11 0 0 1-1.24 1.44m387.5-273.62q-.2.27-.54 1.16-3.32 8.87-20.48 63.12-12.43 39.33-26.82 82.39c-5.26 15.75-11.67 36.56-17.69 54.78q-13.54 40.95-22.06 67.24a2.35 2.35 0 0 1-1.9 1.6l-22.31 3.22a.56.56 0 0 1-.61-.73l93.91-288.81a1.3 1.3 0 0 1 2.14-.53l16.31 15.9a.5.49 40.9 0 1 .05.66"/><path fill="#124d7b" d="M244.24 588.84q1.33 2.49 2.39 5.78c12.29 38.02 33.28 102.57 49.93 154.51q13.96 43.53 31.84 96.24a.34.34 0 0 1-.36.44q-7.91-.83-17.01-1.4-10.67-.67-22.92-4.29c-31.54-9.31-54.02-38.14-66.67-68.64q-9.34-22.54-15.59-44.05-6.86-23.59-7.56-47.42-.44-14.91 2.07-29.95 3.75-22.59 19-39.37 2.73-3.01 16.61-14.97 2.19-1.88 7.67-6.98a.39.38-35.2 0 1 .6.1M696.1 845.16q1.85-4.06 6.03-17.03 7.58-23.56 19.19-58.41c6.81-20.46 13.89-42.81 18.46-56.68q13.37-40.59 40.02-122.68a.26.25-61.1 0 1 .4-.12q10.56 8.46 18.19 15.12c15.22 13.27 23.39 30.37 25.85 50.14q3.5 28.01-1.79 55.04-7.53 38.49-24.79 72.64c-9.78 19.35-24.37 37.23-42.89 48.8q-13.99 8.75-31.79 11.47-13.77 2.1-26.54 2.24a.37.37 0 0 1-.34-.53"/></symbol></svg>