<svg xmlns="http://www.w3.org/2000/svg"><symbol id="KobesSVG" viewBox="0 0 1024 1024"><g fill="none" stroke-width="2"><path stroke="#6f6f6f" d="M1024 563.73q-1.52 5.08 0 9.4m-6 22.06q.26-.54.04-.96-4.7-9.1-5.36-13.44-.57-3.82-1.59-7.53" vector-effect="non-scaling-stroke"/><path stroke="#382c58" d="M469.37 695.57q-5.27-.53-10.91-1.19-6.12-.7-10.84-1.55-21.86-3.93-31.62-5.84-16.79-3.3-39.74-9.31c-22.29-5.84-40.65-12.13-60.86-20.75q-7.31-3.11-25.6-12.83-24.95-13.24-40.49-21.62c-8.3-4.47-17.97-8.79-27.28-4.46q-11.19 5.2-14.31 17.79-5.12 20.7.05 42.49 1.76 7.45 4.76 12.77c6.26 11.1 17.93 15.99 30.35 20.54 22.35 8.18 45.19 13.63 66.61 19.64 34.99 9.81 70.59 16.82 106.83 22.24q13.53 2.02 27.94 3.53 22.93 2.41 28.02 2.87 23.48 2.15 48.47 2.79 36.67.93 73.75.28 33.95-.6 64.24-5.21 17.61-2.68 40.53-10.55 4.37-1.51 9.57-3.96 8.07-3.81 9.34-4.56 39.52-23.26 84.68-33.37 21.47-4.8 38.67-7.21 7.58-1.06 30.13-3.77 22.34-2.69 30.19-3.48c24.27-2.42 46.92-4.91 70.83-9.2q16.62-2.97 31.59-9.13 10-4.11 19.73-12.76M0 597.73c1.6 2.46 3.18 5.46 5.08 7.37q4.31 4.32 9.98 6.59c14.53 5.81 27.04 8.86 41.89 12.33q7.02 1.64 56.68 12.61c22.23 4.91 40.5 8.04 61 12q8.47 1.63 17.01 2.82a1.1 1.1 0 0 0 1.26-1.09q-.04-15.81 7.46-28.48a.22.22 0 0 0-.17-.33q-8.5-.71-18.69-2.55-12.8-2.3-21.55-4.22-24.32-5.35-48.71-16.04-16.46-7.22-29.43-20.09c-6.91-6.85-13.6-16.54-20.75-24.92-12.42-14.53-31.77-27.45-51.29-28.63-5.04-.31-6.72 2.94-9.53 5.98m451.69-245.04q9.29 2.15 12.15 3.11 9.32 3.13 22.11 9.7 3.12 1.6 6.55.38m-1.68-31.51q.13 2.67 1.4 4.87" vector-effect="non-scaling-stroke"/><path stroke="#382c58" d="M492.46 272.59q-.29 1.22.3 1.21m.02.23q-.1 5.38-1.96 10.48-.27.73-.06 1.47m0 0q-.82.29-.73 1.29m-.24.38q-1.5.58-1.82 2.47m1.51 7.35q-.22.33.03.5.35.24.69.1m-35.23-36.31q.5-.12.56-.54" vector-effect="non-scaling-stroke"/><path stroke="#6f6f6f" d="M582.18 291.94a.35.34-42.3 0 0-.03.55q10.83 9.06 19.88 14.96 3.06 1.99 10.24 5.64a.98.97-55.9 0 0 1.17-.23c6.65-7.59 16.15-7.29 26.03-5.33q6.89 1.37 12.89 4.18a1.29 1.28 34.9 0 0 1.44-.25c13.97-13.63 28.18-26.95 44.8-37.18a3.04 3.04 0 0 0 1.39-3.22q-1.4-6.74-6.74-13.11-9.89-11.82-25.27-12.95c-17.26-1.27-31.95 4.86-46.39 14.38q-6.65 4.39-17.52 14.04-12.28 10.9-17.62 15.28-2.39 1.95-4.27 3.24" vector-effect="non-scaling-stroke"/><path stroke="#382c58" d="M700.44 327.64q0 .55.55.73 14.16 4.64 14.28 4.67 6.4 1.8 12.7 5.07 4.14 2.15 12.94 5.56 1.51.58 2.6-.34.56-.48-.65-1.8m-25.08-48.45 2.18.1m.17.18q1.94 1.1 4.22 1.3a2.14 2.07 61.9 0 1 .9.29q1.26.73 2.54.52m2.97 1.61q.18.65.9.72m0 0q.8 1.78 2.56 2.1m1.57 1.38q.09.45.46.5m-277.7 71.01a1.13 1.13 0 0 0 1.34-.57c2.54-5.06-4.81-18.33-7.4-23.65q-1.86-3.82-4.88-8.36-12.69-19.09-28.67-38.41-3.98-4.8-10.15-10.29c-4.54-4.04-9.71-7.83-15.79-7.89q-1.56-.01-2.2 1.07c-1.46 2.46 1.53 6.53 3.33 8.18q11.37 10.49 25.24 26 10.33 11.56 15.69 19.6 9.5 14.25 20.5 32.04 1.04 1.68 2.99 2.28" vector-effect="non-scaling-stroke"/><path stroke="#6f6f6f" d="M834.5 337.61q9.38 9.57 18.08 21.06 6.15 8.12 11.95 14.24c10.47 11.05 25.11 18.52 40.46 17.92 13.72-.53 22.33-7.93 27.71-20.13q7.85-17.84 11.02-37.45 1.38-8.54 2.87-21.73.75-6.72-.16-8.74-3.31-7.35-8.13-10.03-8.26-4.57-18.39-4.87-24.7-.72-44.43 14.43-9.26 7.12-19.74 17.42-9.33 9.17-21.17 17.23a.43.42-39.3 0 0-.07.65" vector-effect="non-scaling-stroke"/><path stroke="#382c58" d="M430.67 293.66a.26.26 0 0 0-.22.42q2.94 3.48 4.76 6.05c1.09 1.53 2.75 2.72 4.36 3.05q15.51 3.23 29.29 10.72 13.97 7.59 33.9 22.33 2.9 2.15 4.82-.67c4.23-6.24-16.68-18.95-22.51-22.84q-10.57-7.06-22.91-11.3c-10.72-3.69-21.5-6.82-31.49-7.76m38.78 62.93 2.52 14.85M466.44 383l-13.12 2.54m-70.25 34.85q.8 5.52-.91 10.39a.32.32 0 0 0 0 .22q.09.27.3.3m-17.58 6.43q-2-1.55-5.28-2.63a2.69 2.68-9.5 0 1-1.28-.91l-4.18-5.43m-84.57 35.98q.06-.72-2.14-.84a3.05 2.98-30.9 0 1-1.05-.25l-10.21-4.43m-9.66-5.52L234 448.6a.11.11 0 0 0-.14.14q.05.12.11.24m-55.25-10.33q-1.26.41-2.54 1.13c-3.01 1.68-6.18 2.43-8.98 4.4q-.3.21-.4.68m-16.33 6.99q-9.16 1.82-15.82 6.93m20.48 140.88q4.22 2.85 10.43 2.58m66.7-20.5q.84-.11 1.27-.44 7.42-5.85 15.52-10.72.69-.41 1-1.59m28.16-15.1q11.36-6 23.24-12.18 1.22-.63 3.37-2.64a4.64 4.4 11.4 0 1 1.45-.91q3.64-1.43 4.46-2.47a.88.87 27.6 0 1 .95-.29q.68.22 1.79-.17 5.04-1.79 10.15-5.13.6-.39.52-.84m148.54-93.75q7.94-.56 18-2.64 2.7-.56 3.6-2.09m5.57-55.09q-.51 1.26.1 2.61m-26.18 10.48q1.13.84 3.02.09M249.81 548.78l.08 10.16m.12.49q-.35 1.45.17 2.78m71.91-44.04q0 .48.35.86m.62 1.75q-.19 1.37.49 1.78m47.12-214.92a.54.54 0 0 0 .67.72q8.07-2.62 14.16-2.93a.76.76 0 0 0 .58-1.21q-1.39-1.88-3.13-2.36a2.1 2.06 40.7 0 0-1.36.09l-9.31 3.87a2.72 2.69-89.9 0 0-1.48 1.49l-.13.33m253.93 12.89a.7.69 23.2 0 0 .39.96q3.51 1.29 6.21 2.81 21 11.78 38.31 28.98c12.79 12.73 23.82 29.77 32.21 46.23 4.24 8.3 6.56 13.39 11.02 18.74q1.13 1.35 2.02 1.69a2.2 1.77-83.4 0 0 2.37-2.33q-.38-9.51-5.16-19.63-7.33-15.51-18.5-31.43c-3.52-5.01-6.48-8.12-11.76-14.27q-6.66-7.74-15.77-15.72-12.49-10.94-23.29-15.9-7.58-3.49-15.03-2.12-2.26.42-3.02 1.99m326.53 37.49q-3.13 6.23-3.82 14.25m-2.21 4.11-11.2 16.2m-259.82 49.53.62 13.37m-19.73 12.15-10.01-7.51M282.88 622.01l.36 1.56a.97.94-33.6 0 1-.17.79q-.58.78.35 1.44 3.57 2.53 7.44 3.7m197.12 53.51c2.58.45 5.09.93 7.73 1.01q13.78.41 21.54.12 4.57-.17 12.84-1.58m31.61-7.21q7.9-1.08 15.08-5.25m78.53-45.3q3.53-1.19 11.51-5.47 5.59-3 15.24-5.31m31.79 5.99q5.08 3.84 12.43 5.31m82.14-11.2q7.28-2.53 14.26-7.22.52-.35.83-.77m23.05-12.17q7.01-1.46 11.97-5.92m68.07-30.97q4.78-1.11 9.38-3.96m49.65-23.28q4.71-1.2 5.58-3.93m-14.99-135.97q-2.64-13.28-7.39-26.69a.86.84-82.4 0 0-.32-.43q-.32-.21-.54-.14m-13.23-4.16q.78.39 1.83.15m20.21 47.59c-.35 1.28-.15 1.76.58 2.99.57.97.33 1.98 1.38 2.8m0 .47q-.06 1.2.24 2.15m0 0 .02 6.74m-.07.88-.22.92m-32.48 16.94q-.62-2.57-1.53-5.88c-.92-3.39-3.36-3.86-6.94-5.06a6.42 6.2-19.4 0 1-1.18-.54q-2.26-1.33-5.24-2.24m34.28-45.46-.05-1.4m-239.78 181q-3.05-2.6-6.86-5.37c-1.76-1.28-3.07-3.06-4.89-4.62m147.12 11.85q-.12.48 0 .85m.14.99q-.09.8.13 1.53m.13 2.25q-.11.46-.03.92m-.1.25q-.59.05-.28.93m0 0q-.87 1.77-.84 3.95m-49.15-8.93q-.04-.38.09-.84m131.93-30.22-.03 5.87m-.23.81-.14.62m-22.06 16.75q-2.98-.52-5.93-.09m-4.25-.56q-.24-.35-.85-.16m81.64-37.85q-.07.81.16 1.58M573.06 638.59l.29 17.4m2.79 1.83 2.13.9a.94.93-84.5 0 1 .55.67l.62 2.72m.16 1.16-.03 1.18m62-39.89q-.52-.56-1.6-.24m-1.01-.15-3.39-.18m0 0-4.18-.66a.61.6-88.2 0 1-.51-.55q-.06-.83-.69-1.46m-314.17-1.8 15.64 2.14a1.75 1.75 0 0 1 1.51 1.6q.25 3.08-1.23 6.19a.49.48-50.7 0 0 .04.47q.27.37.52.07" vector-effect="non-scaling-stroke"/><path stroke="#887eab" d="M332.5 629.99q-.47.72-.93 1.44-.36.56-.19.81.19.28.84.28" vector-effect="non-scaling-stroke"/><path stroke="#382c58" d="m332.22 632.52-1.01.28m-13.74-1.24q-.64-.38-1.5-.25m-.36-.26q-2.91-.56-6.15-.01m-6.25-.11q-1.62-.5-2.82-.03m-11.88-19.88q.48.07.65-.11.35-.39.12-.63m.73-.49q.49-.03.55-.51m0 0q.51.21.93-.09.25-.19-.04-.49" vector-effect="non-scaling-stroke"/><path stroke="#6f6f6f" d="M333.04 633.14q.37.02.4-.27a.19.18 17.2 0 0-.1-.18q-.45-.24-1.12-.17m.28-2.53c1.37-2.43 2.84-7.57-.18-9.12q-.64-.33-5.2-.87-4.72-.56-9.37-1" vector-effect="non-scaling-stroke"/><path stroke="#382c58" d="m854.36 436.48.03 2.23m.19 5.08.07 2.5m3.21 8.53q2.79.66 3.06 1.8m-.15 8.9q-3.38 1.55-6.57 3.66-3.2 2.12-10.92 4.2m-5.55-7.55-20.32.5m-490.9-130.12a.2.2 0 0 0 .12.38c12.88-2.13 24.76-.57 38.06 1.27q17.07 2.35 32.24 10.24 8.41 4.37 17.37 8.64c2.2 1.05 5.14 1.59 7.5.81a1.48 1.48 0 0 0 .66-2.37q-1.38-1.61-3.34-3.07-11.9-8.82-25.2-13.95-15.97-6.15-34.2-7.8-17.44-1.57-33.21 5.85m307.79 3.45-5.75-3.59a6.91 6.88-33 0 0-4.67-.98q-13.52 1.99-23.62 9.29c-.86.62-1.56.83-1.88 2a.45.45 0 0 0 .59.55q4.38-1.62 10.16-2.55 11.84-1.9 24.82-3.2a.82.82 0 0 0 .35-1.52m49.35-2.87q5.57 6.23 11.61 11.15 2.68 2.17 4.73 2.86 29.33 9.87 53.42 30.06.88.74 2.9 1.07a1.15 1.13-65.9 0 0 1.08-.42c3.16-3.99-1.12-8.7-4.27-11.38q-12.64-10.77-26.88-18.1-4.46-2.29-24.55-10.56c-5.71-2.35-10.24-3.06-17.91-4.9a.14.13 76.2 0 0-.13.22m-300.13 17.05q1.33 1.33 2.04 2.25 4.06 5.29 10.36 15.67c3.97 6.54 7.2 14.18 10.84 20.97q2.69 5.03 4.16 6.83c1.71 2.1 4.96 1.07 5.16-1.64.33-4.34-3.01-11.24-5.31-15.44q-5.86-10.71-6.9-12.35-4.52-7.09-6.28-8.59-5.76-4.89-13.76-8.18a.29.29 0 0 0-.31.48m-96.28 9.32c11.48-3.12 25.74-4.53 37.51-1.68q19.96 4.83 37.25 16.23 2.84 1.87 8.82 7.08a7.48 7.47-30.8 0 0 6.57 1.66l1.63-.37a2.46 2.46 0 0 0 1.08-4.25q-9.96-8.7-20.42-14.51-12.5-6.93-26.46-11.28c-14.03-4.38-29.08-2.09-42.34 3.38q-2.44 1.01-4.05 3.13a.39.39 0 0 0 .41.61m281.56 11c1.86.31 4.94-.62 7.28-.25q11.09 1.75 17.65 5.68 18.73 11.18 35.05 29.7 4.07 4.61 14.07 18.54 3.35 4.68 7.6 12.35 2.3 4.18 7.31 12.56 1.18 1.97 3.21 2.59a2.22 2.17 11.3 0 0 2.84-1.85q.45-4.55-1.09-9.22-7.45-22.6-22.99-40.25-6.73-7.63-13.57-14.2-10.49-10.07-23.84-16.74-11.09-5.55-22.54-3.84c-4.49.67-6.5 2.16-11.02 4.69a.13.13 0 0 0 .04.24m-223.47 7.23q4.3 7.72 5.73 11.59 2.52 6.77 4.55 10.95c2.79 5.73 5.15 11.3 7.46 16.47 1.19 2.68 3.56 6.36 6.07 6.8a1.93 1.93 0 0 0 2.26-2.05q-.54-6.69-2.74-13.05-5.48-15.94-18.69-28.54-2.25-2.14-4.25-2.67a.35.34-7.2 0 0-.39.5m-10.28 26.04c-.06-5.36-13.17-11.37-17.14-13.29q-21.7-10.52-46.16-10.19c-7.65.1-13.6 1.28-21.12 2.98-2.94.66-7.96 2.46-9.24 5.16a.44.44 0 0 0 .49.62c1.29-.25 2.78-.9 4.51-1.16 12.26-1.86 26.66-2.64 39.18.29q10.59 2.48 15 4.09 5.21 1.89 22.31 10.43 5.15 2.57 7.87 3.15 1.45.3 5.93-.66a.55.54 88.5 0 0 .42-.45q.12-.73-.18-1.13a.45.44-49.4 0 0-.74.06q-.27.49-.33.53a.52.52 0 0 1-.8-.43" vector-effect="non-scaling-stroke"/><path stroke="#382c58" d="m590.48 390.41-8.34-5.82a2.97 2.96-40.7 0 0-3.04-.22l-9.13 4.56a3.36 3.31 4.7 0 0-1.21 1.01q-1.24 1.65-4.49 3.11a.17.17 0 0 0 .08.32l26.02-2.54a.23.23 0 0 0 .11-.42m49.07-4.92c1.03 1.29 3 2.26 4.46 4.15q3.6 4.65 6.53 6.05 12.92 6.19 21.4 10.8 4.66 2.54 8.55-1.47a.84.83-53.1 0 0-.18-1.3q-.86-.5-.96-.59c-12.17-10.8-24.34-15.49-39.55-18.05a.26.25-14.3 0 0-.25.41m-351 17.57a.32.32 0 0 0-.34.51q10.63 13.9 21.02 30.7 1.25 2.02 6.29 11.73.25.48 2.07 1.77c2.28 1.62 3.71-1.48 3.63-3.29q-.24-5.26-2.92-11.13-5.96-13.04-14.18-22.26c-3.67-4.12-10.3-6.64-15.57-8.03m244.18 2.22q-.54.39-1.78.71-2.6.66-4.67 2.73a.48.48 0 0 0 .26.81q14.41 2.42 25.8 9.62c8.2 5.18 15.43 10.14 22.25 17.01 10.28 10.35 20.68 22.02 27.84 34.66q6.31 11.14 8.82 14.68.91 1.29 2.2 1.56a2.7 2.41-75.6 0 0 2.88-1.93c.59-1.98.04-4.25-.68-6.39q-4.63-13.79-11.17-23.99-4.79-7.47-16.92-20.29-8.75-9.26-19.79-17.74-5.92-4.55-15.47-8.82-10.03-4.49-19.38-2.71a.41.37 16.8 0 0-.19.09m-280.26 11.63q-2.96-1.97-4.49-3.53-2.76-2.79-4.55-3.61c-5.23-2.4-11.21-1.82-16.11 1.14a.5.5 0 0 0 .15.91l24.81 5.53a.24.24 0 0 0 .19-.44m406.96-4.17q.02.05 1.75 2.11 1.32 1.57 1.41 1.6.85.23 2.02-.6a.31.31 0 0 0-.01-.51l-4.66-2.93a.34.33-77.8 0 0-.51.33m-467.18 10.24q8.73 1.73 17.16 4.44 31.66 10.2 59.52 23.64 6.18 2.98 9.32 3.17 3.04.19 3.88-.62 3.18-3.05.2-5.43-4.09-3.28-13.88-8.36-18.11-9.39-38.88-15.12-10.64-2.93-21.19-5.57c-5.34-1.34-11.64.53-16.09 2.41q-.47.2-.5.85a.58.58 0 0 0 .46.59m399.91-1.86a.19.19 0 0 0-.17.33c3.65 3.18 6.63 7.08 11.11 9.89q8.12 5.09 17.35 8.41c3.54 1.26 7.2 1.66 10.25-.61a1.38 1.38 0 0 0 .11-2.12q-2.87-2.64-6.4-4.39-15.92-7.87-32.25-11.51m-52.65 5.62a.28.28 0 0 0 .08-.53q-5.61-2.75-8.89-4.1-3.17-1.3-5.53.08-4.38 2.57-9.05 6.74a.27.27 0 0 0 .06.44c1.72.92 7.73.13 10.57-.37q6.37-1.14 12.76-2.26m-63.54 22.37c3.53-.3 7.15-.17 10.63 1.09q14.34 5.15 24.39 12.82 8.69 6.63 20.64 18.59c1.91 1.92 4.97 5.59 6.76 8.33 2.65 4.04 5.54 7.03 8.34 11.23q3.01 4.53 7.12 10.67c1.27 1.89 5.16 4.1 6.61 1.21a1.55 1.55 0 0 0 .15-.95q-.66-4.62-2.22-8.03-15.19-33.14-47.51-52.98-8.07-4.95-18.62-6.12-8.74-.96-16.36 3.93a.11.11 0 0 0 .07.21m61.58 6.55q5.69 4.34 9.96 9.49a8.95 8.9 80.8 0 0 3.58 2.6l22.92 9.17a7.44 7.43 37.3 0 0 7.23-.97l.26-.2a2.62 2.62 0 0 0-.42-4.4q-10-5.11-21.91-10.13c-6.64-2.8-15.89-4.43-21.4-5.99a.25.24-18.2 0 0-.22.43m-42 10.91c-6.03-2.63-13.95-5.98-20.42-4.17-4.51 1.27-9.42 2.22-12.65 5.42a.58.58 0 0 0 .18.95q.72.3 3.42.08 11.75-.95 25.35-1.2 2.29-.04 4.09-.59a.26.26 0 0 0 .03-.49m-69.12 18.51c3.57 1.12 8.17.92 12.11 1.67q14.11 2.7 20.33 4.44 19.78 5.55 52.7 19.21c5.91 2.46 11.99 4.56 16.99 3.97a1.08 1.08 0 0 0 .94-1.2q-.28-2.13-.69-3.95c-.57-2.55-4.5-4.13-7.14-5.35q-21.5-9.92-40.36-16.13-10.44-3.43-22.09-5.39c-12.24-2.07-22.11-3.03-32.84 1.93a.43.43 0 0 0 .05.8m136.28-1.97q.05-1.12-.88-1.44a.4.4 0 0 0-.48.59q.22.38.63.69m-97.26-214.49q-.53.05-1.09.77m17.77 8.05q.33-.52-.11-1.33m-1.73-6.47q.02-.65-.32-1.21-.32-.54-.94-.32m310.24 206.22 3.42-.06m3.89-.01 6.14.02m-44.84-42.07-.19-1.58m-416.4 117.76q.31-.47-.04-.76m187.69 54.66-3.5-.03m-49.89-177.02a13.55 13.15 68.3 0 0 1.9.04m478.25-21.34a12.63 11.88-76.8 0 0-2.76.08M106.44 552.78q-.16.2-.9.05m264.61-67.2a6.18 2.51 15.1 0 0 .8.3m.37.12a12.49 11.87 2.4 0 0 7.48.03m353.1-27.92c-2.42 5.4-5.1 9.78-6.89 14.68q-3.22 8.84-5.73 19.48c-3.25 13.79-5.08 26.15-1.39 39.08q2.8 9.82 8.98 15.02c10 8.42 25.01 9.93 37.81 8.04 7.66-1.14 15.67-4.5 22.31-7.95q15.84-8.21 29.98-17.81 39.3-26.66 87.18-63.3 6.76-5.17 16.81-14.43 4.41-4.06 9.83-8.54a.53.52-40 0 0 .07-.74l-.01-.02a.54.53 50.7 0 0-.75-.08q-5.05 3.97-10.45 6.79c-5.94 3.09-10.87 6.21-16.88 9.41-29.59 15.72-55.84 29.52-84.4 40.15-16.77 6.24-31.17 11.22-46.58 11.75-11.45.39-22.2-2.23-30.05-10.9-8.46-9.34-10.83-27.88-9.36-40.5a.25.25 0 0 0-.48-.13m181.64 88.93a5.01 1.46 25.5 0 0 .63.22m.46.13a12.24 12.17 47.7 0 0 5.21.26m-94.9 18.99a11.74 11.44-45.1 0 0 .17 2.83m10.46 9.2a11.72 11.41-45.1 0 0 1.86-.05" vector-effect="non-scaling-stroke"/></g><path fill="#1f1d1c" d="M1024 525.23v38.5q-1.52 5.08 0 9.4v30.57l-5.16-8.04a.89.85 80.7 0 0-.49-.37l-.35-.1q.26-.54.04-.96-4.7-9.1-5.36-13.44-.57-3.82-1.59-7.53-.67-11.26.98-22.47 1.11-7.54.88-10.08-.46-5.08-2.26-9.85a.76.76 0 0 0-1.16-.35c-1.85 1.37-3.77 3.44-6.04 4.93q-13.14 8.66-26.56 15.01-19.26 9.12-20.89 9.83-17.03 7.47-53.48 22.61c-11.6 4.81-24.74 11.06-33.25 15.08q-9.1 4.31-11.94 5.84-5.27 2.85-11.88 6.03-6.81 3.28-17.64 9.3-14.76 8.22-36.2 18.77-14.56 7.16-29.38 9.77-3.36.59-10.94.45c-6.11-.11-13.97-2.67-18.71-4.51q-5.68-2.21-20.33-8.97-.12-.06-.71-.49a1.27.95-8.2 0 0-.22-.12q-6.96-2.65-7.14-2.72c-7.45-3.01-14.74-3.58-22.96-2.5-6.13.8-13.24 4.7-18.38 7.81q-12.29 7.42-20.93 13.25c-6.28 4.25-11.84 7.35-18.52 11.55q-25.87 16.26-51.81 25.17-32.69 11.24-68.42 11.27c-7.14 0-14.49-.94-21.83-1.09a8.9 8.76-37.9 0 1-1.62-.19q-4.91-1.04-10.38-1.02-5.27-.53-10.91-1.19-6.12-.7-10.84-1.55-21.86-3.93-31.62-5.84-16.79-3.3-39.74-9.31c-22.29-5.84-40.65-12.13-60.86-20.75q-7.31-3.11-25.6-12.83-24.95-13.24-40.49-21.62c-8.3-4.47-17.97-8.79-27.28-4.46q-11.19 5.2-14.31 17.79-5.12 20.7.05 42.49 1.76 7.45 4.76 12.77c6.26 11.1 17.93 15.99 30.35 20.54 22.35 8.18 45.19 13.63 66.61 19.64 34.99 9.81 70.59 16.82 106.83 22.24q13.53 2.02 27.94 3.53 22.93 2.41 28.02 2.87 23.48 2.15 48.47 2.79 36.67.93 73.75.28 33.95-.6 64.24-5.21 17.61-2.68 40.53-10.55 4.37-1.51 9.57-3.96 8.07-3.81 9.34-4.56 39.52-23.26 84.68-33.37 21.47-4.8 38.67-7.21 7.58-1.06 30.13-3.77 22.34-2.69 30.19-3.48c24.27-2.42 46.92-4.91 70.83-9.2q16.62-2.97 31.59-9.13 10-4.11 19.73-12.76v16.54q-9.19 6.7-20.13 10.8-14.48 5.42-27.64 7.78-23.45 4.22-39.46 6.01c-6.59.74-13.43 1.76-20.61 2.51q-40.48 4.19-47.53 5-17.5 2.01-31.61 4.14-19.37 2.92-38.27 7.44-18.1 4.33-30.59 9.23-13.88 5.44-35.08 16.9-13.43 7.26-21.1 10.45c-18.18 7.57-37.08 12.5-56.27 15.27q-13.42 1.94-34.77 3.67c-7 .56-12.25.39-18.87.9q-4.92.38-14.14.53-33.14.55-58.68-.43c-.78-.03-1.59-.32-2.34-.33q-15.72-.2-18.91-.38c-10.74-.6-32.42-1.68-47.64-3.28q-20.39-2.14-23.11-2.49-31.43-4.06-66.18-10.62c-32.58-6.15-66.51-14.95-98.52-24.19-10.59-3.06-22.17-7.17-32.22-10.34q-4.29-1.36-12.95-5.02c-10.02-4.23-20.55-12.03-25.95-21.72-5.41-9.75-8.03-21.21-8.6-32.18a1.02 1.02 0 0 0-.84-.95q-7.89-1.37-20.75-3.51-13.25-2.2-47.98-9.08-17.31-3.44-42.59-9.04-31.13-6.9-54.38-13.11-14.6-3.9-26.29-12.15v-20.38c1.6 2.46 3.18 5.46 5.08 7.37q4.31 4.32 9.98 6.59c14.53 5.81 27.04 8.86 41.89 12.33q7.02 1.64 56.68 12.61c22.23 4.91 40.5 8.04 61 12q8.47 1.63 17.01 2.82a1.1 1.1 0 0 0 1.26-1.09q-.04-15.81 7.46-28.48a.22.22 0 0 0-.17-.33q-8.5-.71-18.69-2.55-12.8-2.3-21.55-4.22-24.32-5.35-48.71-16.04-16.46-7.22-29.43-20.09c-6.91-6.85-13.6-16.54-20.75-24.92-12.42-14.53-31.77-27.45-51.29-28.63-5.04-.31-6.72 2.94-9.53 5.98q-.12.01-.24.01v-16.83l5.09-2.65a2.54 2.4 6.8 0 0 .7-.52q11.11-11.57 25.76-19.56c16.37-8.93 34.17-17.25 49.52-23.91 27.85-12.06 54.61-24.49 83.05-37.5q3.67-1.68 11.77-4.97a3.35 3.35 0 0 0 2-2.33c1.12-4.75 2.94-7.82 7.29-10.47 6.47-3.93 15.98-5.13 23.19-5.49a.98.93-59 0 0 .4-.11l17.79-10.18a.8.79 72.7 0 0 .39-.75c-.97-12.29 9.97-17.69 20.28-19.92q8.46-1.82 16.26-2.72c4.1-.48 5.53-1.75 9.74-5.06a1.69 1.68 73.9 0 0 .61-1.11q.75-7.07 1.28-8.17c3.96-8.21 12.56-11.57 21.12-13.47 5.3-1.18 9.75-2.72 14.97-3.23a.71.7 1 0 0 .62-.59q.08-.47-.22-1.22t-.25-1.26q.63-7.17 4.93-11.04 4.93-4.44 12.27-6.46 9.39-2.58 20.16-2.86 2.31-.06 4.88-1.64a1.07 1.06-12.2 0 0 .51-.79c.25-2.22-.45-5.67.21-8.03q1.94-7 6.98-10.74 6.02-4.46 13.74-4.92a.99.99 0 0 0 .92-1.13c-2.25-15.42 10.99-23.11 24.59-20.02q2.76.63 9.07 3.49a.98.98 0 0 0 1.02-.13q18.54-14.55 20.71-16.44 16.76-14.57 32.33-25.16 21.38-14.55 44.98-4.79 9.8 4.06 21.64 13.57 23.73 19.07 42.27 38.1a.65.04 48.6 0 0 .07.09l.93 1.44a.62.61-33.6 0 0 .86.17q2.96-1.97 4.72-3.63 2.89-2.72 13.3-11.95c19.64-17.41 39.93-33.15 66.8-35.04 24.16-1.69 46.76 11.21 53.6 35.27a1.09 1.09 0 0 0 1.34.75c4.67-1.28 8.48-2.92 13.35-3.65q35.97-5.45 64.44 17.51 9.22 7.44 16.63 16.36 8.34 10.05 14.33 24.42a4.47 4.43-75.7 0 0 .63 1.07q1.34 1.7 1.38 2.67a.63.62 82.7 0 0 .75.59q2.1-.45 3.79-1.67c9.87-7.12 16.37-13.8 28.07-24.91q7.39-7.02 19.63-14.38 20.09-12.09 43.43-11.1 2.78.12 10.06 1.78 5.77 1.31 9.71 3.11 7.8 3.58 13.78 10.31 4.51 5.08 8.91 14.79 4.3 9.5 9.04 23.71 6.36 19.05 9.82 31.07 10.24 35.57 17.34 63.62 5.88 23.24 10.15 48.77 1.86 11.1 4.1 31.45.65 5.87.67 9.28a.98.98 0 0 0 .43.81q6.81 4.77 9.37 12.44M451.93 286.04q9.29 2.15 12.15 3.11 9.32 3.13 22.11 9.7 3.12 1.6 6.55.38 7.42-5.35 11.93-8.05 8.02-4.82 18.83-8.43 8.84-2.95 17.26-2.44 3.62.21 8.26.72c1.52.16 2.47.79 4.13.65a.33.32-18.2 0 0 .26-.5q-.84-1.3-5.16-5.43-18.27-17.49-36.84-29.64c-10.62-6.94-22.82-10.59-34.83-4.28q-4.02 2.11-7.79 4.71-7.72 5.33-10.29 7.61-2.17 1.93-5.19 3.87-2.33 1.49-5.22 3.81c-7.38 5.89-11.22 9.27-17.36 13.4q-3.68 2.46-7.62 6.09a.33.33 0 0 0 .21.58q10.97.5 21.85 2.13 1.66.24 3.43.85 1.56.54 3.33 1.16m130.25 5.9a.35.34-42.3 0 0-.03.55q10.83 9.06 19.88 14.96 3.06 1.99 10.24 5.64a.98.97-55.9 0 0 1.17-.23c6.65-7.59 16.15-7.29 26.03-5.33q6.89 1.37 12.89 4.18a1.29 1.28 34.9 0 0 1.44-.25c13.97-13.63 28.18-26.95 44.8-37.18a3.04 3.04 0 0 0 1.39-3.22q-1.4-6.74-6.74-13.11-9.89-11.82-25.27-12.95c-17.26-1.27-31.95 4.86-46.39 14.38q-6.65 4.39-17.52 14.04-12.28 10.9-17.62 15.28-2.39 1.95-4.27 3.24m118.26 35.7q0 .55.55.73 14.16 4.64 14.28 4.67 6.4 1.8 12.7 5.07 4.14 2.15 12.94 5.56 1.51.58 2.6-.34.56-.48-.65-1.8 4.47-3.25 13.79-8.85 23.45-14.08 50.56-9.55a.72.72 0 0 0 .77-1.03c-7.46-14.81-19.03-26.97-33.48-35.86-11.18-6.88-22.07-9.92-34.87-10-12.58-.07-24.77 4.16-35.6 10.77q-11.38 6.95-16.72 11.32-14.9 12.22-20.69 17.29-1.65 1.44-3.32 2.07a.48.46-11.4 0 0-.3.43q0 .56.15.71a.4.4 0 0 0 .6-.05q.3-.43.58-.48a.71.7-34.7 0 1 .52.09l5.48 3.24a2.71 2.65 64.2 0 0 .94.34q13.57 2.27 28.46 6.09.48.13.71-.42m-241.89 45.15a1.13 1.13 0 0 0 1.34-.57c2.54-5.06-4.81-18.33-7.4-23.65q-1.86-3.82-4.88-8.36-12.69-19.09-28.67-38.41-3.98-4.8-10.15-10.29c-4.54-4.04-9.71-7.83-15.79-7.89q-1.56-.01-2.2 1.07c-1.46 2.46 1.53 6.53 3.33 8.18q11.37 10.49 25.24 26 10.33 11.56 15.69 19.6 9.5 14.25 20.5 32.04 1.04 1.68 2.99 2.28m375.95-35.18q9.38 9.57 18.08 21.06 6.15 8.12 11.95 14.24c10.47 11.05 25.11 18.52 40.46 17.92 13.72-.53 22.33-7.93 27.71-20.13q7.85-17.84 11.02-37.45 1.38-8.54 2.87-21.73.75-6.72-.16-8.74-3.31-7.35-8.13-10.03-8.26-4.57-18.39-4.87-24.7-.72-44.43 14.43-9.26 7.12-19.74 17.42-9.33 9.17-21.17 17.23a.43.42-39.3 0 0-.07.65m-403.83-43.95a.26.26 0 0 0-.22.42q2.94 3.48 4.76 6.05c1.09 1.53 2.75 2.72 4.36 3.05q15.51 3.23 29.29 10.72 13.97 7.59 33.9 22.33 2.9 2.15 4.82-.67c4.23-6.24-16.68-18.95-22.51-22.84q-10.57-7.06-22.91-11.3c-10.72-3.69-21.5-6.82-31.49-7.76m38.78 62.93 2.52 14.85q-.57 7.12-5.53 11.56l-13.12 2.54q-3.82-1.75-6.67-4.87-2-2.19-4.43-7.01-1.97-3.89-6.43-10.13a.75.74 46.3 0 0-1.19-.03q-4.26 5.54-9.17 7.96a.6.42 10.3 0 1-.11.05l-4.94 1.5a.55.54 64.8 0 0-.29.82c5.3 7.79 10.8 21.39 5.91 30.37a3.23 3.07-11.5 0 1-.44.63q-4.69 5.26-6.88 6.14-9.62 3.9-16.65-2.32c-1.92-1.7-4.84-6.03-5.71-8.35q-2.55-6.78-4.15-8.55a.46.46 0 0 0-.69.01q-4.63 5.38-12.84 7.96a1.56 1.56 0 0 0-.95 2.15q4.04 8.65 5.38 18.52.8 5.52-.91 10.39a.32.32 0 0 0 0 .22q.09.27.3.3l-.11.48a1.77 1.73-16.8 0 1-.45.82q-7.05 7.14-17.02 5.13-2-1.55-5.28-2.63a2.69 2.68-9.5 0 1-1.28-.91l-4.18-5.43-4.52-10.61a1.3 1.3 0 0 0-1.75-.66c-7.79 3.75-13.12 6.56-19.75 7.77a.3.3 0 0 0-.2.44c6.09 10.23 9.11 26.47-4.27 32.9a3.75 3.73-60.7 0 1-1.13.32q-11.01 1.3-17.07-6.11-1.57-1.91-5.46-9.19a1.7 1.7 0 0 0-2.35-.67l-2.72 1.57a1.79 1.78 62 0 0-.71 2.32c2.14 4.38-1.38 11.86-4.56 14.99q-3.22 3.16-8.8 4.06-5.59.9-11.28-1.15.06-.72-2.14-.84a3.05 2.98-30.9 0 1-1.05-.25l-10.21-4.43q-3.7-3.32-9.66-5.52L234 448.6a.11.11 0 0 0-.14.14q.05.12.11.24-.9-.96-1.32-.85-.62.16-1.21-.07-18.32-7.08-35.95-11.82-8.53-2.3-16.77 2.41-1.26.41-2.54 1.13c-3.01 1.68-6.18 2.43-8.98 4.4q-.3.21-.4.68l-16.33 6.99q-9.16 1.82-15.82 6.93-15.42 7.46-31.25 14.33-10.72 4.65-17.81 7.89-7.52 3.44-17.84 7.81-18.04 7.66-34.79 18.18-4.95 3.11-8.44 6.13a.42.42 0 0 0 .12.71c11.8 4.76 23.66 9.97 33.43 17.95q9.42 7.69 17 17.14.46.56 9.22 11.81 16.85 21.63 42.8 30.93 1.02.37 1.43.38c1.12.06 2.13.84 3.23 1.23q11.5 4.04 23.38 6.39 4.22 2.85 10.43 2.58 6.78 1.24 13.65 2.75 4.62 1.02 8.66 1.45 5.89.62 8.71 1.21c2.02.42 4.44.12 6.18.53q3.56.85 7 .82a1.56 1.56 0 0 0 1.02-.38c3.37-2.88 4.49-5.25 7.26-9.86q5.35-8.92 13.83-16.37.25-.23.39-.65.84-.11 1.27-.44 7.42-5.85 15.52-10.72.69-.41 1-1.59 2.04-.47 2.94-.99 12.3-7.07 25.22-14.11 11.36-6 23.24-12.18 1.22-.63 3.37-2.64a4.64 4.4 11.4 0 1 1.45-.91q3.64-1.43 4.46-2.47a.88.87 27.6 0 1 .95-.29q.68.22 1.79-.17 5.04-1.79 10.15-5.13.6-.39.52-.84l83.29-39.36a3.57 3.56-13.6 0 0 2.04-3.33q-.24-7.81 6.9-11.75c1.96-1.08 4.42-2.38 6.81-2.87q8.94-1.84 16.93-1.86a4.84 4.83 24.3 0 0 3.14-1.18q7.33-6.38 16.01-9.76a.55.55 0 0 0 .32-.7q-2.33-6.66-.36-11.99 2.95-7.96 13.46-10.95 7.94-.56 18-2.64 2.7-.56 3.6-2.09 2.26-1.65 4.86-3.37.7-.46 3.2-1.77 2.87-1.49 4.46-4.45a1.19 1.17 53 0 0 .11-.85q-3.53-13.71 6.9-21.25 10.65-7.69 24.79-5.71c3.94.55 6 .2 9.14-1.77 1.06-.66 2.38-1.21 3.87-1.71a1.62 1.62 0 0 0 .82-2.45q-.49-.71-1.12-2.99-.52-1.88-.55-3.4-.2-11.83 9.76-18.28c6.85-4.44 14.13-5.02 22.38-5.91a.53.52-8.9 0 0 .46-.63q-.8-4.02.57-8.75c2.65-9.15 13.91-15.15 22.17-18.6a2.06 1.97-82.5 0 0 .87-.7q.36-.53.93-.82a.74.74 0 0 0-.01-1.32q-1.86-.95-7.24-4.18c-8.87-5.35-17.14-11.57-25.85-17.4q-6.58-4.41-11.06-6.11-10.5-3.97-21.97-4.42c-9.12-.37-17.05 2.04-24.95 6.14q-7.02 3.65-13.72 7.52a.47.47 0 0 0-.05.78q4.05 3.2 7.82 6.46 4.9 4.24 8.99 12.79a2.85 2.84-58.9 0 1 .28 1.14q.2 5.59-.05 6.64c-1.33 5.77-7.01 13.72-14.05 14.06-7.29.36-11.31-1.49-17.23-6.66q-5.06-4.42-11.08-8.85a1.29 1.27 49.7 0 0-1.32-.12q-6.63 3.28-11.2 6.34c-.77.51-1.51.34-1.99.75q-.36.3.23 1.54 3.41 7.14 5.17 12.22.35 1.02.83 1.9m-98.78-48.95a.54.54 0 0 0 .67.72q8.07-2.62 14.16-2.93a.76.76 0 0 0 .58-1.21q-1.39-1.88-3.13-2.36a2.1 2.06 40.7 0 0-1.36.09l-9.31 3.87a2.72 2.69-89.9 0 0-1.48 1.49zm2.65 12a.18.18 0 0 0 0 .33c2.31.91 4.76 1.93 7.34 2.49q17.58 3.8 33.62 11.71a.36.36 0 0 0 .44-.55q-6.77-8.28-13.94-15.65-3.26-3.35-8.29-2.82-7.21.76-13.59 2.15a1.36 1.03 19.2 0 0-.28.09zm87.1 6.22a1.02 1.02 0 0 0-.21-1.69l-14.63-7.41a.38.37-5.2 0 0-.47.56l8.63 11.25a1.16 1.15-28 0 0 1.28.39q3.02-1.03 5.4-3.1m164.18-5.33a.7.69 23.2 0 0 .39.96q3.51 1.29 6.21 2.81 21 11.78 38.31 28.98c12.79 12.73 23.82 29.77 32.21 46.23 4.24 8.3 6.56 13.39 11.02 18.74q1.13 1.35 2.02 1.69a2.2 1.77-83.4 0 0 2.37-2.33q-.38-9.51-5.16-19.63-7.33-15.51-18.5-31.43c-3.52-5.01-6.48-8.12-11.76-14.27q-6.66-7.74-15.77-15.72-12.49-10.94-23.29-15.9-7.58-3.49-15.03-2.12-2.26.42-3.02 1.99m326.53 37.49q-3.13 6.23-3.82 14.25-1.48 1.71-2.21 4.11l-11.2 16.2q-8.56 8.06-17.9 10.18c-20.94 4.76-43.73-3.48-58.68-18.65q-6.49-6.58-9.17-9.62-3.44-3.88-12.4-15.66c-3.66-4.81-8.07-9.42-12.64-13.08q-7.58-6.06-16.6-8.62-4.69-1.34-11.27-1.25c-12.32.16-23.26 3.41-33.58 9.59q-4.77 2.85-8.95 5.24a1.3 1.3 0 0 0-.13 2.17q5.41 3.99 9.48 8.41 5.63 6.11 7.39 10.83 3.94 10.55-3.09 17.52-4.17 4.13-9.14 4.51c-6.44.5-12.25-2.1-16.8-6.53q-5.8-5.64-9.47-8.67a1.4 1.39 45.9 0 0-1.74-.03l-8.64 6.63a.72.72 0 0 0-.21.89q5.62 11.49 8.2 24.51c1.67 8.44 1.33 16.55-6.86 20.9-3.86 2.05-9.44 1.93-13.29.2-6.33-2.85-11.88-12.8-14.64-19.41a.59.58-33.5 0 0-.95-.19q-5.39 5.32-6.46 6.41-3.6 3.71-12.42 8.75a2.92 2.86-66.2 0 1-.65.26l-2.72.7a.94.93-16.4 0 0-.66 1.2l4.17 12.34.62 13.37c-1.3 5.47-4.24 11.71-10.46 12.5q-3.33.42-9.27-.35l-10.01-7.51-3.22-6.85a.81.8-31.1 0 0-1.22-.3q-5.52 4.19-12.76 7.52-3.94 1.81-5.06 1.68a.36.35-7.6 0 0-.37.48c.92 2.29 3.01 6.42 3.82 9.91q.57 2.43 1.41 6.05c1.83 7.84-.66 17.33-8.75 20.37-8.62 3.25-17.07-2.86-21.29-9.75q-1.33-2.15-2.73-4.4a.65.64 63.9 0 0-.78-.27c-1.89.72-3.1 2.22-5.07 3.4q-7.97 4.75-15.37 7.77a1.53 1.42-56.6 0 1-.41.1l-3.41.25a.54.54 0 0 0-.47.71c3.07 9.03 5.37 21.24-3.11 27.51-5.11 3.78-12.55 3.98-17.69.54q-3.07-2.06-5.26-4.26a2.25 2.25 0 0 0-2.98-.18c-7.61 5.95-14.54 7-23.99 4.59q-7.76-1.97-10.23-3.04-21.21-9.15-42.05-16.06-11.85-3.93-18.98-5.33-10.46-2.05-19.52-2.94-2.8-.27-4.45.5-38.91 18.17-80.53 38.72-3.17 1.57-8.47 4.17-33 16.22-43.8 22.51-4.89 2.85-10.34 5.64-5.27 2.69-24.62 15.08-2.01 1.29-12.95 10.29c-2.88 2.37-4.6 4.4-7.72 7.46a.73.73 0 0 0 .44 1.25q9.09.94 17.77 5.24 12.86 6.36 28.01 14.87a2.81 2.6-23.5 0 0 .91.32q1.15.18 2 .9a.6.59 29 0 0 .95-.27q.35-1.04.21-2.29l.36 1.56a.97.94-33.6 0 1-.17.79q-.58.78.35 1.44 3.57 2.53 7.44 3.7 3.41 2.46 6.94 4.21 39.6 19.72 79.5 30.09.34.08 1.68.49 10.23 3.1 22.25 5.7 12.78 2.76 22.49 4.7 31.81 6.34 64.26 8.32c2.58.45 5.09.93 7.73 1.01q13.78.41 21.54.12 4.57-.17 12.84-1.58 15.89-1.85 31.61-7.21 7.9-1.08 15.08-5.25 2.82-.5 7.45-2.89 19.36-9.95 27.88-15.13 21.55-13.1 43.2-27.28 3.53-1.19 11.51-5.47 5.59-3 15.24-5.31 6.87-1.06 13.2-.09 9.19 1.42 18.59 6.08 5.08 3.84 12.43 5.31 12.29 6.89 22.25 8.59 13.42 2.28 27.53-4.07 16.27-7.33 32.36-15.72 7.28-2.53 14.26-7.22.52-.35.83-.77l23.05-12.17q7.01-1.46 11.97-5.92 32.3-15.69 65.79-29.22 1.14-.46 2.28-1.75 4.78-1.11 9.38-3.96 2.14.14 3.64-.51 17.78-7.63 40.27-19.18c2-1.03 3.83-2.37 5.74-3.59q4.71-1.2 5.58-3.93c3.46-1.88 7.99-4.43 10.11-7.69a1.35 1.29 58.6 0 0 .2-.91q-2.29-16.19-4.16-30.72c-1.99-15.51-5.04-32.59-7.9-44.56q-4.73-19.75-6.43-27.31c-1.03-4.58-2.65-9.41-3.94-14.63q-1.23-5.01-2.87-10.15-2.64-13.28-7.39-26.69a.86.84-82.4 0 0-.32-.43q-.32-.21-.54-.14-.1-1.86-.5-3.3-4.68-16.83-9.17-29.36a.49.48-49.1 0 0-.93.07q-1.37 6.67-2.26 12.18-1.31 8.04-3.98 15.76m-624.62-21.81a.2.2 0 0 0 .12.38c12.88-2.13 24.76-.57 38.06 1.27q17.07 2.35 32.24 10.24 8.41 4.37 17.37 8.64c2.2 1.05 5.14 1.59 7.5.81a1.48 1.48 0 0 0 .66-2.37q-1.38-1.61-3.34-3.07-11.9-8.82-25.2-13.95-15.97-6.15-34.2-7.8-17.44-1.57-33.21 5.85m307.79 3.45-5.75-3.59a6.91 6.88-33 0 0-4.67-.98q-13.52 1.99-23.62 9.29c-.86.62-1.56.83-1.88 2a.45.45 0 0 0 .59.55q4.38-1.62 10.16-2.55 11.84-1.9 24.82-3.2a.82.82 0 0 0 .35-1.52m49.35-2.87q5.57 6.23 11.61 11.15 2.68 2.17 4.73 2.86 29.33 9.87 53.42 30.06.88.74 2.9 1.07a1.15 1.13-65.9 0 0 1.08-.42c3.16-3.99-1.12-8.7-4.27-11.38q-12.64-10.77-26.88-18.1-4.46-2.29-24.55-10.56c-5.71-2.35-10.24-3.06-17.91-4.9a.14.13 76.2 0 0-.13.22m-336.24 11.18a.26.26 0 0 0-.1.5q6.8 2.32 12.68 5.83 4.52 2.7 10.78 5.96 2.32 1.2 4.39 3.03a.3.3 0 0 0 .44-.03l.02-.05a.33.32-54.6 0 0-.05-.31l-7.4-9.43-.02-.02q-6.63-3.74-9.68-4.35-3.58-.72-11.06-1.13m332.13 39.85q-.59-1.4-1.92-2.61a1.66 1.64-75.1 0 1-.51-.89q-.15-.71-1.13-2.07-9.39-13.16-18.99-23.7c-1.85-2.03-4.43-3.74-5.94-5.08a2.32 2.3 73 0 0-.91-.49q-3.4-.94-5.64-.79-19.94 1.31-39.46 7.19a.67.67 0 0 0-.07 1.26q9.9 4.2 17.7 10.72a4.06 3.86-12.7 0 0 1.02.61q1.32.54 2.25 1.45a2.24 2.23 67.3 0 0 1.53.63c3.41.07 6.03-.43 9.01-.07q13.29 1.58 16.15 2.41 7.74 2.22 11.83 3.67 6.75 2.39 9.34 4.26 4.9 3.52 5.35 3.82a.26.26 0 0 0 .39-.32m-296.02-33.98q1.33 1.33 2.04 2.25 4.06 5.29 10.36 15.67c3.97 6.54 7.2 14.18 10.84 20.97q2.69 5.03 4.16 6.83c1.71 2.1 4.96 1.07 5.16-1.64.33-4.34-3.01-11.24-5.31-15.44q-5.86-10.71-6.9-12.35-4.52-7.09-6.28-8.59-5.76-4.89-13.76-8.18a.29.29 0 0 0-.31.48m-96.28 9.32c11.48-3.12 25.74-4.53 37.51-1.68q19.96 4.83 37.25 16.23 2.84 1.87 8.82 7.08a7.48 7.47-30.8 0 0 6.57 1.66l1.63-.37a2.46 2.46 0 0 0 1.08-4.25q-9.96-8.7-20.42-14.51-12.5-6.93-26.46-11.28c-14.03-4.38-29.08-2.09-42.34 3.38q-2.44 1.01-4.05 3.13a.39.39 0 0 0 .41.61m420.65 3.58q1.41 1.71 2.25 4.54a3.05 2.87 23.3 0 0 .33.76l1.13 1.86a.6.6 0 0 0 .94.11l3.31-3.31a.81.8-54 0 0-.2-1.29l-7.04-3.56a.59.58-6.2 0 0-.72.89m-139.09 7.42c1.86.31 4.94-.62 7.28-.25q11.09 1.75 17.65 5.68 18.73 11.18 35.05 29.7 4.07 4.61 14.07 18.54 3.35 4.68 7.6 12.35 2.3 4.18 7.31 12.56 1.18 1.97 3.21 2.59a2.22 2.17 11.3 0 0 2.84-1.85q.45-4.55-1.09-9.22-7.45-22.6-22.99-40.25-6.73-7.63-13.57-14.2-10.49-10.07-23.84-16.74-11.09-5.55-22.54-3.84c-4.49.67-6.5 2.16-11.02 4.69a.13.13 0 0 0 .04.24m-231.31 16.9q-2.52-4.41-6.81-11.36c-.9-1.46-3.42-4.48-4.63-4.96-4.64-1.81-8.83-1.64-13.74-1.72q-6.12-.1-9.7.29a.29.28-41 0 0-.04.56q3.32.83 8.23 3.09 5.44 2.51 10.91 5.28c5.83 2.95 10.17 6.13 15.47 9.13a.23.23 0 0 0 .31-.31m7.84-9.67q4.3 7.72 5.73 11.59 2.52 6.77 4.55 10.95c2.79 5.73 5.15 11.3 7.46 16.47 1.19 2.68 3.56 6.36 6.07 6.8a1.93 1.93 0 0 0 2.26-2.05q-.54-6.69-2.74-13.05-5.48-15.94-18.69-28.54-2.25-2.14-4.25-2.67a.35.34-7.2 0 0-.39.5m-10.28 26.04c-.06-5.36-13.17-11.37-17.14-13.29q-21.7-10.52-46.16-10.19c-7.65.1-13.6 1.28-21.12 2.98-2.94.66-7.96 2.46-9.24 5.16a.44.44 0 0 0 .49.62c1.29-.25 2.78-.9 4.51-1.16 12.26-1.86 26.66-2.64 39.18.29q10.59 2.48 15 4.09 5.21 1.89 22.31 10.43 5.15 2.57 7.87 3.15 1.45.3 5.93-.66a.55.54 88.5 0 0 .42-.45q.12-.73-.18-1.13a.45.44-49.4 0 0-.74.06q-.27.49-.33.53a.52.52 0 0 1-.8-.43m255.43-17.02-8.34-5.82a2.97 2.96-40.7 0 0-3.04-.22l-9.13 4.56a3.36 3.31 4.7 0 0-1.21 1.01q-1.24 1.65-4.49 3.11a.17.17 0 0 0 .08.32l26.02-2.54a.23.23 0 0 0 .11-.42m49.07-4.92c1.03 1.29 3 2.26 4.46 4.15q3.6 4.65 6.53 6.05 12.92 6.19 21.4 10.8 4.66 2.54 8.55-1.47a.84.83-53.1 0 0-.18-1.3q-.86-.5-.96-.59c-12.17-10.8-24.34-15.49-39.55-18.05a.26.25-14.3 0 0-.25.41m-20.18 34.36a.23.23 0 0 0 .28-.36q-5.04-5.95-10.05-10.97-3.88-3.9-6.53-5.04-3.92-1.68-8.12-1.33-6.05.51-18.04 2.28-1.34.19-1.95-.03a.08.08 0 0 0-.1.04l-.12.24a.3.3 0 0 0 .2.43q3.81.91 7.01 3.41.43.33 4.25 1.94a6.02 5.8 58.9 0 0 1.57.42q7.51.89 11.74 1.86 4.07.93 14.67 4.5a1.74.89 31.4 0 1 .22.09zm-328.39 9.72q-5.88-7.81-9.2-17.04a1.4 1.4 0 0 0-.16-.32l-5.52-7.77a3.22 3.21-17.7 0 0-2.62-1.35h-14.99a.45.45 0 0 0-.28.8q16.26 13.42 27.64 23.48.92.82 2.27 1.45 1.28.6 2.32 1.31a.4.39-1.2 0 0 .54-.56m-2.43-26.51a.32.32 0 0 0-.34.51q10.63 13.9 21.02 30.7 1.25 2.02 6.29 11.73.25.48 2.07 1.77c2.28 1.62 3.71-1.48 3.63-3.29q-.24-5.26-2.92-11.13-5.96-13.04-14.18-22.26c-3.67-4.12-10.3-6.64-15.57-8.03m244.18 2.22q-.54.39-1.78.71-2.6.66-4.67 2.73a.48.48 0 0 0 .26.81q14.41 2.42 25.8 9.62c8.2 5.18 15.43 10.14 22.25 17.01 10.28 10.35 20.68 22.02 27.84 34.66q6.31 11.14 8.82 14.68.91 1.29 2.2 1.56a2.7 2.41-75.6 0 0 2.88-1.93c.59-1.98.04-4.25-.68-6.39q-4.63-13.79-11.17-23.99-4.79-7.47-16.92-20.29-8.75-9.26-19.79-17.74-5.92-4.55-15.47-8.82-10.03-4.49-19.38-2.71a.41.37 16.8 0 0-.19.09m-280.26 11.63q-2.96-1.97-4.49-3.53-2.76-2.79-4.55-3.61c-5.23-2.4-11.21-1.82-16.11 1.14a.5.5 0 0 0 .15.91l24.81 5.53a.24.24 0 0 0 .19-.44m406.96-4.17q.02.05 1.75 2.11 1.32 1.57 1.41 1.6.85.23 2.02-.6a.31.31 0 0 0-.01-.51l-4.66-2.93a.34.33-77.8 0 0-.51.33m-467.18 10.24q8.73 1.73 17.16 4.44 31.66 10.2 59.52 23.64 6.18 2.98 9.32 3.17 3.04.19 3.88-.62 3.18-3.05.2-5.43-4.09-3.28-13.88-8.36-18.11-9.39-38.88-15.12-10.64-2.93-21.19-5.57c-5.34-1.34-11.64.53-16.09 2.41q-.47.2-.5.85a.58.58 0 0 0 .46.59m399.91-1.86a.19.19 0 0 0-.17.33c3.65 3.18 6.63 7.08 11.11 9.89q8.12 5.09 17.35 8.41c3.54 1.26 7.2 1.66 10.25-.61a1.38 1.38 0 0 0 .11-2.12q-2.87-2.64-6.4-4.39-15.92-7.87-32.25-11.51m-52.65 5.62a.28.28 0 0 0 .08-.53q-5.61-2.75-8.89-4.1-3.17-1.3-5.53.08-4.38 2.57-9.05 6.74a.27.27 0 0 0 .06.44c1.72.92 7.73.13 10.57-.37q6.37-1.14 12.76-2.26m33.36 27.94q-2.86-3.85-5.57-6.2-.15-.13-.18-.49a1.04 1.01-70.5 0 0-.26-.57q-6.22-6.76-11.32-10.15c-3.16-2.09-5.77-.37-8.4-.43q-6.62-.14-23.07 2.77-3.54.63-4.87 1.79a.27.27 0 0 0 .12.47q8.9 2.07 17 3.11 11.91 1.53 16.98 3 10.39 3.01 19.24 7.11a.27.27 0 0 0 .33-.41m-96.9-5.57c3.53-.3 7.15-.17 10.63 1.09q14.34 5.15 24.39 12.82 8.69 6.63 20.64 18.59c1.91 1.92 4.97 5.59 6.76 8.33 2.65 4.04 5.54 7.03 8.34 11.23q3.01 4.53 7.12 10.67c1.27 1.89 5.16 4.1 6.61 1.21a1.55 1.55 0 0 0 .15-.95q-.66-4.62-2.22-8.03-15.19-33.14-47.51-52.98-8.07-4.95-18.62-6.12-8.74-.96-16.36 3.93a.11.11 0 0 0 .07.21m61.58 6.55q5.69 4.34 9.96 9.49a8.95 8.9 80.8 0 0 3.58 2.6l22.92 9.17a7.44 7.43 37.3 0 0 7.23-.97l.26-.2a2.62 2.62 0 0 0-.42-4.4q-10-5.11-21.91-10.13c-6.64-2.8-15.89-4.43-21.4-5.99a.25.24-18.2 0 0-.22.43m-42 10.91c-6.03-2.63-13.95-5.98-20.42-4.17-4.51 1.27-9.42 2.22-12.65 5.42a.58.58 0 0 0 .18.95q.72.3 3.42.08 11.75-.95 25.35-1.2 2.29-.04 4.09-.59a.26.26 0 0 0 .03-.49m-1.88 11.72q.2.61 2.15.71a.69.49-21.1 0 1 .2.05l17.6 7.59a3.3 2.84 57.5 0 0 .63.19q1.11.2 2.3.62a.5.5 0 0 0 .53-.81q-1.38-1.47-4.91-5.3-.99-1.07-2.79-1.86-2.57-1.12-3.25-1.27-2.7-.61-4.62-.42-3.22.31-7.34-.13a.48.48 0 0 0-.5.63m-67.24 6.79c3.57 1.12 8.17.92 12.11 1.67q14.11 2.7 20.33 4.44 19.78 5.55 52.7 19.21c5.91 2.46 11.99 4.56 16.99 3.97a1.08 1.08 0 0 0 .94-1.2q-.28-2.13-.69-3.95c-.57-2.55-4.5-4.13-7.14-5.35q-21.5-9.92-40.36-16.13-10.44-3.43-22.09-5.39c-12.24-2.07-22.11-3.03-32.84 1.93a.43.43 0 0 0 .05.8m135.55-2.13q1.04 2.66 2.99 4.74a.52.52 0 0 0 .8-.05l.25-.35a.49.48-48.2 0 0-.03-.61l-3.28-3.57q.05-1.12-.88-1.44a.4.4 0 0 0-.48.59q.22.38.63.69"/><path fill="#bfc1c2" d="M582.18 291.94q1.88-1.29 4.27-3.24 5.34-4.38 17.62-15.28 10.87-9.65 17.52-14.04c14.44-9.52 29.13-15.65 46.39-14.38q15.38 1.13 25.27 12.95 5.34 6.37 6.74 13.11a3.04 3.04 0 0 1-1.39 3.22c-16.62 10.23-30.83 23.55-44.8 37.18a1.29 1.28 34.9 0 1-1.44.25q-6-2.81-12.89-4.18c-9.88-1.96-19.38-2.26-26.03 5.33a.98.97-55.9 0 1-1.17.23q-7.18-3.65-10.24-5.64-9.05-5.9-19.88-14.96a.35.34-42.3 0 1 .03-.55"/><path fill="#503b94" d="M491.06 267.72q.13 2.67 1.4 4.87-.29 1.22.3 1.21l.02.23q-.1 5.38-1.96 10.48-.27.73-.06 1.47-.82.29-.73 1.29-.13.31-.24.38-1.5.58-1.82 2.47l-4.38 3.62a.3.29-50.6 0 0 .04.48l5.85 3.25q-.22.33.03.5.35.24.69.1l2.54 1.16q-3.43 1.22-6.55-.38-12.79-6.57-22.11-9.7-2.86-.96-12.15-3.11-1.14-3.46-1.67-6.13-2.06-10.46 4.71-18.15.5-.12.56-.54c6.18-6.29 16.74-6.23 24.59-3.55q7.91 2.71 10.94 10.05m-26.34.74q-.53.05-1.09.77-3.42 5.71-1.32 11.71 1.25 3.59 3.54 5.33 2.6 1.97 6.18 1.36 8.23-1.4 9.37-10.35.33-.52-.11-1.33l-1.73-6.47q.02-.65-.32-1.21-.32-.54-.94-.32-7-4.45-13.58.51"/><path fill="#1f1d1c" d="M455.53 261.22q-.06.42-.56.54.36-.25.56-.54m36.93 11.37q-1.27-2.2-1.4-4.87 1.15 2.32 1.4 4.87m-12.9-3.11-1.26-1.53q.62-.22.94.32.34.56.32 1.21m-14.84-1.02q-.24.54-1.09.77.56-.72 1.09-.77m28.04 5.34q-.59.01-.3-1.21.37.32.3 1.21m-2 12.18q-.21-.74.06-1.47 1.86-5.1 1.96-10.48.63 6.18-2.02 11.95m-9.36-8.7q-.19-.6-.11-1.33.44.81.11 1.33"/><path fill="#503b94" d="M458.55 372.79q-1.95-.6-2.99-2.28-11-17.79-20.5-32.04-5.36-8.04-15.69-19.6-13.87-15.51-25.24-26c-1.8-1.65-4.79-5.72-3.33-8.18q.64-1.08 2.2-1.07c6.08.06 11.25 3.85 15.79 7.89q6.17 5.49 10.15 10.29 15.98 19.32 28.67 38.41 3.02 4.54 4.88 8.36c2.59 5.32 9.94 18.59 7.4 23.65a1.13 1.13 0 0 1-1.34.57"/><path fill="#1f1d1c" d="M490.76 285.98q-.16.76-.73 1.29-.09-1 .73-1.29m-.97 1.67q-.53 1.35-1.82 2.47.32-1.89 1.82-2.47"/><path fill="#bfc1c2" d="M834.57 336.96q11.84-8.06 21.17-17.23 10.48-10.3 19.74-17.42 19.73-15.15 44.43-14.43 10.13.3 18.39 4.87 4.82 2.68 8.13 10.03.91 2.02.16 8.74-1.49 13.19-2.87 21.73-3.17 19.61-11.02 37.45c-5.38 12.2-13.99 19.6-27.71 20.13-15.35.6-29.99-6.87-40.46-17.92q-5.8-6.12-11.95-14.24-8.7-11.49-18.08-21.06a.43.42-39.3 0 1 .07-.65"/><path fill="#503b94" d="m717.78 293.08 2.18.1q.08.09.17.18 1.94 1.1 4.22 1.3a2.14 2.07 61.9 0 1 .9.29q1.26.73 2.54.52l2.97 1.61q.18.65.9.72.8 1.78 2.56 2.1.77.37 1.57 1.38.09.45.46.5c3.32 4.85 3.82 11.32 2.67 16.7q-1.64 7.65-7.96 11.16a.59.59 0 0 0 .05 1.05q3.69 1.65 6.54 3.5 3.95 2.57 5.31 7.34 1.21 1.32.65 1.8-1.09.92-2.6.34-8.8-3.41-12.94-5.56-6.3-3.27-12.7-5.07-.12-.03-14.28-4.67-.55-.18-.55-.73-1.35-2.1-2.83-4.27-1.93-2.82-2.27-7.61-.8-11.51 7.7-17.97 6.07-4.61 14.74-4.71m.183 10.764a10.53 9.73-87.1 0 0-10.25 10.024 10.53 9.73-87.1 0 0 9.184 11.009 10.53 9.73-87.1 0 0 10.25-10.025 10.53 9.73-87.1 0 0-9.184-11.008"/><path fill="#1f1d1c" d="m719.96 293.18-2.18-.1zm7.83 2.29q-1.28.21-2.54-.52a2.14 2.07 61.9 0 0-.9-.29q-2.28-.2-4.22-1.3 4.17.28 7.66 2.11"/><path fill="#503b94" d="M430.67 293.66c9.99.94 20.77 4.07 31.49 7.76q12.34 4.24 22.91 11.3c5.83 3.89 26.74 16.6 22.51 22.84q-1.92 2.82-4.82.67-19.93-14.74-33.9-22.33-13.78-7.49-29.29-10.72c-1.61-.33-3.27-1.52-4.36-3.05q-1.82-2.57-4.76-6.05a.26.26 0 0 1 .22-.42"/><path fill="#1f1d1c" d="M731.66 297.8q-.72-.07-.9-.72.77.24.9.72m-241.46.27q-.34.14-.69-.1-.25-.17-.03-.5.52.2.72.6m244.02 1.83q-1.76-.32-2.56-2.1 1.58.55 2.56 2.1m2.03 1.88q-.37-.05-.46-.5z"/><path fill="#503b94" d="m370.67 307.64.13-.33a2.72 2.69-89.9 0 1 1.48-1.49l9.31-3.87a2.1 2.06 40.7 0 1 1.36-.09q1.74.48 3.13 2.36a.76.76 0 0 1-.58 1.21q-6.09.31-14.16 2.93a.54.54 0 0 1-.67-.72m253.93 12.89q.76-1.57 3.02-1.99 7.45-1.37 15.03 2.12 10.8 4.96 23.29 15.9 9.11 7.98 15.77 15.72c5.28 6.15 8.24 9.26 11.76 14.27q11.17 15.92 18.5 31.43 4.78 10.12 5.16 19.63a2.2 1.77-83.4 0 1-2.37 2.33q-.89-.34-2.02-1.69c-4.46-5.35-6.78-10.44-11.02-18.74-8.39-16.46-19.42-33.5-32.21-46.23q-17.31-17.2-38.31-28.98-2.7-1.52-6.21-2.81a.7.69 23.2 0 1-.39-.96m-298.09 15.68q15.77-7.42 33.21-5.85 18.23 1.65 34.2 7.8 13.3 5.13 25.2 13.95 1.96 1.46 3.34 3.07a1.48 1.48 0 0 1-.66 2.37c-2.36.78-5.3.24-7.5-.81q-8.96-4.27-17.37-8.64-15.17-7.89-32.24-10.24c-13.3-1.84-25.18-3.4-38.06-1.27a.2.2 0 0 1-.12-.38m307.79 3.45a.82.82 0 0 1-.35 1.52q-12.98 1.3-24.82 3.2-5.78.93-10.16 2.55a.45.45 0 0 1-.59-.55c.32-1.17 1.02-1.38 1.88-2q10.1-7.3 23.62-9.29a6.91 6.88-33 0 1 4.67.98zm49.35-2.87a.14.13 76.2 0 1 .13-.22c7.67 1.84 12.2 2.55 17.91 4.9q20.09 8.27 24.55 10.56 14.24 7.33 26.88 18.1c3.15 2.68 7.43 7.39 4.27 11.38a1.15 1.13-65.9 0 1-1.08.42q-2.02-.33-2.9-1.07-24.09-20.19-53.42-30.06-2.05-.69-4.73-2.86-6.04-4.92-11.61-11.15m-300.13 17.05a.29.29 0 0 1 .31-.48q8 3.29 13.76 8.18 1.76 1.5 6.28 8.59 1.04 1.64 6.9 12.35c2.3 4.2 5.64 11.1 5.31 15.44-.2 2.71-3.45 3.74-5.16 1.64q-1.47-1.8-4.16-6.83c-3.64-6.79-6.87-14.43-10.84-20.97q-6.3-10.38-10.36-15.67-.71-.92-2.04-2.25m-96.28 9.32a.39.39 0 0 1-.41-.61q1.61-2.12 4.05-3.13c13.26-5.47 28.31-7.76 42.34-3.38q13.96 4.35 26.46 11.28 10.46 5.81 20.42 14.51a2.46 2.46 0 0 1-1.08 4.25l-1.63.37a7.48 7.47-30.8 0 1-6.57-1.66q-5.98-5.21-8.82-7.08-17.29-11.4-37.25-16.23c-11.77-2.85-26.03-1.44-37.51 1.68m212.61 12.53q-.51 1.26.1 2.61c-.11 7.49-3.75 11.22-9.56 15.18a.46.45 52 0 0-.08.68q.01.02 2.77 1.57c3.07 1.73 6.42 6.18 7.36 8.61q4.83 12.49-3.86 21.75-1.04 1.11-4.47 4.51a.28.28 0 0 0 .24.48l1.93-.3q-.9 1.53-3.6 2.09-10.06 2.08-18 2.64-2.48-.6-4.53-1.09c-10.25-2.41-16.63-9.89-17.72-20.41q-1.36-13.05 9.31-20a.66.65 45.2 0 0 0-1.09q-3.93-2.66-6.42-7.38l13.12-2.54c.85 3.54 3.97 4.98 7.33 5.78q1.13.84 3.02.09 11.05-1.92 10.15-13.13-.36-4.49-2.92-6.56-4.78-3.87-11-4.11a1.09 1.09 0 0 0-1.12 1.27q.48 2.88.07 5.1l-2.52-14.85c6.74-3.45 16.53-.24 22.13 3.82q7.72 5.6 8.27 15.28m-25.03 49.39a13.55 13.15 68.3 0 0 1.9.04 12.65 12.36-75 0 0 10.01-6.1 12.7 12.4-75.8 0 0 1.47-9.81 12.66 12.36-75.1 0 0-14.98-8.95 12.65 12.37-73.8 0 0-9.15 9.85 12.64 12.31-70.9 0 0 .05 5.33 12.67 12.38-74.9 0 0 10.7 9.64m476.31-67.06 3.61.49q.78.39 1.83.15 6 .49 11.4 4.01.22-.07.54.14a.86.84-82.4 0 1 .32.43q4.75 13.41 7.39 26.69-3.63 5.78-8.98 7.76a.4.4 0 0 0-.11.69q.21.17.84.06a.91.9 55 0 1 .62.11q4.91 2.99 8.19 7.7c-.35 1.28-.15 1.76.58 2.99.57.97.33 1.98 1.38 2.8q-.06.24 0 .47-.06 1.2.24 2.15l.02 6.74q.05.41-.07.88l-.22.92q-2.99 11.86-14.83 14.91-5.27 1.36-9.64 1-5.45-.46-8.01 1.03-.62-2.57-1.53-5.88c-.92-3.39-3.36-3.86-6.94-5.06a6.42 6.2-19.4 0 1-1.18-.54q-2.26-1.33-5.24-2.24-.33-1.21-1.05-2.77c-2.18-4.74-1.7-11.33.03-15.81q1.99-5.14 7.12-10.65a.49.48 40.8 0 0-.06-.71q-1.96-1.54-3.48-3.9l11.2-16.2-1.35 4.13a1.48 1.45-41.8 0 0-.05.77c.67 3.29.79 6.46 2.53 8.5q2.44 2.83 7.04 3.45c7.84 1.05 11.8-5.49 12.35-12.27l-.05-1.4q-1.16-9.49-10.57-10.27c-1.9-.16-4.51-.74-6.05.62q-1.05.92-1.64 2.36.69-8.02 3.82-14.25m1.08 45.84a12.5 11.81 87.4 0 0-7.84 5.06 12.47 11.81 86.8 0 0-1.65 10.96 12.49 11.83 86.7 0 0 16.53 7.56 12.49 11.8 86.7 0 0 6.11-7.67 12.48 11.82 86.6 0 0-2.1-11.27 12.48 11.81 86.4 0 0-8.29-4.72 12.63 11.88-76.8 0 0-2.76.08"/><path fill="#1f1d1c" d="M956.57 358.66q-1.05.24-1.83-.15z"/><path fill="#503b94" d="M568.8 374.16a.13.13 0 0 1-.04-.24c4.52-2.53 6.53-4.02 11.02-4.69q11.45-1.71 22.54 3.84 13.35 6.67 23.84 16.74 6.84 6.57 13.57 14.2 15.54 17.65 22.99 40.25 1.54 4.67 1.09 9.22a2.22 2.17 11.3 0 1-2.84 1.85q-2.03-.62-3.21-2.59-5.01-8.38-7.31-12.56-4.25-7.67-7.6-12.35-10-13.93-14.07-18.54-16.32-18.52-35.05-29.7-6.56-3.93-17.65-5.68c-2.34-.37-5.42.56-7.28.25"/><path fill="#1f1d1c" d="M499.95 378.3q-.61-1.35-.1-2.61zm465.67 2.66-.05-1.4z"/><path fill="#503b94" d="M345.72 380.89q2 .53 4.25 2.67 13.21 12.6 18.69 28.54 2.2 6.36 2.74 13.05a1.93 1.93 0 0 1-2.26 2.05c-2.51-.44-4.88-4.12-6.07-6.8-2.31-5.17-4.67-10.74-7.46-16.47q-2.03-4.18-4.55-10.95-1.43-3.87-5.73-11.59a.35.34-7.2 0 1 .39-.5m-9.87 26.97q.06-.04.33-.53a.45.44-49.4 0 1 .74-.06q.3.4.18 1.13a.55.54 88.5 0 1-.42.45q-4.48.96-5.93.66-2.72-.58-7.87-3.15-17.1-8.54-22.31-10.43-4.41-1.61-15-4.09c-12.52-2.93-26.92-2.15-39.18-.29-1.73.26-3.22.91-4.51 1.16a.44.44 0 0 1-.49-.62c1.28-2.7 6.3-4.5 9.24-5.16 7.52-1.7 13.47-2.88 21.12-2.98q24.46-.33 46.16 10.19c3.97 1.92 17.08 7.93 17.14 13.29a.52.52 0 0 0 .8.43m254.63-17.45a.23.23 0 0 1-.11.42l-26.02 2.54a.17.17 0 0 1-.08-.32q3.25-1.46 4.49-3.11a3.36 3.31 4.7 0 1 1.21-1.01l9.13-4.56a2.97 2.96-40.7 0 1 3.04.22zm49.07-4.92a.26.25-14.3 0 1 .25-.41c15.21 2.56 27.38 7.25 39.55 18.05q.1.09.96.59a.84.83-53.1 0 1 .18 1.3q-3.89 4.01-8.55 1.47-8.48-4.61-21.4-10.8-2.93-1.4-6.53-6.05c-1.46-1.89-3.43-2.86-4.46-4.15"/><path fill="#1f1d1c" d="M476.79 388.87q-1.89.75-3.02-.09 1.58.37 3.02.09"/><path fill="#503b94" d="M288.55 403.06c5.27 1.39 11.9 3.91 15.57 8.03q8.22 9.22 14.18 22.26 2.68 5.87 2.92 11.13c.08 1.81-1.35 4.91-3.63 3.29q-1.82-1.29-2.07-1.77-5.04-9.71-6.29-11.73-10.39-16.8-21.02-30.7a.32.32 0 0 1 .34-.51"/><path fill="#1f1d1c" d="m954.97 403.78-2.76.08a12.63 11.88-76.8 0 1 2.76-.08"/><path fill="#503b94" d="M532.92 405.19q9.35-1.78 19.38 2.71 9.55 4.27 15.47 8.82 11.04 8.48 19.79 17.74 12.13 12.82 16.92 20.29 6.54 10.2 11.17 23.99c.72 2.14 1.27 4.41.68 6.39a2.7 2.41-75.6 0 1-2.88 1.93q-1.29-.27-2.2-1.56-2.51-3.54-8.82-14.68c-7.16-12.64-17.56-24.31-27.84-34.66-6.82-6.87-14.05-11.83-22.25-17.01q-11.39-7.2-25.8-9.62a.48.48 0 0 1-.26-.81q2.07-2.07 4.67-2.73 1.24-.32 1.78-.71a.41.37 16.8 0 1 .19-.09"/><path fill="#1f1d1c" d="M978.74 412.04c-1.05-.82-.81-1.83-1.38-2.8-.73-1.23-.93-1.71-.58-2.99z"/><path fill="#503b94" d="M252.47 416.91a.24.24 0 0 1-.19.44l-24.81-5.53a.5.5 0 0 1-.15-.91c4.9-2.96 10.88-3.54 16.11-1.14q1.79.82 4.55 3.61 1.53 1.56 4.49 3.53m536.07 57.26 3.42-.06 3.89-.01 6.14.02q.52.32.53.62.24 5.42.44 9.82a1.29 1.28-1.3 0 1-1.29 1.34h-43.23a1.39 1.39 0 0 1-1.34-1.02q-1.43-5.3-.88-9.8.32-2.71 3.97-8.42 2.65-4.14 8.19-9.78 1.39-1.41 14.17-14.08c3.47-3.44 6.68-8.09 6.63-13.28-.03-4.1-1.97-6.9-5.63-8.31q-1.17-.45-4.33-.52c-5.06-.1-8.83 2.96-9.6 7.9q-.15.95-.63 2.71a.94.92-89.8 0 1-.65.66q-5.06 1.42-9.7.9a2.07 2.03 68 0 1-1.1-.48l-.39-.33-.19-1.58q-.28-6.66 2.17-10.29 6.98-10.34 19.33-11.22 8.32-.59 15.01 3.17 6.29 3.54 8.55 10.26 2.17 6.44.82 13.53c-1.19 6.29-6.88 12.12-11.94 16.98q-6.87 6.6-13.79 13.16c-2.44 2.3-4.41 5.08-6.13 7.92a.46.46 0 0 0 .41.7zm65.82-37.69.03 2.23.19 5.08.07 2.5.03 7.86a.71.7 81.5 0 0 .91.68q1.18-.36 2.27-.01 2.79.66 3.06 1.8l-.07 6.4a1.85 1.76-31.7 0 1-.21.8q-.72 1.36.13 1.7-3.38 1.55-6.57 3.66-3.2 2.12-10.92 4.2l-.41-7.17a.45.44-6.9 0 0-.53-.41q-2.69.49-4.61.03l-20.32.5-6.48.14a1.7 1.69-1.9 0 1-1.74-1.62l-.43-8.93a3.17 3.11 56.4 0 1 .27-1.41q1.86-4.15 3.33-6.16 12.5-17.13 25.68-35.55c1.13-1.58 2.76-2.74 4.85-2.85q5.19-.27 8.97.07a2.29 2.29 0 0 1 2.08 2.25zm-31.58 17.71a.71.7-73 0 0 .59 1.12l18.28-.55a1 1 0 0 0 .97-1.03l-.81-26.7a.22.22 0 0 0-.41-.09l-1.75 3.32a1.69 1.56-16.1 0 1-.14.23zm-162.84-41.78 4.66 2.93a.31.31 0 0 1 .01.51q-1.17.83-2.02.6-.09-.03-1.41-1.6-1.73-2.06-1.75-2.11a.34.33-77.8 0 1 .51-.33"/><path fill="#1f1d1c" d="M978.98 414.66q-.3-.95-.24-2.15zm.02 6.74-.02-6.74q.92 3.32.02 6.74"/><path fill="#503b94" d="M192.25 422.98a.58.58 0 0 1-.46-.59q.03-.65.5-.85c4.45-1.88 10.75-3.75 16.09-2.41q10.55 2.64 21.19 5.57 20.77 5.73 38.88 15.12 9.79 5.08 13.88 8.36 2.98 2.38-.2 5.43-.84.81-3.88.62-3.14-.19-9.32-3.17-27.86-13.44-59.52-23.64-8.43-2.71-17.16-4.44m161.89 5.78 4.18 5.43a2.69 2.68-9.5 0 0 1.28.91q3.28 1.08 5.28 2.63-.78 4.99 1.81 9.62c1.37 2.43 2.44 4.17 5.16 4.55q9.61 1.38 12.97-7.63.25-.67.62-5.69.08-1.15-.88-3.19-.7-1.49-1-3.37-.17-1.1-1.1-.72-.21-.03-.3-.3a.32.32 0 0 1 0-.22q1.71-4.87.91-10.39 9.29 2.14 13.35 10.67c4.38 9.17 1.81 20.72-7.54 25.89a.21.21 0 0 0 .01.38q12.28 5.44 12.15 18.61c-.09 9.73-6.72 17.2-15.83 20.03q-3.66 1.14-10.97 1.21c-8.34.08-17.15-2.73-21.59-9.92q-5.28-8.57-2.56-18.33 2.45-8.8 10.81-11.91a.25.25 0 0 0-.02-.48q-1.13-.33-1.99-1.15-8.8-8.47-6.21-20.43c.39-1.82 1.51-3.59 1.46-6.2m16.01 56.87a6.18 2.51 15.1 0 0 .8.3 2.91.29 16 0 0 .37.12 12.49 11.87 2.4 0 0 7.48.03 12.49 11.86 2.6 0 0 8.44-13.87 12.5 11.87 2.7 0 0-7.58-8.46 12.48 11.85 3.3 0 0-12.01 1.42 12.5 11.88 2.8 0 0-5.07 9.08 12.49 11.85 2.8 0 0 7.57 11.38m222.01-64.51q16.33 3.64 32.25 11.51 3.53 1.75 6.4 4.39a1.38 1.38 0 0 1-.11 2.12c-3.05 2.27-6.71 1.87-10.25.61q-9.23-3.32-17.35-8.41c-4.48-2.81-7.46-6.71-11.11-9.89a.19.19 0 0 1 .17-.33m-52.65 5.62q-6.39 1.12-12.76 2.26c-2.84.5-8.85 1.29-10.57.37a.27.27 0 0 1-.06-.44q4.67-4.17 9.05-6.74 2.36-1.38 5.53-.08 3.28 1.35 8.89 4.1a.28.28 0 0 1-.08.53"/><path fill="#1f1d1c" d="M978.93 422.28q.07.69-.22.92zm-502.21 2.84a13.55 13.15 68.3 0 1-1.9-.04zm454.62 1.3q2.98.91 5.24 2.24a6.42 6.2-19.4 0 0 1.18.54c3.58 1.2 6.02 1.67 6.94 5.06q.91 3.31 1.53 5.88-1.66 4.26-3.72 6.62-5.59 6.41-12.28 12.22-33.68 29.25-66.45 52.77c-19.85 14.26-30.33 22.04-46.54 32.46q-14.6 9.38-29.63 16.38-23.53 10.98-47.26 6.05-6.43-1.34-14.56-6.08-3.05-2.6-6.86-5.37c-1.76-1.28-3.07-3.06-4.89-4.62q-5.6-6.51-7.74-14.38-3.15-11.62-2.26-24.7.42-6.24 1.44-12.05 3.97-22.5 15.12-44.59 2.58-5.11 7.82-12.39 3.63-5.04 8.51-4.73c6.4.41 8.24 7.55 7.79 12.77q-1.28 14.84-.27 22.83.6 4.8 3.38 11.87c2.69 6.85 8.38 10.85 15.91 11.6q6.77.67 11.24.05c10.58-1.46 20.89-4.24 31.19-7.97q18.85-6.83 37.11-15.5 7.72-2.08 10.92-4.2 3.19-2.11 6.57-3.66 36.38-17.39 70.57-39.1M731.9 458.16c-2.42 5.4-5.1 9.78-6.89 14.68q-3.22 8.84-5.73 19.48c-3.25 13.79-5.08 26.15-1.39 39.08q2.8 9.82 8.98 15.02c10 8.42 25.01 9.93 37.81 8.04 7.66-1.14 15.67-4.5 22.31-7.95q15.84-8.21 29.98-17.81 39.3-26.66 87.18-63.3 6.76-5.17 16.81-14.43 4.41-4.06 9.83-8.54a.53.52-40 0 0 .07-.74l-.01-.02a.54.53 50.7 0 0-.75-.08q-5.05 3.97-10.45 6.79c-5.94 3.09-10.87 6.21-16.88 9.41-29.59 15.72-55.84 29.52-84.4 40.15-16.77 6.24-31.17 11.22-46.58 11.75-11.45.39-22.2-2.23-30.05-10.9-8.46-9.34-10.83-27.88-9.36-40.5a.25.25 0 0 0-.48-.13m25.06-27.69.19 1.58q-.63-.28-.19-1.58m97.43 8.24-.03-2.23z"/><path fill="#503b94" d="M178.72 438.65q5.71 2.01 8.96 6.82 2.94 4.37 2.73 9.21c-.27 6.4-4.84 11.34-10.06 14.02a.66.65-47.6 0 0 .05 1.19q4.41 1.74 7.15 4.1 4.5 3.86 5.02 10 .39 4.64-.86 7.19-3.42 6.95-10.68 10.11c-7.76 3.38-14.9 3.35-24.74 2.56q-10.47-.84-18.09-7.77c-5.58-5.08-6.69-13.84-1.99-19.74q3.72-4.66 8.88-6.33a.24.24 0 0 0 .01-.46q-7.38-2.88-10.45-10.77 6.66-5.11 15.82-6.93c-2.9 5.72.22 10.9 6.4 12.2q5.98 1.27 10.37-.09c4.62-1.42 9.12-5 8.92-10.12-.17-4.34-5.48-7.61-9.36-8.98q.1-.47.4-.68c2.8-1.97 5.97-2.72 8.98-4.4q1.28-.72 2.54-1.13m-.993 45.445a14.84 10.09-1.1 0 0-15.03-9.803 14.84 10.09-1.1 0 0-14.644 10.373 14.84 10.09-1.1 0 0 15.03 9.803 14.84 10.09-1.1 0 0 14.644-10.373M731.9 458.16a.25.25 0 0 1 .48.13c-1.47 12.62.9 31.16 9.36 40.5 7.85 8.67 18.6 11.29 30.05 10.9 15.41-.53 29.81-5.51 46.58-11.75 28.56-10.63 54.81-24.43 84.4-40.15 6.01-3.2 10.94-6.32 16.88-9.41q5.4-2.82 10.45-6.79a.54.53 50.7 0 1 .75.08l.01.02a.53.52-40 0 1-.07.74q-5.42 4.48-9.83 8.54-10.05 9.26-16.81 14.43-47.88 36.64-87.18 63.3-14.14 9.6-29.98 17.81c-6.64 3.45-14.65 6.81-22.31 7.95-12.8 1.89-27.81.38-37.81-8.04q-6.18-5.2-8.98-15.02c-3.69-12.93-1.86-25.29 1.39-39.08q2.51-10.64 5.73-19.48c1.79-4.9 4.47-9.28 6.89-14.68m-86.94 1.96 10.01 7.51q3.79 5.59 9.17 5.79 5.72.2 10.03-4.37 5.07-5.38.53-13.57l-.62-13.37 7.38 4.37a4.93 4.77-6.7 0 1 .93.71q8.55 8.3 5.88 20.04-1.52 6.67-8.47 10.45a.35.35 0 0 0 .05.63q2.13.74 3.89 2.35c4.41 4.05 7.3 7.89 7.37 14.32.04 3.79.22 6.06-1.25 9.5-6.37 14.97-25.94 17.29-38.75 10.2-9.49-5.26-11.97-17.11-8.33-26.9q2.01-5.43 7.5-9.11a.39.39 0 0 0 .06-.6q-.14-.14-2.04-1.84-4.95-4.42-4.3-11.66c.11-1.32.78-2.81.96-4.45m29.558 26.813a12.11 11.82-45.9 0 0-16.916.471 12.11 11.82-45.9 0 0 .06 16.923 12.11 11.82-45.9 0 0 16.916-.471 12.11 11.82-45.9 0 0-.06-16.923"/><path fill="#1f1d1c" d="m854.65 446.29-.07-2.5z"/><path fill="#503b94" d="M475.97 449.11a.11.11 0 0 1-.07-.21q7.62-4.89 16.36-3.93 10.55 1.17 18.62 6.12 32.32 19.84 47.51 52.98 1.56 3.41 2.22 8.03a1.55 1.55 0 0 1-.15.95c-1.45 2.89-5.34.68-6.61-1.21q-4.11-6.14-7.12-10.67c-2.8-4.2-5.69-7.19-8.34-11.23-1.79-2.74-4.85-6.41-6.76-8.33q-11.95-11.96-20.64-18.59-10.05-7.67-24.39-12.82c-3.48-1.26-7.1-1.39-10.63-1.09m-229.46 4.59q-5.38 3.07-6.24 9.33c-.64 4.62 1.56 10.51 6.57 11.81 6.16 1.61 10.84-2.87 11.85-8.62q.54-3.07-2.52-7l10.21 4.43a3.05 2.98-30.9 0 0 1.05.25q2.2.12 2.14.84.24 9.31-7.35 15.43a.41.4 39.5 0 0 .07.67q11.82 6.18 10.66 18.64c-.94 10.09-7.13 16.67-16.8 18.67-12.52 2.59-30.11-1.75-31.73-17.13q-.5-4.7.77-9.69c1.33-5.23 4.92-8.58 9.56-11.34a.61.61 0 0 0-.1-1.1q-.7-.25-1.5-1-5.21-4.83-5.51-12.16-.4-9.68 6.33-16.75-.06-.12-.11-.24a.11.11 0 0 1 .14-.14zm12.299 38.568a11.52 11.09-26.4 0 0-15.25-4.811 11.52 11.09-26.4 0 0-5.388 15.055 11.52 11.09-26.4 0 0 15.25 4.811 11.52 11.09-26.4 0 0 5.388-15.055"/><path fill="#1f1d1c" d="M860.92 456.62q-.27-1.14-3.06-1.8.91-.39 1.77-.2 1.64.38 1.29 2"/><path fill="#503b94" d="M537.55 455.66a.25.24-18.2 0 1 .22-.43c5.51 1.56 14.76 3.19 21.4 5.99q11.91 5.02 21.91 10.13a2.62 2.62 0 0 1 .42 4.4l-.26.2a7.44 7.43 37.3 0 1-7.23.97l-22.92-9.17a8.95 8.9 80.8 0 1-3.58-2.6q-4.27-5.15-9.96-9.49m-42.03 11.4q-1.8.55-4.09.59-13.6.25-25.35 1.2-2.7.22-3.42-.08a.58.58 0 0 1-.18-.95c3.23-3.2 8.14-4.15 12.65-5.42 6.47-1.81 14.39 1.54 20.42 4.17a.26.26 0 0 1-.03.49"/><path fill="#1f1d1c" d="m837.73 465.83-20.32.5zm-45.77 8.28-3.42.06zm10.03.01-6.14-.02z"/><path fill="#503b94" d="M991.33 519.49q-.07.81.16 1.58l-.28 4.83q-.87 2.73-5.58 3.93.64-.73-1.06-.76-10.84-.22-19.06-.03-3.19.07-5.58-.32a.87.85 4.1 0 1-.72-.82l-.16-5.14a1.73 1.61 57.7 0 1 .13-.7q1.15-2.78 1.76-3.6 7.41-10.11 14.06-20.21 3.46-5.26 2.92-10.56a2.89 2.71-62.6 0 0-.27-.96q-1.52-3.13-5.48-3.32c-5.6-.28-7.36 4.34-7.92 9.04a1.65 1.64-89.3 0 1-1.47 1.44l-6.03.59a1.22 1.21 88.8 0 1-1.33-1.28q.36-5.8.83-7.19 1.42-4.23 6.35-8.46c4.42-3.8 10.4-4.12 15.71-2.54 8.81 2.63 11.68 13.24 8.72 21.29-1.21 3.27-3.45 7.28-5.76 10.38q-1.54 2.07-8.7 11.99a.65.65 0 0 0 .6 1.03q8.39-.95 17.23-1.03.45-.01.66.17.25.23.27.65m-564.9-34.41a.43.43 0 0 1-.05-.8c10.73-4.96 20.6-4 32.84-1.93q11.65 1.96 22.09 5.39 18.86 6.21 40.36 16.13c2.64 1.22 6.57 2.8 7.14 5.35q.41 1.82.69 3.95a1.08 1.08 0 0 1-.94 1.2c-5 .59-11.08-1.51-16.99-3.97q-32.92-13.66-52.7-19.21-6.22-1.74-20.33-4.44c-3.94-.75-8.54-.55-12.11-1.67m136.28-1.97q-.2-.21-.73-.16-.41-.31-.63-.69a.4.4 0 0 1 .48-.59q.93.32.88 1.44m380.47 50.99-.03 5.87q-.18.35-.23.81l-.14.62q-1.37 7.43-6.8 11.71-4.6 2.85-9.38 3.96l-5.88 1.08q-2.98-.52-5.93-.09l-4.25-.56q-.24-.35-.85-.16c-8.12-1.74-15.32-7.74-16.64-16.33q-2.36-15.29 10.46-23.04a.34.34 0 0 0 .01-.58c-10.79-7.03-9.75-24.18.68-31.01q10.06-6.59 22.35-2.91c6.44 1.92 11.29 7.06 12.63 13.65 1.77 8.72-.33 14.93-7.43 20.53a.28.27-52.7 0 0 .06.47c6.83 2.81 10.2 8.99 11.37 15.98m-23.155-41.49a10.27 9.56-78.4 0 0-11.43 8.138 10.27 9.56-78.4 0 0 7.3 11.982 10.27 9.56-78.4 0 0 11.43-8.138 10.27 9.56-78.4 0 0-7.3-11.982m-6.485 54.48a5.01 1.46 25.5 0 0 .63.22 3.39.96 17.2 0 0 .46.13 12.24 12.17 47.7 0 0 5.21.26 12.21 12.2.1 0 0 9.99-9.94 12.22 12.15-51.5 0 0-.75-6.77 12.21 12.21 0 0 0-11.65-7.52 12.19 12.19 0 0 0-11.1 8.09 12.19 12.11-38.5 0 0-.64 5.44 12.19 12.17-82.9 0 0 7.85 10.09m-807.1 5.69q-.16.2-.9.05-11.29-.79-18.98-5.87-7.39-4.87-7.68-14.4c-.18-5.71 3.5-11.2 7.91-14.54a1.49 1.46-60.3 0 1 1.05-.3q.98.09 1.51-.46a.54.54 0 0 0-.22-.89l-1.41-.46a1.34 1.29 74.3 0 1-.53-.31q-5.15-4.97-6.82-10.19-1.74-5.41 1.04-11.23c4.56-9.51 17.29-13.02 27.06-11.82q12.62 1.56 19.86 11.81a3.28 3.17-72.3 0 1 .43.87q2.39 7.53-.19 13.85c-1.64 4.03-3.39 5.33-7.51 7.51a.32.32 0 0 0 .04.58c1.9.67 4.99 2.12 6.96 3.76q7.67 6.39 6.08 17.03c-1.89 12.72-16.82 16.18-27.7 15.01m-12.277-51.257a10.96 9.44-176.3 0 0 10.328 10.127 10.96 9.44-176.3 0 0 11.546-8.713 10.96 9.44-176.3 0 0-10.328-10.127 10.96 9.44-176.3 0 0-11.546 8.713m18.917 21.737c-6.4-2.64-14.17-1.86-18.21 4.47-3.27 5.13-.36 11.07 5.03 13.06q8.64 3.2 16.24-.98c3.6-1.99 3.79-7.91 2.49-11.06q-1.58-3.85-5.55-5.49"/><path fill="#1f1d1c" d="M370.95 485.93a6.18 2.51 15.1 0 1-.8-.3q.41.04.8.3m7.85.15a12.49 11.87 2.4 0 1-7.48-.03z"/><path fill="#bfc1c2" d="m42.78 505.8 1.13.06a.96.92-55.9 0 0 .46-.1l7.03-3.51a.67.67 0 0 1 .6 0l22.34 11.32a1.24 1.23 27.4 0 1 .54 1.68l-3.31 6.32a1.33 1.33 0 0 1-1.35.7q-.91-.12-3.66-1.04c-9.15-3.05-18.38-6.96-24.14-14.76a.42.42 0 0 1 .36-.67"/><path fill="#503b94" d="M435.25 564.13a.29.28-73.6 0 0 .24.45l32.96-1a1.35 1.34-1.7 0 1 1.39 1.3l.24 8.14a2.29 2.28-2.3 0 1-2.18 2.35q-22.11.98-46.84.51a1.18 1.17-6.9 0 1-1.11-.86c-3.34-12.23 4.56-20.2 13.32-27.26q7.96-6.41 14.44-12.29c4.93-4.47 9.7-12.46 3.68-18-5.85-5.37-15.46-2.04-17.94 5.24q-1.33 3.91-1.55 4.42a1.01 1-83.8 0 1-.74.6q-5.94 1.2-10.38.76a.87.87 0 0 1-.77-.74q-1.4-9.11 3.71-14.48 9.91-10.42 23.94-9.35 9.28.71 15.27 5.93 6.41 5.58 6.34 14.75c-.05 7.6-3.6 12.78-9.26 17.67q-8.06 6.98-18.62 15.37-3.75 2.98-6.14 6.49m-113.16-45.96q0 .48.35.86l.62 1.75q-.19 1.37.49 1.78l.59 6.7q.08.45-.52.84-5.11 3.34-10.15 5.13-1.11.39-1.79.17a.88.87 27.6 0 0-.95.29q-.82 1.04-4.46 2.47a4.64 4.4 11.4 0 0-1.45.91q-2.15 2.01-3.37 2.64-11.88 6.18-23.24 12.18.01-4.62 2.73-7.47 2.57-2.68 6-4.05a.39.39 0 0 0 .13-.64q-9.38-8.97-4.53-21.51c3.12-8.09 10.49-11.04 18.52-11.88 8.12-.84 16.83 2.53 21.03 9.83m-10.925 8.8a7.77 7.77 0 0 0-7.798-7.743l-1.46.006a7.77 7.77 0 0 0-7.742 7.797l.01 3.06a7.77 7.77 0 0 0 7.798 7.742l1.46-.005a7.77 7.77 0 0 0 7.742-7.797z"/><path fill="#1f1d1c" d="M322.44 519.03q-.35-.38-.35-.86zm669.05 2.04q-.23-.77-.16-1.58zm-667.94 1.49q-.68-.41-.49-1.78z"/><path fill="#503b94" d="M0 597.73v-62.72l.24-3.93c2.81-3.04 4.49-6.29 9.53-5.98 19.52 1.18 38.87 14.1 51.29 28.63 7.15 8.38 13.84 18.07 20.75 24.92q12.97 12.87 29.43 20.09 24.39 10.69 48.71 16.04 8.75 1.92 21.55 4.22 10.19 1.84 18.69 2.55a.22.22 0 0 1 .17.33q-7.5 12.67-7.46 28.48a1.1 1.1 0 0 1-1.26 1.09q-8.54-1.19-17.01-2.82c-20.5-3.96-38.77-7.09-61-12q-49.66-10.97-56.68-12.61c-14.85-3.47-27.36-6.52-41.89-12.33q-5.67-2.27-9.98-6.59c-1.9-1.91-3.48-4.91-5.08-7.37"/><path fill="#503b94" d="M165.56 602.24q-6.21.27-10.43-2.58-.04-2.83-.28-5.43c-.58-6.31 2.03-9.46 6.4-14.78 6.13-7.48 15.5-15.36 19.49-18.95 4.9-4.42 10.01-11.51 5.29-18.01q-2.54-3.5-6.75-3.72-7.12-.35-10.91 5.52a1.21 1.09 68.7 0 0-.16.42l-.61 3.61a1.9 1.89 3.9 0 1-1.81 1.57l-8.87.27a1.9 1.89 85.3 0 1-1.93-1.64q-.44-3.26.45-5.89c4.96-14.56 21.04-18.03 34.25-12.82q11.02 4.34 12.23 16.93c.98 10.07-4.64 16.28-11.95 22.97-4.98 4.56-9.07 7.59-13.19 11.75-3.41 3.44-5.22 4.97-6.7 7.58a.61.61 0 0 0 .55.91l29.24-.89a1.69 1.69 0 0 1 1.74 1.69v8.59a1.32 1.31 90 0 1-1.31 1.32h-36.19a.44.44 0 0 0-.35.7q.4.55 1.8.88m175-54.01q.31-.47-.04-.76.7-5.48 4.35-9.4c2.57-2.75 7.83-5.09 10.16-6.28 5.97-3.03 12.68-3.36 19.14-3.07 10.62.5 23.15 7.57 23.82 19.84q.62 11.5-10.19 17.33a.44.44 0 0 0 .04.8c2.99 1.22 5.68 2.42 8.03 4.76q8.21 8.14 4.71 20.13c-2.33 7.94-10.66 12.6-18.58 14.87-14.44 4.13-39.49.95-43.6-16.94q-1.5-6.51 2.09-13.12 3.26-6.02 11.08-9.46a.4.4 0 0 0 .01-.73q-10.94-5.16-11.02-17.97m42.533 1.81a13.26 10.85-1.9 0 0-13.613-10.404 13.26 10.85-1.9 0 0-12.893 11.284 13.26 10.85-1.9 0 0 13.613 10.404 13.26 10.85-1.9 0 0 12.893-11.284m-5.893 23.08c-7.75-2.78-16.95-1.42-21.39 6.33-3.6 6.29.19 13.18 6.71 15.25q10.45 3.32 19.25-2.08c4.17-2.57 4.06-9.61 2.34-13.29q-2.1-4.48-6.91-6.21m151.01 29.01-3.5-.03-18.54.03a1.29 1.29 0 0 1-1.29-1.25c-.18-6.83-.89-11.11 3.34-16.44q5.21-6.58 11.31-12.17 10.3-9.45 12.8-11.69c4.04-3.64 7.44-9.26 4.93-14.4-2.14-4.4-6.83-6.1-11.64-5.03q-7.12 1.6-8.43 9.59a1.22 1.22 0 0 1-1.09 1.02l-10.23 1a.79.77-4.2 0 1-.86-.73c-.27-5.59-.27-9.24 3.26-13.38q5.84-6.82 13.7-8.55c8.84-1.94 19.97.4 25.9 7.75 4.68 5.8 5.68 13.78 2.87 20.85-2.11 5.32-8.5 11.15-13.08 14.93q-4.61 3.8-8.15 6.97c-4.85 4.34-8.22 6.92-10.06 10.26a.28.27-76.5 0 0 .25.41q17.3-.6 20.61-.65 5.39-.08 9.57.31a1.1 1.09 2.6 0 1 1 1.09v8.71a1.35 1.35 0 0 1-1.34 1.35zm63.82-17.84a.41.4 89.3 0 0-.41-.41q-17.34.27-30.35.58c-2.54.06-3.17-1.79-3.21-4.07l-.12-6.38a3.76 3.73-34.5 0 1 .29-1.54q.92-2.19 2.55-4.44 18.18-25.02 24.8-34.42c1.76-2.5 3.13-3.68 6.29-3.82q6.2-.28 9.88-.18a2.47 2.46-89.3 0 1 2.4 2.47v39.71a1.18 1.17 0 0 0 1.18 1.17h5.11a.9.9 0 0 1 .9.9v8.8a1.02 1.01 0 0 1-1.02 1.01h-5.21a.81.81 0 0 0-.81.81v18.1a1.38 1.38 0 0 1-1.38 1.38h-9.13a1.76 1.76 0 0 1-1.76-1.76zm-.46-11.65a.31.31 0 0 0 .3-.31v-26.27a.31.31 0 0 0-.56-.18l-19.43 26.86a.31.31 0 0 0 .26.49zm-341.76-23.86.08 10.16.12.49q-.35 1.45.17 2.78.58 3.41-.13 6.78-.31 1.18-1 1.59-8.1 4.87-15.52 10.72-.43.33-1.27.44-.76-.52-1.82-.45-11.19.71-21.87.65a2.28 2.27-.7 0 1-2.26-2.2l-.24-8.12a2.59 2.58 61.7 0 1 .47-1.58l27.34-39.15a2.68 2.68 0 0 1 2.2-1.15h11.55a2.02 2.02 0 0 1 2.02 2.01zm-11.82-3.01a.31.31 0 0 0-.56-.18l-17.4 24.9a.31.31 0 0 0 .25.49h17.4a.31.31 0 0 0 .31-.31z"/><path fill="#1f1d1c" d="m943.15 539.97.03-5.87zm-.23.81q.02.48-.14.62z"/><path fill="#503b94" d="M861.16 562.42q-.12.48 0 .85l.14.99q-.09.8.13 1.53l.13 2.25q-.11.46-.03.92-.05.12-.1.25-.59.05-.28.93-.87 1.77-.84 3.95c-1.58 4.87-4.08 6.5-7.48 9.28a.57.56 42.3 0 0 .05.91l5.65 3.76q-4.96 4.46-11.97 5.92c-3.24-5.3-10.2-5.31-15.68-3.27-6.05 2.25-8.22 9.19-8.01 15.07q.01.21.64.37-.31.42-.83.77-6.98 4.69-14.26 7.22.94-1.68.8-4.28-.24-4.18-.24-4.21.51-10.31 7.89-17.65 1.25-1.24 2.35-1.86 2.16-1.22 2.19-1.25a.32.32 0 0 0-.11-.53c-7.45-2.81-10.62-11.66-10.14-19.18q-.04-.38.09-.84.93-8.37 7.88-13.67 4.8-3.66 9.54-4.94c8.61-2.31 19.65-.75 26.36 4.96q4.89 4.17 6.13 11.75m-36.22 4.27a11.74 11.44-45.1 0 0 .17 2.83 11.75 11.47-45 0 0 10.46 9.2 11.72 11.41-45.1 0 0 1.86-.05 11.74 11.46-44.7 0 0 10.67-12.63 11.74 11.46-46.4 0 0-9.38-10.35 11.73 11.46-43.7 0 0-12.6 6.55 11.69 11.32-41.2 0 0-1.18 4.45"/><path fill="#1f1d1c" d="M914.17 547.31a5.01 1.46 25.5 0 1-.63-.22q.33.02.63.22m5.67.39a12.24 12.17 47.7 0 1-5.21-.26zm-579.32-.23q.35.29.04.76.19-.58-.04-.76m-90.63 11.47-.08-10.16z"/><path fill="#503b94" d="M714.04 550.57c1.82 1.56 3.13 3.34 4.89 4.62q3.81 2.77 6.86 5.37l.08 34.1a.68.68 0 0 0 .74.67l5.48-.54a1.74 1.74 0 0 1 1.91 1.73v8.64a1.75 1.75 0 0 1-1.75 1.75h-5.52a.84.84 0 0 0-.84.86l.39 17.55q-7.35-1.47-12.43-5.31l.25-13.14a.55.55 0 0 0-.59-.56q-15.14.9-30.29.32a2.04 2.04 0 0 1-1.96-2.07c.07-3.9-1.41-7.6 1.14-11.15q9.06-12.62 20.81-29.17 4.99-7.02 10.83-13.67m-.14 18.52a.31.31 0 0 0-.56-.18L694.9 595.3a.31.31 0 0 0 .27.49l18.43-.56a.31.31 0 0 0 .3-.31zm-31.84 44.93q-9.65 2.31-15.24 5.31-7.98 4.28-11.51 5.47l-13.74-.24q-.52-.56-1.6-.24l-1.01-.15-3.39-.18-4.18-.66a.61.6-88.2 0 1-.51-.55q-.06-.83-.69-1.46-.6-8.71 5.77-16.16 7.11-8.32 10.82-11.64 6.65-5.94 12.01-12.18 5.9-6.88 2.29-15.11c-1.62-3.7-7.16-4.49-10.62-3.45q-5.98 1.8-6.77 9.18a2.05 2.04-87.7 0 1-1.97 1.83l-8.24.25a1.36 1.36 0 0 1-1.39-1.17c-1.55-11.43 7.47-20.18 18.16-21.39q4.57-.51 10.01.61c6.44 1.34 12.97 6.32 14.93 12.96 1.63 5.51 1.71 14.55-2.23 19.37-1.09 1.34-2.17 3.09-3.56 4.53q-7.59 7.89-16.15 15.55-4.3 3.85-7.45 8.52a.57.57 0 0 0 .49.89q12.81-.59 26.36-.26c2.48.06 6.2.54 9.41.37"/><path fill="#1f1d1c" d="M106.44 552.78q-.25.23-.9.05.74.15.9-.05m804.1 4.72-.85-.16q.61-.19.85.16m10.18.65-5.93-.09q2.95-.43 5.93.09m-670.54 4.06q-.52-1.33-.17-2.78.41 1.3.17 2.78m610.98 1.06q-.12-.37 0-.85-.08.51 0 .85"/><path fill="#bfc1c2" d="M1024 563.73v9.4q-1.52-4.32 0-9.4"/><path fill="#1f1d1c" d="M811.25 564.32q-.13.46-.09.84-.17-.52.09-.84m50.18 1.47q-.22-.73-.13-1.53.2.72.13 1.53m-36.32 3.73a11.74 11.44-45.1 0 1-.17-2.83zm36.42-.56q-.08-.46.03-.92.15.48-.03.92"/><path fill="#503b94" d="m316.02 619.52 15.64 2.14a1.75 1.75 0 0 1 1.51 1.6q.25 3.08-1.23 6.19a.49.48-50.7 0 0 .04.47q.27.37.52.07-.47.72-.93 1.44-.36.56-.19.81.19.28.84.28l-1.01.28-13.74-1.24q-.64-.38-1.5-.25-.64-.15-.36-.26-2.91-.56-6.15-.01l-6.25-.11q-1.62-.5-2.82-.03l-9.53-1.4q-3.87-1.17-7.44-3.7-.93-.66-.35-1.44a.97.94-33.6 0 0 .17-.79l-.36-1.56c0-4.99 3-7.55 5.63-10.99q.48.07.65-.11.35-.39.12-.63.3-.34.73-.49.49-.03.55-.51.51.21.93-.09.25-.19-.04-.49l5.16-4.16a5.48 5.46 13.5 0 1 1.1-.67q8.23-3.72 16.09-9.07c5.01-3.4 7.57-9.7 1.51-13.88-5.94-4.09-14.85-2.11-16.86 5.3a2.2 2.09 47.6 0 0-.02 1.08l1.28 5.67a.65.63-13.9 0 1-.47.76c-4.65 1.21-8.65 1.34-12.26-1.49a2.3 2.3 0 0 1-.77-1.12q-2.84-9.2 3.14-15.34 4.8-4.94 11.72-6.41c12.49-2.66 26.68.9 31.11 14.39q2.65 8.07-3.51 15.66a4.84 4.56-87.9 0 1-.71.7q-7.16 5.6-9.87 7.21c-8.18 4.88-12.55 7.7-15.49 9.06q-1.8.83-2.68 2.56a.59.59 0 0 0 .62.85q7.81-1.3 15.48-.28"/><path fill="#1f1d1c" d="M861.43 569.21q.11.86-.28.93-.31-.88.28-.93m-.28.93q.14 2.25-.84 3.95-.03-2.18.84-3.95"/><path fill="#bfc1c2" d="M1018 595.19q-22.28 10.74-46.39 15.55-4.58.91-11.28 1.6c-5.06.51-9.83 1.5-15.1 1.68q-16.63.55-29.76.72a.44.44 0 0 1-.14-.85c2.26-.73 4.46-.96 6.69-1.81 17.73-6.78 33.01-11.98 49.74-19.31q17.96-7.87 34.81-16.42 2.44-1.24 4.52-3.09 1.02 3.71 1.59 7.53.66 4.34 5.36 13.44.22.42-.04.96"/><path fill="#1f1d1c" d="M837.43 578.67a11.72 11.41-45.1 0 1-1.86.05z"/><path fill="#bfc1c2" d="M255.59 595.49q3.71-4.98 4.03-5.31 1.59-1.56 3-.96 1.39.59 2.39.79 8.66 1.76 18.45 5.52 5.36 2.06 7.58 2.77a.46.46 0 0 1 .3.58l-2.96 9.19a.77.7 79.4 0 1-.2.32l-2.37 2.38a1.36 1.33 21 0 1-.9.39c-3.42.12-6.21-1.8-8.62-2.47q-11.83-3.29-20.66-12.52a.53.52-48.7 0 1-.04-.68"/><path fill="#503b94" d="M422.85 626.48q-3.18-1.62-5.31-4.53-4.5-6.18-3.35-14.26c1.43-10.09 10.77-17.38 20.57-17.95q9.91-.57 16.78 2.71c12.79 6.12 14.58 27.08 1.47 34.11a.32.32 0 0 0 .05.58c8.49 2.69 12.41 10.16 12.14 18.96-.4 12.78-10.23 20.19-22.44 21-10.43.7-19.99-1.09-26.53-9.34q-2.22-2.79-3.19-6.53c-2.71-10.49 1.39-18.25 9.86-24.03a.42.42 0 0 0-.05-.72m24.004-22.027a10.78 10.43-36.6 0 0-14.873-1.946 10.78 10.43-36.6 0 0-2.435 14.8 10.78 10.43-36.6 0 0 14.873 1.946 10.78 10.43-36.6 0 0 2.435-14.8m4.115 35.28a12.75 12.13-20.8 0 0-16.226-6.812 12.75 12.13-20.8 0 0-7.612 15.867 12.75 12.13-20.8 0 0 16.226 6.811 12.75 12.13-20.8 0 0 7.612-15.867"/><path fill="#1f1d1c" d="m528.21 602.13-3.5-.03zm-236.76 6.57q.29.3.04.49-.42.3-.93.09.35-.36.89-.58m-.89.58q-.06.48-.55.51.19-.34.55-.51"/><path fill="#bfc1c2" d="M333.04 633.14q.37.02.4-.27a.19.18 17.2 0 0-.1-.18q-.45-.24-1.12-.17-.65 0-.84-.28-.17-.25.19-.81.46-.72.93-1.44c1.37-2.43 2.84-7.57-.18-9.12q-.64-.33-5.2-.87-4.72-.56-9.37-1-1.05-.82-2.2-1.22a.34.34 0 0 1 .08-.66l1.93-.19a.41.41 0 0 0-.05-.81l-1.24.04a.62.62 0 0 1-.5-1.01l3.33-4.14a2.02 2.01-77.1 0 1 1.09-.69q3.55-.84 5.56-.26 9.15 2.65 22.45 5.97c5.32 1.33 15.22 4.81 21.39 6.56q10.14 2.89 16.76 5.61 4.2 1.72 7.88 4.06 4.05 2.57 5.71 6.74a1.73 1.71-29 0 1-.59 2.02c-5.73 4.14-16.26 3.5-23.21 2.86q-21.79-2.02-41.53-9.53-.73-.28-1.57-1.21"/><path fill="#1f1d1c" d="M289.28 610.28q.23.24-.12.63-.17.18-.65.11z"/><path fill="#503b94" d="M469.37 695.57q3.52 3.16 10.2 6.84 20.26 11.17 43.23 14.99c7.39 1.22 15.67 2.51 22.89 2.8q14.6.6 29.44-.35.39-.02 1.6-.34a6.45 5.49 31.2 0 1 1.05-.17q10.13-.85 13.92-1.67 14.67-3.19 23.73-6.78c13.95-5.52 27.3-15.5 38.15-23.55 7.13-5.3 17.1-11.26 26.38-8.24q7.22 2.34 14.48 7.22.49.33 15.5 10.25c7.07 4.68 16.79 8.72 25.5 7.33 8.24-1.3 15.37-5.12 22.46-9.26q14.75-8.62 33.87-20.61 21.49-13.48 42.96-24.28c9.04-4.54 19-6.47 29.67-5.95 9.93.48 19.32 1.79 28.46 2.62q15.51 1.42 26.45 2.41 16.92 1.54 28.69 2.1 6.03.28 19.99-.19 9.6-.32 22.62-3.7 21.1-5.47 33.39-24.54v37.26q-9.73 8.65-19.73 12.76-14.97 6.16-31.59 9.13c-23.91 4.29-46.56 6.78-70.83 9.2q-7.85.79-30.19 3.48-22.55 2.71-30.13 3.77-17.2 2.41-38.67 7.21-45.16 10.11-84.68 33.37-1.27.75-9.34 4.56-5.2 2.45-9.57 3.96-22.92 7.87-40.53 10.55-30.29 4.61-64.24 5.21-37.08.65-73.75-.28-24.99-.64-48.47-2.79-5.09-.46-28.02-2.87-14.41-1.51-27.94-3.53c-36.24-5.42-71.84-12.43-106.83-22.24-21.42-6.01-44.26-11.46-66.61-19.64-12.42-4.55-24.09-9.44-30.35-20.54q-3-5.32-4.76-12.77-5.17-21.79-.05-42.49 3.12-12.59 14.31-17.79c9.31-4.33 18.98-.01 27.28 4.46q15.54 8.38 40.49 21.62 18.29 9.72 25.6 12.83c20.21 8.62 38.57 14.91 60.86 20.75q22.95 6.01 39.74 9.31 9.76 1.91 31.62 5.84 4.72.85 10.84 1.55 5.64.66 10.91 1.19"/><path fill="#503b94" d="M530.09 682.56q-8.27 1.41-12.84 1.58-7.76.29-21.54-.12c-2.64-.08-5.15-.56-7.73-1.01.16-4.4-.29-7.41 2.39-11.65q2.79-4.42 8.87-10.13 7.78-7.32 13.68-13.77c4.19-4.59 6.03-12.12.79-16.63q-3.57-3.06-9.05-1.37-6.53 2.01-6.99 9.45a1.64 1.64 0 0 1-1.48 1.53l-8.96.88a1.72 1.72 0 0 1-1.89-1.64q-.34-7.92 4.06-13.23c7.76-9.38 21.3-10.54 31.78-5.02q5.28 2.78 7.48 8.86 4.84 13.37-5.13 23.98-5.47 5.82-9.04 8.97c-4.97 4.39-10.15 8.55-12.21 13.27a.69.69 0 0 0 .65.97l24.32-.73a1.42 1.41 88 0 1 1.46 1.37q.04 1.58-.88 2.82a.61.6-55.5 0 0 .16.88q.89.58 2.1.74"/><path fill="#1f1d1c" d="M317.75 619q4.65.44 9.37 1 4.56.54 5.2.87c3.02 1.55 1.55 6.69.18 9.12q-.25.3-.52-.07a.49.48-50.7 0 1-.04-.47q1.48-3.11 1.23-6.19a1.75 1.75 0 0 0-1.51-1.6l-15.64-2.14q.79-.41 1.73-.52"/><path fill="#503b94" d="m573.06 638.59.29 17.4q-.34.47-.39.9a.58.58 0 0 0 .52.65l2.66.28 2.13.9a.94.93-84.5 0 1 .55.67l.62 2.72q.17.45.16 1.16l-.03 1.18q.08 1.56-.36 2.84a1.5 1.49 81.2 0 1-.53.73q-1.29.97-1.9 2.08-7.18 4.17-15.08 5.25.86-2.7.52-5.94a.89.88 86.2 0 0-.91-.8l-27.54.83a1.75 1.75 0 0 1-1.81-1.66l-.43-8.04a1.05 1.02 58.1 0 1 .12-.56q4-7.42 5.86-9.92 9.98-13.44 17.68-25.07 1.85-2.78 3.53-3.7a2.75 2.67-59.4 0 1 1.21-.33l10.8-.33a1.94 1.94 0 0 1 2 1.9zm-11.66-3.87-1.7 2.03-.12.14-14.6 20.84a.32.32 0 0 0 .27.5l14.75-.44a1.47 1.47 0 0 0 1.42-1.51q-.2-8.14-.28-14.27c-.03-2.34.61-5.12.9-6.99a.37.36 69.8 0 0-.64-.3"/><path fill="#1f1d1c" d="M635.57 623.99q-2.23.31-4.39-.08a.93.92-5.7 0 1-.7-.57q-.32-.8-.29-2.02.63.63.69 1.46a.61.6-88.2 0 0 .51.55zm3.39.18-3.39-.18zm2.61.39-1.6-.24q1.08-.32 1.6.24m-338.36 6.37-2.82-.03q1.2-.47 2.82.03m12.4.12q-2.99.53-6.15-.01 3.24-.55 6.15.01m1.86.51-1.5-.25q.86-.13 1.5.25m15.57 1.58-1.83-.34 1.01-.28q.67-.07 1.12.17a.19.18 17.2 0 1 .1.18q-.03.29-.4.27m240.31 22.85-.29-17.4zm6.09 6.12-.62-2.72a.94.93-84.5 0 0-.55-.67l-2.13-.9c3.64-1.18 3.91 1.77 3.3 4.29m.13 2.34.03-1.18q.09.62-.03 1.18"/></symbol></svg>