<svg xmlns="http://www.w3.org/2000/svg"><symbol id="PlayStation5SVG" viewBox="0 0 1024 1024"><g fill="none" stroke-width="2"><path stroke="#8d8d8d" d="M569.23 876.55a.63.63 0 0 0 1.04-.42q.63-7.34.68-12.92c.09-9.21.91-15.82 1.03-25.79.1-8.4 1.09-18.22 1.01-26.67-.08-7.81.98-14.2.97-22q-.01-7.44.6-16.48c.59-8.97.24-16.86.81-25.69q.65-10.05.63-18.38c-.03-7.4.92-14.05.96-21.78q.05-8.3.55-16.33c.67-10.56.33-19.85 1.03-30.33q.47-7.15.45-14.97c-.03-7.66.89-15.55.94-23.13q.06-9.2.64-17.32c.6-8.6.21-15.01 1.02-23 .59-5.78.12-13.49.95-19.86q.29-2.18.38-8.56.04-3.11.59-12.82 1.99-35.25 3.87-70.34.86-15.99 1.92-30.87 1.06-14.8 2.06-33.13.72-13.34 4.11-62.06.86-12.4 3.16-44.98 2.24-31.72 3.36-44.95 7.63-89.57 10.7-133.23c.49-6.88-7.79-4.33-11.12-2.99q-21.28 8.54-45.75 19a.36.36 0 0 0 .08.68c4.88.96 10.5 2.36 14.69 4.93 10.05 6.17 14.71 16.53 16.81 27.96q2.01 10.96 2.43 23.63 1.04 31.14-.3 65.84-.5 12.77-.49 16.86c.02 8.6-1.09 17.64-1 27.12.07 6.88-.99 14.93-1.04 22.77-.03 5.55-.86 11.26-.92 16.82q-.05 5.39-.7 12.6c-.53 5.9-.14 11.92-.85 17.85-.8 6.6-.43 13.23-1.03 20.19-.58 6.7-.32 12.02-1.01 18.51q-.41 3.94-.53 11c-.06 4.06-.85 8.58-.85 11.81q-.01 6.84-.77 13.17-.43 3.55-.34 5.92c.18 4.52-.63 9.74-.83 13.57q-.99 18.88-2.85 42.52-.27 3.42-.36 7.42c-.08 3.93-.9 8.51-.92 13.06-.02 5.79-.74 9.45-.97 17.17q-.21 6.7-.65 11.47c-.52 5.5-.32 10.76-.89 16.61-.68 6.95-.13 14.78-.93 20.95-.9 6.94-.44 16.42-1.17 25.52-.7 8.7-.28 18.62-1.07 27.49-.63 7.17-.23 13.79-.84 22.33q-.56 7.77-.53 19.43c.01 5.01-.95 12.09-.91 18.03q.06 9.87-.88 23.73c-.43 6.33-.09 15.38-.64 23.24q-.52 7.32-.51 14.34c.01 10.64-1.2 22.04-1.06 32.25.1 6.93-.9 14.1-.9 21.58 0 10.06-1.15 22.11-1.13 32.72 0 3.07-1.18 8.16-.67 10.66a5.14 5.08-75.7 0 0 1.68 2.87l6.26 5.38M444.56 120.04c-2.69-2.22-6.2.93-8.36 2.66q-64.62 51.91-73.63 59.37-5.81 4.8-8.52 8.22c-3.32 4.17-3.19 7.72-3.16 13.46.13 26.87-.86 53.72-.98 80.75-.03 8.02-.96 19.26-.89 29.01.08 9.81-.92 17.59-1 28.17-.05 7.49-1.33 15.71-1.01 23.98q.1 2.8-.3 7.17c-.74 8.1-.37 15.6-1.3 23.54q-.35 2.96-.41 9.54c-.06 5.34-.93 9.77-.92 14.95q.01 3.05-.63 11.23-.44 5.5-1.41 22.68c-.33 5.86-1.1 10.97-1.06 16.15.03 3.49-.76 6.78-.88 10.59q-.06 2.17-.45 7.96-1.01 15.15-1.76 24.01-11.99 141.24-22.44 238.77-3.64 33.94-5.87 52.49-.67 5.6 4.5 8.4 24.58 13.3 44.48 23.52 41.75 21.47 83.65 37.38c14.54 5.53 28.54 9.97 43.03 12.25q5.9.93 10.96.16c7.97-1.2 9.26-6.64 9.63-13.7q.48-9.06.58-20.5.29-34.31-.45-76.46c-.22-12.61-.89-22.7-.85-31.29.08-14.85-1.17-33.8-1.17-47.53-.01-9.43-.93-18.15-.97-27.88q-.02-5.23-.66-14.66-.17-2.51-.63-14.67-.34-9.08-2.21-45.26-1.09-21-5.51-78.85-3.49-45.63-6.8-78.75-13.05-130.38-27.61-235.4-4.46-32.19-9.44-61.55-1-5.9-2.89-14.68-.8-3.71-2.66-5.23" vector-effect="non-scaling-stroke"/><path stroke="#323232" d="M464.33 142.8c4 21.22 6.94 41.54 10.75 68.91q2.92 20.99 4.07 30.57 5.35 44.61 6.29 52.72 2.47 21.51 7.76 74 2.71 26.79 7.67 87.32 1.05 12.85 7.5 98.27c.96 12.61 1.31 23.26 2.1 36.47q.57 9.67 1.29 27.39 2.75 67.69 3.55 84.54.29 6.22 1.21 48.48c.2 9.1.9 16.73.62 25.12q-.19 5.4.13 18.82.83 35.02.59 73.14a.57.56-15.5 0 0 .86.48q10.29-6.32 22.29-7.22 3.01-.22 5.83.41a.66.66 0 0 0 .73-.95c-.91-1.78 1.16-2.58 2.58-3.09a1.57 1.57 0 0 0 1.03-1.37c.73-10.86.52-22.47 1.04-34.04q1.34-29.39 1.92-46.77 1.87-55.54 3.39-110.55 1.15-42.04 3.4-79.86 4.35-73.01 4.96-82.16 5.06-74.8 5.55-85.18 2.5-53.2 7.66-165.94.86-18.77.86-29.14-.02-23.82-.24-29.16-.49-11.55-2.99-24.74c-1.9-10.01-6.68-19.38-17.35-21.97q-8.76-2.12-16.95-2.5-22.1-1.03-48.68-1.66-15.49-.37-28.82-1.03a.59.58-4.3 0 0-.6.69" vector-effect="non-scaling-stroke"/><path stroke="#8d8d8d" d="M596.53 482.38c-2.77 30.99-4.13 63.32-5.3 96.37q-.1 3 2.11 6.59a1.26 1.24-55.5 0 1 .16.91q-.47 2.37-.51 4c-.12 5.58.09 16.19-.14 24.34q-.86 29.44-.83 45.73c.02 17.86-1.17 36.66-1.01 53.7q.07 7.49-.59 18.94c-.57 9.85-.07 20.88-.71 31.12-.73 11.66-.58 22.22-1.53 33.17-.42 4.95.12 10.24-.63 15.31-.73 4.9-.33 11.07-1.07 16.22q-.05.34-.81 9.44-.38 4.56-3 13.25a9.58 9.3 55.5 0 0-.4 2.36l-1.01 23.34a.45.45 0 0 0 .57.45q5.86-1.62 20.43-7.1c3.6-1.36 12.18-4.36 12.98-8q.83-3.79.83-8.77-.06-45.19-.11-177.75-.01-8.41-.62-20.72c-.41-8.24-.07-17.38-.76-24.12-.62-6.12-.48-10.84-.95-17.66q-2.33-34.11-7.59-70.56-3.15-21.87-7.01-45.22-.62-3.8-.87-6.97c-.32-3.98-.33-7.06-1.2-8.47a.23.23 0 0 0-.43.1" vector-effect="non-scaling-stroke"/><path stroke="#323232" d="M450.8 889.22q-14.98-5.2-25.98-9.8-44.86-18.77-84.17-40.35-12.4-6.8-26.97-14.09a1.11 1.11 0 0 0-1.6.8c-.65 3.66-.69 7.25-1.31 11.25q-2.1 13.54-2.98 26.49-.35 5.15 3.68 8.51c5.35 4.47 12.32 6.34 19.64 8.58q6.44 1.98 12.17 3.12 17.27 3.44 35.23 4.67 22.03 1.5 29.99 1.51 39.07.07 42.17.09a.4.4 0 0 0 .13-.78m66.1-4.49 31.47-6.51a.1.1 0 0 0 .08-.12l-.01-.03a16.06 8.11-11.7 0 0-17.37-4.69l-.21.05a16.06 8.11-11.7 0 0-14.08 11.2v.03a.1.1 0 0 0 .12.07m10.09-367.44q-.07 5.85.29 11.7.54 8.9 5.84 8.97 5.3.06 6.05-8.83.5-5.84.57-11.69t-.29-11.7q-.55-8.9-5.84-8.96-5.3-.06-6.05 8.82-.5 5.84-.57 11.69m.25 41.74q-.03 1.72.11 4.45c.2 3.82 2.89 7.96 7.24 6.17a2.5 2.38-77.3 0 0 .77-.51c2.48-2.47 2.66-6.29 2.73-9.88.08-3.59.06-7.42-2.32-9.99a2.5 2.38 79.7 0 0-.74-.54c-4.28-1.97-7.14 2.05-7.5 5.86q-.25 2.73-.29 4.44" vector-effect="non-scaling-stroke"/></g><path fill="#1b1b1b" d="M299.72 819.42c-1.9-1.64-3.12-6.7-3.53-9.38a5.41 5.14 46.1 0 1-.01-1.55q.81-5.72 2.45-19.75 4.3-36.71 5.2-46.51.33-3.5.38-3.75.73-3.38.72-5.89c-.01-3.52 1.05-6.66 1.09-10.27.04-3.31 1.03-6.73 1-10.18-.02-3.2 1.02-6.53 1.01-9.57 0-3.36.93-5.75.97-8.97q.04-2.79.72-6.15c.54-2.65.08-5.63.79-8.27.76-2.87.5-6.53.92-10.14q1.35-11.56 1.58-16.44.16-3.51.78-6.15c.52-2.26.05-5.72.62-8.29.87-4 .33-8.78 1.25-12.95.56-2.56.19-5.67.61-8.27q.37-2.29 1.4-14.18.57-6.59 1.17-12.34 1.11-10.79 1.16-12.36c.11-4.14 1.1-8.22 1.03-12.68q-.04-2.39.42-5.04c.73-4.16.38-8.16 1.12-12.27q.42-2.32.51-8.18a11.75 11.7-38.9 0 1 .23-2.1q.78-3.9.77-9.58a11.36 11.3 50.5 0 1 .2-2.12c.94-4.95.44-9.71 1.32-14.18.7-3.48.32-8.09.99-12.19q.47-2.83.49-8.13c.01-2.05.73-4.68.77-6.32q.15-5.79.69-11.32c.56-5.84.25-11.08 1-16.14.59-3.94.28-8.25.76-11.91.82-6.28.36-12.91 1.11-18.25.91-6.43.35-13.69 1.35-19.71.64-3.91.11-9.82.72-14.64.82-6.45.34-13.05 1.05-20.29q.51-5.2.53-11.44c.03-7.78.87-12.73.88-20.12 0-9.58 1.17-20.69 1.08-29.6-.1-10.04.93-20.69.94-31.13.01-14.92.85-33.83.95-49.3q.21-34.44.24-38.47.03-3.31 3.24-8.34 2.15-3.34 8.24-8.48 19.92-16.8 35.77-29.73 2.06-1.68 41.09-32.91c4.91-3.93 9.37-6.71 15.97-6.72 7.34 0 13.31 4.55 15.48 11.49q2.13 6.79 3.23 14.08a1.1 1.09-3.1 0 0 1.05.93l65.43 1.82a2.36 2.3-56.2 0 0 1.09-.23q5.88-2.88 9.99-4.62 20.44-8.67 38.03-16.24 9.97-4.3 21.68-8.57 1.95-.71 6.06-1.26c10.69-1.42 20.56 5.98 19.52 17.36-.19 2.18.09 4.51-.3 6.58q-.7 3.69-.72 7.6c-.02 4.39-1.06 7.7-.95 12.07q.05 2.02-.7 6.97-.43 2.89-.45 7a11.49 11.35 51 0 1-.2 2.02c-.82 4.32-.6 8.48-1.11 12.96q-1.2 10.61-1.56 18.63-.2 4.34-.77 7.4c-.59 3.17-.03 6.63-.71 9.88q-.37 1.76-.61 7.39-.04 1.07-.65 7.38-1.05 10.81-1.25 15.62-.2 4.47-.78 7.51c-.58 3-.11 6.67-.7 10.01q-.48 2.78-.55 7.04-.05 3.46-.75 7.99c-.51 3.26-.15 7.11-.7 10.7-.74 4.96-.33 10.14-1.13 15.1-.79 4.87-.36 10.82-1.08 15.98-.59 4.24-.21 8.07-.84 12.26q-.49 3.25-.52 7.45c-.04 5.17-.97 9.2-.98 14.45q-.02 4.59-.71 9.46c-.58 4.07-.14 8.44-.7 12.64q-.57 4.23-.61 8.34c-.05 5.04-1.01 8.99-1.01 14.36.01 5.62-.9 10.79-1 17.24q-.02 1.64-.52 6.9-.95 10.11-.48 13.3.32 2.21 1.53 10.75 1.21 8.53 7.97 52.05 6.43 41.46 9.96 69.46 3.04 24.03 3.43 33.49.29 7.13.87 9.39a4.98 4.7 39.9 0 1 .15 1.27q-.09 6.37.43 11.78.47 5 .64 11.62.95 39.11.96 65.93.04 122.87.08 161.75c.01 8.64-5.58 12.68-12.99 15.69q-10.55 4.29-26.18 9.42-10.33 3.38-15.83 4.6-.83.18-5.61-.11a2.84 2.79 59.6 0 1-1.03-.28l-6.26-3.2a3.74 3.67-37.4 0 0-2.51-.31q-23.56 5.3-47.21 8.52-5.1.7-6.29.88c-3.53.56-6.73.34-9.99 1.16a8.58 8.03 35.6 0 1-1.82.24c-4.76.11-9.35 1.09-13.39 1.07q-5.91-.04-15.77.49c-14.56.79-25.62.56-42.84.54-8.26-.01-17.51-.94-25.12-.96q-3.28-.01-6.04-.41c-4.81-.7-7.82-.45-12.79-1.2q-3.57-.54-6.79-.47a7.02 6.94 50.6 0 1-1.74-.18q-3.64-.87-7.19-.82a3.71 3.62 53.4 0 1-1.25-.2q-2.33-.77-5.51-.78c-.82 0-1.92-.49-2.62-.6q-18.65-2.94-33.45-7.83-8.26-2.73-14.76-7.25-4.5-3.13-6.66-9.31a3.58 3.24-59.3 0 1-.19-.94q-.41-9.07-.07-10.81.94-4.83.94-8.35a6.46 6.37 52.7 0 1 .21-1.63q.8-3.08.86-7.81c.02-1.48.78-3.61.78-4.58-.01-4.73 1.24-9.77 1.26-15.47a1.21 1.2 20.7 0 0-.43-.94m269.51 57.13a.63.63 0 0 0 1.04-.42q.63-7.34.68-12.92c.09-9.21.91-15.82 1.03-25.79.1-8.4 1.09-18.22 1.01-26.67-.08-7.81.98-14.2.97-22q-.01-7.44.6-16.48c.59-8.97.24-16.86.81-25.69q.65-10.05.63-18.38c-.03-7.4.92-14.05.96-21.78q.05-8.3.55-16.33c.67-10.56.33-19.85 1.03-30.33q.47-7.15.45-14.97c-.03-7.66.89-15.55.94-23.13q.06-9.2.64-17.32c.6-8.6.21-15.01 1.02-23 .59-5.78.12-13.49.95-19.86q.29-2.18.38-8.56.04-3.11.59-12.82 1.99-35.25 3.87-70.34.86-15.99 1.92-30.87 1.06-14.8 2.06-33.13.72-13.34 4.11-62.06.86-12.4 3.16-44.98 2.24-31.72 3.36-44.95 7.63-89.57 10.7-133.23c.49-6.88-7.79-4.33-11.12-2.99q-21.28 8.54-45.75 19a.36.36 0 0 0 .08.68c4.88.96 10.5 2.36 14.69 4.93 10.05 6.17 14.71 16.53 16.81 27.96q2.01 10.96 2.43 23.63 1.04 31.14-.3 65.84-.5 12.77-.49 16.86c.02 8.6-1.09 17.64-1 27.12.07 6.88-.99 14.93-1.04 22.77-.03 5.55-.86 11.26-.92 16.82q-.05 5.39-.7 12.6c-.53 5.9-.14 11.92-.85 17.85-.8 6.6-.43 13.23-1.03 20.19-.58 6.7-.32 12.02-1.01 18.51q-.41 3.94-.53 11c-.06 4.06-.85 8.58-.85 11.81q-.01 6.84-.77 13.17-.43 3.55-.34 5.92c.18 4.52-.63 9.74-.83 13.57q-.99 18.88-2.85 42.52-.27 3.42-.36 7.42c-.08 3.93-.9 8.51-.92 13.06-.02 5.79-.74 9.45-.97 17.17q-.21 6.7-.65 11.47c-.52 5.5-.32 10.76-.89 16.61-.68 6.95-.13 14.78-.93 20.95-.9 6.94-.44 16.42-1.17 25.52-.7 8.7-.28 18.62-1.07 27.49-.63 7.17-.23 13.79-.84 22.33q-.56 7.77-.53 19.43c.01 5.01-.95 12.09-.91 18.03q.06 9.87-.88 23.73c-.43 6.33-.09 15.38-.64 23.24q-.52 7.32-.51 14.34c.01 10.64-1.2 22.04-1.06 32.25.1 6.93-.9 14.1-.9 21.58 0 10.06-1.15 22.11-1.13 32.72 0 3.07-1.18 8.16-.67 10.66a5.14 5.08-75.7 0 0 1.68 2.87zM444.56 120.04c-2.69-2.22-6.2.93-8.36 2.66q-64.62 51.91-73.63 59.37-5.81 4.8-8.52 8.22c-3.32 4.17-3.19 7.72-3.16 13.46.13 26.87-.86 53.72-.98 80.75-.03 8.02-.96 19.26-.89 29.01.08 9.81-.92 17.59-1 28.17-.05 7.49-1.33 15.71-1.01 23.98q.1 2.8-.3 7.17c-.74 8.1-.37 15.6-1.3 23.54q-.35 2.96-.41 9.54c-.06 5.34-.93 9.77-.92 14.95q.01 3.05-.63 11.23-.44 5.5-1.41 22.68c-.33 5.86-1.1 10.97-1.06 16.15.03 3.49-.76 6.78-.88 10.59q-.06 2.17-.45 7.96-1.01 15.15-1.76 24.01-11.99 141.24-22.44 238.77-3.64 33.94-5.87 52.49-.67 5.6 4.5 8.4 24.58 13.3 44.48 23.52 41.75 21.47 83.65 37.38c14.54 5.53 28.54 9.97 43.03 12.25q5.9.93 10.96.16c7.97-1.2 9.26-6.64 9.63-13.7q.48-9.06.58-20.5.29-34.31-.45-76.46c-.22-12.61-.89-22.7-.85-31.29.08-14.85-1.17-33.8-1.17-47.53-.01-9.43-.93-18.15-.97-27.88q-.02-5.23-.66-14.66-.17-2.51-.63-14.67-.34-9.08-2.21-45.26-1.09-21-5.51-78.85-3.49-45.63-6.8-78.75-13.05-130.38-27.61-235.4-4.46-32.19-9.44-61.55-1-5.9-2.89-14.68-.8-3.71-2.66-5.23m19.77 22.76c4 21.22 6.94 41.54 10.75 68.91q2.92 20.99 4.07 30.57 5.35 44.61 6.29 52.72 2.47 21.51 7.76 74 2.71 26.79 7.67 87.32 1.05 12.85 7.5 98.27c.96 12.61 1.31 23.26 2.1 36.47q.57 9.67 1.29 27.39 2.75 67.69 3.55 84.54.29 6.22 1.21 48.48c.2 9.1.9 16.73.62 25.12q-.19 5.4.13 18.82.83 35.02.59 73.14a.57.56-15.5 0 0 .86.48q10.29-6.32 22.29-7.22 3.01-.22 5.83.41a.66.66 0 0 0 .73-.95c-.91-1.78 1.16-2.58 2.58-3.09a1.57 1.57 0 0 0 1.03-1.37c.73-10.86.52-22.47 1.04-34.04q1.34-29.39 1.92-46.77 1.87-55.54 3.39-110.55 1.15-42.04 3.4-79.86 4.35-73.01 4.96-82.16 5.06-74.8 5.55-85.18 2.5-53.2 7.66-165.94.86-18.77.86-29.14-.02-23.82-.24-29.16-.49-11.55-2.99-24.74c-1.9-10.01-6.68-19.38-17.35-21.97q-8.76-2.12-16.95-2.5-22.1-1.03-48.68-1.66-15.49-.37-28.82-1.03a.59.58-4.3 0 0-.6.69m132.2 339.58c-2.77 30.99-4.13 63.32-5.3 96.37q-.1 3 2.11 6.59a1.26 1.24-55.5 0 1 .16.91q-.47 2.37-.51 4c-.12 5.58.09 16.19-.14 24.34q-.86 29.44-.83 45.73c.02 17.86-1.17 36.66-1.01 53.7q.07 7.49-.59 18.94c-.57 9.85-.07 20.88-.71 31.12-.73 11.66-.58 22.22-1.53 33.17-.42 4.95.12 10.24-.63 15.31-.73 4.9-.33 11.07-1.07 16.22q-.05.34-.81 9.44-.38 4.56-3 13.25a9.58 9.3 55.5 0 0-.4 2.36l-1.01 23.34a.45.45 0 0 0 .57.45q5.86-1.62 20.43-7.1c3.6-1.36 12.18-4.36 12.98-8q.83-3.79.83-8.77-.06-45.19-.11-177.75-.01-8.41-.62-20.72c-.41-8.24-.07-17.38-.76-24.12-.62-6.12-.48-10.84-.95-17.66q-2.33-34.11-7.59-70.56-3.15-21.87-7.01-45.22-.62-3.8-.87-6.97c-.32-3.98-.33-7.06-1.2-8.47a.23.23 0 0 0-.43.1M450.8 889.22q-14.98-5.2-25.98-9.8-44.86-18.77-84.17-40.35-12.4-6.8-26.97-14.09a1.11 1.11 0 0 0-1.6.8c-.65 3.66-.69 7.25-1.31 11.25q-2.1 13.54-2.98 26.49-.35 5.15 3.68 8.51c5.35 4.47 12.32 6.34 19.64 8.58q6.44 1.98 12.17 3.12 17.27 3.44 35.23 4.67 22.03 1.5 29.99 1.51 39.07.07 42.17.09a.4.4 0 0 0 .13-.78m66.1-4.49 31.47-6.51a.1.1 0 0 0 .08-.12l-.01-.03a16.06 8.11-11.7 0 0-17.37-4.69l-.21.05a16.06 8.11-11.7 0 0-14.08 11.2v.03a.1.1 0 0 0 .12.07"/><path fill="#fff" d="m569.23 876.55-6.26-5.38a5.14 5.08-75.7 0 1-1.68-2.87c-.51-2.5.67-7.59.67-10.66-.02-10.61 1.13-22.66 1.13-32.72 0-7.48 1-14.65.9-21.58-.14-10.21 1.07-21.61 1.06-32.25q-.01-7.02.51-14.34c.55-7.86.21-16.91.64-23.24q.94-13.86.88-23.73c-.04-5.94.92-13.02.91-18.03q-.03-11.66.53-19.43c.61-8.54.21-15.16.84-22.33.79-8.87.37-18.79 1.07-27.49.73-9.1.27-18.58 1.17-25.52.8-6.17.25-14 .93-20.95.57-5.85.37-11.11.89-16.61q.44-4.77.65-11.47c.23-7.72.95-11.38.97-17.17.02-4.55.84-9.13.92-13.06q.09-4 .36-7.42 1.86-23.64 2.85-42.52c.2-3.83 1.01-9.05.83-13.57q-.09-2.37.34-5.92.76-6.33.77-13.17c0-3.23.79-7.75.85-11.81q.12-7.06.53-11c.69-6.49.43-11.81 1.01-18.51.6-6.96.23-13.59 1.03-20.19.71-5.93.32-11.95.85-17.85q.65-7.21.7-12.6c.06-5.56.89-11.27.92-16.82.05-7.84 1.11-15.89 1.04-22.77-.09-9.48 1.02-18.52 1-27.12q-.01-4.09.49-16.86 1.34-34.7.3-65.84-.42-12.67-2.43-23.63c-2.1-11.43-6.76-21.79-16.81-27.96-4.19-2.57-9.81-3.97-14.69-4.93a.36.36 0 0 1-.08-.68q24.47-10.46 45.75-19c3.33-1.34 11.61-3.89 11.12 2.99q-3.07 43.66-10.7 133.23-1.12 13.23-3.36 44.95-2.3 32.58-3.16 44.98-3.39 48.72-4.11 62.06-1 18.33-2.06 33.13-1.06 14.88-1.92 30.87-1.88 35.09-3.87 70.34-.55 9.71-.59 12.82-.09 6.38-.38 8.56c-.83 6.37-.36 14.08-.95 19.86-.81 7.99-.42 14.4-1.02 23q-.58 8.12-.64 17.32c-.05 7.58-.97 15.47-.94 23.13q.02 7.82-.45 14.97c-.7 10.48-.36 19.77-1.03 30.33q-.5 8.03-.55 16.33c-.04 7.73-.99 14.38-.96 21.78q.02 8.33-.63 18.38c-.57 8.83-.22 16.72-.81 25.69q-.61 9.04-.6 16.48c.01 7.8-1.05 14.19-.97 22 .08 8.45-.91 18.27-1.01 26.67-.12 9.97-.94 16.58-1.03 25.79q-.05 5.58-.68 12.92a.63.63 0 0 1-1.04.42M444.56 120.04q1.86 1.52 2.66 5.23 1.89 8.78 2.89 14.68 4.98 29.36 9.44 61.55 14.56 105.02 27.61 235.4 3.31 33.12 6.8 78.75 4.42 57.85 5.51 78.85 1.87 36.18 2.21 45.26.46 12.16.63 14.67.64 9.43.66 14.66c.04 9.73.96 18.45.97 27.88 0 13.73 1.25 32.68 1.17 47.53-.04 8.59.63 18.68.85 31.29q.74 42.15.45 76.46-.1 11.44-.58 20.5c-.37 7.06-1.66 12.5-9.63 13.7q-5.06.77-10.96-.16c-14.49-2.28-28.49-6.72-43.03-12.25q-41.9-15.91-83.65-37.38-19.9-10.22-44.48-23.52-5.17-2.8-4.5-8.4 2.23-18.55 5.87-52.49 10.45-97.53 22.44-238.77.75-8.86 1.76-24.01.39-5.79.45-7.96c.12-3.81.91-7.1.88-10.59-.04-5.18.73-10.29 1.06-16.15q.97-17.18 1.41-22.68.64-8.18.63-11.23c-.01-5.18.86-9.61.92-14.95q.06-6.58.41-9.54c.93-7.94.56-15.44 1.3-23.54q.4-4.37.3-7.17c-.32-8.27.96-16.49 1.01-23.98.08-10.58 1.08-18.36 1-28.17-.07-9.75.86-20.99.89-29.01.12-27.03 1.11-53.88.98-80.75-.03-5.74-.16-9.29 3.16-13.46q2.71-3.42 8.52-8.22 9.01-7.46 73.63-59.37c2.16-1.73 5.67-4.88 8.36-2.66"/><path fill="#494949" d="M464.33 142.8a.59.58-4.3 0 1 .6-.69q13.33.66 28.82 1.03 26.58.63 48.68 1.66 8.19.38 16.95 2.5c10.67 2.59 15.45 11.96 17.35 21.97q2.5 13.19 2.99 24.74.22 5.34.24 29.16 0 10.37-.86 29.14-5.16 112.74-7.66 165.94-.49 10.38-5.55 85.18-.61 9.15-4.96 82.16-2.25 37.82-3.4 79.86-1.52 55.01-3.39 110.55-.58 17.38-1.92 46.77c-.52 11.57-.31 23.18-1.04 34.04a1.57 1.57 0 0 1-1.03 1.37c-1.42.51-3.49 1.31-2.58 3.09a.66.66 0 0 1-.73.95q-2.82-.63-5.83-.41-12 .9-22.29 7.22a.57.56-15.5 0 1-.86-.48q.24-38.12-.59-73.14-.32-13.42-.13-18.82c.28-8.39-.42-16.02-.62-25.12q-.92-42.26-1.21-48.48-.8-16.85-3.55-84.54-.72-17.72-1.29-27.39c-.79-13.21-1.14-23.86-2.1-36.47q-6.45-85.42-7.5-98.27-4.96-60.53-7.67-87.32-5.29-52.49-7.76-74-.94-8.11-6.29-52.72-1.15-9.58-4.07-30.57c-3.81-27.37-6.75-47.69-10.75-68.91m62.66 374.49q-.07 5.85.29 11.7.54 8.9 5.84 8.97 5.3.06 6.05-8.83.5-5.84.57-11.69t-.29-11.7q-.55-8.9-5.84-8.96-5.3-.06-6.05 8.82-.5 5.84-.57 11.69m.25 41.74q-.03 1.72.11 4.45c.2 3.82 2.89 7.96 7.24 6.17a2.5 2.38-77.3 0 0 .77-.51c2.48-2.47 2.66-6.29 2.73-9.88.08-3.59.06-7.42-2.32-9.99a2.5 2.38 79.7 0 0-.74-.54c-4.28-1.97-7.14 2.05-7.5 5.86q-.25 2.73-.29 4.44"/><path fill="#fff" d="M596.96 482.28c.87 1.41.88 4.49 1.2 8.47q.25 3.17.87 6.97 3.86 23.35 7.01 45.22 5.26 36.45 7.59 70.56c.47 6.82.33 11.54.95 17.66.69 6.74.35 15.88.76 24.12q.61 12.31.62 20.72.05 132.56.11 177.75 0 4.98-.83 8.77c-.8 3.64-9.38 6.64-12.98 8q-14.57 5.48-20.43 7.1a.45.45 0 0 1-.57-.45l1.01-23.34a9.58 9.3 55.5 0 1 .4-2.36q2.62-8.69 3-13.25.76-9.1.81-9.44c.74-5.15.34-11.32 1.07-16.22.75-5.07.21-10.36.63-15.31.95-10.95.8-21.51 1.53-33.17.64-10.24.14-21.27.71-31.12q.66-11.45.59-18.94c-.16-17.04 1.03-35.84 1.01-53.7q-.03-16.29.83-45.73c.23-8.15.02-18.76.14-24.34q.04-1.63.51-4a1.26 1.24-55.5 0 0-.16-.91q-2.21-3.59-2.11-6.59c1.17-33.05 2.53-65.38 5.3-96.37a.23.23 0 0 1 .43-.1"/><path fill="#1b1b1b" d="M533.61 496.78q5.29.06 5.84 8.96.36 5.85.29 11.7t-.57 11.69q-.75 8.89-6.05 8.83-5.3-.07-5.84-8.97-.36-5.85-.29-11.7t.57-11.69q.75-8.88 6.05-8.82m4.48 62.48c-.07 3.59-.25 7.41-2.73 9.88a2.5 2.38-77.3 0 1-.77.51c-4.35 1.79-7.04-2.35-7.24-6.17q-.14-2.73-.11-4.45.04-1.71.29-4.44c.36-3.81 3.22-7.83 7.5-5.86a2.5 2.38 79.7 0 1 .74.54c2.38 2.57 2.4 6.4 2.32 9.99"/><path fill="#494949" d="M450.8 889.22a.4.4 0 0 1-.13.78q-3.1-.02-42.17-.09-7.96-.01-29.99-1.51-17.96-1.23-35.23-4.67-5.73-1.14-12.17-3.12c-7.32-2.24-14.29-4.11-19.64-8.58q-4.03-3.36-3.68-8.51.88-12.95 2.98-26.49c.62-4 .66-7.59 1.31-11.25a1.11 1.11 0 0 1 1.6-.8q14.57 7.29 26.97 14.09 39.31 21.58 84.17 40.35 11 4.6 25.98 9.8m66.1-4.49a.1.1 0 0 1-.12-.07v-.03a16.06 8.11-11.7 0 1 14.08-11.2l.21-.05a16.06 8.11-11.7 0 1 17.37 4.69l.01.03a.1.1 0 0 1-.08.12z"/></symbol></svg>