<svg xmlns="http://www.w3.org/2000/svg"><symbol id="PS5ControllerSVG" viewBox="0 0 1024 1024"><g fill="none" stroke-width="2"><path stroke="#242424" d="M485.72 238.5q21.66.73 43.33.03m28.98.71q3.76 1.13 7.7.22m16.71.64q4.24 1.07 8.63.51m106.48 12.53q-.03.88-1.33.88-2.13 0-6.53-1.22-4.5-1.25-20.94-4.24-8.84-1.61-25.43-2.89l-17.62-1.42q-14.1-1.15-17.65-1.14c-6.28.01-11.93-1.17-18.16-1.11-5.95.05-12.75-1.09-18.53-1.08-13.78.02-26.93-.91-39.59-.91H486.6q-17.39 0-31.7.62-18.4.8-31.64 1.77-30.59 2.25-37.25 2.75-20.78 1.54-41.97 5.34c-5.51.99-9.47 2.13-15.22 3.55q-2.82.7-4.2-.14a2.68 2.59 86.6 0 1-.72-.66c-1.55-2.1-3.71-6.73-6.22-9.4-8.16-8.66-21.02-9-32.53-9.29q-6.39-.16-12.64.7-13.74 1.88-22.52 4.07-17.27 4.29-35.37 12.1-9.27 4-15.14 9.66c-3.66 3.53-5.43 8.13-8.48 13.8a.66.55-12.9 0 1-.1.13l-8.3 7.65a3.93 3.82 81.1 0 0-.94 1.33q-1.49 3.51-3.93 6.08a1.34 1.26-13.5 0 0-.25.38L170.81 305a2.49 2.34 77 0 1-.21.36q-3.64 5.25-6.04 12.1a6.72 6.17 71.6 0 1-.47 1.05q-1.81 3.25-2 4.14-.6 2.9-2.05 4.96a3.21 2.74 77.4 0 0-.36.68q-2.95 8.06-6.16 15.59-4.28 10.05-6.07 15.55c-2.6 7.97-6.2 15.55-8.64 23.52q-5.09 16.59-8.73 29.23c-.89 3.07-1.17 5.64-2.32 8.35q-.61 1.44-.74 2.19-.19 1.06-.21 1.37a3.74 3.41-36.7 0 1-.16.83q-3.19 9.62-3.55 12.6-.57 4.69-2.2 7.59a.86.76-30.1 0 0-.09.27l-1.66 9.94a.17.17 0 0 0 .14.19l.29.05a.34.33 12 0 0 .37-.23q2.32-7.36 3.18-12.9.6-3.89 1.98-7.95c1.11-3.29 1.9-8.42 3.44-12.59q.57-1.54 1.24-4.69c1.53-7.16 4.35-14.66 6.36-21.07q2.52-8.07 4.71-13.99c3.32-8.97 5.58-16.67 9.06-25.44q.11-.29 5.62-13.58c.73-1.74 1.25-3.96 2.6-5.77a1.86 1.73 70.8 0 0 .33-.75q.16-.88.27-1.17 1.92-5.01 12.51-28.77 1.92-4.29 3.48-6.96 1.66-2.81 3.78-6.94a3.03 2.68-14.9 0 1 .28-.42q1.6-1.96 2.38-4.51a1.92 1.86 76.1 0 1 .42-.72c6.57-7.1 9.41-10.73 17.62-13.15q34.19-10.1 71.62-16.57 2.79-.48 24.68-3.93 2.46-.39 3.92-.47c3.4-.18 6.64-.85 9.86-.58q10.69.92 18.68 8.45 8.07 7.61 10.77 20.19 3.21 15.01 12.24 59.09 2.07 10.13 3.42 16.05 1.53 6.72 3.84 21.81.83 5.39.46 9.75-1.42 17.12-11.11 31.87-5.53 8.42-12.02 15.06c-2.03 2.08-3.11 4.08-4.8 6.61a4.07 3.91-5.2 0 1-.66.76q-3.24 2.86-6.64 7.38c-1.55 2.07-3.4 3.95-4.7 5.57q-35.51 44.2-61.27 97.74-24.28 50.43-38.39 91.57c-4.66 13.58-14.42 40.94-19.64 57.65q-9.78 31.23-18.88 55.4c-2.63 6.96-8.81 16.78-16.07 19.36q-6.1 2.16-10.5.82c-3.93-1.2-8.5-2.61-12.5-5.24-2.47-1.63-5.58-3.27-8.45-5.75q-3.65-3.16-4.31-4.1-2.48-3.48-5.38-5.8a.38.38 0 0 0-.54.52q3.86 5.4 8.92 9.82 2.67 2.33 5.75 4.2c3.99 2.41 7.05 4.7 10.66 5.96 4.05 1.41 7.47 3.23 11.93 4.63q13.21 4.13 19.36 5.73 7.81 2.04 18.75 3.18 9.44.98 17.95-3.12a.77.77 0 0 0 .43-.83l-1.12-6.56a4.47 4.46 51.9 0 1 .3-2.51c2.83-6.58 4.79-13.8 7.49-20.8q5.95-15.42 11.68-30.46 10.05-26.34 24.3-59.38 5.54-12.83 7.88-17.04c2.95-5.31 5.55-12.07 8.76-17.56q.73-1.25 1.93-.4" vector-effect="non-scaling-stroke"/><path stroke="#242424" d="m278.98 631.23 1.26.91a1.22 1.21 27 0 0 1.86-.6q2.33-6.95 5.19-13.26.9-2 2.42-4.13.72-1.03 2.76-3.94 5.6-8.01 15.16-14.82c6.17-4.39 15.22-7.86 22.08-9.12q8.63-1.6 17.38-.28 4.58.69 8.86.89 4.33.2 8.87.93a5.19 4.89 46.7 0 0 1 .06q4.37-.16 7.4.28c5.31.76 9.11.72 15.28.73q163.23.36 251.75.01 10.37-.03 28.96-2.3 7.12-.87 11.13-.95 6.99-.14 11.16.43c21.68 2.95 39.2 18.61 47.99 38.42q2.45 5.53 1.75 9.57" vector-effect="non-scaling-stroke"/><path stroke="#363635" d="m96.35 649.61-.26-18.44" vector-effect="non-scaling-stroke"/><path stroke="#242424" d="m792.56 769.18 1.43 1.03a1.08 1.04 14.6 0 1 .44.72q.11.7.41.87a1.45.71 18.5 0 1 .64.63q.16.41 3.29 6.23.25.47.55.58.4.15.35.64-.06.54.36 1.13 4.14 5.87 9.85 7.88 8.73 3.08 18.66 1.64 17.33-2.5 35.98-9.02 7.19-2.51 8.84-3.66a.25.15-58.3 0 1 .08-.04l6-2.23a.57.56-10.5 0 0 .37-.53v-.39a.41.41 0 0 0-.6-.37q-6.92 3.52-14.41 3.26-7.3-.24-12.5-5.82-2.97-3.19-3.37-3.82-5.53-8.52-8.76-18.27-18.6-56.13-30.03-90.01-20-59.31-48.04-114.93c-14.95-29.65-30.69-54.71-49.43-80.37q-9.79-13.41-26.81-33.23-.75-.88-3.02-3.8c-2.4-3.08-5.12-6.36-7.34-9.87q-5.68-9.02-8.5-20.6-1.13-4.64-1.13-10.65.01-9.07.34-10.74 1.64-8.38 17.95-90.06c1.91-9.59 4.86-18.27 11.99-25.19q1.25-1.21 2.28-1.76c2.25-1.19 3.67-2.62 6.28-3.58q8.04-2.95 13.46-2.4 49.33 5.08 104.56 20.81c4.29 1.22 8.06 3.05 11.34 5.44a.47.47 0 0 0 .65-.65q-3.05-4.29-5.15-9.14c-3.83-8.8-13.97-14.84-22.98-18.46q-9.97-4.01-17.18-6.55-13.1-4.61-31.45-7.77-8.24-1.42-15.01-1.52-11.78-.18-15.09.07-5.3.4-12.47 2.5-6.36 1.87-10.56 7.27-.27.35-2.72 4.45-1.35 2.25-3.31 4.05m-211.34-14.59-1.24.03" vector-effect="non-scaling-stroke"/><path stroke="#868686" d="M351.92 351.37q-2.73-12.4-12.78-62.07-1.66-8.23-2.42-11.01-3.96-14.5-16.8-21.6c-9.42-5.21-22.75-2.04-32.85-.58q-40.92 5.94-80.15 16.93-9.92 2.77-11.75 3.69c-7.55 3.79-13.36 12.66-17.4 20.56q-6.12 11.94-12.06 25.42-34.51 78.3-50.21 163.05-7.02 37.89-10.33 72-1.09 11.19-1.8 18.09-.39 3.81-.38 5.32c.01 4.54-.94 8.44-.92 13.34.01 7.12-1.07 14.19-1.07 21.36v35.51q0 4.7.6 9.98.14 1.17.65 10 1.14 19.43 5.42 40.24c5.33 25.91 15.5 52.2 41.93 62.96q4.91 2 8.59 1.97c5.74-.05 11.2-3.53 14.5-7.85q5.21-6.81 8-14.83c15.05-43.35 27.49-83.99 42.63-124.8q17.89-48.19 41.94-94.28 22.16-42.45 51.77-79.74 5.15-6.48 25.3-30.45 5.17-6.15 9.51-15.3c8.83-18.66 4.57-37.6.08-57.91" vector-effect="non-scaling-stroke"/><path stroke="#242424" d="M116.36 470.7q1.4-3.16 2.1-8.64a5.25 4.99 60.7 0 1 .29-1.14q.68-1.84.82-4.6a.21.21 0 0 0-.41-.07l-3.71 14.13a.48.48 0 0 0 .91.32m-1.32 4.34-1.96 8.97a.32.32 0 0 0 .44.36q.49-.21.6-.7.47-2.22 1.16-6.85" vector-effect="non-scaling-stroke"/><path stroke="#363635" d="M115.28 476.82q.12-4.43-.24-1.78" vector-effect="non-scaling-stroke"/><path stroke="#484848" d="M115.28 476.82q-.28-.93-.24-1.78" vector-effect="non-scaling-stroke"/><path stroke="#242424" d="M113.1 485.23q-1.42 5.84-1.35 6.55a.37.37 0 0 0 .71.1q1.44-3.68.93-6.64a.15.15 0 0 0-.29-.01" vector-effect="non-scaling-stroke"/><path stroke="#363635" d="M111.335 494.978a3.36.46-84.1 0 0-.803 3.295 3.36.46-84.1 0 0 .113 3.39 3.36.46-84.1 0 0 .803-3.296 3.36.46-84.1 0 0-.113-3.39m-3.735 26.534a.25.25 0 0 0-.212-.284l-.02-.002a.25.25 0 0 0-.283.21l-1.724 11.674a.25.25 0 0 0 .21.284l.02.002a.25.25 0 0 0 .284-.21l1.724-11.674" vector-effect="non-scaling-stroke"/><path stroke="#363635" d="M105.419 535.224a6.88.33-83.5 0 0-1.107 6.799 6.88.33-83.5 0 0-.45 6.873 6.88.33-83.5 0 0 1.106-6.799 6.88.33-83.5 0 0 .45-6.873" vector-effect="non-scaling-stroke"/><path stroke="#363635" d="M102.89 553q-.13.49-.18 5.53a6.58 6.51-38 0 1-.19 1.48q-.87 3.44-.95 8.75a.34.34 0 0 0 .65.15q.15-.34.34-7.41a4.09 4.02-35 0 1 .22-1.19q.93-2.66.57-7.27a.24.23-39.7 0 0-.46-.04" vector-effect="non-scaling-stroke"/><path stroke="#363635" d="M101.188 572.213a4.46.28-88.1 0 0-.428 4.448 4.46.28-88.1 0 0 .132 4.467 4.46.28-88.1 0 0 .428-4.449 4.46.28-88.1 0 0-.132-4.466" vector-effect="non-scaling-stroke"/><path stroke="#363635" d="M100.646 583.257a.26.26 0 0 0-.249-.27l-.02-.001a.26.26 0 0 0-.27.249l-.553 13.188a.26.26 0 0 0 .249.27l.02.001a.26.26 0 0 0 .27-.248l.553-13.189m-1.328 15.503a.26.26 0 0 0-.26-.26h-.12a.26.26 0 0 0-.26.26l-.116 66.18a.26.26 0 0 0 .26.26h.12a.26.26 0 0 0 .26-.26l.116-66.18m.715 68.375a.27.27 0 0 0-.29-.249l-.1.008a.27.27 0 0 0-.249.29l1.533 19.921a.27.27 0 0 0 .29.249l.1-.008a.27.27 0 0 0 .249-.29l-1.533-19.921" vector-effect="non-scaling-stroke"/><path stroke="#363635" d="M101.696 687.719a6.96.42-96.8 0 0 .407 6.96 6.96.42-96.8 0 0 1.241 6.862 6.96.42-96.8 0 0-.407-6.96 6.96.42-96.8 0 0-1.241-6.862" vector-effect="non-scaling-stroke"/><path stroke="#242424" d="M104.498 703.724a.49.49 0 0 0-.56-.407l-.06.009a.49.49 0 0 0-.407.56l1.151 7.27a.49.49 0 0 0 .56.407l.06-.009a.49.49 0 0 0 .407-.56l-1.151-7.27m1.342 10.046c-.24 1.89.53 3.45.85 5.24q1.15 6.58 4.58 15.06a5.07 4.98-62.9 0 1 .29.93q1.07 4.86 2.57 7.37 2.69 4.49 6.83 11.55a.26.26 0 0 0 .35.09l.07-.04a.26.25-30.8 0 0 .09-.34q-4.58-7.82-8.15-16.24-1.36-3.21-2.94-8.56-1.5-5.05-2.79-8.6a3.63 3.48-56.3 0 1-.2-1.12q-.03-2.43-1.24-5.38a.16.16 0 0 0-.31.04m15.93 41.11q.19.53.33.64a.26.26 0 0 0 .42-.16q.08-.42-.49-.71a.19.19 0 0 0-.26.23" vector-effect="non-scaling-stroke"/><path stroke="#868686" d="M851.97 309.49c-6.04-12.83-13.57-29.05-26.33-33.64q-9.01-3.24-22.37-6.61-41.66-10.53-79.79-14.97c-9.6-1.12-17.7-.01-25.45 6.28-7.88 6.38-10.64 14.94-12.56 24.71q-7.67 39.04-16.77 84.21-6.25 31.01 13.16 54.69 1.39 1.7 17.69 21.54 31.54 38.41 55.85 83.87 30.75 57.5 51.41 116.63 13.18 37.75 31.57 94.17 3.98 12.23 7.3 19.52c6.32 13.89 17.28 20.82 32.22 13.01q17.03-8.92 25.63-26.14 5.34-10.71 7.7-18.56 7.33-24.37 9.61-50.97 1.53-17.88 2.03-32.24.23-6.5.08-28.31c-.04-5.5-.9-10.23-.89-15.22q0-5.17-.46-11.41-1.1-14.74-1.7-21.55-2.92-33.22-9.15-70-9.9-58.42-27.64-110.92-14.28-42.24-31.14-78.09" vector-effect="non-scaling-stroke"/><path stroke="#363635" d="M834.82 278.82a.57.42-142.2 0 0 .193.682.57.42-142.2 0 0 .707.017.57.42-142.2 0 0-.193-.68.57.42-142.2 0 0-.707-.018m1.62 1.429a.19.19 0 0 0-.19-.19.19.19 0 0 0-.19.19.19.19 0 0 0 .19.19.19.19 0 0 0 .19-.19" vector-effect="non-scaling-stroke"/><path stroke="#242424" d="M837.6 281.13a.42.42 0 0 0-.42-.42.42.42 0 0 0-.42.42.42.42 0 0 0 .42.42.42.42 0 0 0 .42-.42" vector-effect="non-scaling-stroke"/><path stroke="#363635" d="M856.251 313.2a1.59.3-113.3 0 0 .354 1.579 1.59.3-113.3 0 0 .904 1.341 1.59.3-113.3 0 0-.354-1.579 1.59.3-113.3 0 0-.904-1.341" vector-effect="non-scaling-stroke"/><path stroke="#363635" d="M858.277 317.639a4.28.32-113.3 0 0 1.4 4.058 4.28.32-113.3 0 0 1.986 3.804 4.28.32-113.3 0 0-1.4-4.058 4.28.32-113.3 0 0-1.986-3.804" vector-effect="non-scaling-stroke"/><path stroke="#363635" d="M862.025 326.396a4.24.32-114.3 0 0 1.453 3.996 4.24.32-114.3 0 0 2.037 3.732 4.24.32-114.3 0 0-1.453-3.996 4.24.32-114.3 0 0-2.037-3.732" vector-effect="non-scaling-stroke"/><path stroke="#363635" d="M867.74 339.21q.05-.42-1.48-3.24a.09.09 0 0 0-.16.07l1.09 3.24a.28.28 0 0 0 .55-.07" vector-effect="non-scaling-stroke"/><path stroke="#363635" d="M867.915 340.221a1.81.27-113.6 0 0 .478 1.767 1.81.27-113.6 0 0 .972 1.55 1.81.27-113.6 0 0-.478-1.766 1.81.27-113.6 0 0-.972-1.55" vector-effect="non-scaling-stroke"/><path stroke="#242424" d="M876.06 361.18q-.02.53.35 1.19a.17.17 0 0 0 .31-.11q-.04-.26-.38-1.13a.15.14-55 0 0-.28.05" vector-effect="non-scaling-stroke"/><path stroke="#363635" d="M882.81 378.29q.02-.25-.24-.8a.27.27 0 0 0-.51.07q-.04.22.26.83a.26.26 0 0 0 .49-.1m1.1 4.92q.58 1.76 1.34 3.63a.17.16-36.5 0 0 .28.04q.11-.14.05-.37-.48-1.81-1.04-3.51-.57-1.76-1.33-3.64a.17.16-36.5 0 0-.28-.04q-.11.14-.05.38.48 1.81 1.03 3.51M888 394.6q.18 3.01.8 2.21a.3.29-34 0 0 .05-.24l-.59-2.01a.13.13 0 0 0-.26.04" vector-effect="non-scaling-stroke"/><path stroke="#363635" d="M888.849 397.233a1.25.31-106.8 0 0 .064 1.287 1.25.31-106.8 0 0 .658 1.107 1.25.31-106.8 0 0-.064-1.287 1.25.31-106.8 0 0-.658-1.107" vector-effect="non-scaling-stroke"/><path stroke="#242424" d="M889.89 401.19a.2.2 0 0 0-.13.24l6.47 22.12a.3.3 0 0 0 .58-.03q.27-1.32-.4-2.66-.89-1.77-2.54-8.73-.2-.85-.55-1.19c-.78-.74-.34-2.07-.73-3.16q-.95-2.64-1.95-6.41a.37.36 74 0 0-.46-.26l-.29.08" vector-effect="non-scaling-stroke"/><path stroke="#363635" d="M899.13 434.06q.48 1.81.96 3.69 1.22 4.8 1.23 4.83a.32.31-51.3 0 0 .6-.07c.17-.85-.8-2.19-.94-3.3q-.31-2.32-1.12-5.35-.8-3.02-1.69-5.19c-.42-1.03-.25-2.68-.82-3.33a.32.31 21.5 0 0-.55.24q0 .03 1.33 4.81.52 1.86 1 3.67" vector-effect="non-scaling-stroke"/><path stroke="#242424" d="M901.957 443.427a2.01.49-101 0 0-.098 2.066 2.01.49-101 0 0 .864 1.88 2.01.49-101 0 0 .098-2.066 2.01.49-101 0 0-.865-1.88" vector-effect="non-scaling-stroke"/><path stroke="#363635" d="M904.71 455.74q.38-.09.18-.99-1.22-5.5-1.59-5.42-.38.08.83 5.59.2.9.58.82" vector-effect="non-scaling-stroke"/><path stroke="#242424" d="M904.9 456.203a1.37.36-104.4 0 0-.009 1.417 1.37.36-104.4 0 0 .69 1.237 1.37.36-104.4 0 0 .008-1.417 1.37.36-104.4 0 0-.69-1.237" vector-effect="non-scaling-stroke"/><path stroke="#242424" d="M905.88 460.37q-.03-1.03-.08-1.12a.24.24 0 0 0-.46.07q-.14.89.07 1.2a.26.26 0 0 0 .47-.15" vector-effect="non-scaling-stroke"/><path stroke="#363635" d="M907.05 468.1q.56 3.38 1.55 6.69a.17.17 0 0 0 .33-.04q.05-2.28-.93-4.74a2.39 2.2 34.9 0 1-.17-.76q-.02-.42-.16-1.24-.54-3.38-1.54-6.7a.17.17 0 0 0-.33.05q-.05 2.28.93 4.74a2.39 2.2 34.9 0 1 .17.76q.02.42.15 1.24" vector-effect="non-scaling-stroke"/><path stroke="#363635" d="M909.333 477.176a1.75.35-97.8 0 0-.11 1.781 1.75.35-97.8 0 0 .585 1.687 1.75.35-97.8 0 0 .109-1.781 1.75.35-97.8 0 0-.585-1.687" vector-effect="non-scaling-stroke"/><path stroke="#242424" d="M910.183 481.85a1.88.36-95.7 0 0-.171 1.906 1.88.36-95.7 0 0 .545 1.835 1.88.36-95.7 0 0 .171-1.907 1.88.36-95.7 0 0-.545-1.835" vector-effect="non-scaling-stroke"/><path stroke="#363635" d="M912.15 492.218a1.66.28-95.5 0 0-.119 1.679 1.66.28-95.5 0 0 .438 1.625 1.66.28-95.5 0 0 .12-1.679 1.66.28-95.5 0 0-.438-1.625" vector-effect="non-scaling-stroke"/><path stroke="#242424" d="M913.21 500.59q.01.54.13.77a.26.26 0 0 0 .48-.14q-.04-.43-.21-.74a.21.21 0 0 0-.4.11" vector-effect="non-scaling-stroke"/><path stroke="#242424" d="M913.989 503.366a3.28.45-97.2 0 0-.036 3.31 3.28.45-97.2 0 0 .858 3.198 3.28.45-97.2 0 0 .035-3.31 3.28.45-97.2 0 0-.857-3.198" vector-effect="non-scaling-stroke"/><path stroke="#363635" d="M915.244 511.122a2.3.28-95.9 0 0-.043 2.317 2.3.28-95.9 0 0 .515 2.259 2.3.28-95.9 0 0 .043-2.317 2.3.28-95.9 0 0-.515-2.259m4.229 29.83a1.16.18-93.3 0 0-.113 1.168 1.16.18-93.3 0 0 .247 1.148 1.16.18-93.3 0 0 .113-1.168 1.16.18-93.3 0 0-.247-1.148" vector-effect="non-scaling-stroke"/><path stroke="#363635" d="M919.789 544.155a2.69.3-96 0 0-.017 2.706 2.69.3-96 0 0 .58 2.644 2.69.3-96 0 0 .016-2.706 2.69.3-96 0 0-.58-2.644" vector-effect="non-scaling-stroke"/><path stroke="#363635" d="M920.52 550.23q.01-.06-.07-.28a.08.08 0 0 0-.14-.01q-.08.15-.06.29a.14.14 0 0 0 .27 0" vector-effect="non-scaling-stroke"/><path stroke="#363635" d="M920.483 551.574a1.08.15-94.6 0 0-.062 1.088 1.08.15-94.6 0 0 .236 1.064 1.08.15-94.6 0 0 .063-1.088 1.08.15-94.6 0 0-.237-1.065m1.393 10.595a.31.31 0 0 0-.337-.281l-.02.002a.31.31 0 0 0-.28.337l1.605 17.646a.31.31 0 0 0 .337.281l.02-.002a.31.31 0 0 0 .28-.337l-1.605-17.646" vector-effect="non-scaling-stroke"/><path stroke="#868686" d="M919.65 704.92q1.24-3.61.95-7.23a1.57 1.54-33.7 0 1 .18-.87q.34-.65.49-1.71 2.66-18.06 3.68-38.36 1.46-28.99-1.12-72.84-.04-.77-.35-1.87a.1.1 0 0 0-.2.03q.11 9.16.49 13.79c.81 9.68.83 15.19 1.13 25.52.36 11.93-.22 23.9-.48 35.89-.08 3.53-.96 7.33-.9 10.9.06 3.13-.74 6.49-.83 9.31q-.12 3.9-.61 7-.73 4.58-1.3 11.96a.2.17-40.3 0 1-.01.06l-1.49 8.33a.19.19 0 0 0 .37.09" vector-effect="non-scaling-stroke"/><path stroke="#363635" d="M917.94 710.22c-1.13 6.55-2.86 12.89-5.14 19.94a.27.26-73.5 0 0 .18.34l.36.09a.19.19 0 0 0 .23-.13l5.35-20.34a.07.05 20.3 0 0-.03-.05l-.4-.22a.46.45-78.7 0 0-.55.37" vector-effect="non-scaling-stroke"/><path stroke="#242424" d="m881.58 772.99-.74.48a.33.33 0 0 0 .27.6q.44-.12.89-.56a.34.33 6.3 0 0-.42-.52" vector-effect="non-scaling-stroke"/><path stroke="#484848" d="M364.31 375.13c-5.94 8.79-3.67 18.42 1 27.29 5.6 10.64 18.04 18.37 29.31 21.72 7.64 2.27 16.69 2.65 24.88 2.63q78.06-.26 185.5-.11c17.98.03 34.4-3.66 47.28-16.51q7.18-7.17 9.36-14.73 2.21-7.67 1.04-13.81-.53-2.82-2.88-6.37" vector-effect="non-scaling-stroke"/><path stroke="#242424" d="M659.8 375.24q1.24-6.82 2.79-13.85c4.18-18.96 7.91-38.02 11.74-56.93 1.78-8.8 3.55-19.17 5.07-28.71q.97-6.12-.45-9.21-5.38-11.75-17.81-13.4-16.37-2.17-49.81-4.71c-4.78-.36-11.15-.18-16.27-.81q-3.43-.43-11.39-.59-2.25-.04-11.42-.5-10.74-.54-28.25-.97-6.61-.15-11.76-.26-20.4-.44-39.24-.22c-7.86.09-15.07.8-21.68.8q-9.76 0-22.71.88c-6.32.43-12.86.15-18.43.83-4.4.54-9.02.21-13.74.76q-4.23.5-10.28.76-5.89.26-14.16 1.06c-9.73.94-19.47 1.57-29.18 2.96q-4.44.64-8.67 2.79c-7.86 4-10.69 12.97-9.3 21.21q2.24 13.26 7.81 40.6 5.85 28.77 11.65 57.4" vector-effect="non-scaling-stroke"/><path stroke="#363635" d="M659.8 375.24q-7.51 28.32-34.31 37.72c-3.01 1.05-5.74 1.06-8.68 1.66q-2.24.45-6.65.45-106.97-.11-191.49-.01-13.17.01-18.18-1.23c-15.99-3.97-29.09-15.78-34.2-31.57q-1.11-3.45-1.98-7.13" vector-effect="non-scaling-stroke"/><path stroke="#242424" d="M356.62 446.4q-6.4.91-10.26 4.2c-3.57 3.05-7.75 6.08-10.64 9.37q-14.45 16.43-14.14 38.37.09 6.72.1 6.81.3 3.45 1.85 6.5" vector-effect="non-scaling-stroke"/><path stroke="#484848" d="M323.53 511.65q6.17 21.86 24.84 33.22c17.93 10.91 40.89 10.68 58.35-1.2 37.83-25.76 28.97-83.18-13.46-97.74q-17.55-6.03-36.64.47" vector-effect="non-scaling-stroke"/><path stroke="#363635" d="M323.53 511.65c-6.83-27.7 7-54.32 33.09-65.25" vector-effect="non-scaling-stroke"/><path stroke="#484848" d="M634.602 444.8a54.65 54.51-103.5 0 0-40.246 65.865 54.65 54.51-103.5 0 0 65.762 40.415 54.65 54.51-103.5 0 0 40.246-65.865 54.65 54.51-103.5 0 0-65.762-40.415" vector-effect="non-scaling-stroke"/><path stroke="#242424" d="M522.43 499.35a.48.48 0 0 1-.36-.74l1.69-2.59a.95.9-29.3 0 0 .14-.45c.21-6.35-.68-13.67-7.7-14.77q-5-.78-8.01 1.65c-4.21 3.41-3.59 10.55-3.28 16a1.16 1.15-2.1 0 1-1.14 1.22c-5.65.06-15.63 1.22-13.73 9.37a1.92 1.85 14.6 0 0 .6.98c4.09 3.52 8.18 4.12 14.11 5.29 8.19 1.62 18.95-1.07 26.06-4.04q5.03-2.11 2.8-7.49a2.03 1.98-79.8 0 0-.46-.68c-2.61-2.55-7.17-3.43-10.72-3.75" vector-effect="non-scaling-stroke"/><path stroke="#484848" d="M529.171 550.834a4.85 4.85 0 0 0-4.833-4.867l-26.74-.094a4.85 4.85 0 0 0-4.867 4.833l-.002.74a4.85 4.85 0 0 0 4.833 4.867l26.74.094a4.85 4.85 0 0 0 4.867-4.833l.002-.74" vector-effect="non-scaling-stroke"/><path stroke="#242424" d="M806.71 780.65q1.11-1.88.2-4.26-.7-1.85-.71-1.88-7.53-24.36-15.42-44.06-.43-1.09-.81-2.09-7.86-20.81-11.53-29.58-3.27-7.82-6.42-15.58-10.24-25.27-24.3-49.18-.33-.57-.92.2" vector-effect="non-scaling-stroke"/><path stroke="#868686" d="M672.7 259.57c-4.73-4.3-10.49-5.28-16.65-5.87q-31.2-3.03-40.9-3.49c-7.58-.36-14.02-1.18-20.57-1.28-6.43-.1-12.28-.94-18.79-.9q-1.22.01-19.04-.71-29.22-1.19-83.75-.28-.03 0-19 .77-6.51.26-33.75 1.68-5.62.29-49.58 3.82-6.86.55-12.46 2.17c-12.07 3.47-13.53 14.76-11.48 25.53q7.7 40.42 17.54 87.22.89 4.22 2.47 10.77c4.13 17.05 17.84 29.7 34.42 33.53q4.43 1.03 24.28 1.02 142.7-.05 184.32-.06 8.84 0 13.27-1.24 19.53-5.46 29.68-22.56c3.06-5.15 4.99-12.11 6.13-17.38q7.89-36.48 15.74-76.76 2.39-12.25 3.51-20.22 1.35-9.61-5.39-15.76m48.958 28.73a10.88 10.88 0 0 0-9-12.48l-1.126-.183a10.88 10.88 0 0 0-12.48 9l-3.69 22.784a10.88 10.88 0 0 0 9 12.48l1.126.182a10.88 10.88 0 0 0 12.48-9l3.69-22.784m46.625 6.295a30.69 30.09-98.2 0 0-25.405 34.668 30.69 30.09-98.2 0 0 34.16 26.084 30.69 30.09-98.2 0 0 25.404-34.668 30.69 30.09-98.2 0 0-34.16-26.084m-54.762 62.122a30.17 29.78-88.9 0 0-30.355 29.592 30.17 29.78-88.9 0 0 29.196 30.736 30.17 29.78-88.9 0 0 30.354-29.592 30.17 29.78-88.9 0 0-29.196-30.736M863.21 386.83a30.18 30.18 0 0 0-30.18-30.18 30.18 30.18 0 0 0-30.18 30.18 30.18 30.18 0 0 0 30.18 30.18 30.18 30.18 0 0 0 30.18-30.18m-60.24 61.84a30.07 30.07 0 0 0-30.07-30.07 30.07 30.07 0 0 0-30.07 30.07 30.07 30.07 0 0 0 30.07 30.07 30.07 30.07 0 0 0 30.07-30.07M304.03 300.01c1.4 7.6 2.68 19.49 12.77 20.23 8.92.65 12.74-6 11.56-14q-.59-3.97-1.78-10.4-1.19-6.44-2.06-10.36c-1.76-7.89-7.7-12.73-15.8-8.93-9.16 4.3-6.1 15.85-4.69 23.46m-66.42 68.49c7.06 6.74 11.83 10.47 20.56 3.42 9.13-7.37 16.07-15.95 16.85-27.95.69-10.6.86-21.97-9.31-28.15-3.2-1.94-7.28-2.03-11.21-2.06-11.71-.08-28.74-.51-29.92 15.48q-.59 7.99.43 16.74c1.11 9.61 5.94 16.15 12.6 22.52m-52.88 40.82c3.47 3.38 8.75 3.33 13.28 3.19 10.16-.32 19.57-1.53 27.59-7.64q1.78-1.35 7.56-8.02c2.62-3.02 7.15-8.55 5.76-12.79q-1.09-3.33-3.59-6.76c-5.88-8.09-12.97-15.11-23.14-16.43q-8.44-1.11-15.67-.86c-7.05.24-12.92 1.99-15.62 8.9-2.33 5.98-2.32 13.22-2.2 19.32.15 7.95.74 15.93 6.03 21.09m77.46-24.92c-.67 4.15 3.01 8.58 5.65 11.66 4.51 5.26 9.99 11.39 15.85 13.29q12.05 3.91 24.72 2.82c7.37-.63 10.86-6.24 12.17-12.8q2.74-13.75-.47-28.25-2.13-9.64-12.5-10.75-6.99-.75-14.82.12c-5.34.59-8.99.9-12.72 3.1-6.94 4.08-16.56 12.5-17.88 20.81m-11.42 72.22c14.33-.16 25.07-1.67 25.45-19.02.18-8.62-.9-17.81-5.6-24.83-3.96-5.92-12.95-16.26-20.52-16.18-7.56.09-16.32 10.63-20.15 16.63-4.54 7.13-5.42 16.34-5.04 24.96.76 17.33 11.53 18.6 25.86 18.44" vector-effect="non-scaling-stroke"/><path stroke="#868686" d="M321.112 284.912a7.7 7.7 0 0 0-8.985-6.153l-.649.122a7.7 7.7 0 0 0-6.152 8.985l4.282 22.882a7.7 7.7 0 0 0 8.985 6.153l.649-.122a7.7 7.7 0 0 0 6.152-8.985l-4.282-22.882m397.235 2.998a7.77 7.77 0 0 0-6.412-8.923l-.671-.11a7.77 7.77 0 0 0-8.923 6.412l-3.688 22.52a7.77 7.77 0 0 0 6.412 8.924l.671.11a7.77 7.77 0 0 0 8.923-6.412l3.688-22.52m50.841 9.855a27.38 26.76-97.2 0 0-23.117 30.518 27.38 26.76-97.2 0 0 29.98 23.81 27.38 26.76-97.2 0 0 23.118-30.518 27.38 26.76-97.2 0 0-29.98-23.81" vector-effect="non-scaling-stroke"/><path stroke="#868686" d="M754.87 335.33a1.51 1.51 0 0 0 1.31 2.24l32 .17a1.51 1.51 0 0 0 1.34-2.23l-15.85-29.4a1.51 1.51 0 0 0-2.65-.01l-16.15 29.23" vector-effect="non-scaling-stroke"/><path stroke="#868686" d="M772.22 334.3q4.39.01 12.31 0a.29.29 0 0 0 .25-.43q-6.7-11.58-12.34-22.95-.07-.16-.16-.16-.08 0-.16.16-5.69 11.34-12.45 22.89a.29.29 0 0 0 .25.43q7.92.05 12.3.06m-527.38 36.1c3.19 2.4 5.85 2.58 9.13.32q7.4-5.11 13.83-14.18 1.69-2.4 2.61-6.31 2.54-10.77.96-20.6-.95-5.95-6.26-10.11-2.65-2.07-8.51-2.37c-8.93-.47-22.3-1.06-27.25 7.23q-1.2 2.01-1.37 6.04-.39 9.24.64 16.51c1.37 9.74 8.62 17.73 16.22 23.47m468.81-10.32a26.87 26.37-88.4 0 0-27.11 26.124 26.87 26.37-88.4 0 0 25.61 27.596 26.87 26.37-88.4 0 0 27.11-26.124 26.87 26.37-88.4 0 0-25.61-27.596m146.24 26.76A26.89 26.89 0 0 0 833 359.95a26.89 26.89 0 0 0-26.89 26.89A26.89 26.89 0 0 0 833 413.73a26.89 26.89 0 0 0 26.89-26.89m-624.93 1.7c.97-1.55 1.02-3.88.03-5.52q-2.5-4.19-7.41-9.84c-8.35-9.58-18.23-9.6-29.98-9.61-8.39-.01-13.61 2.49-14.77 11.05-1.17 8.63-2.64 28.31 5.9 33.41q1.6.96 5.5 1.03 10.45.19 19.5-2.09c9.12-2.29 16.36-10.66 21.23-18.43m30.74-3.01c.82 5.92 9.65 14.06 14.55 18 5.96 4.78 17.3 5.59 25.13 5.54 8.87-.06 11.18-5.75 12.21-13.7q1.32-10.23.29-18.14c-1.04-8.1-3.19-13.18-11.88-13.63q-6.94-.35-16.01.61-7.58.81-14.05 6.44c-3.81 3.31-10.81 10.69-10.24 14.88" vector-effect="non-scaling-stroke"/><path stroke="#868686" d="M729 374.18a2.98 2.98 0 0 0-2.98-2.98H700.9a2.98 2.98 0 0 0-2.98 2.98v25.1a2.98 2.98 0 0 0 2.98 2.98h25.12a2.98 2.98 0 0 0 2.98-2.98v-25.1m101.007-5.026a17.7 17.5-99.9 0 0-14.196 20.445 17.7 17.5-99.9 0 0 20.282 14.427 17.7 17.5-99.9 0 0 14.196-20.445 17.7 17.5-99.9 0 0-20.282-14.427" vector-effect="non-scaling-stroke"/><path stroke="#868686" d="M833.467 372.246a14.38 14.08-88.3 0 0-14.5 13.956 14.38 14.08-88.3 0 0 13.646 14.792 14.38 14.08-88.3 0 0 14.5-13.956 14.38 14.08-88.3 0 0-13.646-14.792m-107.927 3.123a.67.67 0 0 0-.671-.669l-22.94.04a.67.67 0 0 0-.669.671l.04 22.94a.67.67 0 0 0 .671.669l22.94-.04a.67.67 0 0 0 .669-.671l-.04-22.94M250.69 453.35c11.21-.1 21.8-.93 22.01-15.11.16-10.4-.88-19.92-7.9-27.76-2.96-3.32-9.79-10.53-14.57-10.49-4.77.04-11.47 7.37-14.38 10.73-6.88 7.97-7.76 17.5-7.43 27.9.46 14.18 11.06 14.83 22.27 14.73m548.86-4.67A26.68 26.68 0 0 0 772.87 422a26.68 26.68 0 0 0-26.68 26.68 26.68 26.68 0 0 0 26.68 26.68 26.68 26.68 0 0 0 26.68-26.68" vector-effect="non-scaling-stroke"/><path stroke="#868686" d="M760.15 461.62a.81.81 0 0 0 .91-.16l10.91-10.91a.81.81 0 0 1 1.14 0l10.34 10.34a.81.81 0 0 0 .8.21l2.15-.63a.81.81 0 0 0 .35-1.35l-11.11-11.11a.81.81 0 0 1 0-1.14l11.24-11.24a.81.81 0 0 0-.36-1.36l-2.15-.56a.81.81 0 0 0-.78.21l-10.5 10.51a.81.81 0 0 1-1.14 0l-10.28-10.28a.81.81 0 0 0-.8-.2l-2.08.61a.81.81 0 0 0-.34 1.35l10.99 10.99a.81.81 0 0 1 0 1.14l-11.41 11.41a.81.81 0 0 0 .24 1.31l1.88.86" vector-effect="non-scaling-stroke"/><path stroke="#484848" d="M380.192 454.155a44.24 44.07-85.2 0 0-47.617 40.397 44.24 44.07-85.2 0 0 40.213 47.773 44.24 44.07-85.2 0 0 47.617-40.397 44.24 44.07-85.2 0 0-40.213-47.773M691.61 498.08a44.16 44.16 0 0 0-44.16-44.16 44.16 44.16 0 0 0-44.16 44.16 44.16 44.16 0 0 0 44.16 44.16 44.16 44.16 0 0 0 44.16-44.16" vector-effect="non-scaling-stroke"/><path stroke="#484848" d="M361.022 469.788a32.33 31.64-118.2 0 0-12.606 43.443 32.33 31.64-118.2 0 0 43.162 13.542 32.33 31.64-118.2 0 0 12.606-43.445 32.33 31.64-118.2 0 0-43.162-13.54M679.28 498.02a32.09 32.09 0 0 0-32.09-32.09 32.09 32.09 0 0 0-32.09 32.09 32.09 32.09 0 0 0 32.09 32.09 32.09 32.09 0 0 0 32.09-32.09" vector-effect="non-scaling-stroke"/><path stroke="#868686" d="M505.36 500.76q-.65-.05-7.11.71c-2.48.3-6.88 1.66-7.27 4.48-.31 2.34.45 4 2.72 4.95 7.91 3.34 15.85 4.36 24.28 2.82 3.8-.69 19.27-3.03 14.13-10a2.28 2.24-2.7 0 0-.66-.59c-5.04-2.9-12.68-1.95-16.69-2.27a1.84 1.83 2.2 0 1-1.7-1.83v-8.84a1.19 1.19 0 0 1 1.19-1.19h.35a1.26 1.25-90 0 1 1.25 1.26v5.28a2.41 2.41 0 0 0 2.41 2.41h1.18a2.85 2.85 0 0 0 2.84-2.6c.51-5.74.17-12.43-6.73-13.34-8.12-1.07-9.72 5.24-9.59 11.75q.12 6.37.11 6.46a.67.66 7.7 0 1-.71.54" vector-effect="non-scaling-stroke"/><path stroke="#868686" d="m513.87 506.55.06 1.74a.67.67 0 0 0 .7.64l3.13-.11a7.43 1.34-2 0 0 7.38-1.6l-.01-.4a7.43 1.34-2 0 0-7.47-1.08l-3.14.11a.67.67 0 0 0-.65.7m-7.801.958a1.24 1.24 0 0 0-1.187-1.29l-5.555-.233a1.24 1.24 0 0 0-1.291 1.187l-.005.1a1.24 1.24 0 0 0 1.187 1.29l5.555.233a1.24 1.24 0 0 0 1.291-1.187l.005-.1" vector-effect="non-scaling-stroke"/></g><path fill="#121111" d="M485.72 238.5q21.66.73 43.33.03l28.98.71q3.76 1.13 7.7.22l16.71.64q4.24 1.07 8.63.51c5.86.35 11.5.5 17.56 1.09 4.52.44 9.18.25 14.52.76q14.97 1.42 19.03 1.57c3.74.14 6.35.82 10.31 1.11q6.1.44 20.24 2.99 12.45 2.24 24.82 5.01-.03.88-1.33.88-2.13 0-6.53-1.22-4.5-1.25-20.94-4.24-8.84-1.61-25.43-2.89l-17.62-1.42q-14.1-1.15-17.65-1.14c-6.28.01-11.93-1.17-18.16-1.11-5.95.05-12.75-1.09-18.53-1.08-13.78.02-26.93-.91-39.59-.91H486.6q-17.39 0-31.7.62-18.4.8-31.64 1.77-30.59 2.25-37.25 2.75-20.78 1.54-41.97 5.34c-5.51.99-9.47 2.13-15.22 3.55q-2.82.7-4.2-.14a2.68 2.59 86.6 0 1-.72-.66c-1.55-2.1-3.71-6.73-6.22-9.4-8.16-8.66-21.02-9-32.53-9.29q-6.39-.16-12.64.7-13.74 1.88-22.52 4.07-17.27 4.29-35.37 12.1-9.27 4-15.14 9.66c-3.66 3.53-5.43 8.13-8.48 13.8a.66.55-12.9 0 1-.1.13l-8.3 7.65a3.93 3.82 81.1 0 0-.94 1.33q-1.49 3.51-3.93 6.08a1.34 1.26-13.5 0 0-.25.38L170.81 305a2.49 2.34 77 0 1-.21.36q-3.64 5.25-6.04 12.1a6.72 6.17 71.6 0 1-.47 1.05q-1.81 3.25-2 4.14-.6 2.9-2.05 4.96a3.21 2.74 77.4 0 0-.36.68q-2.95 8.06-6.16 15.59-4.28 10.05-6.07 15.55c-2.6 7.97-6.2 15.55-8.64 23.52q-5.09 16.59-8.73 29.23c-.89 3.07-1.17 5.64-2.32 8.35q-.61 1.44-.74 2.19-.19 1.06-.21 1.37a3.74 3.41-36.7 0 1-.16.83q-3.19 9.62-3.55 12.6-.57 4.69-2.2 7.59a.86.76-30.1 0 0-.09.27l-1.66 9.94a.17.17 0 0 0 .14.19l.29.05a.34.33 12 0 0 .37-.23q2.32-7.36 3.18-12.9.6-3.89 1.98-7.95c1.11-3.29 1.9-8.42 3.44-12.59q.57-1.54 1.24-4.69c1.53-7.16 4.35-14.66 6.36-21.07q2.52-8.07 4.71-13.99c3.32-8.97 5.58-16.67 9.06-25.44q.11-.29 5.62-13.58c.73-1.74 1.25-3.96 2.6-5.77a1.86 1.73 70.8 0 0 .33-.75q.16-.88.27-1.17 1.92-5.01 12.51-28.77 1.92-4.29 3.48-6.96 1.66-2.81 3.78-6.94a3.03 2.68-14.9 0 1 .28-.42q1.6-1.96 2.38-4.51a1.92 1.86 76.1 0 1 .42-.72c6.57-7.1 9.41-10.73 17.62-13.15q34.19-10.1 71.62-16.57 2.79-.48 24.68-3.93 2.46-.39 3.92-.47c3.4-.18 6.64-.85 9.86-.58q10.69.92 18.68 8.45 8.07 7.61 10.77 20.19 3.21 15.01 12.24 59.09 2.07 10.13 3.42 16.05 1.53 6.72 3.84 21.81.83 5.39.46 9.75-1.42 17.12-11.11 31.87-5.53 8.42-12.02 15.06c-2.03 2.08-3.11 4.08-4.8 6.61a4.07 3.91-5.2 0 1-.66.76q-3.24 2.86-6.64 7.38c-1.55 2.07-3.4 3.95-4.7 5.57q-35.51 44.2-61.27 97.74-24.28 50.43-38.39 91.57c-4.66 13.58-14.42 40.94-19.64 57.65q-9.78 31.23-18.88 55.4c-2.63 6.96-8.81 16.78-16.07 19.36q-6.1 2.16-10.5.82c-3.93-1.2-8.5-2.61-12.5-5.24-2.47-1.63-5.58-3.27-8.45-5.75q-3.65-3.16-4.31-4.1-2.48-3.48-5.38-5.8a.38.38 0 0 0-.54.52q3.86 5.4 8.92 9.82 2.67 2.33 5.75 4.2c3.99 2.41 7.05 4.7 10.66 5.96 4.05 1.41 7.47 3.23 11.93 4.63q13.21 4.13 19.36 5.73 7.81 2.04 18.75 3.18 9.44.98 17.95-3.12a.77.77 0 0 0 .43-.83l-1.12-6.56a4.47 4.46 51.9 0 1 .3-2.51c2.83-6.58 4.79-13.8 7.49-20.8q5.95-15.42 11.68-30.46 10.05-26.34 24.3-59.38 5.54-12.83 7.88-17.04c2.95-5.31 5.55-12.07 8.76-17.56q.73-1.25 1.93-.4-6.86 13.79-13.61 27.69-5.08 10.48-23.38 56.28-9.51 23.82-17.19 44.83-2.54 6.96-7.17 20.63a.65.65 0 0 0 1.14.6q3.04-4.08 3.49-4.67 1.65-2.14 3.16-4.9 7.77-14.22 14-29.27 14.71-35.51 26.2-68.28 8.25-23.54 14.5-42.97.09-.29.03-.74l1.26.91a1.22 1.21 27 0 0 1.86-.6q2.33-6.95 5.19-13.26.9-2 2.42-4.13.72-1.03 2.76-3.94 5.6-8.01 15.16-14.82c6.17-4.39 15.22-7.86 22.08-9.12q8.63-1.6 17.38-.28 4.58.69 8.86.89 4.33.2 8.87.93a5.19 4.89 46.7 0 0 1 .06q4.37-.16 7.4.28c5.31.76 9.11.72 15.28.73q163.23.36 251.75.01 10.37-.03 28.96-2.3 7.12-.87 11.13-.95 6.99-.14 11.16.43c21.68 2.95 39.2 18.61 47.99 38.42q2.45 5.53 1.75 9.57-1.29-3.64-2.67-7.21-7.12-18.44-21.85-29.05-12.76-9.19-27-10.65-8.48-.86-20.34 1.08-3.97.65-5.81.71c-4.56.17-7.86.93-12.3.93q-2.66 0-6.52.02-90.4.42-267 .22-7.94-.01-20.93-1.63c-3.81-.47-6.47-.54-10.35-1.09-6.21-.88-12.71-.59-19.26 1.05-20.28 5.08-35.36 19.68-42.07 39.44q-10.66 31.4-17.89 52.12-11.88 34.1-26.05 67.94-6.05 14.46-13.39 28.11c-5.36 9.97-12.51 15.93-24.38 16.06q-9.22.11-16.5-1.53-22.33-5.03-39.78-12.08-18.23-7.36-28.73-24.46-8.63-14.03-12.46-29.21c-3.08-12.21-5.6-24.08-6.96-36.4q-2.13-19.34-2.65-38.82l-.26-18.44q.06-22.55 2.08-51.98.24-3.52.33-4.51 1.74-19.81 5.03-44.17.68-5.03.83-6.24 5.79-44.21 17.86-91.37 15.3-59.78 41.67-118.29 6.18-13.7 13.46-26.51 4.54-7.97 11.18-12.5a5.02 4.98 85.7 0 0 1.69-1.98q1.53-3.23 3.34-6.57c4.46-8.23 12.01-12.99 20.47-16.77 19.38-8.67 39.73-14.75 60.75-16.78q17.77-1.72 31.44 2.1 12.93 3.61 18.03 16.26a1.76 1.75-11.4 0 0 1.66 1.1q1.3-.03 2.35-.28 18.81-4.42 32.47-6.19 8.47-1.11 9.67-1.21 6.48-.53 12.91-1.28 4.84-.57 12.92-1.14 10.63-.75 21.02-1.61 5.37-.44 31.28-1.67 18.61-.88 37.19-1.08m-133.8 112.87q-2.73-12.4-12.78-62.07-1.66-8.23-2.42-11.01-3.96-14.5-16.8-21.6c-9.42-5.21-22.75-2.04-32.85-.58q-40.92 5.94-80.15 16.93-9.92 2.77-11.75 3.69c-7.55 3.79-13.36 12.66-17.4 20.56q-6.12 11.94-12.06 25.42-34.51 78.3-50.21 163.05-7.02 37.89-10.33 72-1.09 11.19-1.8 18.09-.39 3.81-.38 5.32c.01 4.54-.94 8.44-.92 13.34.01 7.12-1.07 14.19-1.07 21.36v35.51q0 4.7.6 9.98.14 1.17.65 10 1.14 19.43 5.42 40.24c5.33 25.91 15.5 52.2 41.93 62.96q4.91 2 8.59 1.97c5.74-.05 11.2-3.53 14.5-7.85q5.21-6.81 8-14.83c15.05-43.35 27.49-83.99 42.63-124.8q17.89-48.19 41.94-94.28 22.16-42.45 51.77-79.74 5.15-6.48 25.3-30.45 5.17-6.15 9.51-15.3c8.83-18.66 4.57-37.6.08-57.91M116.36 470.7q1.4-3.16 2.1-8.64a5.25 4.99 60.7 0 1 .29-1.14q.68-1.84.82-4.6a.21.21 0 0 0-.41-.07l-3.71 14.13a.48.48 0 0 0 .91.32m-1.32 4.34-1.96 8.97a.32.32 0 0 0 .44.36q.49-.21.6-.7.47-2.22 1.16-6.85.12-4.43-.24-1.78m-1.94 10.19q-1.42 5.84-1.35 6.55a.37.37 0 0 0 .71.1q1.44-3.68.93-6.64a.15.15 0 0 0-.29-.01m-1.765 9.748a3.36.46-84.1 0 0-.803 3.295 3.36.46-84.1 0 0 .113 3.39 3.36.46-84.1 0 0 .803-3.296 3.36.46-84.1 0 0-.113-3.39M107.6 521.51a.25.25 0 0 0-.21-.284l-.02-.002a.25.25 0 0 0-.284.21l-1.724 11.674a.25.25 0 0 0 .21.284l.02.002a.25.25 0 0 0 .284-.21zm-2.18 13.713a6.88.33-83.5 0 0-1.107 6.799 6.88.33-83.5 0 0-.45 6.873 6.88.33-83.5 0 0 1.106-6.799 6.88.33-83.5 0 0 .45-6.873M102.89 553q-.13.49-.18 5.53a6.58 6.51-38 0 1-.19 1.48q-.87 3.44-.95 8.75a.34.34 0 0 0 .65.15q.15-.34.34-7.41a4.09 4.02-35 0 1 .22-1.19q.93-2.66.57-7.27a.24.23-39.7 0 0-.46-.04m-1.702 19.212a4.46.28-88.1 0 0-.428 4.449 4.46.28-88.1 0 0 .132 4.467 4.46.28-88.1 0 0 .428-4.449 4.46.28-88.1 0 0-.132-4.466m-.542 11.045a.26.26 0 0 0-.249-.27l-.02-.001a.26.26 0 0 0-.27.249l-.553 13.188a.26.26 0 0 0 .249.27l.02.001a.26.26 0 0 0 .27-.248zm-1.328 15.504a.26.26 0 0 0-.26-.26l-.12-.001a.26.26 0 0 0-.26.26l-.116 66.18a.26.26 0 0 0 .26.26h.12a.26.26 0 0 0 .26-.26zm.715 68.374a.27.27 0 0 0-.29-.249l-.1.008a.27.27 0 0 0-.249.29l1.533 19.921a.27.27 0 0 0 .29.249l.1-.008a.27.27 0 0 0 .249-.29zm1.663 20.584a6.96.42-96.8 0 0 .407 6.96 6.96.42-96.8 0 0 1.241 6.862 6.96.42-96.8 0 0-.407-6.96 6.96.42-96.8 0 0-1.241-6.862m2.802 16.005a.49.49 0 0 0-.56-.407l-.06.009a.49.49 0 0 0-.407.56l1.151 7.27a.49.49 0 0 0 .56.407l.06-.009a.49.49 0 0 0 .407-.56zm1.342 10.046c-.24 1.89.53 3.45.85 5.24q1.15 6.58 4.58 15.06a5.07 4.98-62.9 0 1 .29.93q1.07 4.86 2.57 7.37 2.69 4.49 6.83 11.55a.26.26 0 0 0 .35.09l.07-.04a.26.25-30.8 0 0 .09-.34q-4.58-7.82-8.15-16.24-1.36-3.21-2.94-8.56-1.5-5.05-2.79-8.6a3.63 3.48-56.3 0 1-.2-1.12q-.03-2.43-1.24-5.38a.16.16 0 0 0-.31.04m15.93 41.11q.19.53.33.64a.26.26 0 0 0 .42-.16q.08-.42-.49-.71a.19.19 0 0 0-.26.23"/><path fill="#121111" d="m792.56 769.18 1.43 1.03a1.08 1.04 14.6 0 1 .44.72q.11.7.41.87a1.45.71 18.5 0 1 .64.63q.16.41 3.29 6.23.25.47.55.58.4.15.35.64-.06.54.36 1.13 4.14 5.87 9.85 7.88 8.73 3.08 18.66 1.64 17.33-2.5 35.98-9.02 7.19-2.51 8.84-3.66a.25.15-58.3 0 1 .08-.04l6-2.23a.57.56-10.5 0 0 .37-.53v-.39a.41.41 0 0 0-.6-.37q-6.92 3.52-14.41 3.26-7.3-.24-12.5-5.82-2.97-3.19-3.37-3.82-5.53-8.52-8.76-18.27-18.6-56.13-30.03-90.01-20-59.31-48.04-114.93c-14.95-29.65-30.69-54.71-49.43-80.37q-9.79-13.41-26.81-33.23-.75-.88-3.02-3.8c-2.4-3.08-5.12-6.36-7.34-9.87q-5.68-9.02-8.5-20.6-1.13-4.64-1.13-10.65.01-9.07.34-10.74 1.64-8.38 17.95-90.06c1.91-9.59 4.86-18.27 11.99-25.19q1.25-1.21 2.28-1.76c2.25-1.19 3.67-2.62 6.28-3.58q8.04-2.95 13.46-2.4 49.33 5.08 104.56 20.81c4.29 1.22 8.06 3.05 11.34 5.44a.47.47 0 0 0 .65-.65q-3.05-4.29-5.15-9.14c-3.83-8.8-13.97-14.84-22.98-18.46q-9.97-4.01-17.18-6.55-13.1-4.61-31.45-7.77-8.24-1.42-15.01-1.52-11.78-.18-15.09.07-5.3.4-12.47 2.5-6.36 1.87-10.56 7.27-.27.35-2.72 4.45-1.35 2.25-3.31 4.05c2.05-7.17 8.15-14.53 15.28-16.86q10.61-3.45 22.69-3.19 10.61.23 13.51 1.02.39.11 1.55.03a3.77 3.68 45.7 0 1 .86.02q31.52 4.28 60.67 18.2 9.38 4.47 15.4 12.58 1.71 2.31 4.25 8.54a2.34 2.2-81.5 0 0 .59.85q2.36 2.13 5.39 5.1c5.43 5.32 9.23 12.24 13.81 20.69 3.28 6.06 6.72 13.96 11.26 24.33q23.75 54.2 39.22 114.44.94 3.69 5.43 23.49 2.87 12.67 4.76 23.64 6.4 37.11 8.91 58.74 1.98 17.05 2.53 25.69.34 5.37.48 6.17c.78 4.28.42 9.14.84 13q.48 4.45.57 6.82 1.14 28.47.91 44.75-.25 18.3-2.79 44.31-.19 1.91-.71 4.22c-.4 1.77-.24 3.51-.58 5.7q-3.04 19.48-8.41 36.23-4.11 12.8-11.29 23.99-6.14 9.57-15.25 16.35-7.24 5.39-20.11 9.78-12.66 4.31-23.41 7.18c-4.43 1.18-7.6 1.57-13.54 2.66-4.33.8-10.05.77-13.6.64q-11.87-.44-17.99-9.15c-2.54-3.63-5.5-9.03-7.47-13.73m59.41-459.69c-6.04-12.83-13.57-29.05-26.33-33.64q-9.01-3.24-22.37-6.61-41.66-10.53-79.79-14.97c-9.6-1.12-17.7-.01-25.45 6.28-7.88 6.38-10.64 14.94-12.56 24.71q-7.67 39.04-16.77 84.21-6.25 31.01 13.16 54.69 1.39 1.7 17.69 21.54 31.54 38.41 55.85 83.87 30.75 57.5 51.41 116.63 13.18 37.75 31.57 94.17 3.98 12.23 7.3 19.52c6.32 13.89 17.28 20.82 32.22 13.01q17.03-8.92 25.63-26.14 5.34-10.71 7.7-18.56 7.33-24.37 9.61-50.97 1.53-17.88 2.03-32.24.23-6.5.08-28.31c-.04-5.5-.9-10.23-.89-15.22q0-5.17-.46-11.41-1.1-14.74-1.7-21.55-2.92-33.22-9.15-70-9.9-58.42-27.64-110.92-14.28-42.24-31.14-78.09m-17.15-30.67a.57.42-142.2 0 0 .193.682.57.42-142.2 0 0 .707.017.57.42-142.2 0 0-.193-.68.57.42-142.2 0 0-.707-.018m1.62 1.43a.19.19 0 0 0-.19-.19.19.19 0 0 0-.19.19.19.19 0 0 0 .19.19.19.19 0 0 0 .19-.19m1.16.88a.42.42 0 0 0-.42-.42.42.42 0 0 0-.42.42.42.42 0 0 0 .42.42.42.42 0 0 0 .42-.42m18.651 32.07a1.59.3-113.3 0 0 .354 1.579 1.59.3-113.3 0 0 .904 1.341 1.59.3-113.3 0 0-.354-1.579 1.59.3-113.3 0 0-.904-1.341m2.026 4.439a4.28.32-113.3 0 0 1.4 4.058 4.28.32-113.3 0 0 1.986 3.804 4.28.32-113.3 0 0-1.4-4.058 4.28.32-113.3 0 0-1.986-3.804m3.748 8.757a4.24.32-114.3 0 0 1.453 3.996 4.24.32-114.3 0 0 2.037 3.732 4.24.32-114.3 0 0-1.453-3.996 4.24.32-114.3 0 0-2.037-3.732m5.715 12.814q.05-.42-1.48-3.24a.09.09 0 0 0-.16.07l1.09 3.24a.28.28 0 0 0 .55-.07m.175 1.011a1.81.27-113.6 0 0 .478 1.767 1.81.27-113.6 0 0 .972 1.55 1.81.27-113.6 0 0-.478-1.766 1.81.27-113.6 0 0-.972-1.55m8.145 20.959q-.02.53.35 1.19a.17.17 0 0 0 .31-.11q-.04-.26-.38-1.13a.15.14-55 0 0-.28.05m6.75 17.11q.02-.25-.24-.8a.27.27 0 0 0-.51.07q-.04.22.26.83a.26.26 0 0 0 .49-.1m1.1 4.92q.58 1.76 1.34 3.63a.17.16-36.5 0 0 .28.04q.11-.14.05-.37-.48-1.81-1.04-3.51-.57-1.76-1.33-3.64a.17.16-36.5 0 0-.28-.04q-.11.14-.05.38.48 1.81 1.03 3.51M888 394.6q.18 3.01.8 2.21a.3.29-34 0 0 .05-.24l-.59-2.01a.13.13 0 0 0-.26.04m.849 2.633a1.25.31-106.8 0 0 .064 1.287 1.25.31-106.8 0 0 .658 1.107 1.25.31-106.8 0 0-.064-1.287 1.25.31-106.8 0 0-.658-1.107m1.041 3.957a.2.2 0 0 0-.13.24l6.47 22.12a.3.3 0 0 0 .58-.03q.27-1.32-.4-2.66-.89-1.77-2.54-8.73-.2-.85-.55-1.19c-.78-.74-.34-2.07-.73-3.16q-.95-2.64-1.95-6.41a.37.36 74 0 0-.46-.26zm9.24 32.87q.48 1.81.96 3.69 1.22 4.8 1.23 4.83a.32.31-51.3 0 0 .6-.07c.17-.85-.8-2.19-.94-3.3q-.31-2.32-1.12-5.35-.8-3.02-1.69-5.19c-.42-1.03-.25-2.68-.82-3.33a.32.31 21.5 0 0-.55.24q0 .03 1.33 4.81.52 1.86 1 3.67m2.827 9.367a2.01.49-101 0 0-.098 2.066 2.01.49-101 0 0 .864 1.88 2.01.49-101 0 0 .098-2.066 2.01.49-101 0 0-.865-1.88m2.753 12.313q.38-.09.18-.99-1.22-5.5-1.59-5.42-.38.08.83 5.59.2.9.58.82m.19.463a1.37.36-104.4 0 0-.009 1.417 1.37.36-104.4 0 0 .69 1.237 1.37.36-104.4 0 0 .008-1.417 1.37.36-104.4 0 0-.69-1.237m.98 4.167q-.03-1.03-.08-1.12a.24.24 0 0 0-.46.07q-.14.89.07 1.2a.26.26 0 0 0 .47-.15m1.17 7.73q.56 3.38 1.55 6.69a.17.17 0 0 0 .33-.04q.05-2.28-.93-4.74a2.39 2.2 34.9 0 1-.17-.76q-.02-.42-.16-1.24-.54-3.38-1.54-6.7a.17.17 0 0 0-.33.05q-.05 2.28.93 4.74a2.39 2.2 34.9 0 1 .17.76q.02.42.15 1.24m2.283 9.076a1.75.35-97.8 0 0-.11 1.781 1.75.35-97.8 0 0 .585 1.687 1.75.35-97.8 0 0 .109-1.781 1.75.35-97.8 0 0-.585-1.687m.85 4.673a1.88.36-95.7 0 0-.171 1.907 1.88.36-95.7 0 0 .545 1.835 1.88.36-95.7 0 0 .171-1.907 1.88.36-95.7 0 0-.545-1.835m1.968 10.369a1.66.28-95.5 0 0-.12 1.679 1.66.28-95.5 0 0 .438 1.625 1.66.28-95.5 0 0 .12-1.679 1.66.28-95.5 0 0-.438-1.625m1.059 8.372q.01.54.13.77a.26.26 0 0 0 .48-.14q-.04-.43-.21-.74a.21.21 0 0 0-.4.11m.779 2.776a3.28.45-97.2 0 0-.036 3.31 3.28.45-97.2 0 0 .858 3.198 3.28.45-97.2 0 0 .035-3.31 3.28.45-97.2 0 0-.857-3.198m1.255 7.756a2.3.28-95.9 0 0-.043 2.317 2.3.28-95.9 0 0 .515 2.259 2.3.28-95.9 0 0 .043-2.317 2.3.28-95.9 0 0-.515-2.259m4.23 29.83a1.16.18-93.3 0 0-.114 1.168 1.16.18-93.3 0 0 .247 1.148 1.16.18-93.3 0 0 .113-1.168 1.16.18-93.3 0 0-.247-1.148m.315 3.203a2.69.3-96 0 0-.017 2.706 2.69.3-96 0 0 .58 2.644 2.69.3-96 0 0 .016-2.706 2.69.3-96 0 0-.58-2.644m.731 6.075q.01-.06-.07-.28a.08.08 0 0 0-.14-.01q-.08.15-.06.29a.14.14 0 0 0 .27 0m-.037 1.343a1.08.15-94.6 0 0-.062 1.089 1.08.15-94.6 0 0 .236 1.064 1.08.15-94.6 0 0 .063-1.088 1.08.15-94.6 0 0-.237-1.065m1.393 10.595a.31.31 0 0 0-.337-.281l-.02.002a.31.31 0 0 0-.28.337l1.605 17.646a.31.31 0 0 0 .337.281l.02-.002a.31.31 0 0 0 .28-.337zM919.65 704.92q1.24-3.61.95-7.23a1.57 1.54-33.7 0 1 .18-.87q.34-.65.49-1.71 2.66-18.06 3.68-38.36 1.46-28.99-1.12-72.84-.04-.77-.35-1.87a.1.1 0 0 0-.2.03q.11 9.16.49 13.79c.81 9.68.83 15.19 1.13 25.52.36 11.93-.22 23.9-.48 35.89-.08 3.53-.96 7.33-.9 10.9.06 3.13-.74 6.49-.83 9.31q-.12 3.9-.61 7-.73 4.58-1.3 11.96a.2.17-40.3 0 1-.01.06l-1.49 8.33a.19.19 0 0 0 .37.09m-1.71 5.3c-1.13 6.55-2.86 12.89-5.14 19.94a.27.26-73.5 0 0 .18.34l.36.09a.19.19 0 0 0 .23-.13l5.35-20.34a.07.05 20.3 0 0-.03-.05l-.4-.22a.46.45-78.7 0 0-.55.37m-36.36 62.77-.74.48a.33.33 0 0 0 .27.6q.44-.12.89-.56a.34.33 6.3 0 0-.42-.52"/><path fill="#363636" d="m697.55 253.14 1.25-.19q1.96-1.8 3.31-4.05 2.45-4.1 2.72-4.45 4.2-5.4 10.56-7.27 7.17-2.1 12.47-2.5 3.31-.25 15.09-.07 6.77.1 15.01 1.52 18.35 3.16 31.45 7.77 7.21 2.54 17.18 6.55c9.01 3.62 19.15 9.66 22.98 18.46q2.1 4.85 5.15 9.14a.47.47 0 0 1-.65.65c-3.28-2.39-7.05-4.22-11.34-5.44q-55.23-15.73-104.56-20.81-5.42-.55-13.46 2.4c-2.61.96-4.03 2.39-6.28 3.58q-1.03.55-2.28 1.76c-7.13 6.92-10.08 15.6-11.99 25.19q-16.31 81.68-17.95 90.06-.33 1.67-.34 10.74 0 6.01 1.13 10.65 2.82 11.58 8.5 20.6c2.22 3.51 4.94 6.79 7.34 9.87q2.27 2.92 3.02 3.8 17.02 19.82 26.81 33.23c18.74 25.66 34.48 50.72 49.43 80.37q28.04 55.62 48.04 114.93 11.43 33.88 30.03 90.01 3.23 9.75 8.76 18.27.4.63 3.37 3.82 5.2 5.58 12.5 5.82 7.49.26 14.41-3.26a.41.41 0 0 1 .6.37v.39a.57.56-10.5 0 1-.37.53l-6 2.23a.25.15-58.3 0 0-.08.04q-1.65 1.15-8.84 3.66-18.65 6.52-35.98 9.02-9.93 1.44-18.66-1.64-5.71-2.01-9.85-7.88-.42-.59-.36-1.13.05-.49-.35-.64-.3-.11-.55-.58-3.13-5.82-3.29-6.23a1.45.71 18.5 0 0-.64-.63q-.3-.17-.41-.87a1.08 1.04 14.6 0 0-.44-.72l-1.43-1.03q-4.31-8.31-7.94-17.01-24.25-58.13-43.38-118.11.7-4.04-1.75-9.57c-8.79-19.81-26.31-35.47-47.99-38.42q-4.17-.57-11.16-.43-4.01.08-11.13.95-18.59 2.27-28.96 2.3-88.52.35-251.75-.01c-6.17-.01-9.97.03-15.28-.73q-3.03-.44-7.4-.28a5.19 4.89 46.7 0 1-1-.06q-4.54-.73-8.87-.93-4.28-.2-8.86-.89-8.75-1.32-17.38.28c-6.86 1.26-15.91 4.73-22.08 9.12q-9.56 6.81-15.16 14.82-2.04 2.91-2.76 3.94-1.52 2.13-2.42 4.13-2.86 6.31-5.19 13.26a1.22 1.21 27 0 1-1.86.6l-1.26-.91-1.17.8q-1.2-.85-1.93.4c-3.21 5.49-5.81 12.25-8.76 17.56q-2.34 4.21-7.88 17.04-14.25 33.04-24.3 59.38-5.73 15.04-11.68 30.46c-2.7 7-4.66 14.22-7.49 20.8a4.47 4.46 51.9 0 0-.3 2.51l1.12 6.56a.77.77 0 0 1-.43.83q-8.51 4.1-17.95 3.12-10.94-1.14-18.75-3.18-6.15-1.6-19.36-5.73c-4.46-1.4-7.88-3.22-11.93-4.63-3.61-1.26-6.67-3.55-10.66-5.96q-3.08-1.87-5.75-4.2-5.06-4.42-8.92-9.82a.38.38 0 0 1 .54-.52q2.9 2.32 5.38 5.8.66.94 4.31 4.1c2.87 2.48 5.98 4.12 8.45 5.75 4 2.63 8.57 4.04 12.5 5.24q4.4 1.34 10.5-.82c7.26-2.58 13.44-12.4 16.07-19.36q9.1-24.17 18.88-55.4c5.22-16.71 14.98-44.07 19.64-57.65q14.11-41.14 38.39-91.57 25.76-53.54 61.27-97.74c1.3-1.62 3.15-3.5 4.7-5.57q3.4-4.52 6.64-7.38a4.07 3.91-5.2 0 0 .66-.76c1.69-2.53 2.77-4.53 4.8-6.61q6.49-6.64 12.02-15.06 9.69-14.75 11.11-31.87.37-4.36-.46-9.75-2.31-15.09-3.84-21.81-1.35-5.92-3.42-16.05-9.03-44.08-12.24-59.09-2.7-12.58-10.77-20.19-7.99-7.53-18.68-8.45c-3.22-.27-6.46.4-9.86.58q-1.46.08-3.92.47-21.89 3.45-24.68 3.93-37.43 6.47-71.62 16.57c-8.21 2.42-11.05 6.05-17.62 13.15a1.92 1.86 76.1 0 0-.42.72q-.78 2.55-2.38 4.51a3.03 2.68-14.9 0 0-.28.42q-2.12 4.13-3.78 6.94-1.56 2.67-3.48 6.96-10.59 23.76-12.51 28.77-.11.29-.27 1.17a1.86 1.73 70.8 0 1-.33.75c-1.35 1.81-1.87 4.03-2.6 5.77q-5.51 13.29-5.62 13.58c-3.48 8.77-5.74 16.47-9.06 25.44q-2.19 5.92-4.71 13.99c-2.01 6.41-4.83 13.91-6.36 21.07q-.67 3.15-1.24 4.69c-1.54 4.17-2.33 9.3-3.44 12.59q-1.38 4.06-1.98 7.95-.86 5.54-3.18 12.9a.34.33 12 0 1-.37.23l-.29-.05a.17.17 0 0 1-.14-.19l1.66-9.94a.86.76-30.1 0 1 .09-.27q1.63-2.9 2.2-7.59.36-2.98 3.55-12.6a3.74 3.41-36.7 0 0 .16-.83q.02-.31.21-1.37.13-.75.74-2.19c1.15-2.71 1.43-5.28 2.32-8.35q3.64-12.64 8.73-29.23c2.44-7.97 6.04-15.55 8.64-23.52q1.79-5.5 6.07-15.55 3.21-7.53 6.16-15.59a3.21 2.74 77.4 0 1 .36-.68q1.45-2.06 2.05-4.96.19-.89 2-4.14a6.72 6.17 71.6 0 0 .47-1.05q2.4-6.85 6.04-12.1a2.49 2.34 77 0 0 .21-.36l6.67-14.55a1.34 1.26-13.5 0 1 .25-.38q2.44-2.57 3.93-6.08a3.93 3.82 81.1 0 1 .94-1.33l8.3-7.65a.66.55-12.9 0 0 .1-.13c3.05-5.67 4.82-10.27 8.48-13.8q5.87-5.66 15.14-9.66 18.1-7.81 35.37-12.1 8.78-2.19 22.52-4.07 6.25-.86 12.64-.7c11.51.29 24.37.63 32.53 9.29 2.51 2.67 4.67 7.3 6.22 9.4a2.68 2.59 86.6 0 0 .72.66q1.38.84 4.2.14c5.75-1.42 9.71-2.56 15.22-3.55q21.19-3.8 41.97-5.34 6.66-.5 37.25-2.75 13.24-.97 31.64-1.77 14.31-.62 31.7-.62h45.17c12.66 0 25.81.93 39.59.91 5.78-.01 12.58 1.13 18.53 1.08 6.23-.06 11.88 1.12 18.16 1.11q3.55-.01 17.65 1.14l17.62 1.42q16.59 1.28 25.43 2.89 16.44 2.99 20.94 4.24 4.4 1.22 6.53 1.22 1.3 0 1.33-.88M364.31 375.13c-5.94 8.79-3.67 18.42 1 27.29 5.6 10.64 18.04 18.37 29.31 21.72 7.64 2.27 16.69 2.65 24.88 2.63q78.06-.26 185.5-.11c17.98.03 34.4-3.66 47.28-16.51q7.18-7.17 9.36-14.73 2.21-7.67 1.04-13.81-.53-2.82-2.88-6.37 1.24-6.82 2.79-13.85c4.18-18.96 7.91-38.02 11.74-56.93 1.78-8.8 3.55-19.17 5.07-28.71q.97-6.12-.45-9.21-5.38-11.75-17.81-13.4-16.37-2.17-49.81-4.71c-4.78-.36-11.15-.18-16.27-.81q-3.43-.43-11.39-.59-2.25-.04-11.42-.5-10.74-.54-28.25-.97-6.61-.15-11.76-.26-20.4-.44-39.24-.22c-7.86.09-15.07.8-21.68.8q-9.76 0-22.71.88c-6.32.43-12.86.15-18.43.83-4.4.54-9.02.21-13.74.76q-4.23.5-10.28.76-5.89.26-14.16 1.06c-9.73.94-19.47 1.57-29.18 2.96q-4.44.64-8.67 2.79c-7.86 4-10.69 12.97-9.3 21.21q2.24 13.26 7.81 40.6 5.85 28.77 11.65 57.4m-7.69 71.27q-6.4.91-10.26 4.2c-3.57 3.05-7.75 6.08-10.64 9.37q-14.45 16.43-14.14 38.37.09 6.72.1 6.81.3 3.45 1.85 6.5 6.17 21.86 24.84 33.22c17.93 10.91 40.89 10.68 58.35-1.2 37.83-25.76 28.97-83.18-13.46-97.74q-17.55-6.03-36.64.47m277.982-1.6a54.65 54.51-103.5 0 0-40.246 65.865 54.65 54.51-103.5 0 0 65.762 40.415 54.65 54.51-103.5 0 0 40.246-65.865 54.65 54.51-103.5 0 0-65.762-40.415M522.43 499.35a.48.48 0 0 1-.36-.74l1.69-2.59a.95.9-29.3 0 0 .14-.45c.21-6.35-.68-13.67-7.7-14.77q-5-.78-8.01 1.65c-4.21 3.41-3.59 10.55-3.28 16a1.16 1.15-2.1 0 1-1.14 1.22c-5.65.06-15.63 1.22-13.73 9.37a1.92 1.85 14.6 0 0 .6.98c4.09 3.52 8.18 4.12 14.11 5.29 8.19 1.62 18.95-1.07 26.06-4.04q5.03-2.11 2.8-7.49a2.03 1.98-79.8 0 0-.46-.68c-2.61-2.55-7.17-3.43-10.72-3.75m6.741 51.484a4.85 4.85 0 0 0-4.833-4.867l-26.74-.094a4.85 4.85 0 0 0-4.867 4.833l-.002.74a4.85 4.85 0 0 0 4.833 4.867l26.74.094a4.85 4.85 0 0 0 4.867-4.833zM806.71 780.65q1.11-1.88.2-4.26-.7-1.85-.71-1.88-7.53-24.36-15.42-44.06-.43-1.09-.81-2.09-7.86-20.81-11.53-29.58-3.27-7.82-6.42-15.58-10.24-25.27-24.3-49.18-.33-.57-.92.2-.63-1.45-1.67-2.36a.25.25 0 0 0-.4.27q15.39 44.73 23.31 66.1 3 8.09 9.82 25.44 9.31 23.71 19.02 43.74c1.72 3.53 3.56 6.48 5.57 10.37q.93 1.8 4.13 4.86a.33.33 0 0 0 .56-.19q.18-1.26-.43-1.8"/><path fill="#121111" d="m487.46 238.36-1.24.03z"/><path fill="#363636" d="M529.05 238.53q-21.67.7-43.33-.03.23-.16.5-.11l1.24-.03zm36.68.93q-3.94.91-7.7-.22zm25.34 1.15q-4.39.56-8.63-.51z"/><path fill="#121111" d="M659.8 375.24q-7.51 28.32-34.31 37.72c-3.01 1.05-5.74 1.06-8.68 1.66q-2.24.45-6.65.45-106.97-.11-191.49-.01-13.17.01-18.18-1.23c-15.99-3.97-29.09-15.78-34.2-31.57q-1.11-3.45-1.98-7.13-5.8-28.63-11.65-57.4-5.57-27.34-7.81-40.6c-1.39-8.24 1.44-17.21 9.3-21.21q4.23-2.15 8.67-2.79c9.71-1.39 19.45-2.02 29.18-2.96q8.27-.8 14.16-1.06 6.05-.26 10.28-.76c4.72-.55 9.34-.22 13.74-.76 5.57-.68 12.11-.4 18.43-.83q12.95-.88 22.71-.88c6.61 0 13.82-.71 21.68-.8q18.84-.22 39.24.22 5.15.11 11.76.26 17.51.43 28.25.97 9.17.46 11.42.5 7.96.16 11.39.59c5.12.63 11.49.45 16.27.81q33.44 2.54 49.81 4.71 12.43 1.65 17.81 13.4 1.42 3.09.45 9.21c-1.52 9.54-3.29 19.91-5.07 28.71-3.83 18.91-7.56 37.97-11.74 56.93q-1.55 7.03-2.79 13.85m12.9-115.67c-4.73-4.3-10.49-5.28-16.65-5.87q-31.2-3.03-40.9-3.49c-7.58-.36-14.02-1.18-20.57-1.28-6.43-.1-12.28-.94-18.79-.9q-1.22.01-19.04-.71-29.22-1.19-83.75-.28-.03 0-19 .77-6.51.26-33.75 1.68-5.62.29-49.58 3.82-6.86.55-12.46 2.17c-12.07 3.47-13.53 14.76-11.48 25.53q7.7 40.42 17.54 87.22.89 4.22 2.47 10.77c4.13 17.05 17.84 29.7 34.42 33.53q4.43 1.03 24.28 1.02 142.7-.05 184.32-.06 8.84 0 13.27-1.24 19.53-5.46 29.68-22.56c3.06-5.15 4.99-12.11 6.13-17.38q7.89-36.48 15.74-76.76 2.39-12.25 3.51-20.22 1.35-9.61-5.39-15.76"/><path fill="#fafafa" d="M672.7 259.57q6.74 6.15 5.39 15.76-1.12 7.97-3.51 20.22-7.85 40.28-15.74 76.76c-1.14 5.27-3.07 12.23-6.13 17.38q-10.15 17.1-29.68 22.56-4.43 1.24-13.27 1.24-41.62.01-184.32.06-19.85.01-24.28-1.02c-16.58-3.83-30.29-16.48-34.42-33.53q-1.58-6.55-2.47-10.77-9.84-46.8-17.54-87.22c-2.05-10.77-.59-22.06 11.48-25.53q5.6-1.62 12.46-2.17 43.96-3.53 49.58-3.82 27.24-1.42 33.75-1.68 18.97-.77 19-.77 54.53-.91 83.75.28 17.82.72 19.04.71c6.51-.04 12.36.8 18.79.9 6.55.1 12.99.92 20.57 1.28q9.7.46 40.9 3.49c6.16.59 11.92 1.57 16.65 5.87m152.94 16.28c12.76 4.59 20.29 20.81 26.33 33.64q16.86 35.85 31.14 78.09 17.74 52.5 27.64 110.92 6.23 36.78 9.15 70 .6 6.81 1.7 21.55.46 6.24.46 11.41c-.01 4.99.85 9.72.89 15.22q.15 21.81-.08 28.31-.5 14.36-2.03 32.24-2.28 26.6-9.61 50.97-2.36 7.85-7.7 18.56-8.6 17.22-25.63 26.14c-14.94 7.81-25.9.88-32.22-13.01q-3.32-7.29-7.3-19.52-18.39-56.42-31.57-94.17-20.66-59.13-51.41-116.63-24.31-45.46-55.85-83.87-16.3-19.84-17.69-21.54-19.41-23.68-13.16-54.69 9.1-45.17 16.77-84.21c1.92-9.77 4.68-18.33 12.56-24.71 7.75-6.29 15.85-7.4 25.45-6.28q38.13 4.44 79.79 14.97 13.36 3.37 22.37 6.61M721.658 288.3a10.88 10.88 0 0 0-9-12.48l-1.126-.183a10.88 10.88 0 0 0-12.48 9l-3.69 22.784a10.88 10.88 0 0 0 9 12.48l1.126.182a10.88 10.88 0 0 0 12.48-9zm46.625 6.294a30.69 30.09-98.2 0 0-25.405 34.668 30.69 30.09-98.2 0 0 34.16 26.084 30.69 30.09-98.2 0 0 25.404-34.668 30.69 30.09-98.2 0 0-34.16-26.084m-54.764 62.122a30.17 29.78-88.9 0 0-30.354 29.592 30.17 29.78-88.9 0 0 29.196 30.736 30.17 29.78-88.9 0 0 30.354-29.592 30.17 29.78-88.9 0 0-29.196-30.736M863.21 386.83a30.18 30.18 0 0 0-30.18-30.18 30.18 30.18 0 0 0-30.18 30.18 30.18 30.18 0 0 0 30.18 30.18 30.18 30.18 0 0 0 30.18-30.18m-60.24 61.84a30.07 30.07 0 0 0-30.07-30.07 30.07 30.07 0 0 0-30.07 30.07 30.07 30.07 0 0 0 30.07 30.07 30.07 30.07 0 0 0 30.07-30.07m-451.05-97.3c4.49 20.31 8.75 39.25-.08 57.91q-4.34 9.15-9.51 15.3-20.15 23.97-25.3 30.45-29.61 37.29-51.77 79.74-24.05 46.09-41.94 94.28c-15.14 40.81-27.58 81.45-42.63 124.8q-2.79 8.02-8 14.83c-3.3 4.32-8.76 7.8-14.5 7.85q-3.68.03-8.59-1.97c-26.43-10.76-36.6-37.05-41.93-62.96q-4.28-20.81-5.42-40.24-.51-8.83-.65-10-.6-5.28-.6-9.98v-35.51c0-7.17 1.08-14.24 1.07-21.36-.02-4.9.93-8.8.92-13.34q-.01-1.51.38-5.32.71-6.9 1.8-18.09 3.31-34.11 10.33-72 15.7-84.75 50.21-163.05 5.94-13.48 12.06-25.42c4.04-7.9 9.85-16.77 17.4-20.56q1.83-.92 11.75-3.69 39.23-10.99 80.15-16.93c10.1-1.46 23.43-4.63 32.85.58q12.84 7.1 16.8 21.6.76 2.78 2.42 11.01 10.05 49.67 12.78 62.07m-47.89-51.36c1.4 7.6 2.68 19.49 12.77 20.23 8.92.65 12.74-6 11.56-14q-.59-3.97-1.78-10.4-1.19-6.44-2.06-10.36c-1.76-7.89-7.7-12.73-15.8-8.93-9.16 4.3-6.1 15.85-4.69 23.46m-66.42 68.49c7.06 6.74 11.83 10.47 20.56 3.42 9.13-7.37 16.07-15.95 16.85-27.95.69-10.6.86-21.97-9.31-28.15-3.2-1.94-7.28-2.03-11.21-2.06-11.71-.08-28.74-.51-29.92 15.48q-.59 7.99.43 16.74c1.11 9.61 5.94 16.15 12.6 22.52m-52.88 40.82c3.47 3.38 8.75 3.33 13.28 3.19 10.16-.32 19.57-1.53 27.59-7.64q1.78-1.35 7.56-8.02c2.62-3.02 7.15-8.55 5.76-12.79q-1.09-3.33-3.59-6.76c-5.88-8.09-12.97-15.11-23.14-16.43q-8.44-1.11-15.67-.86c-7.05.24-12.92 1.99-15.62 8.9-2.33 5.98-2.32 13.22-2.2 19.32.15 7.95.74 15.93 6.03 21.09m77.46-24.92c-.67 4.15 3.01 8.58 5.65 11.66 4.51 5.26 9.99 11.39 15.85 13.29q12.05 3.91 24.72 2.82c7.37-.63 10.86-6.24 12.17-12.8q2.74-13.75-.47-28.25-2.13-9.64-12.5-10.75-6.99-.75-14.82.12c-5.34.59-8.99.9-12.72 3.1-6.94 4.08-16.56 12.5-17.88 20.81m-11.42 72.22c14.33-.16 25.07-1.67 25.45-19.02.18-8.62-.9-17.81-5.6-24.83-3.96-5.92-12.95-16.26-20.52-16.18-7.56.09-16.32 10.63-20.15 16.63-4.54 7.13-5.42 16.34-5.04 24.96.76 17.33 11.53 18.6 25.86 18.44"/><path fill="#121111" d="M326.58 295.84q1.19 6.43 1.78 10.4c1.18 8-2.64 14.65-11.56 14-10.09-.74-11.37-12.63-12.77-20.23-1.41-7.61-4.47-19.16 4.69-23.46 8.1-3.8 14.04 1.04 15.8 8.93q.87 3.92 2.06 10.36m-5.468-10.928a7.7 7.7 0 0 0-8.985-6.153l-.649.122a7.7 7.7 0 0 0-6.152 8.985l4.282 22.882a7.7 7.7 0 0 0 8.985 6.153l.649-.122a7.7 7.7 0 0 0 6.152-8.985zm396.856 26.17a10.88 10.88 0 0 1-12.48 9l-1.125-.181a10.88 10.88 0 0 1-9-12.48l3.69-22.783a10.88 10.88 0 0 1 12.479-9l1.125.182a10.88 10.88 0 0 1 9 12.48zm.38-23.171a7.77 7.77 0 0 0-6.413-8.924l-.671-.11a7.77 7.77 0 0 0-8.923 6.412l-3.688 22.52a7.77 7.77 0 0 0 6.412 8.924l.671.11a7.77 7.77 0 0 0 8.923-6.412z"/><rect width="16.06" height="38.68" x="-8.03" y="-19.34" fill="#fafafa" rx="7.7" transform="rotate(-10.6 1762.935 -1550.824)"/><ellipse fill="#5a5a59" rx=".57" ry=".42" transform="rotate(217.8 465.426 -3.403)"/><rect width="16.22" height="38.36" x="-8.11" y="-19.18" fill="#fafafa" rx="7.77" transform="rotate(9.3 -1476.786 4504.295)"/><circle cx="836.25" cy="280.25" r=".19" fill="#5a5a59"/><circle cx="837.18" cy="281.13" r=".42" fill="#363636"/><path fill="#121111" d="M768.283 294.594a30.69 30.09-98.2 0 1 34.16 26.084 30.69 30.09-98.2 0 1-25.406 34.668 30.69 30.09-98.2 0 1-34.16-26.084 30.69 30.09-98.2 0 1 25.406-34.668m.905 3.172a27.38 26.76-97.2 0 0-23.117 30.518 27.38 26.76-97.2 0 0 29.98 23.81 27.38 26.76-97.2 0 0 23.118-30.518 27.38 26.76-97.2 0 0-29.98-23.81"/><path fill="#fafafa" d="M769.188 297.766a27.38 26.76-97.2 0 1 29.981 23.81 27.38 26.76-97.2 0 1-23.117 30.518 27.38 26.76-97.2 0 1-29.981-23.81 27.38 26.76-97.2 0 1 23.117-30.518M754.87 335.33a1.51 1.51 0 0 0 1.31 2.24l32 .17a1.51 1.51 0 0 0 1.34-2.23l-15.85-29.4a1.51 1.51 0 0 0-2.65-.01z"/><path fill="#121111" d="m754.87 335.33 16.15-29.23a1.51 1.51 0 0 1 2.65.01l15.85 29.4a1.51 1.51 0 0 1-1.34 2.23l-32-.17a1.51 1.51 0 0 1-1.31-2.24m17.35-1.03q4.39.01 12.31 0a.29.29 0 0 0 .25-.43q-6.7-11.58-12.34-22.95-.07-.16-.16-.16-.08 0-.16.16-5.69 11.34-12.45 22.89a.29.29 0 0 0 .25.43q7.92.05 12.3.06"/><path fill="#fafafa" d="M772.28 310.76q.09 0 .16.16 5.64 11.37 12.34 22.95a.29.29 0 0 1-.25.43q-7.92.01-12.31 0-4.38-.01-12.3-.06a.29.29 0 0 1-.25-.43q6.76-11.55 12.45-22.89.08-.16.16-.16"/><ellipse fill="#5a5a59" rx="1.59" ry=".3" transform="rotate(246.7 531.983 -124.638)"/><path fill="#121111" d="M258.17 371.92c-8.73 7.05-13.5 3.32-20.56-3.42-6.66-6.37-11.49-12.91-12.6-22.52q-1.02-8.75-.43-16.74c1.18-15.99 18.21-15.56 29.92-15.48 3.93.03 8.01.12 11.21 2.06 10.17 6.18 10 17.55 9.31 28.15-.78 12-7.72 20.58-16.85 27.95m-13.33-1.52c3.19 2.4 5.85 2.58 9.13.32q7.4-5.11 13.83-14.18 1.69-2.4 2.61-6.31 2.54-10.77.96-20.6-.95-5.95-6.26-10.11-2.65-2.07-8.51-2.37c-8.93-.47-22.3-1.06-27.25 7.23q-1.2 2.01-1.37 6.04-.39 9.24.64 16.51c1.37 9.74 8.62 17.73 16.22 23.47"/><path fill="#fafafa" d="M253.97 370.72c-3.28 2.26-5.94 2.08-9.13-.32-7.6-5.74-14.85-13.73-16.22-23.47q-1.03-7.27-.64-16.51.17-4.03 1.37-6.04c4.95-8.29 18.32-7.7 27.25-7.23q5.86.3 8.51 2.37 5.31 4.16 6.26 10.11 1.58 9.83-.96 20.6-.92 3.91-2.61 6.31-6.43 9.07-13.83 14.18"/><ellipse fill="#5a5a59" rx="4.28" ry=".32" transform="rotate(246.7 535.802 -122.2)"/><ellipse fill="#5a5a59" rx="4.24" ry=".32" transform="rotate(245.7 538.508 -113.735)"/><path fill="#5a5a59" d="m867.19 339.28-1.09-3.24a.09.09 0 0 1 .16-.07q1.53 2.82 1.48 3.24a.28.28 0 0 1-.55.07"/><ellipse fill="#5a5a59" rx="1.81" ry=".27" transform="rotate(246.4 546.18 -113.271)"/><path fill="#121111" d="M713.52 356.716a30.17 29.78-88.9 0 1 29.195 30.736 30.17 29.78-88.9 0 1-30.354 29.592 30.17 29.78-88.9 0 1-29.196-30.736 30.17 29.78-88.9 0 1 30.354-29.592m.13 3.364a26.87 26.37-88.4 0 0-27.11 26.124 26.87 26.37-88.4 0 0 25.61 27.596 26.87 26.37-88.4 0 0 27.11-26.124 26.87 26.37-88.4 0 0-25.61-27.596m149.561 26.75a30.18 30.18 0 0 1-30.18 30.18 30.18 30.18 0 0 1-30.18-30.18 30.18 30.18 0 0 1 30.18-30.18 30.18 30.18 0 0 1 30.18 30.18m-3.32.01A26.89 26.89 0 0 0 833 359.95a26.89 26.89 0 0 0-26.89 26.89A26.89 26.89 0 0 0 833 413.73a26.89 26.89 0 0 0 26.89-26.89m-675.16 22.48c-5.29-5.16-5.88-13.14-6.03-21.09-.12-6.1-.13-13.34 2.2-19.32 2.7-6.91 8.57-8.66 15.62-8.9q7.23-.25 15.67.86c10.17 1.32 17.26 8.34 23.14 16.43q2.5 3.43 3.59 6.76c1.39 4.24-3.14 9.77-5.76 12.79q-5.78 6.67-7.56 8.02c-8.02 6.11-17.43 7.32-27.59 7.64-4.53.14-9.81.19-13.28-3.19m50.23-20.78c.97-1.55 1.02-3.88.03-5.52q-2.5-4.19-7.41-9.84c-8.35-9.58-18.23-9.6-29.98-9.61-8.39-.01-13.61 2.49-14.77 11.05-1.17 8.63-2.64 28.31 5.9 33.41q1.6.96 5.5 1.03 10.45.19 19.5-2.09c9.12-2.29 16.36-10.66 21.23-18.43m27.23-4.14c1.32-8.31 10.94-16.73 17.88-20.81 3.73-2.2 7.38-2.51 12.72-3.1q7.83-.87 14.82-.12 10.37 1.11 12.5 10.75 3.21 14.5.47 28.25c-1.31 6.56-4.8 12.17-12.17 12.8q-12.67 1.09-24.72-2.82c-5.86-1.9-11.34-8.03-15.85-13.29-2.64-3.08-6.32-7.51-5.65-11.66m3.51 1.13c.82 5.92 9.65 14.06 14.55 18 5.96 4.78 17.3 5.59 25.13 5.54 8.87-.06 11.18-5.75 12.21-13.7q1.32-10.23.29-18.14c-1.04-8.1-3.19-13.18-11.88-13.63q-6.94-.35-16.01.61-7.58.81-14.05 6.44c-3.81 3.31-10.81 10.69-10.24 14.88"/><path fill="#fafafa" d="M713.65 360.08a26.87 26.37-88.4 0 1 25.61 27.596 26.87 26.37-88.4 0 1-27.11 26.124 26.87 26.37-88.4 0 1-25.61-27.596 26.87 26.37-88.4 0 1 27.11-26.124m15.35 14.1a2.98 2.98 0 0 0-2.98-2.98H700.9a2.98 2.98 0 0 0-2.98 2.98v25.1a2.98 2.98 0 0 0 2.98 2.98h25.12a2.98 2.98 0 0 0 2.98-2.98zm130.89 12.66A26.89 26.89 0 0 1 833 413.73a26.89 26.89 0 0 1-26.89-26.89A26.89 26.89 0 0 1 833 359.95a26.89 26.89 0 0 1 26.89 26.89m-29.883-17.686a17.7 17.5-99.9 0 0-14.196 20.445 17.7 17.5-99.9 0 0 20.282 14.427 17.7 17.5-99.9 0 0 14.196-20.445 17.7 17.5-99.9 0 0-20.282-14.427"/><path fill="#363636" d="M876.34 361.13q.34.87.38 1.13a.17.17 0 0 1-.31.11q-.37-.66-.35-1.19a.15.14-55 0 1 .28-.05"/><path fill="#fafafa" d="M234.99 383.02c.99 1.64.94 3.97-.03 5.52-4.87 7.77-12.11 16.14-21.23 18.43q-9.05 2.28-19.5 2.09-3.9-.07-5.5-1.03c-8.54-5.1-7.07-24.78-5.9-33.41 1.16-8.56 6.38-11.06 14.77-11.05 11.75.01 21.63.03 29.98 9.61q4.91 5.65 7.41 9.84m30.71 2.51c-.57-4.19 6.43-11.57 10.24-14.88q6.47-5.63 14.05-6.44 9.07-.96 16.01-.61c8.69.45 10.84 5.53 11.88 13.63q1.03 7.91-.29 18.14c-1.03 7.95-3.34 13.64-12.21 13.7-7.83.05-19.17-.76-25.13-5.54-4.9-3.94-13.73-12.08-14.55-18"/><path fill="#121111" d="M830.007 369.154a17.7 17.5-99.9 0 1 20.282 14.427 17.7 17.5-99.9 0 1-14.196 20.445 17.7 17.5-99.9 0 1-20.282-14.427 17.7 17.5-99.9 0 1 14.196-20.445m3.46 3.092a14.38 14.08-88.3 0 0-14.5 13.956 14.38 14.08-88.3 0 0 13.646 14.792 14.38 14.08-88.3 0 0 14.5-13.956 14.38 14.08-88.3 0 0-13.646-14.792M729 399.28a2.98 2.98 0 0 1-2.98 2.98H700.9a2.98 2.98 0 0 1-2.98-2.98v-25.1a2.98 2.98 0 0 1 2.98-2.98h25.12a2.98 2.98 0 0 1 2.98 2.98zm-3.46-23.911a.67.67 0 0 0-.671-.669l-22.94.04a.67.67 0 0 0-.669.671l.04 22.94a.67.67 0 0 0 .671.669l22.94-.04a.67.67 0 0 0 .669-.671z"/><ellipse fill="#fafafa" rx="14.38" ry="14.08" transform="rotate(-88.3 615.652 -235.755)"/><rect width="24.28" height="24.28" x="-12.14" y="-12.14" fill="#fafafa" rx=".67" transform="rotate(-.1 222011.106 -408566.016)"/><path fill="#5a5a59" d="M364.31 375.13q.87 3.68 1.98 7.13c5.11 15.79 18.21 27.6 34.2 31.57q5.01 1.24 18.18 1.23 84.52-.1 191.49.01 4.41 0 6.65-.45c2.94-.6 5.67-.61 8.68-1.66q26.8-9.4 34.31-37.72 2.35 3.55 2.88 6.37 1.17 6.14-1.04 13.81-2.18 7.56-9.36 14.73C639.4 423 622.98 426.69 605 426.66q-107.44-.15-185.5.11c-8.19.02-17.24-.36-24.88-2.63-11.27-3.35-23.71-11.08-29.31-21.72-4.67-8.87-6.94-18.5-1-27.29m518.01 3.26q-.3-.61-.26-.83a.27.27 0 0 1 .51-.07q.26.55.24.8a.26.26 0 0 1-.49.1m2.22 4.61q.56 1.7 1.04 3.51.06.23-.05.37a.17.16-36.5 0 1-.28-.04q-.76-1.87-1.34-3.63-.55-1.7-1.03-3.51-.06-.24.05-.38a.17.16-36.5 0 1 .28.04q.76 1.88 1.33 3.64m3.72 11.56.59 2.01a.3.29-34 0 1-.05.24q-.62.8-.8-2.21a.13.13 0 0 1 .26-.04"/><path fill="#121111" d="M250.1 396.59c7.57-.08 16.56 10.26 20.52 16.18 4.7 7.02 5.78 16.21 5.6 24.83-.38 17.35-11.12 18.86-25.45 19.02s-25.1-1.11-25.86-18.44c-.38-8.62.5-17.83 5.04-24.96 3.83-6 12.59-16.54 20.15-16.63m.59 56.76c11.21-.1 21.8-.93 22.01-15.11.16-10.4-.88-19.92-7.9-27.76-2.96-3.32-9.79-10.53-14.57-10.49-4.77.04-11.47 7.37-14.38 10.73-6.88 7.97-7.76 17.5-7.43 27.9.46 14.18 11.06 14.83 22.27 14.73"/><ellipse fill="#5a5a59" rx="1.25" ry=".31" transform="rotate(253.2 592.555 -130.978)"/><path fill="#fafafa" d="M250.23 399.99c4.78-.04 11.61 7.17 14.57 10.49 7.02 7.84 8.06 17.36 7.9 27.76-.21 14.18-10.8 15.01-22.01 15.11s-21.81-.55-22.27-14.73c-.33-10.4.55-19.93 7.43-27.9 2.91-3.36 9.61-10.69 14.38-10.73"/><path fill="#363636" d="m889.89 401.19.29-.08a.37.36 74 0 1 .46.26q1 3.77 1.95 6.41c.39 1.09-.05 2.42.73 3.16q.35.34.55 1.19 1.65 6.96 2.54 8.73.67 1.34.4 2.66a.3.3 0 0 1-.58.03l-6.47-22.12a.2.2 0 0 1 .13-.24"/><path fill="#121111" d="M802.97 448.67a30.07 30.07 0 0 1-30.07 30.07 30.07 30.07 0 0 1-30.07-30.07 30.07 30.07 0 0 1 30.07-30.07 30.07 30.07 0 0 1 30.07 30.07m-3.42.01A26.68 26.68 0 0 0 772.87 422a26.68 26.68 0 0 0-26.68 26.68 26.68 26.68 0 0 0 26.68 26.68 26.68 26.68 0 0 0 26.68-26.68"/><path fill="#fafafa" d="M799.55 448.68a26.68 26.68 0 0 1-26.68 26.68 26.68 26.68 0 0 1-26.68-26.68A26.68 26.68 0 0 1 772.87 422a26.68 26.68 0 0 1 26.68 26.68m-39.4 12.94a.81.81 0 0 0 .91-.16l10.91-10.91a.81.81 0 0 1 1.14 0l10.34 10.34a.81.81 0 0 0 .8.21l2.15-.63a.81.81 0 0 0 .35-1.35l-11.11-11.11a.81.81 0 0 1 0-1.14l11.24-11.24a.81.81 0 0 0-.36-1.36l-2.15-.56a.81.81 0 0 0-.78.21l-10.5 10.51a.81.81 0 0 1-1.14 0l-10.28-10.28a.81.81 0 0 0-.8-.2l-2.08.61a.81.81 0 0 0-.34 1.35l10.99 10.99a.81.81 0 0 1 0 1.14l-11.41 11.41a.81.81 0 0 0 .24 1.31z"/><path fill="#5a5a59" d="M899.86 433.86q.81 3.03 1.12 5.35c.14 1.11 1.11 2.45.94 3.3a.32.31-51.3 0 1-.6.07q-.01-.03-1.23-4.83-.48-1.88-.96-3.69t-1-3.67q-1.33-4.78-1.33-4.81a.32.31 21.5 0 1 .55-.24c.57.65.4 2.3.82 3.33q.89 2.17 1.69 5.19"/><path fill="#121111" d="m760.15 461.62-1.88-.86a.81.81 0 0 1-.24-1.31l11.41-11.41a.81.81 0 0 0 0-1.14l-10.99-10.99a.81.81 0 0 1 .34-1.35l2.08-.61a.81.81 0 0 1 .8.2l10.28 10.28a.81.81 0 0 0 1.14 0l10.5-10.51a.81.81 0 0 1 .78-.21l2.15.56a.81.81 0 0 1 .36 1.36l-11.24 11.24a.81.81 0 0 0 0 1.14l11.11 11.11a.81.81 0 0 1-.35 1.35l-2.15.63a.81.81 0 0 1-.8-.21l-10.34-10.34a.81.81 0 0 0-1.14 0l-10.91 10.91a.81.81 0 0 1-.91.16"/><path fill="#5a5a59" d="M323.53 511.65c-6.83-27.7 7-54.32 33.09-65.25q19.09-6.5 36.64-.47c42.43 14.56 51.29 71.98 13.46 97.74-17.46 11.88-40.42 12.11-58.35 1.2q-18.67-11.36-24.84-33.22m56.662-57.495a44.24 44.07-85.2 0 0-47.617 40.397 44.24 44.07-85.2 0 0 40.213 47.773 44.24 44.07-85.2 0 0 47.617-40.397 44.24 44.07-85.2 0 0-40.213-47.773m254.41-9.355a54.65 54.51-103.5 0 1 65.762 40.415 54.65 54.51-103.5 0 1-40.246 65.865 54.65 54.51-103.5 0 1-65.762-40.415 54.65 54.51-103.5 0 1 40.246-65.865m57.008 53.28a44.16 44.16 0 0 0-44.16-44.16 44.16 44.16 0 0 0-44.16 44.16 44.16 44.16 0 0 0 44.16 44.16 44.16 44.16 0 0 0 44.16-44.16"/><ellipse fill="#363636" rx="2.01" ry=".49" transform="rotate(259 634.75 -149.216)"/><path fill="#121111" d="M356.62 446.4c-26.09 10.93-39.92 37.55-33.09 65.25q-1.55-3.05-1.85-6.5-.01-.09-.1-6.81-.31-21.94 14.14-38.37c2.89-3.29 7.07-6.32 10.64-9.37q3.86-3.29 10.26-4.2"/><path fill="#5a5a59" d="M903.3 449.33q.37-.08 1.59 5.42.2.9-.18.99-.38.08-.58-.82-1.21-5.51-.83-5.59"/><path fill="#363636" d="M380.192 454.155a44.24 44.07-85.2 0 1 40.213 47.773 44.24 44.07-85.2 0 1-47.617 40.397 44.24 44.07-85.2 0 1-40.213-47.773 44.24 44.07-85.2 0 1 47.617-40.397m-19.17 15.633a32.33 31.64-118.2 0 0-12.606 43.443 32.33 31.64-118.2 0 0 43.162 13.542 32.33 31.64-118.2 0 0 12.606-43.445 32.33 31.64-118.2 0 0-43.162-13.54M691.61 498.08a44.16 44.16 0 0 1-44.16 44.16 44.16 44.16 0 0 1-44.16-44.16 44.16 44.16 0 0 1 44.16-44.16 44.16 44.16 0 0 1 44.16 44.16m-12.33-.06a32.09 32.09 0 0 0-32.09-32.09 32.09 32.09 0 0 0-32.09 32.09 32.09 32.09 0 0 0 32.09 32.09 32.09 32.09 0 0 0 32.09-32.09M116.36 470.7a.48.48 0 0 1-.91-.32l3.71-14.13a.21.21 0 0 1 .41.07q-.14 2.76-.82 4.6a5.25 4.99 60.7 0 0-.29 1.14q-.7 5.48-2.1 8.64"/><ellipse fill="#363636" rx="1.37" ry=".36" transform="rotate(255.6 630.068 -122.323)"/><path fill="#363636" d="M905.41 460.52q-.21-.31-.07-1.2a.24.24 0 0 1 .46-.07q.05.09.08 1.12a.26.26 0 0 1-.47.15"/><path fill="#5a5a59" d="M907.67 468.01q.14.82.16 1.24a2.39 2.2 34.9 0 0 .17.76q.98 2.46.93 4.74a.17.17 0 0 1-.33.04q-.99-3.31-1.55-6.69-.13-.82-.15-1.24a2.39 2.2 34.9 0 0-.17-.76q-.98-2.46-.93-4.74a.17.17 0 0 1 .33-.05q1 3.32 1.54 6.7"/><ellipse fill="#5a5a59" rx="32.33" ry="31.64" transform="rotate(241.8 337.257 136.535)"/><circle cx="647.19" cy="498.02" r="32.09" fill="#5a5a59"/><path fill="#5a5a59" d="M115.28 476.82q-.28-.93-.24-1.78.36-2.65.24 1.78"/><path fill="#363636" d="M115.04 475.04q-.04.85.24 1.78-.69 4.63-1.16 6.85-.11.49-.6.7a.32.32 0 0 1-.44-.36z"/><ellipse fill="#5a5a59" rx="1.75" ry=".35" transform="rotate(-97.8 663.675 -157.28)"/><path fill="#121111" d="M522.43 499.35c3.55.32 8.11 1.2 10.72 3.75a2.03 1.98-79.8 0 1 .46.68q2.23 5.38-2.8 7.49c-7.11 2.97-17.87 5.66-26.06 4.04-5.93-1.17-10.02-1.77-14.11-5.29a1.92 1.85 14.6 0 1-.6-.98c-1.9-8.15 8.08-9.31 13.73-9.37a1.16 1.15-2.1 0 0 1.14-1.22c-.31-5.45-.93-12.59 3.28-16q3.01-2.43 8.01-1.65c7.02 1.1 7.91 8.42 7.7 14.77a.95.9-29.3 0 1-.14.45l-1.69 2.59a.48.48 0 0 0 .36.74m-17.07 1.41q-.65-.05-7.11.71c-2.48.3-6.88 1.66-7.27 4.48-.31 2.34.45 4 2.72 4.95 7.91 3.34 15.85 4.36 24.28 2.82 3.8-.69 19.27-3.03 14.13-10a2.28 2.24-2.7 0 0-.66-.59c-5.04-2.9-12.68-1.95-16.69-2.27a1.84 1.83 2.2 0 1-1.7-1.83v-8.84a1.19 1.19 0 0 1 1.19-1.19h.35a1.26 1.25-90 0 1 1.25 1.26v5.28a2.41 2.41 0 0 0 2.41 2.41h1.18a2.85 2.85 0 0 0 2.84-2.6c.51-5.74.17-12.43-6.73-13.34-8.12-1.07-9.72 5.24-9.59 11.75q.12 6.37.11 6.46a.67.66 7.7 0 1-.71.54"/><path fill="#fafafa" d="M506.07 500.22q.01-.09-.11-6.46c-.13-6.51 1.47-12.82 9.59-11.75 6.9.91 7.24 7.6 6.73 13.34a2.85 2.85 0 0 1-2.84 2.6h-1.18a2.41 2.41 0 0 1-2.41-2.41v-5.28a1.26 1.25 90 0 0-1.25-1.26h-.35a1.19 1.19 0 0 0-1.19 1.19v8.84a1.84 1.83 2.2 0 0 1.7 1.83c4.01.32 11.65-.63 16.69 2.27a2.28 2.24-2.7 0 1 .66.59c5.14 6.97-10.33 9.31-14.13 10-8.43 1.54-16.37.52-24.28-2.82-2.27-.95-3.03-2.61-2.72-4.95.39-2.82 4.79-4.18 7.27-4.48q6.46-.76 7.11-.71a.67.66 7.7 0 0 .71-.54m7.8 6.33.06 1.74a.67.67 0 0 0 .7.64l3.13-.11a7.43 1.34-2 0 0 7.38-1.6l-.01-.4a7.43 1.34-2 0 0-7.47-1.08l-3.14.11a.67.67 0 0 0-.65.7m-7.801.958a1.24 1.24 0 0 0-1.187-1.29l-5.555-.233a1.24 1.24 0 0 0-1.291 1.187l-.005.1a1.24 1.24 0 0 0 1.187 1.29l5.555.233a1.24 1.24 0 0 0 1.291-1.187z"/><ellipse fill="#363636" rx="1.88" ry=".36" transform="rotate(-95.7 674.106 -170.153)"/><path fill="#363636" d="M113.39 485.24q.51 2.96-.93 6.64a.37.37 0 0 1-.71-.1q-.07-.71 1.35-6.55a.15.15 0 0 1 .29.01"/><ellipse fill="#5a5a59" rx="1.66" ry=".28" transform="rotate(-95.5 680.455 -167.407)"/><ellipse fill="#5a5a59" rx="3.36" ry=".46" transform="rotate(-84.1 331.73 187.635)"/><path fill="#363636" d="M913.61 500.48q.17.31.21.74a.26.26 0 0 1-.48.14q-.12-.23-.13-.77a.21.21 0 0 1 .4-.11"/><ellipse fill="#363636" rx="3.28" ry=".45" transform="rotate(-97.2 680.523 -149.766)"/><path fill="#121111" d="M513.87 506.55a.67.67 0 0 1 .65-.7l3.14-.11a7.43 1.34-2 0 1 7.47 1.08l.01.4a7.43 1.34-2 0 1-7.38 1.6l-3.13.11a.67.67 0 0 1-.7-.64z"/><rect width="8.04" height="2.58" x="-4.02" y="-1.29" fill="#121111" rx="1.24" transform="rotate(2.4 -11860.248 12237.503)"/><ellipse fill="#5a5a59" rx="2.3" ry=".28" transform="rotate(-95.9 689.284 -156.17)"/><rect width=".52" height="12.3" x="-.26" y="-6.15" fill="#5a5a59" rx=".25" transform="rotate(8.4 -3537.058 988.646)"/><ellipse fill="#5a5a59" rx="6.88" ry=".33" transform="rotate(-83.5 355.983 212.41)"/><ellipse fill="#5a5a59" rx="1.16" ry=".18" transform="rotate(-93.3 715.646 -162.968)"/><ellipse fill="#5a5a59" rx="2.69" ry=".3" transform="rotate(-96 706.219 -140.802)"/><rect width="36.44" height="10.44" x="-18.22" y="-5.22" fill="#5a5a59" rx="4.85" transform="rotate(.2 -157634.344 146651.814)"/><path fill="#5a5a59" d="M920.25 550.23q-.02-.14.06-.29a.08.08 0 0 1 .14.01q.08.22.07.28a.14.14 0 0 1-.27 0"/><ellipse fill="#5a5a59" rx="1.08" ry=".15" transform="rotate(-94.6 715.27 -148.414)"/><path fill="#5a5a59" d="M103.35 553.04q.36 4.61-.57 7.27a4.09 4.02-35 0 0-.22 1.19q-.19 7.07-.34 7.41a.34.34 0 0 1-.65-.15q.08-5.31.95-8.75a6.58 6.51-38 0 0 .19-1.48q.05-5.04.18-5.53a.24.23-39.7 0 1 .46.04"/><rect width=".64" height="18.34" x="-.32" y="-9.17" fill="#5a5a59" rx=".31" transform="rotate(-5.2 6748.598 -9870.462)"/><ellipse fill="#5a5a59" rx="4.46" ry=".28" transform="rotate(-88.1 348.579 236.111)"/><path fill="#fafafa" d="m919.28 704.83 1.49-8.33a.2.17-40.3 0 0 .01-.06q.57-7.38 1.3-11.96.49-3.1.61-7c.09-2.82.89-6.18.83-9.31-.06-3.57.82-7.37.9-10.9.26-11.99.84-23.96.48-35.89-.3-10.33-.32-15.84-1.13-25.52q-.38-4.63-.49-13.79a.1.1 0 0 1 .2-.03q.31 1.1.35 1.87 2.58 43.85 1.12 72.84-1.02 20.3-3.68 38.36-.15 1.06-.49 1.71a1.57 1.54-33.7 0 0-.18.87q.29 3.62-.95 7.23a.19.19 0 0 1-.37-.09"/><rect width=".54" height="13.72" x="-.27" y="-6.86" fill="#5a5a59" rx=".26" transform="rotate(2.4 -14029.284 2684.282)"/><rect width=".64" height="66.7" x="-.32" y="-33.35" fill="#5a5a59" rx=".26" transform="rotate(.1 -361973.821 57004.355)"/><path fill="#5a5a59" d="m96.35 649.61-.26-18.44z"/><path fill="#121111" d="M806.71 780.65q-7.38-23.18-12.65-36.95-8.67-22.68-17.64-45.24-10.76-27.1-15.28-35.84-7.32-14.14-14.34-28.4.59-.77.92-.2 14.06 23.91 24.3 49.18 3.15 7.76 6.42 15.58 3.67 8.77 11.53 29.58.38 1 .81 2.09 7.89 19.7 15.42 44.06.01.03.71 1.88.91 2.38-.2 4.26"/><rect width=".64" height="20.52" x="-.32" y="-10.26" fill="#5a5a59" rx=".27" transform="rotate(-4.4 8863.206 -969.224)"/><ellipse fill="#5a5a59" rx="6.96" ry=".42" transform="rotate(-96.8 359.62 301.804)"/><rect width="1.04" height="8.34" x="-.52" y="-4.17" fill="#363636" rx=".49" transform="rotate(-9 4546.719 -310.56)"/><path fill="#5a5a59" d="M917.94 710.22a.46.45-78.7 0 1 .55-.37l.4.22a.07.05 20.3 0 1 .03.05l-5.35 20.34a.19.19 0 0 1-.23.13l-.36-.09a.27.26-73.5 0 1-.18-.34c2.28-7.05 4.01-13.39 5.14-19.94"/><path fill="#363636" d="M105.84 713.77a.16.16 0 0 1 .31-.04q1.21 2.95 1.24 5.38a3.63 3.48-56.3 0 0 .2 1.12q1.29 3.55 2.79 8.6 1.58 5.35 2.94 8.56 3.57 8.42 8.15 16.24a.26.25-30.8 0 1-.09.34l-.07.04a.26.26 0 0 1-.35-.09q-4.14-7.06-6.83-11.55-1.5-2.51-2.57-7.37a5.07 4.98-62.9 0 0-.29-.93q-3.43-8.48-4.58-15.06c-.32-1.79-1.09-3.35-.85-5.24m15.93 41.11a.19.19 0 0 1 .26-.23q.57.29.49.71a.26.26 0 0 1-.42.16q-.14-.11-.33-.64m759.81 18.11a.34.33 6.3 0 1 .42.52q-.45.44-.89.56a.33.33 0 0 1-.27-.6z"/></symbol></svg>