<svg xmlns="http://www.w3.org/2000/svg"><symbol id="QuestionJerseySVG" viewBox="0 0 1024 1536"><g fill="none" stroke-width="2"><path stroke="#060e14" d="M528.78 294.64q-1.06-1.7-1.2-3.15-.82-8.75-.16-26.33c.27-7.12 3.3-10.1 9.86-12.45 3.15-1.13 8.99-3.33 12.41-5.32q15.9-9.24 25.04-22.39 10.75-15.48 13.24-35.96.08-.62.44-6.56.62-10.18-1.44-20.09-.36-1.7-2.23-8.96-1.18-4.57-3.31-8.62c-3.42-6.53-6.21-11.52-10.9-16.92q-9.55-11-22.38-18.69-10-6-21.2-8.21-11.15-2.2-22.77-1.27c-10.09.81-20.01 2.88-28.65 7.54q-13.04 7.04-22.25 17.74-5.58 6.5-6.6 8.19c-3.8 6.32-7.88 13.98-9.69 21.16q-2.34 9.31-2.84 15.32-.59 7.2-.02 18.84a5.46 5.14 36.1 0 0 .24 1.28c3.35 10.16 13.16 13.94 22.71 9.72q7.71-3.41 9.29-13.37c.49-3.06-.14-6.51.21-9.72q2.59-23.8 21.75-36.24 3.02-1.96 7.21-3.59 5.57-2.18 7.65-2.48 19.36-2.88 34 8.2c6.66 5.03 13.19 12.81 15.99 21.26q2 6.05 2.55 9.7 1.59 10.5-2.53 20.72-7.31 18.12-25.77 25.7c-5.14 2.11-10.19 3.68-14.6 6.31q-16.45 9.85-16.56 30.18-.11 20.95 0 33.57c.03 3.38-1.63 4.3-4.56 5.49q-1.15.47-3.38 1.62-6.45 3.32-21.99 11.46-5.65 2.95-11.72 6.13-44.01 23.01-86.68 45.94c-2.22 1.19-4.07 1.85-6.44 1.77q-3.03-.1-6.7-.3a5.28 5.25-49 0 0-1.25.09l-7.71 1.57a3.55 3.4 25.6 0 0-.73.24q-7.18 3.28-9.21 4.38-3.81 2.05-20.64 11.18-8.95 4.86-17.18 9.08-17.44 8.95-34.85 17.6-.48.23-3.35 1.56-4.16 1.93-7.78 4.79c-3.69 2.9-4.23 7.23-8.14 9.35q-17.91 9.71-47.45 25.32-6.94 3.67-13.63 7.44-5.74 3.23-9.3 4.93-.23.1-9.29 4.92-4.28 2.27-7.7 4.9-5.7 4.38-7.07 5.81-5.27 5.49-7.23 9.02-12.34 22.15-6.15 45.3 3.2 11.97 10.42 19.91 7.65 8.4 18.27 13.18 7.92 3.56 16.15 3.91l58.31-.14q1.43 0 8.42-.11 11.25-.17 13.32.17l2.01.4a1.17 1.16 4.5 0 1 .94 1.09q.17 3.78-.33 8.25-1.09 9.75-1.91 16.57a5.96 5.81-34.8 0 1-.16.83q-.64 2.31-.86 3.83-7.96 56.61-44.78 99.93-3.77 4.43-16.42 16.68-2.68 2.59-5.96 5.38c-4.96 4.2-8.54 10.78-8.64 16.6-.24 12.46.54 27.75.47 41.92-.24 46.77.02 82.12.02 133.33q0 123.81-.04 287.79c0 15.02-.41 30.2-.51 42.57-.04 5.41 1.16 9.33 3.53 13.66 3.88 7.08 11.26 9.49 18.4 11.62 13.41 4 29.31 7.79 47.18 11.76q31.53 7 71.01 12.84 19.81 2.93 35.34 5.02c4.9.66 9.82.47 13.79 1.32 2.17.47 4.77.11 7.57.67q2.7.54 5.64.77 11.07.9 33.62 2.77 13.51 1.12 27.64 1.8 22.15 1.08 27.67 1.23 21.72.57 56.5.48 4.09-.01 33.12-1.03 7.01-.25 12.29-.69c8.65-.71 15.94-.64 25.1-1.6q3.78-.4 12.8-.98 11.96-.77 43.83-4.22 15.66-1.69 32.16-4.28 31.76-4.97 32.03-5.02 33.36-6.05 38.15-7.12c6.97-1.56 17.32-4.15 30.18-7.14q9.89-2.3 20.97-5.78 12.09-3.81 15.34-5.85 6.71-4.22 9.71-12.97.74-2.17.74-7.94-.04-153.96 0-503.25 0-6.94-2.85-11.75-2.14-3.6-8.41-8.75c-9.86-8.1-18.4-17.46-26.32-27.3q-11.86-14.71-22.47-36.51-2.39-4.92-5.52-13.84-3.98-11.36-4.79-14.12-6.87-23.45-8.86-46.87-.17-2.01-.64-4.65c-.36-1.99-.99-7.49 2.11-7.46q9.09.07 19.27-.34a4.47 4.45-40.4 0 1 1.03.08q.92.18 1.29.18 7.18.04 51 .2c10.1.03 17.03-.77 25.37-4.55q13.67-6.2 21.75-18.84c3.49-5.47 6.73-11.74 7.51-18.26q.78-6.56 1.15-7.83a2.61 2.59-37.6 0 0 .12-.9q-.45-12.7-1.82-17.44-6.12-21.21-25.27-32.34-10.06-5.84-23.83-13.01-1.82-.95-9.72-5.12-23.63-12.45-47.48-25.61-2.08-1.14-5.97-6.99a5.82 5.2-86.8 0 0-.55-.69q-3.39-3.58-6.85-5.25-5.25-2.53-10.55-5.22-21.93-11.16-44.93-23.3-9.06-4.78-28.85-15.59-5.69-3.11-11.66-3.49-1.46-.09-5.69.56-4.44.7-9.29-1.72-5.65-2.82-20.51-10.35-20.75-10.52-41.24-21.24-10.62-5.56-17.97-9.26c-16.99-8.56-34.77-18.18-48.64-25a.75.73-1 0 1-.31-.29" vector-effect="non-scaling-stroke"/><path stroke="#060e14" d="M396.05 384.37a.96.96 0 0 0 .26 1.23q9.1 7.01 14.29 10.67 5.57 3.93 12.46 7.59 7.97 4.23 13.08 6.45 20.01 8.66 43.59 13.03 2.44.45 14.66 1.65c9.61.95 18.31.2 27.49.41q7.08.16 12.72-.53 15.78-1.94 25.51-4.8c9.77-2.87 21.88-6.54 32.86-11.88q17.43-8.49 34.2-21.93a1.81 1.8 38.9 0 0-.33-3.02q-22.8-11.38-56.12-28.4-24.84-12.69-57.48-29.55-2.07-1.07-3.97-.08-20.93 10.89-22.97 11.82c-3.69 1.69-6.58 3.77-9.97 5.33q-5.14 2.36-8.7 4.37-4.25 2.4-8.56 4.61-46.13 23.56-60.37 30.82-1.98 1.01-2.65 2.21" vector-effect="non-scaling-stroke"/><path stroke="#222a47" d="M418.34 462.52q18.31 14.57 39.63 23.28 33.92 13.85 69.89 10.51c24.44-2.28 47.7-11.14 68.53-24.41q6.75-4.3 12.08-9.72" vector-effect="non-scaling-stroke"/><path stroke="#837821" d="M608.47 462.18q4.33-2.15 9.03-6.42 20.68-18.78 33.85-41.9 4.42-7.77 7.97-14.34a.24.24 0 0 0-.39-.28c-4.39 4.87-8.9 9.54-14.28 13.96q-38.45 31.51-87.22 40.97-28.26 5.48-57.72 3.81-65.29-3.73-117.05-43.44a87.2 87.2 0 0 1-15.15-14.94.31.3-77.6 0 0-.51.33q16.12 32.42 43.29 56.49 1.29 1.14 4.06 3 2.34 1.57 3.99 3.1" vector-effect="non-scaling-stroke"/><path stroke="#998742" d="M608.47 462.18q-8.84 3.03-16.56 5.86-38.11 13.91-79.15 13.8-25.67-.07-50.71-5.46-14.76-3.17-26.04-7.66-10.4-4.14-17.67-6.2" vector-effect="non-scaling-stroke"/><path stroke="#837821" d="m296.4 423.59-19.82 9.7a1.13 1.13 0 0 0-.56 1.4q17.95 48.77 19.91 99.56 1.12 29.18-1.57 54.24-2.95 27.52-12.02 54.58-20.14 60.09-67.62 100.67a2.88 2.88 0 0 0-1.01 2.21l.07 28.3" vector-effect="non-scaling-stroke"/><path stroke="#222a47" d="m213.78 774.25.09 464.46a.83.83 0 0 0 .62.8c33.14 8.4 69.06 15.45 102.53 20.98q48.37 8 95.71 11.71 12.67.99 33.19 1.96 27.08 1.27 33.21 1.42c33.77.81 67.92.04 102.62-1.91q115.08-6.44 227.88-34.29a.99.99 0 0 0 .75-.96l-.11-463.34" vector-effect="non-scaling-stroke"/><path stroke="#837821" d="m810.27 775.08.09-29.23a2.24 2.2 20.5 0 0-.79-1.69q-50.79-42.69-70.67-106.78-4.05-13.03-6.18-23.86-4.44-22.55-5.51-47.01-2.99-68.32 19.73-131.83a1.19 1.18-67.4 0 0-.6-1.46l-19.81-9.59" vector-effect="non-scaling-stroke"/><path stroke="#222a47" d="M726.53 423.63q-.59-.59-1.17-.9-19.47-10.69-36.67-18.96a1.32 1.32 0 0 0-1.83.78q-9.76 30.42-30.13 55.21c-20.96 25.53-48.93 45.86-80.43 56.8q-35.67 12.38-73.27 10.38-28.85-1.54-58.41-12.73c-33.72-12.77-61.67-34.61-82.9-63.46q-16-21.74-24.72-47.71a.79.79 0 0 0-1.11-.45q-18.97 9.67-35.37 18.19-1.43.74-4.12 2.81" vector-effect="non-scaling-stroke"/><path stroke="#998742" d="M726.53 423.63c-16.96 46.16-24.07 96.53-21.71 145.11q1.3 26.91 5.76 49.24 12 60.18 49.42 108.76 13.5 17.54 31.11 33.4 9.84 8.88 19.16 14.94m-596.49-.83q7.71-5.34 14.6-11.37c44.02-38.52 74.28-91.67 84.69-149.19q5.65-31.22 5.46-66.01-.02-5.31-.42-11.85l-.73-11.83q-3.24-51.8-20.98-100.41" vector-effect="non-scaling-stroke"/><path stroke="#060e14" d="M761.38 532.85q2.25.19 4.87.18 39.72-.2 68.76.03c5.69.04 12.09-.51 16.4-3.96q5.83-4.68 7.1-10.99c1.94-9.6-2.35-18.08-10.89-22.47-6.24-3.2-10.79-4.88-16.24-8.23-3.77-2.31-8.52-4.17-12.21-6.13q-7.9-4.23-15.79-7.99c-1.87-.89-3.65-2.25-5.49-3.2q-12.82-6.62-22.99-11.62a1.67 1.66-67.2 0 0-2.31.95q-3.5 10.11-5.61 19.58c-.5 2.2-1.57 4.41-1.9 6.96q-.38 2.93-1.82 7.66a4.46 4.42-35.3 0 0-.18 1.02q-.09 1.39-1.54 11.38-1.12 7.7-1.61 19c-.1 2.35-.93 3.98-.35 6.31a2.03 2.01-4.6 0 0 1.8 1.52m-497.98-.56a.65.64-5.4 0 0 .53-.63q-.01-5.26-.39-9.97-2.4-29.36-10.93-57.06-.46-1.5-1.99-5.34a.64.63 74.3 0 0-.7-.4q-2.48.44-3.83 1.19-12.1 6.69-44.53 23.26-14.72 7.53-25.89 13.02c-9.13 4.5-12.38 15.38-9.22 24.3q2.08 5.89 6.72 8.98 4.75 3.17 10.84 3.21 51.98.37 74.83-.07 2-.04 4.56-.49" vector-effect="non-scaling-stroke"/><path stroke="#f4ba1f" d="M373.79 409.25q4.4 8.6 9.49 15.77 2.32 3.27 4.46 5.74c3.94 4.56 7.43 9.28 11.54 13.26q3.21 3.1 8.53 8.5 2.02 2.06 3.41 2.97c2.43 1.59 3.82 3.29 6.52 4.67q1.66.85 3.19 1.46 10.7 4.24 21.02 7.94 7.94 2.84 23.02 5.93l9.22 1.87q3.37.68 14.5 1.96 6.59.77 14.63.79 21.08.07 26.17-.2 29.11-1.53 60.56-12.35 10.92-3.76 19.42-7.63 3.39-1.54 6.3-4.16 14.19-12.76 25.78-28.92 6.3-8.8 11.21-18.36a.13.13 0 0 0-.21-.16q-1.77 1.6-11.46 9.25-1.36 1.07-14.37 10.11-6.5 4.52-18.4 10.57-10.65 5.42-27.38 10.99-12.54 4.17-23.59 6.12-11.95 2.11-24.11 3.55c-20.33 2.42-40.7.58-60.84-3.04q-17.53-3.15-32.9-8.75-36.14-13.16-65.51-38.04a.13.13 0 0 0-.2.16" vector-effect="non-scaling-stroke"/><path stroke="#222a47" d="M540.98 916.16q4.28-.13 10.03-.21c5.24-.07 9.67-3.64 9.39-9.07q-.47-9.1-.08-20.11.12-3.4 1.21-7 3.75-12.32 12.11-23.14 5.7-7.36 18.69-22.18c12.76-14.57 21.6-26.3 28.63-41.51q10.31-22.33 11.81-46.8 1.64-26.75-6.35-47.76-9.35-24.61-29.95-41.61-14.1-11.64-34.97-19.57c-15.88-6.03-35.32-8.42-51.75-7.94q-35.85 1.06-66.45 20.37c-28.78 18.15-46.85 49.08-50.14 82.87-.57 5.89-.53 15.12-.62 20-.15 7.55.49 13.14 8.3 14.77a1.74 1.56 48.2 0 0 .36.04q36.44-.2 76.81-.15 7.74.01 10.6-6.98.75-1.82.81-6.43c.12-9.34.65-17.28 7.97-23.41 8.9-7.46 21.51-6.1 28.36 3.28 5.52 7.54 3.73 20.64-.13 28.51-4.51 9.19-10.94 17.48-17.74 25.51-7.69 9.08-15.85 17.78-23.04 26.94q-12.28 15.63-17.74 34.66-3.38 11.82-4.32 28.81-1.01 18.37-.8 29.2c.11 5.67 5.79 8.89 10.93 8.74q.96-.02 2.15-1.1a1.92 1.87 15.7 0 1 .79-.43q1.18-.34 3.18-.37 20.34-.4 57.47-.11.89.01 8.34.28a.14.14 0 0 1 .14.12l.04.32a.31.3 83.2 0 1-.26.34l-4.12.57a.01.01 0 0 0-.01.01l.02.25a.32.32 0 0 0 .33.29m-31.16 129.99c20.07.59 37.6-9.74 48.13-26.45q7.44-11.81 8.17-25.21c1.15-21.13-6.75-39-24.67-50.72-11.16-7.3-25.42-9.81-38.7-7.92-16.36 2.33-30.34 12.15-38.71 26.21q-5.86 9.85-7.01 22.59c-1.69 18.88 4.38 36.09 18.09 48.33q9.64 8.61 23.83 11.97 4.27 1.01 10.87 1.2" vector-effect="non-scaling-stroke"/><path stroke="#f4ba1f" d="M295.68 425.86a.67.66-23.6 0 0-.92-.36l-15.65 8.07a2.1 2.09-18.7 0 0-1.11 2.23q.22 1.29.8 2.91c2.55 7.17 6.65 19.36 8.99 29.89q1.3 5.85 3.67 15.41.82 3.31 3.72 23.54.1.65.55 6.9.3 4.03.64 6.87 1.33 11.09 1.35 34.68 0 6.65-1.26 23.19-1.07 14.11-2.56 23.06c-5.55 33.33-17.54 67.04-36.51 95.35q-15.54 23.17-35.93 41.86-2.25 2.06-5.08 4.18-1.48 1.11-1.49 3.05-.05 11.39.04 23.32a.88.88 0 0 0 1.03.86q.63-.11 1.59-.82 5.84-4.37 14.34-11.98 7.48-6.7 13.38-13.02 28.98-31.05 46.79-69.72 2.58-5.59 5.6-13.33 4.35-11.15 5.1-13.51 2.97-9.36 6.02-21.25c4.37-17.01 6.03-34.24 7.62-51.68 1.16-12.74.57-25.75.57-38.77 0-4.27-.51-7.36-.84-12.11-.25-3.53.12-6.79-.81-10.1a4.78 4.76-51.2 0 1-.17-1.59q.1-1.63-.77-8.31-3.26-24.76-5.63-33.92-1.32-5.1-2.92-12.09c-2.58-11.3-6.32-22.39-10.15-32.81m431.35.85c-6.62 17.87-10.92 35.09-14.82 53.85q-1.29 6.18-2.35 14.55-1.5 11.81-1.72 14.65c-.36 4.64-.91 7.54-1.23 11.67q-1.55 20.24-1.05 45.23c.09 4.39 1.33 8.79 1.03 13.25a8.47 8.43-48.7 0 0 .14 2.24q.93 4.68.93 9.36c-.01 2.18.92 3.62.93 5.79q0 2.44.42 4.37c.9 4.23 1.57 10.71 2.5 15.41q10.85 55 43.01 100.54 3.47 4.91 5.83 7.82 4.92 6.07 5.99 7.67c1.28 1.9 3.33 3.37 4.77 5.28q1.38 1.86 3.48 3.98 9.92 10.08 13.98 14.05c5.38 5.26 9.97 8.73 16.64 14.18q1.08.88 2.73 1.43a.69.69 0 0 0 .91-.65v-24.72a2.83 2.81 19.7 0 0-1.05-2.19q-3.65-2.95-3.91-3.18-4.4-3.82-14.78-14.32-4.09-4.14-7.69-8.52-6.15-7.49-7.26-8.92-18.1-23.43-29.6-51.61-9.27-22.74-13.77-45.2-1.4-6.98-3.21-22.09c-.28-2.37-.88-5.06-.77-7.92a5.73 5.1-51.1 0 0-.04-.81q-.79-6.38-.88-8.09-1.09-19.38-.81-27.56.54-16.05 2.09-32.07.38-3.87 1.75-13.94 4.26-31.27 15.75-64.01.69-1.97-1.26-2.92-7.34-3.57-14.82-7.34a1.35 1.34-66.6 0 0-1.86.74" vector-effect="non-scaling-stroke"/><path stroke="#837821" d="M542.3 896.12q-.47-2.7-.33-6.62c.7-18.88 10.07-34.69 22.13-49.42q3.94-4.82 18.98-21.99c13.16-15.03 23.54-33.03 27.87-51.1q3.51-14.64 3.09-33.18c-.61-26.89-11.26-49.36-32.75-64.88q-27.1-19.57-62.79-20.36c-22.39-.49-42.95 3.7-62.03 14.76-22.38 12.99-37.54 33.26-43 58.41q-2.83 13.02-2.65 27.19a.23.23 0 0 0 .23.22h60.07a.55.54.5 0 0 .55-.53q.46-14.13 6.58-23.9c7.56-12.08 21.27-18.96 35.41-17.45 25.11 2.66 37.8 25.74 33.06 49.13q-1.88 9.32-7.5 18.56-6.38 10.49-12.5 17.27c-8.97 9.92-20.27 21.93-28.62 33.63q-10.16 14.24-14.13 32.05-1.72 7.74-2.25 19.28-.4 8.69-1.43 19.21a.22.22 0 0 0 .22.24h61.35a.45.44-4.9 0 0 .44-.52" vector-effect="non-scaling-stroke"/><path stroke="#f4ba1f" d="M411.87 747.53a.57.57 0 0 0 .57.55h56.72a1.33 1.33 0 0 0 1.33-1.29c.42-14.28 6.75-27.4 18.8-34.97q7.02-4.4 13.44-5.52 12.92-2.24 24.71 3.7 8.84 4.46 14.08 12.18c10.18 14.98 9.5 34.68.63 50.26q-6.28 11.02-11.72 17.26-4.11 4.72-4.89 5.94a3.71 3.63-5.7 0 1-.62.74c-3.51 3.24-6.01 6.75-8.79 9.62q-8.81 9.11-17.05 20.85c-11.09 15.82-15.68 33.39-16.16 52.72-.12 4.91-.47 7.96-1.09 14.22a1.19 1.18 2.8 0 0 1.18 1.3h57.03a.76.76 0 0 0 .76-.82c-.94-11.75 2.41-23.82 8-34.12q5.68-10.48 13.01-19.36 8.75-10.6 11.15-13.1c6.53-6.8 12.44-14.16 17.65-21.08q9.51-12.64 16.25-30.98 3.54-9.65 4.71-19.81 1.27-11.14 1.38-17.06c.33-18.58-4.33-38.11-16.05-52.93q-11.63-14.71-28.32-23.37-20.6-10.68-43.9-12.45c-4.64-.36-9.44-.06-14.48-.16q-4.98-.1-10.87.59-28.63 3.36-51.59 20.05-8.64 6.28-15.76 15.28-16.43 20.76-19.03 47.47-1.18 12.08-1.08 14.29" vector-effect="non-scaling-stroke"/><path stroke="#837821" d="M514.91 953.474a36.98 36.55-84.6 0 0-39.868 33.376 36.98 36.55-84.6 0 0 32.908 40.256 36.98 36.55-84.6 0 0 39.868-33.376 36.98 36.55-84.6 0 0-32.908-40.256" vector-effect="non-scaling-stroke"/><path stroke="#f4ba1f" d="M515.77 954.757a35.78 35.2-83 0 0-39.298 31.223 35.78 35.2-83 0 0 30.578 39.803 35.78 35.2-83 0 0 39.298-31.223 35.78 35.2-83 0 0-30.577-39.803" vector-effect="non-scaling-stroke"/></g><path fill="#000001" d="M760.49 568.09q1.38 11.71 1.57 15.89.08 1.72.69 3.96c.4 1.47.17 3.69.59 5.33q.23.92 1.8 10.31.97 5.83 2.15 10.29 4.06 15.3 8.02 25.87 17.34 46.29 55.71 77.97 6.37 5.26 8.78 12.27 1.14 3.32 1.14 14.93l.03 493.61q0 7.84-1.33 11.66-3.03 8.64-10.87 13.08-3.08 1.73-6.03 2.65-.02.01-9.32 3.09-4.27 1.41-9.43 2.82-29.07 7.96-59.75 13.66-6.39 1.19-15.92 2.89-11.45 2.04-17.31 2.76-1.51.18-2.02.37c-1.8.69-3.75.3-5.35.85-2.81.96-5.52.44-8.21 1.45a1.27.47 6.3 0 1-.2.05l-18.74 2.34a1.91 1.7 29.8 0 0-.33.07c-3.27 1.08-6.46.47-9.88 1.45-2.02.57-4.67.06-7.02.69-3.16.84-6.13.45-9.45 1.15-3.21.69-6.55.19-10.05 1.18a5.04 4.9 35.8 0 1-1.29.19q-4.36.03-6.76.48c-4.44.83-8.28.34-12.65 1-4.97.74-9.05.31-13.6 1.1-4.31.76-9.12.34-13.29.82-6.58.74-12.53.59-17.91 1.1-8.89.84-16.73.51-26.2 1.05q-7.29.42-16.14.46-15.41.07-39.07-.01-7.48-.03-15.19-.53c-8.11-.53-16.05-.24-24.59-1-5.94-.53-11.52-.14-17.31-.97-4.43-.64-9.66-.25-14.57-.97-4.27-.63-8.63-.25-12.64-.93-4.05-.7-8.41-.38-12.74-1.21-2.61-.51-6.05-.16-9.05-.69q-.86-.15-24.55-2.57-2.97-.31-4.94-.75c-2.24-.51-4.28-.13-6.59-.7-3.04-.75-5.72-.41-8.61-1.16q-2.03-.53-4.22-.5a4.46 4.44 53.9 0 1-1.5-.24q-2.5-.84-5.6-.77a1.02.95 47 0 1-.14-.01l-32.05-5.18a2.8 2.66 57.8 0 1-.51-.13c-2.03-.75-3.82-.55-5.98-.95q-20.52-3.81-38.25-7.64-30.08-6.49-52.2-13.43-13.15-4.13-17.26-16.44-1.4-4.21-1.4-12.5-.03-136.49-.01-494.12 0-9.47 1.06-12.44 1.48-4.13 3.67-7.55 1.18-1.83 5.74-6.02 15.34-14.1 20.38-19.99 19.77-23.08 30.17-47.04 7.76-17.87 11.43-33.51 3.14-13.35 4.59-24.74.33-2.59.82-4.15a.58.55 57.4 0 0 .04-.21l1.62-19.59a.36.35-87.7 0 0-.35-.39q-59.32-.01-80.74.03-2.7 0-4.3-.36c-1.99-.45-3.78-.49-5.7-1.07-14.44-4.31-27.2-14.44-33.72-28.14q-2.88-6.06-4.25-13.23-.91-4.73-.66-13.27.23-7.66 1.76-13.13 6.45-23.11 27.84-34.88 27.32-15.02 67.48-36.27 1.95-1.04 9.44-5.27a4.6 3.49-12.2 0 1 .58-.27q3.09-1.19 5.12-2.63a2.72 2.71 85.9 0 0 .83-.96q3.62-7.15 10.52-10.62 45.58-22.9 83.88-43.65 3.81-2.06 12.36-3.94a4.84 4.76-48.2 0 1 1.41-.09l8.85.73a1.09 1.07-56.3 0 0 .57-.12L494 292.12a1.42 1.4-14.7 0 0 .76-1.28q-.22-15.01-.16-27 .07-11.56.77-15.14 1.64-8.45 5.66-13.92 4.03-5.48 11.9-10.51c4.41-2.83 11.7-4.82 15.82-6.74q18.27-8.54 23.71-25.99 5.93-19.02-5.12-36.21c-10.88-16.92-32.08-25.24-51.32-17.28q-16.99 7.03-24.06 23.68-1.98 4.67-3.14 10.05c-.98 4.58-.7 8.93-.71 13.3-.02 6.45-3.02 11.67-8.67 15.14-5.89 3.61-12.29 3.92-18.21.53q-5.91-3.38-8.2-9.87c-1.66-4.69-1.11-12.09-.96-16.87q.4-12.37 4.99-24.69 7.92-21.23 26.07-35.68 14.35-11.43 32.39-14.54 4.71-.82 9.47-1.15 12.74-.89 24.72 2.05c19.77 4.85 37.74 18.92 48.61 35.95q7.27 11.41 10.31 26.15.34 1.63.51 3.82c.13 1.65.76 3.2.79 5.1q.2 11.38.01 14.47-.72 11.23-4.96 22.98-6.07 16.84-18.95 28.77-9.23 8.54-21.16 14.06-.58.26-5.79 2.28c-4.58 1.78-9.73 3.84-9.9 9.72q-.37 12.71-.17 28.15a2.99 2.98-76.8 0 0 1.63 2.63l130.32 66.86a1.28 1.23-30.2 0 0 .58.14l3.38.05a1.93 1.53 33.2 0 0 .33-.03q6.97-1.17 7.97-.99 3.11.57 7.86 2.23 1.76.62 7.24 3.63 37.72 20.67 79.35 41.49 5.89 2.95 9.26 7.37c3.08 4.03 3.98 5.5 8.82 8.1q6.33 3.42 67.44 36.16 4.8 2.57 9.67 5.42c13.02 7.62 22.32 18.74 26.43 33.12q4.26 14.92.5 29.87-3.78 15.04-15.04 25.76-10.45 9.95-24.55 13.32-5.86 1.4-16.02 1.38-69.09-.11-73.48-.1a.21.2-3.6 0 0-.21.23M528.78 294.64q-1.06-1.7-1.2-3.15-.82-8.75-.16-26.33c.27-7.12 3.3-10.1 9.86-12.45 3.15-1.13 8.99-3.33 12.41-5.32q15.9-9.24 25.04-22.39 10.75-15.48 13.24-35.96.08-.62.44-6.56.62-10.18-1.44-20.09-.36-1.7-2.23-8.96-1.18-4.57-3.31-8.62c-3.42-6.53-6.21-11.52-10.9-16.92q-9.55-11-22.38-18.69-10-6-21.2-8.21-11.15-2.2-22.77-1.27c-10.09.81-20.01 2.88-28.65 7.54q-13.04 7.04-22.25 17.74-5.58 6.5-6.6 8.19c-3.8 6.32-7.88 13.98-9.69 21.16q-2.34 9.31-2.84 15.32-.59 7.2-.02 18.84a5.46 5.14 36.1 0 0 .24 1.28c3.35 10.16 13.16 13.94 22.71 9.72q7.71-3.41 9.29-13.37c.49-3.06-.14-6.51.21-9.72q2.59-23.8 21.75-36.24 3.02-1.96 7.21-3.59 5.57-2.18 7.65-2.48 19.36-2.88 34 8.2c6.66 5.03 13.19 12.81 15.99 21.26q2 6.05 2.55 9.7 1.59 10.5-2.53 20.72-7.31 18.12-25.77 25.7c-5.14 2.11-10.19 3.68-14.6 6.31q-16.45 9.85-16.56 30.18-.11 20.95 0 33.57c.03 3.38-1.63 4.3-4.56 5.49q-1.15.47-3.38 1.62-6.45 3.32-21.99 11.46-5.65 2.95-11.72 6.13-44.01 23.01-86.68 45.94c-2.22 1.19-4.07 1.85-6.44 1.77q-3.03-.1-6.7-.3a5.28 5.25-49 0 0-1.25.09l-7.71 1.57a3.55 3.4 25.6 0 0-.73.24q-7.18 3.28-9.21 4.38-3.81 2.05-20.64 11.18-8.95 4.86-17.18 9.08-17.44 8.95-34.85 17.6-.48.23-3.35 1.56-4.16 1.93-7.78 4.79c-3.69 2.9-4.23 7.23-8.14 9.35q-17.91 9.71-47.45 25.32-6.94 3.67-13.63 7.44-5.74 3.23-9.3 4.93-.23.1-9.29 4.92-4.28 2.27-7.7 4.9-5.7 4.38-7.07 5.81-5.27 5.49-7.23 9.02-12.34 22.15-6.15 45.3 3.2 11.97 10.42 19.91 7.65 8.4 18.27 13.18 7.92 3.56 16.15 3.91l58.31-.14q1.43 0 8.42-.11 11.25-.17 13.32.17l2.01.4a1.17 1.16 4.5 0 1 .94 1.09q.17 3.78-.33 8.25-1.09 9.75-1.91 16.57a5.96 5.81-34.8 0 1-.16.83q-.64 2.31-.86 3.83-7.96 56.61-44.78 99.93-3.77 4.43-16.42 16.68-2.68 2.59-5.96 5.38c-4.96 4.2-8.54 10.78-8.64 16.6-.24 12.46.54 27.75.47 41.92-.24 46.77.02 82.12.02 133.33q0 123.81-.04 287.79c0 15.02-.41 30.2-.51 42.57-.04 5.41 1.16 9.33 3.53 13.66 3.88 7.08 11.26 9.49 18.4 11.62 13.41 4 29.31 7.79 47.18 11.76q31.53 7 71.01 12.84 19.81 2.93 35.34 5.02c4.9.66 9.82.47 13.79 1.32 2.17.47 4.77.11 7.57.67q2.7.54 5.64.77 11.07.9 33.62 2.77 13.51 1.12 27.64 1.8 22.15 1.08 27.67 1.23 21.72.57 56.5.48 4.09-.01 33.12-1.03 7.01-.25 12.29-.69c8.65-.71 15.94-.64 25.1-1.6q3.78-.4 12.8-.98 11.96-.77 43.83-4.22 15.66-1.69 32.16-4.28 31.76-4.97 32.03-5.02 33.36-6.05 38.15-7.12c6.97-1.56 17.32-4.15 30.18-7.14q9.89-2.3 20.97-5.78 12.09-3.81 15.34-5.85 6.71-4.22 9.71-12.97.74-2.17.74-7.94-.04-153.96 0-503.25 0-6.94-2.85-11.75-2.14-3.6-8.41-8.75c-9.86-8.1-18.4-17.46-26.32-27.3q-11.86-14.71-22.47-36.51-2.39-4.92-5.52-13.84-3.98-11.36-4.79-14.12-6.87-23.45-8.86-46.87-.17-2.01-.64-4.65c-.36-1.99-.99-7.49 2.11-7.46q9.09.07 19.27-.34a4.47 4.45-40.4 0 1 1.03.08q.92.18 1.29.18 7.18.04 51 .2c10.1.03 17.03-.77 25.37-4.55q13.67-6.2 21.75-18.84c3.49-5.47 6.73-11.74 7.51-18.26q.78-6.56 1.15-7.83a2.61 2.59-37.6 0 0 .12-.9q-.45-12.7-1.82-17.44-6.12-21.21-25.27-32.34-10.06-5.84-23.83-13.01-1.82-.95-9.72-5.12-23.63-12.45-47.48-25.61-2.08-1.14-5.97-6.99a5.82 5.2-86.8 0 0-.55-.69q-3.39-3.58-6.85-5.25-5.25-2.53-10.55-5.22-21.93-11.16-44.93-23.3-9.06-4.78-28.85-15.59-5.69-3.11-11.66-3.49-1.46-.09-5.69.56-4.44.7-9.29-1.72-5.65-2.82-20.51-10.35-20.75-10.52-41.24-21.24-10.62-5.56-17.97-9.26c-16.99-8.56-34.77-18.18-48.64-25a.75.73-1 0 1-.31-.29"/><path fill="#0b1b26" d="M528.78 294.64a.75.73-1 0 0 .31.29c13.87 6.82 31.65 16.44 48.64 25q7.35 3.7 17.97 9.26 20.49 10.72 41.24 21.24 14.86 7.53 20.51 10.35 4.85 2.42 9.29 1.72 4.23-.65 5.69-.56 5.97.38 11.66 3.49 19.79 10.81 28.85 15.59 23 12.14 44.93 23.3 5.3 2.69 10.55 5.22 3.46 1.67 6.85 5.25a5.82 5.2-86.8 0 1 .55.69q3.89 5.85 5.97 6.99 23.85 13.16 47.48 25.61 7.9 4.17 9.72 5.12 13.77 7.17 23.83 13.01 19.15 11.13 25.27 32.34 1.37 4.74 1.82 17.44a2.61 2.59-37.6 0 1-.12.9q-.37 1.27-1.15 7.83c-.78 6.52-4.02 12.79-7.51 18.26q-8.08 12.64-21.75 18.84c-8.34 3.78-15.27 4.58-25.37 4.55q-43.82-.16-51-.2-.37 0-1.29-.18a4.47 4.45-40.4 0 0-1.03-.08q-10.18.41-19.27.34c-3.1-.03-2.47 5.47-2.11 7.46q.47 2.64.64 4.65 1.99 23.42 8.86 46.87.81 2.76 4.79 14.12 3.13 8.92 5.52 13.84 10.61 21.8 22.47 36.51c7.92 9.84 16.46 19.2 26.32 27.3q6.27 5.15 8.41 8.75 2.85 4.81 2.85 11.75-.04 349.29 0 503.25 0 5.77-.74 7.94-3 8.75-9.71 12.97-3.25 2.04-15.34 5.85-11.08 3.48-20.97 5.78c-12.86 2.99-23.21 5.58-30.18 7.14q-4.79 1.07-38.15 7.12-.27.05-32.03 5.02-16.5 2.59-32.16 4.28-31.87 3.45-43.83 4.22-9.02.58-12.8.98c-9.16.96-16.45.89-25.1 1.6q-5.28.44-12.29.69-29.03 1.02-33.12 1.03-34.78.09-56.5-.48-5.52-.15-27.67-1.23-14.13-.68-27.64-1.8-22.55-1.87-33.62-2.77-2.94-.23-5.64-.77c-2.8-.56-5.4-.2-7.57-.67-3.97-.85-8.89-.66-13.79-1.32q-15.53-2.09-35.34-5.02-39.48-5.84-71.01-12.84c-17.87-3.97-33.77-7.76-47.18-11.76-7.14-2.13-14.52-4.54-18.4-11.62-2.37-4.33-3.57-8.25-3.53-13.66.1-12.37.51-27.55.51-42.57q.04-163.98.04-287.79c0-51.21-.26-86.56-.02-133.33.07-14.17-.71-29.46-.47-41.92.1-5.82 3.68-12.4 8.64-16.6q3.28-2.79 5.96-5.38 12.65-12.25 16.42-16.68 36.82-43.32 44.78-99.93.22-1.52.86-3.83a5.96 5.81-34.8 0 0 .16-.83q.82-6.82 1.91-16.57.5-4.47.33-8.25a1.17 1.16 4.5 0 0-.94-1.09l-2.01-.4q-2.07-.34-13.32-.17-6.99.11-8.42.11l-58.31.14q-8.23-.35-16.15-3.91-10.62-4.78-18.27-13.18-7.22-7.94-10.42-19.91-6.19-23.15 6.15-45.3 1.96-3.53 7.23-9.02 1.37-1.43 7.07-5.81 3.42-2.63 7.7-4.9 9.06-4.82 9.29-4.92 3.56-1.7 9.3-4.93 6.69-3.77 13.63-7.44 29.54-15.61 47.45-25.32c3.91-2.12 4.45-6.45 8.14-9.35q3.62-2.86 7.78-4.79 2.87-1.33 3.35-1.56 17.41-8.65 34.85-17.6 8.23-4.22 17.18-9.08 16.83-9.13 20.64-11.18 2.03-1.1 9.21-4.38a3.55 3.4 25.6 0 1 .73-.24l7.71-1.57a5.28 5.25-49 0 1 1.25-.09q3.67.2 6.7.3c2.37.08 4.22-.58 6.44-1.77q42.67-22.93 86.68-45.94 6.07-3.18 11.72-6.13 15.54-8.14 21.99-11.46 2.23-1.15 3.38-1.62c2.93-1.19 4.59-2.11 4.56-5.49q-.11-12.62 0-33.57.11-20.33 16.56-30.18c4.41-2.63 9.46-4.2 14.6-6.31q18.46-7.58 25.77-25.7 4.12-10.22 2.53-20.72-.55-3.65-2.55-9.7c-2.8-8.45-9.33-16.23-15.99-21.26q-14.64-11.08-34-8.2-2.08.3-7.65 2.48-4.19 1.63-7.21 3.59-19.16 12.44-21.75 36.24c-.35 3.21.28 6.66-.21 9.72q-1.58 9.96-9.29 13.37c-9.55 4.22-19.36.44-22.71-9.72a5.46 5.14 36.1 0 1-.24-1.28q-.57-11.64.02-18.84.5-6.01 2.84-15.32c1.81-7.18 5.89-14.84 9.69-21.16q1.02-1.69 6.6-8.19 9.21-10.7 22.25-17.74c8.64-4.66 18.56-6.73 28.65-7.54q11.62-.93 22.77 1.27 11.2 2.21 21.2 8.21 12.83 7.69 22.38 18.69c4.69 5.4 7.48 10.39 10.9 16.92q2.13 4.05 3.31 8.62 1.87 7.26 2.23 8.96 2.06 9.91 1.44 20.09-.36 5.94-.44 6.56-2.49 20.48-13.24 35.96-9.14 13.15-25.04 22.39c-3.42 1.99-9.26 4.19-12.41 5.32-6.56 2.35-9.59 5.33-9.86 12.45q-.66 17.58.16 26.33.14 1.45 1.2 3.15m-132.73 89.73a.96.96 0 0 0 .26 1.23q9.1 7.01 14.29 10.67 5.57 3.93 12.46 7.59 7.97 4.23 13.08 6.45 20.01 8.66 43.59 13.03 2.44.45 14.66 1.65c9.61.95 18.31.2 27.49.41q7.08.16 12.72-.53 15.78-1.94 25.51-4.8c9.77-2.87 21.88-6.54 32.86-11.88q17.43-8.49 34.2-21.93a1.81 1.8 38.9 0 0-.33-3.02q-22.8-11.38-56.12-28.4-24.84-12.69-57.48-29.55-2.07-1.07-3.97-.08-20.93 10.89-22.97 11.82c-3.69 1.69-6.58 3.77-9.97 5.33q-5.14 2.36-8.7 4.37-4.25 2.4-8.56 4.61-46.13 23.56-60.37 30.82-1.98 1.01-2.65 2.21m22.29 78.15q18.31 14.57 39.63 23.28 33.92 13.85 69.89 10.51c24.44-2.28 47.7-11.14 68.53-24.41q6.75-4.3 12.08-9.72 4.33-2.15 9.03-6.42 20.68-18.78 33.85-41.9 4.42-7.77 7.97-14.34a.24.24 0 0 0-.39-.28c-4.39 4.87-8.9 9.54-14.28 13.96q-38.45 31.51-87.22 40.97-28.26 5.48-57.72 3.81-65.29-3.73-117.05-43.44a87.2 87.2 0 0 1-15.15-14.94.31.3-77.6 0 0-.51.33q16.12 32.42 43.29 56.49 1.29 1.14 4.06 3 2.34 1.57 3.99 3.1M296.4 423.59l-19.82 9.7a1.13 1.13 0 0 0-.56 1.4q17.95 48.77 19.91 99.56 1.12 29.18-1.57 54.24-2.95 27.52-12.02 54.58-20.14 60.09-67.62 100.67a2.88 2.88 0 0 0-1.01 2.21l.07 28.3.09 464.46a.83.83 0 0 0 .62.8c33.14 8.4 69.06 15.45 102.53 20.98q48.37 8 95.71 11.71 12.67.99 33.19 1.96 27.08 1.27 33.21 1.42c33.77.81 67.92.04 102.62-1.91q115.08-6.44 227.88-34.29a.99.99 0 0 0 .75-.96l-.11-463.34.09-29.23a2.24 2.2 20.5 0 0-.79-1.69q-50.79-42.69-70.67-106.78-4.05-13.03-6.18-23.86-4.44-22.55-5.51-47.01-2.99-68.32 19.73-131.83a1.19 1.18-67.4 0 0-.6-1.46l-19.81-9.59q-.59-.59-1.17-.9-19.47-10.69-36.67-18.96a1.32 1.32 0 0 0-1.83.78q-9.76 30.42-30.13 55.21c-20.96 25.53-48.93 45.86-80.43 56.8q-35.67 12.38-73.27 10.38-28.85-1.54-58.41-12.73c-33.72-12.77-61.67-34.61-82.9-63.46q-16-21.74-24.72-47.71a.79.79 0 0 0-1.11-.45q-18.97 9.67-35.37 18.19-1.43.74-4.12 2.81m464.98 109.26q2.25.19 4.87.18 39.72-.2 68.76.03c5.69.04 12.09-.51 16.4-3.96q5.83-4.68 7.1-10.99c1.94-9.6-2.35-18.08-10.89-22.47-6.24-3.2-10.79-4.88-16.24-8.23-3.77-2.31-8.52-4.17-12.21-6.13q-7.9-4.23-15.79-7.99c-1.87-.89-3.65-2.25-5.49-3.2q-12.82-6.62-22.99-11.62a1.67 1.66-67.2 0 0-2.31.95q-3.5 10.11-5.61 19.58c-.5 2.2-1.57 4.41-1.9 6.96q-.38 2.93-1.82 7.66a4.46 4.42-35.3 0 0-.18 1.02q-.09 1.39-1.54 11.38-1.12 7.7-1.61 19c-.1 2.35-.93 3.98-.35 6.31a2.03 2.01-4.6 0 0 1.8 1.52m-497.98-.56a.65.64-5.4 0 0 .53-.63q-.01-5.26-.39-9.97-2.4-29.36-10.93-57.06-.46-1.5-1.99-5.34a.64.63 74.3 0 0-.7-.4q-2.48.44-3.83 1.19-12.1 6.69-44.53 23.26-14.72 7.53-25.89 13.02c-9.13 4.5-12.38 15.38-9.22 24.3q2.08 5.89 6.72 8.98 4.75 3.17 10.84 3.21 51.98.37 74.83-.07 2-.04 4.56-.49"/><path fill="#000001" d="M396.05 384.37q.67-1.2 2.65-2.21 14.24-7.26 60.37-30.82 4.31-2.21 8.56-4.61 3.56-2.01 8.7-4.37c3.39-1.56 6.28-3.64 9.97-5.33q2.04-.93 22.97-11.82 1.9-.99 3.97.08 32.64 16.86 57.48 29.55 33.32 17.02 56.12 28.4a1.81 1.8 38.9 0 1 .33 3.02q-16.77 13.44-34.2 21.93c-10.98 5.34-23.09 9.01-32.86 11.88q-9.73 2.86-25.51 4.8-5.64.69-12.72.53c-9.18-.21-17.88.54-27.49-.41q-12.22-1.2-14.66-1.65-23.58-4.37-43.59-13.03-5.11-2.22-13.08-6.45-6.89-3.66-12.46-7.59-5.19-3.66-14.29-10.67a.96.96 0 0 1-.26-1.23m1.94.68q11.77 8.99 14.32 10.64 29.25 19.03 64.22 25.21 13.51 2.39 22.23 2.94 5.62.35 24.95.1c3.71-.04 6.75-.68 10.01-1q30.3-2.9 58.26-16.02 18.42-8.65 34.21-21.77a.3.3 0 0 0-.06-.49l-114.65-58.41a.71.69-44.2 0 0-.65 0l-112.78 58.08a.43.43 0 0 0-.06.72"/><path fill="#fbd61c" fill-opacity=".996" d="M608.47 462.18q-8.84 3.03-16.56 5.86-38.11 13.91-79.15 13.8-25.67-.07-50.71-5.46-14.76-3.17-26.04-7.66-10.4-4.14-17.67-6.2-1.65-1.53-3.99-3.1-2.77-1.86-4.06-3-27.17-24.07-43.29-56.49a.31.3-77.6 0 1 .51-.33 87.2 87.2 0 0 0 15.15 14.94q51.76 39.71 117.05 43.44 29.46 1.67 57.72-3.81 48.77-9.46 87.22-40.97c5.38-4.42 9.89-9.09 14.28-13.96a.24.24 0 0 1 .39.28q-3.55 6.57-7.97 14.34-13.17 23.12-33.85 41.9-4.7 4.27-9.03 6.42m-234.68-52.93q4.4 8.6 9.49 15.77 2.32 3.27 4.46 5.74c3.94 4.56 7.43 9.28 11.54 13.26q3.21 3.1 8.53 8.5 2.02 2.06 3.41 2.97c2.43 1.59 3.82 3.29 6.52 4.67q1.66.85 3.19 1.46 10.7 4.24 21.02 7.94 7.94 2.84 23.02 5.93l9.22 1.87q3.37.68 14.5 1.96 6.59.77 14.63.79 21.08.07 26.17-.2 29.11-1.53 60.56-12.35 10.92-3.76 19.42-7.63 3.39-1.54 6.3-4.16 14.19-12.76 25.78-28.92 6.3-8.8 11.21-18.36a.13.13 0 0 0-.21-.16q-1.77 1.6-11.46 9.25-1.36 1.07-14.37 10.11-6.5 4.52-18.4 10.57-10.65 5.42-27.38 10.99-12.54 4.17-23.59 6.12-11.95 2.11-24.11 3.55c-20.33 2.42-40.7.58-60.84-3.04q-17.53-3.15-32.9-8.75-36.14-13.16-65.51-38.04a.13.13 0 0 0-.2.16"/><path fill="#383968" d="M726.53 423.63c-16.96 46.16-24.07 96.53-21.71 145.11q1.3 26.91 5.76 49.24 12 60.18 49.42 108.76 13.5 17.54 31.11 33.4 9.84 8.88 19.16 14.94l.11 463.34a.99.99 0 0 1-.75.96q-112.8 27.85-227.88 34.29c-34.7 1.95-68.85 2.72-102.62 1.91q-6.13-.15-33.21-1.42-20.52-.97-33.19-1.96-47.34-3.71-95.71-11.71c-33.47-5.53-69.39-12.58-102.53-20.98a.83.83 0 0 1-.62-.8l-.09-464.46q7.71-5.34 14.6-11.37c44.02-38.52 74.28-91.67 84.69-149.19q5.65-31.22 5.46-66.01-.02-5.31-.42-11.85l-.73-11.83q-3.24-51.8-20.98-100.41 2.69-2.07 4.12-2.81 16.4-8.52 35.37-18.19a.79.79 0 0 1 1.11.45q8.72 25.97 24.72 47.71c21.23 28.85 49.18 50.69 82.9 63.46q29.56 11.19 58.41 12.73 37.6 2 73.27-10.38c31.5-10.94 59.47-31.27 80.43-56.8q20.37-24.79 30.13-55.21a1.32 1.32 0 0 1 1.83-.78q17.2 8.27 36.67 18.96.58.31 1.17.9M540.98 916.16q4.28-.13 10.03-.21c5.24-.07 9.67-3.64 9.39-9.07q-.47-9.1-.08-20.11.12-3.4 1.21-7 3.75-12.32 12.11-23.14 5.7-7.36 18.69-22.18c12.76-14.57 21.6-26.3 28.63-41.51q10.31-22.33 11.81-46.8 1.64-26.75-6.35-47.76-9.35-24.61-29.95-41.61-14.1-11.64-34.97-19.57c-15.88-6.03-35.32-8.42-51.75-7.94q-35.85 1.06-66.45 20.37c-28.78 18.15-46.85 49.08-50.14 82.87-.57 5.89-.53 15.12-.62 20-.15 7.55.49 13.14 8.3 14.77a1.74 1.56 48.2 0 0 .36.04q36.44-.2 76.81-.15 7.74.01 10.6-6.98.75-1.82.81-6.43c.12-9.34.65-17.28 7.97-23.41 8.9-7.46 21.51-6.1 28.36 3.28 5.52 7.54 3.73 20.64-.13 28.51-4.51 9.19-10.94 17.48-17.74 25.51-7.69 9.08-15.85 17.78-23.04 26.94q-12.28 15.63-17.74 34.66-3.38 11.82-4.32 28.81-1.01 18.37-.8 29.2c.11 5.67 5.79 8.89 10.93 8.74q.96-.02 2.15-1.1a1.92 1.87 15.7 0 1 .79-.43q1.18-.34 3.18-.37 20.34-.4 57.47-.11.89.01 8.34.28a.14.14 0 0 1 .14.12l.04.32a.31.3 83.2 0 1-.26.34l-4.12.57a.01.01 0 0 0-.01.01l.02.25a.32.32 0 0 0 .33.29m-31.16 129.99c20.07.59 37.6-9.74 48.13-26.45q7.44-11.81 8.17-25.21c1.15-21.13-6.75-39-24.67-50.72-11.16-7.3-25.42-9.81-38.7-7.92-16.36 2.33-30.34 12.15-38.71 26.21q-5.86 9.85-7.01 22.59c-1.69 18.88 4.38 36.09 18.09 48.33q9.64 8.61 23.83 11.97 4.27 1.01 10.87 1.2"/><path fill="#ee9e22" d="M373.79 409.25a.13.13 0 0 1 .2-.16q29.37 24.88 65.51 38.04 15.37 5.6 32.9 8.75c20.14 3.62 40.51 5.46 60.84 3.04q12.16-1.44 24.11-3.55 11.05-1.95 23.59-6.12 16.73-5.57 27.38-10.99 11.9-6.05 18.4-10.57 13.01-9.04 14.37-10.11 9.69-7.65 11.46-9.25a.13.13 0 0 1 .21.16q-4.91 9.56-11.21 18.36-11.59 16.16-25.78 28.92-2.91 2.62-6.3 4.16-8.5 3.87-19.42 7.63-31.45 10.82-60.56 12.35-5.09.27-26.17.2-8.04-.02-14.63-.79-11.13-1.28-14.5-1.96l-9.22-1.87q-15.08-3.09-23.02-5.93-10.32-3.7-21.02-7.94-1.53-.61-3.19-1.46c-2.7-1.38-4.09-3.08-6.52-4.67q-1.39-.91-3.41-2.97-5.32-5.4-8.53-8.5c-4.11-3.98-7.6-8.7-11.54-13.26q-2.14-2.47-4.46-5.74-5.09-7.17-9.49-15.77"/><path fill="#fbd61c" fill-opacity=".996" d="M296.4 423.59Q314.14 472.2 317.38 524l.73 11.83q.4 6.54.42 11.85.19 34.79-5.46 66.01c-10.41 57.52-40.67 110.67-84.69 149.19q-6.89 6.03-14.6 11.37l-.07-28.3a2.88 2.88 0 0 1 1.01-2.21q47.48-40.58 67.62-100.67 9.07-27.06 12.02-54.58 2.69-25.06 1.57-54.24-1.96-50.79-19.91-99.56a1.13 1.13 0 0 1 .56-1.4zm-.72 2.27a.67.66-23.6 0 0-.92-.36l-15.65 8.07a2.1 2.09-18.7 0 0-1.11 2.23q.22 1.29.8 2.91c2.55 7.17 6.65 19.36 8.99 29.89q1.3 5.85 3.67 15.41.82 3.31 3.72 23.54.1.65.55 6.9.3 4.03.64 6.87 1.33 11.09 1.35 34.68 0 6.65-1.26 23.19-1.07 14.11-2.56 23.06c-5.55 33.33-17.54 67.04-36.51 95.35q-15.54 23.17-35.93 41.86-2.25 2.06-5.08 4.18-1.48 1.11-1.49 3.05-.05 11.39.04 23.32a.88.88 0 0 0 1.03.86q.63-.11 1.59-.82 5.84-4.37 14.34-11.98 7.48-6.7 13.38-13.02 28.98-31.05 46.79-69.72 2.58-5.59 5.6-13.33 4.35-11.15 5.1-13.51 2.97-9.36 6.02-21.25c4.37-17.01 6.03-34.24 7.62-51.68 1.16-12.74.57-25.75.57-38.77 0-4.27-.51-7.36-.84-12.11-.25-3.53.12-6.79-.81-10.1a4.78 4.76-51.2 0 1-.17-1.59q.1-1.63-.77-8.31-3.26-24.76-5.63-33.92-1.32-5.1-2.92-12.09c-2.58-11.3-6.32-22.39-10.15-32.81m514.59 349.22q-9.32-6.06-19.16-14.94-17.61-15.86-31.11-33.4-37.42-48.58-49.42-108.76-4.46-22.33-5.76-49.24c-2.36-48.58 4.75-98.95 21.71-145.11l19.81 9.59a1.19 1.18-67.4 0 1 .6 1.46q-22.72 63.51-19.73 131.83 1.07 24.46 5.51 47.01 2.13 10.83 6.18 23.86 19.88 64.09 70.67 106.78a2.24 2.2 20.5 0 1 .79 1.69zm-83.24-348.37c-6.62 17.87-10.92 35.09-14.82 53.85q-1.29 6.18-2.35 14.55-1.5 11.81-1.72 14.65c-.36 4.64-.91 7.54-1.23 11.67q-1.55 20.24-1.05 45.23c.09 4.39 1.33 8.79 1.03 13.25a8.47 8.43-48.7 0 0 .14 2.24q.93 4.68.93 9.36c-.01 2.18.92 3.62.93 5.79q0 2.44.42 4.37c.9 4.23 1.57 10.71 2.5 15.41q10.85 55 43.01 100.54 3.47 4.91 5.83 7.82 4.92 6.07 5.99 7.67c1.28 1.9 3.33 3.37 4.77 5.28q1.38 1.86 3.48 3.98 9.92 10.08 13.98 14.05c5.38 5.26 9.97 8.73 16.64 14.18q1.08.88 2.73 1.43a.69.69 0 0 0 .91-.65v-24.72a2.83 2.81 19.7 0 0-1.05-2.19q-3.65-2.95-3.91-3.18-4.4-3.82-14.78-14.32-4.09-4.14-7.69-8.52-6.15-7.49-7.26-8.92-18.1-23.43-29.6-51.61-9.27-22.74-13.77-45.2-1.4-6.98-3.21-22.09c-.28-2.37-.88-5.06-.77-7.92a5.73 5.1-51.1 0 0-.04-.81q-.79-6.38-.88-8.09-1.09-19.38-.81-27.56.54-16.05 2.09-32.07.38-3.87 1.75-13.94 4.26-31.27 15.75-64.01.69-1.97-1.26-2.92-7.34-3.57-14.82-7.34a1.35 1.34-66.6 0 0-1.86.74"/><path fill="#ee9e22" d="M295.68 425.86c3.83 10.42 7.57 21.51 10.15 32.81q1.6 6.99 2.92 12.09 2.37 9.16 5.63 33.92.87 6.68.77 8.31a4.78 4.76-51.2 0 0 .17 1.59c.93 3.31.56 6.57.81 10.1.33 4.75.84 7.84.84 12.11 0 13.02.59 26.03-.57 38.77-1.59 17.44-3.25 34.67-7.62 51.68q-3.05 11.89-6.02 21.25-.75 2.36-5.1 13.51-3.02 7.74-5.6 13.33-17.81 38.67-46.79 69.72-5.9 6.32-13.38 13.02-8.5 7.61-14.34 11.98-.96.71-1.59.82a.88.88 0 0 1-1.03-.86q-.09-11.93-.04-23.32.01-1.94 1.49-3.05 2.83-2.12 5.08-4.18 20.39-18.69 35.93-41.86c18.97-28.31 30.96-62.02 36.51-95.35q1.49-8.95 2.56-23.06 1.26-16.54 1.26-23.19-.02-23.59-1.35-34.68-.34-2.84-.64-6.87-.45-6.25-.55-6.9-2.9-20.23-3.72-23.54-2.37-9.56-3.67-15.41c-2.34-10.53-6.44-22.72-8.99-29.89q-.58-1.62-.8-2.91a2.1 2.09-18.7 0 1 1.11-2.23l15.65-8.07a.67.66-23.6 0 1 .92.36m431.35.85a1.35 1.34-66.6 0 1 1.86-.74q7.48 3.77 14.82 7.34 1.95.95 1.26 2.92-11.49 32.74-15.75 64.01-1.37 10.07-1.75 13.94-1.55 16.02-2.09 32.07-.28 8.18.81 27.56.09 1.71.88 8.09a5.73 5.1-51.1 0 1 .04.81c-.11 2.86.49 5.55.77 7.92q1.81 15.11 3.21 22.09 4.5 22.46 13.77 45.2 11.5 28.18 29.6 51.61 1.11 1.43 7.26 8.92 3.6 4.38 7.69 8.52 10.38 10.5 14.78 14.32.26.23 3.91 3.18a2.83 2.81 19.7 0 1 1.05 2.19v24.72a.69.69 0 0 1-.91.65q-1.65-.55-2.73-1.43c-6.67-5.45-11.26-8.92-16.64-14.18q-4.06-3.97-13.98-14.05-2.1-2.12-3.48-3.98c-1.44-1.91-3.49-3.38-4.77-5.28q-1.07-1.6-5.99-7.67-2.36-2.91-5.83-7.82-32.16-45.54-43.01-100.54c-.93-4.7-1.6-11.18-2.5-15.41q-.42-1.93-.42-4.37c-.01-2.17-.94-3.61-.93-5.79q0-4.68-.93-9.36a8.47 8.43-48.7 0 1-.14-2.24c.3-4.46-.94-8.86-1.03-13.25q-.5-24.99 1.05-45.23c.32-4.13.87-7.03 1.23-11.67q.22-2.84 1.72-14.65 1.06-8.37 2.35-14.55c3.9-18.76 8.2-35.98 14.82-53.85"/><path fill="#000001" d="M761.38 532.85a2.03 2.01-4.6 0 1-1.8-1.52c-.58-2.33.25-3.96.35-6.31q.49-11.3 1.61-19 1.45-9.99 1.54-11.38a4.46 4.42-35.3 0 1 .18-1.02q1.44-4.73 1.82-7.66c.33-2.55 1.4-4.76 1.9-6.96q2.11-9.47 5.61-19.58a1.67 1.66-67.2 0 1 2.31-.95q10.17 5 22.99 11.62c1.84.95 3.62 2.31 5.49 3.2q7.89 3.76 15.79 7.99c3.69 1.96 8.44 3.82 12.21 6.13 5.45 3.35 10 5.03 16.24 8.23 8.54 4.39 12.83 12.87 10.89 22.47q-1.27 6.31-7.1 10.99c-4.31 3.45-10.71 4-16.4 3.96q-29.04-.23-68.76-.03-2.62.01-4.87-.18m13.08-73.19a.23.22-66 0 0-.31.12q-8.83 25.39-11.68 52.09-.95 8.98-1.62 18.81a.4.4 0 0 0 .4.42q36.22.07 78.24.05 12.83-.01 16.89-11.23c.94-2.59 1.14-7.58.64-9.89q-1.88-8.76-8.63-12.19-32.06-16.32-73.93-38.18M263.4 532.29q-2.56.45-4.56.49-22.85.44-74.83.07-6.09-.04-10.84-3.21-4.64-3.09-6.72-8.98c-3.16-8.92.09-19.8 9.22-24.3q11.17-5.49 25.89-13.02 32.43-16.57 44.53-23.26 1.35-.75 3.83-1.19a.64.63 74.3 0 1 .7.4q1.53 3.84 1.99 5.34 8.53 27.7 10.93 57.06.38 4.71.39 9.97a.65.64-5.4 0 1-.53.63m-14.39-71.84q-41.49 21.61-73.26 37.74-6.69 3.39-8.56 12.07c-.5 2.28-.3 7.23.63 9.79q4.01 11.12 16.71 11.14 41.62.06 77.49.03a.4.4 0 0 0 .4-.42q-.65-9.74-1.58-18.63-2.8-26.45-11.52-51.6a.22.22 0 0 0-.31-.12"/><path fill="#383968" d="M608.47 462.18q-5.33 5.42-12.08 9.72c-20.83 13.27-44.09 22.13-68.53 24.41q-35.97 3.34-69.89-10.51-21.32-8.71-39.63-23.28 7.27 2.06 17.67 6.2 11.28 4.49 26.04 7.66 25.04 5.39 50.71 5.46 41.04.11 79.15-13.8 7.72-2.83 16.56-5.86"/><path fill="#0b1b26" d="M540.98 916.16a.32.32 0 0 1-.33-.29l-.02-.25a.01.01 0 0 1 .01-.01l4.12-.57a.31.3 83.2 0 0 .26-.34l-.04-.32a.14.14 0 0 0-.14-.12q-7.45-.27-8.34-.28-37.13-.29-57.47.11-2 .03-3.18.37a1.92 1.87 15.7 0 0-.79.43q-1.19 1.08-2.15 1.1c-5.14.15-10.82-3.07-10.93-8.74q-.21-10.83.8-29.2.94-16.99 4.32-28.81 5.46-19.03 17.74-34.66c7.19-9.16 15.35-17.86 23.04-26.94 6.8-8.03 13.23-16.32 17.74-25.51 3.86-7.87 5.65-20.97.13-28.51-6.85-9.38-19.46-10.74-28.36-3.28-7.32 6.13-7.85 14.07-7.97 23.41q-.06 4.61-.81 6.43-2.86 6.99-10.6 6.98-40.37-.05-76.81.15a1.74 1.56 48.2 0 1-.36-.04c-7.81-1.63-8.45-7.22-8.3-14.77.09-4.88.05-14.11.62-20 3.29-33.79 21.36-64.72 50.14-82.87q30.6-19.31 66.45-20.37c16.43-.48 35.87 1.91 51.75 7.94q20.87 7.93 34.97 19.57 20.6 17 29.95 41.61 7.99 21.01 6.35 47.76-1.5 24.47-11.81 46.8c-7.03 15.21-15.87 26.94-28.63 41.51q-12.99 14.82-18.69 22.18-8.36 10.82-12.11 23.14-1.09 3.6-1.21 7-.39 11.01.08 20.11c.28 5.43-4.15 9-9.39 9.07q-5.75.08-10.03.21m1.32-20.04q-.47-2.7-.33-6.62c.7-18.88 10.07-34.69 22.13-49.42q3.94-4.82 18.98-21.99c13.16-15.03 23.54-33.03 27.87-51.1q3.51-14.64 3.09-33.18c-.61-26.89-11.26-49.36-32.75-64.88q-27.1-19.57-62.79-20.36c-22.39-.49-42.95 3.7-62.03 14.76-22.38 12.99-37.54 33.26-43 58.41q-2.83 13.02-2.65 27.19a.23.23 0 0 0 .23.22h60.07a.55.54.5 0 0 .55-.53q.46-14.13 6.58-23.9c7.56-12.08 21.27-18.96 35.41-17.45 25.11 2.66 37.8 25.74 33.06 49.13q-1.88 9.32-7.5 18.56-6.38 10.49-12.5 17.27c-8.97 9.92-20.27 21.93-28.62 33.63q-10.16 14.24-14.13 32.05-1.72 7.74-2.25 19.28-.4 8.69-1.43 19.21a.22.22 0 0 0 .22.24h61.35a.45.44-4.9 0 0 .44-.52"/><path fill="#fbd61c" fill-opacity=".996" d="M541.86 896.64h-61.35a.22.22 0 0 1-.22-.24q1.03-10.52 1.43-19.21.53-11.54 2.25-19.28 3.97-17.81 14.13-32.05c8.35-11.7 19.65-23.71 28.62-33.63q6.12-6.78 12.5-17.27 5.62-9.24 7.5-18.56c4.74-23.39-7.95-46.47-33.06-49.13-14.14-1.51-27.85 5.37-35.41 17.45q-6.12 9.77-6.58 23.9a.55.54.5 0 1-.55.53h-60.07a.23.23 0 0 1-.23-.22q-.18-14.17 2.65-27.19c5.46-25.15 20.62-45.42 43-58.41 19.08-11.06 39.64-15.25 62.03-14.76q35.69.79 62.79 20.36c21.49 15.52 32.14 37.99 32.75 64.88q.42 18.54-3.09 33.18c-4.33 18.07-14.71 36.07-27.87 51.1q-15.04 17.17-18.98 21.99c-12.06 14.73-21.43 30.54-22.13 49.42q-.14 3.92.33 6.62a.45.44-4.9 0 1-.44.52M411.87 747.53a.57.57 0 0 0 .57.55h56.72a1.33 1.33 0 0 0 1.33-1.29c.42-14.28 6.75-27.4 18.8-34.97q7.02-4.4 13.44-5.52 12.92-2.24 24.71 3.7 8.84 4.46 14.08 12.18c10.18 14.98 9.5 34.68.63 50.26q-6.28 11.02-11.72 17.26-4.11 4.72-4.89 5.94a3.71 3.63-5.7 0 1-.62.74c-3.51 3.24-6.01 6.75-8.79 9.62q-8.81 9.11-17.05 20.85c-11.09 15.82-15.68 33.39-16.16 52.72-.12 4.91-.47 7.96-1.09 14.22a1.19 1.18 2.8 0 0 1.18 1.3h57.03a.76.76 0 0 0 .76-.82c-.94-11.75 2.41-23.82 8-34.12q5.68-10.48 13.01-19.36 8.75-10.6 11.15-13.1c6.53-6.8 12.44-14.16 17.65-21.08q9.51-12.64 16.25-30.98 3.54-9.65 4.71-19.81 1.27-11.14 1.38-17.06c.33-18.58-4.33-38.11-16.05-52.93q-11.63-14.71-28.32-23.37-20.6-10.68-43.9-12.45c-4.64-.36-9.44-.06-14.48-.16q-4.98-.1-10.87.59-28.63 3.36-51.59 20.05-8.64 6.28-15.76 15.28-16.43 20.76-19.03 47.47-1.18 12.08-1.08 14.29"/><path fill="#ee9e22" d="M411.87 747.53q-.1-2.21 1.08-14.29 2.6-26.71 19.03-47.47 7.12-9 15.76-15.28 22.96-16.69 51.59-20.05 5.89-.69 10.87-.59c5.04.1 9.84-.2 14.48.16q23.3 1.77 43.9 12.45 16.69 8.66 28.32 23.37c11.72 14.82 16.38 34.35 16.05 52.93q-.11 5.92-1.38 17.06-1.17 10.16-4.71 19.81-6.74 18.34-16.25 30.98c-5.21 6.92-11.12 14.28-17.65 21.08q-2.4 2.5-11.15 13.1-7.33 8.88-13.01 19.36c-5.59 10.3-8.94 22.37-8 34.12a.76.76 0 0 1-.76.82h-57.03a1.19 1.18 2.8 0 1-1.18-1.3c.62-6.26.97-9.31 1.09-14.22.48-19.33 5.07-36.9 16.16-52.72q8.24-11.74 17.05-20.85c2.78-2.87 5.28-6.38 8.79-9.62a3.71 3.63-5.7 0 0 .62-.74q.78-1.22 4.89-5.94 5.44-6.24 11.72-17.26c8.87-15.58 9.55-35.28-.63-50.26q-5.24-7.72-14.08-12.18-11.79-5.94-24.71-3.7-6.42 1.12-13.44 5.52c-12.05 7.57-18.38 20.69-18.8 34.97a1.33 1.33 0 0 1-1.33 1.29h-56.72a.57.57 0 0 1-.57-.55"/><path fill="#0b1b26" d="M557.95 1019.7c-10.53 16.71-28.06 27.04-48.13 26.45q-6.6-.19-10.87-1.2-14.19-3.36-23.83-11.97c-13.71-12.24-19.78-29.45-18.09-48.33q1.15-12.74 7.01-22.59c8.37-14.06 22.35-23.88 38.71-26.21 13.28-1.89 27.54.62 38.7 7.92 17.92 11.72 25.82 29.59 24.67 50.72q-.73 13.4-8.17 25.21m-43.04-66.226a36.98 36.55-84.6 0 0-39.868 33.376 36.98 36.55-84.6 0 0 32.908 40.256 36.98 36.55-84.6 0 0 39.868-33.376 36.98 36.55-84.6 0 0-32.908-40.256"/><path fill="#fbd61c" fill-opacity=".996" d="M514.91 953.474a36.98 36.55-84.6 0 1 32.908 40.256 36.98 36.55-84.6 0 1-39.868 33.376 36.98 36.55-84.6 0 1-32.908-40.256 36.98 36.55-84.6 0 1 39.868-33.376m.86 1.283a35.78 35.2-83 0 0-39.298 31.223 35.78 35.2-83 0 0 30.578 39.803 35.78 35.2-83 0 0 39.298-31.223 35.78 35.2-83 0 0-30.577-39.803"/><ellipse fill="#ee9e22" rx="35.78" ry="35.2" transform="rotate(-83 815.353 206.113)"/></symbol></svg>