<svg xmlns="http://www.w3.org/2000/svg"><symbol id="VinylSvg" viewBox="0 0 1024 1024"><g fill="none" stroke-width="2"><path stroke="#0a1c29" d="M104.32 694.13q-.18 1.32-.17 2.64.2 23.68.18 37.73-.15 89.2-.1 91.43.02.95-.32 25.07-.08 5.38 1.52 10.32 8.36 25.95 33.68 32.84 4.38 1.2 11.4 1.22 13.52.06 26.99.04 19.67-.03 700.5-.24c7.14 0 12.42-2.08 18.83-5.34q4.67-2.37 7.57-4.65 14.17-11.15 17.33-29.7.46-2.72.45-13.16c0-9.77.35-17.12.07-26.83q-.15-5.48.04-38.5.2-34.85.06-67.45-.13-30.11-.05-48.59.12-23.98-.21-48.82a3.42 3.14-42.6 0 1 .06-.72q.22-1.1.22-2.41V267.1c0-1.89-.24-4.15-.02-6.44q.15-1.57.04-4.83-.46-14.92-.15-27.66c.1-4.17.05-10.06-.39-13.65q-2.06-17.18-14.64-28.75c-9.13-8.4-20.03-13.14-32.21-13.16q-76.93-.08-689.75-.07-24.94 0-32.75.12c-9.31.15-19.69 2.41-27.58 7.92q-6.28 4.38-8.9 7.2c-7.23 7.77-12.67 20.58-12.14 32.38q.29 6.51.28 9.19-.11 53.94-.03 97.78.02 11.18.02 17.37-.01 149.18.05 299.69.01 14.49.09 17.72c.23 8.81-.43 21.49.06 31.45a4.43 3.99 50.2 0 1-.03.77" vector-effect="non-scaling-stroke"/><path stroke="#083255" d="m121.46 669.97.08 112.14a.89.89 0 0 0 .89.89h781.63a.9.89 90 0 0 .89-.9l.04-563.07" vector-effect="non-scaling-stroke"/><path stroke="#0a1c29" d="M904.99 219.03q.47-2.56.22-3.46-3.64-13.37-14.77-20.65c-6.71-4.4-13.84-5.66-22.19-5.71q-33.24-.18-88.56-.04-2.31.01-35.88 0-490.81-.14-584.03.03-10.39.02-14.84 1.36c-12.93 3.88-24.32 16.95-24.36 31.23q-.11 31.13-.07 99.09.05 79.35.02 158.59 0 9.48.04 180.53 0 6.48.89 9.97" vector-effect="non-scaling-stroke"/><path stroke="#0e2c43" d="M904.99 219.03q-1.11-7.59-5.23-13.78-7.45-11.17-19.76-14.12c-6.51-1.56-15.88-1.22-23.25-1.21q-356.62.17-690-.01c-4.99 0-13.55-.15-18.89.93q-13.43 2.71-21.11 14.35-4.87 7.38-5.07 13.88-.13 4.06-.13 8.18-.09 221.35-.09 442.72" vector-effect="non-scaling-stroke"/><path stroke="#082c4c" d="M122 800.04a.36.36 0 0 0-.36.36q-.36 26.24-.23 48.35.06 9.86 6.28 18.08c4.84 6.39 11.87 11.82 19.81 12.86q4.09.54 6.75.5 11.57-.15 40.69-.13 282.05.21 670.76.07c5.08 0 12.34-.29 17.11-2.21q15.2-6.08 20.64-21.44 1.43-4.05 1.53-10.6.25-16.72-.02-26.94c-.17-6.51.22-11.66.1-17.72a1.2 1.2 0 0 0-1.2-1.18H122" vector-effect="non-scaling-stroke"/><path stroke="#083255" d="M668.29 623.48q.38-2.18 1.44-4.04a2.17 2.1 87.3 0 1 .65-.74q20.33-14.91 34.13-25.94 11.71-9.35 25.04-22.61c3.42-3.41 6.61-7.66 9.91-11.44q3.97-4.55 7.11-8.86c13.69-18.79 24.36-40.35 30.63-62.97 4.91-17.73 8.36-39.78 11.06-53.39 3.71-18.72 9.3-37.84 16.73-56.35q5.61-13.95 8.17-20.94a1.49 1.47 9.6 0 1 1.36-.96q16.8-.17 25.61-14.09 3.77-5.96 6.7-13.33 10.19-25.59 17.31-46.49 6.98-20.5-3.75-36.17c-3.87-5.65-10.1-10.74-15.99-13.98q-16.86-9.26-34.77-10.84c-8.49-.75-17.41.17-24.85 3.46-9.43 4.18-15.99 12.75-20.34 21.88-7.33 15.37-12.2 30.93-17.1 48.88q-1.84 6.72-2.28 12.44c-.88 11.47 4.03 24.54 14.75 29.94q2.33 1.18 9.19 4.05a.77.77 0 0 1 .41 1q-6.75 16.16-11.35 28.8c-6.42 17.62-11.08 31.33-13.73 47.96q-3.83 23.95-5.71 35.17-3.66 21.83-12.09 41.39-9.44 21.88-26.58 41.63-1.64 1.89-4.81 4.19" vector-effect="non-scaling-stroke"/><path stroke="#0e2c43" d="M695.14 541.13q.53-1.7.74-2.67 4.71-21.95 5.1-43.21.34-18.37 0-25c-2.47-47.05-19.16-93.52-45.63-132.1q-19.96-29.09-46.45-52.94-25.44-22.9-58.04-39.85-19.77-10.28-43.18-17.53-52.9-16.4-107.45-11.82-58.19 4.89-109.51 34.25-47.47 27.17-80.89 69.32-50.38 63.55-56.24 146.41-3 42.38 6.04 82.73 16.14 71.97 66.72 126.22 29.78 31.94 67.75 53.61c49.6 28.3 107.64 38.28 163.59 33.01q11.22-1.06 27.08-4.27 36.33-7.37 68.51-24.76 22.86-12.36 44.75-30.26 14.63-11.96 25.36-24.38 11.09-12.84 16.02-19.96c2.88-4.16 6.1-10.58 10.89-14.37q7.74-6.12 11.01-8.76 5.51-4.42 6.98-11.32" vector-effect="non-scaling-stroke"/><path stroke="#0a1c29" d="M695.14 541.13q-9.64 8.79-18.41 15.84-2.34 1.88-6.21 4.36" vector-effect="non-scaling-stroke"/><path stroke="#171c1d" d="M670.52 561.33q.96-5.34 3.25-13.78 4.57-16.85 6.29-33.11 2.1-19.84 2.02-29.16-.08-9.19-1.19-22.95-.99-12.15-3.19-22.8-5.98-28.93-16.63-52.1c-19.24-41.85-49.3-77.83-86.85-105.37q-20.63-15.12-44.25-25.51c-19.71-8.67-41.05-15.45-62.52-18.62-21.34-3.14-43.01-3.91-62.17-2.82q-9.1.52-20.12 1.81c-30.17 3.56-59.87 14.66-86.35 29.91-10.13 5.84-20.83 13.6-30.47 21.01Q248.63 303 233.27 321q-16.33 19.12-28.23 40.09c-22.24 39.18-33.18 84.23-33.07 129.46.03 9.72 1 19.83 2.11 29.4q4.43 38.53 20.53 73.98c11.53 25.4 27.65 48.88 46.2 68.01q10.53 10.86 15.31 15.19 41.45 37.48 94.06 54.27c12.08 3.86 25.22 6.61 38.96 9.22q8.87 1.68 16.62 2.08c21.25 1.1 40.6 1.23 60.8-2q32.64-5.23 62.49-18.63c21.95-9.86 40.11-20.14 56.99-35.61" vector-effect="non-scaling-stroke"/><path stroke="#0a1c29" d="M586.04 686.46q6.93 1.95 12.62-2.78 16.51-13.72 43.05-33.88c3.39-2.58 5.91-5.75 9.65-8.55q4.24-3.18 8.74-6.66 5.66-4.37 7.2-11.39a.49.49 0 0 1 .8-.27q.09.08.19.55" vector-effect="non-scaling-stroke"/><path stroke="#11222f" d="M586.04 686.46c-2.83-3.8-5.63-8.06-8.64-11.31-6.72-7.26-11.66-14.73-18.64-21.93-5.52-5.69-8.88-12.09-1.44-17.92q33.33-26.09 61.34-48.21c7.46-5.89 12.51-10.34 20.4-3.76a2.24 2.23-43.8 0 0 2.79.05l28.67-22.05" vector-effect="non-scaling-stroke"/><path stroke="#083255" d="M864.34 745.4a8.49 8.49 0 0 0-8.49-8.49h-198.4a8.49 8.49 0 0 0-8.49 8.49v.16a8.49 8.49 0 0 0 8.49 8.49h198.4a8.49 8.49 0 0 0 8.49-8.49v-.16" vector-effect="non-scaling-stroke"/><path stroke="#784d29" d="M821.33 333.05c5.29-4.39 6.48-9.02 9.15-15.82q6.52-16.63 14.33-38.41c3.51-9.82 4.54-20.35-4.22-27.64-6.49-5.41-15.11-8.58-23.38-10.91q-6.42-1.81-16.02-1.32c-9.75.49-14.61 5.8-18.72 14.03-6.62 13.26-9.64 24.58-15.29 42.95-2.92 9.51-5.76 22.75 5.71 27.18q5.95 2.3 33.91 12.34 8.12 2.92 14.53-2.4M660.86 605.33q14.4-10.54 24.14-17.82c18.75-14.01 35.77-29.98 49.73-48.79q18.88-25.45 27.31-55.92 5.35-19.33 8.93-43.4 3.5-23.57 11.64-47.82 6.16-18.36 14.22-38.31a1.27 1.26-69.6 0 0-.76-1.67l-10-3.39a1.29 1.28 21.1 0 0-1.59.7q-10.74 24.53-18.57 51.22c-4.77 16.24-6.69 30.58-9.84 49.94q-3.81 23.46-11.83 44.91c-7.23 19.36-20.41 39.48-36.03 55.47q-12.5 12.79-21.8 20.22-13.8 11.01-32.84 24.75a1.16 1.15-38.4 0 0-.2 1.69l7.02 8.17a.35.35 0 0 0 .47.05m-29.41-4.52a.84.84 0 0 0-1.15-.11l-55.66 43.23a.84.84 0 0 0-.12 1.21l17.53 20.36a.84.84 0 0 0 1.15.12l55.67-43.23a.84.84 0 0 0 .12-1.21l-17.54-20.37" vector-effect="non-scaling-stroke"/><path stroke="#171c1d" d="M330.31 293.34c11.82-5.27 5.23-20.99-7.47-16.01-9.31 3.66-16.46 8.28-26.84 14.67q-9.72 5.99-16.67 11.51-15.19 12.06-24.01 21.33-44.59 46.89-56.62 111.91-2 10.8-2.75 20.25c-.53 6.65-1.15 16.47 7.14 17.41 8.23.92 10.11-7.12 10.68-13.68 2.96-34.27 14.34-67.06 33.77-95.93 20.83-30.93 49.15-56.49 82.77-71.46m101.06 305.79c33.91-.4 67.57-17.47 87.16-45.35q19.92-28.36 20.01-63.05c.05-19.27-5.4-38-14.32-54.97-18.96-36.1-55.5-56.13-96.19-55.87q-31.41.2-56.8 16.54-38.38 24.7-47.37 68.36c-2.7 13.12-2.78 29.33-1.14 42.52q1.65 13.18 8.28 28.27 16.08 36.61 51.85 53.62c15.46 7.35 31.06 10.14 48.52 9.93" vector-effect="non-scaling-stroke"/><path stroke="#7d4717" d="M340.23 480.48c-2.88 30.91 8.87 60.37 32.79 79.71 20.27 16.39 45.16 22.25 70.32 18.27 34.8-5.49 64.97-31.21 73.03-65.89 8.62-37.09-3.8-74.78-35.27-96.96q-17.04-12.01-37.54-15.57c-24.79-4.31-51.55 2.3-70.94 19.09q-29.03 25.14-32.39 61.35" vector-effect="non-scaling-stroke"/><path stroke="#7d4717" d="M447.285 471.519a25.95 25.67-41.4 0 0-36.44-2.094 25.95 25.67-41.4 0 0-2.49 36.416 25.95 25.67-41.4 0 0 36.44 2.094 25.95 25.67-41.4 0 0 2.49-36.416" vector-effect="non-scaling-stroke"/><path stroke="#171c1d" d="M425.745 478.574a10.17 9.72-101.2 0 0-7.56 11.864 10.17 9.72-101.2 0 0 11.51 8.088 10.17 9.72-101.2 0 0 7.56-11.864 10.17 9.72-101.2 0 0-11.51-8.088" vector-effect="non-scaling-stroke"/><path stroke="#082c4c" d="M167.02 829.14a33.4 32.82-166.3 0 0 24.677 39.796 33.4 32.82-166.3 0 0 40.223-23.976 33.4 32.82-166.3 0 0-24.677-39.796 33.4 32.82-166.3 0 0-40.223 23.976" vector-effect="non-scaling-stroke"/><path stroke="#7c573a" d="M336.93 837.31a9.06 9.06 0 0 0-9.044-9.076l-49.9-.088a9.06 9.06 0 0 0-9.075 9.045l-.001.54a9.06 9.06 0 0 0 9.044 9.075l49.9.087a9.06 9.06 0 0 0 9.076-9.044v-.54" vector-effect="non-scaling-stroke"/><path stroke="#784d29" d="M175.219 827.942a26.03 25.74-159 0 0 15.077 33.358 26.03 25.74-159 0 0 33.525-14.702 26.03 25.74-159 0 0-15.077-33.358 26.03 25.74-159 0 0-33.525 14.702" vector-effect="non-scaling-stroke"/></g><path fill="#0f1517" d="M102.03 848.14V219.88a48.83 48.83 0 0 1 48.83-48.83H875.1a48.83 48.83 0 0 1 48.83 48.83v628.26a48.83 48.83 0 0 1-48.83 48.83H150.86a48.83 48.83 0 0 1-48.83-48.83m2.29-154.01q-.18 1.32-.17 2.64.2 23.68.18 37.73-.15 89.2-.1 91.43.02.95-.32 25.07-.08 5.38 1.52 10.32 8.36 25.95 33.68 32.84 4.38 1.2 11.4 1.22 13.52.06 26.99.04 19.67-.03 700.5-.24c7.14 0 12.42-2.08 18.83-5.34q4.67-2.37 7.57-4.65 14.17-11.15 17.33-29.7.46-2.72.45-13.16c0-9.77.35-17.12.07-26.83q-.15-5.48.04-38.5.2-34.85.06-67.45-.13-30.11-.05-48.59.12-23.98-.21-48.82a3.42 3.14-42.6 0 1 .06-.72q.22-1.1.22-2.41V267.1c0-1.89-.24-4.15-.02-6.44q.15-1.57.04-4.83-.46-14.92-.15-27.66c.1-4.17.05-10.06-.39-13.65q-2.06-17.18-14.64-28.75c-9.13-8.4-20.03-13.14-32.21-13.16q-76.93-.08-689.75-.07-24.94 0-32.75.12c-9.31.15-19.69 2.41-27.58 7.92q-6.28 4.38-8.9 7.2c-7.23 7.77-12.67 20.58-12.14 32.38q.29 6.51.28 9.19-.11 53.94-.03 97.78.02 11.18.02 17.37-.01 149.18.05 299.69.01 14.49.09 17.72c.23 8.81-.43 21.49.06 31.45a4.43 3.99 50.2 0 1-.03.77"/><path fill="#04223b" d="M104.35 693.36c-.49-9.96.17-22.64-.06-31.45q-.08-3.23-.09-17.72-.06-150.51-.05-299.69 0-6.19-.02-17.37-.08-43.84.03-97.78.01-2.68-.28-9.19c-.53-11.8 4.91-24.61 12.14-32.38q2.62-2.82 8.9-7.2c7.89-5.51 18.27-7.77 27.58-7.92q7.81-.12 32.75-.12 612.82-.01 689.75.07c12.18.02 23.08 4.76 32.21 13.16q12.58 11.57 14.64 28.75c.44 3.59.49 9.48.39 13.65q-.31 12.74.15 27.66.11 3.26-.04 4.83c-.22 2.29.02 4.55.02 6.44v341.91q0 1.31-.22 2.41a3.42 3.14-42.6 0 0-.06.72q.33 24.84.21 48.82-.08 18.48.05 48.59.14 32.6-.06 67.45-.19 33.02-.04 38.5c.28 9.71-.07 17.06-.07 26.83q.01 10.44-.45 13.16-3.16 18.55-17.33 29.7-2.9 2.28-7.57 4.65c-6.41 3.26-11.69 5.34-18.83 5.34q-680.83.21-700.5.24-13.47.02-26.99-.04-7.02-.02-11.4-1.22-25.32-6.89-33.68-32.84-1.6-4.94-1.52-10.32.34-24.12.32-25.07-.05-2.23.1-91.43.02-14.05-.18-37.73-.01-1.32.17-2.64a4.43 3.99 50.2 0 0 .03-.77m17.11-23.39.08 112.14a.89.89 0 0 0 .89.89h781.63a.9.89 90 0 0 .89-.9l.04-563.07q.47-2.56.22-3.46-3.64-13.37-14.77-20.65c-6.71-4.4-13.84-5.66-22.19-5.71q-33.24-.18-88.56-.04-2.31.01-35.88 0-490.81-.14-584.03.03-10.39.02-14.84 1.36c-12.93 3.88-24.32 16.95-24.36 31.23q-.11 31.13-.07 99.09.05 79.35.02 158.59 0 9.48.04 180.53 0 6.48.89 9.97m.54 130.07a.36.36 0 0 0-.36.36q-.36 26.24-.23 48.35.06 9.86 6.28 18.08c4.84 6.39 11.87 11.82 19.81 12.86q4.09.54 6.75.5 11.57-.15 40.69-.13 282.05.21 670.76.07c5.08 0 12.34-.29 17.11-2.21q15.2-6.08 20.64-21.44 1.43-4.05 1.53-10.6.25-16.72-.02-26.94c-.17-6.51.22-11.66.1-17.72a1.2 1.2 0 0 0-1.2-1.18z"/><path fill="#0f1517" d="M904.99 219.03q-1.11-7.59-5.23-13.78-7.45-11.17-19.76-14.12c-6.51-1.56-15.88-1.22-23.25-1.21q-356.62.17-690-.01c-4.99 0-13.55-.15-18.89.93q-13.43 2.71-21.11 14.35-4.87 7.38-5.07 13.88-.13 4.06-.13 8.18-.09 221.35-.09 442.72-.89-3.49-.89-9.97-.04-171.05-.04-180.53.03-79.24-.02-158.59-.04-67.96.07-99.09c.04-14.28 11.43-27.35 24.36-31.23q4.45-1.34 14.84-1.36 93.22-.17 584.03-.03 33.57.01 35.88 0 55.32-.14 88.56.04c8.35.05 15.48 1.31 22.19 5.71q11.13 7.28 14.77 20.65.25.9-.22 3.46"/><path fill="#0c426f" d="m904.99 219.03-.04 563.07a.9.89-90 0 1-.89.9H122.43a.89.89 0 0 1-.89-.89l-.08-112.14q0-221.37.09-442.72 0-4.12.13-8.18.2-6.5 5.07-13.88 7.68-11.64 21.11-14.35c5.34-1.08 13.9-.93 18.89-.93q333.38.18 690 .01c7.37-.01 16.74-.35 23.25 1.21q12.31 2.95 19.76 14.12 4.12 6.19 5.23 13.78m-236.7 404.45q.38-2.18 1.44-4.04a2.17 2.1 87.3 0 1 .65-.74q20.33-14.91 34.13-25.94 11.71-9.35 25.04-22.61c3.42-3.41 6.61-7.66 9.91-11.44q3.97-4.55 7.11-8.86c13.69-18.79 24.36-40.35 30.63-62.97 4.91-17.73 8.36-39.78 11.06-53.39 3.71-18.72 9.3-37.84 16.73-56.35q5.61-13.95 8.17-20.94a1.49 1.47 9.6 0 1 1.36-.96q16.8-.17 25.61-14.09 3.77-5.96 6.7-13.33 10.19-25.59 17.31-46.49 6.98-20.5-3.75-36.17c-3.87-5.65-10.1-10.74-15.99-13.98q-16.86-9.26-34.77-10.84c-8.49-.75-17.41.17-24.85 3.46-9.43 4.18-15.99 12.75-20.34 21.88-7.33 15.37-12.2 30.93-17.1 48.88q-1.84 6.72-2.28 12.44c-.88 11.47 4.03 24.54 14.75 29.94q2.33 1.18 9.19 4.05a.77.77 0 0 1 .41 1q-6.75 16.16-11.35 28.8c-6.42 17.62-11.08 31.33-13.73 47.96q-3.83 23.95-5.71 35.17-3.66 21.83-12.09 41.39-9.44 21.88-26.58 41.63-1.64 1.89-4.81 4.19.53-1.7.74-2.67 4.71-21.95 5.1-43.21.34-18.37 0-25c-2.47-47.05-19.16-93.52-45.63-132.1q-19.96-29.09-46.45-52.94-25.44-22.9-58.04-39.85-19.77-10.28-43.18-17.53-52.9-16.4-107.45-11.82-58.19 4.89-109.51 34.25-47.47 27.17-80.89 69.32-50.38 63.55-56.24 146.41-3 42.38 6.04 82.73 16.14 71.97 66.72 126.22 29.78 31.94 67.75 53.61c49.6 28.3 107.64 38.28 163.59 33.01q11.22-1.06 27.08-4.27 36.33-7.37 68.51-24.76 22.86-12.36 44.75-30.26 14.63-11.96 25.36-24.38 11.09-12.84 16.02-19.96c2.88-4.16 6.1-10.58 10.89-14.37q7.74-6.12 11.01-8.76 5.51-4.42 6.98-11.32M864.34 745.4a8.49 8.49 0 0 0-8.49-8.49h-198.4a8.49 8.49 0 0 0-8.49 8.49v.16a8.49 8.49 0 0 0 8.49 8.49h198.4a8.49 8.49 0 0 0 8.49-8.49z"/><path fill="#0f1517" d="M695.14 541.13q-9.64 8.79-18.41 15.84-2.34 1.88-6.21 4.36.96-5.34 3.25-13.78 4.57-16.85 6.29-33.11 2.1-19.84 2.02-29.16-.08-9.19-1.19-22.95-.99-12.15-3.19-22.8-5.98-28.93-16.63-52.1c-19.24-41.85-49.3-77.83-86.85-105.37q-20.63-15.12-44.25-25.51c-19.71-8.67-41.05-15.45-62.52-18.62-21.34-3.14-43.01-3.91-62.17-2.82q-9.1.52-20.12 1.81c-30.17 3.56-59.87 14.66-86.35 29.91-10.13 5.84-20.83 13.6-30.47 21.01Q248.63 303 233.27 321q-16.33 19.12-28.23 40.09c-22.24 39.18-33.18 84.23-33.07 129.46.03 9.72 1 19.83 2.11 29.4q4.43 38.53 20.53 73.98c11.53 25.4 27.65 48.88 46.2 68.01q10.53 10.86 15.31 15.19 41.45 37.48 94.06 54.27c12.08 3.86 25.22 6.61 38.96 9.22q8.87 1.68 16.62 2.08c21.25 1.1 40.6 1.23 60.8-2q32.64-5.23 62.49-18.63c21.95-9.86 40.11-20.14 56.99-35.61q6.93 1.95 12.62-2.78 16.51-13.72 43.05-33.88c3.39-2.58 5.91-5.75 9.65-8.55q4.24-3.18 8.74-6.66 5.66-4.37 7.2-11.39a.49.49 0 0 1 .8-.27q.09.08.19.55-1.47 6.9-6.98 11.32-3.27 2.64-11.01 8.76c-4.79 3.79-8.01 10.21-10.89 14.37q-4.93 7.12-16.02 19.96-10.73 12.42-25.36 24.38-21.89 17.9-44.75 30.26-32.18 17.39-68.51 24.76-15.86 3.21-27.08 4.27c-55.95 5.27-113.99-4.71-163.59-33.01q-37.97-21.67-67.75-53.61-50.58-54.25-66.72-126.22-9.04-40.35-6.04-82.73 5.86-82.86 56.24-146.41 33.42-42.15 80.89-69.32 51.32-29.36 109.51-34.25 54.55-4.58 107.45 11.82 23.41 7.25 43.18 17.53 32.6 16.95 58.04 39.85 26.49 23.85 46.45 52.94c26.47 38.58 43.16 85.05 45.63 132.1q.34 6.63 0 25-.39 21.26-5.1 43.21-.21.97-.74 2.67"/><path fill="#04223b" d="M668.29 623.48q-.1-.47-.19-.55a.49.49 0 0 0-.8.27q-1.54 7.02-7.2 11.39-4.5 3.48-8.74 6.66c-3.74 2.8-6.26 5.97-9.65 8.55q-26.54 20.16-43.05 33.88-5.69 4.73-12.62 2.78c-2.83-3.8-5.63-8.06-8.64-11.31-6.72-7.26-11.66-14.73-18.64-21.93-5.52-5.69-8.88-12.09-1.44-17.92q33.33-26.09 61.34-48.21c7.46-5.89 12.51-10.34 20.4-3.76a2.24 2.23-43.8 0 0 2.79.05l28.67-22.05q3.87-2.48 6.21-4.36 8.77-7.05 18.41-15.84 3.17-2.3 4.81-4.19 17.14-19.75 26.58-41.63 8.43-19.56 12.09-41.39 1.88-11.22 5.71-35.17c2.65-16.63 7.31-30.34 13.73-47.96q4.6-12.64 11.35-28.8a.77.77 0 0 0-.41-1q-6.86-2.87-9.19-4.05c-10.72-5.4-15.63-18.47-14.75-29.94q.44-5.72 2.28-12.44c4.9-17.95 9.77-33.51 17.1-48.88 4.35-9.13 10.91-17.7 20.34-21.88 7.44-3.29 16.36-4.21 24.85-3.46q17.91 1.58 34.77 10.84c5.89 3.24 12.12 8.33 15.99 13.98q10.73 15.67 3.75 36.17-7.12 20.9-17.31 46.49-2.93 7.37-6.7 13.33-8.81 13.92-25.61 14.09a1.49 1.47 9.6 0 0-1.36.96q-2.56 6.99-8.17 20.94a318.3 318.3 0 0 0-16.73 56.35c-2.7 13.61-6.15 35.66-11.06 53.39-6.27 22.62-16.94 44.18-30.63 62.97q-3.14 4.31-7.11 8.86c-3.3 3.78-6.49 8.03-9.91 11.44q-13.33 13.26-25.04 22.61-13.8 11.03-34.13 25.94a2.17 2.1 87.3 0 0-.65.74q-1.06 1.86-1.44 4.04m153.04-290.43c5.29-4.39 6.48-9.02 9.15-15.82q6.52-16.63 14.33-38.41c3.51-9.82 4.54-20.35-4.22-27.64-6.49-5.41-15.11-8.58-23.38-10.91q-6.42-1.81-16.02-1.32c-9.75.49-14.61 5.8-18.72 14.03-6.62 13.26-9.64 24.58-15.29 42.95-2.92 9.51-5.76 22.75 5.71 27.18q5.95 2.3 33.91 12.34 8.12 2.92 14.53-2.4M660.86 605.33q14.4-10.54 24.14-17.82c18.75-14.01 35.77-29.98 49.73-48.79q18.88-25.45 27.31-55.92 5.35-19.33 8.93-43.4 3.5-23.57 11.64-47.82 6.16-18.36 14.22-38.31a1.27 1.26-69.6 0 0-.76-1.67l-10-3.39a1.29 1.28 21.1 0 0-1.59.7q-10.74 24.53-18.57 51.22c-4.77 16.24-6.69 30.58-9.84 49.94q-3.81 23.46-11.83 44.91c-7.23 19.36-20.41 39.48-36.03 55.47q-12.5 12.79-21.8 20.22-13.8 11.01-32.84 24.75a1.16 1.15-38.4 0 0-.2 1.69l7.02 8.17a.35.35 0 0 0 .47.05m-29.41-4.52a.84.84 0 0 0-1.15-.11l-55.66 43.23a.84.84 0 0 0-.12 1.21l17.53 20.36a.84.84 0 0 0 1.15.12l55.67-43.23a.84.84 0 0 0 .12-1.21z"/><path fill="#1e2222" d="m670.52 561.33-28.67 22.05a2.24 2.23-43.8 0 1-2.79-.05c-7.89-6.58-12.94-2.13-20.4 3.76q-28.01 22.12-61.34 48.21c-7.44 5.83-4.08 12.23 1.44 17.92 6.98 7.2 11.92 14.67 18.64 21.93 3.01 3.25 5.81 7.51 8.64 11.31-16.88 15.47-35.04 25.75-56.99 35.61q-29.85 13.4-62.49 18.63c-20.2 3.23-39.55 3.1-60.8 2q-7.75-.4-16.62-2.08c-13.74-2.61-26.88-5.36-38.96-9.22q-52.61-16.79-94.06-54.27-4.78-4.33-15.31-15.19c-18.55-19.13-34.67-42.61-46.2-68.01q-16.1-35.45-20.53-73.98c-1.11-9.57-2.08-19.68-2.11-29.4-.11-45.23 10.83-90.28 33.07-129.46q11.9-20.97 28.23-40.09 15.36-18 35.07-33.16c9.64-7.41 20.34-15.17 30.47-21.01 26.48-15.25 56.18-26.35 86.35-29.91q11.02-1.29 20.12-1.81c19.16-1.09 40.83-.32 62.17 2.82 21.47 3.17 42.81 9.95 62.52 18.62q23.62 10.39 44.25 25.51c37.55 27.54 67.61 63.52 86.85 105.37q10.65 23.17 16.63 52.1 2.2 10.65 3.19 22.8 1.11 13.76 1.19 22.95.08 9.32-2.02 29.16-1.72 16.26-6.29 33.11-2.29 8.44-3.25 13.78M330.31 293.34c11.82-5.27 5.23-20.99-7.47-16.01-9.31 3.66-16.46 8.28-26.84 14.67q-9.72 5.99-16.67 11.51-15.19 12.06-24.01 21.33-44.59 46.89-56.62 111.91-2 10.8-2.75 20.25c-.53 6.65-1.15 16.47 7.14 17.41 8.23.92 10.11-7.12 10.68-13.68 2.96-34.27 14.34-67.06 33.77-95.93 20.83-30.93 49.15-56.49 82.77-71.46m101.06 305.79c33.91-.4 67.57-17.47 87.16-45.35q19.92-28.36 20.01-63.05c.05-19.27-5.4-38-14.32-54.97-18.96-36.1-55.5-56.13-96.19-55.87q-31.41.2-56.8 16.54-38.38 24.7-47.37 68.36c-2.7 13.12-2.78 29.33-1.14 42.52q1.65 13.18 8.28 28.27 16.08 36.61 51.85 53.62c15.46 7.35 31.06 10.14 48.52 9.93"/><path fill="#eb7817" d="M821.33 333.05q-6.41 5.32-14.53 2.4-27.96-10.04-33.91-12.34c-11.47-4.43-8.63-17.67-5.71-27.18 5.65-18.37 8.67-29.69 15.29-42.95 4.11-8.23 8.97-13.54 18.72-14.03q9.6-.49 16.02 1.32c8.27 2.33 16.89 5.5 23.38 10.91 8.76 7.29 7.73 17.82 4.22 27.64q-7.81 21.78-14.33 38.41c-2.67 6.8-3.86 11.43-9.15 15.82"/><path fill="#0f1517" d="M322.84 277.33c12.7-4.98 19.29 10.74 7.47 16.01-33.62 14.97-61.94 40.53-82.77 71.46-19.43 28.87-30.81 61.66-33.77 95.93-.57 6.56-2.45 14.6-10.68 13.68-8.29-.94-7.67-10.76-7.14-17.41q.75-9.45 2.75-20.25 12.03-65.02 56.62-111.91 8.82-9.27 24.01-21.33 6.95-5.52 16.67-11.51c10.38-6.39 17.53-11.01 26.84-14.67"/><path fill="#eb7817" d="M660.86 605.33a.35.35 0 0 1-.47-.05l-7.02-8.17a1.16 1.15-38.4 0 1 .2-1.69q19.04-13.74 32.84-24.75 9.3-7.43 21.8-20.22c15.62-15.99 28.8-36.11 36.03-55.47q8.02-21.45 11.83-44.91c3.15-19.36 5.07-33.7 9.84-49.94q7.83-26.69 18.57-51.22a1.29 1.28 21.1 0 1 1.59-.7l10 3.39a1.27 1.26-69.6 0 1 .76 1.67q-8.06 19.95-14.22 38.31-8.14 24.25-11.64 47.82-3.58 24.07-8.93 43.4-8.43 30.47-27.31 55.92c-13.96 18.81-30.98 34.78-49.73 48.79q-9.74 7.28-24.14 17.82"/><path fill="#0f1517" d="M431.37 599.13c-17.46.21-33.06-2.58-48.52-9.93q-35.77-17.01-51.85-53.62-6.63-15.09-8.28-28.27c-1.64-13.19-1.56-29.4 1.14-42.52q8.99-43.66 47.37-68.36 25.39-16.34 56.8-16.54c40.69-.26 77.23 19.77 96.19 55.87 8.92 16.97 14.37 35.7 14.32 54.97q-.09 34.69-20.01 63.05c-19.59 27.88-53.25 44.95-87.16 45.35m-91.14-118.65c-2.88 30.91 8.87 60.37 32.79 79.71 20.27 16.39 45.16 22.25 70.32 18.27 34.8-5.49 64.97-31.21 73.03-65.89 8.62-37.09-3.8-74.78-35.27-96.96q-17.04-12.01-37.54-15.57c-24.79-4.31-51.55 2.3-70.94 19.09q-29.03 25.14-32.39 61.35"/><path fill="#eb7817" d="M340.23 480.48q3.36-36.21 32.39-61.35c19.39-16.79 46.15-23.4 70.94-19.09q20.5 3.56 37.54 15.57c31.47 22.18 43.89 59.87 35.27 96.96-8.06 34.68-38.23 60.4-73.03 65.89-25.16 3.98-50.05-1.88-70.32-18.27-23.92-19.34-35.67-48.8-32.79-79.71m107.055-8.961a25.95 25.67-41.4 0 0-36.44-2.094 25.95 25.67-41.4 0 0-2.49 36.416 25.95 25.67-41.4 0 0 36.44 2.094 25.95 25.67-41.4 0 0 2.49-36.416"/><path fill="#0f1517" d="M447.285 471.519a25.95 25.67-41.4 0 1-2.49 36.416 25.95 25.67-41.4 0 1-36.44-2.094 25.95 25.67-41.4 0 1 2.49-36.416 25.95 25.67-41.4 0 1 36.44 2.094m-21.54 7.055a10.17 9.72-101.2 0 0-7.56 11.864 10.17 9.72-101.2 0 0 11.51 8.088 10.17 9.72-101.2 0 0 7.56-11.864 10.17 9.72-101.2 0 0-11.51-8.088"/><ellipse fill="#1e2222" rx="10.17" ry="9.72" transform="rotate(258.8 414.51 68.608)"/><path fill="#eb7817" d="m631.45 600.81 17.54 20.37a.84.84 0 0 1-.12 1.21l-55.67 43.23a.84.84 0 0 1-1.15-.12l-17.53-20.36a.84.84 0 0 1 .12-1.21l55.66-43.23a.84.84 0 0 1 1.15.11"/><rect width="215.38" height="17.14" x="648.96" y="736.91" fill="#04223b" rx="8.49"/><path fill="#0c365c" d="M122 800.04h781.86a1.2 1.2 0 0 1 1.2 1.18c.12 6.06-.27 11.21-.1 17.72q.27 10.22.02 26.94-.1 6.55-1.53 10.6-5.44 15.36-20.64 21.44c-4.77 1.92-12.03 2.21-17.11 2.21q-388.71.14-670.76-.07-29.12-.02-40.69.13-2.66.04-6.75-.5c-7.94-1.04-14.97-6.47-19.81-12.86q-6.22-8.22-6.28-18.08-.13-22.11.23-48.35a.36.36 0 0 1 .36-.36m45.02 29.1a33.4 32.82-166.3 0 0 24.677 39.796 33.4 32.82-166.3 0 0 40.223-23.976 33.4 32.82-166.3 0 0-24.677-39.796 33.4 32.82-166.3 0 0-40.223 23.976m169.91 8.17a9.06 9.06 0 0 0-9.044-9.076l-49.9-.088a9.06 9.06 0 0 0-9.075 9.045l-.001.54a9.06 9.06 0 0 0 9.044 9.075l49.9.087a9.06 9.06 0 0 0 9.076-9.044z"/><path fill="#04223b" d="M167.02 829.14a33.4 32.82-166.3 0 1 40.223-23.976 33.4 32.82-166.3 0 1 24.677 39.796 33.4 32.82-166.3 0 1-40.223 23.976 33.4 32.82-166.3 0 1-24.677-39.796m8.199-1.198a26.03 25.74-159 0 0 15.077 33.358 26.03 25.74-159 0 0 33.525-14.702 26.03 25.74-159 0 0-15.077-33.358 26.03 25.74-159 0 0-33.525 14.702"/><ellipse fill="#eb7817" rx="26.03" ry="25.74" transform="rotate(201 177.35 400.146)"/><rect width="68.02" height="18.66" x="-34.01" y="-9.33" fill="#eb7817" rx="9.06" transform="rotate(.1 -479712.03 173979.091)"/></symbol></svg>