<svg xmlns="http://www.w3.org/2000/svg"><symbol id="Yellow4Jersey" viewBox="0 0 1024 1536"><g fill="none" stroke-width="2"><path stroke="#836c03" d="M388.9 374.6a.47.46 64.4 0 0-.2.59q2.36 5.56 6.4 12.73 38.06 67.46 110.81 92.87c2.68.93 5.26 1.43 7.78.61 30.86-10.05 60.5-28.26 82.18-52.03q22.49-24.64 37.32-54.33a1.53 1.53 0 0 0-.5-1.95q-4.74-3.31-9.59-4.33a1.09 1.08-70.4 0 0-1.19.57q-3.96 7.52-8.5 15.32-21.42 36.82-54.37 60.62-22.2 16.04-46.65 23.77-1.69.53-3.75-.19c-44.32-15.39-80.64-47.24-103.04-88.21q-3.19-5.83-5.86-11.01a1.08 1.07-28.9 0 0-1.49-.43l-9.35 5.4" vector-effect="non-scaling-stroke"/><path stroke="#836c03" d="M377.5 387.38q-6.53 5.93-14.58 10.46a1.61 1.6-23.4 0 0-.75 1.88c8.9 28.16 12.86 56.59 13.19 86.28.26 23.93-.66 47.58-6.12 70.78q-5.1 21.7-15.73 43.01-17.23 34.57-49.9 55.1a2.95 2.82 24.8 0 1-1.23.42c-4.58.44-6.59-7.19-7.26-10.93a1.44 1.43-21.8 0 1 .62-1.44q5.74-3.81 5.77-3.84c28.17-20.48 45.84-52.69 53.34-86.27q5.79-25.96 6.19-51.83.43-28.8-2.97-53.68c-2.15-15.73-5.81-30.07-10.68-44.45q-.43-1.27-.71-1.53a1.29 1.29 0 0 0-1.47-.19l-5.55 2.9a1.34 1.33-24.1 0 0-.64 1.65c6.33 17.02 10.42 34.64 12.37 52.37q3.81 34.56-.46 69.68-1.35 11.15-4.3 22.94c-8.69 34.81-28.03 64.83-58 84.8a1.22 1.22 0 0 0-.52 1.24q3.49 18.97 4.73 37.91c.84 12.88 2.11 32.87 2.19 48.17.08 14.96 1.07 40.36.93 60.77q-.09 12.12.32 22.7.77 19.62.79 33.99.12 92.77-.11 109.48-.04 2.47-.65 21.03-1.43 43.66-3.79 76.2-.8 10.94-1.54 22.37a1.38 1.38 0 0 0 .95 1.4q7.97 2.57 20.58 6.71 21.4 7.02 47.28 12.92 52.71 12.02 104.94 16.03 6.27.48 8.56.56c7.58.25 13.97 1.03 21.38 1.03h29.72c10.28 0 18.74-.89 30.46-1.47q11.57-.57 22.78-1.84 27.77-3.16 58.85-8.74 36.74-6.61 69.27-16.96 11.18-3.56 25.85-8.46a1.27 1.27 0 0 0 .87-1.26c-.3-8.15-1.15-15.55-1.54-24.37q-.61-13.36-1.38-29.04c-.46-9.34-.38-17.82-.86-24.46-.94-12.87-.63-22.61-1.24-38.05-.8-20.07-.47-34.91-.5-71.31-.03-37.95 1.3-71.18 1.03-108.44-.09-11.96 1.07-27.01.97-38.35q-.13-13.06.34-24.03c1.07-24.75 1.28-50.44 6.7-74.12a2.14 2.12 23.2 0 0-.92-2.27q-12.55-8.13-22.65-19c-22.18-23.86-34.41-52.88-38.47-85.31q-5.35-42.73 1.22-85.64 2.86-18.69 9.94-39.03a1.43 1.42 21.4 0 0-.78-1.78l-5.93-2.56a1.16 1.16 0 0 0-1.56.7c-3.94 11.81-6.67 24.29-8.83 35.93q-3.78 20.42-4.29 47.6c-.45 23.88 1.1 47.67 6.73 71.06 8.13 33.81 27.88 67.67 57.74 85.96a1.09 1.09 0 0 1 .48 1.22c-.91 3.23-2.42 9.48-4.63 10.86q-1.73 1.09-4.51-.65c-33.19-20.62-53.13-55.23-62.76-91.92-5.31-20.24-6.85-41.37-7.7-63.27-.4-10.29.53-20.82 1.02-30.93q1.7-34.88 11.67-67a1.99 1.99 0 0 0-.94-2.33q-9.2-5.07-16.61-11.7a.55.55 0 0 0-.85.14q-6.51 11.81-14.49 23.61c-20.85 30.83-49.44 55.43-82.62 72.25-10.66 5.41-22.26 9.38-33.44 13.27q-1.65.58-3.44.06-21.05-6.01-41.35-17.17-58.82-32.33-89.56-91.65a.62.61-34.5 0 0-.96-.17" vector-effect="non-scaling-stroke"/><path stroke="#836c03" d="M454.19 421.37q.21.41.6.68 3.13 2.2 8.49 6.42c10.42 8.22 21.81 14.77 34.4 20.4 4.9 2.2 11.97 6.21 17.17 4.22q17.98-6.87 33.65-17.35 7.39-4.94 17.88-12.86.49-.36.53-.74a.29.28 83 0 0-.38-.3c-16.47 5.8-33.37 8.08-51.28 8.95-7.31.35-13.25-.44-21.97-1.06q-10.57-.75-25.07-3.97c-4.82-1.07-9.19-2.96-13.71-4.73a.25.24-3.1 0 0-.31.34" vector-effect="non-scaling-stroke"/><path stroke="#e7b900" d="M357.45 621.31q-1.12 7.39-1.29 9.13-1 10.09-1.69 20.88-.89 13.72-1.78 20.85-1.38 10.96-4.17 37.6-1.93 18.42-3.17 27.9-.65 5-1.01 6.9c-1.12 5.84-1.26 10.52-2.08 16.01q-.94 6.28-2.74 22.95-.49 4.48-.83 6.72-2.25 14.6-4.06 29.17c-1.07 8.55-2.88 15.77-3.35 23.3q-.64 10.45-1.62 15.97-.9 5.1-4.82 32.49c-1.53 10.7-2.49 19.38-4.48 29.2q-.52 2.58-2.1 16.08-1.15 9.86-2.18 16.06c-2.03 12.26-3.66 25.48-5.64 37.63q-2.91 17.75-6.06 41.38c-1.76 13.24-4.55 28.42-5.9 37.51q-.31 2.11 1.7 2.77 13.98 4.6 29.09 8.98a1.09 1.09 0 0 0 1.39-.93q3.29-30.78 6.12-64.13.29-3.44 2.24-19.98c.37-3.11.27-6.92.56-10.03q3.23-34.42 4.76-60.69.01-.16 1.05-13.51.72-9.22 3.97-62.47c.62-10.15.63-18.68 1.37-27.22q.61-7.16.66-16.69.06-9.13.7-16.7 1.27-15.04 1.4-21.69.21-10.88.85-19.72.38-5.24.79-19.71.89-31.12 1.12-54.31.01-1.49.54-18.05.09-2.75.31-18.07c.09-6.06.73-10.05.79-15.66a.13.13 0 0 0-.12-.13l-.04-.01a.26.25 5.8 0 0-.28.22m310.85 8.81q-.07.2-.08.39c-.55 9.1.56 18.83.81 27.67q1.4 49.9 2.1 74.15c.2 6.86.91 13.1 1.13 19.65q.06 1.69.51 3.68a4.3 4.24 38.2 0 1 .11.87q.14 8.17.72 14.06.71 7.3.59 11.83-.14 5.28.64 11.83.32 2.69.75 13.01.06 1.58.18 3.31 2.06 32.05 3.41 52.74c.75 11.39 1.88 21.89 2.41 32.86q.36 7.51 1.34 18.64.76 8.79 1.53 18.66l.16 2.16q1.22 16.82 3.44 43.88c.26 3.21.98 5.91 1.07 8.96.18 5.94.96 11.07 1.74 22.03q2.09 29.47 3.27 41.07.82 8.09 1.08 13.85.24 5.1 1.11 13.86a.59.59 0 0 0 .7.53c4.71-.85 8.61-2.86 13.17-4.18q6.08-1.76 11.49-3.48 2.06-.66 1.64-3.39-7.13-46.16-11.11-73.55-.45-3.12-.74-5.11-2.48-17.07-4.54-32.24c-.58-4.3-1.66-8.41-1.95-12.46-.25-3.58-.56-4.83-1.33-8.66-.76-3.85-.62-7.81-1.51-11.71q-.39-1.69-.68-5.14-1.24-14.47-1.76-17.83-1.74-11.1-2.89-19.92-.3-2.24-1.17-3.96-.45-.89-.21-3.45a8.01 7.84 44.4 0 0-.04-1.86q-3.16-23.36-3.4-26.11c-.58-6.69-2.05-12.61-2.53-18.52q-.83-10.25-1.97-17.07c-.66-3.93-.84-9.21-1.44-12.56q-.02-.08-.27-3.49-.72-9.9-4.54-36.57-.54-3.73-.91-8.63-.62-8.22-.67-8.66-3.44-29.57-3.81-33.52-.74-7.88-1.57-14.12c-.21-1.6-.1-3.37-.27-4.62q-2-15.25-3.02-31.99-.68-11.07-2.39-26.85a.16.15 52.4 0 0-.3-.04" vector-effect="non-scaling-stroke"/><path stroke="#836c03" d="M566.69 869.46v-81.93a1.56 1.56 0 0 0-1.56-1.56h-51.71a2.88 2.84 22.6 0 0-2 .81q-1.84 1.8-2.3 2.34-23.06 27.57-62.34 73.68-2.14 2.51-2.14 4.41-.04 33.01.06 38.79.05 2.56.54 3.83a1.93 1.93 0 0 0 1.8 1.23h69.37a.6.6 0 0 1 .6.6v34.33a2.69 2.69 0 0 0 2.21 2.65q1.39.25 3.19.24 35.18-.18 39.59-.11 2.57.03 4.11-.79a1.26 1.24 76.3 0 0 .66-1.11v-35.39a.39.39 0 0 1 .39-.39q13.05-.18 24.1-.05c2.4.03 3.28-1.09 3.28-3.47q.04-25.03-.06-31.38c-.05-3.64.42-6.2-3.96-6.17q-4.12.04-23.24.03a.59.59 0 0 1-.59-.59" vector-effect="non-scaling-stroke"/><path stroke="#e7b900" d="M629.72 959.2q-.12-.12-.32-.08a.32.31 87.5 0 0-.24.27c-1.05 6.77-.92 15.44-1.63 22.1-.7 6.44-1.35 19.26-2.59 28.34q-.82 5.96-1.44 14.66-.26 3.72-1.64 14.62-2.02 16.08-4.01 29.11c-.3 1.98-.32 4.98-.67 7.22q-1.73 11.1-2.53 21.44a.54.54 0 0 0 .6.58q11.67-1.24 24.99-4.24a1.14 1.14 0 0 0 .89-1.11c-.01-2.13.12-4.6-.26-7.11q-2.02-13.18-5.28-45-1.26-12.26-1.57-17.32-.51-8.06-1.4-17.33-2.32-24.28-2.89-46.11a.1.08 38 0 0-.01-.04m-251.16 1.31q-.44 2.4-.43 2.75.27 15.26-2.6 35.26-1.13 7.91-2.34 23.79c-.4 5.14-1.64 11.3-1.89 15.21q-.65 10.08-2.13 18.87c-1.72 10.16-2.25 18.44-4.04 28.58q-.25 1.41.14 3.92a.9.9 0 0 0 .55.69q2.88 1.13 3.41 1.23 10.56 1.91 23.4 4.53a.51.51 0 0 0 .61-.51c-.12-3.63-.16-6.27-.7-10.26q-6.16-45.07-6.81-54.39-.28-3.96-1.08-11.08c-1.37-12.19-2.48-23.97-3.72-34.63-1.01-8.64-1.12-17.39-2.01-23.95a.18.18 0 0 0-.36-.01" vector-effect="non-scaling-stroke"/><path stroke="#83827d" d="M525.98 904.64v36.54a.82.82 0 0 0 .82.82h32.63a.59.59 0 0 0 .59-.59v-36.76a.67.67 0 0 1 .67-.67h26.56a.48.48 0 0 0 .48-.48v-25.94a.55.55 0 0 0-.55-.55h-26.4a.72.72 0 0 1-.72-.72v-83.25a1.05 1.05 0 0 0-1.05-1.05h-42a3.97 3.96-70 0 0-3.04 1.42q-18.79 22.64-43.22 51.05c-4.97 5.77-11.33 13.81-17.79 21.34-1.08 1.26-1.9 2.71-1.9 4.24q.05 24.76-.01 33.47a.47.47 0 0 0 .47.47h73.8a.66.66 0 0 1 .66.66" vector-effect="non-scaling-stroke"/><path stroke="#83827d" d="M525.64 877.03a.33.33 0 0 0 .33-.33v-55.49a.33.33 0 0 0-.58-.21l-45.79 55.49a.33.33 0 0 0 .25.54h45.79" vector-effect="non-scaling-stroke"/><path stroke="#836c03" d="m493.86 870.23 22.37-.3a.8.8 0 0 0 .79-.8v-27.54a.2.2 0 0 0-.36-.13l-22.87 28.63a.09.09 0 0 0 .07.14" vector-effect="non-scaling-stroke"/></g><g fill="#ffd100"><path d="m388.9 374.6 9.35-5.4a1.08 1.07-28.9 0 1 1.49.43q2.67 5.18 5.86 11.01c22.4 40.97 58.72 72.82 103.04 88.21q2.06.72 3.75.19 24.45-7.73 46.65-23.77 32.95-23.8 54.37-60.62 4.54-7.8 8.5-15.32a1.09 1.08-70.4 0 1 1.19-.57q4.85 1.02 9.59 4.33a1.53 1.53 0 0 1 .5 1.95q-14.83 29.69-37.32 54.33c-21.68 23.77-51.32 41.98-82.18 52.03-2.52.82-5.1.32-7.78-.61q-72.75-25.41-110.81-92.87-4.04-7.17-6.4-12.73a.47.46 64.4 0 1 .2-.59"/><path d="M377.5 387.38a.62.61-34.5 0 1 .96.17q30.74 59.32 89.56 91.65 20.3 11.16 41.35 17.17 1.79.52 3.44-.06c11.18-3.89 22.78-7.86 33.44-13.27 33.18-16.82 61.77-41.42 82.62-72.25q7.98-11.8 14.49-23.61a.55.55 0 0 1 .85-.14q7.41 6.63 16.61 11.7a1.99 1.99 0 0 1 .94 2.33q-9.97 32.12-11.67 67c-.49 10.11-1.42 20.64-1.02 30.93.85 21.9 2.39 43.03 7.7 63.27 9.63 36.69 29.57 71.3 62.76 91.92q2.78 1.74 4.51.65c2.21-1.38 3.72-7.63 4.63-10.86a1.09 1.09 0 0 0-.48-1.22c-29.86-18.29-49.61-52.15-57.74-85.96-5.63-23.39-7.18-47.18-6.73-71.06q.51-27.18 4.29-47.6c2.16-11.64 4.89-24.12 8.83-35.93a1.16 1.16 0 0 1 1.56-.7l5.93 2.56a1.43 1.42 21.4 0 1 .78 1.78q-7.08 20.34-9.94 39.03-6.57 42.91-1.22 85.64c4.06 32.43 16.29 61.45 38.47 85.31q10.1 10.87 22.65 19a2.14 2.12 23.2 0 1 .92 2.27c-5.42 23.68-5.63 49.37-6.7 74.12q-.47 10.97-.34 24.03c.1 11.34-1.06 26.39-.97 38.35.27 37.26-1.06 70.49-1.03 108.44.03 36.4-.3 51.24.5 71.31.61 15.44.3 25.18 1.24 38.05.48 6.64.4 15.12.86 24.46q.77 15.68 1.38 29.04c.39 8.82 1.24 16.22 1.54 24.37a1.27 1.27 0 0 1-.87 1.26q-14.67 4.9-25.85 8.46-32.53 10.35-69.27 16.96-31.08 5.58-58.85 8.74-11.21 1.27-22.78 1.84c-11.72.58-20.18 1.47-30.46 1.47h-29.72c-7.41 0-13.8-.78-21.38-1.03q-2.29-.08-8.56-.56-52.23-4.01-104.94-16.03-25.88-5.9-47.28-12.92-12.61-4.14-20.58-6.71a1.38 1.38 0 0 1-.95-1.4q.74-11.43 1.54-22.37 2.36-32.54 3.79-76.2.61-18.56.65-21.03.23-16.71.11-109.48-.02-14.37-.79-33.99-.41-10.58-.32-22.7c.14-20.41-.85-45.81-.93-60.77-.08-15.3-1.35-35.29-2.19-48.17q-1.24-18.94-4.73-37.91a1.22 1.22 0 0 1 .52-1.24c29.97-19.97 49.31-49.99 58-84.8q2.95-11.79 4.3-22.94 4.27-35.12.46-69.68c-1.95-17.73-6.04-35.35-12.37-52.37a1.34 1.33-24.1 0 1 .64-1.65l5.55-2.9a1.29 1.29 0 0 1 1.47.19q.28.26.71 1.53c4.87 14.38 8.53 28.72 10.68 44.45q3.4 24.88 2.97 53.68-.4 25.87-6.19 51.83c-7.5 33.58-25.17 65.79-53.34 86.27q-.03.03-5.77 3.84a1.44 1.43-21.8 0 0-.62 1.44c.67 3.74 2.68 11.37 7.26 10.93a2.95 2.82 24.8 0 0 1.23-.42q32.67-20.53 49.9-55.1 10.63-21.31 15.73-43.01c5.46-23.2 6.38-46.85 6.12-70.78-.33-29.69-4.29-58.12-13.19-86.28a1.61 1.6-23.4 0 1 .75-1.88q8.05-4.53 14.58-10.46m-20.05 233.93q-1.12 7.39-1.29 9.13-1 10.09-1.69 20.88-.89 13.72-1.78 20.85-1.38 10.96-4.17 37.6-1.93 18.42-3.17 27.9-.65 5-1.01 6.9c-1.12 5.84-1.26 10.52-2.08 16.01q-.94 6.28-2.74 22.95-.49 4.48-.83 6.72-2.25 14.6-4.06 29.17c-1.07 8.55-2.88 15.77-3.35 23.3q-.64 10.45-1.62 15.97-.9 5.1-4.82 32.49c-1.53 10.7-2.49 19.38-4.48 29.2q-.52 2.58-2.1 16.08-1.15 9.86-2.18 16.06c-2.03 12.26-3.66 25.48-5.64 37.63q-2.91 17.75-6.06 41.38c-1.76 13.24-4.55 28.42-5.9 37.51q-.31 2.11 1.7 2.77 13.98 4.6 29.09 8.98a1.09 1.09 0 0 0 1.39-.93q3.29-30.78 6.12-64.13.29-3.44 2.24-19.98c.37-3.11.27-6.92.56-10.03q3.23-34.42 4.76-60.69.01-.16 1.05-13.51.72-9.22 3.97-62.47c.62-10.15.63-18.68 1.37-27.22q.61-7.16.66-16.69.06-9.13.7-16.7 1.27-15.04 1.4-21.69.21-10.88.85-19.72.38-5.24.79-19.71.89-31.12 1.12-54.31.01-1.49.54-18.05.09-2.75.31-18.07c.09-6.06.73-10.05.79-15.66a.13.13 0 0 0-.12-.13l-.04-.01a.26.25 5.8 0 0-.28.22m310.85 8.81q-.07.2-.08.39c-.55 9.1.56 18.83.81 27.67q1.4 49.9 2.1 74.15c.2 6.86.91 13.1 1.13 19.65q.06 1.69.51 3.68a4.3 4.24 38.2 0 1 .11.87q.14 8.17.72 14.06.71 7.3.59 11.83-.14 5.28.64 11.83.32 2.69.75 13.01.06 1.58.18 3.31 2.06 32.05 3.41 52.74c.75 11.39 1.88 21.89 2.41 32.86q.36 7.51 1.34 18.64.76 8.79 1.53 18.66l.16 2.16q1.22 16.82 3.44 43.88c.26 3.21.98 5.91 1.07 8.96.18 5.94.96 11.07 1.74 22.03q2.09 29.47 3.27 41.07.82 8.09 1.08 13.85.24 5.1 1.11 13.86a.59.59 0 0 0 .7.53c4.71-.85 8.61-2.86 13.17-4.18q6.08-1.76 11.49-3.48 2.06-.66 1.64-3.39-7.13-46.16-11.11-73.55-.45-3.12-.74-5.11-2.48-17.07-4.54-32.24c-.58-4.3-1.66-8.41-1.95-12.46-.25-3.58-.56-4.83-1.33-8.66-.76-3.85-.62-7.81-1.51-11.71q-.39-1.69-.68-5.14-1.24-14.47-1.76-17.83-1.74-11.1-2.89-19.92-.3-2.24-1.17-3.96-.45-.89-.21-3.45a8.01 7.84 44.4 0 0-.04-1.86q-3.16-23.36-3.4-26.11c-.58-6.69-2.05-12.61-2.53-18.52q-.83-10.25-1.97-17.07c-.66-3.93-.84-9.21-1.44-12.56q-.02-.08-.27-3.49-.72-9.9-4.54-36.57-.54-3.73-.91-8.63-.62-8.22-.67-8.66-3.44-29.57-3.81-33.52-.74-7.88-1.57-14.12c-.21-1.6-.1-3.37-.27-4.62q-2-15.25-3.02-31.99-.68-11.07-2.39-26.85a.16.15 52.4 0 0-.3-.04M566.69 869.46v-81.93a1.56 1.56 0 0 0-1.56-1.56h-51.71a2.88 2.84 22.6 0 0-2 .81q-1.84 1.8-2.3 2.34-23.06 27.57-62.34 73.68-2.14 2.51-2.14 4.41-.04 33.01.06 38.79.05 2.56.54 3.83a1.93 1.93 0 0 0 1.8 1.23h69.37a.6.6 0 0 1 .6.6v34.33a2.69 2.69 0 0 0 2.21 2.65q1.39.25 3.19.24 35.18-.18 39.59-.11 2.57.03 4.11-.79a1.26 1.24 76.3 0 0 .66-1.11v-35.39a.39.39 0 0 1 .39-.39q13.05-.18 24.1-.05c2.4.03 3.28-1.09 3.28-3.47q.04-25.03-.06-31.38c-.05-3.64.42-6.2-3.96-6.17q-4.12.04-23.24.03a.59.59 0 0 1-.59-.59m63.03 89.74q-.12-.12-.32-.08a.32.31 87.5 0 0-.24.27c-1.05 6.77-.92 15.44-1.63 22.1-.7 6.44-1.35 19.26-2.59 28.34q-.82 5.96-1.44 14.66-.26 3.72-1.64 14.62-2.02 16.08-4.01 29.11c-.3 1.98-.32 4.98-.67 7.22q-1.73 11.1-2.53 21.44a.54.54 0 0 0 .6.58q11.67-1.24 24.99-4.24a1.14 1.14 0 0 0 .89-1.11c-.01-2.13.12-4.6-.26-7.11q-2.02-13.18-5.28-45-1.26-12.26-1.57-17.32-.51-8.06-1.4-17.33-2.32-24.28-2.89-46.11a.1.08 38 0 0-.01-.04m-251.16 1.31q-.44 2.4-.43 2.75.27 15.26-2.6 35.26-1.13 7.91-2.34 23.79c-.4 5.14-1.64 11.3-1.89 15.21q-.65 10.08-2.13 18.87c-1.72 10.16-2.25 18.44-4.04 28.58q-.25 1.41.14 3.92a.9.9 0 0 0 .55.69q2.88 1.13 3.41 1.23 10.56 1.91 23.4 4.53a.51.51 0 0 0 .61-.51c-.12-3.63-.16-6.27-.7-10.26q-6.16-45.07-6.81-54.39-.28-3.96-1.08-11.08c-1.37-12.19-2.48-23.97-3.72-34.63-1.01-8.64-1.12-17.39-2.01-23.95a.18.18 0 0 0-.36-.01"/><path d="M454.19 421.37a.25.24-3.1 0 1 .31-.34c4.52 1.77 8.89 3.66 13.71 4.73q14.5 3.22 25.07 3.97c8.72.62 14.66 1.41 21.97 1.06 17.91-.87 34.81-3.15 51.28-8.95a.29.28 83 0 1 .38.3q-.04.38-.53.74-10.49 7.92-17.88 12.86-15.67 10.48-33.65 17.35c-5.2 1.99-12.27-2.02-17.17-4.22-12.59-5.63-23.98-12.18-34.4-20.4q-5.36-4.22-8.49-6.42-.39-.27-.6-.68m39.6 448.72 22.87-28.63a.2.2 0 0 1 .36.13v27.54a.8.8 0 0 1-.79.8l-22.37.3a.09.09 0 0 1-.07-.14"/></g><g fill="#070705"><path d="M522.41 313.04h27.79a2.35 2.33 78.7 0 1 2.16 1.45q7.93 19.15 23.66 32.99c9.8 8.62 22.62 15.5 35.73 16.56q1.95.16 5.42-.54a8.7 8.41 41.6 0 1 2.57-.11q8.82.96 12.22 2 13.94 4.26 25.01 14.84 7.71 7.36 21.27 14.65c5.2 2.8 10.2 3.88 16.49 6.15q12.26 4.42 23.31 13.69 5.98 5.02 8.2 7.13 10.54 10.03 17.93 22.81 6.91 11.94 6.97 24.61a.79.79 0 0 1-.79.79h-61.77a.59.59 0 0 0-.58.5c-1.41 8.65-1.05 20.88-1.12 25.94q-.07 5.87.75 12.69c.42 3.45.27 7.07.72 10.45q1.53 11.36 3.1 18.66 5.87 27.23 21.16 49.8c2 2.95 4.9 6.41 7.39 9.51q1.94 2.42 3.17 3.68 10.93 11.23 23.02 18.8 3.13 1.96 5.56 4.09a1.78 1.76 26.8 0 1 .56 1.67q-4.83 23.87-7.13 48.24c-.29 3.09-.22 6.49-.76 9.71q-.21 1.24-.34 3.88-.64 12.75-1.31 26.71-.78 16.51-.79 26.76c0 20.43-.9 38.98-.94 61.14q-.15 76.71-.03 134.39.03 13.75.57 24.63.59 11.8.46 24.63c-.07 7.26.95 14.73.89 22.22q-.04 4.2.68 14.17.21 2.78.66 14.17.73 17.92 2.16 34.12.59 6.61-.51 9.15-1.88 4.33-6.35 6.58-8.73 4.4-17.37 7.58-28.56 10.52-57.69 17.09-41.64 9.4-84.4 13.65-4.43.44-5.72.38c-2.59-.12-4.83.65-7.62.78q-3.16.14-10.35.26c-3.1.04-5.84.73-8.82.77q-35.26.45-67.47.05-5.05-.07-10.16-.62-4.08-.45-10.24-.37a21.54 21.18 49 0 1-3.74-.29q-4.99-.84-10.16-.72a4.21 3.96 50.3 0 1-1.13-.14q-.69-.18-1.9-.3-39.97-3.89-77.72-12.03-32.55-7.03-65.04-18.48-9.28-3.28-17.9-7.82-2.62-1.38-4.39-4.11a3.01 2.82 25.5 0 1-.42-1.07c-1.06-6.33.72-12.14.69-17.61-.03-5.13.97-8.9 1.01-14.08q.03-3.73.64-8.5c.46-3.68.14-7.64.56-11.35q.79-7.01.82-14.98c.02-4.78.92-8.96.9-13.35q-.03-9.49.36-15.91c.98-15.93.83-28.74 1.38-48.07q.33-11.67.33-32.21-.02-54.22-.2-61.4l-.3-11.5c-.5-20.47-.01-50.24-1.01-76.17q-.63-16.3-.54-23.83.06-5.6-.6-12.35-.43-4.36-.38-12.36c.03-4.75-1.15-10.26-.98-15.15q.11-3.06-.54-6.69c-.71-3.97-.08-8.44-.99-12.59-.52-2.35-.44-5.3-.73-7.82q-2.26-20.34-6.03-39.14a1.64 1.63-22.3 0 1 .72-1.71q6.82-4.39 13.85-9.4 8.68-6.18 17.39-16.07 19.38-22.02 27.31-51.45 3.88-14.38 4.78-22.61.67-6.1 1.05-7.32a2.91 2.9 53.7 0 0 .13-.86q.02-4.91.46-8.98c1.04-9.53.67-18.97.55-29.25q-.05-4.1-.89-7.69a.65.65 0 0 0-.63-.5h-62.86a.6.6 0 0 1-.6-.63l.21-4.13a2.8 2.63 60.8 0 1 .25-1q.58-1.22.65-3.35a6.02 5.93-38.2 0 1 .13-1.03q2.73-12.11 11.51-24.18c10.01-13.74 23.53-25.48 39.1-33.1q3.22-1.58 10.51-3.73 16.58-4.89 29.32-16.24 3.53-3.14 7.93-6.85 10.62-8.94 24.28-11.52c4.78-.9 9.99-.34 14.67-.15 11.14.45 21.72-5.14 30.71-12.14q13.43-10.43 22.45-24.54 2.45-3.83 6.93-13.11a2.35 2.35 0 0 1 2.12-1.33h24.75a.52.51-.5 0 0 .52-.52c-.06-7.71-.63-13.88.94-19.98q2.76-10.69 12.07-17.74 2.02-1.53 6.39-3.98c5.41-3.03 8.4-6.68 8.68-12.81q.45-9.58-8-13.58a3.58 3.43-26.6 0 0-.97-.3q-10.13-1.63-13.77 6.03-1.68 3.52-1.5 11.43.13 5.76.05 11.88a.57.56.5 0 1-.57.55h-20.73a.57.56 0 0 1-.57-.56q-.11-10.54.08-19.17.22-9.56 5.47-17.68 8.47-13.1 23.67-15.44 5.05-.78 11.11.34 5.26.98 10.39 3.98 8.78 5.13 13.63 13.74 3.87 6.85 4.53 14.92c.92 11.06-2.2 22.23-9.69 29.59q-2.59 2.55-10.11 7.09c-8.66 5.23-8.8 12.24-8.35 21.61a.64.63-.9 0 0 .64.61m-90.25 71.58q10.64 8.12 22.62 12.85 14.01 5.54 28.26 8.27c1.93.37 4.11.14 5.84.76q1.32.46 4.36.51 2.94.04 5.57.7a6.06 6.03 52.3 0 0 1.38.18q8.57.15 18.7.09c3.62-.02 7.31-.94 11.49-1.06a4.56 4.47-54.5 0 0 1.29-.23c2.18-.74 4.36-.58 6.63-1.02q14.76-2.85 28.29-8.21c7.68-3.04 16.19-7.92 22.26-13.56a.45.45 0 0 0-.24-.78q-1.26-.19-2.82-.91-19.98-9.22-32.84-24.84-1.8-2.19-3.57-1.72-7.37 1.95-10.65 2.22c-3.6.31-5.64.79-8.99 1.05q-18.02 1.42-37.6-.04c-2.93-.22-5.28-.95-8.32-.94a2.37 2.03-33.5 0 1-.56-.07l-9.42-2.62a1.23 1.23 0 0 0-1.26.38c-11 12.46-24.63 23.01-40.34 28.52a.27.27 0 0 0-.08.47M388.9 374.6a.47.46 64.4 0 0-.2.59q2.36 5.56 6.4 12.73 38.06 67.46 110.81 92.87c2.68.93 5.26 1.43 7.78.61 30.86-10.05 60.5-28.26 82.18-52.03q22.49-24.64 37.32-54.33a1.53 1.53 0 0 0-.5-1.95q-4.74-3.31-9.59-4.33a1.09 1.08-70.4 0 0-1.19.57q-3.96 7.52-8.5 15.32-21.42 36.82-54.37 60.62-22.2 16.04-46.65 23.77-1.69.53-3.75-.19c-44.32-15.39-80.64-47.24-103.04-88.21q-3.19-5.83-5.86-11.01a1.08 1.07-28.9 0 0-1.49-.43zm-11.4 12.78q-6.53 5.93-14.58 10.46a1.61 1.6-23.4 0 0-.75 1.88c8.9 28.16 12.86 56.59 13.19 86.28.26 23.93-.66 47.58-6.12 70.78q-5.1 21.7-15.73 43.01-17.23 34.57-49.9 55.1a2.95 2.82 24.8 0 1-1.23.42c-4.58.44-6.59-7.19-7.26-10.93a1.44 1.43-21.8 0 1 .62-1.44q5.74-3.81 5.77-3.84c28.17-20.48 45.84-52.69 53.34-86.27q5.79-25.96 6.19-51.83.43-28.8-2.97-53.68c-2.15-15.73-5.81-30.07-10.68-44.45q-.43-1.27-.71-1.53a1.29 1.29 0 0 0-1.47-.19l-5.55 2.9a1.34 1.33-24.1 0 0-.64 1.65c6.33 17.02 10.42 34.64 12.37 52.37q3.81 34.56-.46 69.68-1.35 11.15-4.3 22.94c-8.69 34.81-28.03 64.83-58 84.8a1.22 1.22 0 0 0-.52 1.24q3.49 18.97 4.73 37.91c.84 12.88 2.11 32.87 2.19 48.17.08 14.96 1.07 40.36.93 60.77q-.09 12.12.32 22.7.77 19.62.79 33.99.12 92.77-.11 109.48-.04 2.47-.65 21.03-1.43 43.66-3.79 76.2-.8 10.94-1.54 22.37a1.38 1.38 0 0 0 .95 1.4q7.97 2.57 20.58 6.71 21.4 7.02 47.28 12.92 52.71 12.02 104.94 16.03 6.27.48 8.56.56c7.58.25 13.97 1.03 21.38 1.03h29.72c10.28 0 18.74-.89 30.46-1.47q11.57-.57 22.78-1.84 27.77-3.16 58.85-8.74 36.74-6.61 69.27-16.96 11.18-3.56 25.85-8.46a1.27 1.27 0 0 0 .87-1.26c-.3-8.15-1.15-15.55-1.54-24.37q-.61-13.36-1.38-29.04c-.46-9.34-.38-17.82-.86-24.46-.94-12.87-.63-22.61-1.24-38.05-.8-20.07-.47-34.91-.5-71.31-.03-37.95 1.3-71.18 1.03-108.44-.09-11.96 1.07-27.01.97-38.35q-.13-13.06.34-24.03c1.07-24.75 1.28-50.44 6.7-74.12a2.14 2.12 23.2 0 0-.92-2.27q-12.55-8.13-22.65-19c-22.18-23.86-34.41-52.88-38.47-85.31q-5.35-42.73 1.22-85.64 2.86-18.69 9.94-39.03a1.43 1.42 21.4 0 0-.78-1.78l-5.93-2.56a1.16 1.16 0 0 0-1.56.7c-3.94 11.81-6.67 24.29-8.83 35.93q-3.78 20.42-4.29 47.6c-.45 23.88 1.1 47.67 6.73 71.06 8.13 33.81 27.88 67.67 57.74 85.96a1.09 1.09 0 0 1 .48 1.22c-.91 3.23-2.42 9.48-4.63 10.86q-1.73 1.09-4.51-.65c-33.19-20.62-53.13-55.23-62.76-91.92-5.31-20.24-6.85-41.37-7.7-63.27-.4-10.29.53-20.82 1.02-30.93q1.7-34.88 11.67-67a1.99 1.99 0 0 0-.94-2.33q-9.2-5.07-16.61-11.7a.55.55 0 0 0-.85.14q-6.51 11.81-14.49 23.61c-20.85 30.83-49.44 55.43-82.62 72.25-10.66 5.41-22.26 9.38-33.44 13.27q-1.65.58-3.44.06-21.05-6.01-41.35-17.17-58.82-32.33-89.56-91.65a.62.61-34.5 0 0-.96-.17m76.69 33.99q.21.41.6.68 3.13 2.2 8.49 6.42c10.42 8.22 21.81 14.77 34.4 20.4 4.9 2.2 11.97 6.21 17.17 4.22q17.98-6.87 33.65-17.35 7.39-4.94 17.88-12.86.49-.36.53-.74a.29.28 83 0 0-.38-.3c-16.47 5.8-33.37 8.08-51.28 8.95-7.31.35-13.25-.44-21.97-1.06q-10.57-.75-25.07-3.97c-4.82-1.07-9.19-2.96-13.71-4.73a.25.24-3.1 0 0-.31.34m269.87 29.27c-6.58-10-16.74-20.37-27.69-25.77a.78.78 0 0 0-1.11.53l-5.81 24.78a.66.65 6.6 0 0 .64.8h33.79a.22.22 0 0 0 .18-.34m-423.65.36h33.95a.53.53 0 0 0 .48-.74c-1.02-2.28-.71-4.42-1.33-7.19q-2.14-9.52-3.92-14.64-.7-1.98-1.07-3.08a.7.69 65.9 0 0-1-.39q-16.14 9.22-27.52 25.26a.5.49 17.5 0 0 .41.78"/><path d="M567.28 870.05q19.12.01 23.24-.03c4.38-.03 3.91 2.53 3.96 6.17q.1 6.35.06 31.38c0 2.38-.88 3.5-3.28 3.47q-11.05-.13-24.1.05a.39.39 0 0 0-.39.39v35.39a1.26 1.24 76.3 0 1-.66 1.11q-1.54.82-4.11.79-4.41-.07-39.59.11-1.8.01-3.19-.24a2.69 2.69 0 0 1-2.21-2.65v-34.33a.6.6 0 0 0-.6-.6h-69.37a1.93 1.93 0 0 1-1.8-1.23q-.49-1.27-.54-3.83-.1-5.78-.06-38.79 0-1.9 2.14-4.41 39.28-46.11 62.34-73.68.46-.54 2.3-2.34a2.88 2.84 22.6 0 1 2-.81h51.71a1.56 1.56 0 0 1 1.56 1.56v81.93a.59.59 0 0 0 .59.59m-41.3 34.59v36.54a.82.82 0 0 0 .82.82h32.63a.59.59 0 0 0 .59-.59v-36.76a.67.67 0 0 1 .67-.67h26.56a.48.48 0 0 0 .48-.48v-25.94a.55.55 0 0 0-.55-.55h-26.4a.72.72 0 0 1-.72-.72v-83.25a1.05 1.05 0 0 0-1.05-1.05h-42a3.97 3.96-70 0 0-3.04 1.42q-18.79 22.64-43.22 51.05c-4.97 5.77-11.33 13.81-17.79 21.34-1.08 1.26-1.9 2.71-1.9 4.24q.05 24.76-.01 33.47a.47.47 0 0 0 .47.47h73.8a.66.66 0 0 1 .66.66"/><path d="M525.64 877.03h-45.79a.33.33 0 0 1-.25-.54L525.39 821a.33.33 0 0 1 .58.21v55.49a.33.33 0 0 1-.33.33m-31.78-6.8 22.37-.3a.8.8 0 0 0 .79-.8v-27.54a.2.2 0 0 0-.36-.13l-22.87 28.63a.09.09 0 0 0 .07.14"/></g><path fill="#fefdf5" d="M525.98 904.64a.66.66 0 0 0-.66-.66h-73.8a.47.47 0 0 1-.47-.47q.06-8.71.01-33.47c0-1.53.82-2.98 1.9-4.24 6.46-7.53 12.82-15.57 17.79-21.34q24.43-28.41 43.22-51.05a3.97 3.96-70 0 1 3.04-1.42h42a1.05 1.05 0 0 1 1.05 1.05v83.25a.72.72 0 0 0 .72.72h26.4a.55.55 0 0 1 .55.55v25.94a.48.48 0 0 1-.48.48h-26.56a.67.67 0 0 0-.67.67v36.76a.59.59 0 0 1-.59.59H526.8a.82.82 0 0 1-.82-.82zm-.34-27.61a.33.33 0 0 0 .33-.33v-55.49a.33.33 0 0 0-.58-.21l-45.79 55.49a.33.33 0 0 0 .25.54z"/><path fill="#cfa100" d="M357.45 621.31a.26.25 5.8 0 1 .28-.22l.04.01a.13.13 0 0 1 .12.13c-.06 5.61-.7 9.6-.79 15.66q-.22 15.32-.31 18.07-.53 16.56-.54 18.05-.23 23.19-1.12 54.31-.41 14.47-.79 19.71-.64 8.84-.85 19.72-.13 6.65-1.4 21.69-.64 7.57-.7 16.7-.05 9.53-.66 16.69c-.74 8.54-.75 17.07-1.37 27.22q-3.25 53.25-3.97 62.47-1.04 13.35-1.05 13.51-1.53 26.27-4.76 60.69c-.29 3.11-.19 6.92-.56 10.03q-1.95 16.54-2.24 19.98-2.83 33.35-6.12 64.13a1.09 1.09 0 0 1-1.39.93q-15.11-4.38-29.09-8.98-2.01-.66-1.7-2.77c1.35-9.09 4.14-24.27 5.9-37.51q3.15-23.63 6.06-41.38c1.98-12.15 3.61-25.37 5.64-37.63q1.03-6.2 2.18-16.06 1.58-13.5 2.1-16.08c1.99-9.82 2.95-18.5 4.48-29.2q3.92-27.39 4.82-32.49.98-5.52 1.62-15.97c.47-7.53 2.28-14.75 3.35-23.3q1.81-14.57 4.06-29.17.34-2.24.83-6.72 1.8-16.67 2.74-22.95c.82-5.49.96-10.17 2.08-16.01q.36-1.9 1.01-6.9 1.24-9.48 3.17-27.9 2.79-26.64 4.17-37.6.89-7.13 1.78-20.85.69-10.79 1.69-20.88.17-1.74 1.29-9.13m311.15 8.85q1.71 15.78 2.39 26.85 1.02 16.74 3.02 31.99c.17 1.25.06 3.02.27 4.62q.83 6.24 1.57 14.12.37 3.95 3.81 33.52.05.44.67 8.66.37 4.9.91 8.63 3.82 26.67 4.54 36.57.25 3.41.27 3.49c.6 3.35.78 8.63 1.44 12.56q1.14 6.82 1.97 17.07c.48 5.91 1.95 11.83 2.53 18.52q.24 2.75 3.4 26.11a8.01 7.84 44.4 0 1 .04 1.86q-.24 2.56.21 3.45.87 1.72 1.17 3.96 1.15 8.82 2.89 19.92.52 3.36 1.76 17.83.29 3.45.68 5.14c.89 3.9.75 7.86 1.51 11.71.77 3.83 1.08 5.08 1.33 8.66.29 4.05 1.37 8.16 1.95 12.46q2.06 15.17 4.54 32.24.29 1.99.74 5.11 3.98 27.39 11.11 73.55.42 2.73-1.64 3.39-5.41 1.72-11.49 3.48c-4.56 1.32-8.46 3.33-13.17 4.18a.59.59 0 0 1-.7-.53q-.87-8.76-1.11-13.86-.26-5.76-1.08-13.85-1.18-11.6-3.27-41.07c-.78-10.96-1.56-16.09-1.74-22.03-.09-3.05-.81-5.75-1.07-8.96q-2.22-27.06-3.44-43.88l-.16-2.16q-.77-9.87-1.53-18.66-.98-11.13-1.34-18.64c-.53-10.97-1.66-21.47-2.41-32.86q-1.35-20.69-3.41-52.74-.12-1.73-.18-3.31-.43-10.32-.75-13.01-.78-6.55-.64-11.83.12-4.53-.59-11.83-.58-5.89-.72-14.06a4.3 4.24 38.2 0 0-.11-.87q-.45-1.99-.51-3.68c-.22-6.55-.93-12.79-1.13-19.65q-.7-24.25-2.1-74.15c-.25-8.84-1.36-18.57-.81-27.67q.01-.19.08-.39a.16.15 52.4 0 1 .3.04m-38.87 329.08q.57 21.83 2.89 46.11.89 9.27 1.4 17.33.31 5.06 1.57 17.32 3.26 31.82 5.28 45c.38 2.51.25 4.98.26 7.11a1.14 1.14 0 0 1-.89 1.11q-13.32 3-24.99 4.24a.54.54 0 0 1-.6-.58q.8-10.34 2.53-21.44c.35-2.24.37-5.24.67-7.22q1.99-13.03 4.01-29.11 1.38-10.9 1.64-14.62.62-8.7 1.44-14.66c1.24-9.08 1.89-21.9 2.59-28.34.71-6.66.58-15.33 1.63-22.1a.32.31 87.5 0 1 .24-.27q.2-.04.32.08a.1.08 38 0 1 .01.04m-250.81 1.28c.89 6.56 1 15.31 2.01 23.95 1.24 10.66 2.35 22.44 3.72 34.63q.8 7.12 1.08 11.08.65 9.32 6.81 54.39c.54 3.99.58 6.63.7 10.26a.51.51 0 0 1-.61.51q-12.84-2.62-23.4-4.53-.53-.1-3.41-1.23a.9.9 0 0 1-.55-.69q-.39-2.51-.14-3.92c1.79-10.14 2.32-18.42 4.04-28.58q1.48-8.79 2.13-18.87c.25-3.91 1.49-10.07 1.89-15.21q1.21-15.88 2.34-23.79 2.87-20 2.6-35.26-.01-.35.43-2.75a.18.18 0 0 1 .36.01"/></symbol></svg>