<svg xmlns="http://www.w3.org/2000/svg"><symbol id="ZoeSvg" viewBox="0 0 1536 1024"><g fill="none" stroke-width="2"><path stroke="#8a8885" d="M718.84 732.67q27.35-16.19 57.78-25.29 30.51-9.12 62.05-13.38 5.33-.72 12.7-.67 15.88.1 31.62-2.08m6.2-6.86q-1.16-.17-1.56-.51c-25.38-21.78-43-52-52.47-84.04q-1.52-5.14-4.04-15.92m-12.92-11.21c-2.49-4.42-4.58-9.32-8.99-12.21-4.65-3.04-8.99-.27-12.35 3.12q-7.81 7.86-13.06 12.93-.68.66-2.76 1.54a.81.8 54.4 0 1-.87-.15q-1.68-1.56-2.78-3.63c-9.51-18.04-16.74-38.59-23.37-57.94-1.24-3.64-2.94-7.11-4.39-10.43a.45.45 0 0 0-.86.19q.08 9.46-.59 20.61-2.08 35.05-18.31 64.1-7.84 14.05-17.55 23.22-4.28 4.05-7.19 5.33c-21.74 9.57-40.6 22.76-47.33 46.83m-103.23 53.12q-5.68-15.14-15.72-28.2-27.21-35.39-69.18-51.35m-6.41-1.68q-4.04 1.99-5.64 3.01-9.57 6.13-17.84 13.83m-50.16 14.37 4.6-9.85a2.17 2.15-8.5 0 1 .53-.71q1.22-1.06 2.67-1.4c28.39-6.62 53.78-19.1 78.26-35.44q18.12-12.09 33.85-29.13 11.11-12.04 18.58-22.44 26.27-36.59 34.85-81.12 1.65-8.6 3.1-21.61m-.04-3.39.74-12.71m-.14-3.51-.76-16.26m-.85-5.12q-5.46-30.8-20.09-58.04-4.81-8.97-11.53-16.8a.27.26 19.1 0 0-.46.22q2.84 14.31 1.57 28.99-3.96 45.75-34.38 78.51c-19.84 21.37-47.28 33.74-75.87 26.82q-7.83-1.89-21.42-8.31c-17.4-8.22-35.11-17.99-54.05-18.92-11.74-.58-11.48 10.05-8.59 17.97q5.8 15.91 15.35 31.69 11.58 19.13 15.12 25.55 6.26 11.34 7.24 25.23c1.43 19.97-5.42 38.87-17.55 54.57q-17.69 22.92-45.56 31.21-4.95 1.47-11.05 1.89a.41.41 0 0 0-.18.77q9.4 5.5 20.33 8.37 20.95 5.52 42.57 4.61a.4.4 0 0 1 .32.66l-7.99 9.76m26.29-.91 4.56-11.27a.29.29 0 0 0-.32-.39q-7.96 1.46-14.79 2.11c-2.43.23-3.19 1.05-4.62 2.99q-1.39 1.88-6.66 7.82m7.31-352.57q3.17-.97 6.65-3.23 16.22-10.53 28.5-26.66 3.66-4.79.57-9.52-3.52-5.4-9.54-12.23c-12.45-14.11-26.11-28.16-41.96-40.7q-2.64-2.09-5.56-3.29a1.54 1.54 0 0 0-2.07 1.02q-.71 2.61-.45 5.46.77 8.25 1.81 14.49 6.3 37.69 19.8 73.56a1.83 1.82 71 0 0 2.25 1.1M215.69 510.41q3.47-2.74 5.32-4.9 11.25-13.19 17.34-30.16.74-2.06.94-3.28a2.46 2.45 19.6 0 0-1.22-2.55q-5.35-2.99-12.39-5.96-23.62-9.97-48.5-16.45-6.7-1.75-13.69-2.79-1.87-.27-3.59.32a1.1 1.08 82 0 0-.72.97q-.12 2.44.93 4.23 3.83 6.49 10.06 14.55 8.22 10.62 20.03 23.93 7.86 8.86 15.72 15.99 3.57 3.24 8.71 6.18a.97.96-48.8 0 0 1.06-.08" vector-effect="non-scaling-stroke"/><path stroke="#f1d2c7" d="M371.19 317.74q3.4-1.45 6.93-3.87 15.15-10.43 26.09-24.41 1.13-1.45 2.26-5.39a1.89 1.84-48.6 0 0-.06-1.19c-1.43-3.56-3.94-6.53-6.44-9.66q-3.02-3.79-3.68-4.52-10.85-12.07-24.75-25.85-4.28-4.24-5.09-4.86-3.59-2.72-5.43-4.77-.32-.36-3-2.37c-2.84-2.13-5.04-4.13-8.1-5.97a1.18 1.17 22.2 0 0-1.75.73q-.53 2.22-.26 4.41 5.41 44.99 21.4 86.92a1.42 1.41-21.9 0 0 1.88.8m36.4 235.86q1.84 1.21 3.92 1.12 9.35-.41 19.23-2.8c1.57-.38 1.2-1.78 2.43-2.73q1.54-1.2 2.24-2a1.57 1.54-22.7 0 0 .38-.9q.35-4.46 1.68-15.78.57-4.87-.96-7.62c-2.88-5.16-7.3-.14-9.45 2.44q-3.71 4.47-8.1 10.59c-3.4 4.72-8.26 9.84-11.32 13.94q-.82 1.1-.58 2.88a1.22 1.22 0 0 0 .53.86" vector-effect="non-scaling-stroke"/><path stroke="#8a8885" d="M455.21 565.17a.94.93 89.3 0 1 .86-.89q.75-.05 6.17-.33c8.03-.41 15.74-4.61 22.04-10q8.43-7.23 11.91-18.36a4.49 4.47-63.5 0 0-1.64-4.95l-.09-.06a2.87 2.87 0 0 0-4.25 1.02q-2.65 5.19-4.08 7.85c-4.74 8.79-13.92 15.1-23.22 17.54q-5.5 1.45-11.43-.4c-4.21-1.31-7.97-4.65-11.37-6.61-2.28-1.31-5.83-2.04-6.93.94a1.16 1.15 38.2 0 0 .13 1.04c2.71 3.97 6.96 6.78 8.87 8.88q4.76 5.24 4.98 11.81.56 17.37-17.64 28.34a3.04 3.04 0 0 0-.94 4.32l.03.04a3.9 3.9 0 0 0 4.98 1.26c12.84-5.78 20.36-19.09 21.15-32.63q.17-2.85.47-8.81" vector-effect="non-scaling-stroke"/><path stroke="#f1d2c7" d="M215.9 508.67q3.24-2.74 5.82-5.96 10.8-13.49 16.1-29.68a2.46 2.45 24.1 0 0-1.11-2.89q-4.28-2.48-9.08-4.53-20.73-8.86-42.36-15.13-7.84-2.27-20.11-4.92-2.13-.46-3.52-.03a1.97 1.96-24 0 0-1.11 2.87q5.65 9.62 13.33 18.98 9.39 11.42 18.31 21.69 2.17 2.49 14.39 14.32c2.32 2.24 4.96 4.03 7.52 5.46a1.61 1.6-50.5 0 0 1.82-.18" vector-effect="non-scaling-stroke"/><path stroke="#8a8885" d="M710.52 659.65c-.59-3.66-10.23-.53-12.48.13q-16.39 4.81-23.12 20.62c-.81 1.9-1.89 7.15-.47 9a1.88 1.86-62.2 0 0 3.34-1.05q.12-1.88.37-3.54a8.48 8.25-30.8 0 1 .49-1.83q6.85-17.15 25.38-20.4.61-.11 5.1-.96a1.74 1.73-10 0 0 1.39-1.97m-.23 36.18c-4.3 5.48-7.69 11.52-8.43 18.99a1.87 1.86-83 0 0 1.58 2.03l.06.01a1.85 1.84-79.9 0 0 2.09-1.46q1.91-9.51 7.95-17.01 5.85-7.67 14.62-11.8a1.85 1.84-24 0 0 .92-2.37l-.02-.06a1.87 1.86-20.8 0 0-2.35-1.05c-7.08 2.5-12.13 7.25-16.42 12.72M443.1 743.05a1.5 1.5 0 0 0 1.86-1.84c-4.35-15.98-.37-31.44 9.29-44.69q.97-1.34.63-2.47a1.55 1.43-24.8 0 0-2.24-.73q-2.46 1.52-4.17 4.11-12.75 19.34-8.52 41.53.64 3.38 3.15 4.09m42.3 11.34a1.34 1.33-4.3 0 0 1.62-1.88q-4.07-7.74-4.19-16.57c-.06-4.25.05-8.35.95-11.67q1-3.72 4.3-9.69c.78-1.4 1.26-2.88.63-4.22a1.51 1.28-29 0 0-2.05-.41q-1.76 1.09-2.73 2.88-9.7 17.9-2.56 37.09 1.31 3.53 4.03 4.47" vector-effect="non-scaling-stroke"/></g><path fill="#1e1e1e" d="M718.84 732.67q27.35-16.19 57.78-25.29 30.51-9.12 62.05-13.38 5.33-.72 12.7-.67 15.88.1 31.62-2.08 25.24-.94 44.26-2.53 5.03-.42 7.83-.6c22.01-1.35 45.47-4.84 71.67-10.11q28.86-5.8 55.56-15.93 29.15-11.06 54.44-28.56 33.32-23.05 53.71-57.53 7.1-12.03 11.53-25.13 1.26-3.74 2.57-10.33 1-5.04 2.31-10.68a1.02 1.01-53.4 0 0-.1-.7l-.23-.39a.38.38 0 0 0-.69.05q-6.99 18.5-16.21 32.85-17.97 27.94-42.83 48.74-17.65 14.77-39.77 26.37-21.25 11.13-44.03 18.46c-18.73 6.03-37.86 10.39-57.28 14.28q-6.11 1.22-15.01 2.64-19.8 3.16-23.3 3.68-18.03 2.66-56.76 7.2a1.42 1.4 19.7 0 0-.84.39q-.43.41-.63.97-1.16-.17-1.56-.51c-25.38-21.78-43-52-52.47-84.04q-1.52-5.14-4.04-15.92-10.96-67.21 12.74-129.8 18.19-48.03 57.28-81.87 14.14-12.24 30.78-21.38 17.02-9.36 34.06-15.82 5.42-2.05 13.88-4.5 5.28-1.52 14.02-4.16 1.18-.36 2.13-.97a.2.2 0 0 0-.09-.36q-3.84-.42-15.46 1.57-13.24 2.28-20.96 4.62-53.73 16.33-90.79 58.69c-27.14 31.02-44.33 69.16-50.47 109.56q-2.12 14.01-3.03 28.14-1.06 16.67.68 32.71c.43 3.94 1.53 8.24 2.31 12.36-2.49-4.42-4.58-9.32-8.99-12.21-4.65-3.04-8.99-.27-12.35 3.12q-7.81 7.86-13.06 12.93-.68.66-2.76 1.54a.81.8 54.4 0 1-.87-.15q-1.68-1.56-2.78-3.63c-9.51-18.04-16.74-38.59-23.37-57.94-1.24-3.64-2.94-7.11-4.39-10.43a.45.45 0 0 0-.86.19q.08 9.46-.59 20.61-2.08 35.05-18.31 64.1-7.84 14.05-17.55 23.22-4.28 4.05-7.19 5.33c-21.74 9.57-40.6 22.76-47.33 46.83q-43.48 15.72-86.11 41.49-11.2 6.77-17.12 11.63-5.68-15.14-15.72-28.2-27.21-35.39-69.18-51.35 19.72-9.23 39.46-18.01 19.69-8.76 30.49-14.16 13.45-6.72 29.61-16.21c4.82-2.83 11.51-7.38 16.78-11.15q9.96-7.11 20.68-18.78 3.83-4.17 9.35-13.65c.9-1.54 1.3-3.06 2.06-4.8a.53.53 0 0 0-.72-.69l-1.61.78a3.97 3.92 9 0 0-1.1.79q-6.86 6.85-13.5 12.01-17.8 13.82-39.72 26.27-6.52 3.69-14.17 7.74-37.72 19.97-64.2 35.65-7.96 4.71-19.82 12.53-4.04 1.99-5.64 3.01-9.57 6.13-17.84 13.83-9 4.14-18.33 6.96-11.22 3.41-26.23 6.76-2.94.66-5.6.65l4.6-9.85a2.17 2.15-8.5 0 1 .53-.71q1.22-1.06 2.67-1.4c28.39-6.62 53.78-19.1 78.26-35.44q18.12-12.09 33.85-29.13 11.11-12.04 18.58-22.44 26.27-36.59 34.85-81.12 1.65-8.6 3.1-21.61 3.48-1.05 6.81-2.58 5.09-2.34 6.68-2.94 18.65-6.99 49.31-16.54 4.72-1.47 7.97-2.95a.71.71 0 0 0 .23-1.12q-.58-.66-1.55-.61-3.36.17-10.04 2.04-22.62 6.31-44.33 14.47-8.72 3.27-15.12 6.84l.74-12.71q2.18-1.72 4.63-2.79a5.08 4.84-72.9 0 0 .82-.46q6.02-4.18 10.46-7.12 5.38-3.57 10.3-7.24 18.24-13.59 39.04-28.15 4.1-2.87 7.91-6.32a1.88 1.88 0 0 0 .49-2.05l-.02-.04a1.03 1.03 0 0 0-1.53-.5q-27.85 17.98-53.71 37.49-1.02.77-9.44 6.59-4.71 3.24-9.09 7.08l-.76-16.26c1.44-1.75 3.22-3.23 4.62-4.91q7.82-9.43 18.14-21.19 5.85-6.67 20.11-27.14 4.07-5.84 6.31-11.48a.81.81 0 0 0-1.03-1.06q-1.76.66-2.86 2.21-21.3 30.18-46.14 58.45-5.46-30.8-20.09-58.04-4.81-8.97-11.53-16.8a.27.26 19.1 0 0-.46.22q2.84 14.31 1.57 28.99-3.96 45.75-34.38 78.51c-19.84 21.37-47.28 33.74-75.87 26.82q-7.83-1.89-21.42-8.31c-17.4-8.22-35.11-17.99-54.05-18.92-11.74-.58-11.48 10.05-8.59 17.97q5.8 15.91 15.35 31.69 11.58 19.13 15.12 25.55 6.26 11.34 7.24 25.23c1.43 19.97-5.42 38.87-17.55 54.57q-17.69 22.92-45.56 31.21-4.95 1.47-11.05 1.89a.41.41 0 0 0-.18.77q9.4 5.5 20.33 8.37 20.95 5.52 42.57 4.61a.4.4 0 0 1 .32.66l-7.99 9.76q-9.75.06-17.28-.9-10.51-1.34-22.47-4.47c-5.42-1.42-12.2-4.26-16.19-5.9q-14.88-6.11-28.7-17.76-14.63-12.33-25.4-29.31-17.76-27.97-24.28-60-.47-2.31-1.52-4.01a2.38 2.26 89.7 0 0-.69-.72q-13.11-8.87-25.43-20.15-27.97-25.61-49.05-56.44c-7.38-10.8-14.39-22.83-18.78-35.26-.92-2.58-1.22-4.57-1.84-7.52q-1.47-7.03 5.03-9.45 2.55-.95 11.06-1.98 10.47-1.26 19.09-1.54 3.43-.11 8.83-.63c5.88-.56 13.03-.21 19.32-.64 17.06-1.15 34.37-.85 50.58-.59a1.52 1.51 10.9 0 0 1.43-.96c15.99-41.28 42.05-78.43 74.64-108.25a2.2 2.19-22.4 0 0 .72-1.71q-1.18-32.51-.8-67.52c.1-9.07 1-18.94 1.01-25.69 0-3.37.71-5.91 1.01-9.05q.15-1.58.86-3.53c2.77-7.51 9.67-7.22 16.39-4.62q7.12 2.75 13.81 6.07 34.65 17.19 62.82 42.59a.72.72 0 0 0 .98-.01c36.1-34.78 79.13-61.81 125.53-80.95q53.11-21.9 111.97-32.87 27.08-5.04 60.11-9.09l7.03-.87q4.66-.7 11.7-.73c1.09 0 2.91-.58 3.94-.63q36.63-1.83 54.53-1.01 5.31.25 16.73.7 6.63.27 13.51.96 11.27 1.15 13.51 1.19 3.03.05 16.49 1.97 53.17 7.58 102.39 24.11 36.87 12.38 73.16 31.51 27.63 14.57 51.73 31.75 53.18 37.93 93.11 87.88 29.99 37.52 48.98 79.71 25.05 55.63 28.53 116.46.81 14.17.1 36.99c-.13 4.17-.59 7.5-1.05 12.99q-2.71 31.83-12.17 65.24c-8.79 31.04-22.21 60.58-42.31 86.22q-19.16 24.46-44.18 42.06-21.12 14.85-47.8 25.69-6.05 2.46-18.13 6.32-25.6 8.17-55.05 12.73-3.98.62-28.04 3.58-5.3.66-6.33.65-3.62-.02-6.33.45c-3.92.68-9.67.44-14.08 1.09-4.93.73-10.85.34-15.83.87-7.81.82-18.16.46-25.84 1.26-5.91.61-12.41.16-18.47.64q-8.6.68-19.03.8c-3.32.04-7.23.86-11.12.84q-1.4-.01-4.46.25-10.4.89-21.74 2.12-.05 0-1.21.18-11.9 1.79-23.07 4.5-30.81 7.49-56.43 25.39-16.93 11.82-32.66 28.54-7.75 8.24-24.05 27.73c-9.13 10.92-18.51 21.49-30.55 28.66-22.2 13.23-47.59.1-52.58-24.3q-.24-1.15-.98-5.7-.49-2.95-.55-5.79-.34-15.85 4-31.31 4.31-15.34 12.01-30.03 25.06-47.8 69.88-77.51M370.56 319.16q3.17-.97 6.65-3.23 16.22-10.53 28.5-26.66 3.66-4.79.57-9.52-3.52-5.4-9.54-12.23c-12.45-14.11-26.11-28.16-41.96-40.7q-2.64-2.09-5.56-3.29a1.54 1.54 0 0 0-2.07 1.02q-.71 2.61-.45 5.46.77 8.25 1.81 14.49 6.3 37.69 19.8 73.56a1.83 1.82 71 0 0 2.25 1.1M215.69 510.41q3.47-2.74 5.32-4.9 11.25-13.19 17.34-30.16.74-2.06.94-3.28a2.46 2.45 19.6 0 0-1.22-2.55q-5.35-2.99-12.39-5.96-23.62-9.97-48.5-16.45-6.7-1.75-13.69-2.79-1.87-.27-3.59.32a1.1 1.08 82 0 0-.72.97q-.12 2.44.93 4.23 3.83 6.49 10.06 14.55 8.22 10.62 20.03 23.93 7.86 8.86 15.72 15.99 3.57 3.24 8.71 6.18a.97.96-48.8 0 0 1.06-.08"/><path fill="#f5f1eb" d="M370.56 319.16a1.83 1.82 71 0 1-2.25-1.1q-13.5-35.87-19.8-73.56-1.04-6.24-1.81-14.49-.26-2.85.45-5.46a1.54 1.54 0 0 1 2.07-1.02q2.92 1.2 5.56 3.29c15.85 12.54 29.51 26.59 41.96 40.7q6.02 6.83 9.54 12.23 3.09 4.73-.57 9.52-12.28 16.13-28.5 26.66-3.48 2.26-6.65 3.23m.63-1.42q3.4-1.45 6.93-3.87 15.15-10.43 26.09-24.41 1.13-1.45 2.26-5.39a1.89 1.84-48.6 0 0-.06-1.19c-1.43-3.56-3.94-6.53-6.44-9.66q-3.02-3.79-3.68-4.52-10.85-12.07-24.75-25.85-4.28-4.24-5.09-4.86-3.59-2.72-5.43-4.77-.32-.36-3-2.37c-2.84-2.13-5.04-4.13-8.1-5.97a1.18 1.17 22.2 0 0-1.75.73q-.53 2.22-.26 4.41 5.41 44.99 21.4 86.92a1.42 1.41-21.9 0 0 1.88.8"/><path fill="#ecb2a2" d="M371.19 317.74a1.42 1.41-21.9 0 1-1.88-.8q-15.99-41.93-21.4-86.92-.27-2.19.26-4.41a1.18 1.17 22.2 0 1 1.75-.73c3.06 1.84 5.26 3.84 8.1 5.97q2.68 2.01 3 2.37 1.84 2.05 5.43 4.77.81.62 5.09 4.86 13.9 13.78 24.75 25.85.66.73 3.68 4.52c2.5 3.13 5.01 6.1 6.44 9.66a1.89 1.84-48.6 0 1 .06 1.19q-1.13 3.94-2.26 5.39-10.94 13.98-26.09 24.41-3.53 2.42-6.93 3.87"/><path fill="#f5f1eb" d="M565.01 426.63q-.18 2.79.85 5.12l.76 16.26.14 3.51-.74 12.71.04 3.39q-1.45 13.01-3.1 21.61-8.58 44.53-34.85 81.12-7.47 10.4-18.58 22.44-15.73 17.04-33.85 29.13c-24.48 16.34-49.87 28.82-78.26 35.44q-1.45.34-2.67 1.4a2.17 2.15-8.5 0 0-.53.71l-4.6 9.85q-8.3 17.96-11.85 24.22-4.81 8.51-7.99 12.28-3.89 4.63-6.28 8.19-.43.64-5.11 5.44a.34.34 0 0 1-.58-.19c-.33-2.46 1.94-4.07 3.01-5.9q2.99-5.08 4.61-7.21 2.57-3.4 4.69-7.12 7.95-13.93 14.96-28.56l4.56-11.27a.29.29 0 0 0-.32-.39q-7.96 1.46-14.79 2.11c-2.43.23-3.19 1.05-4.62 2.99q-1.39 1.88-6.66 7.82-4.47 4.69-8.8 9.55c-7.55 8.48-16.65 17.93-21.98 22.68q-2.57 2.3-4.75 3.48a.96.79-20.5 0 1-1.36-.47q-.03-.25.41-.71 16.28-17.02 32.02-34.88l7.99-9.76a.4.4 0 0 0-.32-.66q-21.62.91-42.57-4.61-10.93-2.87-20.33-8.37a.41.41 0 0 1 .18-.77q6.1-.42 11.05-1.89 27.87-8.29 45.56-31.21c12.13-15.7 18.98-34.6 17.55-54.57q-.98-13.89-7.24-25.23-3.54-6.42-15.12-25.55-9.55-15.78-15.35-31.69c-2.89-7.92-3.15-18.55 8.59-17.97 18.94.93 36.65 10.7 54.05 18.92q13.59 6.42 21.42 8.31c28.59 6.92 56.03-5.45 75.87-26.82q30.42-32.76 34.38-78.51 1.27-14.68-1.57-28.99a.27.26 19.1 0 1 .46-.22q6.72 7.83 11.53 16.8 14.63 27.24 20.09 58.04M407.59 553.6q1.84 1.21 3.92 1.12 9.35-.41 19.23-2.8c1.57-.38 1.2-1.78 2.43-2.73q1.54-1.2 2.24-2a1.57 1.54-22.7 0 0 .38-.9q.35-4.46 1.68-15.78.57-4.87-.96-7.62c-2.88-5.16-7.3-.14-9.45 2.44q-3.71 4.47-8.1 10.59c-3.4 4.72-8.26 9.84-11.32 13.94q-.82 1.1-.58 2.88a1.22 1.22 0 0 0 .53.86m47.62 11.57a.94.93 89.3 0 1 .86-.89q.75-.05 6.17-.33c8.03-.41 15.74-4.61 22.04-10q8.43-7.23 11.91-18.36a4.49 4.47-63.5 0 0-1.64-4.95l-.09-.06a2.87 2.87 0 0 0-4.25 1.02q-2.65 5.19-4.08 7.85c-4.74 8.79-13.92 15.1-23.22 17.54q-5.5 1.45-11.43-.4c-4.21-1.31-7.97-4.65-11.37-6.61-2.28-1.31-5.83-2.04-6.93.94a1.16 1.15 38.2 0 0 .13 1.04c2.71 3.97 6.96 6.78 8.87 8.88q4.76 5.24 4.98 11.81.56 17.37-17.64 28.34a3.04 3.04 0 0 0-.94 4.32l.03.04a3.9 3.9 0 0 0 4.98 1.26c12.84-5.78 20.36-19.09 21.15-32.63q.17-2.85.47-8.81m-240.58-54.68q-5.14-2.94-8.71-6.18-7.86-7.13-15.72-15.99-11.81-13.31-20.03-23.93-6.23-8.06-10.06-14.55-1.05-1.79-.93-4.23a1.1 1.08 82 0 1 .72-.97q1.72-.59 3.59-.32 6.99 1.04 13.69 2.79 24.88 6.48 48.5 16.45 7.04 2.97 12.39 5.96a2.46 2.45 19.6 0 1 1.22 2.55q-.2 1.22-.94 3.28-6.09 16.97-17.34 30.16-1.85 2.16-5.32 4.9a.97.96-48.8 0 1-1.06.08m1.27-1.82q3.24-2.74 5.82-5.96 10.8-13.49 16.1-29.68a2.46 2.45 24.1 0 0-1.11-2.89q-4.28-2.48-9.08-4.53-20.73-8.86-42.36-15.13-7.84-2.27-20.11-4.92-2.13-.46-3.52-.03a1.97 1.96-24 0 0-1.11 2.87q5.65 9.62 13.33 18.98 9.39 11.42 18.31 21.69 2.17 2.49 14.39 14.32c2.32 2.24 4.96 4.03 7.52 5.46a1.61 1.6-50.5 0 0 1.82-.18"/><path fill="#ecb2a2" d="M215.9 508.67a1.61 1.6-50.5 0 1-1.82.18c-2.56-1.43-5.2-3.22-7.52-5.46q-12.22-11.83-14.39-14.32-8.92-10.27-18.31-21.69-7.68-9.36-13.33-18.98a1.97 1.96-24 0 1 1.11-2.87q1.39-.43 3.52.03 12.27 2.65 20.11 4.92 21.63 6.27 42.36 15.13 4.8 2.05 9.08 4.53a2.46 2.45 24.1 0 1 1.11 2.89q-5.3 16.19-16.1 29.68-2.58 3.22-5.82 5.96"/><path fill="#f5f1eb" d="M818.2 572.71q3.01 7.47 7.93 13.89 2.06 2.69 4.66 4.5a.75.74-76.3 0 0 1.16-.71l-.83-6.47q2.52 10.78 4.04 15.92c9.47 32.04 27.09 62.26 52.47 84.04q.4.34 1.56.51.99.39.59 1.14-.59 1.1-2.4 2.34-2.22 1.51-4.39 3.38-15.74 2.18-31.62 2.08-7.37-.05-12.7.67-31.54 4.26-62.05 13.38-30.43 9.1-57.78 25.29-9.91-1.31-17.44-4.35c-22.06-8.9-42.66-29.38-43.81-54.38-.11-2.19.46-5.07.21-7.72 6.73-24.07 25.59-37.26 47.33-46.83q2.91-1.28 7.19-5.33 9.71-9.17 17.55-23.22 16.23-29.05 18.31-64.1.67-11.15.59-20.61a.45.45 0 0 1 .86-.19c1.45 3.32 3.15 6.79 4.39 10.43 6.63 19.35 13.86 39.9 23.37 57.94q1.1 2.07 2.78 3.63a.81.8 54.4 0 0 .87.15q2.08-.88 2.76-1.54 5.25-5.07 13.06-12.93c3.36-3.39 7.7-6.16 12.35-3.12 4.41 2.89 6.5 7.79 8.99 12.21m-107.68 86.94c-.59-3.66-10.23-.53-12.48.13q-16.39 4.81-23.12 20.62c-.81 1.9-1.89 7.15-.47 9a1.88 1.86-62.2 0 0 3.34-1.05q.12-1.88.37-3.54a8.48 8.25-30.8 0 1 .49-1.83q6.85-17.15 25.38-20.4.61-.11 5.1-.96a1.74 1.73-10 0 0 1.39-1.97m-.23 36.18c-4.3 5.48-7.69 11.52-8.43 18.99a1.87 1.86-83 0 0 1.58 2.03l.06.01a1.85 1.84-79.9 0 0 2.09-1.46q1.91-9.51 7.95-17.01 5.85-7.67 14.62-11.8a1.85 1.84-24 0 0 .92-2.37l-.02-.06a1.87 1.86-20.8 0 0-2.35-1.05c-7.08 2.5-12.13 7.25-16.42 12.72"/><path fill="#ecb2a2" d="M407.06 552.74q-.24-1.78.58-2.88c3.06-4.1 7.92-9.22 11.32-13.94q4.39-6.12 8.1-10.59c2.15-2.58 6.57-7.6 9.45-2.44q1.53 2.75.96 7.62-1.33 11.32-1.68 15.78a1.57 1.54-22.7 0 1-.38.9q-.7.8-2.24 2c-1.23.95-.86 2.35-2.43 2.73q-9.88 2.39-19.23 2.8-2.08.09-3.92-1.12a1.22 1.22 0 0 1-.53-.86"/><path fill="#1e1e1e" d="M455.21 565.17q-.3 5.96-.47 8.81c-.79 13.54-8.31 26.85-21.15 32.63a3.9 3.9 0 0 1-4.98-1.26l-.03-.04a3.04 3.04 0 0 1 .94-4.32q18.2-10.97 17.64-28.34-.22-6.57-4.98-11.81c-1.91-2.1-6.16-4.91-8.87-8.88a1.16 1.15 38.2 0 1-.13-1.04c1.1-2.98 4.65-2.25 6.93-.94 3.4 1.96 7.16 5.3 11.37 6.61q5.93 1.85 11.43.4c9.3-2.44 18.48-8.75 23.22-17.54q1.43-2.66 4.08-7.85a2.87 2.87 0 0 1 4.25-1.02l.09.06a4.49 4.47-63.5 0 1 1.64 4.95q-3.48 11.13-11.91 18.36c-6.3 5.39-14.01 9.59-22.04 10q-5.42.28-6.17.33a.94.93 89.3 0 0-.86.89"/><path fill="#f5f1eb" d="m463.26 638.11 6.41 1.68q41.97 15.96 69.18 51.35 10.04 13.06 15.72 28.2-6.3 7.11-15.9 15.33c-12.4 10.61-25.83 18.19-41.36 19.79q-9.99 1.04-10.48 1.21a4.37 4.36-48.7 0 1-2.3.15c-6-1.24-15.3-1.56-22.23-3.68q-11.97-3.66-21.69-8.36a6.57 6.38 74.9 0 1-.99-.59c-10.66-7.81-18.07-16.3-21.43-29.31-4.2-16.27 2.58-33.47 11.94-46.87 2.61-3.74 6.48-7.99 9.65-12.06q8.27-7.7 17.84-13.83 1.6-1.02 5.64-3.01M443.1 743.05a1.5 1.5 0 0 0 1.86-1.84c-4.35-15.98-.37-31.44 9.29-44.69q.97-1.34.63-2.47a1.55 1.43-24.8 0 0-2.24-.73q-2.46 1.52-4.17 4.11-12.75 19.34-8.52 41.53.64 3.38 3.15 4.09m42.3 11.34a1.34 1.33-4.3 0 0 1.62-1.88q-4.07-7.74-4.19-16.57c-.06-4.25.05-8.35.95-11.67q1-3.72 4.3-9.69c.78-1.4 1.26-2.88.63-4.22a1.51 1.28-29 0 0-2.05-.41q-1.76 1.09-2.73 2.88-9.7 17.9-2.56 37.09 1.31 3.53 4.03 4.47"/><path fill="#1e1e1e" d="M710.52 659.65a1.74 1.73-10 0 1-1.39 1.97q-4.49.85-5.1.96-18.53 3.25-25.38 20.4a8.48 8.25-30.8 0 0-.49 1.83q-.25 1.66-.37 3.54a1.88 1.86-62.2 0 1-3.34 1.05c-1.42-1.85-.34-7.1.47-9q6.73-15.81 23.12-20.62c2.25-.66 11.89-3.79 12.48-.13m-325.44 10.82-21.83 1.26q5.27-5.94 6.66-7.82c1.43-1.94 2.19-2.76 4.62-2.99q6.83-.65 14.79-2.11a.29.29 0 0 1 .32.39zm328.46 27.92q-6.04 7.5-7.95 17.01a1.85 1.84-79.9 0 1-2.09 1.46l-.06-.01a1.87 1.86-83 0 1-1.58-2.03c.74-7.47 4.13-13.51 8.43-18.99 4.29-5.47 9.34-10.22 16.42-12.72a1.87 1.86-20.8 0 1 2.35 1.05l.02.06a1.85 1.84-24 0 1-.92 2.37q-8.77 4.13-14.62 11.8M443.1 743.05q-2.51-.71-3.15-4.09-4.23-22.19 8.52-41.53 1.71-2.59 4.17-4.11a1.55 1.43-24.8 0 1 2.24.73q.34 1.13-.63 2.47c-9.66 13.25-13.64 28.71-9.29 44.69a1.5 1.5 0 0 1-1.86 1.84m42.3 11.34q-2.72-.94-4.03-4.47-7.14-19.19 2.56-37.09.97-1.79 2.73-2.88a1.51 1.28-29 0 1 2.05.41c.63 1.34.15 2.82-.63 4.22q-3.3 5.97-4.3 9.69c-.9 3.32-1.01 7.42-.95 11.67q.12 8.83 4.19 16.57a1.34 1.33-4.3 0 1-1.62 1.88"/></symbol></svg>