<svg xmlns="http://www.w3.org/2000/svg"><symbol id="LucasJerseySvg" viewBox="0 0 1024 1536"><g fill="none" stroke-width="2"><path stroke="#361c41" d="M680.79 293.82a.28.28 0 0 0-.12-.43q-10.79-4.1-12.94-4.91c-1.84-.7-3.81-1.58-5.52-.51q-26.76 16.69-55.59 26.13-34.28 11.22-71.37 14.15-9.22.72-18 .76-14.54.06-18-.09-21.93-.92-46.32-5.25-4.25-.76-6.46-1.32c-5.42-1.4-10.76-2.3-15.99-3.95q-22.46-7.07-38.5-14.39-13.05-5.95-28.28-15.47-2.5-1.57-4.98-.58-5.92 2.37-14.36 5.38a.55.55 0 0 0-.15.95q3.5 2.7 7.35 5.14c16.55 10.47 32.34 19.27 50.37 26.22q37.37 14.42 76.81 18.43 19.88 2.02 34.25 1.99 8.39-.03 18.47-.85 14.51-1.19 18.41-1.65c46.4-5.47 90.95-21.5 129.16-48.03q.97-.67 1.76-1.72" vector-effect="non-scaling-stroke"/><path stroke="#8d5f24" d="m532.87 1261.76 19.9-.14" vector-effect="non-scaling-stroke"/><path stroke="#8d7525" d="M552.77 1261.62q24.43-.67 42.98-1.96c56.46-3.94 113.7-11.49 170.15-23.27q28.67-5.99 57.3-13.93 2.47-.68 3.92-1.57a.66.66 0 0 0 .31-.61q-3.75-47.58-6.29-88.53-.25-3.94-.48-7.96-1.26-21.27-2.48-48.51-.67-14.96-1.06-28.78c-.48-16.81-1.45-32.74-1.74-47q-1.14-54.72-1.18-83.25-.05-32.71.67-101.99.19-18.13 3.72-116.25c.73-20.35 2.27-44.28 3.23-60.04a1.7 1.7 0 0 0-.77-1.53q-16.67-10.86-31.2-24.95-19.45-18.85-32.79-38.92c-23.54-35.44-36.62-77.65-39.19-120.35-2.8-46.71 2.39-93.92 13.34-139.97a.73.72 16.6 0 0-.46-.85l-38.18-13.67a1.62 1.61 37 0 0-1.47.2c-8.41 5.86-12.39 8.84-19.18 12.96q-44.88 27.25-96.9 37.67c-28.07 5.62-56.51 7.37-85.22 5.5q-85.49-5.6-155.75-55.31a3.72 3.71 52.8 0 0-3.4-.47l-37.66 13.26a.71.71 0 0 0-.46.84q10.42 44.26 13.11 88.87c1.79 29.75 1.01 57.46-4.46 85.42q-14.74 75.25-70.12 127.63-13.53 12.8-28.16 21.97a1.88 1.88 0 0 0-.88 1.73q3.05 44.27 4.48 91.75.92 30.67 1.15 37.55c.5 14.32.34 25.83.78 39.78.87 28.07.69 42.55.97 83.19q.56 79.91-2.72 164.98-.08 2.27-1.27 29.51-.95 21.95-1.89 35.24-3.93 56.12-7.52 101a.45.44-80.1 0 0 .31.45q9.89 2.96 22.95 6.27 22.38 5.67 46.88 10.57c43.15 8.64 86.37 15.07 129.82 18.86q23.09 2.02 28.79 2.39 53.94 3.56 108.12 2.22" vector-effect="non-scaling-stroke"/><path stroke="#fbb627" d="M552.77 1261.62q-1.3-1.65 1.24-1.61 8.86.15 13.34-.11 11.5-.67 13.33-.65 5.43.05 11.27-.91 2.32-.39 4.11-.38c4.04.01 5.69.09 10.36-.52q2.37-.3 6.87-.33a12.37 12.14-50.5 0 0 2.36-.25q4.39-.92 8.4-.79c2.84.09 4.86-.7 7.77-.68q2.15.01 5.83-.51 9.28-1.33 12.71-1.61 4.54-.37 6.01-.6 2.29-.35 5.49-.71 9.74-1.07 10.86-1.21 8.39-1.05 26.26-3.6 3.97-.57 5.08-.82 4.04-.93 5.07-1 4.41-.31 7.65-1.1c5.46-1.32 14.26-2.31 20.46-3.52 23.14-4.53 43.9-8.63 65.32-14.16q.61-.16 1.29-.53" vector-effect="non-scaling-stroke"/><path stroke="#ecad28" d="m803.85 1226.02 21.71-5.43a.81.79-6.7 0 0 .61-.76q.04-3.62-.75-7.75a11.23 10.89 40 0 1-.18-1.75q-.16-6.98-.94-12.55c-.5-3.49-.02-7.19-.96-11.23a8.07 7.66 40.3 0 1-.18-1.67c.01-6.92-.76-12.45-.86-19.01-.09-5.82-1.3-10.99-1.18-17.44q.03-1.47-.79-7.22-.48-3.37-.21-8.71.17-3.55-.91-10.62a12.57 11.77 43.1 0 1-.12-1.84q.1-8.79-.97-16.51c-.48-3.43.07-9.3-.25-13.72-.75-10.64-.77-20.29-1.59-31.62q-.42-5.78-.16-12.2a9.27 8.72 43.3 0 0-.12-1.98c-1.08-6.48-.88-13.36-.81-19.52q.05-3.69-.5-13.11-.7-12.1-.56-30.38c.02-2.91-.8-5.79-.75-8.69.07-4.79-.3-10.31-.29-14.09q.04-28.38.03-87.47-.01-20.7.37-34.54.22-7.92.06-17.71c-.04-2.82.36-6.01.42-8q.48-17.59 1.21-51c.13-6.01.98-18.58.95-26.67q-.01-4.24.4-10.39c.59-8.9.24-21.31.77-27.19q.69-7.77.65-12.32-.07-7.25.43-12.34c.77-7.95.62-12.51 1.42-21.1q.51-5.44.29-11.3a2.07 2.05 17.5 0 0-.82-1.56l-22.21-16.73" vector-effect="non-scaling-stroke"/><path stroke="#fbb627" d="M797.06 619.9q-15.28-13.79-20.54-19.92-10.85-12.66-17.13-21.59-14.98-21.31-25.49-47.25c-2.81-6.92-5.41-15.85-7.44-22.13q-2.26-7.02-3.93-14.91-.96-4.56-2.94-15.13-1.52-8.16-2.14-15.65-.44-5.4-.91-10.76-.51-5.72-.51-10.76 0-30.27.01-31.4c.06-4.88.78-9.91.91-13.57q.16-4.71.68-10.16 3.65-38.43 12.1-73.76a.7.7 0 0 0-.45-.82l-36.83-13.18a1.48 1.45-53.1 0 0-1.38.21q-27.57 20.78-58.94 33.19c-10.35 4.09-15.71 6.51-24.59 9.17-17.3 5.19-33.77 9.23-50.49 11.29q-9.67 1.19-12.34 1.7c-4.32.81-7.81.44-12 .99q-4.26.57-9.01.48l-23.88.02q-4.84 0-8.62-.45-4.43-.54-8.96-.54a3.32 3.16-36.1 0 1-.84-.11q-2.06-.54-7.13-1.07-18.5-1.92-38.49-6.87-4.02-1-14.91-4.04-8.28-2.32-14.67-4.69-29.48-10.91-57.86-28.31-7.4-4.53-15.54-10.53a1.38 1.36 53.3 0 0-1.25-.19l-36.86 12.98a1.02 1.01 73.2 0 0-.64 1.2q5.74 23.41 9.05 48.59.56 4.29.56 4.33c-.05 3.83 1.34 7.14 1.24 10.8-.1 3.38 1.11 5.82.97 9.17q-.13 3.15.85 7a6.8 6.67 41.6 0 1 .16 2.3q-.37 3.34.63 14.72.62 6.95.25 30.14c-.07 4.14-.77 7.87-.81 11.91q-.04 3.81-.68 8.91-.6 4.82-1.54 11.81c-5.6 41.73-22.13 82.94-48.64 115.87q-12.09 15.02-26.14 28.06-8.19 7.6-18.87 15.36-2.58 1.88-6.05 3.79a2.76 2.75 73.6 0 0-1.42 2.62c.4 5.46.09 8.81.86 14.04q.59 3.96.43 11.06c-.07 3.08.73 6.36.81 9.79q.2 8.19.3 14.64c.02 1.53.56 3.56.61 5.04q.27 9.5.21 12.11c-.2 8.44 1.08 16.52.8 25.28q-.2 6.41.56 13.13.61 5.35.66 19.65c.05 16.27.87 28.98.82 45.06q-.04 12.63.42 25.45c1.27 34.94.83 57.83.79 109.17 0 7.55-.36 19.62-.68 27.33-.48 11.57.19 27.03-.82 39.95-.98 12.52-.19 26.78-1.35 38.64-.44 4.51-.21 8.21-.11 13.83.07 4.48-1.14 9.78-1.12 14.38q.04 9.83-.61 15.82c-.53 4.92.07 10.92-.41 14.91q-1.06 8.87-1.02 12.09.05 3.94-.47 7.22c-.74 4.68-.13 9.09-.84 14.29q-.63 4.67-.55 7.06.1 2.94-.46 5.67c-.7 3.44-.36 7.44-.89 11.49-.73 5.6-.55 9.58-1.1 15.36q-.37 3.77-.68 8.1-1.3 18.15-1.48 19.19c-.6 3.44-.03 7.53-.93 10.54a1.28 1.27 17.5 0 0 .82 1.57q7.77 2.58 17.48 4.79.88.2 10.59 2.54 32.2 7.76 51.32 11.31 5.85 1.09 39.48 6.8 16.36 2.78 20.01 3.16 13.92 1.47 28.57 3.7 1.29.19 4.76.26a5.22 5.12 51.2 0 1 1.01.12c3.88.9 7.64.64 11.4 1.34q5.28.99 16.16 1.53c5.1.26 9.78 1.07 14.77 1.37q9.66.58 15.46.62a8.33 8.28-38.8 0 1 1.72.18q2.79.6 3.4.62 11.11.23 18.37.72 10.47.7 15.81.47 5.73-.26 12.25.45 4.82.52 12.24.43 19.95-.24 39.89.77" vector-effect="non-scaling-stroke"/><path stroke="#ec9727" d="M797.06 619.9q-.33 7.9-.7 15.56c-.55 11.64-.08 22.91-.78 33.73q-.61 9.42-.61 18.15c0 26.09-.63 49.62-1.07 77.83q-.35 22.3-.53 32.83-.69 41.6-.34 164.24.03 10.74 1.49 60.78c.42 14.72.2 26.08.93 37.9.54 8.69.41 19.51.75 27.33q1.29 29.4 4.44 74.87.26 3.76.31 6.02c.1 4.95.77 9.14 1.17 15.04.84 12.59 2.03 27.93 1.73 41.84" vector-effect="non-scaling-stroke"/><path stroke="#361c41" d="M201.56 627.12c14.72-9.99 28.86-23.77 40.15-36.64 30.84-35.18 49.3-80.71 53.96-127.25q1.5-14.98 1.7-29.01.79-57.28-12.56-114.29-.84-3.58-1.13-4.39a.79.79 0 0 0-.97-.49l-12.43 3.88a1.18 1.18 0 0 0-.81 1.34c4.17 22.64 8.84 47.03 10.23 68q.27 4.12 1.1 17.06 1.62 25.15-.91 53.67-3.16 35.75-17.58 69.56c-11.78 27.62-29.44 51.37-51.58 71.57-3.13 2.86-6.81 5.47-10.05 8.28a1.92 1.88-12.3 0 0-.56.85q-.33 1.06-.27 3.49.19 7.47 1.17 14.13a.35.35 0 0 0 .54.24m621.25-.97q.81-5.55 1.13-14.52c.08-2.25.75-3.79-1.44-5.38-46.93-34.02-73.1-89.73-78.55-146.38q-1.97-20.45-1.66-41.31c.09-6.23.7-11.78.74-17.32q.04-5.12.82-12.96 3.35-33.71 10.01-66.59a2.01 2 15.4 0 0-1.3-2.28l-11.79-4.23a.53.53 0 0 0-.68.33q-1.56 4.81-2.71 10.37-4.13 19.87-7.41 44.11c-2.22 16.39-3.01 32.56-3.46 49.26q-.68 25.13 2.27 50.23c.89 7.63 2.86 16.59 4.43 23.56q12.38 55.18 49.49 97.78 17.93 20.58 39.54 35.58a.37.37 0 0 0 .57-.25" vector-effect="non-scaling-stroke"/><path stroke="#a45e44" d="m479.61 570.08 13.51-.75a.56.56 0 0 0 .53-.57l-.49-38.62a1.75 1.73.9 0 1 1.83-1.76l4.4.21a3.51 3.51 0 0 1 3.33 3.32l1.99 35.83a.98.98 0 0 0 .99.93l13.05-.17a.44.44 0 0 0 .44-.47q-.6-12.93-.85-25.02c-.15-7.13-.35-14.46-6.34-17.97a.68.67 40.5 0 1-.09-1.1q5.82-4.81 6.18-12.35.53-11.41-.15-19.09-.87-9.69-8.36-13.54-4.11-2.11-12.43-2-11.71.15-18.72.75a.64.64 0 0 0-.59.64l1.17 91.17a.57.57 0 0 0 .6.56m83.19-40.35.61-12.53a.68.68 0 0 0-.64-.71l-14.29-.7a.44.43-87.4 0 1-.41-.46l1.1-22.46a.66.66 0 0 1 .7-.63l16.86.82a.6.6 0 0 0 .63-.57l.63-12.78a.58.57 3 0 0-.55-.6l-31.73-1.56a.54.54 0 0 0-.56.51q-1.87 36.14-4.21 85.69-.09 2.02.16 4.96a.62.62 0 0 0 .58.57l29.84 1.46a.53.52-86.7 0 0 .55-.5l.63-12.91a.22.22 0 0 0-.21-.23l-16.61-.82a.42.42 0 0 1-.4-.44l1.26-25.85a.64.64 0 0 1 .67-.6l14.95.73a.42.41 2.8 0 0 .44-.39m-125.24-5.93a.33.31 10.8 0 1 .14.19l13.44 47.66a1.34 1.34 0 0 0 1.44.97l12.95-1.49a.44.44 0 0 0 .38-.45l-3.33-91.36a.42.42 0 0 0-.47-.41l-12.48 1.44a.58.57 85.3 0 0-.51.61l2.92 52.79a.27.26-54.4 0 1-.52.09l-13.26-50.58a.7.69 77.2 0 0-.79-.51l-12.99 2.37a.7.69 83.1 0 0-.57.73l3 54.24a.4.4 0 0 1-.79.13l-13.88-52.94a.79.78-14.8 0 0-.96-.55L398 490.21a.59.58 74.2 0 0-.41.75l26.75 85.81a.78.78 0 0 0 .89.54l13.5-2.46a.39.38 83.9 0 0 .31-.39q-.91-29.46-2.12-49.21-.11-1.95.64-1.45m164.03 15.11-1.47-55.46a.59.59 0 0 0-.49-.56l-13.82-2.34a.78.77 10.1 0 0-.9.62l-16.16 89.34a.57.56-80.5 0 0 .46.66l10.15 1.73a.91.91 0 0 0 1.05-.74l9.06-50.11a.48.47 49.7 0 1 .94.08q.37 20.42 1.37 49.04c.04 1.28-.31 3.45 1.38 3.71q5.61.86 12.77 2.34a.36.36 0 0 0 .42-.28l18.29-89.29a.6.59 11.2 0 0-.48-.71l-12.26-2.22a.56.55 9.7 0 0-.65.45l-9.1 53.67a.08.02-76.7 0 1-.02.04l-.16.17a.22.22 0 0 1-.38-.14" vector-effect="non-scaling-stroke"/><path stroke="#fbb627" d="M644.14 553.79c.1 1.83-1.21 3.85-1.63 5.57q-.97 4.03-3.38 9.49a1.36 1.35-88.3 0 1-.76.72q-2.5.94-4.49-1.33a1.46 1.46 0 0 1-.35-.95q.04-2.78 2.78-11.49 6-19.11 10.81-33.21.53-1.55 1.84-6.03.62-2.11 2.19-5.95a2.67 2.66 21.5 0 1 3.42-1.48l.18.08a2.82 2.81-71.3 0 1 1.64 3.32l-3.92 14.64a.75.75 0 0 0 .4.87q7.01 3.37 14.66 4.2a.88.86-73.7 0 0 .88-.49q2.54-5.36 4.33-11.62c3.23-11.3.14-22.91-11.92-26.93-2.99-.99-8.08-2.74-11.37-1.94q-8.64 2.12-12.78 9.1-1.15 1.95-4.13 10.32c-4.76 13.38-8.69 27.15-12.94 40.67q-1.59 5.06-3.33 15.57a7.75 7.71-44.9 0 0-.01 2.44q1.14 7.15 4.11 10.52 6.51 7.4 16.61 7.92 7.7.4 13.01-4.54 3.18-2.97 6.22-11.76 3.46-10.03 4.14-13.12a2.55 2.55 0 0 0-1.76-2.99l-11.9-3.58a1.99 1.98 7 0 0-2.55 1.98" vector-effect="non-scaling-stroke"/><path stroke="#a45e44" d="m395.15 566.55 6.84 15.91a.79.79 0 0 0 .96.44l12.28-3.83a.34.34 0 0 0 .21-.46l-35.61-82.91a1.61 1.61 0 0 0-1.92-.91l-17.03 4.8a.7.69-10.9 0 0-.51.74q.81 8.81 3.66 29.23 3.34 23.99 9.28 60.85a.51.5 77.7 0 0 .63.41l12.86-3.63a1.07 1.06 77.2 0 0 .76-1.22l-2.95-16.14a.79.79 0 0 1 .54-.89l9.06-2.83a.78.77-19.7 0 1 .94.44" vector-effect="non-scaling-stroke"/><path stroke="#fbb627" d="M692.23 505.6a1 .98 11 0 0-.92.61q-13.82 33.78-32.09 77.74-.73 1.75-1.55 3.92c-1.02 2.69-.66 4.28 2.08 5.4q8.26 3.4 23.14 10.03.77.35 4.01 1.56a1.21 1.21 0 0 0 1.28-.28q1.44-1.45 2.14-3.52 1.67-4.87 3.3-9.12a1.9 1.9 0 0 0-.59-2.18c-2.35-1.86-4.78-2.24-7.19-3.42q-2.1-1.03-6.11-2.69a1.17 1.15 22.7 0 1-.63-1.51l8.56-20.75a1.15 1.15 0 0 1 1.42-.65q3.46 1.11 8.88 3.47 2.22.97 3.3.81 1.4-.21 2.28-2.43 2.98-7.5 3.5-9.17a2.86 2.85 19.9 0 0-1.64-3.49l-10.1-4.17a1.21 1.2 22.4 0 1-.66-1.57l7.2-17.45a1.1 1.09 23.3 0 1 1.46-.58c4.43 1.97 9.38 4.74 14.13 5.44a.77.75 18 0 0 .79-.39q3.05-5.56 4.9-11.89a2.27 2.26-71 0 0-1.33-2.74q-9.88-3.96-20.34-8.2-5.24-2.13-6.58-2.43-1.55-.34-2.64-.35" vector-effect="non-scaling-stroke"/><path stroke="#a45e44" d="M337.8 602.81a.66.66 0 0 0 .84.39l28.02-9.87a.66.66 0 0 0 .41-.82l-3.67-11.79a.66.66 0 0 0-.83-.43l-15.66 4.87a.66.66 0 0 1-.82-.4l-25.94-70.21a.66.66 0 0 0-.85-.39l-12.96 4.98a.66.66 0 0 0-.38.86l31.84 82.81m155.18-112.22.08 22.82a.65.65 0 0 0 .65.64l3.87-.01a5.59 5.28 89.8 0 0 5.26-5.61l-.04-12.94a5.59 5.28 89.8 0 0-5.3-5.57l-3.87.01a.65.65 0 0 0-.65.66" vector-effect="non-scaling-stroke"/><path stroke="#a47445" d="m654.01 527.34 12.79 4.06a.5.49-70.4 0 0 .61-.29c2.89-7.06 6.35-16.25 5.05-23.01-1.31-6.75-4.99-11.01-11.57-13.44-10.01-3.71-19.45-2.03-23.93 8.56q-2.79 6.59-3.98 10.27-6.87 21.22-12.03 38.71c-3.16 10.7-6.53 23.45 4.75 30.71q6.34 4.08 14.7 3.17c8.01-.87 11.43-6.28 13.95-13.48q3.73-10.62 4.77-14.64a.61.61 0 0 0-.41-.74l-12.43-3.95a.4.4 0 0 0-.51.27q-1.55 5.33-3.74 12.22-.87 2.75-2.3 4.69c-1.62 2.19-4.93.75-6.53-.73-1.69-1.56-1.09-5.05-.55-6.79q7.46-24.26 17.08-53.1a3.85 3.84-67.4 0 1 5.37-2.22l.23.11a4.9 4.9 0 0 1 2.6 5.93l-4.18 13.18a.41.4-72.7 0 0 .26.51" vector-effect="non-scaling-stroke"/><path stroke="#a45e44" d="M385.96 554.73q1.8-.52 3.65-.98a.41.41 0 0 0 .28-.56l-13.15-31.46a.26.14 71.6 0 0-.17-.15q-.06-.01-.12.01t-.11.05a.26.14 76.4 0 0-.06.22l5.52 33.65a.41.41 0 0 0 .54.33q1.81-.59 3.62-1.11" vector-effect="non-scaling-stroke"/><path stroke="#a47445" d="M716.65 530.38a.67.67 0 0 0 .88-.36l4.51-10.94a.67.67 0 0 0-.36-.88l-28.18-11.62a.67.67 0 0 0-.88.36l-34.53 83.71a.67.67 0 0 0 .36.88l28.53 11.77a.67.67 0 0 0 .88-.36l4.78-11.6a.67.67 0 0 0-.36-.88l-14.87-6.13a.67.67 0 0 1-.36-.88l10.09-24.49a.67.67 0 0 1 .88-.36l12.7 5.23a.67.67 0 0 0 .88-.36l4.41-10.72a.67.67 0 0 0-.36-.88l-12.78-5.27a.67.67 0 0 1-.36-.88l8.66-21a.67.67 0 0 1 .88-.36l14.6 6.02" vector-effect="non-scaling-stroke"/><path stroke="#361c41" d="M483.86 725.71q.47-.7.04-1.28m.06-17.15-.04-9.78" vector-effect="non-scaling-stroke"/></g><g fill="#fba026"><path d="M797.06 619.9q-.33 7.9-.7 15.56c-.55 11.64-.08 22.91-.78 33.73q-.61 9.42-.61 18.15c0 26.09-.63 49.62-1.07 77.83q-.35 22.3-.53 32.83-.69 41.6-.34 164.24.03 10.74 1.49 60.78c.42 14.72.2 26.08.93 37.9.54 8.69.41 19.51.75 27.33q1.29 29.4 4.44 74.87.26 3.76.31 6.02c.1 4.95.77 9.14 1.17 15.04.84 12.59 2.03 27.93 1.73 41.84q-.68.37-1.29.53c-21.42 5.53-42.18 9.63-65.32 14.16-6.2 1.21-15 2.2-20.46 3.52q-3.24.79-7.65 1.1-1.03.07-5.07 1-1.11.25-5.08.82-17.87 2.55-26.26 3.6-1.12.14-10.86 1.21-3.2.36-5.49.71-1.47.23-6.01.6-3.43.28-12.71 1.61-3.68.52-5.83.51c-2.91-.02-4.93.77-7.77.68q-4.01-.13-8.4.79a12.37 12.14-50.5 0 1-2.36.25q-4.5.03-6.87.33c-4.67.61-6.32.53-10.36.52q-1.79-.01-4.11.38-5.84.96-11.27.91-1.83-.02-13.33.65-4.48.26-13.34.11-2.54-.04-1.24 1.61l-19.9.14q-19.94-1.01-39.89-.77-7.42.09-12.24-.43-6.52-.71-12.25-.45-5.34.23-15.81-.47-7.26-.49-18.37-.72-.61-.02-3.4-.62a8.33 8.28-38.8 0 0-1.72-.18q-5.8-.04-15.46-.62c-4.99-.3-9.67-1.11-14.77-1.37q-10.88-.54-16.16-1.53c-3.76-.7-7.52-.44-11.4-1.34a5.22 5.12 51.2 0 0-1.01-.12q-3.47-.07-4.76-.26-14.65-2.23-28.57-3.7-3.65-.38-20.01-3.16-33.63-5.71-39.48-6.8-19.12-3.55-51.32-11.31-9.71-2.34-10.59-2.54-9.71-2.21-17.48-4.79a1.28 1.27 17.5 0 1-.82-1.57c.9-3.01.33-7.1.93-10.54q.18-1.04 1.48-19.19.31-4.33.68-8.1c.55-5.78.37-9.76 1.1-15.36.53-4.05.19-8.05.89-11.49q.56-2.73.46-5.67-.08-2.39.55-7.06c.71-5.2.1-9.61.84-14.29q.52-3.28.47-7.22-.04-3.22 1.02-12.09c.48-3.99-.12-9.99.41-14.91q.65-5.99.61-15.82c-.02-4.6 1.19-9.9 1.12-14.38-.1-5.62-.33-9.32.11-13.83 1.16-11.86.37-26.12 1.35-38.64 1.01-12.92.34-28.38.82-39.95.32-7.71.68-19.78.68-27.33.04-51.34.48-74.23-.79-109.17q-.46-12.82-.42-25.45c.05-16.08-.77-28.79-.82-45.06q-.05-14.3-.66-19.65-.76-6.72-.56-13.13c.28-8.76-1-16.84-.8-25.28q.06-2.61-.21-12.11c-.05-1.48-.59-3.51-.61-5.04q-.1-6.45-.3-14.64c-.08-3.43-.88-6.71-.81-9.79q.16-7.1-.43-11.06c-.77-5.23-.46-8.58-.86-14.04a2.76 2.75 73.6 0 1 1.42-2.62q3.47-1.91 6.05-3.79 10.68-7.76 18.87-15.36 14.05-13.04 26.14-28.06c26.51-32.93 43.04-74.14 48.64-115.87q.94-6.99 1.54-11.81.64-5.1.68-8.91c.04-4.04.74-7.77.81-11.91q.37-23.19-.25-30.14-1-11.38-.63-14.72a6.8 6.67 41.6 0 0-.16-2.3q-.98-3.85-.85-7c.14-3.35-1.07-5.79-.97-9.17.1-3.66-1.29-6.97-1.24-10.8q0-.04-.56-4.33-3.31-25.18-9.05-48.59a1.02 1.01 73.2 0 1 .64-1.2l36.86-12.98a1.38 1.36 53.3 0 1 1.25.19q8.14 6 15.54 10.53 28.38 17.4 57.86 28.31 6.39 2.37 14.67 4.69 10.89 3.04 14.91 4.04 19.99 4.95 38.49 6.87 5.07.53 7.13 1.07a3.32 3.16-36.1 0 0 .84.11q4.53 0 8.96.54 3.78.45 8.62.45l23.88-.02q4.75.09 9.01-.48c4.19-.55 7.68-.18 12-.99q2.67-.51 12.34-1.7c16.72-2.06 33.19-6.1 50.49-11.29 8.88-2.66 14.24-5.08 24.59-9.17q31.37-12.41 58.94-33.19a1.48 1.45-53.1 0 1 1.38-.21l36.83 13.18a.7.7 0 0 1 .45.82q-8.45 35.33-12.1 73.76-.52 5.45-.68 10.16c-.13 3.66-.85 8.69-.91 13.57q-.01 1.13-.01 31.4 0 5.04.51 10.76.47 5.36.91 10.76.62 7.49 2.14 15.65 1.98 10.57 2.94 15.13 1.67 7.89 3.93 14.91c2.03 6.28 4.63 15.21 7.44 22.13q10.51 25.94 25.49 47.25 6.28 8.93 17.13 21.59 5.26 6.13 20.54 19.92m-317.45-49.82 13.51-.75a.56.56 0 0 0 .53-.57l-.49-38.62a1.75 1.73.9 0 1 1.83-1.76l4.4.21a3.51 3.51 0 0 1 3.33 3.32l1.99 35.83a.98.98 0 0 0 .99.93l13.05-.17a.44.44 0 0 0 .44-.47q-.6-12.93-.85-25.02c-.15-7.13-.35-14.46-6.34-17.97a.68.67 40.5 0 1-.09-1.1q5.82-4.81 6.18-12.35.53-11.41-.15-19.09-.87-9.69-8.36-13.54-4.11-2.11-12.43-2-11.71.15-18.72.75a.64.64 0 0 0-.59.64l1.17 91.17a.57.57 0 0 0 .6.56m83.19-40.35.61-12.53a.68.68 0 0 0-.64-.71l-14.29-.7a.44.43-87.4 0 1-.41-.46l1.1-22.46a.66.66 0 0 1 .7-.63l16.86.82a.6.6 0 0 0 .63-.57l.63-12.78a.58.57 3 0 0-.55-.6l-31.73-1.56a.54.54 0 0 0-.56.51q-1.87 36.14-4.21 85.69-.09 2.02.16 4.96a.62.62 0 0 0 .58.57l29.84 1.46a.53.52-86.7 0 0 .55-.5l.63-12.91a.22.22 0 0 0-.21-.23l-16.61-.82a.42.42 0 0 1-.4-.44l1.26-25.85a.64.64 0 0 1 .67-.6l14.95.73a.42.41 2.8 0 0 .44-.39m-125.24-5.93a.33.31 10.8 0 1 .14.19l13.44 47.66a1.34 1.34 0 0 0 1.44.97l12.95-1.49a.44.44 0 0 0 .38-.45l-3.33-91.36a.42.42 0 0 0-.47-.41l-12.48 1.44a.58.57 85.3 0 0-.51.61l2.92 52.79a.27.26-54.4 0 1-.52.09l-13.26-50.58a.7.69 77.2 0 0-.79-.51l-12.99 2.37a.7.69 83.1 0 0-.57.73l3 54.24a.4.4 0 0 1-.79.13l-13.88-52.94a.79.78-14.8 0 0-.96-.55L398 490.21a.59.58 74.2 0 0-.41.75l26.75 85.81a.78.78 0 0 0 .89.54l13.5-2.46a.39.38 83.9 0 0 .31-.39q-.91-29.46-2.12-49.21-.11-1.95.64-1.45m164.03 15.11-1.47-55.46a.59.59 0 0 0-.49-.56l-13.82-2.34a.78.77 10.1 0 0-.9.62l-16.16 89.34a.57.56-80.5 0 0 .46.66l10.15 1.73a.91.91 0 0 0 1.05-.74l9.06-50.11a.48.47 49.7 0 1 .94.08q.37 20.42 1.37 49.04c.04 1.28-.31 3.45 1.38 3.71q5.61.86 12.77 2.34a.36.36 0 0 0 .42-.28l18.29-89.29a.6.59 11.2 0 0-.48-.71l-12.26-2.22a.56.55 9.7 0 0-.65.45l-9.1 53.67a.08.02-76.7 0 1-.02.04l-.16.17a.22.22 0 0 1-.38-.14m42.55 14.88c.1 1.83-1.21 3.85-1.63 5.57q-.97 4.03-3.38 9.49a1.36 1.35-88.3 0 1-.76.72q-2.5.94-4.49-1.33a1.46 1.46 0 0 1-.35-.95q.04-2.78 2.78-11.49 6-19.11 10.81-33.21.53-1.55 1.84-6.03.62-2.11 2.19-5.95a2.67 2.66 21.5 0 1 3.42-1.48l.18.08a2.82 2.81-71.3 0 1 1.64 3.32l-3.92 14.64a.75.75 0 0 0 .4.87q7.01 3.37 14.66 4.2a.88.86-73.7 0 0 .88-.49q2.54-5.36 4.33-11.62c3.23-11.3.14-22.91-11.92-26.93-2.99-.99-8.08-2.74-11.37-1.94q-8.64 2.12-12.78 9.1-1.15 1.95-4.13 10.32c-4.76 13.38-8.69 27.15-12.94 40.67q-1.59 5.06-3.33 15.57a7.75 7.71-44.9 0 0-.01 2.44q1.14 7.15 4.11 10.52 6.51 7.4 16.61 7.92 7.7.4 13.01-4.54 3.18-2.97 6.22-11.76 3.46-10.03 4.14-13.12a2.55 2.55 0 0 0-1.76-2.99l-11.9-3.58a1.99 1.98 7 0 0-2.55 1.98m-248.99 12.76 6.84 15.91a.79.79 0 0 0 .96.44l12.28-3.83a.34.34 0 0 0 .21-.46l-35.61-82.91a1.61 1.61 0 0 0-1.92-.91l-17.03 4.8a.7.69-10.9 0 0-.51.74q.81 8.81 3.66 29.23 3.34 23.99 9.28 60.85a.51.5 77.7 0 0 .63.41l12.86-3.63a1.07 1.06 77.2 0 0 .76-1.22l-2.95-16.14a.79.79 0 0 1 .54-.89l9.06-2.83a.78.77-19.7 0 1 .94.44m297.08-60.95a1 .98 11 0 0-.92.61q-13.82 33.78-32.09 77.74-.73 1.75-1.55 3.92c-1.02 2.69-.66 4.28 2.08 5.4q8.26 3.4 23.14 10.03.77.35 4.01 1.56a1.21 1.21 0 0 0 1.28-.28q1.44-1.45 2.14-3.52 1.67-4.87 3.3-9.12a1.9 1.9 0 0 0-.59-2.18c-2.35-1.86-4.78-2.24-7.19-3.42q-2.1-1.03-6.11-2.69a1.17 1.15 22.7 0 1-.63-1.51l8.56-20.75a1.15 1.15 0 0 1 1.42-.65q3.46 1.11 8.88 3.47 2.22.97 3.3.81 1.4-.21 2.28-2.43 2.98-7.5 3.5-9.17a2.86 2.85 19.9 0 0-1.64-3.49l-10.1-4.17a1.21 1.2 22.4 0 1-.66-1.57l7.2-17.45a1.1 1.09 23.3 0 1 1.46-.58c4.43 1.97 9.38 4.74 14.13 5.44a.77.75 18 0 0 .79-.39q3.05-5.56 4.9-11.89a2.27 2.26-71 0 0-1.33-2.74q-9.88-3.96-20.34-8.2-5.24-2.13-6.58-2.43-1.55-.34-2.64-.35M337.8 602.81a.66.66 0 0 0 .84.39l28.02-9.87a.66.66 0 0 0 .41-.82l-3.67-11.79a.66.66 0 0 0-.83-.43l-15.66 4.87a.66.66 0 0 1-.82-.4l-25.94-70.21a.66.66 0 0 0-.85-.39l-12.96 4.98a.66.66 0 0 0-.38.86zm94.41 302.84c2.96 2.89 5.39 5 9.1 5.02q24.38.15 46.47-.01a4.81 4.8-67.5 0 0 3.31-1.37l43.29-42.57a1.06 1.05 68.2 0 0 .32-.76v-80.54a4.98 4.96-67.4 0 0-1.43-3.49l-11.29-11.49a.64.64 0 0 1 .01-.91l12.14-11.94a1.89 1.86 68.3 0 0 .57-1.35v-84.25a1.71 1.66 28.7 0 0-.29-.94q-.76-1.11-1.9-2.28-22.33-22.86-36.32-36.92-3.75-3.76-5.3-3.76-30.3-.07-112.63.01c-3.53.01-7.99 2.95-7.99 6.91q.07 41.82.02 83.74c-.01 6.04 1.85 8.91 8.07 8.91q35.48 0 46.35.02a2.74 2.7 36 0 0 .8-.12c4.31-1.37 5.22-4.07 5.32-8.75q.01-.23.08-8.37a1.68 1.66 68.8 0 1 .51-1.18l11.3-10.81a1.58 1.56 23.3 0 1 1.07-.42h20.08a2.03 2.01-22.3 0 1 1.43.59l9.07 9.23a3.23 3.21 22.9 0 1 .92 2.25c-.03 4.49 1.85 12.02-2.11 16.48-2.71 3.06-5.72 6.08-9.08 9.27a3.56 3.51-66.3 0 1-2.46.98q-13.91-.06-26.31-.03c-5.31.02-7.38 2.46-7.38 7.91q.03 30.08-.04 49.53-.02 4.42 1.23 5.82 1.86 2.1 5.58 2 10.45-.26 29.92-.09a1.4 1.39-22 0 1 1 .42l9.13 9.29a1.3 1.3 0 0 1 .38.92v21.21a1.26 1.23-22.7 0 1-.38.89l-10.96 10.78a2.3 2.29-67.3 0 1-1.61.66h-17.63a2.05 2.04-22.1 0 1-1.46-.61l-11.96-12.17a1.3 1.29 22.1 0 1-.38-.89q-.09-4.87.06-11.47c.13-5.62-3.5-6.85-8.85-6.71q-3.62.09-41.62.05-4.19 0-5.73.56c-5.06 1.86-4.36 6.57-4.36 12.4q-.01 70.18-.03 75.68-.03 7.52 6.9 7.63 27.59.4 46.89.01a4.67 4.66 22.4 0 0 3.13-1.3l3.85-3.68a.87.86 45.2 0 1 1.2.01m144.18-59.73a.46.46 0 0 1-.48.46q-5.79-.26-10.97.09c-3.05.2-7.04 2.66-7.04 6.07l-.02 49.77q-.09 5.06 3.23 7.24 1.81 1.19 8.04 1.2 40.18.09 76.29.04c6.22 0 8.27-2.52 8.3-8.99q.05-12.95-.02-45.69-.01-4.35-.94-5.81c-2.8-4.38-9.84-4.4-14.6-3.84a.47.45-3.4 0 1-.52-.45q-.02-3.22-.01-210.26 0-2.71-1.79-4.59c-2.41-2.52-4.31-3.13-8.11-3.13q-35.33.07-41.25-.02-2.56-.04-3.96 1.3-9.49 9.06-20.42 20.08c-2.86 2.88-4.4 3.99-4.41 7.61q-.04 14.83-.01 29.5 0 .36.38 4.26a2.94 2.71 33.3 0 0 .2.8q1.82 4.37 6.71 4.18 1.32-.05 10.97.13a.44.43.7 0 1 .43.43z"/><path d="M492.98 490.59a.65.65 0 0 1 .65-.66l3.87-.01a5.59 5.28 89.8 0 1 5.3 5.57l.04 12.94a5.59 5.28 89.8 0 1-5.26 5.61l-3.87.01a.65.65 0 0 1-.65-.64zm-116.53 31q.06-.02.12-.01a.26.14 71.6 0 1 .17.15l13.15 31.46a.41.41 0 0 1-.28.56q-1.85.46-3.65.98-1.81.52-3.62 1.11a.41.41 0 0 1-.54-.33l-5.52-33.65a.26.14 76.4 0 1 .06-.22q.05-.03.11-.05"/></g><path fill="#4d1b61" d="M680.79 293.82q-.79 1.05-1.76 1.72c-38.21 26.53-82.76 42.56-129.16 48.03q-3.9.46-18.41 1.65-10.08.82-18.47.85-14.37.03-34.25-1.99-39.44-4.01-76.81-18.43c-18.03-6.95-33.82-15.75-50.37-26.22q-3.85-2.44-7.35-5.14a.55.55 0 0 1 .15-.95q8.44-3.01 14.36-5.38 2.48-.99 4.98.58 15.23 9.52 28.28 15.47 16.04 7.32 38.5 14.39c5.23 1.65 10.57 2.55 15.99 3.95q2.21.56 6.46 1.32 24.39 4.33 46.32 5.25 3.46.15 18 .09 8.78-.04 18-.76 37.09-2.93 71.37-14.15 28.83-9.44 55.59-26.13c1.71-1.07 3.68-.19 5.52.51q2.15.81 12.94 4.91a.28.28 0 0 1 .12.43m-479.23 333.3a.35.35 0 0 1-.54-.24q-.98-6.66-1.17-14.13-.06-2.43.27-3.49a1.92 1.88-12.3 0 1 .56-.85c3.24-2.81 6.92-5.42 10.05-8.28 22.14-20.2 39.8-43.95 51.58-71.57q14.42-33.81 17.58-69.56 2.53-28.52.91-53.67-.83-12.94-1.1-17.06c-1.39-20.97-6.06-45.36-10.23-68a1.18 1.18 0 0 1 .81-1.34l12.43-3.88a.79.79 0 0 1 .97.49q.29.81 1.13 4.39 13.35 57.01 12.56 114.29-.2 14.03-1.7 29.01c-4.66 46.54-23.12 92.07-53.96 127.25-11.29 12.87-25.43 26.65-40.15 36.64m621.25-.97a.37.37 0 0 1-.57.25q-21.61-15-39.54-35.58-37.11-42.6-49.49-97.78c-1.57-6.97-3.54-15.93-4.43-23.56q-2.95-25.1-2.27-50.23c.45-16.7 1.24-32.87 3.46-49.26q3.28-24.24 7.41-44.11 1.15-5.56 2.71-10.37a.53.53 0 0 1 .68-.33l11.79 4.23a2.01 2 15.4 0 1 1.3 2.28q-6.66 32.88-10.01 66.59-.78 7.84-.82 12.96c-.04 5.54-.65 11.09-.74 17.32q-.31 20.86 1.66 41.31c5.45 56.65 31.62 112.36 78.55 146.38 2.19 1.59 1.52 3.13 1.44 5.38q-.32 8.97-1.13 14.52m-343.2-56.07a.57.57 0 0 1-.6-.56l-1.17-91.17a.64.64 0 0 1 .59-.64q7.01-.6 18.72-.75 8.32-.11 12.43 2 7.49 3.85 8.36 13.54.68 7.68.15 19.09-.36 7.54-6.18 12.35a.68.67 40.5 0 0 .09 1.1c5.99 3.51 6.19 10.84 6.34 17.97q.25 12.09.85 25.02a.44.44 0 0 1-.44.47l-13.05.17a.98.98 0 0 1-.99-.93l-1.99-35.83a3.51 3.51 0 0 0-3.33-3.32l-4.4-.21a1.75 1.73.9 0 0-1.83 1.76l.49 38.62a.56.56 0 0 1-.53.57zm13.37-79.49.08 22.82a.65.65 0 0 0 .65.64l3.87-.01a5.59 5.28 89.8 0 0 5.26-5.61l-.04-12.94a5.59 5.28 89.8 0 0-5.3-5.57l-3.87.01a.65.65 0 0 0-.65.66m69.38 39.53-14.95-.73a.64.64 0 0 0-.67.6l-1.26 25.85a.42.42 0 0 0 .4.44l16.61.82a.22.22 0 0 1 .21.23l-.63 12.91a.53.52-86.7 0 1-.55.5l-29.84-1.46a.62.62 0 0 1-.58-.57q-.25-2.94-.16-4.96 2.34-49.55 4.21-85.69a.54.54 0 0 1 .56-.51l31.73 1.56a.58.57 3 0 1 .55.6l-.63 12.78a.6.6 0 0 1-.63.57l-16.86-.82a.66.66 0 0 0-.7.63l-1.1 22.46a.44.43-87.4 0 0 .41.46l14.29.7a.68.68 0 0 1 .64.71l-.61 12.53a.42.41 2.8 0 1-.44.39m-124.8-6.32q-.75-.5-.64 1.45 1.21 19.75 2.12 49.21a.39.38 83.9 0 1-.31.39l-13.5 2.46a.78.78 0 0 1-.89-.54l-26.75-85.81a.59.58 74.2 0 1 .41-.75l13.28-3.48a.79.78-14.8 0 1 .96.55l13.88 52.94a.4.4 0 0 0 .79-.13l-3-54.24a.7.69 83.1 0 1 .57-.73l12.99-2.37a.7.69 77.2 0 1 .79.51l13.26 50.58a.27.26-54.4 0 0 .52-.09l-2.92-52.79a.58.57 85.3 0 1 .51-.61l12.48-1.44a.42.42 0 0 1 .47.41l3.33 91.36a.44.44 0 0 1-.38.45l-12.95 1.49a1.34 1.34 0 0 1-1.44-.97l-13.44-47.66a.33.31 10.8 0 0-.14-.19m164.03 15.11a.22.22 0 0 0 .38.14l.16-.17a.08.02-76.7 0 0 .02-.04l9.1-53.67a.56.55 9.7 0 1 .65-.45l12.26 2.22a.6.59 11.2 0 1 .48.71l-18.29 89.29a.36.36 0 0 1-.42.28q-7.16-1.48-12.77-2.34c-1.69-.26-1.34-2.43-1.38-3.71q-1-28.62-1.37-49.04a.48.47 49.7 0 0-.94-.08l-9.06 50.11a.91.91 0 0 1-1.05.74l-10.15-1.73a.57.56-80.5 0 1-.46-.66l16.16-89.34a.78.77 10.1 0 1 .9-.62l13.82 2.34a.59.59 0 0 1 .49.56zm52.16-12.08 4.18-13.18a4.9 4.9 0 0 0-2.6-5.93l-.23-.11a3.85 3.84-67.4 0 0-5.37 2.22q-9.62 28.84-17.08 53.1c-.54 1.74-1.14 5.23.55 6.79 1.6 1.48 4.91 2.92 6.53.73q1.43-1.94 2.3-4.69 2.19-6.89 3.74-12.22a.4.4 0 0 1 .51-.27l12.43 3.95a.61.61 0 0 1 .41.74q-1.04 4.02-4.77 14.64c-2.52 7.2-5.94 12.61-13.95 13.48q-8.36.91-14.7-3.17c-11.28-7.26-7.91-20.01-4.75-30.71q5.16-17.49 12.03-38.71 1.19-3.68 3.98-10.27c4.48-10.59 13.92-12.27 23.93-8.56 6.58 2.43 10.26 6.69 11.57 13.44 1.3 6.76-2.16 15.95-5.05 23.01a.5.49-70.4 0 1-.61.29l-12.79-4.06a.41.4-72.7 0 1-.26-.51m-258.6 39.72a.78.77-19.7 0 0-.94-.44l-9.06 2.83a.79.79 0 0 0-.54.89l2.95 16.14a1.07 1.06 77.2 0 1-.76 1.22l-12.86 3.63a.51.5 77.7 0 1-.63-.41q-5.94-36.86-9.28-60.85-2.85-20.42-3.66-29.23a.7.69-10.9 0 1 .51-.74l17.03-4.8a1.61 1.61 0 0 1 1.92.91l35.61 82.91a.34.34 0 0 1-.21.46l-12.28 3.83a.79.79 0 0 1-.96-.44zm-9.19-11.82q1.8-.52 3.65-.98a.41.41 0 0 0 .28-.56l-13.15-31.46a.26.14 71.6 0 0-.17-.15q-.06-.01-.12.01t-.11.05a.26.14 76.4 0 0-.06.22l5.52 33.65a.41.41 0 0 0 .54.33q1.81-.59 3.62-1.11m330.69-24.35-14.6-6.02a.67.67 0 0 0-.88.36l-8.66 21a.67.67 0 0 0 .36.88l12.78 5.27a.67.67 0 0 1 .36.88l-4.41 10.72a.67.67 0 0 1-.88.36l-12.7-5.23a.67.67 0 0 0-.88.36l-10.09 24.49a.67.67 0 0 0 .36.88l14.87 6.13a.67.67 0 0 1 .36.88l-4.78 11.6a.67.67 0 0 1-.88.36l-28.53-11.77a.67.67 0 0 1-.36-.88l34.53-83.71a.67.67 0 0 1 .88-.36l28.18 11.62a.67.67 0 0 1 .36.88l-4.51 10.94a.67.67 0 0 1-.88.36M337.8 602.81 305.96 520a.66.66 0 0 1 .38-.86l12.96-4.98a.66.66 0 0 1 .85.39l25.94 70.21a.66.66 0 0 0 .82.4l15.66-4.87a.66.66 0 0 1 .83.43l3.67 11.79a.66.66 0 0 1-.41.82l-28.02 9.87a.66.66 0 0 1-.84-.39m146.06 122.9q.47-.7.04-1.28.87-7.02 0-14.18-.13-1.03.06-2.97l-.04-9.78-13.77-15.75a2.38 2.36 69.2 0 0-1.78-.81h-27.92a2 1.98-66.8 0 0-1.38.56l-15.27 15.02a1.94 1.93-22.4 0 0-.58 1.38v14.51a.54.54 0 0 1-.54.54h-43.05a.56.55 0 0 1-.56-.55v-75.91a.45.44 0 0 1 .45-.44h43.08a.54.53 0 0 1 .54.53v16.61a.76.76 0 0 0 1.34.5l14.69-17.07a1.61 1.6 19.9 0 1 1.23-.57h47.33a3.9 3.9 0 0 1 2.82 1.21l36.16 37.81a2.16 2.12 23.8 0 1 .58 1.46q-.05 39.13.08 65.48.03 4-2.52 6.58-13.23 13.4-17.12 17.18a1.08 1.08 0 0 0-.05 1.49l19.21 21.34a1.39 1.38 23.9 0 1 .37.94v65.45a1.89 1.87 67.9 0 1-.56 1.34l-39.77 39.09a1.14 1.12 22.3 0 1-.8.33h-45.97a2.67 2.65-21 0 1-1.97-.87l-14.6-16.22a.26.26 0 0 0-.45.17v16.59a.32.31-90 0 1-.31.32h-43.48a.28.28 0 0 1-.28-.28v-72.74a.68.68 0 0 1 .68-.68h42.94a.52.52 0 0 1 .52.52v13.05a1.65 1.62-67.3 0 0 .45 1.13l15.23 15.92a4.2 4.18 68.1 0 0 3.03 1.3h23.34a3.02 3.01 17.5 0 0 2.47-1.28q2.2-3.09 4.83-5.02a.79.37-64.9 0 0 .12-.1l9.26-9.77a4.26 4.25-23.4 0 0 1.16-2.92v-31.31a2.15 2.13 24.4 0 0-.54-1.42l-13.63-15.13a2.52 2.52 0 0 0-1.87-.83H436.4a.35.35 0 0 1-.35-.35v-40.74a1.07 1.07 0 0 1 1.08-1.07q14.9.11 27.38.07 2.28-.01 3.53-1.3 11.61-11.99 15.3-15.95.31-.33.52-1.13m161.85 170.06h-80.08a.5.5 0 0 1-.5-.5V854.5a.5.5 0 0 1 .5-.5h17.91a.5.5 0 0 0 .5-.5V680.43a.5.5 0 0 0-.5-.5h-17.88a.5.5 0 0 1-.5-.5v-21.09a.5.5 0 0 1 .15-.36l22.16-21.79a.5.5 0 0 1 .35-.14h41.66a.5.5 0 0 1 .5.5v216.99a.5.5 0 0 0 .5.5h15.23a.5.5 0 0 1 .5.5v40.73a.5.5 0 0 1-.5.5"/><g fill="#1f1d21"><path d="M663.61 277.59q1.87.55 4.24 1.43 15.83 5.82 24.54 8.88 32.97 11.6 65.92 23.69c3.43 1.26 5.58 2.4 4.85 6.28q-.13.7-.45 2.57-1.37 7.84-2.21 12.71-3.05 17.72-5.49 34.86-1.12 7.85-2.45 22-.62 6.6-.62 9.51c.01 4.31-.66 8.29-.76 12.64-.21 9.48-.66 19.65.29 28.73.52 5.03.4 9.23.89 14.48q3.34 36.28 17.16 68.61c12.32 28.8 32.09 54.62 56.89 74.04 2.08 1.63 4.41 2.74 6.18 4.91a1.57 1.51 25.4 0 1 .34.9c.14 5.57-.66 10.95-.82 15.23q-.18 4.99-.56 7.18c-.83 4.77-.4 9.64-1.03 14.72-.77 6.2-.39 11.82-.98 17.93-.58 5.99-.43 14.09-1.32 19.36q-.21 1.27-.3 14.07c-.02 3.11-.67 6.82-.8 9.72-.32 6.73.04 15.55-.7 23.27-.79 8.24-.25 17.27-.86 26.24-.79 11.62-.52 24.62-1.06 35.26-.75 14.57-.4 30.47-.95 45.49q-.49 13.48-.52 21.95-.15 34.74 0 85.67c.04 15.98 1.08 33.6.95 50.3q-.03 4.92.58 14.55c.57 9.13 0 18.71 1 27.37q.51 4.34.34 12.82-.07 3.99.7 13.55c.46 5.58.03 13.21.77 19.89.72 6.37.44 12.98.98 18.86q.78 8.35.7 10.99c-.15 5.03.79 9.52.87 14.68q.1 6.88.68 12.47c.54 5.13.06 10.28.79 14.95q.65 4.21.6 8.33c-.04 3.75.85 7.22.84 11.11q-.01 4.53.67 9.69c.55 4.22.13 8.82.65 12.05.84 5.26.61 10.65 1.46 15.45q.41 2.3.47 8.04a11.17 10.67 40.5 0 0 .2 1.97q.95 4.75.63 8.97a2.32 2.31 81.5 0 1-1.46 1.98q-2 .8-4.4 1.52-31.14 9.33-72.63 17.65-44.06 8.84-85.92 13.9l-19.73 2.38q-8.9 1.08-17.51 1.75-2.44.19-11.76 1.22-5.1.56-8.03.67c-4.06.15-6.98 1.02-10.67.95q-2.9-.05-7.53.51c-6.02.73-13 .41-18.36.88q-7.7.69-10.83.63c-6.99-.12-13.92.82-21.11.92q-36.45.49-68.1.03-7.49-.11-11.75-.42c-8.52-.63-15.77-.17-23.43-1.22-3.96-.55-9.33-.36-15.59-.79q-12.01-.84-22.73-1.54c-4.36-.28-8.79-1.1-13.43-1.08a9.75 9.3 49.4 0 1-1.89-.19c-4.1-.83-8.59-.44-12.57-1.45-2.44-.61-5.03.04-7.51-.75q-1.63-.53-4.02-.46-1.34.03-5.12-.65-.84-.16-5.14-.66-14.27-1.66-41.68-5.82-21.08-3.2-52.52-9.41-29.39-5.81-63.53-15.18-4.87-1.34-9.39-3.04a2.49 2.49 0 0 1-1.59-2.12c-.45-5.67.91-11.03 1.01-16.44q.05-2.63.48-6.92 1.26-12.5 1.54-19.23.21-5.23.66-8.14c.59-3.81.2-7.19.84-10.9.83-4.81.16-10.01 1.15-14.82.67-3.24.2-6.76.73-10.22.77-5.01.54-11.12 1.24-16.65.7-5.46.16-11.7.79-17.1.75-6.53.46-14.59 1.1-20.32.82-7.3.37-14.32 1.14-22.22q.31-3.22.39-12.31c.07-8.99.97-16.84 1.02-26.14q.05-10.89.55-19.49c.5-8.64.19-17.4.61-26.02q.59-12.29.69-27.74.25-39.8.03-92.24-.04-9.66-.64-24.01-.43-10.45-.35-24.01c.05-8.51-.99-21.21-.9-30.67q.1-9.62-.34-17.41c-.72-12.98-.67-20.76-.92-35.67-.05-2.98-.77-7.75-.75-11.22q.04-10.63-.5-17.71c-.66-8.56-.13-16.81-1.14-24.4-.67-5.04-.16-10.66-.82-15.73q-.52-3.96-.62-8.1c-.1-4.65-.79-7.27-.77-10.82.03-3.71-.22-9.42-.93-14.56q-.32-2.38-.33-6.41a15.46 14.85 41.3 0 0-.22-2.57q-.89-5.19-.73-11.74a1.7 1.69-25.8 0 1 .33-.94q.95-1.27 2.1-2.12 25.49-18.6 43.07-44.69 18.23-27.06 26.89-57.85 3.93-13.98 6.87-31.13.75-4.37.81-7.06c.07-3.11 1.15-6.46.83-9.43q-.1-.97.87-16.5.22-3.6-.1-17.01 0-.03-.78-16.05-.32-6.6-1.43-16-.38-3.21-.44-4.77c-.09-2.51-.63-4.14-.87-6.35q-.84-7.8-2.68-19.75-.48-3.14-.48-3.81c.02-1.75-.63-3.12-.92-5.02q-.69-4.52-1.55-9.29-2.56-14.25-3.31-17.3c-.94-3.86.24-6.19 3.82-7.43l27.77-9.64q23.55-8.18 42.34-14.92 22.47-8.05 24.36-8.92c4.85-2.22 7.91 1.4 11.69 3.55q25.38 14.48 50.73 23.47 17.9 6.35 40.8 10.25 3.13.53 13.81 2.01 3.71.51 6.99.55c2.88.03 5.68.68 9.31.85q18.84.89 38.27-.02 2.94-.14 5.79-.54c3.39-.48 6.42-.25 9.96-.87q.42-.07 4.17-.5 47.81-5.49 90.13-27.26 3.39-1.75 11.15-6.14 10.07-5.7 11.23-6.03a1.9 1.86-43.9 0 1 1.09.01m17.18 16.23a.28.28 0 0 0-.12-.43q-10.79-4.1-12.94-4.91c-1.84-.7-3.81-1.58-5.52-.51q-26.76 16.69-55.59 26.13-34.28 11.22-71.37 14.15-9.22.72-18 .76-14.54.06-18-.09-21.93-.92-46.32-5.25-4.25-.76-6.46-1.32c-5.42-1.4-10.76-2.3-15.99-3.95q-22.46-7.07-38.5-14.39-13.05-5.95-28.28-15.47-2.5-1.57-4.98-.58-5.92 2.37-14.36 5.38a.55.55 0 0 0-.15.95q3.5 2.7 7.35 5.14c16.55 10.47 32.34 19.27 50.37 26.22q37.37 14.42 76.81 18.43 19.88 2.02 34.25 1.99 8.39-.03 18.47-.85 14.51-1.19 18.41-1.65c46.4-5.47 90.95-21.5 129.16-48.03q.97-.67 1.76-1.72m-147.92 967.94 19.9-.14q24.43-.67 42.98-1.96c56.46-3.94 113.7-11.49 170.15-23.27q28.67-5.99 57.3-13.93 2.47-.68 3.92-1.57a.66.66 0 0 0 .31-.61q-3.75-47.58-6.29-88.53-.25-3.94-.48-7.96-1.26-21.27-2.48-48.51-.67-14.96-1.06-28.78c-.48-16.81-1.45-32.74-1.74-47q-1.14-54.72-1.18-83.25-.05-32.71.67-101.99.19-18.13 3.72-116.25c.73-20.35 2.27-44.28 3.23-60.04a1.7 1.7 0 0 0-.77-1.53q-16.67-10.86-31.2-24.95-19.45-18.85-32.79-38.92c-23.54-35.44-36.62-77.65-39.19-120.35-2.8-46.71 2.39-93.92 13.34-139.97a.73.72 16.6 0 0-.46-.85l-38.18-13.67a1.62 1.61 37 0 0-1.47.2c-8.41 5.86-12.39 8.84-19.18 12.96q-44.88 27.25-96.9 37.67c-28.07 5.62-56.51 7.37-85.22 5.5q-85.49-5.6-155.75-55.31a3.72 3.71 52.8 0 0-3.4-.47l-37.66 13.26a.71.71 0 0 0-.46.84q10.42 44.26 13.11 88.87c1.79 29.75 1.01 57.46-4.46 85.42q-14.74 75.25-70.12 127.63-13.53 12.8-28.16 21.97a1.88 1.88 0 0 0-.88 1.73q3.05 44.27 4.48 91.75.92 30.67 1.15 37.55c.5 14.32.34 25.83.78 39.78.87 28.07.69 42.55.97 83.19q.56 79.91-2.72 164.98-.08 2.27-1.27 29.51-.95 21.95-1.89 35.24-3.93 56.12-7.52 101a.45.44-80.1 0 0 .31.45q9.89 2.96 22.95 6.27 22.38 5.67 46.88 10.57c43.15 8.64 86.37 15.07 129.82 18.86q23.09 2.02 28.79 2.39 53.94 3.56 108.12 2.22M201.56 627.12c14.72-9.99 28.86-23.77 40.15-36.64 30.84-35.18 49.3-80.71 53.96-127.25q1.5-14.98 1.7-29.01.79-57.28-12.56-114.29-.84-3.58-1.13-4.39a.79.79 0 0 0-.97-.49l-12.43 3.88a1.18 1.18 0 0 0-.81 1.34c4.17 22.64 8.84 47.03 10.23 68q.27 4.12 1.1 17.06 1.62 25.15-.91 53.67-3.16 35.75-17.58 69.56c-11.78 27.62-29.44 51.37-51.58 71.57-3.13 2.86-6.81 5.47-10.05 8.28a1.92 1.88-12.3 0 0-.56.85q-.33 1.06-.27 3.49.19 7.47 1.17 14.13a.35.35 0 0 0 .54.24m621.25-.97q.81-5.55 1.13-14.52c.08-2.25.75-3.79-1.44-5.38-46.93-34.02-73.1-89.73-78.55-146.38q-1.97-20.45-1.66-41.31c.09-6.23.7-11.78.74-17.32q.04-5.12.82-12.96 3.35-33.71 10.01-66.59a2.01 2 15.4 0 0-1.3-2.28l-11.79-4.23a.53.53 0 0 0-.68.33q-1.56 4.81-2.71 10.37-4.13 19.87-7.41 44.11c-2.22 16.39-3.01 32.56-3.46 49.26q-.68 25.13 2.27 50.23c.89 7.63 2.86 16.59 4.43 23.56q12.38 55.18 49.49 97.78 17.93 20.58 39.54 35.58a.37.37 0 0 0 .57-.25m-338.85 81.13-.04-9.78z"/><path d="M483.9 724.43q.43.58-.04 1.28z"/></g><path fill="#dd8d27" d="m797.06 619.9 22.21 16.73a2.07 2.05 17.5 0 1 .82 1.56q.22 5.86-.29 11.3c-.8 8.59-.65 13.15-1.42 21.1q-.5 5.09-.43 12.34.04 4.55-.65 12.32c-.53 5.88-.18 18.29-.77 27.19q-.41 6.15-.4 10.39c.03 8.09-.82 20.66-.95 26.67q-.73 33.41-1.21 51c-.06 1.99-.46 5.18-.42 8q.16 9.79-.06 17.71-.38 13.84-.37 34.54.01 59.09-.03 87.47c-.01 3.78.36 9.3.29 14.09-.05 2.9.77 5.78.75 8.69q-.14 18.28.56 30.38.55 9.42.5 13.11c-.07 6.16-.27 13.04.81 19.52a9.27 8.72 43.3 0 1 .12 1.98q-.26 6.42.16 12.2c.82 11.33.84 20.98 1.59 31.62.32 4.42-.23 10.29.25 13.72q1.07 7.72.97 16.51a12.57 11.77 43.1 0 0 .12 1.84q1.08 7.07.91 10.62-.27 5.34.21 8.71.82 5.75.79 7.22c-.12 6.45 1.09 11.62 1.18 17.44.1 6.56.87 12.09.86 19.01a8.07 7.66 40.3 0 0 .18 1.67c.94 4.04.46 7.74.96 11.23q.78 5.57.94 12.55a11.23 10.89 40 0 0 .18 1.75q.79 4.13.75 7.75a.81.79-6.7 0 1-.61.76l-21.71 5.43c.3-13.91-.89-29.25-1.73-41.84-.4-5.9-1.07-10.09-1.17-15.04q-.05-2.26-.31-6.02-3.15-45.47-4.44-74.87c-.34-7.82-.21-18.64-.75-27.33-.73-11.82-.51-23.18-.93-37.9q-1.46-50.04-1.49-60.78-.35-122.64.34-164.24.18-10.53.53-32.83c.44-28.21 1.07-51.74 1.07-77.83q0-8.73.61-18.15c.7-10.82.23-22.09.78-33.73q.37-7.66.7-15.56"/><g fill="#fccd29" fill-opacity=".996"><path d="M552.77 1261.62q-1.3-1.65 1.24-1.61 8.86.15 13.34-.11 11.5-.67 13.33-.65 5.43.05 11.27-.91 2.32-.39 4.11-.38c4.04.01 5.69.09 10.36-.52q2.37-.3 6.87-.33a12.37 12.14-50.5 0 0 2.36-.25q4.39-.92 8.4-.79c2.84.09 4.86-.7 7.77-.68q2.15.01 5.83-.51 9.28-1.33 12.71-1.61 4.54-.37 6.01-.6 2.29-.35 5.49-.71 9.74-1.07 10.86-1.21 8.39-1.05 26.26-3.6 3.97-.57 5.08-.82 4.04-.93 5.07-1 4.41-.31 7.65-1.1c5.46-1.32 14.26-2.31 20.46-3.52 23.14-4.53 43.9-8.63 65.32-14.16q.61-.16 1.29-.53l21.71-5.43a.81.79-6.7 0 0 .61-.76q.04-3.62-.75-7.75a11.23 10.89 40 0 1-.18-1.75q-.16-6.98-.94-12.55c-.5-3.49-.02-7.19-.96-11.23a8.07 7.66 40.3 0 1-.18-1.67c.01-6.92-.76-12.45-.86-19.01-.09-5.82-1.3-10.99-1.18-17.44q.03-1.47-.79-7.22-.48-3.37-.21-8.71.17-3.55-.91-10.62a12.57 11.77 43.1 0 1-.12-1.84q.1-8.79-.97-16.51c-.48-3.43.07-9.3-.25-13.72-.75-10.64-.77-20.29-1.59-31.62q-.42-5.78-.16-12.2a9.27 8.72 43.3 0 0-.12-1.98c-1.08-6.48-.88-13.36-.81-19.52q.05-3.69-.5-13.11-.7-12.1-.56-30.38c.02-2.91-.8-5.79-.75-8.69.07-4.79-.3-10.31-.29-14.09q.04-28.38.03-87.47-.01-20.7.37-34.54.22-7.92.06-17.71c-.04-2.82.36-6.01.42-8q.48-17.59 1.21-51c.13-6.01.98-18.58.95-26.67q-.01-4.24.4-10.39c.59-8.9.24-21.31.77-27.19q.69-7.77.65-12.32-.07-7.25.43-12.34c.77-7.95.62-12.51 1.42-21.1q.51-5.44.29-11.3a2.07 2.05 17.5 0 0-.82-1.56l-22.21-16.73q-15.28-13.79-20.54-19.92-10.85-12.66-17.13-21.59-14.98-21.31-25.49-47.25c-2.81-6.92-5.41-15.85-7.44-22.13q-2.26-7.02-3.93-14.91-.96-4.56-2.94-15.13-1.52-8.16-2.14-15.65-.44-5.4-.91-10.76-.51-5.72-.51-10.76 0-30.27.01-31.4c.06-4.88.78-9.91.91-13.57q.16-4.71.68-10.16 3.65-38.43 12.1-73.76a.7.7 0 0 0-.45-.82l-36.83-13.18a1.48 1.45-53.1 0 0-1.38.21q-27.57 20.78-58.94 33.19c-10.35 4.09-15.71 6.51-24.59 9.17-17.3 5.19-33.77 9.23-50.49 11.29q-9.67 1.19-12.34 1.7c-4.32.81-7.81.44-12 .99q-4.26.57-9.01.48l-23.88.02q-4.84 0-8.62-.45-4.43-.54-8.96-.54a3.32 3.16-36.1 0 1-.84-.11q-2.06-.54-7.13-1.07-18.5-1.92-38.49-6.87-4.02-1-14.91-4.04-8.28-2.32-14.67-4.69-29.48-10.91-57.86-28.31-7.4-4.53-15.54-10.53a1.38 1.36 53.3 0 0-1.25-.19l-36.86 12.98a1.02 1.01 73.2 0 0-.64 1.2q5.74 23.41 9.05 48.59.56 4.29.56 4.33c-.05 3.83 1.34 7.14 1.24 10.8-.1 3.38 1.11 5.82.97 9.17q-.13 3.15.85 7a6.8 6.67 41.6 0 1 .16 2.3q-.37 3.34.63 14.72.62 6.95.25 30.14c-.07 4.14-.77 7.87-.81 11.91q-.04 3.81-.68 8.91-.6 4.82-1.54 11.81c-5.6 41.73-22.13 82.94-48.64 115.87q-12.09 15.02-26.14 28.06-8.19 7.6-18.87 15.36-2.58 1.88-6.05 3.79a2.76 2.75 73.6 0 0-1.42 2.62c.4 5.46.09 8.81.86 14.04q.59 3.96.43 11.06c-.07 3.08.73 6.36.81 9.79q.2 8.19.3 14.64c.02 1.53.56 3.56.61 5.04q.27 9.5.21 12.11c-.2 8.44 1.08 16.52.8 25.28q-.2 6.41.56 13.13.61 5.35.66 19.65c.05 16.27.87 28.98.82 45.06q-.04 12.63.42 25.45c1.27 34.94.83 57.83.79 109.17 0 7.55-.36 19.62-.68 27.33-.48 11.57.19 27.03-.82 39.95-.98 12.52-.19 26.78-1.35 38.64-.44 4.51-.21 8.21-.11 13.83.07 4.48-1.14 9.78-1.12 14.38q.04 9.83-.61 15.82c-.53 4.92.07 10.92-.41 14.91q-1.06 8.87-1.02 12.09.05 3.94-.47 7.22c-.74 4.68-.13 9.09-.84 14.29q-.63 4.67-.55 7.06.1 2.94-.46 5.67c-.7 3.44-.36 7.44-.89 11.49-.73 5.6-.55 9.58-1.1 15.36q-.37 3.77-.68 8.1-1.3 18.15-1.48 19.19c-.6 3.44-.03 7.53-.93 10.54a1.28 1.27 17.5 0 0 .82 1.57q7.77 2.58 17.48 4.79.88.2 10.59 2.54 32.2 7.76 51.32 11.31 5.85 1.09 39.48 6.8 16.36 2.78 20.01 3.16 13.92 1.47 28.57 3.7 1.29.19 4.76.26a5.22 5.12 51.2 0 1 1.01.12c3.88.9 7.64.64 11.4 1.34q5.28.99 16.16 1.53c5.1.26 9.78 1.07 14.77 1.37q9.66.58 15.46.62a8.33 8.28-38.8 0 1 1.72.18q2.79.6 3.4.62 11.11.23 18.37.72 10.47.7 15.81.47 5.73-.26 12.25.45 4.82.52 12.24.43 19.95-.24 39.89.77-54.18 1.34-108.12-2.22-5.7-.37-28.79-2.39c-43.45-3.79-86.67-10.22-129.82-18.86q-24.5-4.9-46.88-10.57-13.06-3.31-22.95-6.27a.45.44-80.1 0 1-.31-.45q3.59-44.88 7.52-101 .94-13.29 1.89-35.24 1.19-27.24 1.27-29.51 3.28-85.07 2.72-164.98c-.28-40.64-.1-55.12-.97-83.19-.44-13.95-.28-25.46-.78-39.78q-.23-6.88-1.15-37.55-1.43-47.48-4.48-91.75a1.88 1.88 0 0 1 .88-1.73q14.63-9.17 28.16-21.97 55.38-52.38 70.12-127.63c5.47-27.96 6.25-55.67 4.46-85.42q-2.69-44.61-13.11-88.87a.71.71 0 0 1 .46-.84l37.66-13.26a3.72 3.71 52.8 0 1 3.4.47q70.26 49.71 155.75 55.31c28.71 1.87 57.15.12 85.22-5.5q52.02-10.42 96.9-37.67c6.79-4.12 10.77-7.1 19.18-12.96a1.62 1.61 37 0 1 1.47-.2l38.18 13.67a.73.72 16.6 0 1 .46.85c-10.95 46.05-16.14 93.26-13.34 139.97 2.57 42.7 15.65 84.91 39.19 120.35q13.34 20.07 32.79 38.92 14.53 14.09 31.2 24.95a1.7 1.7 0 0 1 .77 1.53c-.96 15.76-2.5 39.69-3.23 60.04q-3.53 98.12-3.72 116.25-.72 69.28-.67 101.99.04 28.53 1.18 83.25c.29 14.26 1.26 30.19 1.74 47q.39 13.82 1.06 28.78 1.22 27.24 2.48 48.51.23 4.02.48 7.96 2.54 40.95 6.29 88.53a.66.66 0 0 1-.31.61q-1.45.89-3.92 1.57-28.63 7.94-57.3 13.93c-56.45 11.78-113.69 19.33-170.15 23.27q-18.55 1.29-42.98 1.96"/><path d="M644.14 553.79a1.99 1.98 7 0 1 2.55-1.98l11.9 3.58a2.55 2.55 0 0 1 1.76 2.99q-.68 3.09-4.14 13.12-3.04 8.79-6.22 11.76-5.31 4.94-13.01 4.54-10.1-.52-16.61-7.92-2.97-3.37-4.11-10.52a7.75 7.71-44.9 0 1 .01-2.44q1.74-10.51 3.33-15.57c4.25-13.52 8.18-27.29 12.94-40.67q2.98-8.37 4.13-10.32 4.14-6.98 12.78-9.1c3.29-.8 8.38.95 11.37 1.94 12.06 4.02 15.15 15.63 11.92 26.93q-1.79 6.26-4.33 11.62a.88.86-73.7 0 1-.88.49q-7.65-.83-14.66-4.2a.75.75 0 0 1-.4-.87l3.92-14.64a2.82 2.81-71.3 0 0-1.64-3.32l-.18-.08a2.67 2.66 21.5 0 0-3.42 1.48q-1.57 3.84-2.19 5.95-1.31 4.48-1.84 6.03-4.81 14.1-10.81 33.21-2.74 8.71-2.78 11.49a1.46 1.46 0 0 0 .35.95q1.99 2.27 4.49 1.33a1.36 1.35-88.3 0 0 .76-.72q2.41-5.46 3.38-9.49c.42-1.72 1.73-3.74 1.63-5.57m9.87-26.45 12.79 4.06a.5.49-70.4 0 0 .61-.29c2.89-7.06 6.35-16.25 5.05-23.01-1.31-6.75-4.99-11.01-11.57-13.44-10.01-3.71-19.45-2.03-23.93 8.56q-2.79 6.59-3.98 10.27-6.87 21.22-12.03 38.71c-3.16 10.7-6.53 23.45 4.75 30.71q6.34 4.08 14.7 3.17c8.01-.87 11.43-6.28 13.95-13.48q3.73-10.62 4.77-14.64a.61.61 0 0 0-.41-.74l-12.43-3.95a.4.4 0 0 0-.51.27q-1.55 5.33-3.74 12.22-.87 2.75-2.3 4.69c-1.62 2.19-4.93.75-6.53-.73-1.69-1.56-1.09-5.05-.55-6.79q7.46-24.26 17.08-53.1a3.85 3.84-67.4 0 1 5.37-2.22l.23.11a4.9 4.9 0 0 1 2.6 5.93l-4.18 13.18a.41.4-72.7 0 0 .26.51m38.22-21.74q1.09.01 2.64.35 1.34.3 6.58 2.43 10.46 4.24 20.34 8.2a2.27 2.26-71 0 1 1.33 2.74q-1.85 6.33-4.9 11.89a.77.75 18 0 1-.79.39c-4.75-.7-9.7-3.47-14.13-5.44a1.1 1.09 23.3 0 0-1.46.58l-7.2 17.45a1.21 1.2 22.4 0 0 .66 1.57l10.1 4.17a2.86 2.85 19.9 0 1 1.64 3.49q-.52 1.67-3.5 9.17-.88 2.22-2.28 2.43-1.08.16-3.3-.81-5.42-2.36-8.88-3.47a1.15 1.15 0 0 0-1.42.65l-8.56 20.75a1.17 1.15 22.7 0 0 .63 1.51q4.01 1.66 6.11 2.69c2.41 1.18 4.84 1.56 7.19 3.42a1.9 1.9 0 0 1 .59 2.18q-1.63 4.25-3.3 9.12-.7 2.07-2.14 3.52a1.21 1.21 0 0 1-1.28.28q-3.24-1.21-4.01-1.56-14.88-6.63-23.14-10.03c-2.74-1.12-3.1-2.71-2.08-5.4q.82-2.17 1.55-3.92 18.27-43.96 32.09-77.74a1 .98 11 0 1 .92-.61m24.42 24.78a.67.67 0 0 0 .88-.36l4.51-10.94a.67.67 0 0 0-.36-.88l-28.18-11.62a.67.67 0 0 0-.88.36l-34.53 83.71a.67.67 0 0 0 .36.88l28.53 11.77a.67.67 0 0 0 .88-.36l4.78-11.6a.67.67 0 0 0-.36-.88l-14.87-6.13a.67.67 0 0 1-.36-.88l10.09-24.49a.67.67 0 0 1 .88-.36l12.7 5.23a.67.67 0 0 0 .88-.36l4.41-10.72a.67.67 0 0 0-.36-.88l-12.78-5.27a.67.67 0 0 1-.36-.88l8.66-21a.67.67 0 0 1 .88-.36z"/></g></symbol></svg>