<?xml version="1.0" encoding="UTF-8" standalone="no"?>
<!DOCTYPE svg PUBLIC "-//W3C//DTD SVG 1.1//EN" "http://www.w3.org/Graphics/SVG/1.1/DTD/svg11.dtd">
<svg xmlns="http://www.w3.org/2000/svg" version="1.1" viewBox="0.00 0.00 1536.00 1024.00">
<path fill="#181818" d="
  M 1536.00 847.39
  L 1536.00 1024.00
  L 0.00 1024.00
  L 0.00 616.28
  Q 5.79 612.14 12.25 609.04
  C 13.32 608.53 15.37 608.10 16.84 608.04
  C 20.52 607.88 24.21 606.00 27.51 606.01
  Q 28.98 606.01 33.43 605.24
  Q 36.54 604.70 40.26 605.47
  Q 52.30 607.98 59.17 609.38
  Q 63.72 610.31 73.98 610.13
  A 3.57 3.45 51.2 0 1 74.85 610.24
  Q 77.61 610.96 79.31 612.58
  A 1.85 1.85 0.0 0 1 79.34 615.22
  L 76.85 617.71
  A 0.57 0.57 0.0 0 0 77.23 618.68
  L 80.16 618.78
  A 1.01 0.98 69.5 0 1 80.88 619.12
  Q 81.27 619.56 84.68 620.88
  A 1.99 1.64 14.2 0 1 85.96 622.62
  Q 85.88 623.79 87.17 624.60
  A 1.41 1.35 -22.2 0 0 87.65 624.79
  C 92.62 625.83 98.56 627.65 96.70 633.72
  Q 95.60 637.34 93.81 638.62
  Q 91.03 640.62 90.81 640.84
  A 3.12 3.11 53.2 0 0 90.28 644.55
  Q 95.76 654.47 97.18 665.77
  C 98.07 672.78 96.36 681.14 94.31 688.28
  Q 93.58 690.82 95.39 696.41
  Q 99.77 710.00 100.01 717.99
  Q 100.18 723.53 98.47 733.50
  Q 97.89 736.85 95.20 750.58
  Q 93.56 758.96 91.29 763.62
  Q 85.80 774.86 74.09 783.33
  Q 69.06 786.96 70.08 793.97
  A 2.68 2.57 27.1 0 0 70.42 794.95
  Q 73.01 799.39 77.20 801.58
  Q 98.60 812.80 115.64 823.37
  C 129.09 831.72 141.75 841.13 152.01 852.67
  A 0.47 0.47 0.0 0 0 152.80 852.54
  Q 155.08 847.17 158.88 842.85
  C 166.48 834.20 175.23 827.30 185.37 820.54
  Q 198.55 811.74 206.30 807.26
  Q 214.37 802.59 219.10 794.93
  Q 220.70 792.34 222.97 790.92
  Q 227.54 788.06 234.68 784.93
  Q 236.13 784.29 240.48 780.91
  A 4.84 4.80 -2.8 0 0 241.56 779.73
  Q 245.50 773.56 246.66 766.45
  A 1.23 1.04 -49.7 0 0 246.66 766.08
  L 245.48 759.39
  A 2.56 2.48 -42.2 0 1 245.56 758.18
  L 246.90 753.82
  A 1.82 1.78 44.3 0 0 246.87 752.64
  L 244.52 746.25
  A 2.21 2.18 -85.8 0 0 243.56 745.12
  C 229.90 737.20 221.49 720.84 224.55 705.21
  Q 225.71 699.28 231.33 689.66
  A 5.92 5.45 -22.1 0 0 231.75 688.77
  Q 233.43 684.17 233.18 677.76
  Q 232.81 668.03 234.60 658.35
  Q 237.74 641.36 248.80 630.06
  Q 255.89 622.81 268.95 616.89
  Q 280.60 611.60 293.08 612.42
  Q 319.73 614.17 337.79 630.78
  Q 346.55 638.84 350.83 652.64
  Q 356.00 669.34 350.63 686.93
  Q 349.50 690.62 350.08 696.24
  A 3.62 3.43 34.0 0 0 350.28 697.14
  Q 355.98 712.77 352.81 728.51
  C 351.46 735.24 347.67 742.70 346.11 749.69
  Q 345.28 753.42 344.93 758.38
  Q 344.65 762.29 343.52 767.07
  Q 341.56 775.38 334.07 781.32
  Q 330.63 784.05 327.10 785.29
  Q 323.91 786.41 323.01 786.88
  Q 320.26 788.30 319.54 788.47
  A 0.61 0.60 75.5 0 0 319.10 789.23
  Q 320.34 793.46 321.72 795.08
  Q 331.02 806.00 342.52 814.79
  Q 344.58 816.37 351.45 819.08
  Q 354.58 820.32 365.10 824.91
  Q 379.92 831.38 390.17 843.82
  Q 393.60 847.98 396.01 851.87
  A 0.47 0.46 44.8 0 0 396.80 851.87
  Q 400.01 846.63 404.69 841.94
  Q 412.41 834.20 424.39 826.41
  Q 440.86 815.69 456.68 807.94
  Q 465.58 803.57 481.24 795.48
  Q 485.76 793.15 488.62 790.60
  C 491.60 787.97 491.81 781.48 492.75 778.05
  Q 493.87 773.90 494.07 771.50
  Q 494.13 770.81 495.69 761.74
  C 496.63 756.27 495.81 750.21 493.41 744.69
  Q 490.89 738.89 487.52 731.98
  C 484.06 724.87 483.79 719.14 483.13 709.37
  C 483.02 707.71 481.91 704.83 480.81 702.85
  C 478.12 697.99 476.87 692.79 476.93 686.84
  Q 476.99 681.28 476.72 676.85
  Q 476.52 673.45 476.84 671.16
  C 477.16 668.90 476.94 666.28 477.55 663.56
  Q 483.20 638.35 506.30 625.78
  Q 515.34 620.86 524.38 617.14
  Q 526.22 616.39 531.15 615.44
  Q 533.12 615.06 540.74 614.19
  Q 545.01 613.70 562.42 614.11
  A 7.10 6.81 -35.4 0 1 564.12 614.36
  C 566.15 614.92 568.44 614.93 570.16 615.38
  Q 588.99 620.24 600.68 633.31
  Q 603.94 636.95 607.98 644.16
  C 610.60 648.85 611.33 654.00 613.26 659.20
  C 614.75 663.21 625.21 664.63 629.23 665.07
  Q 633.67 665.57 642.02 668.72
  Q 650.57 671.95 652.30 680.42
  Q 652.72 682.44 650.75 686.04
  C 647.58 691.85 641.40 693.75 634.22 694.07
  Q 629.93 694.26 624.70 695.02
  A 2.51 2.42 -62.0 0 0 623.90 695.28
  Q 622.95 695.78 622.27 695.81
  Q 619.63 695.95 617.30 696.94
  C 613.87 698.40 611.64 698.66 611.30 702.26
  Q 611.29 702.42 610.09 705.81
  C 609.09 708.62 610.65 711.01 611.16 713.38
  Q 612.74 720.73 612.84 722.01
  Q 613.98 737.22 609.33 751.82
  Q 605.74 763.09 603.90 774.61
  C 602.62 782.59 605.46 792.73 595.98 795.84
  Q 593.34 796.71 592.69 796.81
  A 5.99 3.96 -9.7 0 1 591.85 796.89
  L 575.57 797.94
  A 6.55 6.45 31.9 0 0 573.66 798.37
  Q 572.32 798.91 570.55 799.01
  A 2.25 2.25 0.0 0 0 568.46 801.64
  C 569.07 805.13 572.78 808.73 575.49 810.77
  Q 579.87 814.05 590.02 818.49
  C 601.48 823.50 612.05 827.65 622.39 833.90
  C 640.56 844.88 655.39 858.38 661.76 878.00
  Q 664.83 887.48 666.86 898.06
  Q 667.10 899.29 667.11 900.96
  Q 667.12 902.27 667.58 903.83
  A 0.46 0.45 47.4 0 0 668.44 903.87
  Q 672.38 893.55 674.44 881.68
  Q 675.77 874.01 674.69 866.14
  Q 674.19 862.52 674.06 860.79
  Q 673.14 848.52 675.65 837.65
  C 677.28 830.60 682.03 824.24 687.45 819.45
  A 1.64 1.63 -31.3 0 0 687.89 817.65
  C 685.91 812.48 685.68 808.36 687.07 802.68
  Q 687.78 799.79 688.59 795.75
  A 4.57 4.32 52.9 0 0 688.67 795.02
  C 688.93 787.36 693.38 782.24 700.23 778.99
  Q 701.63 778.32 704.22 775.61
  A 2.17 2.14 76.0 0 0 704.70 774.80
  Q 705.40 772.51 706.42 768.69
  Q 707.77 763.63 712.90 762.19
  C 722.42 759.50 726.92 764.48 729.13 773.06
  C 729.64 775.06 732.44 777.96 734.36 779.82
  Q 743.73 788.92 743.02 802.53
  Q 742.93 804.27 742.42 805.83
  A 1.40 1.37 44.4 0 0 742.44 806.77
  Q 743.35 809.18 745.53 810.01
  Q 748.66 811.21 750.40 813.04
  A 2.17 2.14 18.0 0 1 750.96 814.12
  Q 752.68 823.01 743.62 825.32
  A 1.12 1.12 0.0 0 0 742.91 826.92
  Q 745.80 832.50 748.17 837.71
  C 750.38 842.58 751.38 847.10 752.06 851.94
  A 0.30 0.30 0.0 0 0 752.63 852.03
  Q 753.32 850.65 754.16 849.92
  Q 770.59 835.81 792.41 826.16
  Q 803.74 821.16 830.94 809.48
  C 838.81 806.10 839.80 799.20 840.15 790.58
  A 11.24 10.65 52.9 0 1 840.33 788.96
  Q 841.02 785.17 840.78 781.25
  Q 839.98 767.86 839.64 765.87
  C 839.13 762.88 838.46 760.38 835.35 758.66
  Q 831.33 756.43 827.67 753.82
  Q 818.67 747.41 817.02 736.24
  Q 814.26 717.53 824.72 701.94
  C 825.42 700.90 826.07 698.22 825.58 696.32
  Q 825.42 695.68 824.09 688.09
  C 822.91 681.35 822.58 674.56 823.13 668.55
  Q 823.26 667.16 824.58 660.77
  Q 825.50 656.32 826.65 653.12
  Q 831.87 638.62 844.38 628.50
  Q 848.12 625.47 849.80 624.10
  C 853.86 620.78 857.91 617.60 862.92 616.19
  Q 869.09 614.45 877.01 614.06
  Q 879.47 613.94 881.46 613.18
  A 1.02 0.99 -57.0 0 1 881.77 613.11
  L 889.46 612.47
  A 1.63 1.31 -35.2 0 1 889.92 612.50
  Q 908.82 616.81 914.91 618.85
  Q 917.78 619.81 920.30 622.96
  A 5.59 5.58 88.1 0 0 921.40 623.99
  C 925.74 627.02 929.37 629.19 932.30 632.97
  Q 941.21 644.49 943.56 656.22
  Q 945.79 667.35 944.65 677.75
  Q 944.06 683.15 941.58 692.36
  Q 941.22 693.68 941.02 700.47
  A 2.05 2.00 34.4 0 0 941.21 701.41
  Q 942.13 703.45 943.24 705.18
  C 949.34 714.69 948.24 726.61 944.24 737.25
  Q 940.28 747.79 931.92 752.42
  Q 929.72 753.63 924.93 756.03
  A 1.64 1.61 -87.8 0 0 924.23 756.69
  Q 921.59 761.33 921.35 763.96
  Q 919.80 781.50 919.42 784.81
  C 918.65 791.47 919.24 796.57 920.49 802.47
  C 921.30 806.25 924.26 808.01 928.03 809.49
  Q 938.77 813.70 943.81 815.92
  Q 943.92 815.97 944.27 816.02
  Q 944.62 816.06 944.71 816.09
  Q 961.29 822.61 966.90 825.59
  Q 976.07 830.46 983.58 836.61
  A 0.42 0.42 0.0 0 0 984.18 836.55
  Q 985.44 834.92 987.42 833.18
  Q 996.03 825.59 1006.45 819.95
  Q 1019.50 812.88 1031.01 808.02
  Q 1037.26 805.37 1046.10 801.77
  C 1048.71 800.71 1052.65 798.79 1055.10 796.79
  Q 1060.51 792.38 1063.68 790.41
  A 0.70 0.70 0.0 0 0 1063.71 789.24
  Q 1059.32 786.19 1056.41 784.53
  C 1049.84 780.81 1044.52 776.00 1041.21 769.62
  C 1037.53 762.52 1035.67 753.73 1034.18 745.40
  Q 1032.71 737.15 1032.99 730.49
  Q 1033.50 717.97 1038.74 704.51
  Q 1041.31 697.91 1041.76 696.60
  A 5.96 5.96 0.0 0 0 1042.00 695.64
  Q 1042.56 692.08 1041.98 686.21
  Q 1041.39 680.20 1041.73 676.79
  C 1043.52 659.03 1050.72 642.15 1064.37 630.34
  C 1075.06 621.09 1088.23 614.22 1102.26 613.49
  Q 1105.93 613.31 1114.97 614.15
  Q 1125.69 615.16 1137.63 620.86
  Q 1149.42 626.48 1157.88 636.73
  Q 1161.51 641.12 1163.74 646.34
  Q 1166.51 652.83 1167.47 657.01
  Q 1169.02 663.76 1169.69 671.50
  C 1170.26 678.01 1169.25 683.35 1168.06 690.24
  Q 1167.68 692.43 1166.92 694.46
  Q 1165.55 698.08 1165.53 698.12
  A 2.97 2.83 -27.2 0 0 1165.20 699.07
  Q 1164.79 701.84 1163.43 708.72
  Q 1160.75 722.26 1151.79 732.68
  Q 1149.23 735.65 1148.05 741.26
  Q 1145.07 755.41 1149.39 769.00
  Q 1149.92 770.67 1151.85 773.10
  Q 1152.82 774.32 1155.61 775.95
  C 1158.82 777.81 1162.91 779.80 1166.15 782.44
  Q 1170.84 786.26 1173.76 787.97
  C 1178.77 790.91 1185.19 794.00 1191.28 797.59
  Q 1200.16 802.81 1216.00 812.26
  Q 1225.43 817.89 1232.41 823.97
  C 1236.34 827.40 1241.39 832.43 1244.49 837.47
  Q 1249.00 844.80 1250.90 851.33
  Q 1255.87 868.38 1256.90 879.83
  Q 1256.97 880.56 1256.94 882.75
  A 0.32 0.32 0.0 0 0 1257.57 882.86
  C 1258.70 879.53 1258.85 876.44 1259.68 873.47
  Q 1263.04 861.51 1269.50 851.01
  Q 1271.04 848.51 1272.76 846.69
  C 1274.37 844.99 1275.62 842.99 1277.55 841.22
  Q 1289.03 830.76 1301.18 824.44
  Q 1315.96 816.75 1337.38 806.89
  Q 1343.44 804.10 1352.64 795.72
  A 2.04 2.03 -5.1 0 0 1353.00 795.29
  L 1354.71 792.55
  A 2.06 2.04 68.6 0 0 1354.96 791.97
  Q 1355.56 789.48 1353.91 787.67
  A 1.41 1.35 71.2 0 0 1353.06 787.23
  Q 1352.74 787.19 1349.00 786.83
  Q 1336.32 785.63 1332.58 773.45
  Q 1331.39 769.59 1331.13 765.96
  Q 1330.84 761.90 1330.59 760.06
  Q 1329.32 750.46 1327.44 740.59
  Q 1325.77 731.88 1325.44 722.31
  Q 1325.31 718.42 1326.45 703.21
  A 6.35 6.24 44.5 0 0 1326.43 702.09
  Q 1325.75 695.78 1326.24 691.20
  A 3.55 3.54 33.3 0 0 1325.80 689.08
  Q 1325.08 687.82 1324.90 685.97
  A 1.98 1.98 0.0 0 0 1324.25 684.70
  Q 1320.74 681.55 1316.97 681.24
  Q 1307.74 680.48 1304.70 679.83
  Q 1299.96 678.83 1297.76 678.34
  C 1292.43 677.17 1287.73 673.06 1287.02 667.55
  C 1286.28 661.79 1291.31 656.75 1296.65 655.20
  C 1300.64 654.04 1306.43 653.03 1311.62 653.03
  Q 1323.00 653.05 1329.37 651.81
  Q 1332.87 651.13 1336.31 647.13
  A 2.45 2.37 72.3 0 0 1336.85 646.04
  Q 1338.62 637.46 1342.99 631.68
  C 1351.74 620.09 1366.79 611.55 1381.50 610.07
  Q 1404.31 607.77 1424.12 619.87
  Q 1436.18 627.23 1443.32 638.17
  C 1448.66 646.35 1452.40 655.88 1453.30 665.71
  C 1454.10 674.56 1454.44 681.88 1451.95 689.98
  Q 1451.00 693.06 1448.43 699.65
  Q 1446.89 703.61 1446.88 709.51
  Q 1446.87 711.34 1444.59 722.57
  Q 1444.02 725.40 1437.27 738.31
  Q 1436.67 739.47 1435.63 745.09
  Q 1434.94 748.77 1434.88 752.00
  Q 1434.69 762.41 1435.12 764.78
  Q 1435.90 769.05 1437.14 772.42
  C 1439.01 777.52 1445.38 780.89 1450.33 782.99
  C 1468.78 790.80 1487.01 801.32 1504.09 811.18
  Q 1510.47 814.86 1519.05 821.96
  Q 1530.68 831.57 1536.00 847.39
  Z"
/>
</svg>
