<?xml version="1.0" encoding="UTF-8" standalone="no"?>
<!DOCTYPE svg PUBLIC "-//W3C//DTD SVG 1.1//EN" "http://www.w3.org/Graphics/SVG/1.1/DTD/svg11.dtd">
<svg xmlns="http://www.w3.org/2000/svg" version="1.1" viewBox="0.00 0.00 1024.00 1024.00">
<g stroke-width="2.00" fill="none" stroke-linecap="butt">
<path stroke="#813a1d" vector-effect="non-scaling-stroke" d="
  M 867.87 212.46
  A 0.33 0.33 0.0 0 0 867.74 211.83
  Q 867.50 211.82 863.80 211.75
  Q 854.93 211.59 806.50 208.92
  Q 670.79 201.43 481.75 190.21
  Q 474.49 189.78 456.51 188.99
  Q 447.32 188.59 438.29 191.05
  Q 347.43 215.82 256.19 240.96
  Q 206.10 254.76 188.88 259.90
  Q 186.73 260.54 185.30 261.26
  A 0.31 0.31 0.0 0 0 185.43 261.84
  Q 194.87 262.05 209.00 263.11
  C 287.14 268.96 361.45 273.84 434.49 279.29
  Q 585.42 290.54 613.75 292.75
  Q 616.48 292.96 617.98 292.01
  Q 625.29 287.38 632.77 285.03
  Q 664.40 275.08 708.63 261.62
  Q 754.72 247.60 867.23 212.75
  Q 867.33 212.72 867.87 212.46"
/>
<path stroke="#86837d" vector-effect="non-scaling-stroke" d="
  M 857.64 232.22
  Q 748.40 265.11 643.22 298.47
  C 636.96 300.46 631.08 302.35 625.81 305.56
  Q 612.45 313.69 606.90 329.36
  Q 596.94 357.46 603.89 387.89
  C 605.06 393.00 609.30 404.63 614.65 406.18
  A 2.62 2.58 47.5 0 0 615.84 406.24
  Q 623.50 404.84 632.11 401.87
  Q 746.78 362.31 861.20 322.24
  A 1.28 1.27 70.0 0 0 861.97 320.58
  C 853.12 297.40 852.39 271.57 855.27 246.86
  C 855.78 242.47 856.94 237.32 858.07 232.63
  A 0.34 0.34 0.0 0 0 857.64 232.22"
/>
<path stroke="#813a1d" vector-effect="non-scaling-stroke" d="
  M 603.89 302.54
  Q 601.27 302.53 589.50 301.74
  Q 567.06 300.24 460.48 292.52
  Q 329.00 283.00 217.75 274.94
  Q 202.42 273.83 179.56 271.99
  C 172.44 271.41 168.79 270.51 164.87 276.16
  Q 152.35 294.21 150.38 316.22
  C 148.70 334.96 151.14 354.66 159.68 371.58
  C 163.01 378.19 170.54 387.31 178.51 387.94
  Q 217.56 391.05 340.00 401.40
  Q 454.75 411.10 569.13 420.39
  C 582.22 421.45 594.07 422.85 605.40 423.14
  A 0.44 0.44 0.0 0 0 605.75 422.42
  C 597.23 412.51 592.25 402.03 589.28 389.16
  C 585.54 372.98 585.29 355.13 588.11 339.01
  C 590.36 326.16 595.73 313.19 604.09 302.97
  A 0.26 0.26 0.0 0 0 603.89 302.54"
/>
<path stroke="#6e2f18" vector-effect="non-scaling-stroke" d="
  M 627.77 418.96
  Q 626.73 418.93 625.04 419.69"
/>
<path stroke="#813a1d" vector-effect="non-scaling-stroke" d="
  M 625.04 419.69
  L 620.86 420.27
  A 0.39 0.39 0.0 0 0 620.76 421.02
  C 634.01 426.74 647.33 421.76 660.53 417.07
  Q 719.46 396.16 785.47 373.63
  Q 806.98 366.29 826.67 359.39
  Q 858.31 348.29 867.98 345.49
  Q 869.46 345.06 873.05 343.56
  C 876.06 342.30 876.65 338.14 876.41 335.30
  A 1.33 1.33 0.0 0 0 875.00 334.08
  Q 871.77 334.28 869.44 335.09
  Q 787.49 363.62 770.49 369.58
  Q 744.82 378.57 720.07 387.21
  Q 674.62 403.07 633.34 417.00
  Q 630.80 417.86 627.77 418.96"
/>
<path stroke="#db531f" vector-effect="non-scaling-stroke" d="
  M 625.04 419.69
  L 626.60 421.20
  A 1.62 1.62 0.0 0 0 627.48 421.64
  Q 635.29 423.00 642.44 421.43
  Q 642.90 421.32 648.70 419.70
  C 655.36 417.83 660.54 415.80 670.98 411.93
  C 683.11 407.43 698.67 402.33 710.35 398.13
  C 728.94 391.46 750.36 384.50 765.95 378.89
  C 779.83 373.89 797.67 368.32 808.80 364.31
  Q 843.45 351.84 872.03 342.71
  A 5.00 4.99 82.4 0 0 875.50 338.16
  L 875.51 338.05
  A 2.41 2.40 81.8 0 0 872.33 335.67
  Q 808.77 357.38 778.49 367.99
  Q 765.61 372.51 764.02 372.94
  C 760.68 373.86 757.63 375.45 754.02 376.71
  Q 749.65 378.25 731.02 384.50
  C 727.68 385.62 724.12 387.18 720.56 388.13
  C 716.37 389.26 711.36 391.64 708.04 392.76
  Q 681.59 401.67 658.47 409.90
  Q 656.95 410.44 632.72 418.71
  Q 629.39 419.84 627.77 418.96"
/>
<path stroke="#1b1d1e" vector-effect="non-scaling-stroke" d="
  M 651.45 552.22
  Q 642.93 537.69 641.17 521.07
  Q 639.04 500.99 643.04 481.27
  C 645.80 467.67 651.77 455.08 661.89 445.30
  C 667.39 439.99 674.41 437.01 681.49 434.72
  C 693.51 430.82 704.87 427.35 718.72 422.18
  C 738.70 414.72 758.12 408.90 777.87 401.52
  Q 799.58 393.39 849.70 375.96
  Q 870.51 368.73 886.51 363.74
  Q 893.23 361.64 898.11 358.43
  A 1.09 1.09 0.0 0 0 898.19 356.67
  C 894.86 353.98 888.57 354.69 884.75 355.75
  C 867.99 360.38 852.88 365.90 834.62 372.85
  C 818.70 378.92 797.21 385.75 781.21 391.51
  Q 742.46 405.45 720.68 413.02
  C 700.47 420.03 675.03 429.83 655.31 436.32
  Q 635.19 442.95 614.15 441.60
  Q 560.37 438.16 511.85 433.89
  Q 442.22 427.75 382.78 422.30
  C 364.04 420.58 352.42 420.10 334.24 418.12
  Q 328.13 417.46 307.10 415.80
  C 284.27 414.01 245.08 409.96 213.13 407.36
  Q 202.42 406.48 181.16 403.59
  Q 174.83 402.73 163.47 399.30
  C 161.19 398.61 158.55 398.11 156.85 399.61
  C 147.41 408.00 141.64 421.03 138.69 433.66
  Q 132.76 459.03 139.27 484.54
  Q 141.65 493.84 147.40 500.66
  A 1.53 1.53 0.0 0 0 148.26 501.18
  C 156.29 502.95 164.56 503.03 172.26 504.20
  A 0.31 0.31 0.0 0 0 172.59 503.76
  C 160.87 478.02 158.92 446.72 170.32 420.33
  Q 171.22 418.24 173.25 416.07
  C 175.60 413.58 178.31 415.25 180.78 416.63
  A 0.99 0.99 0.0 0 1 181.29 417.46
  Q 181.46 420.75 180.60 422.56
  C 171.84 441.14 171.09 463.24 175.68 482.88
  C 177.68 491.42 180.58 497.70 184.73 504.90
  A 0.81 0.81 0.0 0 0 185.33 505.30
  Q 234.35 510.65 242.90 511.27
  C 262.27 512.67 277.28 514.64 295.99 516.50
  Q 345.75 521.44 396.82 526.68
  C 404.93 527.51 415.18 528.21 423.13 529.14
  C 445.82 531.77 467.85 534.38 488.30 536.27
  Q 499.32 537.29 522.58 539.91
  Q 542.76 542.19 610.86 548.76
  C 612.72 548.94 614.46 548.79 617.05 548.68
  A 0.34 0.33 -14.8 0 0 617.34 548.20
  Q 612.79 538.90 610.85 531.68
  Q 603.85 505.65 609.34 477.54
  Q 611.45 466.76 617.34 457.09
  Q 618.89 454.54 622.30 454.16
  A 1.76 1.73 -34.7 0 1 623.23 454.32
  Q 628.32 456.80 625.77 461.71
  C 617.34 477.93 615.62 498.22 617.93 516.37
  Q 619.43 528.09 621.67 533.55
  C 623.78 538.68 626.57 543.87 627.44 549.44
  A 0.68 0.68 0.0 0 0 628.03 550.01
  L 651.11 552.73
  A 0.34 0.34 0.0 0 0 651.45 552.22"
/>
<path stroke="#86837d" vector-effect="non-scaling-stroke" d="
  M 881.41 380.26
  C 818.25 401.89 743.27 428.61 683.06 450.64
  C 670.57 455.21 664.11 466.09 660.40 478.33
  Q 652.86 503.23 657.85 528.63
  Q 659.48 536.90 664.50 543.96
  C 669.43 550.89 677.13 547.52 684.06 544.79
  Q 734.66 524.84 885.35 465.81
  A 1.05 1.05 0.0 0 0 885.94 464.43
  Q 879.83 449.81 878.27 434.25
  Q 875.55 407.14 881.67 380.49
  A 0.20 0.20 0.0 0 0 881.41 380.26"
/>
<path stroke="#1b1d1e" vector-effect="non-scaling-stroke" d="
  M 674.90 564.16
  Q 680.95 567.72 687.76 566.55
  C 696.00 565.15 701.34 563.13 709.64 560.27
  C 718.62 557.16 727.97 552.99 735.12 550.41
  C 746.67 546.25 757.88 540.92 770.28 536.29
  Q 778.87 533.07 790.60 528.34
  Q 821.61 515.84 847.52 505.52
  C 860.83 500.23 870.08 496.14 883.07 490.70
  C 886.80 489.13 892.66 487.15 897.01 484.92
  Q 901.22 482.75 899.98 477.46
  A 0.78 0.77 -6.3 0 0 899.24 476.87
  Q 895.68 476.81 892.24 478.03
  Q 880.43 482.25 871.65 485.99
  C 856.91 492.28 839.21 498.43 825.20 504.40
  C 818.36 507.32 811.21 509.56 805.09 512.22
  Q 799.86 514.50 791.90 517.45
  Q 782.16 521.05 778.61 522.48
  Q 769.39 526.19 768.02 526.75
  Q 744.01 536.58 743.44 536.83
  Q 739.06 538.69 733.24 540.69
  C 728.61 542.28 722.39 545.20 716.91 547.20
  Q 711.23 549.26 710.66 549.54
  Q 705.58 552.03 701.38 553.25
  Q 700.50 553.51 687.29 558.79
  Q 680.85 561.36 674.98 563.39
  A 0.43 0.43 0.0 0 0 674.90 564.16"
/>
<path stroke="#826421" vector-effect="non-scaling-stroke" d="
  M 673.59 595.05
  C 679.98 591.96 686.32 589.97 694.07 586.92
  Q 704.51 582.81 720.14 576.33
  Q 778.46 552.19 821.12 534.65
  Q 842.02 526.06 864.76 516.23
  Q 880.09 509.61 887.58 505.58
  Q 889.16 504.73 890.08 503.15
  A 0.38 0.38 0.0 0 0 889.60 502.61
  Q 883.19 505.36 876.34 508.19
  Q 786.00 545.54 724.17 570.36
  Q 707.85 576.91 685.83 585.36
  Q 678.14 588.31 673.22 594.59
  A 0.30 0.30 0.0 0 0 673.59 595.05"
/>
<path stroke="#826421" vector-effect="non-scaling-stroke" d="
  M 664.63 581.13
  Q 437.73 557.84 172.00 528.95
  C 165.94 528.29 159.83 527.30 155.60 530.62
  Q 153.09 532.60 150.17 536.94
  C 137.88 555.23 136.08 580.26 138.62 601.84
  C 140.46 617.46 146.53 633.86 158.80 644.27
  C 161.94 646.93 166.14 648.38 169.72 648.66
  Q 195.26 650.66 219.25 653.53
  Q 420.65 677.58 463.90 683.03
  Q 465.86 683.28 489.49 686.12
  Q 649.73 705.40 660.75 706.78
  A 0.23 0.23 0.0 0 0 660.93 706.37
  Q 658.71 704.55 656.92 702.34
  Q 647.19 690.28 643.82 674.70
  Q 636.70 641.69 647.24 610.90
  C 650.97 599.98 656.88 588.94 664.76 581.51
  A 0.22 0.22 0.0 0 0 664.63 581.13"
/>
<path stroke="#86837d" vector-effect="non-scaling-stroke" d="
  M 872.37 529.82
  Q 869.91 530.73 809.11 556.51
  C 768.37 573.78 726.01 591.16 686.26 607.78
  Q 679.83 610.47 666.07 614.18
  Q 663.17 614.96 661.95 616.96
  Q 660.05 620.06 658.82 625.08
  Q 653.49 646.81 657.28 667.45
  C 658.91 676.33 663.93 692.74 674.96 692.96
  C 679.11 693.04 685.43 689.88 688.68 688.42
  Q 764.37 654.43 874.60 604.23
  A 0.86 0.84 -21.5 0 0 875.06 603.19
  Q 869.91 587.62 869.40 571.67
  C 868.98 558.40 869.88 543.68 872.87 530.26
  A 0.38 0.38 0.0 0 0 872.37 529.82"
/>
<path stroke="#826421" vector-effect="non-scaling-stroke" d="
  M 680.25 707.95
  Q 688.35 711.67 697.18 709.13
  Q 713.20 704.52 731.59 696.10
  Q 783.91 672.13 835.96 647.70
  C 850.54 640.86 863.50 635.23 876.84 628.58
  Q 885.47 624.28 891.55 620.31
  Q 893.59 618.98 894.42 616.79
  A 1.97 1.72 -73.6 0 0 893.24 614.22
  Q 892.01 613.99 890.14 614.64
  Q 883.16 617.06 879.02 619.00
  Q 862.47 626.74 846.31 634.05
  C 780.61 663.75 748.95 677.80 720.89 690.75
  Q 705.26 697.97 693.11 703.01
  C 688.74 704.82 684.71 705.89 680.30 707.23
  A 0.39 0.39 0.0 0 0 680.25 707.95"
/>
<path stroke="#142536" vector-effect="non-scaling-stroke" d="
  M 690.73 735.75
  Q 696.40 734.02 700.76 732.00
  C 726.18 720.28 751.06 708.51 773.02 698.72
  Q 824.47 675.77 856.98 660.75
  Q 859.85 659.42 880.08 650.52
  C 884.58 648.54 888.01 646.37 891.87 644.10
  Q 893.52 643.13 893.92 641.08
  A 1.04 1.04 0.0 0 0 892.66 639.87
  Q 890.55 640.36 890.40 640.42
  C 874.25 646.34 860.08 652.05 842.80 660.18
  Q 816.22 672.69 787.84 685.80
  C 765.47 696.13 748.77 704.30 724.83 715.27
  Q 716.16 719.24 713.33 720.25
  C 706.03 722.87 693.14 727.22 690.09 735.05
  A 0.53 0.52 -87.7 0 0 690.73 735.75"
/>
<path stroke="#142536" vector-effect="non-scaling-stroke" d="
  M 672.08 850.55
  Q 661.40 833.70 659.07 813.47
  Q 656.45 790.78 660.58 768.78
  C 662.81 756.90 666.84 745.27 672.82 734.98
  Q 676.17 729.20 677.55 726.51
  A 0.83 0.83 0.0 0 0 676.92 725.31
  Q 644.74 721.17 602.52 716.23
  C 590.57 714.83 575.45 712.69 561.50 711.08
  Q 511.62 705.31 459.75 699.11
  Q 398.68 691.79 337.77 684.17
  Q 276.64 676.52 245.95 672.93
  Q 171.17 664.21 154.09 662.12
  C 150.02 661.62 146.43 660.85 142.74 660.81
  A 3.19 3.17 18.1 0 0 140.09 662.14
  C 127.28 680.11 123.38 700.14 123.97 722.16
  Q 124.38 737.21 128.29 750.08
  Q 130.96 758.88 134.22 764.05
  C 137.92 769.92 141.69 775.03 147.82 776.94
  Q 154.96 779.17 163.13 780.13
  Q 166.34 780.51 185.23 783.53
  Q 198.41 785.64 210.54 787.23
  Q 225.58 789.20 235.91 790.75
  Q 255.20 793.64 282.75 797.56
  Q 285.67 797.98 359.76 808.73
  Q 389.87 813.10 393.25 813.63
  Q 400.98 814.83 409.91 815.96
  Q 420.49 817.29 426.56 818.31
  Q 443.54 821.15 459.82 823.29
  Q 476.02 825.42 493.13 827.97
  Q 575.16 840.18 591.85 842.62
  C 601.47 844.03 610.54 845.10 619.73 846.62
  C 631.79 848.61 644.27 849.76 656.00 850.66
  Q 664.01 851.27 671.73 851.19
  A 0.42 0.42 0.0 0 0 672.08 850.55"
/>
<path stroke="#86837d" vector-effect="non-scaling-stroke" d="
  M 876.78 668.58
  A 0.36 0.36 0.0 0 0 876.28 668.17
  Q 780.59 711.47 704.53 746.52
  C 697.80 749.63 689.32 753.67 681.20 753.72
  A 0.88 0.87 9.1 0 0 680.39 754.30
  Q 672.40 776.70 672.75 799.32
  Q 672.86 805.97 673.31 811.71
  C 673.81 817.98 677.04 835.64 686.03 835.99
  Q 691.45 836.20 696.92 833.45
  Q 765.24 799.12 877.93 743.30
  A 1.18 1.18 0.0 0 0 878.52 741.84
  Q 876.75 737.03 875.71 731.57
  Q 872.63 715.35 873.30 698.75
  C 873.76 687.47 874.59 677.58 876.78 668.58"
/>
<path stroke="#142536" vector-effect="non-scaling-stroke" d="
  M 689.64 851.50
  A 0.48 0.48 0.0 0 0 689.44 852.36
  C 700.07 860.28 722.27 848.45 732.15 843.39
  Q 791.48 813.06 857.73 778.42
  Q 886.27 763.50 892.70 759.91
  A 6.41 6.40 -8.8 0 0 895.85 755.61
  L 896.11 754.33
  A 1.98 1.98 0.0 0 0 893.34 752.14
  Q 860.19 767.61 842.77 776.28
  Q 758.92 818.05 716.44 840.16
  Q 704.26 846.50 697.45 848.89
  Q 690.58 851.31 689.64 851.50"
/>
<path stroke="#ece3d6" vector-effect="non-scaling-stroke" d="
  M 603.50 363.09
  A 0.19 0.19 0.0 0 0 603.87 363.08
  Q 605.14 345.11 616.69 331.43
  Q 620.51 326.90 624.54 324.29
  Q 633.71 318.35 643.44 315.20
  Q 717.19 291.32 801.75 264.79
  Q 832.06 255.29 851.51 250.02
  A 3.28 3.26 87.5 0 0 853.88 247.42
  L 855.97 235.33
  A 0.89 0.88 -3.6 0 0 854.84 234.34
  Q 796.97 251.76 732.43 271.76
  Q 680.23 287.94 664.40 292.98
  Q 659.31 294.60 652.03 297.03
  C 647.22 298.63 638.02 300.99 631.57 303.85
  Q 617.14 310.25 610.39 324.84
  C 606.87 332.46 604.79 339.32 604.11 347.00
  Q 603.95 348.77 603.51 351.99
  Q 602.74 357.55 603.50 363.09"
/>
<path stroke="#813a1d" vector-effect="non-scaling-stroke" d="
  M 170.47 332.71
  C 170.80 349.27 174.53 365.01 183.05 379.79
  A 3.77 3.77 0.0 0 0 188.59 380.91
  L 188.79 380.76
  A 5.13 5.13 0.0 0 0 190.26 374.36
  C 183.55 361.14 180.13 346.97 179.83 332.52
  C 179.54 318.06 182.38 303.76 188.54 290.28
  A 5.13 5.13 0.0 0 0 186.81 283.95
  L 186.60 283.81
  A 3.77 3.77 0.0 0 0 181.11 285.15
  C 173.20 300.27 170.13 316.14 170.47 332.71"
/>
<path stroke="#813a1d" vector-effect="non-scaling-stroke" d="
  M 553.28 363.51
  C 553.48 378.30 555.93 392.12 561.92 405.35
  Q 563.47 408.77 564.97 410.62
  A 1.91 1.86 80.7 0 0 565.73 411.18
  C 569.92 412.82 572.71 407.90 571.40 404.45
  Q 568.56 396.95 567.73 394.52
  C 564.50 385.08 562.99 374.38 562.84 363.38
  C 562.69 352.37 563.91 341.64 566.89 332.12
  Q 567.65 329.66 570.28 322.09
  C 571.50 318.60 568.58 313.76 564.43 315.52
  A 1.91 1.86 -82.2 0 0 563.69 316.10
  Q 562.24 317.99 560.78 321.44
  C 555.16 334.83 553.08 348.72 553.28 363.51"
/>
<path stroke="#db531f" vector-effect="non-scaling-stroke" d="
  M 164.77 376.92
  C 167.50 380.20 170.36 384.59 174.91 385.85
  Q 180.48 387.39 185.69 387.37
  C 191.24 387.34 194.33 387.97 200.02 388.11
  A 9.01 8.89 52.8 0 1 202.03 388.40
  C 207.29 389.80 211.79 389.03 217.12 389.73
  Q 220.17 390.14 224.67 390.10
  A 3.40 3.09 47.8 0 1 225.29 390.16
  L 232.02 391.39
  A 0.55 0.37 37.5 0 0 232.19 391.40
  Q 236.96 391.20 239.63 391.54
  C 245.03 392.24 249.07 391.78 254.26 392.95
  A 8.23 7.61 -35.1 0 0 255.75 393.15
  Q 273.39 393.86 275.54 394.27
  Q 280.92 395.29 285.50 395.30
  C 289.62 395.30 291.95 395.88 296.34 396.00
  C 299.12 396.07 302.17 396.69 304.71 397.21
  A 7.06 6.78 49.2 0 0 306.32 397.36
  C 311.19 397.27 314.71 398.05 319.31 398.05
  Q 322.66 398.06 327.57 399.19
  A 8.93 8.67 49.7 0 0 329.85 399.41
  Q 335.56 399.21 337.52 399.53
  C 341.85 400.23 346.73 399.68 351.67 400.96
  A 11.00 10.95 -37.0 0 0 354.13 401.30
  Q 366.16 401.59 376.14 402.85
  C 379.55 403.28 383.71 402.91 386.24 403.64
  A 6.48 6.24 -36.2 0 0 387.94 403.87
  Q 393.56 403.82 398.94 405.16
  A 6.91 6.88 50.7 0 0 400.99 405.37
  C 405.83 405.14 408.89 405.90 413.89 406.05
  Q 417.95 406.18 422.85 407.31
  A 2.33 1.94 25.2 0 0 423.17 407.35
  L 441.77 408.12
  A 4.37 4.30 -34.1 0 1 443.07 408.36
  Q 446.10 409.43 449.49 409.38
  C 454.31 409.31 458.78 410.17 462.98 410.08
  A 7.25 7.08 -39.3 0 1 464.58 410.22
  Q 470.58 411.43 474.83 411.30
  Q 478.30 411.20 481.57 411.75
  Q 482.81 411.96 488.34 412.10
  A 8.52 8.49 -38.0 0 1 489.98 412.30
  Q 495.23 413.47 496.25 413.39
  Q 499.52 413.13 506.80 413.91
  Q 510.58 414.31 512.60 414.19
  A 7.06 6.87 49.5 0 1 514.66 414.38
  Q 519.56 415.58 525.90 415.34
  A 0.53 0.48 47.9 0 1 526.00 415.35
  L 538.14 416.29
  A 3.55 2.94 -21.7 0 1 538.61 416.36
  L 543.49 417.43
  A 0.87 0.78 48.2 0 0 543.67 417.45
  Q 549.41 417.23 551.68 417.57
  Q 555.43 418.13 557.98 418.11
  Q 561.43 418.08 566.97 419.16
  A 9.06 8.84 49.5 0 0 568.60 419.31
  Q 579.39 419.26 590.11 421.24
  A 7.90 7.78 47.7 0 0 592.08 421.35
  Q 597.14 420.98 601.40 422.05
  A 1.15 1.15 0.0 0 0 602.62 420.28
  L 598.45 414.31
  A 5.11 5.10 -15.0 0 0 594.69 412.15
  L 572.53 410.30
  A 1.29 1.25 30.2 0 0 571.76 410.49
  L 568.95 412.27
  A 1.48 1.45 27.1 0 1 568.25 412.49
  C 565.26 412.64 564.52 411.86 562.82 410.06
  A 1.15 1.14 -19.6 0 0 562.12 409.73
  L 193.10 378.91
  A 2.61 2.61 0.0 0 0 190.69 380.10
  C 187.61 384.87 183.32 383.07 181.21 379.03
  C 180.33 377.35 178.59 377.99 177.02 377.70
  Q 170.78 376.53 165.15 376.17
  A 0.46 0.46 0.0 0 0 164.77 376.92"
/>
<path stroke="#ece3d6" vector-effect="non-scaling-stroke" d="
  M 659.26 503.58
  Q 659.26 503.55 659.11 501.43
  A 10.64 10.56 54.1 0 1 659.85 496.69
  Q 662.35 490.54 664.98 485.73
  C 668.42 479.45 674.09 475.07 679.98 471.34
  Q 683.88 468.87 692.13 465.63
  Q 724.87 452.76 727.87 451.63
  Q 748.72 443.75 851.91 406.63
  Q 857.13 404.75 875.46 399.03
  A 1.81 1.73 -77.2 0 0 876.29 398.48
  Q 877.23 397.36 877.61 395.13
  Q 878.84 387.85 879.15 385.23
  Q 879.25 384.34 879.23 384.27
  A 1.79 1.78 73.4 0 0 876.91 383.01
  Q 838.67 396.45 813.89 405.15
  Q 746.80 428.70 683.73 451.75
  Q 673.27 455.58 667.73 464.99
  Q 657.93 481.62 658.50 502.00
  Q 658.52 502.57 658.63 503.57
  A 0.32 0.32 0.0 0 0 659.26 503.58"
/>
<path stroke="#e0a423" vector-effect="non-scaling-stroke" d="
  M 757.61 558.83
  Q 757.20 558.75 757.12 558.76
  A 0.27 0.25 -50.6 0 0 757.15 559.27
  Q 757.41 559.24 757.66 559.03
  A 0.11 0.11 0.0 0 0 757.61 558.83"
/>
<path stroke="#e0a423" vector-effect="non-scaling-stroke" d="
  M 755.2567 559.7632
  A 1.09 0.27 -18.0 0 0 754.1366 559.8432
  A 1.09 0.27 -18.0 0 0 753.1833 560.4368
  A 1.09 0.27 -18.0 0 0 754.3034 560.3568
  A 1.09 0.27 -18.0 0 0 755.2567 559.7632"
/>
<path stroke="#e0a423" vector-effect="non-scaling-stroke" d="
  M 753.0119 560.6509
  A 0.70 0.20 -23.5 0 0 752.2903 560.7466
  A 0.70 0.20 -23.5 0 0 751.7281 561.2091
  A 0.70 0.20 -23.5 0 0 752.4497 561.1134
  A 0.70 0.20 -23.5 0 0 753.0119 560.6509"
/>
<path stroke="#e0a423" vector-effect="non-scaling-stroke" d="
  M 749.77 562.36
  Q 749.99 562.37 750.40 562.02
  A 0.21 0.20 23.0 0 0 750.25 561.66
  Q 750.07 561.67 749.66 561.89
  A 0.25 0.25 0.0 0 0 749.77 562.36"
/>
<path stroke="#e0a423" vector-effect="non-scaling-stroke" d="
  M 726.2723 571.7880
  A 0.68 0.22 -16.4 0 0 725.5579 571.7690
  A 0.68 0.22 -16.4 0 0 724.9677 572.1720
  A 0.68 0.22 -16.4 0 0 725.6821 572.1910
  A 0.68 0.22 -16.4 0 0 726.2723 571.7880"
/>
<path stroke="#dc7d23" vector-effect="non-scaling-stroke" d="
  M 721.22 573.75
  Q 720.99 573.77 720.94 573.87
  A 0.09 0.09 0.0 0 0 721.03 573.99
  L 721.34 573.98
  A 0.15 0.10 28.4 0 0 721.22 573.75"
/>
<path stroke="#e0a423" vector-effect="non-scaling-stroke" d="
  M 718.9499 574.6901
  A 2.13 0.27 -20.9 0 0 716.8637 575.1978
  A 2.13 0.27 -20.9 0 0 714.9701 576.2099
  A 2.13 0.27 -20.9 0 0 717.0563 575.7022
  A 2.13 0.27 -20.9 0 0 718.9499 574.6901"
/>
<path stroke="#e0a423" vector-effect="non-scaling-stroke" d="
  M 710.9851 577.8091
  A 0.54 0.21 -20.7 0 0 710.4058 577.8036
  A 0.54 0.21 -20.7 0 0 709.9749 578.1909
  A 0.54 0.21 -20.7 0 0 710.5542 578.1964
  A 0.54 0.21 -20.7 0 0 710.9851 577.8091"
/>
<path stroke="#dc7d23" vector-effect="non-scaling-stroke" d="
  M 707.86 579.35
  Q 708.04 579.34 708.78 579.00
  A 0.16 0.16 0.0 0 0 708.70 578.70
  Q 707.92 578.77 707.72 578.90
  A 0.25 0.24 27.9 0 0 707.86 579.35"
/>
<path stroke="#dc7d23" vector-effect="non-scaling-stroke" d="
  M 706.4464 579.7449
  A 0.77 0.24 -17.0 0 0 705.6398 579.7405
  A 0.77 0.24 -17.0 0 0 704.9736 580.1951
  A 0.77 0.24 -17.0 0 0 705.7802 580.1995
  A 0.77 0.24 -17.0 0 0 706.4464 579.7449"
/>
<path stroke="#e0a423" vector-effect="non-scaling-stroke" d="
  M 704.0143 580.6828
  A 2.77 0.27 -21.1 0 0 701.3328 581.4281
  A 2.77 0.27 -21.1 0 0 698.8457 582.6772
  A 2.77 0.27 -21.1 0 0 701.5272 581.9319
  A 2.77 0.27 -21.1 0 0 704.0143 580.6828"
/>
<path stroke="#826421" vector-effect="non-scaling-stroke" d="
  M 163.28 593.64
  C 163.65 609.41 166.84 625.41 174.07 639.37
  C 175.77 642.64 179.26 644.94 182.07 641.76
  C 183.33 640.32 183.41 637.79 182.63 636.20
  C 176.08 622.80 173.27 608.23 172.91 593.41
  C 172.56 578.60 174.67 563.91 180.58 550.21
  C 181.28 548.59 181.07 546.06 179.75 544.68
  C 176.79 541.64 173.41 544.11 171.87 547.46
  C 165.32 561.75 162.90 577.87 163.28 593.64"
/>
<path stroke="#826421" vector-effect="non-scaling-stroke" d="
  M 608.08 643.22
  C 608.18 659.26 610.77 676.28 617.99 690.25
  Q 619.08 692.36 620.60 693.56
  A 3.52 3.20 -39.5 0 0 624.34 693.74
  C 628.19 691.56 627.00 687.97 625.48 684.23
  C 620.11 670.98 617.92 657.65 617.83 643.16
  C 617.74 628.67 619.77 615.32 624.98 602.00
  C 626.45 598.25 627.59 594.64 623.72 592.51
  A 3.52 3.20 38.8 0 0 619.98 592.74
  Q 618.47 593.96 617.41 596.08
  C 610.36 610.14 607.98 627.19 608.08 643.22"
/>
<path stroke="#e0a423" vector-effect="non-scaling-stroke" d="
  M 648.30 692.63
  Q 637.97 692.63 628.92 689.76
  A 0.60 0.60 0.0 0 0 628.16 690.15
  C 627.10 693.55 623.77 696.57 620.08 694.51
  Q 618.90 693.85 616.32 690.25
  A 0.95 0.95 0.0 0 0 615.43 689.86
  C 614.73 689.96 614.14 690.15 613.30 690.07
  Q 604.00 689.10 592.50 687.65
  Q 555.09 682.91 525.03 679.30
  Q 469.78 672.67 459.27 671.31
  Q 431.18 667.68 400.01 664.08
  Q 383.60 662.19 343.75 657.25
  Q 339.39 656.71 333.77 656.38
  C 326.21 655.94 319.69 655.25 308.88 653.83
  Q 244.87 645.46 185.74 639.75
  A 1.79 1.78 21.0 0 0 184.13 640.46
  C 182.27 642.96 181.08 645.18 177.69 644.28
  C 175.09 643.59 173.20 640.52 171.72 637.96
  A 0.48 0.46 -11.4 0 0 171.34 637.72
  L 154.05 636.03
  A 0.53 0.53 0.0 0 0 153.59 636.89
  C 157.32 641.48 161.38 646.07 167.75 646.93
  Q 174.31 647.81 176.07 647.85
  Q 181.41 648.00 184.41 648.45
  C 191.42 649.50 199.80 649.76 207.98 650.83
  Q 213.33 651.53 219.56 651.93
  C 221.95 652.08 225.03 653.17 226.75 653.21
  C 233.00 653.37 241.85 655.40 247.77 655.65
  C 253.89 655.92 259.23 657.15 265.75 657.73
  Q 274.36 658.49 285.81 660.08
  Q 295.68 661.44 297.26 661.60
  Q 305.58 662.40 308.73 663.01
  C 312.40 663.72 317.29 663.62 320.91 664.30
  Q 327.16 665.47 330.00 665.57
  Q 330.57 665.59 350.71 667.76
  C 356.84 668.42 362.39 669.54 368.81 670.02
  C 371.51 670.22 375.23 671.15 377.50 671.27
  C 384.45 671.65 390.72 672.80 397.17 673.52
  Q 411.88 675.15 414.45 675.48
  Q 416.90 675.79 419.22 676.11
  Q 426.56 677.10 433.89 677.82
  Q 438.23 678.24 440.83 678.74
  C 446.54 679.85 451.87 679.82 458.17 680.85
  C 463.27 681.68 468.37 681.74 473.76 682.67
  C 479.18 683.60 484.49 683.70 490.59 684.78
  C 494.53 685.47 499.03 685.61 503.31 686.38
  C 506.58 686.97 508.62 687.37 511.99 687.59
  Q 517.77 687.97 520.86 688.56
  Q 525.97 689.54 529.70 689.60
  C 533.24 689.67 539.03 690.88 544.00 691.35
  C 547.09 691.64 551.43 692.01 555.00 692.64
  C 560.88 693.67 566.45 693.84 572.33 694.81
  C 577.04 695.59 583.67 695.65 589.08 696.79
  Q 591.81 697.37 595.73 697.60
  Q 598.60 697.76 605.71 698.78
  Q 609.56 699.32 616.53 699.93
  C 620.12 700.24 623.31 701.27 626.44 701.42
  Q 630.02 701.59 633.92 702.14
  Q 643.76 703.52 650.87 704.02
  A 5.03 4.94 55.0 0 1 651.95 704.22
  Q 653.86 704.80 656.25 705.01
  A 0.53 0.53 0.0 0 0 656.73 704.18
  L 648.86 692.93
  A 0.67 0.67 0.0 0 0 648.30 692.63"
/>
<path stroke="#ece3d6" vector-effect="non-scaling-stroke" d="
  M 658.00 652.41
  Q 659.39 645.47 660.50 642.88
  C 664.22 634.15 672.90 629.54 681.33 626.05
  Q 722.35 609.10 751.72 596.86
  C 779.40 585.33 804.69 575.60 827.75 565.44
  Q 850.59 555.38 867.22 549.26
  A 2.70 2.68 83.3 0 0 868.96 547.04
  L 870.67 532.53
  A 0.43 0.43 0.0 0 0 870.07 532.08
  Q 854.13 538.70 833.14 547.67
  Q 784.24 568.54 738.46 587.35
  C 721.27 594.41 699.96 603.61 682.18 610.65
  Q 676.99 612.70 667.25 615.03
  C 665.71 615.40 663.59 616.46 662.85 617.85
  C 660.28 622.67 659.52 628.97 658.19 633.67
  A 3.97 3.82 52.0 0 0 658.06 634.94
  Q 658.32 639.48 657.51 642.25
  A 1.62 1.40 -40.9 0 0 657.45 642.67
  L 657.19 652.58
  A 0.12 0.12 0.0 0 0 657.30 652.70
  L 657.56 652.74
  A 0.41 0.40 -81.5 0 0 658.00 652.41"
/>
<path stroke="#e0a423" vector-effect="non-scaling-stroke" d="
  M 684.34 707.80
  Q 688.39 709.58 692.56 708.80
  Q 697.68 707.85 704.42 705.63
  Q 714.53 702.30 728.48 695.90
  Q 744.27 688.66 759.91 681.56
  Q 776.31 674.11 862.22 634.23
  Q 876.05 627.81 888.44 620.95
  C 890.43 619.86 893.19 617.97 892.89 615.99
  A 0.80 0.80 0.0 0 0 891.86 615.35
  Q 885.88 617.21 880.46 619.71
  Q 836.22 640.09 784.83 663.02
  C 780.83 664.80 775.74 667.41 771.06 669.37
  Q 765.61 671.66 760.64 673.90
  Q 730.74 687.39 712.56 695.82
  Q 701.13 701.12 691.22 705.20
  Q 687.89 706.56 684.46 706.98
  A 0.43 0.43 0.0 0 0 684.34 707.80"
/>
<path stroke="#142536" vector-effect="non-scaling-stroke" d="
  M 167.79 773.78
  A 4.77 4.77 0.0 0 0 170.39 767.58
  Q 165.77 756.14 164.30 750.26
  Q 162.52 743.13 161.95 734.77
  Q 160.85 718.75 162.35 706.01
  C 163.33 697.65 165.68 690.08 168.73 682.75
  C 170.30 679.01 170.39 675.88 166.94 673.61
  A 2.15 2.13 -25.4 0 0 165.95 673.26
  Q 162.45 672.90 160.76 676.02
  Q 158.03 681.06 156.17 687.70
  Q 147.22 719.52 154.94 752.80
  Q 156.85 761.07 161.40 771.56
  A 4.57 4.57 0.0 0 0 167.34 773.96
  L 167.79 773.78"
/>
<path stroke="#142536" vector-effect="non-scaling-stroke" d="
  M 644.64 836.55
  Q 644.86 833.60 643.76 830.99
  C 638.13 817.61 636.40 801.46 636.84 786.99
  Q 637.39 768.46 641.28 755.87
  Q 642.54 751.80 643.31 750.13
  C 644.90 746.71 647.13 742.48 646.07 739.42
  C 644.82 735.80 639.62 734.21 637.46 738.47
  Q 630.51 752.18 628.34 767.78
  C 625.50 788.24 626.42 810.89 633.04 830.69
  C 634.01 833.61 636.35 839.22 639.61 839.65
  Q 642.46 840.03 644.29 837.53
  A 1.85 1.83 -25.7 0 0 644.64 836.55"
/>
<path stroke="#ece3d6" vector-effect="non-scaling-stroke" d="
  M 874.58 671.72
  A 0.89 0.89 0.0 0 0 873.33 670.78
  Q 854.38 679.53 830.05 690.56
  Q 769.41 718.04 704.61 747.85
  C 697.84 750.96 689.92 754.56 682.29 754.99
  A 1.37 1.35 -81.9 0 0 681.08 755.91
  Q 675.93 770.89 674.86 785.91
  A 0.36 0.35 60.7 0 0 675.53 786.10
  C 677.53 782.19 679.49 778.21 682.61 775.02
  A 6.38 6.36 6.4 0 1 683.83 774.05
  Q 689.63 770.50 694.76 767.99
  Q 704.58 763.18 724.14 754.15
  Q 757.54 738.72 791.55 723.07
  C 806.66 716.11 824.06 708.71 841.20 700.95
  Q 855.54 694.46 869.44 689.15
  C 871.45 688.38 872.20 687.30 872.58 685.38
  Q 872.63 685.13 874.58 671.72"
/>
</g>
<path fill="#141616" d="
  M 134.42 643.34
  Q 122.32 625.04 119.52 602.74
  Q 118.48 594.51 118.21 589.25
  C 117.81 581.27 118.58 573.64 119.56 566.62
  Q 122.13 548.18 131.23 532.05
  C 133.73 527.61 137.07 523.28 140.81 518.99
  A 0.57 0.57 0.0 0 0 140.77 518.21
  C 138.91 516.41 136.07 514.61 133.99 512.03
  Q 127.62 504.10 124.17 495.35
  Q 116.92 476.93 117.12 456.85
  Q 117.24 445.37 119.88 432.76
  C 122.89 418.32 128.96 403.42 138.98 392.45
  C 141.34 389.87 144.52 387.91 147.15 385.82
  A 0.69 0.68 -36.5 0 0 147.29 384.89
  C 136.31 368.99 131.76 349.55 131.15 330.25
  Q 130.41 307.17 138.19 286.18
  Q 142.82 273.68 152.08 262.58
  Q 161.83 250.89 177.46 246.60
  Q 186.82 244.03 257.72 224.56
  Q 394.79 186.92 429.51 177.29
  Q 438.02 174.93 443.47 174.12
  Q 450.41 173.09 457.76 173.49
  Q 465.48 173.91 468.41 174.02
  Q 475.18 174.27 477.57 174.62
  C 482.32 175.32 488.74 174.89 494.26 175.59
  Q 496.66 175.90 501.77 175.97
  Q 506.23 176.03 512.75 176.70
  C 517.61 177.20 522.25 176.89 527.44 177.45
  C 533.53 178.11 539.62 177.84 545.94 178.70
  Q 547.89 178.96 553.37 179.01
  Q 558.10 179.05 563.61 179.68
  C 568.01 180.19 572.24 179.89 577.31 180.47
  C 582.68 181.10 588.85 180.87 593.90 181.36
  C 600.56 182.01 606.28 181.81 613.12 182.57
  C 619.24 183.25 626.88 182.97 632.73 183.66
  C 637.55 184.24 642.11 183.82 647.39 184.42
  Q 652.34 184.98 657.64 185.02
  C 663.46 185.07 668.17 185.94 674.33 185.96
  Q 677.10 185.97 684.64 186.73
  C 688.38 187.11 693.30 187.00 698.42 187.40
  Q 715.05 188.68 726.24 189.06
  C 733.05 189.29 737.71 189.98 744.27 190.07
  Q 747.92 190.12 754.25 190.82
  C 758.57 191.29 762.95 190.92 767.57 191.52
  C 774.34 192.39 782.44 191.90 789.91 192.70
  C 795.33 193.28 800.53 192.97 807.02 193.49
  Q 814.12 194.06 822.42 194.13
  A 3.91 3.83 52.7 0 1 823.52 194.29
  C 826.34 195.09 830.21 194.97 834.58 195.01
  Q 836.90 195.03 843.89 195.61
  Q 849.06 196.05 856.53 196.11
  C 859.13 196.13 862.36 196.83 865.18 196.86
  C 871.07 196.92 876.75 197.33 882.02 198.92
  C 887.65 200.63 891.11 204.97 891.58 210.89
  Q 892.12 217.74 887.60 221.86
  Q 883.54 225.56 877.80 227.14
  A 3.54 3.54 0.0 0 0 875.36 229.49
  C 871.53 241.65 869.89 255.28 869.53 268.51
  Q 869.09 284.48 871.90 300.34
  Q 873.31 308.32 876.35 315.60
  A 3.78 3.77 -3.0 0 0 878.76 317.76
  C 885.13 319.64 890.51 321.79 892.53 328.96
  C 893.50 332.43 894.31 335.93 893.42 339.19
  Q 892.96 340.88 893.16 342.15
  A 0.88 0.88 0.0 0 0 893.97 342.89
  Q 901.26 343.39 906.62 345.11
  C 915.83 348.07 916.91 358.49 912.87 365.92
  A 3.64 3.52 -9.4 0 1 912.24 366.77
  Q 907.42 371.67 900.88 373.95
  A 2.83 2.81 88.0 0 0 899.10 375.87
  Q 893.94 395.20 893.31 415.76
  Q 892.75 434.12 897.08 452.22
  Q 898.21 456.94 900.13 461.54
  A 2.14 2.13 80.5 0 0 901.95 462.85
  Q 912.49 463.57 914.82 473.92
  C 915.52 477.01 915.34 482.73 913.90 486.01
  Q 911.63 491.16 906.24 494.19
  A 0.91 0.90 -32.2 0 0 905.94 495.49
  Q 911.56 503.55 907.01 512.01
  C 903.80 517.97 898.42 520.00 892.48 522.23
  A 2.85 2.83 -1.8 0 0 890.76 524.05
  Q 881.89 553.01 885.85 582.92
  C 886.45 587.45 887.81 592.87 889.67 597.03
  A 1.48 1.48 0.0 0 0 890.90 597.90
  Q 895.48 598.29 899.73 599.76
  C 907.21 602.34 910.51 608.00 910.62 615.77
  Q 910.72 623.27 904.45 628.92
  A 0.60 0.60 0.0 0 0 904.57 629.90
  C 911.80 633.77 912.49 642.60 908.93 649.26
  C 905.95 654.85 900.20 656.87 894.80 659.80
  A 1.31 1.29 -9.4 0 0 894.14 660.71
  Q 890.94 677.56 890.49 680.75
  C 888.24 696.48 887.88 711.79 890.55 726.69
  Q 891.57 732.34 893.03 736.47
  A 2.30 2.29 81.8 0 0 895.05 737.99
  Q 898.46 738.19 902.90 739.38
  Q 912.34 741.90 913.16 752.04
  C 913.83 760.53 908.45 766.30 901.72 770.46
  Q 891.84 776.56 878.02 784.04
  Q 844.09 802.40 789.37 831.12
  Q 787.71 831.99 773.71 839.29
  Q 731.36 861.35 721.05 866.54
  Q 708.60 872.79 694.00 873.61
  Q 690.99 873.78 670.00 871.01
  Q 652.99 868.77 637.26 866.48
  Q 563.02 855.71 510.61 847.88
  Q 468.47 841.59 437.91 837.27
  Q 400.14 831.94 365.19 826.62
  Q 363.31 826.33 247.73 809.42
  Q 190.63 801.06 187.71 800.65
  Q 175.24 798.88 162.50 796.96
  C 158.97 796.43 155.24 795.63 151.23 794.99
  Q 131.18 791.79 119.71 774.46
  Q 111.46 761.98 108.39 746.50
  Q 104.68 727.77 106.06 706.67
  C 107.37 686.68 113.60 665.97 127.27 650.91
  C 129.39 648.57 132.15 646.58 134.35 644.23
  A 0.72 0.71 -40.7 0 0 134.42 643.34
  Z
  M 867.87 212.46
  A 0.33 0.33 0.0 0 0 867.74 211.83
  Q 867.50 211.82 863.80 211.75
  Q 854.93 211.59 806.50 208.92
  Q 670.79 201.43 481.75 190.21
  Q 474.49 189.78 456.51 188.99
  Q 447.32 188.59 438.29 191.05
  Q 347.43 215.82 256.19 240.96
  Q 206.10 254.76 188.88 259.90
  Q 186.73 260.54 185.30 261.26
  A 0.31 0.31 0.0 0 0 185.43 261.84
  Q 194.87 262.05 209.00 263.11
  C 287.14 268.96 361.45 273.84 434.49 279.29
  Q 585.42 290.54 613.75 292.75
  Q 616.48 292.96 617.98 292.01
  Q 625.29 287.38 632.77 285.03
  Q 664.40 275.08 708.63 261.62
  Q 754.72 247.60 867.23 212.75
  Q 867.33 212.72 867.87 212.46
  Z
  M 857.64 232.22
  Q 748.40 265.11 643.22 298.47
  C 636.96 300.46 631.08 302.35 625.81 305.56
  Q 612.45 313.69 606.90 329.36
  Q 596.94 357.46 603.89 387.89
  C 605.06 393.00 609.30 404.63 614.65 406.18
  A 2.62 2.58 47.5 0 0 615.84 406.24
  Q 623.50 404.84 632.11 401.87
  Q 746.78 362.31 861.20 322.24
  A 1.28 1.27 70.0 0 0 861.97 320.58
  C 853.12 297.40 852.39 271.57 855.27 246.86
  C 855.78 242.47 856.94 237.32 858.07 232.63
  A 0.34 0.34 0.0 0 0 857.64 232.22
  Z
  M 603.89 302.54
  Q 601.27 302.53 589.50 301.74
  Q 567.06 300.24 460.48 292.52
  Q 329.00 283.00 217.75 274.94
  Q 202.42 273.83 179.56 271.99
  C 172.44 271.41 168.79 270.51 164.87 276.16
  Q 152.35 294.21 150.38 316.22
  C 148.70 334.96 151.14 354.66 159.68 371.58
  C 163.01 378.19 170.54 387.31 178.51 387.94
  Q 217.56 391.05 340.00 401.40
  Q 454.75 411.10 569.13 420.39
  C 582.22 421.45 594.07 422.85 605.40 423.14
  A 0.44 0.44 0.0 0 0 605.75 422.42
  C 597.23 412.51 592.25 402.03 589.28 389.16
  C 585.54 372.98 585.29 355.13 588.11 339.01
  C 590.36 326.16 595.73 313.19 604.09 302.97
  A 0.26 0.26 0.0 0 0 603.89 302.54
  Z
  M 627.77 418.96
  Q 626.73 418.93 625.04 419.69
  L 620.86 420.27
  A 0.39 0.39 0.0 0 0 620.76 421.02
  C 634.01 426.74 647.33 421.76 660.53 417.07
  Q 719.46 396.16 785.47 373.63
  Q 806.98 366.29 826.67 359.39
  Q 858.31 348.29 867.98 345.49
  Q 869.46 345.06 873.05 343.56
  C 876.06 342.30 876.65 338.14 876.41 335.30
  A 1.33 1.33 0.0 0 0 875.00 334.08
  Q 871.77 334.28 869.44 335.09
  Q 787.49 363.62 770.49 369.58
  Q 744.82 378.57 720.07 387.21
  Q 674.62 403.07 633.34 417.00
  Q 630.80 417.86 627.77 418.96
  Z
  M 651.45 552.22
  Q 642.93 537.69 641.17 521.07
  Q 639.04 500.99 643.04 481.27
  C 645.80 467.67 651.77 455.08 661.89 445.30
  C 667.39 439.99 674.41 437.01 681.49 434.72
  C 693.51 430.82 704.87 427.35 718.72 422.18
  C 738.70 414.72 758.12 408.90 777.87 401.52
  Q 799.58 393.39 849.70 375.96
  Q 870.51 368.73 886.51 363.74
  Q 893.23 361.64 898.11 358.43
  A 1.09 1.09 0.0 0 0 898.19 356.67
  C 894.86 353.98 888.57 354.69 884.75 355.75
  C 867.99 360.38 852.88 365.90 834.62 372.85
  C 818.70 378.92 797.21 385.75 781.21 391.51
  Q 742.46 405.45 720.68 413.02
  C 700.47 420.03 675.03 429.83 655.31 436.32
  Q 635.19 442.95 614.15 441.60
  Q 560.37 438.16 511.85 433.89
  Q 442.22 427.75 382.78 422.30
  C 364.04 420.58 352.42 420.10 334.24 418.12
  Q 328.13 417.46 307.10 415.80
  C 284.27 414.01 245.08 409.96 213.13 407.36
  Q 202.42 406.48 181.16 403.59
  Q 174.83 402.73 163.47 399.30
  C 161.19 398.61 158.55 398.11 156.85 399.61
  C 147.41 408.00 141.64 421.03 138.69 433.66
  Q 132.76 459.03 139.27 484.54
  Q 141.65 493.84 147.40 500.66
  A 1.53 1.53 0.0 0 0 148.26 501.18
  C 156.29 502.95 164.56 503.03 172.26 504.20
  A 0.31 0.31 0.0 0 0 172.59 503.76
  C 160.87 478.02 158.92 446.72 170.32 420.33
  Q 171.22 418.24 173.25 416.07
  C 175.60 413.58 178.31 415.25 180.78 416.63
  A 0.99 0.99 0.0 0 1 181.29 417.46
  Q 181.46 420.75 180.60 422.56
  C 171.84 441.14 171.09 463.24 175.68 482.88
  C 177.68 491.42 180.58 497.70 184.73 504.90
  A 0.81 0.81 0.0 0 0 185.33 505.30
  Q 234.35 510.65 242.90 511.27
  C 262.27 512.67 277.28 514.64 295.99 516.50
  Q 345.75 521.44 396.82 526.68
  C 404.93 527.51 415.18 528.21 423.13 529.14
  C 445.82 531.77 467.85 534.38 488.30 536.27
  Q 499.32 537.29 522.58 539.91
  Q 542.76 542.19 610.86 548.76
  C 612.72 548.94 614.46 548.79 617.05 548.68
  A 0.34 0.33 -14.8 0 0 617.34 548.20
  Q 612.79 538.90 610.85 531.68
  Q 603.85 505.65 609.34 477.54
  Q 611.45 466.76 617.34 457.09
  Q 618.89 454.54 622.30 454.16
  A 1.76 1.73 -34.7 0 1 623.23 454.32
  Q 628.32 456.80 625.77 461.71
  C 617.34 477.93 615.62 498.22 617.93 516.37
  Q 619.43 528.09 621.67 533.55
  C 623.78 538.68 626.57 543.87 627.44 549.44
  A 0.68 0.68 0.0 0 0 628.03 550.01
  L 651.11 552.73
  A 0.34 0.34 0.0 0 0 651.45 552.22
  Z
  M 881.41 380.26
  C 818.25 401.89 743.27 428.61 683.06 450.64
  C 670.57 455.21 664.11 466.09 660.40 478.33
  Q 652.86 503.23 657.85 528.63
  Q 659.48 536.90 664.50 543.96
  C 669.43 550.89 677.13 547.52 684.06 544.79
  Q 734.66 524.84 885.35 465.81
  A 1.05 1.05 0.0 0 0 885.94 464.43
  Q 879.83 449.81 878.27 434.25
  Q 875.55 407.14 881.67 380.49
  A 0.20 0.20 0.0 0 0 881.41 380.26
  Z
  M 674.90 564.16
  Q 680.95 567.72 687.76 566.55
  C 696.00 565.15 701.34 563.13 709.64 560.27
  C 718.62 557.16 727.97 552.99 735.12 550.41
  C 746.67 546.25 757.88 540.92 770.28 536.29
  Q 778.87 533.07 790.60 528.34
  Q 821.61 515.84 847.52 505.52
  C 860.83 500.23 870.08 496.14 883.07 490.70
  C 886.80 489.13 892.66 487.15 897.01 484.92
  Q 901.22 482.75 899.98 477.46
  A 0.78 0.77 -6.3 0 0 899.24 476.87
  Q 895.68 476.81 892.24 478.03
  Q 880.43 482.25 871.65 485.99
  C 856.91 492.28 839.21 498.43 825.20 504.40
  C 818.36 507.32 811.21 509.56 805.09 512.22
  Q 799.86 514.50 791.90 517.45
  Q 782.16 521.05 778.61 522.48
  Q 769.39 526.19 768.02 526.75
  Q 744.01 536.58 743.44 536.83
  Q 739.06 538.69 733.24 540.69
  C 728.61 542.28 722.39 545.20 716.91 547.20
  Q 711.23 549.26 710.66 549.54
  Q 705.58 552.03 701.38 553.25
  Q 700.50 553.51 687.29 558.79
  Q 680.85 561.36 674.98 563.39
  A 0.43 0.43 0.0 0 0 674.90 564.16
  Z
  M 673.59 595.05
  C 679.98 591.96 686.32 589.97 694.07 586.92
  Q 704.51 582.81 720.14 576.33
  Q 778.46 552.19 821.12 534.65
  Q 842.02 526.06 864.76 516.23
  Q 880.09 509.61 887.58 505.58
  Q 889.16 504.73 890.08 503.15
  A 0.38 0.38 0.0 0 0 889.60 502.61
  Q 883.19 505.36 876.34 508.19
  Q 786.00 545.54 724.17 570.36
  Q 707.85 576.91 685.83 585.36
  Q 678.14 588.31 673.22 594.59
  A 0.30 0.30 0.0 0 0 673.59 595.05
  Z
  M 664.63 581.13
  Q 437.73 557.84 172.00 528.95
  C 165.94 528.29 159.83 527.30 155.60 530.62
  Q 153.09 532.60 150.17 536.94
  C 137.88 555.23 136.08 580.26 138.62 601.84
  C 140.46 617.46 146.53 633.86 158.80 644.27
  C 161.94 646.93 166.14 648.38 169.72 648.66
  Q 195.26 650.66 219.25 653.53
  Q 420.65 677.58 463.90 683.03
  Q 465.86 683.28 489.49 686.12
  Q 649.73 705.40 660.75 706.78
  A 0.23 0.23 0.0 0 0 660.93 706.37
  Q 658.71 704.55 656.92 702.34
  Q 647.19 690.28 643.82 674.70
  Q 636.70 641.69 647.24 610.90
  C 650.97 599.98 656.88 588.94 664.76 581.51
  A 0.22 0.22 0.0 0 0 664.63 581.13
  Z
  M 872.37 529.82
  Q 869.91 530.73 809.11 556.51
  C 768.37 573.78 726.01 591.16 686.26 607.78
  Q 679.83 610.47 666.07 614.18
  Q 663.17 614.96 661.95 616.96
  Q 660.05 620.06 658.82 625.08
  Q 653.49 646.81 657.28 667.45
  C 658.91 676.33 663.93 692.74 674.96 692.96
  C 679.11 693.04 685.43 689.88 688.68 688.42
  Q 764.37 654.43 874.60 604.23
  A 0.86 0.84 -21.5 0 0 875.06 603.19
  Q 869.91 587.62 869.40 571.67
  C 868.98 558.40 869.88 543.68 872.87 530.26
  A 0.38 0.38 0.0 0 0 872.37 529.82
  Z
  M 680.25 707.95
  Q 688.35 711.67 697.18 709.13
  Q 713.20 704.52 731.59 696.10
  Q 783.91 672.13 835.96 647.70
  C 850.54 640.86 863.50 635.23 876.84 628.58
  Q 885.47 624.28 891.55 620.31
  Q 893.59 618.98 894.42 616.79
  A 1.97 1.72 -73.6 0 0 893.24 614.22
  Q 892.01 613.99 890.14 614.64
  Q 883.16 617.06 879.02 619.00
  Q 862.47 626.74 846.31 634.05
  C 780.61 663.75 748.95 677.80 720.89 690.75
  Q 705.26 697.97 693.11 703.01
  C 688.74 704.82 684.71 705.89 680.30 707.23
  A 0.39 0.39 0.0 0 0 680.25 707.95
  Z
  M 690.73 735.75
  Q 696.40 734.02 700.76 732.00
  C 726.18 720.28 751.06 708.51 773.02 698.72
  Q 824.47 675.77 856.98 660.75
  Q 859.85 659.42 880.08 650.52
  C 884.58 648.54 888.01 646.37 891.87 644.10
  Q 893.52 643.13 893.92 641.08
  A 1.04 1.04 0.0 0 0 892.66 639.87
  Q 890.55 640.36 890.40 640.42
  C 874.25 646.34 860.08 652.05 842.80 660.18
  Q 816.22 672.69 787.84 685.80
  C 765.47 696.13 748.77 704.30 724.83 715.27
  Q 716.16 719.24 713.33 720.25
  C 706.03 722.87 693.14 727.22 690.09 735.05
  A 0.53 0.52 -87.7 0 0 690.73 735.75
  Z
  M 672.08 850.55
  Q 661.40 833.70 659.07 813.47
  Q 656.45 790.78 660.58 768.78
  C 662.81 756.90 666.84 745.27 672.82 734.98
  Q 676.17 729.20 677.55 726.51
  A 0.83 0.83 0.0 0 0 676.92 725.31
  Q 644.74 721.17 602.52 716.23
  C 590.57 714.83 575.45 712.69 561.50 711.08
  Q 511.62 705.31 459.75 699.11
  Q 398.68 691.79 337.77 684.17
  Q 276.64 676.52 245.95 672.93
  Q 171.17 664.21 154.09 662.12
  C 150.02 661.62 146.43 660.85 142.74 660.81
  A 3.19 3.17 18.1 0 0 140.09 662.14
  C 127.28 680.11 123.38 700.14 123.97 722.16
  Q 124.38 737.21 128.29 750.08
  Q 130.96 758.88 134.22 764.05
  C 137.92 769.92 141.69 775.03 147.82 776.94
  Q 154.96 779.17 163.13 780.13
  Q 166.34 780.51 185.23 783.53
  Q 198.41 785.64 210.54 787.23
  Q 225.58 789.20 235.91 790.75
  Q 255.20 793.64 282.75 797.56
  Q 285.67 797.98 359.76 808.73
  Q 389.87 813.10 393.25 813.63
  Q 400.98 814.83 409.91 815.96
  Q 420.49 817.29 426.56 818.31
  Q 443.54 821.15 459.82 823.29
  Q 476.02 825.42 493.13 827.97
  Q 575.16 840.18 591.85 842.62
  C 601.47 844.03 610.54 845.10 619.73 846.62
  C 631.79 848.61 644.27 849.76 656.00 850.66
  Q 664.01 851.27 671.73 851.19
  A 0.42 0.42 0.0 0 0 672.08 850.55
  Z
  M 876.78 668.58
  A 0.36 0.36 0.0 0 0 876.28 668.17
  Q 780.59 711.47 704.53 746.52
  C 697.80 749.63 689.32 753.67 681.20 753.72
  A 0.88 0.87 9.1 0 0 680.39 754.30
  Q 672.40 776.70 672.75 799.32
  Q 672.86 805.97 673.31 811.71
  C 673.81 817.98 677.04 835.64 686.03 835.99
  Q 691.45 836.20 696.92 833.45
  Q 765.24 799.12 877.93 743.30
  A 1.18 1.18 0.0 0 0 878.52 741.84
  Q 876.75 737.03 875.71 731.57
  Q 872.63 715.35 873.30 698.75
  C 873.76 687.47 874.59 677.58 876.78 668.58
  Z
  M 689.64 851.50
  A 0.48 0.48 0.0 0 0 689.44 852.36
  C 700.07 860.28 722.27 848.45 732.15 843.39
  Q 791.48 813.06 857.73 778.42
  Q 886.27 763.50 892.70 759.91
  A 6.41 6.40 -8.8 0 0 895.85 755.61
  L 896.11 754.33
  A 1.98 1.98 0.0 0 0 893.34 752.14
  Q 860.19 767.61 842.77 776.28
  Q 758.92 818.05 716.44 840.16
  Q 704.26 846.50 697.45 848.89
  Q 690.58 851.31 689.64 851.50
  Z"
/>
<path fill="#ed5e24" d="
  M 867.87 212.46
  Q 867.33 212.72 867.23 212.75
  Q 754.72 247.60 708.63 261.62
  Q 664.40 275.08 632.77 285.03
  Q 625.29 287.38 617.98 292.01
  Q 616.48 292.96 613.75 292.75
  Q 585.42 290.54 434.49 279.29
  C 361.45 273.84 287.14 268.96 209.00 263.11
  Q 194.87 262.05 185.43 261.84
  A 0.31 0.31 0.0 0 1 185.30 261.26
  Q 186.73 260.54 188.88 259.90
  Q 206.10 254.76 256.19 240.96
  Q 347.43 215.82 438.29 191.05
  Q 447.32 188.59 456.51 188.99
  Q 474.49 189.78 481.75 190.21
  Q 670.79 201.43 806.50 208.92
  Q 854.93 211.59 863.80 211.75
  Q 867.50 211.82 867.74 211.83
  A 0.33 0.33 0.0 0 1 867.87 212.46
  Z"
/>
<path fill="#f8f0e4" d="
  M 857.64 232.22
  A 0.34 0.34 0.0 0 1 858.07 232.63
  C 856.94 237.32 855.78 242.47 855.27 246.86
  C 852.39 271.57 853.12 297.40 861.97 320.58
  A 1.28 1.27 70.0 0 1 861.20 322.24
  Q 746.78 362.31 632.11 401.87
  Q 623.50 404.84 615.84 406.24
  A 2.62 2.58 47.5 0 1 614.65 406.18
  C 609.30 404.63 605.06 393.00 603.89 387.89
  Q 596.94 357.46 606.90 329.36
  Q 612.45 313.69 625.81 305.56
  C 631.08 302.35 636.96 300.46 643.22 298.47
  Q 748.40 265.11 857.64 232.22
  Z
  M 603.50 363.09
  A 0.19 0.19 0.0 0 0 603.87 363.08
  Q 605.14 345.11 616.69 331.43
  Q 620.51 326.90 624.54 324.29
  Q 633.71 318.35 643.44 315.20
  Q 717.19 291.32 801.75 264.79
  Q 832.06 255.29 851.51 250.02
  A 3.28 3.26 87.5 0 0 853.88 247.42
  L 855.97 235.33
  A 0.89 0.88 -3.6 0 0 854.84 234.34
  Q 796.97 251.76 732.43 271.76
  Q 680.23 287.94 664.40 292.98
  Q 659.31 294.60 652.03 297.03
  C 647.22 298.63 638.02 300.99 631.57 303.85
  Q 617.14 310.25 610.39 324.84
  C 606.87 332.46 604.79 339.32 604.11 347.00
  Q 603.95 348.77 603.51 351.99
  Q 602.74 357.55 603.50 363.09
  Z"
/>
<path fill="#dfd5c8" d="
  M 603.50 363.09
  Q 602.74 357.55 603.51 351.99
  Q 603.95 348.77 604.11 347.00
  C 604.79 339.32 606.87 332.46 610.39 324.84
  Q 617.14 310.25 631.57 303.85
  C 638.02 300.99 647.22 298.63 652.03 297.03
  Q 659.31 294.60 664.40 292.98
  Q 680.23 287.94 732.43 271.76
  Q 796.97 251.76 854.84 234.34
  A 0.89 0.88 -3.6 0 1 855.97 235.33
  L 853.88 247.42
  A 3.28 3.26 87.5 0 1 851.51 250.02
  Q 832.06 255.29 801.75 264.79
  Q 717.19 291.32 643.44 315.20
  Q 633.71 318.35 624.54 324.29
  Q 620.51 326.90 616.69 331.43
  Q 605.14 345.11 603.87 363.08
  A 0.19 0.19 0.0 0 1 603.50 363.09
  Z"
/>
<path fill="#ed5e24" d="
  M 603.89 302.54
  A 0.26 0.26 0.0 0 1 604.09 302.97
  C 595.73 313.19 590.36 326.16 588.11 339.01
  C 585.29 355.13 585.54 372.98 589.28 389.16
  C 592.25 402.03 597.23 412.51 605.75 422.42
  A 0.44 0.44 0.0 0 1 605.40 423.14
  C 594.07 422.85 582.22 421.45 569.13 420.39
  Q 454.75 411.10 340.00 401.40
  Q 217.56 391.05 178.51 387.94
  C 170.54 387.31 163.01 378.19 159.68 371.58
  C 151.14 354.66 148.70 334.96 150.38 316.22
  Q 152.35 294.21 164.87 276.16
  C 168.79 270.51 172.44 271.41 179.56 271.99
  Q 202.42 273.83 217.75 274.94
  Q 329.00 283.00 460.48 292.52
  Q 567.06 300.24 589.50 301.74
  Q 601.27 302.53 603.89 302.54
  Z
  M 170.47 332.71
  C 170.80 349.27 174.53 365.01 183.05 379.79
  A 3.77 3.77 0.0 0 0 188.59 380.91
  L 188.79 380.76
  A 5.13 5.13 0.0 0 0 190.26 374.36
  C 183.55 361.14 180.13 346.97 179.83 332.52
  C 179.54 318.06 182.38 303.76 188.54 290.28
  A 5.13 5.13 0.0 0 0 186.81 283.95
  L 186.60 283.81
  A 3.77 3.77 0.0 0 0 181.11 285.15
  C 173.20 300.27 170.13 316.14 170.47 332.71
  Z
  M 553.28 363.51
  C 553.48 378.30 555.93 392.12 561.92 405.35
  Q 563.47 408.77 564.97 410.62
  A 1.91 1.86 80.7 0 0 565.73 411.18
  C 569.92 412.82 572.71 407.90 571.40 404.45
  Q 568.56 396.95 567.73 394.52
  C 564.50 385.08 562.99 374.38 562.84 363.38
  C 562.69 352.37 563.91 341.64 566.89 332.12
  Q 567.65 329.66 570.28 322.09
  C 571.50 318.60 568.58 313.76 564.43 315.52
  A 1.91 1.86 -82.2 0 0 563.69 316.10
  Q 562.24 317.99 560.78 321.44
  C 555.16 334.83 553.08 348.72 553.28 363.51
  Z
  M 164.77 376.92
  C 167.50 380.20 170.36 384.59 174.91 385.85
  Q 180.48 387.39 185.69 387.37
  C 191.24 387.34 194.33 387.97 200.02 388.11
  A 9.01 8.89 52.8 0 1 202.03 388.40
  C 207.29 389.80 211.79 389.03 217.12 389.73
  Q 220.17 390.14 224.67 390.10
  A 3.40 3.09 47.8 0 1 225.29 390.16
  L 232.02 391.39
  A 0.55 0.37 37.5 0 0 232.19 391.40
  Q 236.96 391.20 239.63 391.54
  C 245.03 392.24 249.07 391.78 254.26 392.95
  A 8.23 7.61 -35.1 0 0 255.75 393.15
  Q 273.39 393.86 275.54 394.27
  Q 280.92 395.29 285.50 395.30
  C 289.62 395.30 291.95 395.88 296.34 396.00
  C 299.12 396.07 302.17 396.69 304.71 397.21
  A 7.06 6.78 49.2 0 0 306.32 397.36
  C 311.19 397.27 314.71 398.05 319.31 398.05
  Q 322.66 398.06 327.57 399.19
  A 8.93 8.67 49.7 0 0 329.85 399.41
  Q 335.56 399.21 337.52 399.53
  C 341.85 400.23 346.73 399.68 351.67 400.96
  A 11.00 10.95 -37.0 0 0 354.13 401.30
  Q 366.16 401.59 376.14 402.85
  C 379.55 403.28 383.71 402.91 386.24 403.64
  A 6.48 6.24 -36.2 0 0 387.94 403.87
  Q 393.56 403.82 398.94 405.16
  A 6.91 6.88 50.7 0 0 400.99 405.37
  C 405.83 405.14 408.89 405.90 413.89 406.05
  Q 417.95 406.18 422.85 407.31
  A 2.33 1.94 25.2 0 0 423.17 407.35
  L 441.77 408.12
  A 4.37 4.30 -34.1 0 1 443.07 408.36
  Q 446.10 409.43 449.49 409.38
  C 454.31 409.31 458.78 410.17 462.98 410.08
  A 7.25 7.08 -39.3 0 1 464.58 410.22
  Q 470.58 411.43 474.83 411.30
  Q 478.30 411.20 481.57 411.75
  Q 482.81 411.96 488.34 412.10
  A 8.52 8.49 -38.0 0 1 489.98 412.30
  Q 495.23 413.47 496.25 413.39
  Q 499.52 413.13 506.80 413.91
  Q 510.58 414.31 512.60 414.19
  A 7.06 6.87 49.5 0 1 514.66 414.38
  Q 519.56 415.58 525.90 415.34
  A 0.53 0.48 47.9 0 1 526.00 415.35
  L 538.14 416.29
  A 3.55 2.94 -21.7 0 1 538.61 416.36
  L 543.49 417.43
  A 0.87 0.78 48.2 0 0 543.67 417.45
  Q 549.41 417.23 551.68 417.57
  Q 555.43 418.13 557.98 418.11
  Q 561.43 418.08 566.97 419.16
  A 9.06 8.84 49.5 0 0 568.60 419.31
  Q 579.39 419.26 590.11 421.24
  A 7.90 7.78 47.7 0 0 592.08 421.35
  Q 597.14 420.98 601.40 422.05
  A 1.15 1.15 0.0 0 0 602.62 420.28
  L 598.45 414.31
  A 5.11 5.10 -15.0 0 0 594.69 412.15
  L 572.53 410.30
  A 1.29 1.25 30.2 0 0 571.76 410.49
  L 568.95 412.27
  A 1.48 1.45 27.1 0 1 568.25 412.49
  C 565.26 412.64 564.52 411.86 562.82 410.06
  A 1.15 1.14 -19.6 0 0 562.12 409.73
  L 193.10 378.91
  A 2.61 2.61 0.0 0 0 190.69 380.10
  C 187.61 384.87 183.32 383.07 181.21 379.03
  C 180.33 377.35 178.59 377.99 177.02 377.70
  Q 170.78 376.53 165.15 376.17
  A 0.46 0.46 0.0 0 0 164.77 376.92
  Z"
/>
<path fill="#141616" d="
  M 179.83 332.52
  C 180.13 346.97 183.55 361.14 190.26 374.36
  A 5.13 5.13 0.0 0 1 188.79 380.76
  L 188.59 380.91
  A 3.77 3.77 0.0 0 1 183.05 379.79
  C 174.53 365.01 170.80 349.27 170.47 332.71
  C 170.13 316.14 173.20 300.27 181.11 285.15
  A 3.77 3.77 0.0 0 1 186.60 283.81
  L 186.81 283.95
  A 5.13 5.13 0.0 0 1 188.54 290.28
  C 182.38 303.76 179.54 318.06 179.83 332.52
  Z"
/>
<path fill="#141616" d="
  M 562.84 363.38
  C 562.99 374.38 564.50 385.08 567.73 394.52
  Q 568.56 396.95 571.40 404.45
  C 572.71 407.90 569.92 412.82 565.73 411.18
  A 1.91 1.86 80.7 0 1 564.97 410.62
  Q 563.47 408.77 561.92 405.35
  C 555.93 392.12 553.48 378.30 553.28 363.51
  C 553.08 348.72 555.16 334.83 560.78 321.44
  Q 562.24 317.99 563.69 316.10
  A 1.91 1.86 -82.2 0 1 564.43 315.52
  C 568.58 313.76 571.50 318.60 570.28 322.09
  Q 567.65 329.66 566.89 332.12
  C 563.91 341.64 562.69 352.37 562.84 363.38
  Z"
/>
<path fill="#ed5e24" d="
  M 625.04 419.69
  L 626.60 421.20
  A 1.62 1.62 0.0 0 0 627.48 421.64
  Q 635.29 423.00 642.44 421.43
  Q 642.90 421.32 648.70 419.70
  C 655.36 417.83 660.54 415.80 670.98 411.93
  C 683.11 407.43 698.67 402.33 710.35 398.13
  C 728.94 391.46 750.36 384.50 765.95 378.89
  C 779.83 373.89 797.67 368.32 808.80 364.31
  Q 843.45 351.84 872.03 342.71
  A 5.00 4.99 82.4 0 0 875.50 338.16
  L 875.51 338.05
  A 2.41 2.40 81.8 0 0 872.33 335.67
  Q 808.77 357.38 778.49 367.99
  Q 765.61 372.51 764.02 372.94
  C 760.68 373.86 757.63 375.45 754.02 376.71
  Q 749.65 378.25 731.02 384.50
  C 727.68 385.62 724.12 387.18 720.56 388.13
  C 716.37 389.26 711.36 391.64 708.04 392.76
  Q 681.59 401.67 658.47 409.90
  Q 656.95 410.44 632.72 418.71
  Q 629.39 419.84 627.77 418.96
  Q 630.80 417.86 633.34 417.00
  Q 674.62 403.07 720.07 387.21
  Q 744.82 378.57 770.49 369.58
  Q 787.49 363.62 869.44 335.09
  Q 871.77 334.28 875.00 334.08
  A 1.33 1.33 0.0 0 1 876.41 335.30
  C 876.65 338.14 876.06 342.30 873.05 343.56
  Q 869.46 345.06 867.98 345.49
  Q 858.31 348.29 826.67 359.39
  Q 806.98 366.29 785.47 373.63
  Q 719.46 396.16 660.53 417.07
  C 647.33 421.76 634.01 426.74 620.76 421.02
  A 0.39 0.39 0.0 0 1 620.86 420.27
  L 625.04 419.69
  Z"
/>
<path fill="#c84719" d="
  M 625.04 419.69
  Q 626.73 418.93 627.77 418.96
  Q 629.39 419.84 632.72 418.71
  Q 656.95 410.44 658.47 409.90
  Q 681.59 401.67 708.04 392.76
  C 711.36 391.64 716.37 389.26 720.56 388.13
  C 724.12 387.18 727.68 385.62 731.02 384.50
  Q 749.65 378.25 754.02 376.71
  C 757.63 375.45 760.68 373.86 764.02 372.94
  Q 765.61 372.51 778.49 367.99
  Q 808.77 357.38 872.33 335.67
  A 2.41 2.40 81.8 0 1 875.51 338.05
  L 875.50 338.16
  A 5.00 4.99 82.4 0 1 872.03 342.71
  Q 843.45 351.84 808.80 364.31
  C 797.67 368.32 779.83 373.89 765.95 378.89
  C 750.36 384.50 728.94 391.46 710.35 398.13
  C 698.67 402.33 683.11 407.43 670.98 411.93
  C 660.54 415.80 655.36 417.83 648.70 419.70
  Q 642.90 421.32 642.44 421.43
  Q 635.29 423.00 627.48 421.64
  A 1.62 1.62 0.0 0 1 626.60 421.20
  L 625.04 419.69
  Z"
/>
<path fill="#212426" d="
  M 651.11 552.73
  L 628.03 550.01
  A 0.68 0.68 0.0 0 1 627.44 549.44
  C 626.57 543.87 623.78 538.68 621.67 533.55
  Q 619.43 528.09 617.93 516.37
  C 615.62 498.22 617.34 477.93 625.77 461.71
  Q 628.32 456.80 623.23 454.32
  A 1.76 1.73 -34.7 0 0 622.30 454.16
  Q 618.89 454.54 617.34 457.09
  Q 611.45 466.76 609.34 477.54
  Q 603.85 505.65 610.85 531.68
  Q 612.79 538.90 617.34 548.20
  A 0.34 0.33 -14.8 0 1 617.05 548.68
  C 614.46 548.79 612.72 548.94 610.86 548.76
  Q 542.76 542.19 522.58 539.91
  Q 499.32 537.29 488.30 536.27
  C 467.85 534.38 445.82 531.77 423.13 529.14
  C 415.18 528.21 404.93 527.51 396.82 526.68
  Q 345.75 521.44 295.99 516.50
  C 277.28 514.64 262.27 512.67 242.90 511.27
  Q 234.35 510.65 185.33 505.30
  A 0.81 0.81 0.0 0 1 184.73 504.90
  C 180.58 497.70 177.68 491.42 175.68 482.88
  C 171.09 463.24 171.84 441.14 180.60 422.56
  Q 181.46 420.75 181.29 417.46
  A 0.99 0.99 0.0 0 0 180.78 416.63
  C 178.31 415.25 175.60 413.58 173.25 416.07
  Q 171.22 418.24 170.32 420.33
  C 158.92 446.72 160.87 478.02 172.59 503.76
  A 0.31 0.31 0.0 0 1 172.26 504.20
  C 164.56 503.03 156.29 502.95 148.26 501.18
  A 1.53 1.53 0.0 0 1 147.40 500.66
  Q 141.65 493.84 139.27 484.54
  Q 132.76 459.03 138.69 433.66
  C 141.64 421.03 147.41 408.00 156.85 399.61
  C 158.55 398.11 161.19 398.61 163.47 399.30
  Q 174.83 402.73 181.16 403.59
  Q 202.42 406.48 213.13 407.36
  C 245.08 409.96 284.27 414.01 307.10 415.80
  Q 328.13 417.46 334.24 418.12
  C 352.42 420.10 364.04 420.58 382.78 422.30
  Q 442.22 427.75 511.85 433.89
  Q 560.37 438.16 614.15 441.60
  Q 635.19 442.95 655.31 436.32
  C 675.03 429.83 700.47 420.03 720.68 413.02
  Q 742.46 405.45 781.21 391.51
  C 797.21 385.75 818.70 378.92 834.62 372.85
  C 852.88 365.90 867.99 360.38 884.75 355.75
  C 888.57 354.69 894.86 353.98 898.19 356.67
  A 1.09 1.09 0.0 0 1 898.11 358.43
  Q 893.23 361.64 886.51 363.74
  Q 870.51 368.73 849.70 375.96
  Q 799.58 393.39 777.87 401.52
  C 758.12 408.90 738.70 414.72 718.72 422.18
  C 704.87 427.35 693.51 430.82 681.49 434.72
  C 674.41 437.01 667.39 439.99 661.89 445.30
  C 651.77 455.08 645.80 467.67 643.04 481.27
  Q 639.04 500.99 641.17 521.07
  Q 642.93 537.69 651.45 552.22
  A 0.34 0.34 0.0 0 1 651.11 552.73
  Z"
/>
<path fill="#c84719" d="
  M 164.77 376.92
  A 0.46 0.46 0.0 0 1 165.15 376.17
  Q 170.78 376.53 177.02 377.70
  C 178.59 377.99 180.33 377.35 181.21 379.03
  C 183.32 383.07 187.61 384.87 190.69 380.10
  A 2.61 2.61 0.0 0 1 193.10 378.91
  L 562.12 409.73
  A 1.15 1.14 -19.6 0 1 562.82 410.06
  C 564.52 411.86 565.26 412.64 568.25 412.49
  A 1.48 1.45 27.1 0 0 568.95 412.27
  L 571.76 410.49
  A 1.29 1.25 30.2 0 1 572.53 410.30
  L 594.69 412.15
  A 5.11 5.10 -15.0 0 1 598.45 414.31
  L 602.62 420.28
  A 1.15 1.15 0.0 0 1 601.40 422.05
  Q 597.14 420.98 592.08 421.35
  A 7.90 7.78 47.7 0 1 590.11 421.24
  Q 579.39 419.26 568.60 419.31
  A 9.06 8.84 49.5 0 1 566.97 419.16
  Q 561.43 418.08 557.98 418.11
  Q 555.43 418.13 551.68 417.57
  Q 549.41 417.23 543.67 417.45
  A 0.87 0.78 48.2 0 1 543.49 417.43
  L 538.61 416.36
  A 3.55 2.94 -21.7 0 0 538.14 416.29
  L 526.00 415.35
  A 0.53 0.48 47.9 0 0 525.90 415.34
  Q 519.56 415.58 514.66 414.38
  A 7.06 6.87 49.5 0 0 512.60 414.19
  Q 510.58 414.31 506.80 413.91
  Q 499.52 413.13 496.25 413.39
  Q 495.23 413.47 489.98 412.30
  A 8.52 8.49 -38.0 0 0 488.34 412.10
  Q 482.81 411.96 481.57 411.75
  Q 478.30 411.20 474.83 411.30
  Q 470.58 411.43 464.58 410.22
  A 7.25 7.08 -39.3 0 0 462.98 410.08
  C 458.78 410.17 454.31 409.31 449.49 409.38
  Q 446.10 409.43 443.07 408.36
  A 4.37 4.30 -34.1 0 0 441.77 408.12
  L 423.17 407.35
  A 2.33 1.94 25.2 0 1 422.85 407.31
  Q 417.95 406.18 413.89 406.05
  C 408.89 405.90 405.83 405.14 400.99 405.37
  A 6.91 6.88 50.7 0 1 398.94 405.16
  Q 393.56 403.82 387.94 403.87
  A 6.48 6.24 -36.2 0 1 386.24 403.64
  C 383.71 402.91 379.55 403.28 376.14 402.85
  Q 366.16 401.59 354.13 401.30
  A 11.00 10.95 -37.0 0 1 351.67 400.96
  C 346.73 399.68 341.85 400.23 337.52 399.53
  Q 335.56 399.21 329.85 399.41
  A 8.93 8.67 49.7 0 1 327.57 399.19
  Q 322.66 398.06 319.31 398.05
  C 314.71 398.05 311.19 397.27 306.32 397.36
  A 7.06 6.78 49.2 0 1 304.71 397.21
  C 302.17 396.69 299.12 396.07 296.34 396.00
  C 291.95 395.88 289.62 395.30 285.50 395.30
  Q 280.92 395.29 275.54 394.27
  Q 273.39 393.86 255.75 393.15
  A 8.23 7.61 -35.1 0 1 254.26 392.95
  C 249.07 391.78 245.03 392.24 239.63 391.54
  Q 236.96 391.20 232.19 391.40
  A 0.55 0.37 37.5 0 1 232.02 391.39
  L 225.29 390.16
  A 3.40 3.09 47.8 0 0 224.67 390.10
  Q 220.17 390.14 217.12 389.73
  C 211.79 389.03 207.29 389.80 202.03 388.40
  A 9.01 8.89 52.8 0 0 200.02 388.11
  C 194.33 387.97 191.24 387.34 185.69 387.37
  Q 180.48 387.39 174.91 385.85
  C 170.36 384.59 167.50 380.20 164.77 376.92
  Z"
/>
<path fill="#f8f0e4" d="
  M 881.41 380.26
  A 0.20 0.20 0.0 0 1 881.67 380.49
  Q 875.55 407.14 878.27 434.25
  Q 879.83 449.81 885.94 464.43
  A 1.05 1.05 0.0 0 1 885.35 465.81
  Q 734.66 524.84 684.06 544.79
  C 677.13 547.52 669.43 550.89 664.50 543.96
  Q 659.48 536.90 657.85 528.63
  Q 652.86 503.23 660.40 478.33
  C 664.11 466.09 670.57 455.21 683.06 450.64
  C 743.27 428.61 818.25 401.89 881.41 380.26
  Z
  M 659.26 503.58
  Q 659.26 503.55 659.11 501.43
  A 10.64 10.56 54.1 0 1 659.85 496.69
  Q 662.35 490.54 664.98 485.73
  C 668.42 479.45 674.09 475.07 679.98 471.34
  Q 683.88 468.87 692.13 465.63
  Q 724.87 452.76 727.87 451.63
  Q 748.72 443.75 851.91 406.63
  Q 857.13 404.75 875.46 399.03
  A 1.81 1.73 -77.2 0 0 876.29 398.48
  Q 877.23 397.36 877.61 395.13
  Q 878.84 387.85 879.15 385.23
  Q 879.25 384.34 879.23 384.27
  A 1.79 1.78 73.4 0 0 876.91 383.01
  Q 838.67 396.45 813.89 405.15
  Q 746.80 428.70 683.73 451.75
  Q 673.27 455.58 667.73 464.99
  Q 657.93 481.62 658.50 502.00
  Q 658.52 502.57 658.63 503.57
  A 0.32 0.32 0.0 0 0 659.26 503.58
  Z"
/>
<path fill="#dfd5c8" d="
  M 658.63 503.57
  Q 658.52 502.57 658.50 502.00
  Q 657.93 481.62 667.73 464.99
  Q 673.27 455.58 683.73 451.75
  Q 746.80 428.70 813.89 405.15
  Q 838.67 396.45 876.91 383.01
  A 1.79 1.78 73.4 0 1 879.23 384.27
  Q 879.25 384.34 879.15 385.23
  Q 878.84 387.85 877.61 395.13
  Q 877.23 397.36 876.29 398.48
  A 1.81 1.73 -77.2 0 1 875.46 399.03
  Q 857.13 404.75 851.91 406.63
  Q 748.72 443.75 727.87 451.63
  Q 724.87 452.76 692.13 465.63
  Q 683.88 468.87 679.98 471.34
  C 674.09 475.07 668.42 479.45 664.98 485.73
  Q 662.35 490.54 659.85 496.69
  A 10.64 10.56 54.1 0 0 659.11 501.43
  Q 659.26 503.55 659.26 503.58
  A 0.32 0.32 0.0 0 1 658.63 503.57
  Z"
/>
<path fill="#212426" d="
  M 674.90 564.16
  A 0.43 0.43 0.0 0 1 674.98 563.39
  Q 680.85 561.36 687.29 558.79
  Q 700.50 553.51 701.38 553.25
  Q 705.58 552.03 710.66 549.54
  Q 711.23 549.26 716.91 547.20
  C 722.39 545.20 728.61 542.28 733.24 540.69
  Q 739.06 538.69 743.44 536.83
  Q 744.01 536.58 768.02 526.75
  Q 769.39 526.19 778.61 522.48
  Q 782.16 521.05 791.90 517.45
  Q 799.86 514.50 805.09 512.22
  C 811.21 509.56 818.36 507.32 825.20 504.40
  C 839.21 498.43 856.91 492.28 871.65 485.99
  Q 880.43 482.25 892.24 478.03
  Q 895.68 476.81 899.24 476.87
  A 0.78 0.77 -6.3 0 1 899.98 477.46
  Q 901.22 482.75 897.01 484.92
  C 892.66 487.15 886.80 489.13 883.07 490.70
  C 870.08 496.14 860.83 500.23 847.52 505.52
  Q 821.61 515.84 790.60 528.34
  Q 778.87 533.07 770.28 536.29
  C 757.88 540.92 746.67 546.25 735.12 550.41
  C 727.97 552.99 718.62 557.16 709.64 560.27
  C 701.34 563.13 696.00 565.15 687.76 566.55
  Q 680.95 567.72 674.90 564.16
  Z"
/>
<path fill="#efb22c" d="
  M 673.59 595.05
  A 0.30 0.30 0.0 0 1 673.22 594.59
  Q 678.14 588.31 685.83 585.36
  Q 707.85 576.91 724.17 570.36
  Q 786.00 545.54 876.34 508.19
  Q 883.19 505.36 889.60 502.61
  A 0.38 0.38 0.0 0 1 890.08 503.15
  Q 889.16 504.73 887.58 505.58
  Q 880.09 509.61 864.76 516.23
  Q 842.02 526.06 821.12 534.65
  Q 778.46 552.19 720.14 576.33
  Q 704.51 582.81 694.07 586.92
  C 686.32 589.97 679.98 591.96 673.59 595.05
  Z
  M 757.61 558.83
  Q 757.20 558.75 757.12 558.76
  A 0.27 0.25 -50.6 0 0 757.15 559.27
  Q 757.41 559.24 757.66 559.03
  A 0.11 0.11 0.0 0 0 757.61 558.83
  Z
  M 755.2567 559.7632
  A 1.09 0.27 -18.0 0 0 754.1366 559.8432
  A 1.09 0.27 -18.0 0 0 753.1833 560.4368
  A 1.09 0.27 -18.0 0 0 754.3034 560.3568
  A 1.09 0.27 -18.0 0 0 755.2567 559.7632
  Z
  M 753.0119 560.6509
  A 0.70 0.20 -23.5 0 0 752.2903 560.7466
  A 0.70 0.20 -23.5 0 0 751.7281 561.2091
  A 0.70 0.20 -23.5 0 0 752.4497 561.1134
  A 0.70 0.20 -23.5 0 0 753.0119 560.6509
  Z
  M 749.77 562.36
  Q 749.99 562.37 750.40 562.02
  A 0.21 0.20 23.0 0 0 750.25 561.66
  Q 750.07 561.67 749.66 561.89
  A 0.25 0.25 0.0 0 0 749.77 562.36
  Z
  M 726.2723 571.7880
  A 0.68 0.22 -16.4 0 0 725.5579 571.7690
  A 0.68 0.22 -16.4 0 0 724.9677 572.1720
  A 0.68 0.22 -16.4 0 0 725.6821 572.1910
  A 0.68 0.22 -16.4 0 0 726.2723 571.7880
  Z
  M 721.22 573.75
  Q 720.99 573.77 720.94 573.87
  A 0.09 0.09 0.0 0 0 721.03 573.99
  L 721.34 573.98
  A 0.15 0.10 28.4 0 0 721.22 573.75
  Z
  M 718.9499 574.6901
  A 2.13 0.27 -20.9 0 0 716.8637 575.1978
  A 2.13 0.27 -20.9 0 0 714.9701 576.2099
  A 2.13 0.27 -20.9 0 0 717.0563 575.7022
  A 2.13 0.27 -20.9 0 0 718.9499 574.6901
  Z
  M 710.9851 577.8091
  A 0.54 0.21 -20.7 0 0 710.4058 577.8036
  A 0.54 0.21 -20.7 0 0 709.9749 578.1909
  A 0.54 0.21 -20.7 0 0 710.5542 578.1964
  A 0.54 0.21 -20.7 0 0 710.9851 577.8091
  Z
  M 707.86 579.35
  Q 708.04 579.34 708.78 579.00
  A 0.16 0.16 0.0 0 0 708.70 578.70
  Q 707.92 578.77 707.72 578.90
  A 0.25 0.24 27.9 0 0 707.86 579.35
  Z
  M 706.4464 579.7449
  A 0.77 0.24 -17.0 0 0 705.6398 579.7405
  A 0.77 0.24 -17.0 0 0 704.9736 580.1951
  A 0.77 0.24 -17.0 0 0 705.7802 580.1995
  A 0.77 0.24 -17.0 0 0 706.4464 579.7449
  Z
  M 704.0143 580.6828
  A 2.77 0.27 -21.1 0 0 701.3328 581.4281
  A 2.77 0.27 -21.1 0 0 698.8457 582.6772
  A 2.77 0.27 -21.1 0 0 701.5272 581.9319
  A 2.77 0.27 -21.1 0 0 704.0143 580.6828
  Z"
/>
<path fill="#efb22c" d="
  M 664.63 581.13
  A 0.22 0.22 0.0 0 1 664.76 581.51
  C 656.88 588.94 650.97 599.98 647.24 610.90
  Q 636.70 641.69 643.82 674.70
  Q 647.19 690.28 656.92 702.34
  Q 658.71 704.55 660.93 706.37
  A 0.23 0.23 0.0 0 1 660.75 706.78
  Q 649.73 705.40 489.49 686.12
  Q 465.86 683.28 463.90 683.03
  Q 420.65 677.58 219.25 653.53
  Q 195.26 650.66 169.72 648.66
  C 166.14 648.38 161.94 646.93 158.80 644.27
  C 146.53 633.86 140.46 617.46 138.62 601.84
  C 136.08 580.26 137.88 555.23 150.17 536.94
  Q 153.09 532.60 155.60 530.62
  C 159.83 527.30 165.94 528.29 172.00 528.95
  Q 437.73 557.84 664.63 581.13
  Z
  M 163.28 593.64
  C 163.65 609.41 166.84 625.41 174.07 639.37
  C 175.77 642.64 179.26 644.94 182.07 641.76
  C 183.33 640.32 183.41 637.79 182.63 636.20
  C 176.08 622.80 173.27 608.23 172.91 593.41
  C 172.56 578.60 174.67 563.91 180.58 550.21
  C 181.28 548.59 181.07 546.06 179.75 544.68
  C 176.79 541.64 173.41 544.11 171.87 547.46
  C 165.32 561.75 162.90 577.87 163.28 593.64
  Z
  M 608.08 643.22
  C 608.18 659.26 610.77 676.28 617.99 690.25
  Q 619.08 692.36 620.60 693.56
  A 3.52 3.20 -39.5 0 0 624.34 693.74
  C 628.19 691.56 627.00 687.97 625.48 684.23
  C 620.11 670.98 617.92 657.65 617.83 643.16
  C 617.74 628.67 619.77 615.32 624.98 602.00
  C 626.45 598.25 627.59 594.64 623.72 592.51
  A 3.52 3.20 38.8 0 0 619.98 592.74
  Q 618.47 593.96 617.41 596.08
  C 610.36 610.14 607.98 627.19 608.08 643.22
  Z
  M 648.30 692.63
  Q 637.97 692.63 628.92 689.76
  A 0.60 0.60 0.0 0 0 628.16 690.15
  C 627.10 693.55 623.77 696.57 620.08 694.51
  Q 618.90 693.85 616.32 690.25
  A 0.95 0.95 0.0 0 0 615.43 689.86
  C 614.73 689.96 614.14 690.15 613.30 690.07
  Q 604.00 689.10 592.50 687.65
  Q 555.09 682.91 525.03 679.30
  Q 469.78 672.67 459.27 671.31
  Q 431.18 667.68 400.01 664.08
  Q 383.60 662.19 343.75 657.25
  Q 339.39 656.71 333.77 656.38
  C 326.21 655.94 319.69 655.25 308.88 653.83
  Q 244.87 645.46 185.74 639.75
  A 1.79 1.78 21.0 0 0 184.13 640.46
  C 182.27 642.96 181.08 645.18 177.69 644.28
  C 175.09 643.59 173.20 640.52 171.72 637.96
  A 0.48 0.46 -11.4 0 0 171.34 637.72
  L 154.05 636.03
  A 0.53 0.53 0.0 0 0 153.59 636.89
  C 157.32 641.48 161.38 646.07 167.75 646.93
  Q 174.31 647.81 176.07 647.85
  Q 181.41 648.00 184.41 648.45
  C 191.42 649.50 199.80 649.76 207.98 650.83
  Q 213.33 651.53 219.56 651.93
  C 221.95 652.08 225.03 653.17 226.75 653.21
  C 233.00 653.37 241.85 655.40 247.77 655.65
  C 253.89 655.92 259.23 657.15 265.75 657.73
  Q 274.36 658.49 285.81 660.08
  Q 295.68 661.44 297.26 661.60
  Q 305.58 662.40 308.73 663.01
  C 312.40 663.72 317.29 663.62 320.91 664.30
  Q 327.16 665.47 330.00 665.57
  Q 330.57 665.59 350.71 667.76
  C 356.84 668.42 362.39 669.54 368.81 670.02
  C 371.51 670.22 375.23 671.15 377.50 671.27
  C 384.45 671.65 390.72 672.80 397.17 673.52
  Q 411.88 675.15 414.45 675.48
  Q 416.90 675.79 419.22 676.11
  Q 426.56 677.10 433.89 677.82
  Q 438.23 678.24 440.83 678.74
  C 446.54 679.85 451.87 679.82 458.17 680.85
  C 463.27 681.68 468.37 681.74 473.76 682.67
  C 479.18 683.60 484.49 683.70 490.59 684.78
  C 494.53 685.47 499.03 685.61 503.31 686.38
  C 506.58 686.97 508.62 687.37 511.99 687.59
  Q 517.77 687.97 520.86 688.56
  Q 525.97 689.54 529.70 689.60
  C 533.24 689.67 539.03 690.88 544.00 691.35
  C 547.09 691.64 551.43 692.01 555.00 692.64
  C 560.88 693.67 566.45 693.84 572.33 694.81
  C 577.04 695.59 583.67 695.65 589.08 696.79
  Q 591.81 697.37 595.73 697.60
  Q 598.60 697.76 605.71 698.78
  Q 609.56 699.32 616.53 699.93
  C 620.12 700.24 623.31 701.27 626.44 701.42
  Q 630.02 701.59 633.92 702.14
  Q 643.76 703.52 650.87 704.02
  A 5.03 4.94 55.0 0 1 651.95 704.22
  Q 653.86 704.80 656.25 705.01
  A 0.53 0.53 0.0 0 0 656.73 704.18
  L 648.86 692.93
  A 0.67 0.67 0.0 0 0 648.30 692.63
  Z"
/>
<path fill="#f8f0e4" d="
  M 872.37 529.82
  A 0.38 0.38 0.0 0 1 872.87 530.26
  C 869.88 543.68 868.98 558.40 869.40 571.67
  Q 869.91 587.62 875.06 603.19
  A 0.86 0.84 -21.5 0 1 874.60 604.23
  Q 764.37 654.43 688.68 688.42
  C 685.43 689.88 679.11 693.04 674.96 692.96
  C 663.93 692.74 658.91 676.33 657.28 667.45
  Q 653.49 646.81 658.82 625.08
  Q 660.05 620.06 661.95 616.96
  Q 663.17 614.96 666.07 614.18
  Q 679.83 610.47 686.26 607.78
  C 726.01 591.16 768.37 573.78 809.11 556.51
  Q 869.91 530.73 872.37 529.82
  Z
  M 658.00 652.41
  Q 659.39 645.47 660.50 642.88
  C 664.22 634.15 672.90 629.54 681.33 626.05
  Q 722.35 609.10 751.72 596.86
  C 779.40 585.33 804.69 575.60 827.75 565.44
  Q 850.59 555.38 867.22 549.26
  A 2.70 2.68 83.3 0 0 868.96 547.04
  L 870.67 532.53
  A 0.43 0.43 0.0 0 0 870.07 532.08
  Q 854.13 538.70 833.14 547.67
  Q 784.24 568.54 738.46 587.35
  C 721.27 594.41 699.96 603.61 682.18 610.65
  Q 676.99 612.70 667.25 615.03
  C 665.71 615.40 663.59 616.46 662.85 617.85
  C 660.28 622.67 659.52 628.97 658.19 633.67
  A 3.97 3.82 52.0 0 0 658.06 634.94
  Q 658.32 639.48 657.51 642.25
  A 1.62 1.40 -40.9 0 0 657.45 642.67
  L 657.19 652.58
  A 0.12 0.12 0.0 0 0 657.30 652.70
  L 657.56 652.74
  A 0.41 0.40 -81.5 0 0 658.00 652.41
  Z"
/>
<path fill="#dfd5c8" d="
  M 658.00 652.41
  A 0.41 0.40 -81.5 0 1 657.56 652.74
  L 657.30 652.70
  A 0.12 0.12 0.0 0 1 657.19 652.58
  L 657.45 642.67
  A 1.62 1.40 -40.9 0 1 657.51 642.25
  Q 658.32 639.48 658.06 634.94
  A 3.97 3.82 52.0 0 1 658.19 633.67
  C 659.52 628.97 660.28 622.67 662.85 617.85
  C 663.59 616.46 665.71 615.40 667.25 615.03
  Q 676.99 612.70 682.18 610.65
  C 699.96 603.61 721.27 594.41 738.46 587.35
  Q 784.24 568.54 833.14 547.67
  Q 854.13 538.70 870.07 532.08
  A 0.43 0.43 0.0 0 1 870.67 532.53
  L 868.96 547.04
  A 2.70 2.68 83.3 0 1 867.22 549.26
  Q 850.59 555.38 827.75 565.44
  C 804.69 575.60 779.40 585.33 751.72 596.86
  Q 722.35 609.10 681.33 626.05
  C 672.90 629.54 664.22 634.15 660.50 642.88
  Q 659.39 645.47 658.00 652.41
  Z"
/>
<path fill="#141616" d="
  M 172.91 593.41
  C 173.27 608.23 176.08 622.80 182.63 636.20
  C 183.41 637.79 183.33 640.32 182.07 641.76
  C 179.26 644.94 175.77 642.64 174.07 639.37
  C 166.84 625.41 163.65 609.41 163.28 593.64
  C 162.90 577.87 165.32 561.75 171.87 547.46
  C 173.41 544.11 176.79 541.64 179.75 544.68
  C 181.07 546.06 181.28 548.59 180.58 550.21
  C 174.67 563.91 172.56 578.60 172.91 593.41
  Z"
/>
<path fill="#d1951a" d="
  M 757.66 559.03
  Q 757.41 559.24 757.15 559.27
  A 0.27 0.25 -50.6 0 1 757.12 558.76
  Q 757.20 558.75 757.61 558.83
  A 0.11 0.11 0.0 0 1 757.66 559.03
  Z"
/>
<ellipse fill="#d1951a" cx="0.00" cy="0.00" transform="translate(754.22,560.10) rotate(-18.0)" rx="1.09" ry="0.27"/>
<ellipse fill="#d1951a" cx="0.00" cy="0.00" transform="translate(752.37,560.93) rotate(-23.5)" rx="0.70" ry="0.20"/>
<path fill="#d1951a" d="
  M 749.66 561.89
  Q 750.07 561.67 750.25 561.66
  A 0.21 0.20 23.0 0 1 750.40 562.02
  Q 749.99 562.37 749.77 562.36
  A 0.25 0.25 0.0 0 1 749.66 561.89
  Z"
/>
<ellipse fill="#d1951a" cx="0.00" cy="0.00" transform="translate(725.62,571.98) rotate(-16.4)" rx="0.68" ry="0.22"/>
<path fill="#c84719" d="
  M 721.34 573.98
  L 721.03 573.99
  A 0.09 0.09 0.0 0 1 720.94 573.87
  Q 720.99 573.77 721.22 573.75
  A 0.15 0.10 28.4 0 1 721.34 573.98
  Z"
/>
<ellipse fill="#d1951a" cx="0.00" cy="0.00" transform="translate(716.96,575.45) rotate(-20.9)" rx="2.13" ry="0.27"/>
<ellipse fill="#d1951a" cx="0.00" cy="0.00" transform="translate(710.48,578.00) rotate(-20.7)" rx="0.54" ry="0.21"/>
<path fill="#c84719" d="
  M 707.72 578.90
  Q 707.92 578.77 708.70 578.70
  A 0.16 0.16 0.0 0 1 708.78 579.00
  Q 708.04 579.34 707.86 579.35
  A 0.25 0.24 27.9 0 1 707.72 578.90
  Z"
/>
<ellipse fill="#c84719" cx="0.00" cy="0.00" transform="translate(705.71,579.97) rotate(-17.0)" rx="0.77" ry="0.24"/>
<ellipse fill="#d1951a" cx="0.00" cy="0.00" transform="translate(701.43,581.68) rotate(-21.1)" rx="2.77" ry="0.27"/>
<path fill="#141616" d="
  M 617.83 643.16
  C 617.92 657.65 620.11 670.98 625.48 684.23
  C 627.00 687.97 628.19 691.56 624.34 693.74
  A 3.52 3.20 -39.5 0 1 620.60 693.56
  Q 619.08 692.36 617.99 690.25
  C 610.77 676.28 608.18 659.26 608.08 643.22
  C 607.98 627.19 610.36 610.14 617.41 596.08
  Q 618.47 593.96 619.98 592.74
  A 3.52 3.20 38.8 0 1 623.72 592.51
  C 627.59 594.64 626.45 598.25 624.98 602.00
  C 619.77 615.32 617.74 628.67 617.83 643.16
  Z"
/>
<path fill="#efb22c" d="
  M 680.25 707.95
  A 0.39 0.39 0.0 0 1 680.30 707.23
  C 684.71 705.89 688.74 704.82 693.11 703.01
  Q 705.26 697.97 720.89 690.75
  C 748.95 677.80 780.61 663.75 846.31 634.05
  Q 862.47 626.74 879.02 619.00
  Q 883.16 617.06 890.14 614.64
  Q 892.01 613.99 893.24 614.22
  A 1.97 1.72 -73.6 0 1 894.42 616.79
  Q 893.59 618.98 891.55 620.31
  Q 885.47 624.28 876.84 628.58
  C 863.50 635.23 850.54 640.86 835.96 647.70
  Q 783.91 672.13 731.59 696.10
  Q 713.20 704.52 697.18 709.13
  Q 688.35 711.67 680.25 707.95
  Z
  M 684.34 707.80
  Q 688.39 709.58 692.56 708.80
  Q 697.68 707.85 704.42 705.63
  Q 714.53 702.30 728.48 695.90
  Q 744.27 688.66 759.91 681.56
  Q 776.31 674.11 862.22 634.23
  Q 876.05 627.81 888.44 620.95
  C 890.43 619.86 893.19 617.97 892.89 615.99
  A 0.80 0.80 0.0 0 0 891.86 615.35
  Q 885.88 617.21 880.46 619.71
  Q 836.22 640.09 784.83 663.02
  C 780.83 664.80 775.74 667.41 771.06 669.37
  Q 765.61 671.66 760.64 673.90
  Q 730.74 687.39 712.56 695.82
  Q 701.13 701.12 691.22 705.20
  Q 687.89 706.56 684.46 706.98
  A 0.43 0.43 0.0 0 0 684.34 707.80
  Z"
/>
<path fill="#d1951a" d="
  M 684.34 707.80
  A 0.43 0.43 0.0 0 1 684.46 706.98
  Q 687.89 706.56 691.22 705.20
  Q 701.13 701.12 712.56 695.82
  Q 730.74 687.39 760.64 673.90
  Q 765.61 671.66 771.06 669.37
  C 775.74 667.41 780.83 664.80 784.83 663.02
  Q 836.22 640.09 880.46 619.71
  Q 885.88 617.21 891.86 615.35
  A 0.80 0.80 0.0 0 1 892.89 615.99
  C 893.19 617.97 890.43 619.86 888.44 620.95
  Q 876.05 627.81 862.22 634.23
  Q 776.31 674.11 759.91 681.56
  Q 744.27 688.66 728.48 695.90
  Q 714.53 702.30 704.42 705.63
  Q 697.68 707.85 692.56 708.80
  Q 688.39 709.58 684.34 707.80
  Z"
/>
<path fill="#d1951a" d="
  M 648.86 692.93
  L 656.73 704.18
  A 0.53 0.53 0.0 0 1 656.25 705.01
  Q 653.86 704.80 651.95 704.22
  A 5.03 4.94 55.0 0 0 650.87 704.02
  Q 643.76 703.52 633.92 702.14
  Q 630.02 701.59 626.44 701.42
  C 623.31 701.27 620.12 700.24 616.53 699.93
  Q 609.56 699.32 605.71 698.78
  Q 598.60 697.76 595.73 697.60
  Q 591.81 697.37 589.08 696.79
  C 583.67 695.65 577.04 695.59 572.33 694.81
  C 566.45 693.84 560.88 693.67 555.00 692.64
  C 551.43 692.01 547.09 691.64 544.00 691.35
  C 539.03 690.88 533.24 689.67 529.70 689.60
  Q 525.97 689.54 520.86 688.56
  Q 517.77 687.97 511.99 687.59
  C 508.62 687.37 506.58 686.97 503.31 686.38
  C 499.03 685.61 494.53 685.47 490.59 684.78
  C 484.49 683.70 479.18 683.60 473.76 682.67
  C 468.37 681.74 463.27 681.68 458.17 680.85
  C 451.87 679.82 446.54 679.85 440.83 678.74
  Q 438.23 678.24 433.89 677.82
  Q 426.56 677.10 419.22 676.11
  Q 416.90 675.79 414.45 675.48
  Q 411.88 675.15 397.17 673.52
  C 390.72 672.80 384.45 671.65 377.50 671.27
  C 375.23 671.15 371.51 670.22 368.81 670.02
  C 362.39 669.54 356.84 668.42 350.71 667.76
  Q 330.57 665.59 330.00 665.57
  Q 327.16 665.47 320.91 664.30
  C 317.29 663.62 312.40 663.72 308.73 663.01
  Q 305.58 662.40 297.26 661.60
  Q 295.68 661.44 285.81 660.08
  Q 274.36 658.49 265.75 657.73
  C 259.23 657.15 253.89 655.92 247.77 655.65
  C 241.85 655.40 233.00 653.37 226.75 653.21
  C 225.03 653.17 221.95 652.08 219.56 651.93
  Q 213.33 651.53 207.98 650.83
  C 199.80 649.76 191.42 649.50 184.41 648.45
  Q 181.41 648.00 176.07 647.85
  Q 174.31 647.81 167.75 646.93
  C 161.38 646.07 157.32 641.48 153.59 636.89
  A 0.53 0.53 0.0 0 1 154.05 636.03
  L 171.34 637.72
  A 0.48 0.46 -11.4 0 1 171.72 637.96
  C 173.20 640.52 175.09 643.59 177.69 644.28
  C 181.08 645.18 182.27 642.96 184.13 640.46
  A 1.79 1.78 21.0 0 1 185.74 639.75
  Q 244.87 645.46 308.88 653.83
  C 319.69 655.25 326.21 655.94 333.77 656.38
  Q 339.39 656.71 343.75 657.25
  Q 383.60 662.19 400.01 664.08
  Q 431.18 667.68 459.27 671.31
  Q 469.78 672.67 525.03 679.30
  Q 555.09 682.91 592.50 687.65
  Q 604.00 689.10 613.30 690.07
  C 614.14 690.15 614.73 689.96 615.43 689.86
  A 0.95 0.95 0.0 0 1 616.32 690.25
  Q 618.90 693.85 620.08 694.51
  C 623.77 696.57 627.10 693.55 628.16 690.15
  A 0.60 0.60 0.0 0 1 628.92 689.76
  Q 637.97 692.63 648.30 692.63
  A 0.67 0.67 0.0 0 1 648.86 692.93
  Z"
/>
<path fill="#133456" d="
  M 690.73 735.75
  A 0.53 0.52 -87.7 0 1 690.09 735.05
  C 693.14 727.22 706.03 722.87 713.33 720.25
  Q 716.16 719.24 724.83 715.27
  C 748.77 704.30 765.47 696.13 787.84 685.80
  Q 816.22 672.69 842.80 660.18
  C 860.08 652.05 874.25 646.34 890.40 640.42
  Q 890.55 640.36 892.66 639.87
  A 1.04 1.04 0.0 0 1 893.92 641.08
  Q 893.52 643.13 891.87 644.10
  C 888.01 646.37 884.58 648.54 880.08 650.52
  Q 859.85 659.42 856.98 660.75
  Q 824.47 675.77 773.02 698.72
  C 751.06 708.51 726.18 720.28 700.76 732.00
  Q 696.40 734.02 690.73 735.75
  Z"
/>
<path fill="#133456" d="
  M 672.08 850.55
  A 0.42 0.42 0.0 0 1 671.73 851.19
  Q 664.01 851.27 656.00 850.66
  C 644.27 849.76 631.79 848.61 619.73 846.62
  C 610.54 845.10 601.47 844.03 591.85 842.62
  Q 575.16 840.18 493.13 827.97
  Q 476.02 825.42 459.82 823.29
  Q 443.54 821.15 426.56 818.31
  Q 420.49 817.29 409.91 815.96
  Q 400.98 814.83 393.25 813.63
  Q 389.87 813.10 359.76 808.73
  Q 285.67 797.98 282.75 797.56
  Q 255.20 793.64 235.91 790.75
  Q 225.58 789.20 210.54 787.23
  Q 198.41 785.64 185.23 783.53
  Q 166.34 780.51 163.13 780.13
  Q 154.96 779.17 147.82 776.94
  C 141.69 775.03 137.92 769.92 134.22 764.05
  Q 130.96 758.88 128.29 750.08
  Q 124.38 737.21 123.97 722.16
  C 123.38 700.14 127.28 680.11 140.09 662.14
  A 3.19 3.17 18.1 0 1 142.74 660.81
  C 146.43 660.85 150.02 661.62 154.09 662.12
  Q 171.17 664.21 245.95 672.93
  Q 276.64 676.52 337.77 684.17
  Q 398.68 691.79 459.75 699.11
  Q 511.62 705.31 561.50 711.08
  C 575.45 712.69 590.57 714.83 602.52 716.23
  Q 644.74 721.17 676.92 725.31
  A 0.83 0.83 0.0 0 1 677.55 726.51
  Q 676.17 729.20 672.82 734.98
  C 666.84 745.27 662.81 756.90 660.58 768.78
  Q 656.45 790.78 659.07 813.47
  Q 661.40 833.70 672.08 850.55
  Z
  M 167.79 773.78
  A 4.77 4.77 0.0 0 0 170.39 767.58
  Q 165.77 756.14 164.30 750.26
  Q 162.52 743.13 161.95 734.77
  Q 160.85 718.75 162.35 706.01
  C 163.33 697.65 165.68 690.08 168.73 682.75
  C 170.30 679.01 170.39 675.88 166.94 673.61
  A 2.15 2.13 -25.4 0 0 165.95 673.26
  Q 162.45 672.90 160.76 676.02
  Q 158.03 681.06 156.17 687.70
  Q 147.22 719.52 154.94 752.80
  Q 156.85 761.07 161.40 771.56
  A 4.57 4.57 0.0 0 0 167.34 773.96
  L 167.79 773.78
  Z
  M 644.64 836.55
  Q 644.86 833.60 643.76 830.99
  C 638.13 817.61 636.40 801.46 636.84 786.99
  Q 637.39 768.46 641.28 755.87
  Q 642.54 751.80 643.31 750.13
  C 644.90 746.71 647.13 742.48 646.07 739.42
  C 644.82 735.80 639.62 734.21 637.46 738.47
  Q 630.51 752.18 628.34 767.78
  C 625.50 788.24 626.42 810.89 633.04 830.69
  C 634.01 833.61 636.35 839.22 639.61 839.65
  Q 642.46 840.03 644.29 837.53
  A 1.85 1.83 -25.7 0 0 644.64 836.55
  Z"
/>
<path fill="#f8f0e4" d="
  M 876.78 668.58
  C 874.59 677.58 873.76 687.47 873.30 698.75
  Q 872.63 715.35 875.71 731.57
  Q 876.75 737.03 878.52 741.84
  A 1.18 1.18 0.0 0 1 877.93 743.30
  Q 765.24 799.12 696.92 833.45
  Q 691.45 836.20 686.03 835.99
  C 677.04 835.64 673.81 817.98 673.31 811.71
  Q 672.86 805.97 672.75 799.32
  Q 672.40 776.70 680.39 754.30
  A 0.88 0.87 9.1 0 1 681.20 753.72
  C 689.32 753.67 697.80 749.63 704.53 746.52
  Q 780.59 711.47 876.28 668.17
  A 0.36 0.36 0.0 0 1 876.78 668.58
  Z
  M 874.58 671.72
  A 0.89 0.89 0.0 0 0 873.33 670.78
  Q 854.38 679.53 830.05 690.56
  Q 769.41 718.04 704.61 747.85
  C 697.84 750.96 689.92 754.56 682.29 754.99
  A 1.37 1.35 -81.9 0 0 681.08 755.91
  Q 675.93 770.89 674.86 785.91
  A 0.36 0.35 60.7 0 0 675.53 786.10
  C 677.53 782.19 679.49 778.21 682.61 775.02
  A 6.38 6.36 6.4 0 1 683.83 774.05
  Q 689.63 770.50 694.76 767.99
  Q 704.58 763.18 724.14 754.15
  Q 757.54 738.72 791.55 723.07
  C 806.66 716.11 824.06 708.71 841.20 700.95
  Q 855.54 694.46 869.44 689.15
  C 871.45 688.38 872.20 687.30 872.58 685.38
  Q 872.63 685.13 874.58 671.72
  Z"
/>
<path fill="#dfd5c8" d="
  M 874.58 671.72
  Q 872.63 685.13 872.58 685.38
  C 872.20 687.30 871.45 688.38 869.44 689.15
  Q 855.54 694.46 841.20 700.95
  C 824.06 708.71 806.66 716.11 791.55 723.07
  Q 757.54 738.72 724.14 754.15
  Q 704.58 763.18 694.76 767.99
  Q 689.63 770.50 683.83 774.05
  A 6.38 6.36 6.4 0 0 682.61 775.02
  C 679.49 778.21 677.53 782.19 675.53 786.10
  A 0.36 0.35 60.7 0 1 674.86 785.91
  Q 675.93 770.89 681.08 755.91
  A 1.37 1.35 -81.9 0 1 682.29 754.99
  C 689.92 754.56 697.84 750.96 704.61 747.85
  Q 769.41 718.04 830.05 690.56
  Q 854.38 679.53 873.33 670.78
  A 0.89 0.89 0.0 0 1 874.58 671.72
  Z"
/>
<path fill="#141616" d="
  M 167.79 773.78
  L 167.34 773.96
  A 4.57 4.57 0.0 0 1 161.40 771.56
  Q 156.85 761.07 154.94 752.80
  Q 147.22 719.52 156.17 687.70
  Q 158.03 681.06 160.76 676.02
  Q 162.45 672.90 165.95 673.26
  A 2.15 2.13 -25.4 0 1 166.94 673.61
  C 170.39 675.88 170.30 679.01 168.73 682.75
  C 165.68 690.08 163.33 697.65 162.35 706.01
  Q 160.85 718.75 161.95 734.77
  Q 162.52 743.13 164.30 750.26
  Q 165.77 756.14 170.39 767.58
  A 4.77 4.77 0.0 0 1 167.79 773.78
  Z"
/>
<path fill="#141616" d="
  M 644.29 837.53
  Q 642.46 840.03 639.61 839.65
  C 636.35 839.22 634.01 833.61 633.04 830.69
  C 626.42 810.89 625.50 788.24 628.34 767.78
  Q 630.51 752.18 637.46 738.47
  C 639.62 734.21 644.82 735.80 646.07 739.42
  C 647.13 742.48 644.90 746.71 643.31 750.13
  Q 642.54 751.80 641.28 755.87
  Q 637.39 768.46 636.84 786.99
  C 636.40 801.46 638.13 817.61 643.76 830.99
  Q 644.86 833.60 644.64 836.55
  A 1.85 1.83 -25.7 0 1 644.29 837.53
  Z"
/>
<path fill="#133456" d="
  M 689.64 851.50
  Q 690.58 851.31 697.45 848.89
  Q 704.26 846.50 716.44 840.16
  Q 758.92 818.05 842.77 776.28
  Q 860.19 767.61 893.34 752.14
  A 1.98 1.98 0.0 0 1 896.11 754.33
  L 895.85 755.61
  A 6.41 6.40 -8.8 0 1 892.70 759.91
  Q 886.27 763.50 857.73 778.42
  Q 791.48 813.06 732.15 843.39
  C 722.27 848.45 700.07 860.28 689.44 852.36
  A 0.48 0.48 0.0 0 1 689.64 851.50
  Z"
/>
</svg>
