<?xml version="1.0" encoding="UTF-8" standalone="no"?>
<!DOCTYPE svg PUBLIC "-//W3C//DTD SVG 1.1//EN" "http://www.w3.org/Graphics/SVG/1.1/DTD/svg11.dtd">
<svg xmlns="http://www.w3.org/2000/svg" version="1.1" viewBox="0.00 0.00 1536.00 1024.00">
<g stroke-width="2.00" fill="none" stroke-linecap="butt">
<path stroke="#783c19" vector-effect="non-scaling-stroke" d="
  M 820.05 167.14
  C 810.25 158.02 810.69 138.83 813.72 127.18
  Q 814.81 122.97 815.95 118.52
  A 0.72 0.72 0.0 0 0 815.61 117.71
  C 810.08 114.65 803.16 114.14 796.75 114.13
  Q 682.16 113.96 682.00 113.96
  C 672.40 113.75 664.50 114.62 658.83 122.30
  Q 655.39 126.96 654.84 135.52
  C 654.13 146.49 655.44 157.56 663.15 164.77
  Q 666.96 168.33 673.24 168.25
  Q 698.79 167.93 814.00 168.01
  Q 815.78 168.01 819.80 167.83
  A 0.40 0.40 0.0 0 0 820.05 167.14"
/>
<path stroke="#783c19" vector-effect="non-scaling-stroke" d="
  M 833.36 399.75
  L 863.11 400.56
  A 0.99 0.97 9.9 0 0 864.05 399.91
  Q 864.56 398.43 864.92 396.48
  Q 868.13 379.39 874.10 350.93
  Q 877.93 332.67 883.40 301.98
  Q 887.69 277.92 890.45 252.25
  C 894.20 217.45 892.90 177.17 867.24 150.58
  C 860.09 143.16 851.36 138.36 841.85 135.35
  A 0.70 0.70 0.0 0 0 840.94 136.02
  L 840.94 150.40
  A 2.36 2.35 -73.0 0 0 841.97 152.35
  Q 853.89 160.47 859.96 174.31
  Q 865.81 187.64 866.95 200.77
  Q 868.76 221.45 866.01 244.50
  Q 860.18 293.24 847.83 340.57
  Q 841.00 366.76 832.84 399.07
  A 0.55 0.54 8.0 0 0 833.36 399.75"
/>
<path stroke="#783c19" vector-effect="non-scaling-stroke" d="
  M 497.48 389.40
  A 0.36 0.36 0.0 0 0 497.79 389.91
  L 526.73 391.31
  A 1.03 1.03 0.0 0 0 527.80 390.49
  Q 536.29 349.92 547.92 310.85
  C 558.72 274.57 573.21 240.88 593.79 210.30
  Q 602.19 197.83 615.20 183.23
  Q 627.21 169.76 641.01 161.12
  A 1.68 1.68 0.0 0 0 641.73 159.21
  Q 639.40 151.63 638.87 143.22
  A 0.48 0.48 0.0 0 0 638.15 142.84
  Q 620.06 153.15 605.97 166.69
  Q 582.06 189.65 565.53 215.75
  C 549.86 240.50 537.60 266.63 527.48 293.95
  Q 511.03 338.37 498.29 387.28
  Q 498.06 388.14 497.48 389.40"
/>
<path stroke="#783c19" vector-effect="non-scaling-stroke" d="
  M 655.88 324.93
  Q 651.77 304.21 650.92 283.63
  Q 648.81 232.82 656.93 184.22
  A 0.86 0.85 27.9 0 0 656.69 183.46
  L 650.09 176.86
  A 2.56 2.55 -36.2 0 0 647.11 176.40
  C 640.69 179.74 639.99 184.85 638.05 192.26
  Q 634.60 205.40 631.50 224.25
  C 625.96 257.94 623.97 291.09 626.99 323.67
  A 1.09 1.09 0.0 0 0 628.04 324.66
  L 655.49 325.40
  A 0.39 0.39 0.0 0 0 655.88 324.93"
/>
<path stroke="#783c19" vector-effect="non-scaling-stroke" d="
  M 901.07 181.08
  Q 901.21 181.76 902.25 186.05
  Q 904.20 194.10 905.17 205.01
  Q 905.45 208.07 906.06 208.95
  C 932.04 246.27 949.38 289.26 959.40 333.45
  A 0.87 0.87 0.0 0 0 960.22 334.13
  L 986.48 334.84
  A 0.29 0.29 0.0 0 0 986.76 334.46
  C 972.56 293.03 954.53 252.49 930.26 216.24
  Q 917.54 197.24 901.52 180.85
  A 0.26 0.26 0.0 0 0 901.07 181.08"
/>
<path stroke="#1c283c" vector-effect="non-scaling-stroke" d="
  M 1104.22 353.54
  A 0.35 0.35 0.0 0 0 1104.05 352.88
  Q 1098.59 353.14 1093.23 352.97
  Q 1059.44 351.90 1017.25 351.19
  Q 1009.06 351.06 1002.76 350.91
  Q 964.20 350.04 953.25 349.96
  C 945.79 349.91 933.88 349.04 924.24 349.03
  Q 910.95 349.02 891.02 348.14
  A 1.24 1.23 7.2 0 0 889.76 349.11
  L 878.39 399.98
  A 0.78 0.78 0.0 0 0 879.06 400.93
  C 891.46 402.26 893.90 411.18 891.65 421.69
  Q 883.29 460.77 882.90 462.63
  Q 881.40 469.74 880.16 471.96
  C 876.23 479.01 868.75 480.29 861.00 480.07
  Q 824.74 479.04 808.25 478.93
  Q 802.21 478.88 799.70 477.74
  Q 792.29 474.36 792.98 465.76
  Q 793.28 461.97 793.51 461.01
  Q 803.89 417.64 804.36 415.86
  C 806.44 408.02 808.87 403.34 816.16 400.54
  A 2.47 2.45 -3.6 0 0 817.67 398.84
  L 830.70 347.26
  A 0.53 0.52 -81.8 0 0 830.22 346.61
  Q 821.36 346.19 803.09 345.84
  C 798.76 345.75 793.28 345.09 789.75 345.05
  Q 775.50 344.85 765.06 344.37
  C 756.18 343.97 747.78 344.31 738.82 343.73
  Q 730.53 343.19 719.16 342.98
  C 687.33 342.37 655.69 340.85 623.93 339.85
  Q 621.59 339.78 613.99 339.48
  Q 591.63 338.61 556.13 337.01
  A 0.99 0.98 9.2 0 0 555.13 337.73
  Q 548.03 363.60 542.11 390.65
  A 0.66 0.65 -78.3 0 0 542.62 391.43
  C 546.39 392.19 550.19 393.12 552.42 396.33
  Q 556.54 402.27 555.03 409.50
  Q 550.47 431.37 545.32 454.32
  C 544.09 459.79 542.96 464.38 538.41 467.65
  C 533.92 470.88 526.61 470.70 520.20 470.57
  Q 489.22 469.94 468.46 468.82
  Q 457.51 468.23 455.93 458.50
  C 455.21 454.05 456.76 448.86 458.00 443.73
  Q 463.65 420.23 467.92 404.68
  C 469.76 397.97 472.94 392.52 480.22 390.71
  Q 481.89 390.29 482.43 389.72
  A 1.67 1.63 71.7 0 0 482.86 388.84
  Q 483.26 386.25 483.79 384.27
  Q 490.86 357.57 497.41 335.90
  A 0.49 0.49 0.0 0 0 496.96 335.27
  C 480.14 334.91 462.84 333.90 443.84 333.13
  Q 428.33 332.50 423.16 333.09
  C 410.82 334.51 400.31 337.46 388.79 342.33
  C 348.09 359.53 322.95 397.20 312.15 438.83
  Q 307.59 456.43 304.69 476.95
  A 0.75 0.75 0.0 0 0 305.39 477.80
  Q 375.67 482.27 444.80 486.05
  C 449.71 486.32 454.53 486.91 459.58 486.94
  Q 461.24 486.94 470.68 487.45
  C 525.34 490.37 570.31 492.40 614.25 494.85
  C 616.48 494.98 620.78 494.79 623.90 495.02
  C 633.27 495.72 641.11 495.69 648.38 496.15
  Q 655.34 496.60 701.00 498.82
  Q 701.94 498.86 704.25 498.91
  Q 716.07 499.15 762.02 500.91
  Q 773.05 501.33 773.84 501.39
  C 782.84 502.01 791.34 501.82 800.23 502.50
  C 807.44 503.06 813.39 502.77 821.34 503.32
  C 831.99 504.06 844.78 503.76 855.75 504.47
  C 863.23 504.96 870.52 504.66 877.77 505.24
  Q 884.84 505.82 894.26 505.91
  Q 905.24 506.03 919.00 506.86
  C 921.72 507.03 925.01 506.70 928.01 506.80
  Q 965.78 508.05 1016.18 509.09
  A 1.31 1.30 -84.6 0 0 1017.49 508.00
  Q 1024.38 467.94 1040.04 431.24
  C 1049.24 409.67 1060.97 390.80 1076.38 374.14
  Q 1088.69 360.84 1104.22 353.54"
/>
<path stroke="#1c283c" vector-effect="non-scaling-stroke" d="
  M 1182.80 364.48
  C 1186.01 369.83 1190.10 374.63 1191.81 381.20
  C 1195.31 394.61 1195.83 411.48 1190.30 424.41
  C 1184.60 437.73 1174.28 449.60 1159.54 452.04
  C 1156.99 452.46 1155.66 452.99 1154.81 455.36
  Q 1150.34 467.82 1146.82 481.42
  A 1.51 1.50 18.4 0 0 1147.71 483.19
  C 1150.03 484.14 1152.93 484.86 1155.31 486.16
  C 1165.34 491.64 1173.42 501.63 1174.28 513.49
  C 1175.07 524.44 1172.76 533.62 1164.69 540.68
  Q 1160.66 544.19 1156.45 545.41
  C 1153.26 546.33 1150.62 546.06 1146.45 546.17
  A 2.61 2.60 -77.9 0 0 1144.17 547.65
  Q 1141.40 553.43 1136.97 561.76
  Q 1121.57 590.70 1104.15 617.18
  Q 1088.80 640.50 1074.09 659.87
  Q 1058.45 680.48 1051.69 687.96
  Q 1039.59 701.36 1023.85 717.92
  C 1022.16 719.70 1021.00 721.68 1021.10 724.00
  Q 1021.92 743.90 1024.65 762.92
  Q 1026.99 779.27 1032.77 792.18
  C 1038.94 805.96 1051.96 816.70 1067.02 817.73
  Q 1068.91 817.86 1084.67 818.02
  Q 1092.69 818.10 1102.30 817.01
  Q 1123.76 814.58 1133.75 812.73
  Q 1171.50 805.71 1214.23 790.82
  C 1219.85 788.86 1226.92 786.76 1232.33 783.79
  C 1242.68 778.12 1250.85 764.66 1253.84 752.86
  Q 1257.05 740.18 1258.74 724.99
  Q 1261.07 703.95 1262.80 678.75
  Q 1263.87 663.21 1265.04 632.00
  C 1265.30 625.00 1265.94 617.97 1265.90 611.31
  Q 1265.68 574.35 1264.73 557.51
  Q 1263.40 533.81 1258.11 496.90
  Q 1256.31 484.36 1251.68 466.10
  C 1245.97 443.60 1238.51 423.76 1227.17 404.34
  Q 1219.68 391.52 1209.21 381.55
  Q 1203.27 375.90 1193.01 368.73
  Q 1188.56 365.61 1183.52 363.63
  A 0.59 0.59 0.0 0 0 1182.80 364.48"
/>
<path stroke="#1c283c" vector-effect="non-scaling-stroke" d="
  M 1112.24 365.54
  Q 1104.95 368.72 1098.34 374.34
  Q 1084.21 386.36 1074.45 400.92
  Q 1068.06 410.46 1066.12 414.12
  Q 1052.26 440.40 1045.34 462.57
  Q 1030.64 509.69 1026.24 560.24
  Q 1023.94 586.64 1022.81 612.65
  A 0.33 0.32 63.7 0 0 1023.40 612.85
  Q 1033.90 597.96 1042.54 584.30
  C 1050.11 572.33 1057.17 561.97 1064.31 549.52
  Q 1067.61 543.78 1078.88 524.19
  A 0.56 0.56 0.0 0 0 1078.57 523.38
  Q 1071.22 520.83 1070.12 513.02
  C 1068.59 502.10 1073.01 492.22 1080.07 484.40
  Q 1087.78 475.86 1099.42 474.29
  C 1103.56 473.73 1109.52 473.97 1113.70 473.91
  Q 1117.98 473.86 1119.32 470.05
  Q 1124.35 455.73 1127.20 448.48
  A 0.61 0.60 -65.6 0 0 1126.92 447.72
  Q 1110.34 439.26 1104.82 421.45
  Q 1100.90 408.84 1101.96 396.27
  Q 1103.04 383.58 1103.41 381.39
  C 1104.73 373.73 1106.12 370.02 1112.52 365.89
  A 0.18 0.18 0.0 0 0 1112.59 365.66
  L 1112.58 365.66
  A 0.26 0.26 0.0 0 0 1112.24 365.54"
/>
<path stroke="#1c283c" vector-effect="non-scaling-stroke" d="
  M 1169.07 370.87
  A 1.24 1.24 0.0 0 0 1167.85 369.69
  C 1156.48 369.53 1147.91 370.88 1133.77 373.26
  Q 1131.71 373.61 1130.91 374.74
  A 0.96 0.93 -38.2 0 0 1130.79 375.63
  Q 1132.68 380.62 1132.77 381.99
  Q 1133.00 385.34 1133.06 389.26
  A 1.42 1.42 0.0 0 0 1134.55 390.66
  Q 1149.82 390.01 1163.44 383.89
  C 1168.81 381.47 1169.33 376.11 1169.07 370.87"
/>
<path stroke="#444543" vector-effect="non-scaling-stroke" d="
  M 1131.89 435.87
  L 1132.53 428.56
  A 2.53 2.52 -63.7 0 0 1131.88 426.63
  Q 1130.99 425.66 1128.34 422.92
  C 1120.07 414.34 1119.25 399.45 1122.16 388.58
  A 3.09 3.09 0.0 0 0 1121.35 385.59
  Q 1120.07 384.31 1118.56 383.63
  A 2.70 2.69 -61.7 0 0 1115.20 384.64
  Q 1114.26 386.08 1113.88 388.69
  C 1112.23 399.84 1112.62 411.01 1117.48 421.55
  C 1120.39 427.86 1124.95 431.24 1130.92 436.27
  A 0.59 0.59 0.0 0 0 1131.89 435.87"
/>
<path stroke="#444543" vector-effect="non-scaling-stroke" d="
  M 1181.93 387.35
  A 0.56 0.56 0.0 0 0 1180.97 386.91
  L 1176.05 391.83
  A 3.49 3.47 -23.7 0 0 1175.03 394.43
  C 1175.43 405.12 1174.41 416.24 1167.65 424.85
  C 1166.32 426.55 1163.35 428.80 1161.92 430.02
  A 1.42 1.38 -16.3 0 0 1161.44 430.87
  L 1160.04 439.48
  A 0.41 0.41 0.0 0 0 1160.61 439.92
  Q 1173.33 434.25 1178.55 421.57
  C 1182.00 413.20 1183.59 403.54 1182.43 394.58
  Q 1181.77 389.49 1181.93 387.35"
/>
<path stroke="#1c283c" vector-effect="non-scaling-stroke" d="
  M 1163.31 397.92
  C 1156.42 399.60 1151.77 400.84 1146.38 401.60
  Q 1137.33 402.88 1132.93 403.74
  A 1.10 1.09 -7.8 0 0 1132.05 404.89
  C 1132.35 409.43 1134.76 415.58 1136.42 418.75
  A 0.62 0.62 0.0 0 0 1137.54 418.69
  C 1139.41 414.00 1143.57 411.02 1148.88 412.41
  C 1153.00 413.49 1154.60 415.38 1157.25 418.46
  A 1.34 1.34 0.0 0 0 1159.46 418.20
  Q 1164.34 408.74 1163.83 398.30
  A 0.42 0.41 -8.0 0 0 1163.31 397.92"
/>
<path stroke="#1c283c" vector-effect="non-scaling-stroke" d="
  M 508.50 419.39
  A 0.32 0.32 0.0 0 0 508.94 419.45
  L 525.56 406.73
  A 0.32 0.32 0.0 0 0 525.38 406.16
  L 498.01 404.82
  A 0.32 0.32 0.0 0 0 497.74 405.34
  L 508.50 419.39"
/>
<path stroke="#783c19" vector-effect="non-scaling-stroke" d="
  M 497.66 428.93
  A 0.34 0.34 0.0 0 0 497.72 428.45
  L 483.23 409.53
  A 0.34 0.34 0.0 0 0 482.63 409.65
  L 473.23 446.87
  A 0.34 0.34 0.0 0 0 473.77 447.23
  L 497.66 428.93"
/>
<path stroke="#783c19" vector-effect="non-scaling-stroke" d="
  M 518.34 429.30
  A 0.36 0.36 0.0 0 0 518.27 429.81
  L 531.24 446.74
  A 0.36 0.36 0.0 0 0 531.88 446.60
  L 539.11 414.20
  A 0.36 0.36 0.0 0 0 538.54 413.83
  L 518.34 429.30"
/>
<path stroke="#1c283c" vector-effect="non-scaling-stroke" d="
  M 845.66 428.77
  A 0.32 0.32 0.0 0 0 846.10 428.82
  L 863.03 415.85
  A 0.32 0.32 0.0 0 0 862.85 415.28
  L 834.02 414.50
  A 0.32 0.32 0.0 0 0 833.77 415.03
  L 845.66 428.77"
/>
<path stroke="#783c19" vector-effect="non-scaling-stroke" d="
  M 834.51 437.59
  A 0.34 0.34 0.0 0 0 834.56 437.10
  L 819.18 419.33
  A 0.34 0.34 0.0 0 0 818.59 419.48
  L 810.62 455.12
  A 0.34 0.34 0.0 0 0 811.16 455.46
  L 834.51 437.59"
/>
<path stroke="#783c19" vector-effect="non-scaling-stroke" d="
  M 854.34 439.86
  L 868.90 456.66
  A 0.11 0.11 0.0 0 0 869.09 456.61
  Q 873.14 438.01 875.44 426.98
  Q 875.60 426.18 876.75 422.76
  A 0.35 0.34 -78.4 0 0 876.45 422.30
  Q 876.42 422.30 876.35 422.29
  A 0.17 0.10 -48.6 0 0 876.21 422.34
  L 854.40 439.30
  A 0.39 0.39 0.0 0 0 854.34 439.86"
/>
<path stroke="#444543" vector-effect="non-scaling-stroke" d="
  M 1152.63 532.84
  Q 1154.07 533.17 1155.72 532.13
  Q 1161.26 528.64 1162.60 521.63
  C 1164.83 509.96 1158.45 499.90 1148.04 494.72
  Q 1143.65 492.54 1138.15 489.60
  Q 1134.12 487.44 1135.23 482.75
  Q 1136.26 478.38 1137.46 474.97
  Q 1143.55 457.56 1148.65 444.43
  Q 1150.61 439.39 1150.85 433.42
  A 0.83 0.83 0.0 0 0 1150.16 432.57
  L 1145.39 431.79
  A 1.09 1.09 0.0 0 0 1144.18 432.54
  C 1141.99 439.56 1137.97 448.42 1135.42 455.87
  Q 1134.38 458.91 1128.08 476.60
  C 1126.90 479.93 1124.89 484.39 1121.46 484.51
  Q 1111.29 484.86 1104.27 485.55
  C 1092.05 486.77 1080.41 497.10 1081.13 510.02
  A 1.48 1.46 6.7 0 0 1082.20 511.36
  Q 1084.00 511.86 1085.47 511.67
  A 1.32 1.32 0.0 0 0 1086.57 510.73
  C 1088.93 502.67 1092.03 496.06 1101.29 494.84
  C 1105.44 494.29 1109.75 494.06 1113.61 494.38
  Q 1120.23 494.92 1125.81 494.09
  A 3.25 3.24 -33.4 0 1 1127.97 494.53
  Q 1134.10 498.25 1140.81 501.07
  C 1150.40 505.11 1156.91 512.00 1154.68 522.98
  Q 1153.60 528.34 1152.34 532.32
  A 0.41 0.40 -74.7 0 0 1152.63 532.84"
/>
<path stroke="#783c19" vector-effect="non-scaling-stroke" d="
  M 507.58 439.22
  A 0.35 0.35 0.0 0 0 507.10 439.17
  L 487.52 454.16
  A 0.35 0.35 0.0 0 0 487.73 454.79
  L 521.06 455.69
  A 0.35 0.35 0.0 0 0 521.33 455.11
  L 507.58 439.22"
/>
<path stroke="#783c19" vector-effect="non-scaling-stroke" d="
  M 843.51 448.24
  A 0.32 0.32 0.0 0 0 843.07 448.19
  L 822.89 463.64
  A 0.32 0.32 0.0 0 0 823.07 464.21
  L 857.44 465.14
  A 0.32 0.32 0.0 0 0 857.69 464.61
  L 843.51 448.24"
/>
<path stroke="#783c19" vector-effect="non-scaling-stroke" d="
  M 1014.09 524.58
  Q 945.99 523.06 925.99 522.48
  Q 862.12 520.62 798.74 518.40
  Q 748.76 516.65 698.48 514.61
  Q 668.42 513.39 647.78 512.37
  Q 641.64 512.06 638.04 511.91
  Q 590.98 509.88 493.00 504.71
  Q 438.69 501.84 349.19 496.53
  Q 321.47 494.88 303.58 493.12
  A 0.86 0.85 -83.0 0 0 302.65 493.85
  Q 299.27 517.20 297.86 542.25
  Q 297.00 557.45 296.51 572.39
  A 0.73 0.73 0.0 0 0 297.17 573.15
  Q 308.09 574.26 329.25 575.76
  C 402.89 580.95 476.30 585.42 549.52 588.58
  Q 568.97 589.42 576.00 589.78
  Q 706.67 596.49 833.20 600.65
  Q 844.82 601.04 846.30 601.04
  C 857.62 601.03 865.74 601.70 879.09 602.01
  Q 926.69 603.12 944.47 603.59
  C 963.40 604.10 988.57 604.13 1006.63 604.78
  A 0.49 0.48 3.1 0 0 1007.13 604.34
  L 1014.19 524.69
  A 0.11 0.10 5.4 0 0 1014.09 524.58"
/>
<path stroke="#1c283c" vector-effect="non-scaling-stroke" d="
  M 244.76 675.99
  A 0.77 0.76 -66.2 0 0 246.11 675.46
  Q 246.09 675.10 246.07 674.32
  Q 245.25 644.45 255.86 618.06
  Q 261.91 603.03 270.06 589.04
  C 273.06 583.89 276.33 579.69 279.44 575.19
  Q 281.51 572.19 281.60 571.01
  Q 282.87 553.91 283.07 544.01
  Q 283.21 536.62 284.89 512.57
  Q 285.03 510.65 286.31 501.94
  A 0.26 0.26 0.0 0 0 285.87 501.73
  C 284.18 503.48 282.51 504.92 281.03 506.76
  Q 259.43 533.51 246.76 565.02
  Q 237.83 587.26 234.18 609.32
  Q 231.45 625.83 232.49 639.81
  Q 233.74 656.66 242.89 673.24
  Q 243.70 674.71 244.76 675.99"
/>
<path stroke="#1c283c" vector-effect="non-scaling-stroke" d="
  M 1102.78 505.83
  Q 1104.64 507.00 1107.28 507.27
  A 2.03 2.01 64.5 0 1 1108.20 507.60
  Q 1111.38 509.67 1121.37 511.92
  Q 1127.30 513.26 1141.14 518.84
  A 1.80 1.10 -7.4 0 0 1141.35 518.91
  L 1144.04 519.47
  A 0.75 0.75 0.0 0 0 1144.86 518.40
  Q 1142.79 514.26 1138.19 512.27
  Q 1131.15 509.22 1125.86 506.04
  A 5.69 5.66 60.3 0 0 1122.94 505.23
  L 1102.96 505.23
  A 0.33 0.32 -28.6 0 0 1102.78 505.83"
/>
<path stroke="#1c283c" vector-effect="non-scaling-stroke" d="
  M 688.34 790.91
  A 0.73 0.72 7.3 0 0 687.56 791.51
  L 681.91 826.25
  A 1.42 1.42 0.0 0 0 683.10 827.88
  Q 708.34 831.59 734.75 832.78
  Q 748.17 833.39 760.98 832.43
  Q 777.86 831.17 779.88 831.06
  C 790.40 830.48 802.62 828.25 810.95 826.18
  Q 855.92 814.98 897.17 793.15
  C 918.84 781.67 939.84 768.68 959.40 753.84
  Q 971.94 744.33 974.50 742.25
  Q 1004.38 718.07 1029.54 690.23
  C 1037.10 681.86 1043.48 673.60 1050.04 666.04
  Q 1057.13 657.86 1064.72 647.34
  C 1080.80 625.07 1095.17 604.50 1109.28 580.65
  C 1121.67 559.68 1126.88 552.03 1133.94 537.18
  A 2.65 2.64 -53.1 0 0 1133.54 534.31
  Q 1133.32 534.06 1131.65 533.09
  Q 1126.15 529.89 1120.94 526.91
  C 1113.92 522.91 1107.87 520.61 1100.45 518.18
  A 1.89 1.89 0.0 0 0 1098.18 519.12
  Q 1092.78 529.80 1088.40 537.18
  C 1082.00 547.97 1074.52 562.26 1066.80 574.03
  C 1061.29 582.44 1055.37 592.91 1048.51 603.18
  Q 1031.00 629.37 1012.09 653.35
  Q 1006.62 660.27 1000.52 667.03
  Q 979.05 690.79 958.50 708.48
  Q 936.26 727.63 929.32 732.33
  Q 909.45 745.80 903.05 749.58
  Q 886.86 759.13 867.46 767.74
  C 848.74 776.03 830.17 781.33 811.51 785.77
  Q 800.67 788.35 784.75 790.08
  Q 770.00 791.69 765.00 791.97
  Q 726.87 794.15 688.34 790.91"
/>
<path stroke="#1c283c" vector-effect="non-scaling-stroke" d="
  M 1006.42 620.47
  Q 966.48 619.63 924.68 618.16
  Q 923.91 618.14 914.00 617.93
  Q 907.54 617.80 851.75 616.24
  Q 845.58 616.07 842.93 616.09
  C 832.48 616.16 821.53 615.29 812.17 615.16
  C 802.97 615.03 794.43 614.41 786.77 614.31
  Q 775.94 614.18 767.74 613.87
  Q 728.94 612.43 656.83 609.02
  Q 645.44 608.48 625.65 607.73
  Q 604.39 606.94 594.49 606.46
  Q 577.38 605.63 567.26 605.07
  Q 518.67 602.40 455.85 599.09
  C 432.92 597.88 413.75 596.46 390.51 595.39
  Q 387.93 595.27 379.81 594.72
  Q 357.29 593.21 326.13 591.47
  Q 319.22 591.09 311.89 590.37
  Q 309.50 590.13 297.64 589.44
  A 0.52 0.51 -86.7 0 0 297.10 589.93
  Q 296.08 609.37 296.02 613.00
  Q 295.44 653.94 296.23 673.73
  Q 297.23 698.66 299.20 718.13
  Q 299.40 720.06 301.21 721.07
  Q 317.22 729.95 335.20 736.06
  Q 360.83 744.77 392.35 750.44
  Q 394.88 750.89 396.20 750.91
  A 1.21 1.20 10.8 0 0 397.34 750.14
  Q 406.95 725.34 431.90 720.73
  Q 438.10 719.59 452.72 720.52
  Q 465.98 721.36 488.47 722.14
  C 491.97 722.26 497.13 722.96 501.35 722.79
  Q 503.66 722.70 511.01 723.27
  Q 514.84 723.57 527.25 724.03
  Q 562.48 725.35 604.25 727.76
  Q 608.59 728.01 608.74 728.01
  Q 630.28 728.85 648.98 730.37
  Q 661.04 731.35 670.31 737.45
  Q 689.94 750.37 689.60 774.44
  A 0.82 0.82 0.0 0 0 690.35 775.28
  Q 722.32 778.10 755.24 777.15
  Q 790.84 776.12 824.71 766.64
  C 879.83 751.21 928.89 719.26 968.84 678.84
  Q 980.84 666.70 993.36 652.11
  Q 1000.84 643.41 1005.30 636.81
  Q 1006.69 634.77 1006.78 632.26
  Q 1007.00 626.00 1006.93 620.99
  A 0.52 0.52 0.0 0 0 1006.42 620.47"
/>
<path stroke="#1c283c" vector-effect="non-scaling-stroke" d="
  M 239.20 690.41
  Q 243.26 706.49 249.10 717.45
  Q 255.49 729.46 260.04 735.98
  Q 279.92 764.49 311.45 779.31
  Q 333.69 789.78 355.77 794.91
  Q 371.29 798.52 386.88 800.82
  A 0.87 0.86 8.4 0 0 387.86 800.10
  L 393.24 767.08
  A 0.90 0.90 0.0 0 0 392.51 766.05
  Q 367.38 761.54 342.17 754.25
  Q 330.55 750.90 321.48 747.06
  C 307.95 741.34 295.87 736.71 284.75 729.49
  Q 261.15 714.16 241.84 693.24
  A 1.46 0.68 34.0 0 1 241.73 693.10
  L 239.94 690.11
  A 0.41 0.40 22.7 0 0 239.20 690.41"
/>
<path stroke="#1c283c" vector-effect="non-scaling-stroke" d="
  M 1034.69 817.77
  A 0.33 0.33 0.0 0 0 1034.78 817.19
  C 1024.56 810.16 1018.20 798.48 1015.16 786.91
  Q 1008.38 761.02 1007.99 734.15
  A 0.54 0.54 0.0 0 0 1007.10 733.75
  Q 1002.35 737.91 989.68 748.74
  Q 979.48 757.45 971.60 762.91
  Q 969.71 764.22 956.75 773.72
  Q 951.02 777.92 941.60 784.06
  Q 920.19 798.00 899.86 808.89
  A 0.53 0.52 -41.3 0 0 899.80 809.78
  Q 900.13 810.01 901.00 810.06
  C 909.03 810.54 916.37 810.55 924.74 811.11
  Q 940.29 812.14 955.74 813.06
  Q 981.91 814.62 1001.00 815.66
  Q 1009.10 816.10 1011.18 816.29
  C 1019.22 817.01 1027.25 817.31 1032.75 818.00
  Q 1033.60 818.11 1034.69 817.77"
/>
<path stroke="#783c19" vector-effect="non-scaling-stroke" d="
  M 639.29 746.01
  A 0.57 0.57 0.0 0 0 638.75 745.35
  L 445.69 735.98
  A 0.57 0.57 0.0 0 0 445.10 736.46
  L 429.46 832.48
  A 0.57 0.57 0.0 0 0 430.00 833.14
  L 622.97 843.08
  A 0.57 0.57 0.0 0 0 623.56 842.61
  L 639.29 746.01"
/>
<path stroke="#783c19" vector-effect="non-scaling-stroke" d="
  M 430.38 737.60
  A 0.37 0.36 -5.3 0 0 429.89 737.20
  Q 417.32 741.77 412.08 752.67
  Q 410.51 755.93 407.88 772.11
  Q 407.49 774.49 402.75 802.00
  C 401.45 809.52 400.12 817.02 405.12 823.38
  Q 408.83 828.12 414.27 830.75
  A 0.72 0.72 0.0 0 0 415.30 830.22
  L 430.38 737.60"
/>
<path stroke="#783c19" vector-effect="non-scaling-stroke" d="
  M 639.42 844.07
  C 650.51 844.01 659.26 839.08 664.56 829.51
  Q 666.53 825.96 668.05 815.40
  Q 669.15 807.79 674.41 775.54
  Q 676.52 762.58 667.33 753.67
  Q 662.13 748.63 654.88 747.03
  A 0.29 0.29 0.0 0 0 654.53 747.27
  L 638.87 843.43
  A 0.56 0.55 4.4 0 0 639.42 844.07"
/>
<path stroke="#ca581c" vector-effect="non-scaling-stroke" d="
  M 658.82 153.94
  A 0.59 0.59 0.0 0 0 658.26 154.72
  Q 659.86 159.43 663.48 163.32
  C 666.18 166.20 669.32 166.99 673.26 166.94
  C 710.64 166.45 774.16 167.02 816.86 166.67
  A 0.46 0.45 72.5 0 0 817.23 165.95
  Q 813.62 160.88 811.83 154.39
  A 0.63 0.62 -8.0 0 0 811.23 153.94
  L 658.82 153.94"
/>
<path stroke="#ca581c" vector-effect="non-scaling-stroke" d="
  M 573.99 240.32
  A 0.47 0.47 0.0 0 0 574.82 240.31
  Q 583.41 223.73 592.46 210.34
  C 593.92 208.19 595.69 206.14 597.30 203.61
  Q 598.39 201.92 601.15 198.72
  Q 601.47 198.35 604.33 194.46
  Q 606.21 191.89 607.61 190.32
  Q 611.59 185.82 613.83 183.33
  Q 621.15 175.20 629.38 168.12
  C 632.71 165.26 636.41 162.93 639.70 160.74
  A 1.90 1.90 0.0 0 0 640.44 158.53
  Q 638.23 152.24 638.34 145.83
  A 1.18 1.18 0.0 0 0 636.55 144.80
  Q 625.63 151.44 622.70 153.68
  Q 617.95 157.33 615.17 159.75
  Q 585.99 185.20 565.51 217.80
  A 1.46 1.45 53.6 0 0 565.34 218.96
  Q 568.63 230.72 573.99 240.32"
/>
<path stroke="#ca581c" vector-effect="non-scaling-stroke" d="
  M 648.02 177.16
  C 641.34 180.46 641.46 185.06 639.63 190.72
  Q 638.68 193.65 637.88 197.22
  Q 632.11 223.10 629.14 250.06
  Q 628.87 252.51 628.87 253.45
  C 628.87 256.38 627.99 259.16 627.96 261.94
  C 627.87 269.12 626.45 276.72 626.76 284.37
  Q 626.98 289.58 626.92 307.24
  Q 626.91 311.21 627.60 314.74
  Q 628.18 317.74 627.86 322.12
  A 0.92 0.92 0.0 0 0 628.73 323.12
  L 653.34 324.31
  A 1.20 1.19 -4.8 0 0 654.57 322.86
  Q 651.35 308.66 650.25 293.55
  C 650.05 290.76 650.15 287.62 649.80 284.76
  Q 649.18 279.71 649.18 278.20
  Q 649.12 262.85 649.30 249.50
  C 649.37 244.56 650.01 239.38 650.21 234.73
  Q 650.99 216.20 654.12 197.82
  Q 654.81 193.76 654.76 192.18
  A 3.54 3.45 55.1 0 1 654.98 190.85
  Q 655.60 189.23 655.94 184.63
  A 1.28 1.27 24.9 0 0 655.58 183.65
  L 649.30 177.38
  A 1.11 1.11 0.0 0 0 648.02 177.16"
/>
<path stroke="#ca581c" vector-effect="non-scaling-stroke" d="
  M 904.33 186.00
  A 0.39 0.39 0.0 0 0 903.72 186.37
  L 906.85 207.60
  A 3.32 3.27 25.4 0 0 907.28 208.78
  Q 908.55 210.89 909.09 211.68
  Q 917.86 224.73 923.20 234.30
  Q 940.58 265.47 951.31 299.46
  Q 956.05 314.47 959.76 328.79
  Q 960.06 329.97 960.00 330.73
  C 959.83 332.87 961.52 333.17 963.48 333.14
  Q 972.41 333.00 983.55 333.43
  A 1.14 1.14 0.0 0 0 984.67 331.91
  Q 979.01 316.08 976.00 308.63
  Q 973.49 302.41 971.05 296.14
  Q 968.60 289.84 966.00 284.18
  Q 957.31 265.31 948.55 248.37
  C 943.66 238.91 936.22 226.80 931.86 220.24
  Q 922.23 205.75 909.11 190.27
  Q 907.18 187.99 904.33 186.00"
/>
<path stroke="#ca581c" vector-effect="non-scaling-stroke" d="
  M 428.87 739.58
  A 0.35 0.34 -6.5 0 0 428.40 739.21
  Q 419.90 742.43 415.07 749.79
  C 412.85 753.17 411.41 758.42 410.74 762.26
  Q 406.38 787.16 402.91 808.00
  Q 400.49 822.58 413.58 828.91
  A 0.57 0.57 0.0 0 0 414.39 828.49
  L 428.87 739.58"
/>
<path stroke="#ca581c" vector-effect="non-scaling-stroke" d="
  M 641.56 842.69
  Q 651.13 842.39 658.14 836.11
  Q 663.00 831.75 664.95 825.25
  Q 665.43 823.62 665.90 820.79
  Q 671.54 786.73 672.07 782.49
  C 672.83 776.44 673.94 771.16 672.82 764.54
  Q 672.43 762.26 670.10 758.81
  Q 665.07 751.34 656.56 748.58
  A 1.03 1.03 0.0 0 0 655.22 749.42
  Q 652.85 766.25 649.88 783.18
  Q 647.62 796.05 642.50 829.75
  Q 642.28 831.19 640.88 838.62
  Q 640.85 838.79 640.90 842.06
  A 0.64 0.64 0.0 0 0 641.56 842.69"
/>
</g>
<path fill="#151611" d="
  M 502.06 318.45
  C 512.60 286.50 525.15 255.36 541.00 226.49
  Q 555.55 199.99 573.87 177.87
  Q 585.47 163.88 601.00 149.69
  C 604.77 146.25 609.69 142.71 613.05 140.05
  Q 625.71 130.05 639.88 123.81
  A 1.63 1.61 89.7 0 0 640.71 122.96
  Q 645.42 111.73 654.31 105.99
  Q 663.02 100.36 671.82 99.36
  Q 676.77 98.80 688.25 98.79
  Q 744.76 98.72 801.25 98.81
  Q 807.90 98.82 813.00 100.00
  Q 828.44 103.55 836.69 116.71
  A 2.86 2.84 -9.6 0 0 838.48 117.97
  Q 851.95 120.95 863.97 128.07
  Q 875.69 135.03 887.17 148.02
  A 4.48 4.32 86.7 0 0 887.83 148.63
  C 910.41 165.15 929.50 186.64 944.92 209.82
  C 949.27 216.38 955.35 226.07 959.82 234.16
  Q 986.08 281.66 1002.21 333.77
  A 1.28 1.28 0.0 0 0 1003.39 334.67
  Q 1049.11 335.90 1072.27 336.30
  Q 1073.78 336.33 1075.52 336.38
  Q 1110.18 337.47 1144.11 338.13
  Q 1146.94 338.19 1149.35 338.63
  C 1152.47 339.20 1155.77 338.67 1158.84 339.67
  Q 1160.25 340.13 1162.66 340.11
  A 3.75 3.62 50.4 0 1 1163.63 340.22
  C 1168.18 341.33 1172.30 342.12 1176.58 343.57
  Q 1206.98 353.82 1227.51 378.54
  Q 1237.34 390.39 1245.42 405.11
  Q 1254.88 422.34 1263.24 449.24
  Q 1269.06 467.96 1271.94 484.51
  Q 1275.22 503.31 1276.92 517.75
  Q 1277.98 526.66 1279.02 539.09
  Q 1279.95 550.08 1280.30 560.48
  Q 1282.32 620.97 1278.61 673.71
  Q 1277.89 683.86 1277.92 684.56
  C 1278.09 688.74 1276.92 692.65 1277.02 696.76
  C 1277.13 701.04 1275.91 706.16 1275.90 711.00
  A 9.38 9.18 -38.9 0 1 1275.67 712.96
  C 1274.92 716.23 1275.15 719.79 1274.57 722.62
  Q 1274.41 723.38 1273.34 731.68
  Q 1270.76 751.70 1264.70 766.97
  Q 1257.89 784.10 1243.71 794.43
  Q 1235.71 800.25 1223.01 804.48
  Q 1220.88 805.18 1200.19 811.86
  Q 1185.71 816.53 1177.21 818.78
  Q 1157.88 823.87 1139.00 827.48
  Q 1127.15 829.74 1115.91 831.04
  Q 1114.16 831.24 1111.73 831.73
  C 1109.41 832.20 1106.97 831.82 1104.49 832.41
  C 1100.72 833.30 1095.68 832.84 1091.67 833.49
  Q 1088.54 834.00 1080.75 834.02
  Q 1043.67 834.08 1038.50 833.71
  Q 1026.46 832.84 1023.52 832.94
  Q 1019.10 833.08 1013.50 832.37
  C 1009.14 831.81 1002.47 832.31 997.06 831.46
  Q 994.52 831.05 990.61 831.07
  Q 986.93 831.08 981.46 830.33
  C 977.75 829.82 973.89 830.07 969.20 829.65
  Q 953.25 828.21 942.86 827.78
  C 940.87 827.69 938.92 827.05 937.01 827.07
  Q 930.06 827.13 925.58 826.48
  C 921.72 825.92 917.67 826.22 914.76 825.76
  Q 909.07 824.88 906.20 824.94
  Q 900.75 825.04 897.62 824.33
  Q 896.88 824.16 891.28 824.00
  Q 888.30 823.92 884.99 823.50
  Q 878.64 822.70 871.15 822.99
  A 6.13 5.93 -54.5 0 0 869.62 823.27
  C 863.21 825.34 856.71 828.37 850.30 830.61
  Q 847.81 831.48 839.13 834.36
  Q 814.45 842.55 788.36 845.78
  C 785.45 846.14 782.74 845.90 780.28 846.70
  A 5.07 5.04 -52.8 0 1 778.56 846.94
  C 774.84 846.80 770.94 847.70 766.84 847.90
  Q 745.40 848.94 724.45 848.02
  Q 719.39 847.80 719.06 847.75
  C 714.66 847.05 712.21 847.32 708.30 846.48
  C 705.01 845.78 701.76 846.39 698.37 845.48
  Q 696.84 845.08 694.03 844.92
  A 4.66 4.62 56.6 0 1 692.69 844.64
  Q 690.47 843.83 686.95 843.90
  A 1.92 1.69 48.7 0 1 686.49 843.84
  L 675.28 841.08
  A 0.77 0.76 -66.6 0 0 674.44 841.42
  C 669.26 849.55 661.89 854.96 652.45 857.37
  Q 646.82 858.80 642.24 859.06
  Q 639.81 859.19 632.09 859.02
  Q 626.54 858.89 621.95 858.43
  C 614.61 857.68 608.04 858.23 600.17 857.43
  C 593.63 856.76 586.88 857.35 580.64 856.46
  Q 577.11 855.95 571.54 855.99
  Q 565.84 856.04 559.07 855.30
  C 553.77 854.72 548.00 855.24 542.39 854.45
  C 536.24 853.59 527.48 854.19 520.27 853.37
  Q 516.22 852.91 509.26 852.92
  C 505.18 852.92 501.43 851.99 497.58 852.02
  Q 491.03 852.06 487.16 851.73
  Q 477.80 850.94 475.83 850.97
  C 470.68 851.05 465.79 850.09 460.71 850.05
  Q 451.56 849.97 446.73 849.31
  C 442.13 848.68 435.50 849.44 431.74 848.72
  Q 428.37 848.08 424.49 848.01
  C 421.04 847.95 419.47 847.25 416.28 846.94
  Q 415.74 846.89 413.06 846.17
  Q 399.24 842.50 391.37 830.36
  Q 387.50 824.40 386.93 817.67
  A 1.67 1.67 0.0 0 0 385.37 816.14
  Q 382.90 815.97 382.50 815.92
  Q 348.12 811.66 314.72 798.04
  Q 312.73 797.22 303.88 792.90
  Q 298.31 790.18 293.33 787.21
  Q 277.91 778.01 264.80 765.48
  Q 260.29 761.17 250.98 749.20
  Q 238.33 732.92 230.08 711.09
  Q 214.98 671.14 217.14 627.83
  Q 217.34 623.78 217.64 621.67
  Q 218.06 618.67 218.08 615.47
  A 4.89 4.87 53.0 0 1 218.24 614.31
  C 218.93 611.61 218.93 609.07 219.36 606.58
  Q 222.33 589.22 227.35 573.33
  Q 228.27 570.41 231.92 560.77
  Q 234.96 552.74 236.91 548.39
  Q 251.38 516.10 276.07 488.58
  Q 281.54 482.48 288.31 476.89
  A 3.45 3.45 0.0 0 0 289.53 474.69
  Q 292.33 453.47 297.98 432.24
  C 304.01 409.58 314.38 387.32 328.73 369.13
  Q 360.67 328.66 413.75 318.03
  Q 420.49 316.68 428.50 316.15
  Q 438.01 315.52 452.93 316.53
  C 462.01 317.15 467.02 316.89 476.25 317.47
  Q 495.14 318.64 501.12 319.08
  A 0.92 0.91 10.9 0 0 502.06 318.45
  Z
  M 820.05 167.14
  C 810.25 158.02 810.69 138.83 813.72 127.18
  Q 814.81 122.97 815.95 118.52
  A 0.72 0.72 0.0 0 0 815.61 117.71
  C 810.08 114.65 803.16 114.14 796.75 114.13
  Q 682.16 113.96 682.00 113.96
  C 672.40 113.75 664.50 114.62 658.83 122.30
  Q 655.39 126.96 654.84 135.52
  C 654.13 146.49 655.44 157.56 663.15 164.77
  Q 666.96 168.33 673.24 168.25
  Q 698.79 167.93 814.00 168.01
  Q 815.78 168.01 819.80 167.83
  A 0.40 0.40 0.0 0 0 820.05 167.14
  Z
  M 833.36 399.75
  L 863.11 400.56
  A 0.99 0.97 9.9 0 0 864.05 399.91
  Q 864.56 398.43 864.92 396.48
  Q 868.13 379.39 874.10 350.93
  Q 877.93 332.67 883.40 301.98
  Q 887.69 277.92 890.45 252.25
  C 894.20 217.45 892.90 177.17 867.24 150.58
  C 860.09 143.16 851.36 138.36 841.85 135.35
  A 0.70 0.70 0.0 0 0 840.94 136.02
  L 840.94 150.40
  A 2.36 2.35 -73.0 0 0 841.97 152.35
  Q 853.89 160.47 859.96 174.31
  Q 865.81 187.64 866.95 200.77
  Q 868.76 221.45 866.01 244.50
  Q 860.18 293.24 847.83 340.57
  Q 841.00 366.76 832.84 399.07
  A 0.55 0.54 8.0 0 0 833.36 399.75
  Z
  M 497.48 389.40
  A 0.36 0.36 0.0 0 0 497.79 389.91
  L 526.73 391.31
  A 1.03 1.03 0.0 0 0 527.80 390.49
  Q 536.29 349.92 547.92 310.85
  C 558.72 274.57 573.21 240.88 593.79 210.30
  Q 602.19 197.83 615.20 183.23
  Q 627.21 169.76 641.01 161.12
  A 1.68 1.68 0.0 0 0 641.73 159.21
  Q 639.40 151.63 638.87 143.22
  A 0.48 0.48 0.0 0 0 638.15 142.84
  Q 620.06 153.15 605.97 166.69
  Q 582.06 189.65 565.53 215.75
  C 549.86 240.50 537.60 266.63 527.48 293.95
  Q 511.03 338.37 498.29 387.28
  Q 498.06 388.14 497.48 389.40
  Z
  M 671.36 324.72
  A 0.98 0.98 0.0 0 0 672.26 325.53
  Q 683.13 326.17 693.75 326.15
  Q 694.56 326.15 696.77 326.65
  A 7.78 7.25 -36.4 0 0 698.32 326.83
  Q 717.18 326.90 731.86 327.72
  C 739.24 328.12 747.99 327.84 755.50 328.27
  Q 773.01 329.26 785.98 329.07
  C 788.77 329.03 792.99 329.95 796.39 329.95
  Q 810.16 329.97 813.00 330.24
  Q 824.18 331.33 834.59 330.93
  A 0.73 0.73 0.0 0 0 835.27 330.37
  Q 843.95 292.06 849.33 254.92
  Q 849.50 253.72 850.20 247.29
  Q 850.64 243.27 851.03 239.68
  Q 851.93 231.61 852.00 228.24
  C 852.10 222.85 852.99 218.46 852.66 212.93
  Q 852.13 203.91 851.51 200.42
  Q 850.77 196.22 849.67 191.55
  Q 848.78 187.78 846.16 181.61
  Q 845.01 178.88 843.21 176.54
  Q 841.88 174.80 840.18 175.89
  C 836.60 178.16 833.28 180.83 829.97 181.75
  Q 825.88 182.89 824.73 182.93
  Q 819.76 183.06 815.25 183.05
  Q 792.39 182.99 672.79 183.15
  A 0.48 0.48 0.0 0 0 672.31 183.57
  Q 671.13 193.01 670.36 197.57
  C 669.89 200.42 670.06 203.36 669.30 206.28
  A 7.30 7.05 -38.8 0 0 669.08 208.04
  Q 669.07 211.52 668.63 213.54
  C 667.77 217.50 668.24 221.68 667.30 225.32
  A 7.44 7.28 52.8 0 0 667.05 227.30
  C 667.07 235.19 665.97 242.67 665.95 250.61
  Q 665.92 262.10 665.95 274.12
  Q 665.96 278.72 666.49 282.85
  C 667.09 287.52 666.68 291.84 667.54 296.52
  Q 667.99 299.00 668.02 301.48
  C 668.06 304.58 668.79 306.44 669.01 309.80
  Q 669.11 311.26 669.93 316.08
  Q 669.94 316.15 671.36 324.72
  Z
  M 655.88 324.93
  Q 651.77 304.21 650.92 283.63
  Q 648.81 232.82 656.93 184.22
  A 0.86 0.85 27.9 0 0 656.69 183.46
  L 650.09 176.86
  A 2.56 2.55 -36.2 0 0 647.11 176.40
  C 640.69 179.74 639.99 184.85 638.05 192.26
  Q 634.60 205.40 631.50 224.25
  C 625.96 257.94 623.97 291.09 626.99 323.67
  A 1.09 1.09 0.0 0 0 628.04 324.66
  L 655.49 325.40
  A 0.39 0.39 0.0 0 0 655.88 324.93
  Z
  M 901.07 181.08
  Q 901.21 181.76 902.25 186.05
  Q 904.20 194.10 905.17 205.01
  Q 905.45 208.07 906.06 208.95
  C 932.04 246.27 949.38 289.26 959.40 333.45
  A 0.87 0.87 0.0 0 0 960.22 334.13
  L 986.48 334.84
  A 0.29 0.29 0.0 0 0 986.76 334.46
  C 972.56 293.03 954.53 252.49 930.26 216.24
  Q 917.54 197.24 901.52 180.85
  A 0.26 0.26 0.0 0 0 901.07 181.08
  Z
  M 621.27 198.11
  Q 610.43 211.07 601.69 225.42
  Q 587.05 249.44 576.04 276.52
  Q 566.73 299.43 559.93 322.47
  A 0.37 0.37 0.0 0 0 560.29 322.94
  Q 578.26 322.72 588.86 323.50
  Q 595.70 324.01 600.19 324.00
  Q 607.46 323.98 611.40 324.66
  A 0.57 0.56 88.9 0 0 612.05 323.98
  Q 611.42 321.15 611.16 318.75
  C 609.46 303.61 609.93 286.37 610.93 269.59
  Q 611.44 261.00 612.10 255.45
  Q 613.97 239.88 614.43 236.77
  Q 614.65 235.26 614.86 233.47
  Q 616.84 216.40 621.06 200.28
  Q 621.38 199.05 621.79 198.44
  A 0.27 0.26 -54.7 0 0 621.73 198.08
  L 621.72 198.07
  A 0.33 0.32 39.2 0 0 621.27 198.11
  Z
  M 906.25 237.00
  C 905.91 240.79 906.07 244.43 905.67 249.00
  Q 902.10 290.23 893.26 331.90
  A 0.74 0.74 0.0 0 0 893.96 332.79
  L 943.32 334.12
  A 0.77 0.76 -7.0 0 0 944.08 333.15
  Q 941.74 324.82 938.60 314.13
  Q 932.92 294.75 924.58 274.62
  Q 920.27 264.24 915.98 255.62
  Q 913.88 251.41 906.80 236.89
  A 0.29 0.29 0.0 0 0 906.25 237.00
  Z
  M 1104.22 353.54
  A 0.35 0.35 0.0 0 0 1104.05 352.88
  Q 1098.59 353.14 1093.23 352.97
  Q 1059.44 351.90 1017.25 351.19
  Q 1009.06 351.06 1002.76 350.91
  Q 964.20 350.04 953.25 349.96
  C 945.79 349.91 933.88 349.04 924.24 349.03
  Q 910.95 349.02 891.02 348.14
  A 1.24 1.23 7.2 0 0 889.76 349.11
  L 878.39 399.98
  A 0.78 0.78 0.0 0 0 879.06 400.93
  C 891.46 402.26 893.90 411.18 891.65 421.69
  Q 883.29 460.77 882.90 462.63
  Q 881.40 469.74 880.16 471.96
  C 876.23 479.01 868.75 480.29 861.00 480.07
  Q 824.74 479.04 808.25 478.93
  Q 802.21 478.88 799.70 477.74
  Q 792.29 474.36 792.98 465.76
  Q 793.28 461.97 793.51 461.01
  Q 803.89 417.64 804.36 415.86
  C 806.44 408.02 808.87 403.34 816.16 400.54
  A 2.47 2.45 -3.6 0 0 817.67 398.84
  L 830.70 347.26
  A 0.53 0.52 -81.8 0 0 830.22 346.61
  Q 821.36 346.19 803.09 345.84
  C 798.76 345.75 793.28 345.09 789.75 345.05
  Q 775.50 344.85 765.06 344.37
  C 756.18 343.97 747.78 344.31 738.82 343.73
  Q 730.53 343.19 719.16 342.98
  C 687.33 342.37 655.69 340.85 623.93 339.85
  Q 621.59 339.78 613.99 339.48
  Q 591.63 338.61 556.13 337.01
  A 0.99 0.98 9.2 0 0 555.13 337.73
  Q 548.03 363.60 542.11 390.65
  A 0.66 0.65 -78.3 0 0 542.62 391.43
  C 546.39 392.19 550.19 393.12 552.42 396.33
  Q 556.54 402.27 555.03 409.50
  Q 550.47 431.37 545.32 454.32
  C 544.09 459.79 542.96 464.38 538.41 467.65
  C 533.92 470.88 526.61 470.70 520.20 470.57
  Q 489.22 469.94 468.46 468.82
  Q 457.51 468.23 455.93 458.50
  C 455.21 454.05 456.76 448.86 458.00 443.73
  Q 463.65 420.23 467.92 404.68
  C 469.76 397.97 472.94 392.52 480.22 390.71
  Q 481.89 390.29 482.43 389.72
  A 1.67 1.63 71.7 0 0 482.86 388.84
  Q 483.26 386.25 483.79 384.27
  Q 490.86 357.57 497.41 335.90
  A 0.49 0.49 0.0 0 0 496.96 335.27
  C 480.14 334.91 462.84 333.90 443.84 333.13
  Q 428.33 332.50 423.16 333.09
  C 410.82 334.51 400.31 337.46 388.79 342.33
  C 348.09 359.53 322.95 397.20 312.15 438.83
  Q 307.59 456.43 304.69 476.95
  A 0.75 0.75 0.0 0 0 305.39 477.80
  Q 375.67 482.27 444.80 486.05
  C 449.71 486.32 454.53 486.91 459.58 486.94
  Q 461.24 486.94 470.68 487.45
  C 525.34 490.37 570.31 492.40 614.25 494.85
  C 616.48 494.98 620.78 494.79 623.90 495.02
  C 633.27 495.72 641.11 495.69 648.38 496.15
  Q 655.34 496.60 701.00 498.82
  Q 701.94 498.86 704.25 498.91
  Q 716.07 499.15 762.02 500.91
  Q 773.05 501.33 773.84 501.39
  C 782.84 502.01 791.34 501.82 800.23 502.50
  C 807.44 503.06 813.39 502.77 821.34 503.32
  C 831.99 504.06 844.78 503.76 855.75 504.47
  C 863.23 504.96 870.52 504.66 877.77 505.24
  Q 884.84 505.82 894.26 505.91
  Q 905.24 506.03 919.00 506.86
  C 921.72 507.03 925.01 506.70 928.01 506.80
  Q 965.78 508.05 1016.18 509.09
  A 1.31 1.30 -84.6 0 0 1017.49 508.00
  Q 1024.38 467.94 1040.04 431.24
  C 1049.24 409.67 1060.97 390.80 1076.38 374.14
  Q 1088.69 360.84 1104.22 353.54
  Z
  M 1182.80 364.48
  C 1186.01 369.83 1190.10 374.63 1191.81 381.20
  C 1195.31 394.61 1195.83 411.48 1190.30 424.41
  C 1184.60 437.73 1174.28 449.60 1159.54 452.04
  C 1156.99 452.46 1155.66 452.99 1154.81 455.36
  Q 1150.34 467.82 1146.82 481.42
  A 1.51 1.50 18.4 0 0 1147.71 483.19
  C 1150.03 484.14 1152.93 484.86 1155.31 486.16
  C 1165.34 491.64 1173.42 501.63 1174.28 513.49
  C 1175.07 524.44 1172.76 533.62 1164.69 540.68
  Q 1160.66 544.19 1156.45 545.41
  C 1153.26 546.33 1150.62 546.06 1146.45 546.17
  A 2.61 2.60 -77.9 0 0 1144.17 547.65
  Q 1141.40 553.43 1136.97 561.76
  Q 1121.57 590.70 1104.15 617.18
  Q 1088.80 640.50 1074.09 659.87
  Q 1058.45 680.48 1051.69 687.96
  Q 1039.59 701.36 1023.85 717.92
  C 1022.16 719.70 1021.00 721.68 1021.10 724.00
  Q 1021.92 743.90 1024.65 762.92
  Q 1026.99 779.27 1032.77 792.18
  C 1038.94 805.96 1051.96 816.70 1067.02 817.73
  Q 1068.91 817.86 1084.67 818.02
  Q 1092.69 818.10 1102.30 817.01
  Q 1123.76 814.58 1133.75 812.73
  Q 1171.50 805.71 1214.23 790.82
  C 1219.85 788.86 1226.92 786.76 1232.33 783.79
  C 1242.68 778.12 1250.85 764.66 1253.84 752.86
  Q 1257.05 740.18 1258.74 724.99
  Q 1261.07 703.95 1262.80 678.75
  Q 1263.87 663.21 1265.04 632.00
  C 1265.30 625.00 1265.94 617.97 1265.90 611.31
  Q 1265.68 574.35 1264.73 557.51
  Q 1263.40 533.81 1258.11 496.90
  Q 1256.31 484.36 1251.68 466.10
  C 1245.97 443.60 1238.51 423.76 1227.17 404.34
  Q 1219.68 391.52 1209.21 381.55
  Q 1203.27 375.90 1193.01 368.73
  Q 1188.56 365.61 1183.52 363.63
  A 0.59 0.59 0.0 0 0 1182.80 364.48
  Z
  M 1112.24 365.54
  Q 1104.95 368.72 1098.34 374.34
  Q 1084.21 386.36 1074.45 400.92
  Q 1068.06 410.46 1066.12 414.12
  Q 1052.26 440.40 1045.34 462.57
  Q 1030.64 509.69 1026.24 560.24
  Q 1023.94 586.64 1022.81 612.65
  A 0.33 0.32 63.7 0 0 1023.40 612.85
  Q 1033.90 597.96 1042.54 584.30
  C 1050.11 572.33 1057.17 561.97 1064.31 549.52
  Q 1067.61 543.78 1078.88 524.19
  A 0.56 0.56 0.0 0 0 1078.57 523.38
  Q 1071.22 520.83 1070.12 513.02
  C 1068.59 502.10 1073.01 492.22 1080.07 484.40
  Q 1087.78 475.86 1099.42 474.29
  C 1103.56 473.73 1109.52 473.97 1113.70 473.91
  Q 1117.98 473.86 1119.32 470.05
  Q 1124.35 455.73 1127.20 448.48
  A 0.61 0.60 -65.6 0 0 1126.92 447.72
  Q 1110.34 439.26 1104.82 421.45
  Q 1100.90 408.84 1101.96 396.27
  Q 1103.04 383.58 1103.41 381.39
  C 1104.73 373.73 1106.12 370.02 1112.52 365.89
  A 0.18 0.18 0.0 0 0 1112.59 365.66
  L 1112.58 365.66
  A 0.26 0.26 0.0 0 0 1112.24 365.54
  Z
  M 1169.07 370.87
  A 1.24 1.24 0.0 0 0 1167.85 369.69
  C 1156.48 369.53 1147.91 370.88 1133.77 373.26
  Q 1131.71 373.61 1130.91 374.74
  A 0.96 0.93 -38.2 0 0 1130.79 375.63
  Q 1132.68 380.62 1132.77 381.99
  Q 1133.00 385.34 1133.06 389.26
  A 1.42 1.42 0.0 0 0 1134.55 390.66
  Q 1149.82 390.01 1163.44 383.89
  C 1168.81 381.47 1169.33 376.11 1169.07 370.87
  Z
  M 1131.89 435.87
  L 1132.53 428.56
  A 2.53 2.52 -63.7 0 0 1131.88 426.63
  Q 1130.99 425.66 1128.34 422.92
  C 1120.07 414.34 1119.25 399.45 1122.16 388.58
  A 3.09 3.09 0.0 0 0 1121.35 385.59
  Q 1120.07 384.31 1118.56 383.63
  A 2.70 2.69 -61.7 0 0 1115.20 384.64
  Q 1114.26 386.08 1113.88 388.69
  C 1112.23 399.84 1112.62 411.01 1117.48 421.55
  C 1120.39 427.86 1124.95 431.24 1130.92 436.27
  A 0.59 0.59 0.0 0 0 1131.89 435.87
  Z
  M 1181.93 387.35
  A 0.56 0.56 0.0 0 0 1180.97 386.91
  L 1176.05 391.83
  A 3.49 3.47 -23.7 0 0 1175.03 394.43
  C 1175.43 405.12 1174.41 416.24 1167.65 424.85
  C 1166.32 426.55 1163.35 428.80 1161.92 430.02
  A 1.42 1.38 -16.3 0 0 1161.44 430.87
  L 1160.04 439.48
  A 0.41 0.41 0.0 0 0 1160.61 439.92
  Q 1173.33 434.25 1178.55 421.57
  C 1182.00 413.20 1183.59 403.54 1182.43 394.58
  Q 1181.77 389.49 1181.93 387.35
  Z
  M 1163.31 397.92
  C 1156.42 399.60 1151.77 400.84 1146.38 401.60
  Q 1137.33 402.88 1132.93 403.74
  A 1.10 1.09 -7.8 0 0 1132.05 404.89
  C 1132.35 409.43 1134.76 415.58 1136.42 418.75
  A 0.62 0.62 0.0 0 0 1137.54 418.69
  C 1139.41 414.00 1143.57 411.02 1148.88 412.41
  C 1153.00 413.49 1154.60 415.38 1157.25 418.46
  A 1.34 1.34 0.0 0 0 1159.46 418.20
  Q 1164.34 408.74 1163.83 398.30
  A 0.42 0.41 -8.0 0 0 1163.31 397.92
  Z
  M 508.50 419.39
  A 0.32 0.32 0.0 0 0 508.94 419.45
  L 525.56 406.73
  A 0.32 0.32 0.0 0 0 525.38 406.16
  L 498.01 404.82
  A 0.32 0.32 0.0 0 0 497.74 405.34
  L 508.50 419.39
  Z
  M 497.66 428.93
  A 0.34 0.34 0.0 0 0 497.72 428.45
  L 483.23 409.53
  A 0.34 0.34 0.0 0 0 482.63 409.65
  L 473.23 446.87
  A 0.34 0.34 0.0 0 0 473.77 447.23
  L 497.66 428.93
  Z
  M 518.34 429.30
  A 0.36 0.36 0.0 0 0 518.27 429.81
  L 531.24 446.74
  A 0.36 0.36 0.0 0 0 531.88 446.60
  L 539.11 414.20
  A 0.36 0.36 0.0 0 0 538.54 413.83
  L 518.34 429.30
  Z
  M 845.66 428.77
  A 0.32 0.32 0.0 0 0 846.10 428.82
  L 863.03 415.85
  A 0.32 0.32 0.0 0 0 862.85 415.28
  L 834.02 414.50
  A 0.32 0.32 0.0 0 0 833.77 415.03
  L 845.66 428.77
  Z
  M 834.51 437.59
  A 0.34 0.34 0.0 0 0 834.56 437.10
  L 819.18 419.33
  A 0.34 0.34 0.0 0 0 818.59 419.48
  L 810.62 455.12
  A 0.34 0.34 0.0 0 0 811.16 455.46
  L 834.51 437.59
  Z
  M 854.34 439.86
  L 868.90 456.66
  A 0.11 0.11 0.0 0 0 869.09 456.61
  Q 873.14 438.01 875.44 426.98
  Q 875.60 426.18 876.75 422.76
  A 0.35 0.34 -78.4 0 0 876.45 422.30
  Q 876.42 422.30 876.35 422.29
  A 0.17 0.10 -48.6 0 0 876.21 422.34
  L 854.40 439.30
  A 0.39 0.39 0.0 0 0 854.34 439.86
  Z
  M 1152.63 532.84
  Q 1154.07 533.17 1155.72 532.13
  Q 1161.26 528.64 1162.60 521.63
  C 1164.83 509.96 1158.45 499.90 1148.04 494.72
  Q 1143.65 492.54 1138.15 489.60
  Q 1134.12 487.44 1135.23 482.75
  Q 1136.26 478.38 1137.46 474.97
  Q 1143.55 457.56 1148.65 444.43
  Q 1150.61 439.39 1150.85 433.42
  A 0.83 0.83 0.0 0 0 1150.16 432.57
  L 1145.39 431.79
  A 1.09 1.09 0.0 0 0 1144.18 432.54
  C 1141.99 439.56 1137.97 448.42 1135.42 455.87
  Q 1134.38 458.91 1128.08 476.60
  C 1126.90 479.93 1124.89 484.39 1121.46 484.51
  Q 1111.29 484.86 1104.27 485.55
  C 1092.05 486.77 1080.41 497.10 1081.13 510.02
  A 1.48 1.46 6.7 0 0 1082.20 511.36
  Q 1084.00 511.86 1085.47 511.67
  A 1.32 1.32 0.0 0 0 1086.57 510.73
  C 1088.93 502.67 1092.03 496.06 1101.29 494.84
  C 1105.44 494.29 1109.75 494.06 1113.61 494.38
  Q 1120.23 494.92 1125.81 494.09
  A 3.25 3.24 -33.4 0 1 1127.97 494.53
  Q 1134.10 498.25 1140.81 501.07
  C 1150.40 505.11 1156.91 512.00 1154.68 522.98
  Q 1153.60 528.34 1152.34 532.32
  A 0.41 0.40 -74.7 0 0 1152.63 532.84
  Z
  M 507.58 439.22
  A 0.35 0.35 0.0 0 0 507.10 439.17
  L 487.52 454.16
  A 0.35 0.35 0.0 0 0 487.73 454.79
  L 521.06 455.69
  A 0.35 0.35 0.0 0 0 521.33 455.11
  L 507.58 439.22
  Z
  M 843.51 448.24
  A 0.32 0.32 0.0 0 0 843.07 448.19
  L 822.89 463.64
  A 0.32 0.32 0.0 0 0 823.07 464.21
  L 857.44 465.14
  A 0.32 0.32 0.0 0 0 857.69 464.61
  L 843.51 448.24
  Z
  M 1014.09 524.58
  Q 945.99 523.06 925.99 522.48
  Q 862.12 520.62 798.74 518.40
  Q 748.76 516.65 698.48 514.61
  Q 668.42 513.39 647.78 512.37
  Q 641.64 512.06 638.04 511.91
  Q 590.98 509.88 493.00 504.71
  Q 438.69 501.84 349.19 496.53
  Q 321.47 494.88 303.58 493.12
  A 0.86 0.85 -83.0 0 0 302.65 493.85
  Q 299.27 517.20 297.86 542.25
  Q 297.00 557.45 296.51 572.39
  A 0.73 0.73 0.0 0 0 297.17 573.15
  Q 308.09 574.26 329.25 575.76
  C 402.89 580.95 476.30 585.42 549.52 588.58
  Q 568.97 589.42 576.00 589.78
  Q 706.67 596.49 833.20 600.65
  Q 844.82 601.04 846.30 601.04
  C 857.62 601.03 865.74 601.70 879.09 602.01
  Q 926.69 603.12 944.47 603.59
  C 963.40 604.10 988.57 604.13 1006.63 604.78
  A 0.49 0.48 3.1 0 0 1007.13 604.34
  L 1014.19 524.69
  A 0.11 0.10 5.4 0 0 1014.09 524.58
  Z
  M 244.76 675.99
  A 0.77 0.76 -66.2 0 0 246.11 675.46
  Q 246.09 675.10 246.07 674.32
  Q 245.25 644.45 255.86 618.06
  Q 261.91 603.03 270.06 589.04
  C 273.06 583.89 276.33 579.69 279.44 575.19
  Q 281.51 572.19 281.60 571.01
  Q 282.87 553.91 283.07 544.01
  Q 283.21 536.62 284.89 512.57
  Q 285.03 510.65 286.31 501.94
  A 0.26 0.26 0.0 0 0 285.87 501.73
  C 284.18 503.48 282.51 504.92 281.03 506.76
  Q 259.43 533.51 246.76 565.02
  Q 237.83 587.26 234.18 609.32
  Q 231.45 625.83 232.49 639.81
  Q 233.74 656.66 242.89 673.24
  Q 243.70 674.71 244.76 675.99
  Z
  M 1102.78 505.83
  Q 1104.64 507.00 1107.28 507.27
  A 2.03 2.01 64.5 0 1 1108.20 507.60
  Q 1111.38 509.67 1121.37 511.92
  Q 1127.30 513.26 1141.14 518.84
  A 1.80 1.10 -7.4 0 0 1141.35 518.91
  L 1144.04 519.47
  A 0.75 0.75 0.0 0 0 1144.86 518.40
  Q 1142.79 514.26 1138.19 512.27
  Q 1131.15 509.22 1125.86 506.04
  A 5.69 5.66 60.3 0 0 1122.94 505.23
  L 1102.96 505.23
  A 0.33 0.32 -28.6 0 0 1102.78 505.83
  Z
  M 688.34 790.91
  A 0.73 0.72 7.3 0 0 687.56 791.51
  L 681.91 826.25
  A 1.42 1.42 0.0 0 0 683.10 827.88
  Q 708.34 831.59 734.75 832.78
  Q 748.17 833.39 760.98 832.43
  Q 777.86 831.17 779.88 831.06
  C 790.40 830.48 802.62 828.25 810.95 826.18
  Q 855.92 814.98 897.17 793.15
  C 918.84 781.67 939.84 768.68 959.40 753.84
  Q 971.94 744.33 974.50 742.25
  Q 1004.38 718.07 1029.54 690.23
  C 1037.10 681.86 1043.48 673.60 1050.04 666.04
  Q 1057.13 657.86 1064.72 647.34
  C 1080.80 625.07 1095.17 604.50 1109.28 580.65
  C 1121.67 559.68 1126.88 552.03 1133.94 537.18
  A 2.65 2.64 -53.1 0 0 1133.54 534.31
  Q 1133.32 534.06 1131.65 533.09
  Q 1126.15 529.89 1120.94 526.91
  C 1113.92 522.91 1107.87 520.61 1100.45 518.18
  A 1.89 1.89 0.0 0 0 1098.18 519.12
  Q 1092.78 529.80 1088.40 537.18
  C 1082.00 547.97 1074.52 562.26 1066.80 574.03
  C 1061.29 582.44 1055.37 592.91 1048.51 603.18
  Q 1031.00 629.37 1012.09 653.35
  Q 1006.62 660.27 1000.52 667.03
  Q 979.05 690.79 958.50 708.48
  Q 936.26 727.63 929.32 732.33
  Q 909.45 745.80 903.05 749.58
  Q 886.86 759.13 867.46 767.74
  C 848.74 776.03 830.17 781.33 811.51 785.77
  Q 800.67 788.35 784.75 790.08
  Q 770.00 791.69 765.00 791.97
  Q 726.87 794.15 688.34 790.91
  Z
  M 1006.42 620.47
  Q 966.48 619.63 924.68 618.16
  Q 923.91 618.14 914.00 617.93
  Q 907.54 617.80 851.75 616.24
  Q 845.58 616.07 842.93 616.09
  C 832.48 616.16 821.53 615.29 812.17 615.16
  C 802.97 615.03 794.43 614.41 786.77 614.31
  Q 775.94 614.18 767.74 613.87
  Q 728.94 612.43 656.83 609.02
  Q 645.44 608.48 625.65 607.73
  Q 604.39 606.94 594.49 606.46
  Q 577.38 605.63 567.26 605.07
  Q 518.67 602.40 455.85 599.09
  C 432.92 597.88 413.75 596.46 390.51 595.39
  Q 387.93 595.27 379.81 594.72
  Q 357.29 593.21 326.13 591.47
  Q 319.22 591.09 311.89 590.37
  Q 309.50 590.13 297.64 589.44
  A 0.52 0.51 -86.7 0 0 297.10 589.93
  Q 296.08 609.37 296.02 613.00
  Q 295.44 653.94 296.23 673.73
  Q 297.23 698.66 299.20 718.13
  Q 299.40 720.06 301.21 721.07
  Q 317.22 729.95 335.20 736.06
  Q 360.83 744.77 392.35 750.44
  Q 394.88 750.89 396.20 750.91
  A 1.21 1.20 10.8 0 0 397.34 750.14
  Q 406.95 725.34 431.90 720.73
  Q 438.10 719.59 452.72 720.52
  Q 465.98 721.36 488.47 722.14
  C 491.97 722.26 497.13 722.96 501.35 722.79
  Q 503.66 722.70 511.01 723.27
  Q 514.84 723.57 527.25 724.03
  Q 562.48 725.35 604.25 727.76
  Q 608.59 728.01 608.74 728.01
  Q 630.28 728.85 648.98 730.37
  Q 661.04 731.35 670.31 737.45
  Q 689.94 750.37 689.60 774.44
  A 0.82 0.82 0.0 0 0 690.35 775.28
  Q 722.32 778.10 755.24 777.15
  Q 790.84 776.12 824.71 766.64
  C 879.83 751.21 928.89 719.26 968.84 678.84
  Q 980.84 666.70 993.36 652.11
  Q 1000.84 643.41 1005.30 636.81
  Q 1006.69 634.77 1006.78 632.26
  Q 1007.00 626.00 1006.93 620.99
  A 0.52 0.52 0.0 0 0 1006.42 620.47
  Z
  M 281.21 597.93
  Q 275.83 608.22 271.55 618.05
  Q 265.67 631.57 262.89 645.21
  Q 260.64 656.21 260.73 668.54
  Q 260.83 682.59 262.36 691.94
  C 262.65 693.68 265.12 694.75 266.01 695.77
  Q 267.26 697.22 272.57 701.81
  Q 275.37 704.22 283.53 710.63
  A 0.32 0.31 15.1 0 0 284.04 710.34
  C 281.95 696.56 281.90 684.57 281.20 670.25
  Q 280.38 653.29 280.74 614.25
  Q 280.81 606.51 281.80 598.11
  A 0.31 0.31 0.0 0 0 281.21 597.93
  Z
  M 239.20 690.41
  Q 243.26 706.49 249.10 717.45
  Q 255.49 729.46 260.04 735.98
  Q 279.92 764.49 311.45 779.31
  Q 333.69 789.78 355.77 794.91
  Q 371.29 798.52 386.88 800.82
  A 0.87 0.86 8.4 0 0 387.86 800.10
  L 393.24 767.08
  A 0.90 0.90 0.0 0 0 392.51 766.05
  Q 367.38 761.54 342.17 754.25
  Q 330.55 750.90 321.48 747.06
  C 307.95 741.34 295.87 736.71 284.75 729.49
  Q 261.15 714.16 241.84 693.24
  A 1.46 0.68 34.0 0 1 241.73 693.10
  L 239.94 690.11
  A 0.41 0.40 22.7 0 0 239.20 690.41
  Z
  M 1034.69 817.77
  A 0.33 0.33 0.0 0 0 1034.78 817.19
  C 1024.56 810.16 1018.20 798.48 1015.16 786.91
  Q 1008.38 761.02 1007.99 734.15
  A 0.54 0.54 0.0 0 0 1007.10 733.75
  Q 1002.35 737.91 989.68 748.74
  Q 979.48 757.45 971.60 762.91
  Q 969.71 764.22 956.75 773.72
  Q 951.02 777.92 941.60 784.06
  Q 920.19 798.00 899.86 808.89
  A 0.53 0.52 -41.3 0 0 899.80 809.78
  Q 900.13 810.01 901.00 810.06
  C 909.03 810.54 916.37 810.55 924.74 811.11
  Q 940.29 812.14 955.74 813.06
  Q 981.91 814.62 1001.00 815.66
  Q 1009.10 816.10 1011.18 816.29
  C 1019.22 817.01 1027.25 817.31 1032.75 818.00
  Q 1033.60 818.11 1034.69 817.77
  Z
  M 639.29 746.01
  A 0.57 0.57 0.0 0 0 638.75 745.35
  L 445.69 735.98
  A 0.57 0.57 0.0 0 0 445.10 736.46
  L 429.46 832.48
  A 0.57 0.57 0.0 0 0 430.00 833.14
  L 622.97 843.08
  A 0.57 0.57 0.0 0 0 623.56 842.61
  L 639.29 746.01
  Z
  M 430.38 737.60
  A 0.37 0.36 -5.3 0 0 429.89 737.20
  Q 417.32 741.77 412.08 752.67
  Q 410.51 755.93 407.88 772.11
  Q 407.49 774.49 402.75 802.00
  C 401.45 809.52 400.12 817.02 405.12 823.38
  Q 408.83 828.12 414.27 830.75
  A 0.72 0.72 0.0 0 0 415.30 830.22
  L 430.38 737.60
  Z
  M 639.42 844.07
  C 650.51 844.01 659.26 839.08 664.56 829.51
  Q 666.53 825.96 668.05 815.40
  Q 669.15 807.79 674.41 775.54
  Q 676.52 762.58 667.33 753.67
  Q 662.13 748.63 654.88 747.03
  A 0.29 0.29 0.0 0 0 654.53 747.27
  L 638.87 843.43
  A 0.56 0.55 4.4 0 0 639.42 844.07
  Z"
/>
<path fill="#db6221" d="
  M 820.05 167.14
  A 0.40 0.40 0.0 0 1 819.80 167.83
  Q 815.78 168.01 814.00 168.01
  Q 698.79 167.93 673.24 168.25
  Q 666.96 168.33 663.15 164.77
  C 655.44 157.56 654.13 146.49 654.84 135.52
  Q 655.39 126.96 658.83 122.30
  C 664.50 114.62 672.40 113.75 682.00 113.96
  Q 682.16 113.96 796.75 114.13
  C 803.16 114.14 810.08 114.65 815.61 117.71
  A 0.72 0.72 0.0 0 1 815.95 118.52
  Q 814.81 122.97 813.72 127.18
  C 810.69 138.83 810.25 158.02 820.05 167.14
  Z
  M 658.82 153.94
  A 0.59 0.59 0.0 0 0 658.26 154.72
  Q 659.86 159.43 663.48 163.32
  C 666.18 166.20 669.32 166.99 673.26 166.94
  C 710.64 166.45 774.16 167.02 816.86 166.67
  A 0.46 0.45 72.5 0 0 817.23 165.95
  Q 813.62 160.88 811.83 154.39
  A 0.63 0.62 -8.0 0 0 811.23 153.94
  L 658.82 153.94
  Z"
/>
<path fill="#db6221" d="
  M 832.84 399.07
  Q 841.00 366.76 847.83 340.57
  Q 860.18 293.24 866.01 244.50
  Q 868.76 221.45 866.95 200.77
  Q 865.81 187.64 859.96 174.31
  Q 853.89 160.47 841.97 152.35
  A 2.36 2.35 -73.0 0 1 840.94 150.40
  L 840.94 136.02
  A 0.70 0.70 0.0 0 1 841.85 135.35
  C 851.36 138.36 860.09 143.16 867.24 150.58
  C 892.90 177.17 894.20 217.45 890.45 252.25
  Q 887.69 277.92 883.40 301.98
  Q 877.93 332.67 874.10 350.93
  Q 868.13 379.39 864.92 396.48
  Q 864.56 398.43 864.05 399.91
  A 0.99 0.97 9.9 0 1 863.11 400.56
  L 833.36 399.75
  A 0.55 0.54 8.0 0 1 832.84 399.07
  Z"
/>
<path fill="#db6221" d="
  M 497.48 389.40
  Q 498.06 388.14 498.29 387.28
  Q 511.03 338.37 527.48 293.95
  C 537.60 266.63 549.86 240.50 565.53 215.75
  Q 582.06 189.65 605.97 166.69
  Q 620.06 153.15 638.15 142.84
  A 0.48 0.48 0.0 0 1 638.87 143.22
  Q 639.40 151.63 641.73 159.21
  A 1.68 1.68 0.0 0 1 641.01 161.12
  Q 627.21 169.76 615.20 183.23
  Q 602.19 197.83 593.79 210.30
  C 573.21 240.88 558.72 274.57 547.92 310.85
  Q 536.29 349.92 527.80 390.49
  A 1.03 1.03 0.0 0 1 526.73 391.31
  L 497.79 389.91
  A 0.36 0.36 0.0 0 1 497.48 389.40
  Z
  M 573.99 240.32
  A 0.47 0.47 0.0 0 0 574.82 240.31
  Q 583.41 223.73 592.46 210.34
  C 593.92 208.19 595.69 206.14 597.30 203.61
  Q 598.39 201.92 601.15 198.72
  Q 601.47 198.35 604.33 194.46
  Q 606.21 191.89 607.61 190.32
  Q 611.59 185.82 613.83 183.33
  Q 621.15 175.20 629.38 168.12
  C 632.71 165.26 636.41 162.93 639.70 160.74
  A 1.90 1.90 0.0 0 0 640.44 158.53
  Q 638.23 152.24 638.34 145.83
  A 1.18 1.18 0.0 0 0 636.55 144.80
  Q 625.63 151.44 622.70 153.68
  Q 617.95 157.33 615.17 159.75
  Q 585.99 185.20 565.51 217.80
  A 1.46 1.45 53.6 0 0 565.34 218.96
  Q 568.63 230.72 573.99 240.32
  Z"
/>
<path fill="#b94e16" d="
  M 573.99 240.32
  Q 568.63 230.72 565.34 218.96
  A 1.46 1.45 53.6 0 1 565.51 217.80
  Q 585.99 185.20 615.17 159.75
  Q 617.95 157.33 622.70 153.68
  Q 625.63 151.44 636.55 144.80
  A 1.18 1.18 0.0 0 1 638.34 145.83
  Q 638.23 152.24 640.44 158.53
  A 1.90 1.90 0.0 0 1 639.70 160.74
  C 636.41 162.93 632.71 165.26 629.38 168.12
  Q 621.15 175.20 613.83 183.33
  Q 611.59 185.82 607.61 190.32
  Q 606.21 191.89 604.33 194.46
  Q 601.47 198.35 601.15 198.72
  Q 598.39 201.92 597.30 203.61
  C 595.69 206.14 593.92 208.19 592.46 210.34
  Q 583.41 223.73 574.82 240.31
  A 0.47 0.47 0.0 0 1 573.99 240.32
  Z"
/>
<path fill="#b94e16" d="
  M 658.82 153.94
  L 811.23 153.94
  A 0.63 0.62 -8.0 0 1 811.83 154.39
  Q 813.62 160.88 817.23 165.95
  A 0.46 0.45 72.5 0 1 816.86 166.67
  C 774.16 167.02 710.64 166.45 673.26 166.94
  C 669.32 166.99 666.18 166.20 663.48 163.32
  Q 659.86 159.43 658.26 154.72
  A 0.59 0.59 0.0 0 1 658.82 153.94
  Z"
/>
<path fill="#db6221" d="
  M 655.88 324.93
  A 0.39 0.39 0.0 0 1 655.49 325.40
  L 628.04 324.66
  A 1.09 1.09 0.0 0 1 626.99 323.67
  C 623.97 291.09 625.96 257.94 631.50 224.25
  Q 634.60 205.40 638.05 192.26
  C 639.99 184.85 640.69 179.74 647.11 176.40
  A 2.56 2.55 -36.2 0 1 650.09 176.86
  L 656.69 183.46
  A 0.86 0.85 27.9 0 1 656.93 184.22
  Q 648.81 232.82 650.92 283.63
  Q 651.77 304.21 655.88 324.93
  Z
  M 648.02 177.16
  C 641.34 180.46 641.46 185.06 639.63 190.72
  Q 638.68 193.65 637.88 197.22
  Q 632.11 223.10 629.14 250.06
  Q 628.87 252.51 628.87 253.45
  C 628.87 256.38 627.99 259.16 627.96 261.94
  C 627.87 269.12 626.45 276.72 626.76 284.37
  Q 626.98 289.58 626.92 307.24
  Q 626.91 311.21 627.60 314.74
  Q 628.18 317.74 627.86 322.12
  A 0.92 0.92 0.0 0 0 628.73 323.12
  L 653.34 324.31
  A 1.20 1.19 -4.8 0 0 654.57 322.86
  Q 651.35 308.66 650.25 293.55
  C 650.05 290.76 650.15 287.62 649.80 284.76
  Q 649.18 279.71 649.18 278.20
  Q 649.12 262.85 649.30 249.50
  C 649.37 244.56 650.01 239.38 650.21 234.73
  Q 650.99 216.20 654.12 197.82
  Q 654.81 193.76 654.76 192.18
  A 3.54 3.45 55.1 0 1 654.98 190.85
  Q 655.60 189.23 655.94 184.63
  A 1.28 1.27 24.9 0 0 655.58 183.65
  L 649.30 177.38
  A 1.11 1.11 0.0 0 0 648.02 177.16
  Z"
/>
<path fill="#b94e16" d="
  M 649.30 177.38
  L 655.58 183.65
  A 1.28 1.27 24.9 0 1 655.94 184.63
  Q 655.60 189.23 654.98 190.85
  A 3.54 3.45 55.1 0 0 654.76 192.18
  Q 654.81 193.76 654.12 197.82
  Q 650.99 216.20 650.21 234.73
  C 650.01 239.38 649.37 244.56 649.30 249.50
  Q 649.12 262.85 649.18 278.20
  Q 649.18 279.71 649.80 284.76
  C 650.15 287.62 650.05 290.76 650.25 293.55
  Q 651.35 308.66 654.57 322.86
  A 1.20 1.19 -4.8 0 1 653.34 324.31
  L 628.73 323.12
  A 0.92 0.92 0.0 0 1 627.86 322.12
  Q 628.18 317.74 627.60 314.74
  Q 626.91 311.21 626.92 307.24
  Q 626.98 289.58 626.76 284.37
  C 626.45 276.72 627.87 269.12 627.96 261.94
  C 627.99 259.16 628.87 256.38 628.87 253.45
  Q 628.87 252.51 629.14 250.06
  Q 632.11 223.10 637.88 197.22
  Q 638.68 193.65 639.63 190.72
  C 641.46 185.06 641.34 180.46 648.02 177.16
  A 1.11 1.11 0.0 0 1 649.30 177.38
  Z"
/>
<path fill="#db6221" d="
  M 901.52 180.85
  Q 917.54 197.24 930.26 216.24
  C 954.53 252.49 972.56 293.03 986.76 334.46
  A 0.29 0.29 0.0 0 1 986.48 334.84
  L 960.22 334.13
  A 0.87 0.87 0.0 0 1 959.40 333.45
  C 949.38 289.26 932.04 246.27 906.06 208.95
  Q 905.45 208.07 905.17 205.01
  Q 904.20 194.10 902.25 186.05
  Q 901.21 181.76 901.07 181.08
  A 0.26 0.26 0.0 0 1 901.52 180.85
  Z
  M 904.33 186.00
  A 0.39 0.39 0.0 0 0 903.72 186.37
  L 906.85 207.60
  A 3.32 3.27 25.4 0 0 907.28 208.78
  Q 908.55 210.89 909.09 211.68
  Q 917.86 224.73 923.20 234.30
  Q 940.58 265.47 951.31 299.46
  Q 956.05 314.47 959.76 328.79
  Q 960.06 329.97 960.00 330.73
  C 959.83 332.87 961.52 333.17 963.48 333.14
  Q 972.41 333.00 983.55 333.43
  A 1.14 1.14 0.0 0 0 984.67 331.91
  Q 979.01 316.08 976.00 308.63
  Q 973.49 302.41 971.05 296.14
  Q 968.60 289.84 966.00 284.18
  Q 957.31 265.31 948.55 248.37
  C 943.66 238.91 936.22 226.80 931.86 220.24
  Q 922.23 205.75 909.11 190.27
  Q 907.18 187.99 904.33 186.00
  Z"
/>
<path fill="#b94e16" d="
  M 904.33 186.00
  Q 907.18 187.99 909.11 190.27
  Q 922.23 205.75 931.86 220.24
  C 936.22 226.80 943.66 238.91 948.55 248.37
  Q 957.31 265.31 966.00 284.18
  Q 968.60 289.84 971.05 296.14
  Q 973.49 302.41 976.00 308.63
  Q 979.01 316.08 984.67 331.91
  A 1.14 1.14 0.0 0 1 983.55 333.43
  Q 972.41 333.00 963.48 333.14
  C 961.52 333.17 959.83 332.87 960.00 330.73
  Q 960.06 329.97 959.76 328.79
  Q 956.05 314.47 951.31 299.46
  Q 940.58 265.47 923.20 234.30
  Q 917.86 224.73 909.09 211.68
  Q 908.55 210.89 907.28 208.78
  A 3.32 3.27 25.4 0 1 906.85 207.60
  L 903.72 186.37
  A 0.39 0.39 0.0 0 1 904.33 186.00
  Z"
/>
<path fill="#233a66" d="
  M 1104.22 353.54
  Q 1088.69 360.84 1076.38 374.14
  C 1060.97 390.80 1049.24 409.67 1040.04 431.24
  Q 1024.38 467.94 1017.49 508.00
  A 1.31 1.30 -84.6 0 1 1016.18 509.09
  Q 965.78 508.05 928.01 506.80
  C 925.01 506.70 921.72 507.03 919.00 506.86
  Q 905.24 506.03 894.26 505.91
  Q 884.84 505.82 877.77 505.24
  C 870.52 504.66 863.23 504.96 855.75 504.47
  C 844.78 503.76 831.99 504.06 821.34 503.32
  C 813.39 502.77 807.44 503.06 800.23 502.50
  C 791.34 501.82 782.84 502.01 773.84 501.39
  Q 773.05 501.33 762.02 500.91
  Q 716.07 499.15 704.25 498.91
  Q 701.94 498.86 701.00 498.82
  Q 655.34 496.60 648.38 496.15
  C 641.11 495.69 633.27 495.72 623.90 495.02
  C 620.78 494.79 616.48 494.98 614.25 494.85
  C 570.31 492.40 525.34 490.37 470.68 487.45
  Q 461.24 486.94 459.58 486.94
  C 454.53 486.91 449.71 486.32 444.80 486.05
  Q 375.67 482.27 305.39 477.80
  A 0.75 0.75 0.0 0 1 304.69 476.95
  Q 307.59 456.43 312.15 438.83
  C 322.95 397.20 348.09 359.53 388.79 342.33
  C 400.31 337.46 410.82 334.51 423.16 333.09
  Q 428.33 332.50 443.84 333.13
  C 462.84 333.90 480.14 334.91 496.96 335.27
  A 0.49 0.49 0.0 0 1 497.41 335.90
  Q 490.86 357.57 483.79 384.27
  Q 483.26 386.25 482.86 388.84
  A 1.67 1.63 71.7 0 1 482.43 389.72
  Q 481.89 390.29 480.22 390.71
  C 472.94 392.52 469.76 397.97 467.92 404.68
  Q 463.65 420.23 458.00 443.73
  C 456.76 448.86 455.21 454.05 455.93 458.50
  Q 457.51 468.23 468.46 468.82
  Q 489.22 469.94 520.20 470.57
  C 526.61 470.70 533.92 470.88 538.41 467.65
  C 542.96 464.38 544.09 459.79 545.32 454.32
  Q 550.47 431.37 555.03 409.50
  Q 556.54 402.27 552.42 396.33
  C 550.19 393.12 546.39 392.19 542.62 391.43
  A 0.66 0.65 -78.3 0 1 542.11 390.65
  Q 548.03 363.60 555.13 337.73
  A 0.99 0.98 9.2 0 1 556.13 337.01
  Q 591.63 338.61 613.99 339.48
  Q 621.59 339.78 623.93 339.85
  C 655.69 340.85 687.33 342.37 719.16 342.98
  Q 730.53 343.19 738.82 343.73
  C 747.78 344.31 756.18 343.97 765.06 344.37
  Q 775.50 344.85 789.75 345.05
  C 793.28 345.09 798.76 345.75 803.09 345.84
  Q 821.36 346.19 830.22 346.61
  A 0.53 0.52 -81.8 0 1 830.70 347.26
  L 817.67 398.84
  A 2.47 2.45 -3.6 0 1 816.16 400.54
  C 808.87 403.34 806.44 408.02 804.36 415.86
  Q 803.89 417.64 793.51 461.01
  Q 793.28 461.97 792.98 465.76
  Q 792.29 474.36 799.70 477.74
  Q 802.21 478.88 808.25 478.93
  Q 824.74 479.04 861.00 480.07
  C 868.75 480.29 876.23 479.01 880.16 471.96
  Q 881.40 469.74 882.90 462.63
  Q 883.29 460.77 891.65 421.69
  C 893.90 411.18 891.46 402.26 879.06 400.93
  A 0.78 0.78 0.0 0 1 878.39 399.98
  L 889.76 349.11
  A 1.24 1.23 7.2 0 1 891.02 348.14
  Q 910.95 349.02 924.24 349.03
  C 933.88 349.04 945.79 349.91 953.25 349.96
  Q 964.20 350.04 1002.76 350.91
  Q 1009.06 351.06 1017.25 351.19
  Q 1059.44 351.90 1093.23 352.97
  Q 1098.59 353.14 1104.05 352.88
  A 0.35 0.35 0.0 0 1 1104.22 353.54
  Z"
/>
<path fill="#233a66" d="
  M 1182.80 364.48
  A 0.59 0.59 0.0 0 1 1183.52 363.63
  Q 1188.56 365.61 1193.01 368.73
  Q 1203.27 375.90 1209.21 381.55
  Q 1219.68 391.52 1227.17 404.34
  C 1238.51 423.76 1245.97 443.60 1251.68 466.10
  Q 1256.31 484.36 1258.11 496.90
  Q 1263.40 533.81 1264.73 557.51
  Q 1265.68 574.35 1265.90 611.31
  C 1265.94 617.97 1265.30 625.00 1265.04 632.00
  Q 1263.87 663.21 1262.80 678.75
  Q 1261.07 703.95 1258.74 724.99
  Q 1257.05 740.18 1253.84 752.86
  C 1250.85 764.66 1242.68 778.12 1232.33 783.79
  C 1226.92 786.76 1219.85 788.86 1214.23 790.82
  Q 1171.50 805.71 1133.75 812.73
  Q 1123.76 814.58 1102.30 817.01
  Q 1092.69 818.10 1084.67 818.02
  Q 1068.91 817.86 1067.02 817.73
  C 1051.96 816.70 1038.94 805.96 1032.77 792.18
  Q 1026.99 779.27 1024.65 762.92
  Q 1021.92 743.90 1021.10 724.00
  C 1021.00 721.68 1022.16 719.70 1023.85 717.92
  Q 1039.59 701.36 1051.69 687.96
  Q 1058.45 680.48 1074.09 659.87
  Q 1088.80 640.50 1104.15 617.18
  Q 1121.57 590.70 1136.97 561.76
  Q 1141.40 553.43 1144.17 547.65
  A 2.61 2.60 -77.9 0 1 1146.45 546.17
  C 1150.62 546.06 1153.26 546.33 1156.45 545.41
  Q 1160.66 544.19 1164.69 540.68
  C 1172.76 533.62 1175.07 524.44 1174.28 513.49
  C 1173.42 501.63 1165.34 491.64 1155.31 486.16
  C 1152.93 484.86 1150.03 484.14 1147.71 483.19
  A 1.51 1.50 18.4 0 1 1146.82 481.42
  Q 1150.34 467.82 1154.81 455.36
  C 1155.66 452.99 1156.99 452.46 1159.54 452.04
  C 1174.28 449.60 1184.60 437.73 1190.30 424.41
  C 1195.83 411.48 1195.31 394.61 1191.81 381.20
  C 1190.10 374.63 1186.01 369.83 1182.80 364.48
  Z"
/>
<path fill="#233a66" d="
  M 1112.24 365.54
  A 0.26 0.26 0.0 0 1 1112.58 365.66
  L 1112.59 365.66
  A 0.18 0.18 0.0 0 1 1112.52 365.89
  C 1106.12 370.02 1104.73 373.73 1103.41 381.39
  Q 1103.04 383.58 1101.96 396.27
  Q 1100.90 408.84 1104.82 421.45
  Q 1110.34 439.26 1126.92 447.72
  A 0.61 0.60 -65.6 0 1 1127.20 448.48
  Q 1124.35 455.73 1119.32 470.05
  Q 1117.98 473.86 1113.70 473.91
  C 1109.52 473.97 1103.56 473.73 1099.42 474.29
  Q 1087.78 475.86 1080.07 484.40
  C 1073.01 492.22 1068.59 502.10 1070.12 513.02
  Q 1071.22 520.83 1078.57 523.38
  A 0.56 0.56 0.0 0 1 1078.88 524.19
  Q 1067.61 543.78 1064.31 549.52
  C 1057.17 561.97 1050.11 572.33 1042.54 584.30
  Q 1033.90 597.96 1023.40 612.85
  A 0.33 0.32 63.7 0 1 1022.81 612.65
  Q 1023.94 586.64 1026.24 560.24
  Q 1030.64 509.69 1045.34 462.57
  Q 1052.26 440.40 1066.12 414.12
  Q 1068.06 410.46 1074.45 400.92
  Q 1084.21 386.36 1098.34 374.34
  Q 1104.95 368.72 1112.24 365.54
  Z"
/>
<path fill="#233a66" d="
  M 1169.07 370.87
  C 1169.33 376.11 1168.81 381.47 1163.44 383.89
  Q 1149.82 390.01 1134.55 390.66
  A 1.42 1.42 0.0 0 1 1133.06 389.26
  Q 1133.00 385.34 1132.77 381.99
  Q 1132.68 380.62 1130.79 375.63
  A 0.96 0.93 -38.2 0 1 1130.91 374.74
  Q 1131.71 373.61 1133.77 373.26
  C 1147.91 370.88 1156.48 369.53 1167.85 369.69
  A 1.24 1.24 0.0 0 1 1169.07 370.87
  Z"
/>
<path fill="#737375" d="
  M 1131.89 435.87
  A 0.59 0.59 0.0 0 1 1130.92 436.27
  C 1124.95 431.24 1120.39 427.86 1117.48 421.55
  C 1112.62 411.01 1112.23 399.84 1113.88 388.69
  Q 1114.26 386.08 1115.20 384.64
  A 2.70 2.69 -61.7 0 1 1118.56 383.63
  Q 1120.07 384.31 1121.35 385.59
  A 3.09 3.09 0.0 0 1 1122.16 388.58
  C 1119.25 399.45 1120.07 414.34 1128.34 422.92
  Q 1130.99 425.66 1131.88 426.63
  A 2.53 2.52 -63.7 0 1 1132.53 428.56
  L 1131.89 435.87
  Z"
/>
<path fill="#737375" d="
  M 1181.93 387.35
  Q 1181.77 389.49 1182.43 394.58
  C 1183.59 403.54 1182.00 413.20 1178.55 421.57
  Q 1173.33 434.25 1160.61 439.92
  A 0.41 0.41 0.0 0 1 1160.04 439.48
  L 1161.44 430.87
  A 1.42 1.38 -16.3 0 1 1161.92 430.02
  C 1163.35 428.80 1166.32 426.55 1167.65 424.85
  C 1174.41 416.24 1175.43 405.12 1175.03 394.43
  A 3.49 3.47 -23.7 0 1 1176.05 391.83
  L 1180.97 386.91
  A 0.56 0.56 0.0 0 1 1181.93 387.35
  Z"
/>
<path fill="#233a66" d="
  M 1163.31 397.92
  A 0.42 0.41 -8.0 0 1 1163.83 398.30
  Q 1164.34 408.74 1159.46 418.20
  A 1.34 1.34 0.0 0 1 1157.25 418.46
  C 1154.60 415.38 1153.00 413.49 1148.88 412.41
  C 1143.57 411.02 1139.41 414.00 1137.54 418.69
  A 0.62 0.62 0.0 0 1 1136.42 418.75
  C 1134.76 415.58 1132.35 409.43 1132.05 404.89
  A 1.10 1.09 -7.8 0 1 1132.93 403.74
  Q 1137.33 402.88 1146.38 401.60
  C 1151.77 400.84 1156.42 399.60 1163.31 397.92
  Z"
/>
<path fill="#233a66" d="
  M 508.50 419.39
  L 497.74 405.34
  A 0.32 0.32 0.0 0 1 498.01 404.82
  L 525.38 406.16
  A 0.32 0.32 0.0 0 1 525.56 406.73
  L 508.94 419.45
  A 0.32 0.32 0.0 0 1 508.50 419.39
  Z"
/>
<path fill="#db6221" d="
  M 497.66 428.93
  L 473.77 447.23
  A 0.34 0.34 0.0 0 1 473.23 446.87
  L 482.63 409.65
  A 0.34 0.34 0.0 0 1 483.23 409.53
  L 497.72 428.45
  A 0.34 0.34 0.0 0 1 497.66 428.93
  Z"
/>
<path fill="#db6221" d="
  M 518.34 429.30
  L 538.54 413.83
  A 0.36 0.36 0.0 0 1 539.11 414.20
  L 531.88 446.60
  A 0.36 0.36 0.0 0 1 531.24 446.74
  L 518.27 429.81
  A 0.36 0.36 0.0 0 1 518.34 429.30
  Z"
/>
<path fill="#233a66" d="
  M 845.66 428.77
  L 833.77 415.03
  A 0.32 0.32 0.0 0 1 834.02 414.50
  L 862.85 415.28
  A 0.32 0.32 0.0 0 1 863.03 415.85
  L 846.10 428.82
  A 0.32 0.32 0.0 0 1 845.66 428.77
  Z"
/>
<path fill="#db6221" d="
  M 834.51 437.59
  L 811.16 455.46
  A 0.34 0.34 0.0 0 1 810.62 455.12
  L 818.59 419.48
  A 0.34 0.34 0.0 0 1 819.18 419.33
  L 834.56 437.10
  A 0.34 0.34 0.0 0 1 834.51 437.59
  Z"
/>
<path fill="#db6221" d="
  M 854.34 439.86
  A 0.39 0.39 0.0 0 1 854.40 439.30
  L 876.21 422.34
  A 0.17 0.10 -48.6 0 1 876.35 422.29
  Q 876.42 422.30 876.45 422.30
  A 0.35 0.34 -78.4 0 1 876.75 422.76
  Q 875.60 426.18 875.44 426.98
  Q 873.14 438.01 869.09 456.61
  A 0.11 0.11 0.0 0 1 868.90 456.66
  L 854.34 439.86
  Z"
/>
<path fill="#737375" d="
  M 1152.63 532.84
  A 0.41 0.40 -74.7 0 1 1152.34 532.32
  Q 1153.60 528.34 1154.68 522.98
  C 1156.91 512.00 1150.40 505.11 1140.81 501.07
  Q 1134.10 498.25 1127.97 494.53
  A 3.25 3.24 -33.4 0 0 1125.81 494.09
  Q 1120.23 494.92 1113.61 494.38
  C 1109.75 494.06 1105.44 494.29 1101.29 494.84
  C 1092.03 496.06 1088.93 502.67 1086.57 510.73
  A 1.32 1.32 0.0 0 1 1085.47 511.67
  Q 1084.00 511.86 1082.20 511.36
  A 1.48 1.46 6.7 0 1 1081.13 510.02
  C 1080.41 497.10 1092.05 486.77 1104.27 485.55
  Q 1111.29 484.86 1121.46 484.51
  C 1124.89 484.39 1126.90 479.93 1128.08 476.60
  Q 1134.38 458.91 1135.42 455.87
  C 1137.97 448.42 1141.99 439.56 1144.18 432.54
  A 1.09 1.09 0.0 0 1 1145.39 431.79
  L 1150.16 432.57
  A 0.83 0.83 0.0 0 1 1150.85 433.42
  Q 1150.61 439.39 1148.65 444.43
  Q 1143.55 457.56 1137.46 474.97
  Q 1136.26 478.38 1135.23 482.75
  Q 1134.12 487.44 1138.15 489.60
  Q 1143.65 492.54 1148.04 494.72
  C 1158.45 499.90 1164.83 509.96 1162.60 521.63
  Q 1161.26 528.64 1155.72 532.13
  Q 1154.07 533.17 1152.63 532.84
  Z"
/>
<path fill="#db6221" d="
  M 507.58 439.22
  L 521.33 455.11
  A 0.35 0.35 0.0 0 1 521.06 455.69
  L 487.73 454.79
  A 0.35 0.35 0.0 0 1 487.52 454.16
  L 507.10 439.17
  A 0.35 0.35 0.0 0 1 507.58 439.22
  Z"
/>
<path fill="#db6221" d="
  M 843.51 448.24
  L 857.69 464.61
  A 0.32 0.32 0.0 0 1 857.44 465.14
  L 823.07 464.21
  A 0.32 0.32 0.0 0 1 822.89 463.64
  L 843.07 448.19
  A 0.32 0.32 0.0 0 1 843.51 448.24
  Z"
/>
<path fill="#db6221" d="
  M 1014.09 524.58
  A 0.11 0.10 5.4 0 1 1014.19 524.69
  L 1007.13 604.34
  A 0.49 0.48 3.1 0 1 1006.63 604.78
  C 988.57 604.13 963.40 604.10 944.47 603.59
  Q 926.69 603.12 879.09 602.01
  C 865.74 601.70 857.62 601.03 846.30 601.04
  Q 844.82 601.04 833.20 600.65
  Q 706.67 596.49 576.00 589.78
  Q 568.97 589.42 549.52 588.58
  C 476.30 585.42 402.89 580.95 329.25 575.76
  Q 308.09 574.26 297.17 573.15
  A 0.73 0.73 0.0 0 1 296.51 572.39
  Q 297.00 557.45 297.86 542.25
  Q 299.27 517.20 302.65 493.85
  A 0.86 0.85 -83.0 0 1 303.58 493.12
  Q 321.47 494.88 349.19 496.53
  Q 438.69 501.84 493.00 504.71
  Q 590.98 509.88 638.04 511.91
  Q 641.64 512.06 647.78 512.37
  Q 668.42 513.39 698.48 514.61
  Q 748.76 516.65 798.74 518.40
  Q 862.12 520.62 925.99 522.48
  Q 945.99 523.06 1014.09 524.58
  Z"
/>
<path fill="#233a66" d="
  M 244.76 675.99
  Q 243.70 674.71 242.89 673.24
  Q 233.74 656.66 232.49 639.81
  Q 231.45 625.83 234.18 609.32
  Q 237.83 587.26 246.76 565.02
  Q 259.43 533.51 281.03 506.76
  C 282.51 504.92 284.18 503.48 285.87 501.73
  A 0.26 0.26 0.0 0 1 286.31 501.94
  Q 285.03 510.65 284.89 512.57
  Q 283.21 536.62 283.07 544.01
  Q 282.87 553.91 281.60 571.01
  Q 281.51 572.19 279.44 575.19
  C 276.33 579.69 273.06 583.89 270.06 589.04
  Q 261.91 603.03 255.86 618.06
  Q 245.25 644.45 246.07 674.32
  Q 246.09 675.10 246.11 675.46
  A 0.77 0.76 -66.2 0 1 244.76 675.99
  Z"
/>
<path fill="#233a66" d="
  M 1102.78 505.83
  A 0.33 0.32 -28.6 0 1 1102.96 505.23
  L 1122.94 505.23
  A 5.69 5.66 60.3 0 1 1125.86 506.04
  Q 1131.15 509.22 1138.19 512.27
  Q 1142.79 514.26 1144.86 518.40
  A 0.75 0.75 0.0 0 1 1144.04 519.47
  L 1141.35 518.91
  A 1.80 1.10 -7.4 0 1 1141.14 518.84
  Q 1127.30 513.26 1121.37 511.92
  Q 1111.38 509.67 1108.20 507.60
  A 2.03 2.01 64.5 0 0 1107.28 507.27
  Q 1104.64 507.00 1102.78 505.83
  Z"
/>
<path fill="#233a66" d="
  M 688.34 790.91
  Q 726.87 794.15 765.00 791.97
  Q 770.00 791.69 784.75 790.08
  Q 800.67 788.35 811.51 785.77
  C 830.17 781.33 848.74 776.03 867.46 767.74
  Q 886.86 759.13 903.05 749.58
  Q 909.45 745.80 929.32 732.33
  Q 936.26 727.63 958.50 708.48
  Q 979.05 690.79 1000.52 667.03
  Q 1006.62 660.27 1012.09 653.35
  Q 1031.00 629.37 1048.51 603.18
  C 1055.37 592.91 1061.29 582.44 1066.80 574.03
  C 1074.52 562.26 1082.00 547.97 1088.40 537.18
  Q 1092.78 529.80 1098.18 519.12
  A 1.89 1.89 0.0 0 1 1100.45 518.18
  C 1107.87 520.61 1113.92 522.91 1120.94 526.91
  Q 1126.15 529.89 1131.65 533.09
  Q 1133.32 534.06 1133.54 534.31
  A 2.65 2.64 -53.1 0 1 1133.94 537.18
  C 1126.88 552.03 1121.67 559.68 1109.28 580.65
  C 1095.17 604.50 1080.80 625.07 1064.72 647.34
  Q 1057.13 657.86 1050.04 666.04
  C 1043.48 673.60 1037.10 681.86 1029.54 690.23
  Q 1004.38 718.07 974.50 742.25
  Q 971.94 744.33 959.40 753.84
  C 939.84 768.68 918.84 781.67 897.17 793.15
  Q 855.92 814.98 810.95 826.18
  C 802.62 828.25 790.40 830.48 779.88 831.06
  Q 777.86 831.17 760.98 832.43
  Q 748.17 833.39 734.75 832.78
  Q 708.34 831.59 683.10 827.88
  A 1.42 1.42 0.0 0 1 681.91 826.25
  L 687.56 791.51
  A 0.73 0.72 7.3 0 1 688.34 790.91
  Z"
/>
<path fill="#233a66" d="
  M 1006.42 620.47
  A 0.52 0.52 0.0 0 1 1006.93 620.99
  Q 1007.00 626.00 1006.78 632.26
  Q 1006.69 634.77 1005.30 636.81
  Q 1000.84 643.41 993.36 652.11
  Q 980.84 666.70 968.84 678.84
  C 928.89 719.26 879.83 751.21 824.71 766.64
  Q 790.84 776.12 755.24 777.15
  Q 722.32 778.10 690.35 775.28
  A 0.82 0.82 0.0 0 1 689.60 774.44
  Q 689.94 750.37 670.31 737.45
  Q 661.04 731.35 648.98 730.37
  Q 630.28 728.85 608.74 728.01
  Q 608.59 728.01 604.25 727.76
  Q 562.48 725.35 527.25 724.03
  Q 514.84 723.57 511.01 723.27
  Q 503.66 722.70 501.35 722.79
  C 497.13 722.96 491.97 722.26 488.47 722.14
  Q 465.98 721.36 452.72 720.52
  Q 438.10 719.59 431.90 720.73
  Q 406.95 725.34 397.34 750.14
  A 1.21 1.20 10.8 0 1 396.20 750.91
  Q 394.88 750.89 392.35 750.44
  Q 360.83 744.77 335.20 736.06
  Q 317.22 729.95 301.21 721.07
  Q 299.40 720.06 299.20 718.13
  Q 297.23 698.66 296.23 673.73
  Q 295.44 653.94 296.02 613.00
  Q 296.08 609.37 297.10 589.93
  A 0.52 0.51 -86.7 0 1 297.64 589.44
  Q 309.50 590.13 311.89 590.37
  Q 319.22 591.09 326.13 591.47
  Q 357.29 593.21 379.81 594.72
  Q 387.93 595.27 390.51 595.39
  C 413.75 596.46 432.92 597.88 455.85 599.09
  Q 518.67 602.40 567.26 605.07
  Q 577.38 605.63 594.49 606.46
  Q 604.39 606.94 625.65 607.73
  Q 645.44 608.48 656.83 609.02
  Q 728.94 612.43 767.74 613.87
  Q 775.94 614.18 786.77 614.31
  C 794.43 614.41 802.97 615.03 812.17 615.16
  C 821.53 615.29 832.48 616.16 842.93 616.09
  Q 845.58 616.07 851.75 616.24
  Q 907.54 617.80 914.00 617.93
  Q 923.91 618.14 924.68 618.16
  Q 966.48 619.63 1006.42 620.47
  Z"
/>
<path fill="#233a66" d="
  M 239.94 690.11
  L 241.73 693.10
  A 1.46 0.68 34.0 0 0 241.84 693.24
  Q 261.15 714.16 284.75 729.49
  C 295.87 736.71 307.95 741.34 321.48 747.06
  Q 330.55 750.90 342.17 754.25
  Q 367.38 761.54 392.51 766.05
  A 0.90 0.90 0.0 0 1 393.24 767.08
  L 387.86 800.10
  A 0.87 0.86 8.4 0 1 386.88 800.82
  Q 371.29 798.52 355.77 794.91
  Q 333.69 789.78 311.45 779.31
  Q 279.92 764.49 260.04 735.98
  Q 255.49 729.46 249.10 717.45
  Q 243.26 706.49 239.20 690.41
  A 0.41 0.40 22.7 0 1 239.94 690.11
  Z"
/>
<path fill="#233a66" d="
  M 1034.69 817.77
  Q 1033.60 818.11 1032.75 818.00
  C 1027.25 817.31 1019.22 817.01 1011.18 816.29
  Q 1009.10 816.10 1001.00 815.66
  Q 981.91 814.62 955.74 813.06
  Q 940.29 812.14 924.74 811.11
  C 916.37 810.55 909.03 810.54 901.00 810.06
  Q 900.13 810.01 899.80 809.78
  A 0.53 0.52 -41.3 0 1 899.86 808.89
  Q 920.19 798.00 941.60 784.06
  Q 951.02 777.92 956.75 773.72
  Q 969.71 764.22 971.60 762.91
  Q 979.48 757.45 989.68 748.74
  Q 1002.35 737.91 1007.10 733.75
  A 0.54 0.54 0.0 0 1 1007.99 734.15
  Q 1008.38 761.02 1015.16 786.91
  C 1018.20 798.48 1024.56 810.16 1034.78 817.19
  A 0.33 0.33 0.0 0 1 1034.69 817.77
  Z"
/>
<path fill="#db6221" d="
  M 639.29 746.01
  L 623.56 842.61
  A 0.57 0.57 0.0 0 1 622.97 843.08
  L 430.00 833.14
  A 0.57 0.57 0.0 0 1 429.46 832.48
  L 445.10 736.46
  A 0.57 0.57 0.0 0 1 445.69 735.98
  L 638.75 745.35
  A 0.57 0.57 0.0 0 1 639.29 746.01
  Z"
/>
<path fill="#db6221" d="
  M 430.38 737.60
  L 415.30 830.22
  A 0.72 0.72 0.0 0 1 414.27 830.75
  Q 408.83 828.12 405.12 823.38
  C 400.12 817.02 401.45 809.52 402.75 802.00
  Q 407.49 774.49 407.88 772.11
  Q 410.51 755.93 412.08 752.67
  Q 417.32 741.77 429.89 737.20
  A 0.37 0.36 -5.3 0 1 430.38 737.60
  Z
  M 428.87 739.58
  A 0.35 0.34 -6.5 0 0 428.40 739.21
  Q 419.90 742.43 415.07 749.79
  C 412.85 753.17 411.41 758.42 410.74 762.26
  Q 406.38 787.16 402.91 808.00
  Q 400.49 822.58 413.58 828.91
  A 0.57 0.57 0.0 0 0 414.39 828.49
  L 428.87 739.58
  Z"
/>
<path fill="#b94e16" d="
  M 428.87 739.58
  L 414.39 828.49
  A 0.57 0.57 0.0 0 1 413.58 828.91
  Q 400.49 822.58 402.91 808.00
  Q 406.38 787.16 410.74 762.26
  C 411.41 758.42 412.85 753.17 415.07 749.79
  Q 419.90 742.43 428.40 739.21
  A 0.35 0.34 -6.5 0 1 428.87 739.58
  Z"
/>
<path fill="#db6221" d="
  M 639.42 844.07
  A 0.56 0.55 4.4 0 1 638.87 843.43
  L 654.53 747.27
  A 0.29 0.29 0.0 0 1 654.88 747.03
  Q 662.13 748.63 667.33 753.67
  Q 676.52 762.58 674.41 775.54
  Q 669.15 807.79 668.05 815.40
  Q 666.53 825.96 664.56 829.51
  C 659.26 839.08 650.51 844.01 639.42 844.07
  Z
  M 641.56 842.69
  Q 651.13 842.39 658.14 836.11
  Q 663.00 831.75 664.95 825.25
  Q 665.43 823.62 665.90 820.79
  Q 671.54 786.73 672.07 782.49
  C 672.83 776.44 673.94 771.16 672.82 764.54
  Q 672.43 762.26 670.10 758.81
  Q 665.07 751.34 656.56 748.58
  A 1.03 1.03 0.0 0 0 655.22 749.42
  Q 652.85 766.25 649.88 783.18
  Q 647.62 796.05 642.50 829.75
  Q 642.28 831.19 640.88 838.62
  Q 640.85 838.79 640.90 842.06
  A 0.64 0.64 0.0 0 0 641.56 842.69
  Z"
/>
<path fill="#b94e16" d="
  M 640.90 842.06
  Q 640.85 838.79 640.88 838.62
  Q 642.28 831.19 642.50 829.75
  Q 647.62 796.05 649.88 783.18
  Q 652.85 766.25 655.22 749.42
  A 1.03 1.03 0.0 0 1 656.56 748.58
  Q 665.07 751.34 670.10 758.81
  Q 672.43 762.26 672.82 764.54
  C 673.94 771.16 672.83 776.44 672.07 782.49
  Q 671.54 786.73 665.90 820.79
  Q 665.43 823.62 664.95 825.25
  Q 663.00 831.75 658.14 836.11
  Q 651.13 842.39 641.56 842.69
  A 0.64 0.64 0.0 0 1 640.90 842.06
  Z"
/>
</svg>
