<?xml version="1.0" encoding="UTF-8" standalone="no"?>
<!DOCTYPE svg PUBLIC "-//W3C//DTD SVG 1.1//EN" "http://www.w3.org/Graphics/SVG/1.1/DTD/svg11.dtd">
<svg xmlns="http://www.w3.org/2000/svg" version="1.1" viewBox="0.00 0.00 1024.00 1024.00">
<g stroke-width="2.00" fill="none" stroke-linecap="butt">
<path stroke="#773c16" vector-effect="non-scaling-stroke" d="
  M 321.01 271.74
  L 317.03 274.84"
/>
<path stroke="#83541d" vector-effect="non-scaling-stroke" d="
  M 514.31 460.26
  Q 515.41 459.65 515.78 459.27
  Q 535.81 438.75 555.90 417.90
  Q 568.54 404.79 572.44 400.80
  A 1.31 1.30 45.8 0 0 572.46 398.99
  Q 559.13 384.80 549.02 370.50
  Q 539.53 357.08 530.21 338.78
  C 509.32 297.75 497.22 252.63 493.88 206.43
  A 0.68 0.68 0.0 0 0 493.19 205.80
  Q 467.77 206.06 441.46 212.25
  Q 377.00 227.42 324.54 268.53
  Q 323.65 269.22 321.01 271.74"
/>
<path stroke="#eb8124" vector-effect="non-scaling-stroke" d="
  M 512.78 458.84
  Q 516.34 457.35 517.91 455.67
  C 522.63 450.61 527.74 445.02 533.16 439.57
  C 546.01 426.63 557.72 413.57 570.69 401.01
  A 1.42 1.41 46.6 0 0 570.74 399.03
  Q 564.94 392.76 556.74 382.57
  Q 541.02 363.02 530.15 341.33
  C 524.61 330.26 520.04 320.65 515.75 309.53
  Q 496.83 260.37 492.83 207.81
  A 1.14 1.13 -2.9 0 0 491.66 206.76
  C 488.32 206.84 485.29 206.70 482.02 207.00
  Q 467.68 208.35 463.64 208.96
  Q 455.60 210.18 444.56 212.48
  Q 436.32 214.19 425.80 217.32
  Q 391.41 227.57 359.77 245.76
  Q 340.67 256.75 321.56 272.38
  A 0.51 0.51 0.0 0 1 320.88 272.35
  Q 320.79 272.26 321.01 271.74"
/>
<path stroke="#773c16" vector-effect="non-scaling-stroke" d="
  M 601.39 371.09
  Q 602.62 370.89 604.32 369.02"
/>
<path stroke="#83541d" vector-effect="non-scaling-stroke" d="
  M 604.32 369.02
  Q 611.11 362.51 617.62 355.63
  Q 649.23 322.21 650.87 320.62
  C 657.47 314.18 663.77 306.83 670.33 300.07
  Q 685.20 284.73 699.53 269.22
  A 1.29 1.29 0.0 0 0 699.35 267.32
  Q 654.34 234.01 600.83 218.19
  Q 577.06 211.16 555.08 208.35
  Q 546.69 207.28 535.78 206.89"
/>
<path stroke="#eb8124" vector-effect="non-scaling-stroke" d="
  M 604.32 369.02
  Q 603.71 369.17 603.48 368.96
  A 0.38 0.38 0.0 0 1 603.47 368.41
  Q 610.70 361.18 615.90 355.57
  C 618.48 352.79 621.20 350.54 624.11 347.10
  C 629.74 340.44 636.08 334.68 642.18 328.03
  C 649.43 320.12 656.71 313.43 662.89 306.35
  C 668.38 300.08 674.71 294.31 679.91 288.47
  Q 685.64 282.04 688.89 278.81
  Q 694.52 273.23 697.91 269.06
  A 1.02 1.01 -52.1 0 0 697.73 267.61
  Q 681.49 255.38 663.52 245.48
  C 629.46 226.73 591.78 213.96 553.19 209.07
  Q 544.95 208.03 536.77 208.21"
/>
<path stroke="#83541d" vector-effect="non-scaling-stroke" d="
  M 817.68 468.34
  C 810.99 414.99 788.32 363.88 755.48 321.52
  Q 752.17 317.24 741.47 305.47"
/>
<path stroke="#773c16" vector-effect="non-scaling-stroke" d="
  M 741.47 305.47
  L 738.22 302.08"
/>
<path stroke="#eb8124" vector-effect="non-scaling-stroke" d="
  M 741.47 305.47
  Q 741.02 305.36 740.83 305.47
  A 0.45 0.45 0.0 0 0 740.69 306.13
  C 744.19 310.65 748.33 314.66 752.08 319.31
  Q 770.67 342.35 784.20 368.53
  Q 791.56 382.76 794.41 389.33
  Q 804.28 412.10 810.11 434.32
  Q 813.31 446.51 815.54 461.25
  C 815.91 463.66 816.80 465.29 815.90 468.03"
/>
<path stroke="#83541d" vector-effect="non-scaling-stroke" d="
  M 482.96 489.58
  Q 466.26 472.44 449.76 456.45
  Q 394.56 402.94 358.28 369.22
  Q 343.23 355.22 332.81 345.87
  C 317.20 331.88 301.54 317.38 284.93 303.92
  A 1.11 1.11 0.0 0 0 283.40 304.05
  Q 273.62 314.99 263.69 327.93
  C 227.51 375.04 206.98 433.02 203.74 492.35
  Q 203.72 492.71 203.44 493.35
  Q 203.10 494.13 203.74 494.49
  A 0.56 0.56 0.0 0 0 204.18 494.54
  Q 205.95 493.98 214.49 494.17
  Q 245.31 494.87 271.87 500.93
  C 321.34 512.22 367.88 535.57 405.68 569.84
  A 0.61 0.61 0.0 0 0 406.53 569.81
  L 482.96 490.99
  A 1.01 1.00 45.2 0 0 482.96 489.58"
/>
<path stroke="#83541d" vector-effect="non-scaling-stroke" d="
  M 747.35 711.63
  Q 763.07 693.21 776.37 670.37
  Q 801.25 627.65 812.23 579.95
  Q 818.75 551.64 820.63 518.88
  Q 820.97 513.08 820.68 510.55
  A 0.61 0.60 86.4 0 0 820.07 510.01
  Q 796.84 510.53 780.25 508.49
  Q 754.02 505.27 727.16 496.55
  Q 661.96 475.36 606.80 434.57"
/>
<path stroke="#eb8124" vector-effect="non-scaling-stroke" d="
  M 746.23 710.70
  L 749.55 707.64
  A 0.35 0.35 0.0 0 0 749.62 707.57
  Q 788.21 658.92 805.75 599.79
  Q 812.66 576.46 816.15 553.00
  Q 819.23 532.20 819.29 512.39
  A 1.02 1.01 89.7 0 0 818.27 511.37
  Q 803.08 511.50 785.76 509.96
  Q 763.15 507.94 738.51 500.92
  Q 684.72 485.59 636.61 455.89
  Q 619.84 445.54 609.47 437.68
  A 3.19 2.90 71.0 0 0 608.63 437.22
  L 605.48 436.10"
/>
<path stroke="#83541d" vector-effect="non-scaling-stroke" d="
  M 440.83 602.20
  Q 452.29 617.87 460.49 631.03
  Q 505.82 703.76 511.46 790.19
  C 512.15 800.82 511.52 811.50 512.22 820.55
  A 0.42 0.41 89.2 0 0 512.61 820.93
  Q 523.07 821.53 536.17 820.57
  C 594.91 816.28 650.43 795.98 697.51 760.62
  C 703.95 755.79 710.16 750.31 716.37 744.84
  A 0.48 0.48 0.0 0 0 716.39 744.14
  Q 713.18 740.95 711.05 738.27
  Q 697.16 720.78 676.63 695.43
  Q 661.73 677.04 649.02 662.98
  Q 585.12 592.25 516.08 526.56"
/>
<path stroke="#eb8124" vector-effect="non-scaling-stroke" d="
  M 441.96 601.29
  Q 445.70 607.12 455.10 620.63
  Q 473.57 647.19 487.58 681.30
  Q 495.59 700.80 499.56 714.83
  Q 508.56 746.59 511.46 777.17
  Q 511.84 781.16 512.65 791.29
  Q 513.22 798.51 513.60 817.01
  Q 513.62 817.97 513.18 819.13
  A 0.62 0.62 0.0 0 0 513.75 819.98
  Q 532.79 820.03 548.78 818.25
  Q 551.77 817.92 557.37 817.11
  Q 611.04 809.38 658.39 784.16
  Q 688.70 768.01 714.41 745.09
  A 0.89 0.88 -43.3 0 0 714.45 743.81
  Q 711.76 741.06 711.01 740.01
  Q 710.59 739.42 684.49 707.02
  Q 668.63 687.32 654.61 671.06
  Q 649.18 664.76 642.80 657.90
  Q 633.63 648.04 630.97 644.91
  C 626.88 640.07 622.44 636.37 618.68 631.88
  C 613.27 625.40 606.71 619.32 600.69 612.76
  Q 595.65 607.27 591.75 603.27
  Q 573.42 584.49 560.39 571.71
  Q 557.47 568.84 555.52 566.88
  Q 535.57 546.74 516.23 528.21
  Q 515.94 527.93 515.66 527.89
  Q 515.35 527.85 514.99 527.94"
/>
<path stroke="#83541d" vector-effect="non-scaling-stroke" d="
  M 203.99 538.99
  Q 209.58 609.40 244.83 670.24
  Q 256.67 690.67 270.95 707.38
  A 0.31 0.31 0.0 0 0 271.41 707.39
  Q 310.91 666.17 337.84 638.50
  Q 342.22 634.01 351.67 624.03
  C 359.63 615.62 366.87 608.64 374.75 599.37"
/>
<path stroke="#eb8124" vector-effect="non-scaling-stroke" d="
  M 205.26 539.11
  Q 205.63 543.81 206.18 548.53
  Q 207.64 561.20 208.71 567.47
  Q 209.95 574.73 211.65 582.11
  Q 213.97 592.15 215.17 596.60
  Q 225.28 634.18 244.86 668.22
  Q 256.27 688.06 270.42 704.92
  A 0.93 0.92 47.0 0 0 271.79 704.97
  Q 285.85 690.70 295.50 680.50
  C 302.72 672.87 309.08 666.80 316.21 659.20
  Q 326.76 647.96 336.50 638.26
  Q 342.08 632.71 346.11 628.34
  C 355.13 618.56 364.42 609.84 372.50 600.25
  Q 372.98 599.67 374.23 599.27"
/>
<path stroke="#83541d" vector-effect="non-scaling-stroke" d="
  M 303.72 741.28
  L 303.91 741.89
  A 1.80 1.79 -77.6 0 0 304.36 742.60
  Q 333.16 769.36 368.01 787.22
  Q 382.83 794.81 398.28 800.98
  Q 429.04 813.26 463.01 818.10"
/>
<path stroke="#773c16" vector-effect="non-scaling-stroke" d="
  M 463.01 818.10
  Q 464.33 818.98 466.83 818.85"
/>
<path stroke="#eb8124" vector-effect="non-scaling-stroke" d="
  M 463.01 818.10
  Q 454.86 815.19 446.16 813.90
  C 442.47 813.36 440.28 812.45 437.20 811.89
  Q 434.71 811.44 430.49 810.30
  Q 396.19 801.00 364.24 783.99
  Q 349.11 775.93 334.67 765.70
  Q 320.59 755.72 307.41 744.10
  Q 305.90 742.76 304.92 740.69"
/>
<path stroke="#eb8124" vector-effect="non-scaling-stroke" d="
  M 284.67 304.95
  A 0.50 0.50 0.0 0 0 283.98 304.95
  C 280.04 308.69 276.96 313.48 273.66 317.22
  C 269.28 322.18 264.99 328.33 261.41 333.04
  Q 257.45 338.23 255.02 341.88
  Q 216.02 400.43 206.73 470.88
  C 205.89 477.21 205.65 482.88 204.87 489.00
  Q 204.74 489.96 204.86 492.17
  A 0.89 0.89 0.0 0 0 205.76 493.02
  Q 217.15 492.96 233.21 493.90
  C 240.08 494.30 247.09 495.56 254.30 496.11
  A 5.63 4.71 50.1 0 1 255.30 496.29
  C 260.37 497.73 264.57 497.86 269.52 499.06
  Q 277.35 500.97 282.50 502.35
  Q 322.88 513.20 358.48 533.82
  Q 364.36 537.23 369.28 540.56
  Q 371.38 541.98 379.82 547.70
  Q 392.91 556.57 404.82 567.68
  A 1.60 1.59 44.1 0 0 407.04 567.65
  Q 418.83 555.86 421.48 553.00
  C 432.72 540.86 440.98 532.97 451.18 522.06
  C 461.44 511.08 472.49 500.37 481.25 491.50
  A 1.43 1.42 -42.5 0 0 481.34 489.59
  Q 480.88 489.03 480.46 488.59
  Q 472.39 480.19 446.03 454.41
  Q 439.03 447.57 430.74 439.76
  C 423.16 432.63 415.42 424.48 407.01 416.83
  C 399.25 409.76 392.93 403.25 384.92 395.83
  Q 371.31 383.23 359.64 371.96
  C 355.23 367.70 352.03 365.35 348.27 361.56
  Q 345.69 358.95 340.00 353.93
  Q 326.60 342.09 314.72 330.96
  Q 309.94 326.49 305.09 322.44
  Q 297.68 316.25 295.32 314.20
  Q 285.28 305.51 284.67 304.95"
/>
</g>
<path fill="#0f0f0f" d="
  M 121.46 833.97
  Q 111.42 813.83 107.45 796.59
  Q 104.50 783.78 103.46 772.55
  Q 103.17 769.37 102.50 761.00
  Q 102.03 755.21 102.03 749.44
  Q 102.04 484.26 102.04 268.75
  C 102.04 264.17 101.87 259.72 102.50 255.55
  Q 103.16 251.14 103.10 248.26
  A 1.84 1.69 -37.3 0 1 103.21 247.65
  Q 103.51 246.88 104.19 240.78
  Q 105.00 233.46 109.15 219.07
  Q 116.69 192.98 134.55 170.24
  C 158.55 139.72 193.28 122.20 231.61 117.51
  Q 237.02 116.85 238.96 116.89
  C 242.30 116.97 245.21 116.02 248.74 116.02
  Q 521.35 116.01 770.64 116.02
  C 776.67 116.02 782.10 117.02 788.40 117.14
  A 5.16 4.93 51.0 0 1 789.49 117.28
  Q 789.79 117.35 794.25 118.04
  Q 821.18 122.22 844.28 134.13
  Q 868.29 146.52 885.60 166.39
  Q 912.92 197.76 919.59 240.39
  Q 920.56 246.62 921.51 261.09
  Q 922.00 268.66 921.70 281.87
  Q 921.48 291.60 921.49 304.50
  Q 921.60 487.71 921.63 644.25
  Q 921.64 704.70 922.00 748.00
  Q 922.02 750.05 921.90 759.82
  C 921.84 764.74 921.01 768.23 920.93 772.90
  Q 920.92 773.53 920.31 778.09
  C 915.49 813.68 900.05 847.92 873.14 872.26
  Q 847.15 895.76 812.25 903.35
  Q 804.96 904.94 804.52 905.05
  Q 801.37 905.82 798.75 906.00
  C 795.67 906.21 794.08 906.99 791.04 906.97
  Q 787.66 906.96 784.46 907.71
  A 9.55 9.52 -52.7 0 1 782.78 907.94
  Q 778.46 908.14 767.60 908.16
  Q 736.50 908.23 261.50 908.18
  Q 251.85 908.18 239.65 907.99
  C 235.37 907.92 231.76 906.93 227.42 906.95
  A 4.87 4.75 54.3 0 1 225.67 906.64
  C 223.90 905.97 221.94 906.05 220.13 905.71
  Q 215.76 904.89 211.54 903.93
  Q 178.41 896.36 154.22 875.43
  Q 132.98 857.04 121.46 833.97
  Z
  M 321.01 271.74
  L 317.03 274.84
  L 310.95 280.36
  A 0.94 0.94 0.0 0 0 310.98 281.77
  Q 315.75 285.79 322.38 291.12
  Q 368.13 327.87 417.03 374.28
  Q 457.54 412.71 486.92 443.85
  Q 503.01 460.91 508.11 466.67
  A 0.49 0.48 -41.3 0 0 508.80 466.71
  Q 511.55 464.27 514.04 461.04
  Q 514.32 460.68 514.31 460.26
  Q 515.41 459.65 515.78 459.27
  Q 535.81 438.75 555.90 417.90
  Q 568.54 404.79 572.44 400.80
  A 1.31 1.30 45.8 0 0 572.46 398.99
  Q 559.13 384.80 549.02 370.50
  Q 539.53 357.08 530.21 338.78
  C 509.32 297.75 497.22 252.63 493.88 206.43
  A 0.68 0.68 0.0 0 0 493.19 205.80
  Q 467.77 206.06 441.46 212.25
  Q 377.00 227.42 324.54 268.53
  Q 323.65 269.22 321.01 271.74
  Z
  M 535.78 206.89
  L 529.30 206.92
  A 0.68 0.68 0.0 0 0 528.62 207.62
  Q 528.88 216.82 530.07 226.24
  Q 534.18 258.80 544.68 289.07
  Q 553.05 313.20 564.89 334.37
  Q 575.84 353.95 591.78 373.98
  Q 593.32 375.92 595.00 376.95
  A 0.65 0.65 0.0 0 0 595.81 376.84
  L 601.39 371.09
  Q 602.62 370.89 604.32 369.02
  Q 611.11 362.51 617.62 355.63
  Q 649.23 322.21 650.87 320.62
  C 657.47 314.18 663.77 306.83 670.33 300.07
  Q 685.20 284.73 699.53 269.22
  A 1.29 1.29 0.0 0 0 699.35 267.32
  Q 654.34 234.01 600.83 218.19
  Q 577.06 211.16 555.08 208.35
  Q 546.69 207.28 535.78 206.89
  Z
  M 817.68 468.34
  C 810.99 414.99 788.32 363.88 755.48 321.52
  Q 752.17 317.24 741.47 305.47
  L 738.22 302.08
  L 729.58 293.51
  A 0.53 0.53 0.0 0 0 728.83 293.52
  L 622.37 402.04
  A 0.61 0.60 46.0 0 0 622.36 402.88
  Q 624.13 404.79 624.59 405.16
  Q 655.98 430.68 692.49 448.17
  C 711.56 457.31 732.22 464.30 752.57 469.43
  Q 770.29 473.90 792.01 476.33
  Q 795.11 476.67 795.24 476.68
  Q 797.81 476.84 806.39 477.63
  C 810.34 478.00 812.93 477.92 817.37 477.87
  A 1.00 0.99 87.3 0 0 818.35 476.79
  L 817.68 468.34
  Z
  M 482.96 489.58
  Q 466.26 472.44 449.76 456.45
  Q 394.56 402.94 358.28 369.22
  Q 343.23 355.22 332.81 345.87
  C 317.20 331.88 301.54 317.38 284.93 303.92
  A 1.11 1.11 0.0 0 0 283.40 304.05
  Q 273.62 314.99 263.69 327.93
  C 227.51 375.04 206.98 433.02 203.74 492.35
  Q 203.72 492.71 203.44 493.35
  Q 203.10 494.13 203.74 494.49
  A 0.56 0.56 0.0 0 0 204.18 494.54
  Q 205.95 493.98 214.49 494.17
  Q 245.31 494.87 271.87 500.93
  C 321.34 512.22 367.88 535.57 405.68 569.84
  A 0.61 0.61 0.0 0 0 406.53 569.81
  L 482.96 490.99
  A 1.01 1.00 45.2 0 0 482.96 489.58
  Z
  M 747.35 711.63
  Q 763.07 693.21 776.37 670.37
  Q 801.25 627.65 812.23 579.95
  Q 818.75 551.64 820.63 518.88
  Q 820.97 513.08 820.68 510.55
  A 0.61 0.60 86.4 0 0 820.07 510.01
  Q 796.84 510.53 780.25 508.49
  Q 754.02 505.27 727.16 496.55
  Q 661.96 475.36 606.80 434.57
  L 598.11 426.92
  A 0.43 0.43 0.0 0 0 597.52 426.94
  L 533.13 492.59
  A 0.77 0.77 0.0 0 0 533.14 493.68
  Q 591.35 551.65 614.81 575.69
  Q 614.86 575.74 617.49 578.52
  Q 659.14 622.48 688.54 656.55
  Q 713.47 685.45 713.88 685.97
  Q 717.46 690.52 723.25 697.17
  C 727.74 702.32 735.03 711.95 741.25 718.92
  A 0.29 0.28 48.6 0 0 741.65 718.95
  Q 745.26 715.90 747.35 711.63
  Z
  M 440.83 602.20
  Q 452.29 617.87 460.49 631.03
  Q 505.82 703.76 511.46 790.19
  C 512.15 800.82 511.52 811.50 512.22 820.55
  A 0.42 0.41 89.2 0 0 512.61 820.93
  Q 523.07 821.53 536.17 820.57
  C 594.91 816.28 650.43 795.98 697.51 760.62
  C 703.95 755.79 710.16 750.31 716.37 744.84
  A 0.48 0.48 0.0 0 0 716.39 744.14
  Q 713.18 740.95 711.05 738.27
  Q 697.16 720.78 676.63 695.43
  Q 661.73 677.04 649.02 662.98
  Q 585.12 592.25 516.08 526.56
  Q 513.02 522.56 508.75 519.39
  A 0.51 0.50 -48.8 0 0 508.10 519.44
  L 434.56 592.98
  A 0.54 0.53 -41.1 0 0 434.51 593.68
  L 440.83 602.20
  Z
  M 203.99 538.99
  Q 209.58 609.40 244.83 670.24
  Q 256.67 690.67 270.95 707.38
  A 0.31 0.31 0.0 0 0 271.41 707.39
  Q 310.91 666.17 337.84 638.50
  Q 342.22 634.01 351.67 624.03
  C 359.63 615.62 366.87 608.64 374.75 599.37
  Q 375.51 599.32 376.14 598.62
  Q 378.03 596.54 380.56 593.90
  A 0.81 0.80 -47.9 0 0 380.51 592.73
  Q 371.27 584.75 362.57 578.71
  Q 358.71 576.03 343.77 566.64
  C 337.34 562.60 330.89 559.57 324.14 555.96
  C 318.64 553.00 313.87 551.28 308.38 548.72
  Q 302.41 545.94 296.30 543.93
  Q 285.15 540.26 280.06 538.70
  Q 263.12 533.52 244.14 530.71
  Q 239.61 530.04 238.28 530.00
  C 232.91 529.83 229.19 529.04 223.58 528.96
  Q 212.30 528.80 203.99 529.10
  A 0.78 0.78 0.0 0 0 203.24 529.95
  L 203.99 538.99
  Z
  M 303.72 741.28
  L 303.91 741.89
  A 1.80 1.79 -77.6 0 0 304.36 742.60
  Q 333.16 769.36 368.01 787.22
  Q 382.83 794.81 398.28 800.98
  Q 429.04 813.26 463.01 818.10
  Q 464.33 818.98 466.83 818.85
  L 474.75 819.75
  A 0.97 0.96 4.1 0 0 475.83 818.82
  Q 476.70 794.70 474.52 773.47
  Q 473.53 763.80 471.44 752.06
  Q 465.74 720.07 453.16 691.35
  Q 437.58 655.78 418.42 632.61
  Q 413.30 626.41 407.67 621.19
  A 0.18 0.18 0.0 0 0 407.43 621.19
  L 295.78 732.85
  A 0.87 0.87 0.0 0 0 295.81 734.12
  L 303.72 741.28
  Z"
/>
<path fill="#f7982a" d="
  M 514.31 460.26
  L 512.78 458.84
  Q 516.34 457.35 517.91 455.67
  C 522.63 450.61 527.74 445.02 533.16 439.57
  C 546.01 426.63 557.72 413.57 570.69 401.01
  A 1.42 1.41 46.6 0 0 570.74 399.03
  Q 564.94 392.76 556.74 382.57
  Q 541.02 363.02 530.15 341.33
  C 524.61 330.26 520.04 320.65 515.75 309.53
  Q 496.83 260.37 492.83 207.81
  A 1.14 1.13 -2.9 0 0 491.66 206.76
  C 488.32 206.84 485.29 206.70 482.02 207.00
  Q 467.68 208.35 463.64 208.96
  Q 455.60 210.18 444.56 212.48
  Q 436.32 214.19 425.80 217.32
  Q 391.41 227.57 359.77 245.76
  Q 340.67 256.75 321.56 272.38
  A 0.51 0.51 0.0 0 1 320.88 272.35
  Q 320.79 272.26 321.01 271.74
  Q 323.65 269.22 324.54 268.53
  Q 377.00 227.42 441.46 212.25
  Q 467.77 206.06 493.19 205.80
  A 0.68 0.68 0.0 0 1 493.88 206.43
  C 497.22 252.63 509.32 297.75 530.21 338.78
  Q 539.53 357.08 549.02 370.50
  Q 559.13 384.80 572.46 398.99
  A 1.31 1.30 45.8 0 1 572.44 400.80
  Q 568.54 404.79 555.90 417.90
  Q 535.81 438.75 515.78 459.27
  Q 515.41 459.65 514.31 460.26
  Z"
/>
<path fill="#de691d" d="
  M 512.78 458.84
  Q 487.25 429.10 464.99 407.01
  Q 440.70 382.90 432.83 375.42
  Q 390.84 335.51 346.41 298.33
  Q 338.55 291.75 317.03 274.84
  L 321.01 271.74
  Q 320.79 272.26 320.88 272.35
  A 0.51 0.51 0.0 0 0 321.56 272.38
  Q 340.67 256.75 359.77 245.76
  Q 391.41 227.57 425.80 217.32
  Q 436.32 214.19 444.56 212.48
  Q 455.60 210.18 463.64 208.96
  Q 467.68 208.35 482.02 207.00
  C 485.29 206.70 488.32 206.84 491.66 206.76
  A 1.14 1.13 -2.9 0 1 492.83 207.81
  Q 496.83 260.37 515.75 309.53
  C 520.04 320.65 524.61 330.26 530.15 341.33
  Q 541.02 363.02 556.74 382.57
  Q 564.94 392.76 570.74 399.03
  A 1.42 1.41 46.6 0 1 570.69 401.01
  C 557.72 413.57 546.01 426.63 533.16 439.57
  C 527.74 445.02 522.63 450.61 517.91 455.67
  Q 516.34 457.35 512.78 458.84
  Z"
/>
<path fill="#f7982a" d="
  M 604.32 369.02
  Q 603.71 369.17 603.48 368.96
  A 0.38 0.38 0.0 0 1 603.47 368.41
  Q 610.70 361.18 615.90 355.57
  C 618.48 352.79 621.20 350.54 624.11 347.10
  C 629.74 340.44 636.08 334.68 642.18 328.03
  C 649.43 320.12 656.71 313.43 662.89 306.35
  C 668.38 300.08 674.71 294.31 679.91 288.47
  Q 685.64 282.04 688.89 278.81
  Q 694.52 273.23 697.91 269.06
  A 1.02 1.01 -52.1 0 0 697.73 267.61
  Q 681.49 255.38 663.52 245.48
  C 629.46 226.73 591.78 213.96 553.19 209.07
  Q 544.95 208.03 536.77 208.21
  Q 536.36 207.96 535.78 206.89
  Q 546.69 207.28 555.08 208.35
  Q 577.06 211.16 600.83 218.19
  Q 654.34 234.01 699.35 267.32
  A 1.29 1.29 0.0 0 1 699.53 269.22
  Q 685.20 284.73 670.33 300.07
  C 663.77 306.83 657.47 314.18 650.87 320.62
  Q 649.23 322.21 617.62 355.63
  Q 611.11 362.51 604.32 369.02
  Z"
/>
<path fill="#de691d" d="
  M 604.32 369.02
  Q 602.62 370.89 601.39 371.09
  Q 596.41 364.30 591.31 357.53
  Q 584.06 347.91 581.41 343.89
  Q 567.15 322.26 557.95 298.84
  Q 552.56 285.10 547.40 267.21
  Q 539.13 238.56 536.77 208.21
  Q 544.95 208.03 553.19 209.07
  C 591.78 213.96 629.46 226.73 663.52 245.48
  Q 681.49 255.38 697.73 267.61
  A 1.02 1.01 -52.1 0 1 697.91 269.06
  Q 694.52 273.23 688.89 278.81
  Q 685.64 282.04 679.91 288.47
  C 674.71 294.31 668.38 300.08 662.89 306.35
  C 656.71 313.43 649.43 320.12 642.18 328.03
  C 636.08 334.68 629.74 340.44 624.11 347.10
  C 621.20 350.54 618.48 352.79 615.90 355.57
  Q 610.70 361.18 603.47 368.41
  A 0.38 0.38 0.0 0 0 603.48 368.96
  Q 603.71 369.17 604.32 369.02
  Z"
/>
<path fill="#de691d" d="
  M 738.22 302.08
  L 741.47 305.47
  Q 741.02 305.36 740.83 305.47
  A 0.45 0.45 0.0 0 0 740.69 306.13
  C 744.19 310.65 748.33 314.66 752.08 319.31
  Q 770.67 342.35 784.20 368.53
  Q 791.56 382.76 794.41 389.33
  Q 804.28 412.10 810.11 434.32
  Q 813.31 446.51 815.54 461.25
  C 815.91 463.66 816.80 465.29 815.90 468.03
  Q 808.13 468.12 805.24 467.94
  Q 767.32 465.60 731.50 453.22
  C 698.39 441.77 666.24 425.43 639.16 403.73
  A 0.20 0.19 -49.7 0 1 639.14 403.44
  Q 655.85 386.86 686.13 355.89
  Q 689.43 352.52 692.71 349.21
  Q 715.57 326.14 738.22 302.08
  Z"
/>
<path fill="#f7982a" d="
  M 482.96 489.58
  A 1.01 1.00 45.2 0 1 482.96 490.99
  L 406.53 569.81
  A 0.61 0.61 0.0 0 1 405.68 569.84
  C 367.88 535.57 321.34 512.22 271.87 500.93
  Q 245.31 494.87 214.49 494.17
  Q 205.95 493.98 204.18 494.54
  A 0.56 0.56 0.0 0 1 203.74 494.49
  Q 203.10 494.13 203.44 493.35
  Q 203.72 492.71 203.74 492.35
  C 206.98 433.02 227.51 375.04 263.69 327.93
  Q 273.62 314.99 283.40 304.05
  A 1.11 1.11 0.0 0 1 284.93 303.92
  C 301.54 317.38 317.20 331.88 332.81 345.87
  Q 343.23 355.22 358.28 369.22
  Q 394.56 402.94 449.76 456.45
  Q 466.26 472.44 482.96 489.58
  Z
  M 284.67 304.95
  A 0.50 0.50 0.0 0 0 283.98 304.95
  C 280.04 308.69 276.96 313.48 273.66 317.22
  C 269.28 322.18 264.99 328.33 261.41 333.04
  Q 257.45 338.23 255.02 341.88
  Q 216.02 400.43 206.73 470.88
  C 205.89 477.21 205.65 482.88 204.87 489.00
  Q 204.74 489.96 204.86 492.17
  A 0.89 0.89 0.0 0 0 205.76 493.02
  Q 217.15 492.96 233.21 493.90
  C 240.08 494.30 247.09 495.56 254.30 496.11
  A 5.63 4.71 50.1 0 1 255.30 496.29
  C 260.37 497.73 264.57 497.86 269.52 499.06
  Q 277.35 500.97 282.50 502.35
  Q 322.88 513.20 358.48 533.82
  Q 364.36 537.23 369.28 540.56
  Q 371.38 541.98 379.82 547.70
  Q 392.91 556.57 404.82 567.68
  A 1.60 1.59 44.1 0 0 407.04 567.65
  Q 418.83 555.86 421.48 553.00
  C 432.72 540.86 440.98 532.97 451.18 522.06
  C 461.44 511.08 472.49 500.37 481.25 491.50
  A 1.43 1.42 -42.5 0 0 481.34 489.59
  Q 480.88 489.03 480.46 488.59
  Q 472.39 480.19 446.03 454.41
  Q 439.03 447.57 430.74 439.76
  C 423.16 432.63 415.42 424.48 407.01 416.83
  C 399.25 409.76 392.93 403.25 384.92 395.83
  Q 371.31 383.23 359.64 371.96
  C 355.23 367.70 352.03 365.35 348.27 361.56
  Q 345.69 358.95 340.00 353.93
  Q 326.60 342.09 314.72 330.96
  Q 309.94 326.49 305.09 322.44
  Q 297.68 316.25 295.32 314.20
  Q 285.28 305.51 284.67 304.95
  Z"
/>
<path fill="#de691d" d="
  M 284.67 304.95
  Q 285.28 305.51 295.32 314.20
  Q 297.68 316.25 305.09 322.44
  Q 309.94 326.49 314.72 330.96
  Q 326.60 342.09 340.00 353.93
  Q 345.69 358.95 348.27 361.56
  C 352.03 365.35 355.23 367.70 359.64 371.96
  Q 371.31 383.23 384.92 395.83
  C 392.93 403.25 399.25 409.76 407.01 416.83
  C 415.42 424.48 423.16 432.63 430.74 439.76
  Q 439.03 447.57 446.03 454.41
  Q 472.39 480.19 480.46 488.59
  Q 480.88 489.03 481.34 489.59
  A 1.43 1.42 -42.5 0 1 481.25 491.50
  C 472.49 500.37 461.44 511.08 451.18 522.06
  C 440.98 532.97 432.72 540.86 421.48 553.00
  Q 418.83 555.86 407.04 567.65
  A 1.60 1.59 44.1 0 1 404.82 567.68
  Q 392.91 556.57 379.82 547.70
  Q 371.38 541.98 369.28 540.56
  Q 364.36 537.23 358.48 533.82
  Q 322.88 513.20 282.50 502.35
  Q 277.35 500.97 269.52 499.06
  C 264.57 497.86 260.37 497.73 255.30 496.29
  A 5.63 4.71 50.1 0 0 254.30 496.11
  C 247.09 495.56 240.08 494.30 233.21 493.90
  Q 217.15 492.96 205.76 493.02
  A 0.89 0.89 0.0 0 1 204.86 492.17
  Q 204.74 489.96 204.87 489.00
  C 205.65 482.88 205.89 477.21 206.73 470.88
  Q 216.02 400.43 255.02 341.88
  Q 257.45 338.23 261.41 333.04
  C 264.99 328.33 269.28 322.18 273.66 317.22
  C 276.96 313.48 280.04 308.69 283.98 304.95
  A 0.50 0.50 0.0 0 1 284.67 304.95
  Z"
/>
<path fill="#f7982a" d="
  M 741.47 305.47
  Q 752.17 317.24 755.48 321.52
  C 788.32 363.88 810.99 414.99 817.68 468.34
  L 815.90 468.03
  C 816.80 465.29 815.91 463.66 815.54 461.25
  Q 813.31 446.51 810.11 434.32
  Q 804.28 412.10 794.41 389.33
  Q 791.56 382.76 784.20 368.53
  Q 770.67 342.35 752.08 319.31
  C 748.33 314.66 744.19 310.65 740.69 306.13
  A 0.45 0.45 0.0 0 1 740.83 305.47
  Q 741.02 305.36 741.47 305.47
  Z"
/>
<path fill="#f7982a" d="
  M 606.80 434.57
  Q 661.96 475.36 727.16 496.55
  Q 754.02 505.27 780.25 508.49
  Q 796.84 510.53 820.07 510.01
  A 0.61 0.60 86.4 0 1 820.68 510.55
  Q 820.97 513.08 820.63 518.88
  Q 818.75 551.64 812.23 579.95
  Q 801.25 627.65 776.37 670.37
  Q 763.07 693.21 747.35 711.63
  L 746.23 710.70
  L 749.55 707.64
  A 0.35 0.35 0.0 0 0 749.62 707.57
  Q 788.21 658.92 805.75 599.79
  Q 812.66 576.46 816.15 553.00
  Q 819.23 532.20 819.29 512.39
  A 1.02 1.01 89.7 0 0 818.27 511.37
  Q 803.08 511.50 785.76 509.96
  Q 763.15 507.94 738.51 500.92
  Q 684.72 485.59 636.61 455.89
  Q 619.84 445.54 609.47 437.68
  A 3.19 2.90 71.0 0 0 608.63 437.22
  L 605.48 436.10
  L 606.80 434.57
  Z"
/>
<path fill="#de691d" d="
  M 605.48 436.10
  L 608.63 437.22
  A 3.19 2.90 71.0 0 1 609.47 437.68
  Q 619.84 445.54 636.61 455.89
  Q 684.72 485.59 738.51 500.92
  Q 763.15 507.94 785.76 509.96
  Q 803.08 511.50 818.27 511.37
  A 1.02 1.01 89.7 0 1 819.29 512.39
  Q 819.23 532.20 816.15 553.00
  Q 812.66 576.46 805.75 599.79
  Q 788.21 658.92 749.62 707.57
  A 0.35 0.35 0.0 0 1 749.55 707.64
  L 746.23 710.70
  Q 693.94 646.37 637.49 585.57
  C 608.41 554.26 578.26 524.64 547.64 494.11
  A 0.20 0.20 0.0 0 1 547.64 493.82
  L 605.48 436.10
  Z"
/>
<path fill="#f7982a" d="
  M 440.83 602.20
  L 441.96 601.29
  Q 445.70 607.12 455.10 620.63
  Q 473.57 647.19 487.58 681.30
  Q 495.59 700.80 499.56 714.83
  Q 508.56 746.59 511.46 777.17
  Q 511.84 781.16 512.65 791.29
  Q 513.22 798.51 513.60 817.01
  Q 513.62 817.97 513.18 819.13
  A 0.62 0.62 0.0 0 0 513.75 819.98
  Q 532.79 820.03 548.78 818.25
  Q 551.77 817.92 557.37 817.11
  Q 611.04 809.38 658.39 784.16
  Q 688.70 768.01 714.41 745.09
  A 0.89 0.88 -43.3 0 0 714.45 743.81
  Q 711.76 741.06 711.01 740.01
  Q 710.59 739.42 684.49 707.02
  Q 668.63 687.32 654.61 671.06
  Q 649.18 664.76 642.80 657.90
  Q 633.63 648.04 630.97 644.91
  C 626.88 640.07 622.44 636.37 618.68 631.88
  C 613.27 625.40 606.71 619.32 600.69 612.76
  Q 595.65 607.27 591.75 603.27
  Q 573.42 584.49 560.39 571.71
  Q 557.47 568.84 555.52 566.88
  Q 535.57 546.74 516.23 528.21
  Q 515.94 527.93 515.66 527.89
  Q 515.35 527.85 514.99 527.94
  Q 515.77 526.71 516.08 526.56
  Q 585.12 592.25 649.02 662.98
  Q 661.73 677.04 676.63 695.43
  Q 697.16 720.78 711.05 738.27
  Q 713.18 740.95 716.39 744.14
  A 0.48 0.48 0.0 0 1 716.37 744.84
  C 710.16 750.31 703.95 755.79 697.51 760.62
  C 650.43 795.98 594.91 816.28 536.17 820.57
  Q 523.07 821.53 512.61 820.93
  A 0.42 0.41 89.2 0 1 512.22 820.55
  C 511.52 811.50 512.15 800.82 511.46 790.19
  Q 505.82 703.76 460.49 631.03
  Q 452.29 617.87 440.83 602.20
  Z"
/>
<path fill="#de691d" d="
  M 514.99 527.94
  Q 515.35 527.85 515.66 527.89
  Q 515.94 527.93 516.23 528.21
  Q 535.57 546.74 555.52 566.88
  Q 557.47 568.84 560.39 571.71
  Q 573.42 584.49 591.75 603.27
  Q 595.65 607.27 600.69 612.76
  C 606.71 619.32 613.27 625.40 618.68 631.88
  C 622.44 636.37 626.88 640.07 630.97 644.91
  Q 633.63 648.04 642.80 657.90
  Q 649.18 664.76 654.61 671.06
  Q 668.63 687.32 684.49 707.02
  Q 710.59 739.42 711.01 740.01
  Q 711.76 741.06 714.45 743.81
  A 0.89 0.88 -43.3 0 1 714.41 745.09
  Q 688.70 768.01 658.39 784.16
  Q 611.04 809.38 557.37 817.11
  Q 551.77 817.92 548.78 818.25
  Q 532.79 820.03 513.75 819.98
  A 0.62 0.62 0.0 0 1 513.18 819.13
  Q 513.62 817.97 513.60 817.01
  Q 513.22 798.51 512.65 791.29
  Q 511.84 781.16 511.46 777.17
  Q 508.56 746.59 499.56 714.83
  Q 495.59 700.80 487.58 681.30
  Q 473.57 647.19 455.10 620.63
  Q 445.70 607.12 441.96 601.29
  L 514.99 527.94
  Z"
/>
<path fill="#f7982a" d="
  M 203.99 538.99
  L 205.26 539.11
  Q 205.63 543.81 206.18 548.53
  Q 207.64 561.20 208.71 567.47
  Q 209.95 574.73 211.65 582.11
  Q 213.97 592.15 215.17 596.60
  Q 225.28 634.18 244.86 668.22
  Q 256.27 688.06 270.42 704.92
  A 0.93 0.92 47.0 0 0 271.79 704.97
  Q 285.85 690.70 295.50 680.50
  C 302.72 672.87 309.08 666.80 316.21 659.20
  Q 326.76 647.96 336.50 638.26
  Q 342.08 632.71 346.11 628.34
  C 355.13 618.56 364.42 609.84 372.50 600.25
  Q 372.98 599.67 374.23 599.27
  Q 374.43 599.23 374.75 599.37
  C 366.87 608.64 359.63 615.62 351.67 624.03
  Q 342.22 634.01 337.84 638.50
  Q 310.91 666.17 271.41 707.39
  A 0.31 0.31 0.0 0 1 270.95 707.38
  Q 256.67 690.67 244.83 670.24
  Q 209.58 609.40 203.99 538.99
  Z"
/>
<path fill="#de691d" d="
  M 374.23 599.27
  Q 372.98 599.67 372.50 600.25
  C 364.42 609.84 355.13 618.56 346.11 628.34
  Q 342.08 632.71 336.50 638.26
  Q 326.76 647.96 316.21 659.20
  C 309.08 666.80 302.72 672.87 295.50 680.50
  Q 285.85 690.70 271.79 704.97
  A 0.93 0.92 47.0 0 1 270.42 704.92
  Q 256.27 688.06 244.86 668.22
  Q 225.28 634.18 215.17 596.60
  Q 213.97 592.15 211.65 582.11
  Q 209.95 574.73 208.71 567.47
  Q 207.64 561.20 206.18 548.53
  Q 205.63 543.81 205.26 539.11
  Q 218.16 538.66 223.64 539.34
  Q 228.91 539.99 229.52 539.99
  C 233.75 540.06 236.12 541.02 239.98 541.03
  Q 241.70 541.04 244.54 541.50
  Q 317.00 553.28 374.23 599.27
  Z"
/>
<path fill="#de691d" d="
  M 466.83 818.85
  Q 464.33 818.98 463.01 818.10
  Q 454.86 815.19 446.16 813.90
  C 442.47 813.36 440.28 812.45 437.20 811.89
  Q 434.71 811.44 430.49 810.30
  Q 396.19 801.00 364.24 783.99
  Q 349.11 775.93 334.67 765.70
  Q 320.59 755.72 307.41 744.10
  Q 305.90 742.76 304.92 740.69
  L 407.62 636.85
  A 0.65 0.64 48.4 0 1 408.58 636.91
  C 437.47 674.39 454.94 717.41 462.87 764.31
  Q 463.53 768.21 465.04 779.97
  Q 465.58 784.20 465.99 790.20
  Q 466.33 795.08 466.85 800.43
  Q 467.26 804.66 466.83 818.85
  Z"
/>
<path fill="#f7982a" d="
  M 304.92 740.69
  Q 305.90 742.76 307.41 744.10
  Q 320.59 755.72 334.67 765.70
  Q 349.11 775.93 364.24 783.99
  Q 396.19 801.00 430.49 810.30
  Q 434.71 811.44 437.20 811.89
  C 440.28 812.45 442.47 813.36 446.16 813.90
  Q 454.86 815.19 463.01 818.10
  Q 429.04 813.26 398.28 800.98
  Q 382.83 794.81 368.01 787.22
  Q 333.16 769.36 304.36 742.60
  A 1.80 1.79 -77.6 0 1 303.91 741.89
  L 303.72 741.28
  L 304.92 740.69
  Z"
/>
</svg>
