<?xml version="1.0" encoding="UTF-8" standalone="no"?>
<!DOCTYPE svg PUBLIC "-//W3C//DTD SVG 1.1//EN" "http://www.w3.org/Graphics/SVG/1.1/DTD/svg11.dtd">
<svg xmlns="http://www.w3.org/2000/svg" version="1.1" viewBox="0.00 0.00 1024.00 1024.00">
<g stroke-width="2.00" fill="none" stroke-linecap="butt">
<path stroke="#8d8d8d" vector-effect="non-scaling-stroke" d="
  M 569.23 876.55
  A 0.63 0.63 0.0 0 0 570.27 876.13
  Q 570.90 868.79 570.95 863.21
  C 571.04 854.00 571.86 847.39 571.98 837.42
  C 572.08 829.02 573.07 819.20 572.99 810.75
  C 572.91 802.94 573.97 796.55 573.96 788.75
  Q 573.95 781.31 574.56 772.27
  C 575.15 763.30 574.80 755.41 575.37 746.58
  Q 576.02 736.53 576.00 728.20
  C 575.97 720.80 576.92 714.15 576.96 706.42
  Q 577.01 698.12 577.51 690.09
  C 578.18 679.53 577.84 670.24 578.54 659.76
  Q 579.01 652.61 578.99 644.79
  C 578.96 637.13 579.88 629.24 579.93 621.66
  Q 579.99 612.46 580.57 604.34
  C 581.17 595.74 580.78 589.33 581.59 581.34
  C 582.18 575.56 581.71 567.85 582.54 561.48
  Q 582.83 559.30 582.92 552.92
  Q 582.96 549.81 583.51 540.10
  Q 585.50 504.85 587.38 469.76
  Q 588.24 453.77 589.30 438.89
  Q 590.36 424.09 591.36 405.76
  Q 592.08 392.42 595.47 343.70
  Q 596.33 331.30 598.63 298.72
  Q 600.87 267.00 601.99 253.77
  Q 609.62 164.20 612.69 120.54
  C 613.18 113.66 604.90 116.21 601.57 117.55
  Q 580.29 126.09 555.82 136.55
  A 0.36 0.36 0.0 0 0 555.90 137.23
  C 560.78 138.19 566.40 139.59 570.59 142.16
  C 580.64 148.33 585.30 158.69 587.40 170.12
  Q 589.41 181.08 589.83 193.75
  Q 590.87 224.89 589.53 259.59
  Q 589.03 272.36 589.04 276.45
  C 589.06 285.05 587.95 294.09 588.04 303.57
  C 588.11 310.45 587.05 318.50 587.00 326.34
  C 586.97 331.89 586.14 337.60 586.08 343.16
  Q 586.03 348.55 585.38 355.76
  C 584.85 361.66 585.24 367.68 584.53 373.61
  C 583.73 380.21 584.10 386.84 583.50 393.80
  C 582.92 400.50 583.18 405.82 582.49 412.31
  Q 582.08 416.25 581.96 423.31
  C 581.90 427.37 581.11 431.89 581.11 435.12
  Q 581.10 441.96 580.34 448.29
  Q 579.91 451.84 580.00 454.21
  C 580.18 458.73 579.37 463.95 579.17 467.78
  Q 578.18 486.66 576.32 510.30
  Q 576.05 513.72 575.96 517.72
  C 575.88 521.65 575.06 526.23 575.04 530.78
  C 575.02 536.57 574.30 540.23 574.07 547.95
  Q 573.86 554.65 573.42 559.42
  C 572.90 564.92 573.10 570.18 572.53 576.03
  C 571.85 582.98 572.40 590.81 571.60 596.98
  C 570.70 603.92 571.16 613.40 570.43 622.50
  C 569.73 631.20 570.15 641.12 569.36 649.99
  C 568.73 657.16 569.13 663.78 568.52 672.32
  Q 567.96 680.09 567.99 691.75
  C 568.00 696.76 567.04 703.84 567.08 709.78
  Q 567.14 719.65 566.20 733.51
  C 565.77 739.84 566.11 748.89 565.56 756.75
  Q 565.04 764.07 565.05 771.09
  C 565.06 781.73 563.85 793.13 563.99 803.34
  C 564.09 810.27 563.09 817.44 563.09 824.92
  C 563.09 834.98 561.94 847.03 561.96 857.64
  C 561.96 860.71 560.78 865.80 561.29 868.30
  A 5.14 5.08 -75.7 0 0 562.97 871.17
  L 569.23 876.55"
/>
<path stroke="#8d8d8d" vector-effect="non-scaling-stroke" d="
  M 444.56 120.04
  C 441.87 117.82 438.36 120.97 436.20 122.70
  Q 371.58 174.61 362.57 182.07
  Q 356.76 186.87 354.05 190.29
  C 350.73 194.46 350.86 198.01 350.89 203.75
  C 351.02 230.62 350.03 257.47 349.91 284.50
  C 349.88 292.52 348.95 303.76 349.02 313.51
  C 349.10 323.32 348.10 331.10 348.02 341.68
  C 347.97 349.17 346.69 357.39 347.01 365.66
  Q 347.11 368.46 346.71 372.83
  C 345.97 380.93 346.34 388.43 345.41 396.37
  Q 345.06 399.33 345.00 405.91
  C 344.94 411.25 344.07 415.68 344.08 420.86
  Q 344.09 423.91 343.45 432.09
  Q 343.01 437.59 342.04 454.77
  C 341.71 460.63 340.94 465.74 340.98 470.92
  C 341.01 474.41 340.22 477.70 340.10 481.51
  Q 340.04 483.68 339.65 489.47
  Q 338.64 504.62 337.89 513.48
  Q 325.90 654.72 315.45 752.25
  Q 311.81 786.19 309.58 804.74
  Q 308.91 810.34 314.08 813.14
  Q 338.66 826.44 358.56 836.66
  Q 400.31 858.13 442.21 874.04
  C 456.75 879.57 470.75 884.01 485.24 886.29
  Q 491.14 887.22 496.20 886.45
  C 504.17 885.25 505.46 879.81 505.83 872.75
  Q 506.31 863.69 506.41 852.25
  Q 506.70 817.94 505.96 775.79
  C 505.74 763.18 505.07 753.09 505.11 744.50
  C 505.19 729.65 503.94 710.70 503.94 696.97
  C 503.93 687.54 503.01 678.82 502.97 669.09
  Q 502.95 663.86 502.31 654.43
  Q 502.14 651.92 501.68 639.76
  Q 501.34 630.68 499.47 594.50
  Q 498.38 573.50 493.96 515.65
  Q 490.47 470.02 487.16 436.90
  Q 474.11 306.52 459.55 201.50
  Q 455.09 169.31 450.11 139.95
  Q 449.11 134.05 447.22 125.27
  Q 446.42 121.56 444.56 120.04"
/>
<path stroke="#323232" vector-effect="non-scaling-stroke" d="
  M 464.33 142.80
  C 468.33 164.02 471.27 184.34 475.08 211.71
  Q 478.00 232.70 479.15 242.28
  Q 484.50 286.89 485.44 295.00
  Q 487.91 316.51 493.20 369.00
  Q 495.91 395.79 500.87 456.32
  Q 501.92 469.17 508.37 554.59
  C 509.33 567.20 509.68 577.85 510.47 591.06
  Q 511.04 600.73 511.76 618.45
  Q 514.51 686.14 515.31 702.99
  Q 515.60 709.21 516.52 751.47
  C 516.72 760.57 517.42 768.20 517.14 776.59
  Q 516.95 781.99 517.27 795.41
  Q 518.10 830.43 517.86 868.55
  A 0.57 0.56 -15.5 0 0 518.72 869.03
  Q 529.01 862.71 541.01 861.81
  Q 544.02 861.59 546.84 862.22
  A 0.66 0.66 0.0 0 0 547.57 861.27
  C 546.66 859.49 548.73 858.69 550.15 858.18
  A 1.57 1.57 0.0 0 0 551.18 856.81
  C 551.91 845.95 551.70 834.34 552.22 822.77
  Q 553.56 793.38 554.14 776.00
  Q 556.01 720.46 557.53 665.45
  Q 558.68 623.41 560.93 585.59
  Q 565.28 512.58 565.89 503.43
  Q 570.95 428.63 571.44 418.25
  Q 573.94 365.05 579.10 252.31
  Q 579.96 233.54 579.96 223.17
  Q 579.94 199.35 579.72 194.01
  Q 579.23 182.46 576.73 169.27
  C 574.83 159.26 570.05 149.89 559.38 147.30
  Q 550.62 145.18 542.43 144.80
  Q 520.33 143.77 493.75 143.14
  Q 478.26 142.77 464.93 142.11
  A 0.59 0.58 -4.3 0 0 464.33 142.80"
/>
<path stroke="#8d8d8d" vector-effect="non-scaling-stroke" d="
  M 596.53 482.38
  C 593.76 513.37 592.40 545.70 591.23 578.75
  Q 591.13 581.75 593.34 585.34
  A 1.26 1.24 -55.5 0 1 593.50 586.25
  Q 593.03 588.62 592.99 590.25
  C 592.87 595.83 593.08 606.44 592.85 614.59
  Q 591.99 644.03 592.02 660.32
  C 592.04 678.18 590.85 696.98 591.01 714.02
  Q 591.08 721.51 590.42 732.96
  C 589.85 742.81 590.35 753.84 589.71 764.08
  C 588.98 775.74 589.13 786.30 588.18 797.25
  C 587.76 802.20 588.30 807.49 587.55 812.56
  C 586.82 817.46 587.22 823.63 586.48 828.78
  Q 586.43 829.12 585.67 838.22
  Q 585.29 842.78 582.67 851.47
  A 9.58 9.30 55.5 0 0 582.27 853.83
  L 581.26 877.17
  A 0.45 0.45 0.0 0 0 581.83 877.62
  Q 587.69 876.00 602.26 870.52
  C 605.86 869.16 614.44 866.16 615.24 862.52
  Q 616.07 858.73 616.07 853.75
  Q 616.01 808.56 615.96 676.00
  Q 615.95 667.59 615.34 655.28
  C 614.93 647.04 615.27 637.90 614.58 631.16
  C 613.96 625.04 614.10 620.32 613.63 613.50
  Q 611.30 579.39 606.04 542.94
  Q 602.89 521.07 599.03 497.72
  Q 598.41 493.92 598.16 490.75
  C 597.84 486.77 597.83 483.69 596.96 482.28
  A 0.23 0.23 0.0 0 0 596.53 482.38"
/>
<path stroke="#323232" vector-effect="non-scaling-stroke" d="
  M 450.80 889.22
  Q 435.82 884.02 424.82 879.42
  Q 379.96 860.65 340.65 839.07
  Q 328.25 832.27 313.68 824.98
  A 1.11 1.11 0.0 0 0 312.08 825.78
  C 311.43 829.44 311.39 833.03 310.77 837.03
  Q 308.67 850.57 307.79 863.52
  Q 307.44 868.67 311.47 872.03
  C 316.82 876.50 323.79 878.37 331.11 880.61
  Q 337.55 882.59 343.28 883.73
  Q 360.55 887.17 378.51 888.40
  Q 400.54 889.90 408.50 889.91
  Q 447.57 889.98 450.67 890.00
  A 0.40 0.40 0.0 0 0 450.80 889.22"
/>
<path stroke="#323232" vector-effect="non-scaling-stroke" d="
  M 516.90 884.73
  L 548.37 878.22
  A 0.10 0.10 0.0 0 0 548.45 878.10
  L 548.44 878.07
  A 16.06 8.11 -11.7 0 0 531.07 873.38
  L 530.86 873.43
  A 16.06 8.11 -11.7 0 0 516.78 884.63
  L 516.78 884.66
  A 0.10 0.10 0.0 0 0 516.90 884.73"
/>
<path stroke="#323232" vector-effect="non-scaling-stroke" d="
  M 526.99 517.29
  Q 526.92 523.14 527.28 528.99
  Q 527.82 537.89 533.12 537.96
  Q 538.42 538.02 539.17 529.13
  Q 539.67 523.29 539.74 517.44
  Q 539.81 511.59 539.45 505.74
  Q 538.90 496.84 533.61 496.78
  Q 528.31 496.72 527.56 505.60
  Q 527.06 511.44 526.99 517.29"
/>
<path stroke="#323232" vector-effect="non-scaling-stroke" d="
  M 527.24 559.03
  Q 527.21 560.75 527.35 563.48
  C 527.55 567.30 530.24 571.44 534.59 569.65
  A 2.50 2.38 -77.3 0 0 535.36 569.14
  C 537.84 566.67 538.02 562.85 538.09 559.26
  C 538.17 555.67 538.15 551.84 535.77 549.27
  A 2.50 2.38 79.7 0 0 535.03 548.73
  C 530.75 546.76 527.89 550.78 527.53 554.59
  Q 527.28 557.32 527.24 559.03"
/>
</g>
<path fill="#1b1b1b" d="
  M 299.72 819.42
  C 297.82 817.78 296.60 812.72 296.19 810.04
  A 5.41 5.14 46.1 0 1 296.18 808.49
  Q 296.99 802.77 298.63 788.74
  Q 302.93 752.03 303.83 742.23
  Q 304.16 738.73 304.21 738.48
  Q 304.94 735.10 304.93 732.59
  C 304.92 729.07 305.98 725.93 306.02 722.32
  C 306.06 719.01 307.05 715.59 307.02 712.14
  C 307.00 708.94 308.04 705.61 308.03 702.57
  C 308.03 699.21 308.96 696.82 309.00 693.60
  Q 309.04 690.81 309.72 687.45
  C 310.26 684.80 309.80 681.82 310.51 679.18
  C 311.27 676.31 311.01 672.65 311.43 669.04
  Q 312.78 657.48 313.01 652.60
  Q 313.17 649.09 313.79 646.45
  C 314.31 644.19 313.84 640.73 314.41 638.16
  C 315.28 634.16 314.74 629.38 315.66 625.21
  C 316.22 622.65 315.85 619.54 316.27 616.94
  Q 316.64 614.65 317.67 602.76
  Q 318.24 596.17 318.84 590.42
  Q 319.95 579.63 320.00 578.06
  C 320.11 573.92 321.10 569.84 321.03 565.38
  Q 320.99 562.99 321.45 560.34
  C 322.18 556.18 321.83 552.18 322.57 548.07
  Q 322.99 545.75 323.08 539.89
  A 11.75 11.70 -38.9 0 1 323.31 537.79
  Q 324.09 533.89 324.08 528.21
  A 11.36 11.30 50.5 0 1 324.28 526.09
  C 325.22 521.14 324.72 516.38 325.60 511.91
  C 326.30 508.43 325.92 503.82 326.59 499.72
  Q 327.06 496.89 327.08 491.59
  C 327.09 489.54 327.81 486.91 327.85 485.27
  Q 328.00 479.48 328.54 473.95
  C 329.10 468.11 328.79 462.87 329.54 457.81
  C 330.13 453.87 329.82 449.56 330.30 445.90
  C 331.12 439.62 330.66 432.99 331.41 427.65
  C 332.32 421.22 331.76 413.96 332.76 407.94
  C 333.40 404.03 332.87 398.12 333.48 393.30
  C 334.30 386.85 333.82 380.25 334.53 373.01
  Q 335.04 367.81 335.06 361.57
  C 335.09 353.79 335.93 348.84 335.94 341.45
  C 335.94 331.87 337.11 320.76 337.02 311.85
  C 336.92 301.81 337.95 291.16 337.96 280.72
  C 337.97 265.80 338.81 246.89 338.91 231.42
  Q 339.12 196.98 339.15 192.95
  Q 339.18 189.64 342.39 184.61
  Q 344.54 181.27 350.63 176.13
  Q 370.55 159.33 386.40 146.40
  Q 388.46 144.72 427.49 113.49
  C 432.40 109.56 436.86 106.78 443.46 106.77
  C 450.80 106.77 456.77 111.32 458.94 118.26
  Q 461.07 125.05 462.17 132.34
  A 1.10 1.09 -3.1 0 0 463.22 133.27
  L 528.65 135.09
  A 2.36 2.30 -56.2 0 0 529.74 134.86
  Q 535.62 131.98 539.73 130.24
  Q 560.17 121.57 577.76 114.00
  Q 587.73 109.70 599.44 105.43
  Q 601.39 104.72 605.50 104.17
  C 616.19 102.75 626.06 110.15 625.02 121.53
  C 624.83 123.71 625.11 126.04 624.72 128.11
  Q 624.02 131.80 624.00 135.71
  C 623.98 140.10 622.94 143.41 623.05 147.78
  Q 623.10 149.80 622.35 154.75
  Q 621.92 157.64 621.90 161.75
  A 11.49 11.35 51.0 0 1 621.70 163.77
  C 620.88 168.09 621.10 172.25 620.59 176.73
  Q 619.39 187.34 619.03 195.36
  Q 618.83 199.70 618.26 202.76
  C 617.67 205.93 618.23 209.39 617.55 212.64
  Q 617.18 214.40 616.94 220.03
  Q 616.90 221.10 616.29 227.41
  Q 615.24 238.22 615.04 243.03
  Q 614.84 247.50 614.26 250.54
  C 613.68 253.54 614.15 257.21 613.56 260.55
  Q 613.08 263.33 613.01 267.59
  Q 612.96 271.05 612.26 275.58
  C 611.75 278.84 612.11 282.69 611.56 286.28
  C 610.82 291.24 611.23 296.42 610.43 301.38
  C 609.64 306.25 610.07 312.20 609.35 317.36
  C 608.76 321.60 609.14 325.43 608.51 329.62
  Q 608.02 332.87 607.99 337.07
  C 607.95 342.24 607.02 346.27 607.01 351.52
  Q 606.99 356.11 606.30 360.98
  C 605.72 365.05 606.16 369.42 605.60 373.62
  Q 605.03 377.85 604.99 381.96
  C 604.94 387.00 603.98 390.95 603.98 396.32
  C 603.99 401.94 603.08 407.11 602.98 413.56
  Q 602.96 415.20 602.46 420.46
  Q 601.51 430.57 601.98 433.76
  Q 602.30 435.97 603.51 444.51
  Q 604.72 453.04 611.48 496.56
  Q 617.91 538.02 621.44 566.02
  Q 624.48 590.05 624.87 599.51
  Q 625.16 606.64 625.74 608.90
  A 4.98 4.70 39.9 0 1 625.89 610.17
  Q 625.80 616.54 626.32 621.95
  Q 626.79 626.95 626.96 633.57
  Q 627.91 672.68 627.92 699.50
  Q 627.96 822.37 628.00 861.25
  C 628.01 869.89 622.42 873.93 615.01 876.94
  Q 604.46 881.23 588.83 886.36
  Q 578.50 889.74 573.00 890.96
  Q 572.17 891.14 567.39 890.85
  A 2.84 2.79 59.6 0 1 566.36 890.57
  L 560.10 887.37
  A 3.74 3.67 -37.4 0 0 557.59 887.06
  Q 534.03 892.36 510.38 895.58
  Q 505.28 896.28 504.09 896.46
  C 500.56 897.02 497.36 896.80 494.10 897.62
  A 8.58 8.03 35.6 0 1 492.28 897.86
  C 487.52 897.97 482.93 898.95 478.89 898.93
  Q 472.98 898.89 463.12 899.42
  C 448.56 900.21 437.50 899.98 420.28 899.96
  C 412.02 899.95 402.77 899.02 395.16 899.00
  Q 391.88 898.99 389.12 898.59
  C 384.31 897.89 381.30 898.14 376.33 897.39
  Q 372.76 896.85 369.54 896.92
  A 7.02 6.94 50.6 0 1 367.80 896.74
  Q 364.16 895.87 360.61 895.92
  A 3.71 3.62 53.4 0 1 359.36 895.72
  Q 357.03 894.95 353.85 894.94
  C 353.03 894.94 351.93 894.45 351.23 894.34
  Q 332.58 891.40 317.78 886.51
  Q 309.52 883.78 303.02 879.26
  Q 298.52 876.13 296.36 869.95
  A 3.58 3.24 -59.3 0 1 296.17 869.01
  Q 295.76 859.94 296.10 858.20
  Q 297.04 853.37 297.04 849.85
  A 6.46 6.37 52.7 0 1 297.25 848.22
  Q 298.05 845.14 298.11 840.41
  C 298.13 838.93 298.89 836.80 298.89 835.83
  C 298.88 831.10 300.13 826.06 300.15 820.36
  A 1.21 1.20 20.7 0 0 299.72 819.42
  Z
  M 569.23 876.55
  A 0.63 0.63 0.0 0 0 570.27 876.13
  Q 570.90 868.79 570.95 863.21
  C 571.04 854.00 571.86 847.39 571.98 837.42
  C 572.08 829.02 573.07 819.20 572.99 810.75
  C 572.91 802.94 573.97 796.55 573.96 788.75
  Q 573.95 781.31 574.56 772.27
  C 575.15 763.30 574.80 755.41 575.37 746.58
  Q 576.02 736.53 576.00 728.20
  C 575.97 720.80 576.92 714.15 576.96 706.42
  Q 577.01 698.12 577.51 690.09
  C 578.18 679.53 577.84 670.24 578.54 659.76
  Q 579.01 652.61 578.99 644.79
  C 578.96 637.13 579.88 629.24 579.93 621.66
  Q 579.99 612.46 580.57 604.34
  C 581.17 595.74 580.78 589.33 581.59 581.34
  C 582.18 575.56 581.71 567.85 582.54 561.48
  Q 582.83 559.30 582.92 552.92
  Q 582.96 549.81 583.51 540.10
  Q 585.50 504.85 587.38 469.76
  Q 588.24 453.77 589.30 438.89
  Q 590.36 424.09 591.36 405.76
  Q 592.08 392.42 595.47 343.70
  Q 596.33 331.30 598.63 298.72
  Q 600.87 267.00 601.99 253.77
  Q 609.62 164.20 612.69 120.54
  C 613.18 113.66 604.90 116.21 601.57 117.55
  Q 580.29 126.09 555.82 136.55
  A 0.36 0.36 0.0 0 0 555.90 137.23
  C 560.78 138.19 566.40 139.59 570.59 142.16
  C 580.64 148.33 585.30 158.69 587.40 170.12
  Q 589.41 181.08 589.83 193.75
  Q 590.87 224.89 589.53 259.59
  Q 589.03 272.36 589.04 276.45
  C 589.06 285.05 587.95 294.09 588.04 303.57
  C 588.11 310.45 587.05 318.50 587.00 326.34
  C 586.97 331.89 586.14 337.60 586.08 343.16
  Q 586.03 348.55 585.38 355.76
  C 584.85 361.66 585.24 367.68 584.53 373.61
  C 583.73 380.21 584.10 386.84 583.50 393.80
  C 582.92 400.50 583.18 405.82 582.49 412.31
  Q 582.08 416.25 581.96 423.31
  C 581.90 427.37 581.11 431.89 581.11 435.12
  Q 581.10 441.96 580.34 448.29
  Q 579.91 451.84 580.00 454.21
  C 580.18 458.73 579.37 463.95 579.17 467.78
  Q 578.18 486.66 576.32 510.30
  Q 576.05 513.72 575.96 517.72
  C 575.88 521.65 575.06 526.23 575.04 530.78
  C 575.02 536.57 574.30 540.23 574.07 547.95
  Q 573.86 554.65 573.42 559.42
  C 572.90 564.92 573.10 570.18 572.53 576.03
  C 571.85 582.98 572.40 590.81 571.60 596.98
  C 570.70 603.92 571.16 613.40 570.43 622.50
  C 569.73 631.20 570.15 641.12 569.36 649.99
  C 568.73 657.16 569.13 663.78 568.52 672.32
  Q 567.96 680.09 567.99 691.75
  C 568.00 696.76 567.04 703.84 567.08 709.78
  Q 567.14 719.65 566.20 733.51
  C 565.77 739.84 566.11 748.89 565.56 756.75
  Q 565.04 764.07 565.05 771.09
  C 565.06 781.73 563.85 793.13 563.99 803.34
  C 564.09 810.27 563.09 817.44 563.09 824.92
  C 563.09 834.98 561.94 847.03 561.96 857.64
  C 561.96 860.71 560.78 865.80 561.29 868.30
  A 5.14 5.08 -75.7 0 0 562.97 871.17
  L 569.23 876.55
  Z
  M 444.56 120.04
  C 441.87 117.82 438.36 120.97 436.20 122.70
  Q 371.58 174.61 362.57 182.07
  Q 356.76 186.87 354.05 190.29
  C 350.73 194.46 350.86 198.01 350.89 203.75
  C 351.02 230.62 350.03 257.47 349.91 284.50
  C 349.88 292.52 348.95 303.76 349.02 313.51
  C 349.10 323.32 348.10 331.10 348.02 341.68
  C 347.97 349.17 346.69 357.39 347.01 365.66
  Q 347.11 368.46 346.71 372.83
  C 345.97 380.93 346.34 388.43 345.41 396.37
  Q 345.06 399.33 345.00 405.91
  C 344.94 411.25 344.07 415.68 344.08 420.86
  Q 344.09 423.91 343.45 432.09
  Q 343.01 437.59 342.04 454.77
  C 341.71 460.63 340.94 465.74 340.98 470.92
  C 341.01 474.41 340.22 477.70 340.10 481.51
  Q 340.04 483.68 339.65 489.47
  Q 338.64 504.62 337.89 513.48
  Q 325.90 654.72 315.45 752.25
  Q 311.81 786.19 309.58 804.74
  Q 308.91 810.34 314.08 813.14
  Q 338.66 826.44 358.56 836.66
  Q 400.31 858.13 442.21 874.04
  C 456.75 879.57 470.75 884.01 485.24 886.29
  Q 491.14 887.22 496.20 886.45
  C 504.17 885.25 505.46 879.81 505.83 872.75
  Q 506.31 863.69 506.41 852.25
  Q 506.70 817.94 505.96 775.79
  C 505.74 763.18 505.07 753.09 505.11 744.50
  C 505.19 729.65 503.94 710.70 503.94 696.97
  C 503.93 687.54 503.01 678.82 502.97 669.09
  Q 502.95 663.86 502.31 654.43
  Q 502.14 651.92 501.68 639.76
  Q 501.34 630.68 499.47 594.50
  Q 498.38 573.50 493.96 515.65
  Q 490.47 470.02 487.16 436.90
  Q 474.11 306.52 459.55 201.50
  Q 455.09 169.31 450.11 139.95
  Q 449.11 134.05 447.22 125.27
  Q 446.42 121.56 444.56 120.04
  Z
  M 464.33 142.80
  C 468.33 164.02 471.27 184.34 475.08 211.71
  Q 478.00 232.70 479.15 242.28
  Q 484.50 286.89 485.44 295.00
  Q 487.91 316.51 493.20 369.00
  Q 495.91 395.79 500.87 456.32
  Q 501.92 469.17 508.37 554.59
  C 509.33 567.20 509.68 577.85 510.47 591.06
  Q 511.04 600.73 511.76 618.45
  Q 514.51 686.14 515.31 702.99
  Q 515.60 709.21 516.52 751.47
  C 516.72 760.57 517.42 768.20 517.14 776.59
  Q 516.95 781.99 517.27 795.41
  Q 518.10 830.43 517.86 868.55
  A 0.57 0.56 -15.5 0 0 518.72 869.03
  Q 529.01 862.71 541.01 861.81
  Q 544.02 861.59 546.84 862.22
  A 0.66 0.66 0.0 0 0 547.57 861.27
  C 546.66 859.49 548.73 858.69 550.15 858.18
  A 1.57 1.57 0.0 0 0 551.18 856.81
  C 551.91 845.95 551.70 834.34 552.22 822.77
  Q 553.56 793.38 554.14 776.00
  Q 556.01 720.46 557.53 665.45
  Q 558.68 623.41 560.93 585.59
  Q 565.28 512.58 565.89 503.43
  Q 570.95 428.63 571.44 418.25
  Q 573.94 365.05 579.10 252.31
  Q 579.96 233.54 579.96 223.17
  Q 579.94 199.35 579.72 194.01
  Q 579.23 182.46 576.73 169.27
  C 574.83 159.26 570.05 149.89 559.38 147.30
  Q 550.62 145.18 542.43 144.80
  Q 520.33 143.77 493.75 143.14
  Q 478.26 142.77 464.93 142.11
  A 0.59 0.58 -4.3 0 0 464.33 142.80
  Z
  M 596.53 482.38
  C 593.76 513.37 592.40 545.70 591.23 578.75
  Q 591.13 581.75 593.34 585.34
  A 1.26 1.24 -55.5 0 1 593.50 586.25
  Q 593.03 588.62 592.99 590.25
  C 592.87 595.83 593.08 606.44 592.85 614.59
  Q 591.99 644.03 592.02 660.32
  C 592.04 678.18 590.85 696.98 591.01 714.02
  Q 591.08 721.51 590.42 732.96
  C 589.85 742.81 590.35 753.84 589.71 764.08
  C 588.98 775.74 589.13 786.30 588.18 797.25
  C 587.76 802.20 588.30 807.49 587.55 812.56
  C 586.82 817.46 587.22 823.63 586.48 828.78
  Q 586.43 829.12 585.67 838.22
  Q 585.29 842.78 582.67 851.47
  A 9.58 9.30 55.5 0 0 582.27 853.83
  L 581.26 877.17
  A 0.45 0.45 0.0 0 0 581.83 877.62
  Q 587.69 876.00 602.26 870.52
  C 605.86 869.16 614.44 866.16 615.24 862.52
  Q 616.07 858.73 616.07 853.75
  Q 616.01 808.56 615.96 676.00
  Q 615.95 667.59 615.34 655.28
  C 614.93 647.04 615.27 637.90 614.58 631.16
  C 613.96 625.04 614.10 620.32 613.63 613.50
  Q 611.30 579.39 606.04 542.94
  Q 602.89 521.07 599.03 497.72
  Q 598.41 493.92 598.16 490.75
  C 597.84 486.77 597.83 483.69 596.96 482.28
  A 0.23 0.23 0.0 0 0 596.53 482.38
  Z
  M 450.80 889.22
  Q 435.82 884.02 424.82 879.42
  Q 379.96 860.65 340.65 839.07
  Q 328.25 832.27 313.68 824.98
  A 1.11 1.11 0.0 0 0 312.08 825.78
  C 311.43 829.44 311.39 833.03 310.77 837.03
  Q 308.67 850.57 307.79 863.52
  Q 307.44 868.67 311.47 872.03
  C 316.82 876.50 323.79 878.37 331.11 880.61
  Q 337.55 882.59 343.28 883.73
  Q 360.55 887.17 378.51 888.40
  Q 400.54 889.90 408.50 889.91
  Q 447.57 889.98 450.67 890.00
  A 0.40 0.40 0.0 0 0 450.80 889.22
  Z
  M 516.90 884.73
  L 548.37 878.22
  A 0.10 0.10 0.0 0 0 548.45 878.10
  L 548.44 878.07
  A 16.06 8.11 -11.7 0 0 531.07 873.38
  L 530.86 873.43
  A 16.06 8.11 -11.7 0 0 516.78 884.63
  L 516.78 884.66
  A 0.10 0.10 0.0 0 0 516.90 884.73
  Z"
/>
<path fill="#ffffff" d="
  M 569.23 876.55
  L 562.97 871.17
  A 5.14 5.08 -75.7 0 1 561.29 868.30
  C 560.78 865.80 561.96 860.71 561.96 857.64
  C 561.94 847.03 563.09 834.98 563.09 824.92
  C 563.09 817.44 564.09 810.27 563.99 803.34
  C 563.85 793.13 565.06 781.73 565.05 771.09
  Q 565.04 764.07 565.56 756.75
  C 566.11 748.89 565.77 739.84 566.20 733.51
  Q 567.14 719.65 567.08 709.78
  C 567.04 703.84 568.00 696.76 567.99 691.75
  Q 567.96 680.09 568.52 672.32
  C 569.13 663.78 568.73 657.16 569.36 649.99
  C 570.15 641.12 569.73 631.20 570.43 622.50
  C 571.16 613.40 570.70 603.92 571.60 596.98
  C 572.40 590.81 571.85 582.98 572.53 576.03
  C 573.10 570.18 572.90 564.92 573.42 559.42
  Q 573.86 554.65 574.07 547.95
  C 574.30 540.23 575.02 536.57 575.04 530.78
  C 575.06 526.23 575.88 521.65 575.96 517.72
  Q 576.05 513.72 576.32 510.30
  Q 578.18 486.66 579.17 467.78
  C 579.37 463.95 580.18 458.73 580.00 454.21
  Q 579.91 451.84 580.34 448.29
  Q 581.10 441.96 581.11 435.12
  C 581.11 431.89 581.90 427.37 581.96 423.31
  Q 582.08 416.25 582.49 412.31
  C 583.18 405.82 582.92 400.50 583.50 393.80
  C 584.10 386.84 583.73 380.21 584.53 373.61
  C 585.24 367.68 584.85 361.66 585.38 355.76
  Q 586.03 348.55 586.08 343.16
  C 586.14 337.60 586.97 331.89 587.00 326.34
  C 587.05 318.50 588.11 310.45 588.04 303.57
  C 587.95 294.09 589.06 285.05 589.04 276.45
  Q 589.03 272.36 589.53 259.59
  Q 590.87 224.89 589.83 193.75
  Q 589.41 181.08 587.40 170.12
  C 585.30 158.69 580.64 148.33 570.59 142.16
  C 566.40 139.59 560.78 138.19 555.90 137.23
  A 0.36 0.36 0.0 0 1 555.82 136.55
  Q 580.29 126.09 601.57 117.55
  C 604.90 116.21 613.18 113.66 612.69 120.54
  Q 609.62 164.20 601.99 253.77
  Q 600.87 267.00 598.63 298.72
  Q 596.33 331.30 595.47 343.70
  Q 592.08 392.42 591.36 405.76
  Q 590.36 424.09 589.30 438.89
  Q 588.24 453.77 587.38 469.76
  Q 585.50 504.85 583.51 540.10
  Q 582.96 549.81 582.92 552.92
  Q 582.83 559.30 582.54 561.48
  C 581.71 567.85 582.18 575.56 581.59 581.34
  C 580.78 589.33 581.17 595.74 580.57 604.34
  Q 579.99 612.46 579.93 621.66
  C 579.88 629.24 578.96 637.13 578.99 644.79
  Q 579.01 652.61 578.54 659.76
  C 577.84 670.24 578.18 679.53 577.51 690.09
  Q 577.01 698.12 576.96 706.42
  C 576.92 714.15 575.97 720.80 576.00 728.20
  Q 576.02 736.53 575.37 746.58
  C 574.80 755.41 575.15 763.30 574.56 772.27
  Q 573.95 781.31 573.96 788.75
  C 573.97 796.55 572.91 802.94 572.99 810.75
  C 573.07 819.20 572.08 829.02 571.98 837.42
  C 571.86 847.39 571.04 854.00 570.95 863.21
  Q 570.90 868.79 570.27 876.13
  A 0.63 0.63 0.0 0 1 569.23 876.55
  Z"
/>
<path fill="#ffffff" d="
  M 444.56 120.04
  Q 446.42 121.56 447.22 125.27
  Q 449.11 134.05 450.11 139.95
  Q 455.09 169.31 459.55 201.50
  Q 474.11 306.52 487.16 436.90
  Q 490.47 470.02 493.96 515.65
  Q 498.38 573.50 499.47 594.50
  Q 501.34 630.68 501.68 639.76
  Q 502.14 651.92 502.31 654.43
  Q 502.95 663.86 502.97 669.09
  C 503.01 678.82 503.93 687.54 503.94 696.97
  C 503.94 710.70 505.19 729.65 505.11 744.50
  C 505.07 753.09 505.74 763.18 505.96 775.79
  Q 506.70 817.94 506.41 852.25
  Q 506.31 863.69 505.83 872.75
  C 505.46 879.81 504.17 885.25 496.20 886.45
  Q 491.14 887.22 485.24 886.29
  C 470.75 884.01 456.75 879.57 442.21 874.04
  Q 400.31 858.13 358.56 836.66
  Q 338.66 826.44 314.08 813.14
  Q 308.91 810.34 309.58 804.74
  Q 311.81 786.19 315.45 752.25
  Q 325.90 654.72 337.89 513.48
  Q 338.64 504.62 339.65 489.47
  Q 340.04 483.68 340.10 481.51
  C 340.22 477.70 341.01 474.41 340.98 470.92
  C 340.94 465.74 341.71 460.63 342.04 454.77
  Q 343.01 437.59 343.45 432.09
  Q 344.09 423.91 344.08 420.86
  C 344.07 415.68 344.94 411.25 345.00 405.91
  Q 345.06 399.33 345.41 396.37
  C 346.34 388.43 345.97 380.93 346.71 372.83
  Q 347.11 368.46 347.01 365.66
  C 346.69 357.39 347.97 349.17 348.02 341.68
  C 348.10 331.10 349.10 323.32 349.02 313.51
  C 348.95 303.76 349.88 292.52 349.91 284.50
  C 350.03 257.47 351.02 230.62 350.89 203.75
  C 350.86 198.01 350.73 194.46 354.05 190.29
  Q 356.76 186.87 362.57 182.07
  Q 371.58 174.61 436.20 122.70
  C 438.36 120.97 441.87 117.82 444.56 120.04
  Z"
/>
<path fill="#494949" d="
  M 464.33 142.80
  A 0.59 0.58 -4.3 0 1 464.93 142.11
  Q 478.26 142.77 493.75 143.14
  Q 520.33 143.77 542.43 144.80
  Q 550.62 145.18 559.38 147.30
  C 570.05 149.89 574.83 159.26 576.73 169.27
  Q 579.23 182.46 579.72 194.01
  Q 579.94 199.35 579.96 223.17
  Q 579.96 233.54 579.10 252.31
  Q 573.94 365.05 571.44 418.25
  Q 570.95 428.63 565.89 503.43
  Q 565.28 512.58 560.93 585.59
  Q 558.68 623.41 557.53 665.45
  Q 556.01 720.46 554.14 776.00
  Q 553.56 793.38 552.22 822.77
  C 551.70 834.34 551.91 845.95 551.18 856.81
  A 1.57 1.57 0.0 0 1 550.15 858.18
  C 548.73 858.69 546.66 859.49 547.57 861.27
  A 0.66 0.66 0.0 0 1 546.84 862.22
  Q 544.02 861.59 541.01 861.81
  Q 529.01 862.71 518.72 869.03
  A 0.57 0.56 -15.5 0 1 517.86 868.55
  Q 518.10 830.43 517.27 795.41
  Q 516.95 781.99 517.14 776.59
  C 517.42 768.20 516.72 760.57 516.52 751.47
  Q 515.60 709.21 515.31 702.99
  Q 514.51 686.14 511.76 618.45
  Q 511.04 600.73 510.47 591.06
  C 509.68 577.85 509.33 567.20 508.37 554.59
  Q 501.92 469.17 500.87 456.32
  Q 495.91 395.79 493.20 369.00
  Q 487.91 316.51 485.44 295.00
  Q 484.50 286.89 479.15 242.28
  Q 478.00 232.70 475.08 211.71
  C 471.27 184.34 468.33 164.02 464.33 142.80
  Z
  M 526.99 517.29
  Q 526.92 523.14 527.28 528.99
  Q 527.82 537.89 533.12 537.96
  Q 538.42 538.02 539.17 529.13
  Q 539.67 523.29 539.74 517.44
  Q 539.81 511.59 539.45 505.74
  Q 538.90 496.84 533.61 496.78
  Q 528.31 496.72 527.56 505.60
  Q 527.06 511.44 526.99 517.29
  Z
  M 527.24 559.03
  Q 527.21 560.75 527.35 563.48
  C 527.55 567.30 530.24 571.44 534.59 569.65
  A 2.50 2.38 -77.3 0 0 535.36 569.14
  C 537.84 566.67 538.02 562.85 538.09 559.26
  C 538.17 555.67 538.15 551.84 535.77 549.27
  A 2.50 2.38 79.7 0 0 535.03 548.73
  C 530.75 546.76 527.89 550.78 527.53 554.59
  Q 527.28 557.32 527.24 559.03
  Z"
/>
<path fill="#ffffff" d="
  M 596.96 482.28
  C 597.83 483.69 597.84 486.77 598.16 490.75
  Q 598.41 493.92 599.03 497.72
  Q 602.89 521.07 606.04 542.94
  Q 611.30 579.39 613.63 613.50
  C 614.10 620.32 613.96 625.04 614.58 631.16
  C 615.27 637.90 614.93 647.04 615.34 655.28
  Q 615.95 667.59 615.96 676.00
  Q 616.01 808.56 616.07 853.75
  Q 616.07 858.73 615.24 862.52
  C 614.44 866.16 605.86 869.16 602.26 870.52
  Q 587.69 876.00 581.83 877.62
  A 0.45 0.45 0.0 0 1 581.26 877.17
  L 582.27 853.83
  A 9.58 9.30 55.5 0 1 582.67 851.47
  Q 585.29 842.78 585.67 838.22
  Q 586.43 829.12 586.48 828.78
  C 587.22 823.63 586.82 817.46 587.55 812.56
  C 588.30 807.49 587.76 802.20 588.18 797.25
  C 589.13 786.30 588.98 775.74 589.71 764.08
  C 590.35 753.84 589.85 742.81 590.42 732.96
  Q 591.08 721.51 591.01 714.02
  C 590.85 696.98 592.04 678.18 592.02 660.32
  Q 591.99 644.03 592.85 614.59
  C 593.08 606.44 592.87 595.83 592.99 590.25
  Q 593.03 588.62 593.50 586.25
  A 1.26 1.24 -55.5 0 0 593.34 585.34
  Q 591.13 581.75 591.23 578.75
  C 592.40 545.70 593.76 513.37 596.53 482.38
  A 0.23 0.23 0.0 0 1 596.96 482.28
  Z"
/>
<path fill="#1b1b1b" d="
  M 533.61 496.78
  Q 538.90 496.84 539.45 505.74
  Q 539.81 511.59 539.74 517.44
  Q 539.67 523.29 539.17 529.13
  Q 538.42 538.02 533.12 537.96
  Q 527.82 537.89 527.28 528.99
  Q 526.92 523.14 526.99 517.29
  Q 527.06 511.44 527.56 505.60
  Q 528.31 496.72 533.61 496.78
  Z"
/>
<path fill="#1b1b1b" d="
  M 538.09 559.26
  C 538.02 562.85 537.84 566.67 535.36 569.14
  A 2.50 2.38 -77.3 0 1 534.59 569.65
  C 530.24 571.44 527.55 567.30 527.35 563.48
  Q 527.21 560.75 527.24 559.03
  Q 527.28 557.32 527.53 554.59
  C 527.89 550.78 530.75 546.76 535.03 548.73
  A 2.50 2.38 79.7 0 1 535.77 549.27
  C 538.15 551.84 538.17 555.67 538.09 559.26
  Z"
/>
<path fill="#494949" d="
  M 450.80 889.22
  A 0.40 0.40 0.0 0 1 450.67 890.00
  Q 447.57 889.98 408.50 889.91
  Q 400.54 889.90 378.51 888.40
  Q 360.55 887.17 343.28 883.73
  Q 337.55 882.59 331.11 880.61
  C 323.79 878.37 316.82 876.50 311.47 872.03
  Q 307.44 868.67 307.79 863.52
  Q 308.67 850.57 310.77 837.03
  C 311.39 833.03 311.43 829.44 312.08 825.78
  A 1.11 1.11 0.0 0 1 313.68 824.98
  Q 328.25 832.27 340.65 839.07
  Q 379.96 860.65 424.82 879.42
  Q 435.82 884.02 450.80 889.22
  Z"
/>
<path fill="#494949" d="
  M 516.90 884.73
  A 0.10 0.10 0.0 0 1 516.78 884.66
  L 516.78 884.63
  A 16.06 8.11 -11.7 0 1 530.86 873.43
  L 531.07 873.38
  A 16.06 8.11 -11.7 0 1 548.44 878.07
  L 548.45 878.10
  A 0.10 0.10 0.0 0 1 548.37 878.22
  L 516.90 884.73
  Z"
/>
</svg>
