<?xml version="1.0" encoding="UTF-8" standalone="no"?>
<!DOCTYPE svg PUBLIC "-//W3C//DTD SVG 1.1//EN" "http://www.w3.org/Graphics/SVG/1.1/DTD/svg11.dtd">
<svg xmlns="http://www.w3.org/2000/svg" version="1.1" viewBox="0.00 0.00 1536.00 1024.00">
<g stroke-width="2.00" fill="none" stroke-linecap="butt">
<path stroke="#121c31" vector-effect="non-scaling-stroke" d="
  M 585.32 303.89
  Q 594.95 306.01 597.23 306.56
  C 622.88 312.75 648.11 323.08 671.82 334.92
  A 0.95 0.95 0.0 0 0 673.03 334.61
  Q 673.20 334.36 673.49 333.50
  Q 681.04 310.62 691.66 289.65
  Q 700.31 272.58 711.04 259.53
  C 721.40 246.95 733.60 237.46 748.94 232.29
  A 1.00 1.00 0.0 0 0 749.51 230.89
  C 741.84 215.86 734.33 203.52 723.77 190.96
  Q 715.81 181.50 708.28 176.19
  Q 694.78 166.69 678.60 162.21
  Q 659.81 157.02 641.75 156.18
  C 627.20 155.50 615.79 157.80 607.73 171.24
  Q 603.69 177.97 601.02 185.02
  C 595.30 200.14 590.47 214.80 588.28 230.02
  Q 584.71 254.77 584.81 283.25
  Q 584.88 302.28 584.82 303.23
  A 0.64 0.63 -82.7 0 0 585.32 303.89"
/>
<path stroke="#121c31" vector-effect="non-scaling-stroke" d="
  M 971.17 352.52
  Q 972.77 346.11 975.69 338.91
  C 984.69 316.75 996.02 297.44 1012.70 280.44
  Q 1024.37 268.54 1039.76 261.67
  A 1.21 1.21 0.0 0 0 1040.40 260.14
  Q 1032.62 239.20 1021.31 218.16
  C 1012.79 202.32 1003.13 190.38 985.44 184.35
  Q 962.32 176.48 936.80 175.98
  C 923.66 175.73 909.76 177.08 902.35 189.82
  C 897.68 197.84 895.40 205.57 893.52 214.76
  Q 888.42 239.72 886.18 265.66
  C 884.41 286.12 882.30 305.76 880.58 324.37
  A 0.87 0.86 7.4 0 0 881.31 325.31
  Q 928.23 332.76 970.50 352.83
  A 0.48 0.47 19.7 0 0 971.17 352.52"
/>
<path stroke="#6a280d" vector-effect="non-scaling-stroke" d="
  M 873.68 204.21
  C 865.51 205.09 856.78 204.82 848.80 205.48
  C 839.21 206.26 821.77 206.77 808.42 207.98
  C 788.17 209.80 776.17 210.71 765.54 212.16
  A 0.51 0.51 0.0 0 0 765.15 212.89
  L 772.08 227.22
  A 1.60 1.59 74.5 0 0 773.64 228.11
  Q 811.36 224.97 846.50 229.86
  C 853.61 230.85 859.07 232.21 868.40 234.28
  A 0.44 0.43 -79.9 0 0 868.93 233.91
  Q 870.57 219.43 873.98 204.54
  A 0.28 0.27 -87.7 0 0 873.68 204.21"
/>
<path stroke="#6a280d" vector-effect="non-scaling-stroke" d="
  M 1056.54 239.36
  A 0.84 0.83 -16.9 0 0 1055.90 240.55
  Q 1059.61 248.19 1061.21 255.51
  A 0.53 0.53 0.0 0 0 1061.81 255.93
  C 1077.89 253.55 1093.04 252.97 1111.50 253.11
  C 1129.52 253.24 1151.35 255.64 1166.25 255.49
  C 1177.98 255.37 1186.34 253.19 1194.26 244.36
  Q 1195.69 242.76 1195.06 240.93
  A 1.66 1.62 -83.2 0 0 1194.44 240.12
  C 1188.68 236.27 1181.69 234.75 1174.83 233.62
  Q 1170.76 232.95 1165.14 232.57
  Q 1147.60 231.40 1126.18 232.40
  Q 1113.48 233.00 1110.99 233.19
  Q 1086.77 235.11 1056.54 239.36"
/>
<path stroke="#0a101b" vector-effect="non-scaling-stroke" d="
  M 439.06 660.38
  Q 443.39 659.91 446.47 659.18
  Q 448.35 658.73 449.29 657.29
  Q 452.40 652.56 457.65 645.61
  Q 461.45 640.60 466.54 636.03
  Q 474.38 628.98 476.42 627.41
  Q 500.76 608.72 529.38 597.39
  Q 561.47 584.68 566.21 582.68
  Q 579.68 577.01 586.44 573.94
  C 606.29 564.91 625.46 554.70 643.84 542.92
  Q 654.72 535.95 660.93 532.18
  Q 664.17 530.20 668.71 526.69
  Q 686.62 512.82 704.46 495.96
  Q 718.28 482.90 729.90 470.16
  Q 734.46 465.17 736.47 463.06
  Q 740.62 458.72 742.89 455.82
  Q 751.53 444.81 760.38 433.88
  Q 764.19 429.17 777.32 410.57
  Q 788.21 395.16 792.76 386.28
  C 800.75 370.71 806.72 359.44 811.66 345.56
  Q 812.49 343.23 816.50 332.26
  C 818.49 326.80 820.11 320.50 821.42 314.82
  C 823.28 306.73 826.11 298.26 828.94 290.69
  Q 831.12 284.87 835.04 277.16
  C 839.98 267.48 848.14 259.31 856.73 253.13
  A 0.61 0.61 0.0 0 0 856.44 252.03
  L 840.71 250.36"
/>
<path stroke="#121c31" vector-effect="non-scaling-stroke" d="
  M 840.71 250.36
  Q 812.43 247.32 784.00 247.79
  Q 776.17 247.92 769.23 248.96
  C 745.27 252.55 727.48 268.00 715.89 289.13
  Q 701.84 314.76 692.14 342.43
  A 1.71 1.71 0.0 0 0 692.97 344.51
  Q 701.64 348.93 709.18 354.58
  C 711.05 355.97 712.66 357.81 714.57 359.10
  A 0.93 0.92 50.7 0 0 715.41 359.19
  Q 725.57 355.15 734.34 358.63
  C 755.58 367.06 758.55 397.20 738.77 408.71
  Q 729.04 414.37 716.77 411.18
  Q 713.72 410.39 711.45 408.77
  A 2.90 2.89 55.2 0 0 708.98 408.32
  Q 701.41 410.39 693.86 408.11
  C 685.11 405.47 676.13 400.25 668.38 395.84
  A 0.72 0.71 34.0 0 0 667.46 396.01
  L 650.50 417.20
  A 0.95 0.95 0.0 0 0 650.52 418.42
  L 656.31 425.11
  A 2.53 2.52 78.8 0 0 657.41 425.85
  Q 658.84 426.34 660.63 426.12
  C 666.90 425.36 674.19 427.97 679.34 431.44
  C 688.63 437.71 692.15 448.42 691.02 459.33
  C 689.12 477.72 668.09 486.49 651.95 480.13
  C 648.69 478.84 646.31 478.95 641.70 478.95
  C 631.70 478.94 623.33 472.40 617.12 464.96
  A 0.39 0.38 47.0 0 0 616.55 464.93
  L 601.73 479.75
  A 1.98 1.97 -37.4 0 0 601.41 482.13
  L 604.16 486.88
  A 1.77 1.77 0.0 0 0 605.15 487.68
  Q 607.31 488.37 611.16 489.87
  C 622.49 494.27 626.53 509.15 625.18 520.06
  Q 624.41 526.27 622.18 529.71
  C 614.72 541.24 603.11 544.94 589.93 541.63
  Q 586.16 540.69 581.11 537.13
  Q 577.84 534.83 572.51 531.97
  C 566.86 528.94 563.15 524.92 560.05 519.51
  A 0.55 0.54 52.5 0 0 559.19 519.39
  C 547.64 531.03 533.77 541.40 520.34 550.55
  A 2.14 2.14 0.0 0 0 519.57 553.14
  Q 520.98 556.50 520.95 560.39
  C 520.93 563.82 519.80 571.38 517.79 574.32
  C 510.95 584.30 500.36 591.41 487.74 588.78
  C 480.44 587.26 475.03 584.44 467.60 580.77
  A 3.26 3.24 -44.7 0 0 464.75 580.76
  C 454.52 585.74 445.46 589.82 437.36 595.28
  Q 427.99 601.60 418.30 611.75
  C 407.55 623.00 400.93 635.18 396.30 649.58
  Q 394.51 655.16 393.98 660.49
  A 0.56 0.55 7.1 0 0 394.45 661.09
  Q 398.02 661.66 399.06 661.72
  Q 419.73 662.89 439.06 660.38"
/>
<path stroke="#1c2c4b" vector-effect="non-scaling-stroke" d="
  M 840.71 250.36
  L 840.67 250.63
  A 0.30 0.29 -85.4 0 1 840.38 250.88
  L 837.44 250.88
  A 0.96 0.95 -82.5 0 0 836.52 251.59
  Q 832.60 266.70 831.90 268.63
  Q 826.53 283.42 821.60 300.69
  Q 817.70 314.34 815.21 321.44
  Q 808.90 339.39 807.81 341.86
  Q 798.46 363.18 796.26 367.54
  Q 784.57 390.75 772.22 409.24
  C 767.13 416.86 759.90 425.72 753.82 433.81
  C 746.97 442.91 741.66 447.95 730.47 459.83
  C 724.38 466.29 718.59 471.41 712.46 477.39
  Q 705.66 484.02 698.45 489.98
  Q 675.40 509.01 653.64 525.38
  Q 643.07 533.34 633.91 538.90
  Q 612.08 552.17 591.26 562.40
  Q 585.05 565.45 572.76 571.69
  Q 559.36 578.49 554.04 580.53
  Q 517.15 594.66 506.82 599.34
  Q 489.71 607.10 472.90 619.21
  Q 461.24 627.62 453.22 637.50
  Q 444.79 647.89 439.06 660.38"
/>
<path stroke="#6a280d" vector-effect="non-scaling-stroke" d="
  M 565.65 250.02
  Q 565.36 250.06 565.11 250.39
  Q 554.06 265.30 552.65 283.43
  Q 552.53 284.97 551.09 302.31
  A 0.53 0.53 0.0 0 0 551.70 302.88
  Q 557.92 301.90 563.61 302.48
  A 0.57 0.57 0.0 0 0 564.24 301.94
  Q 565.01 284.03 565.00 263.53
  C 565.00 259.73 565.39 254.49 566.02 250.40
  A 0.33 0.33 0.0 0 0 565.65 250.02"
/>
<path stroke="#121c31" vector-effect="non-scaling-stroke" d="
  M 1205.27 263.37
  Q 1197.37 269.63 1192.44 271.40
  Q 1180.36 275.71 1166.62 275.63
  Q 1146.76 275.50 1126.50 274.32
  Q 1105.58 273.10 1084.00 274.05
  Q 1063.19 274.97 1052.26 279.02
  C 1033.55 285.95 1021.58 298.78 1011.11 315.34
  Q 997.40 337.04 988.97 361.22
  A 0.67 0.66 -67.0 0 0 989.29 362.03
  C 997.22 366.08 1004.00 369.46 1009.64 374.86
  Q 1012.45 377.55 1015.71 376.32
  C 1027.18 372.00 1040.99 376.53 1046.80 387.47
  Q 1055.49 403.83 1045.03 419.00
  C 1039.96 426.37 1030.87 429.72 1021.75 429.82
  Q 1016.84 429.87 1010.54 426.17
  A 1.66 1.64 60.0 0 0 1009.70 425.94
  Q 1008.76 425.95 1006.49 426.48
  C 999.00 428.22 990.65 425.86 983.45 422.78
  Q 975.20 419.26 966.87 414.53
  A 1.75 1.74 34.1 0 0 964.64 414.96
  L 951.76 431.05
  A 1.49 1.49 0.0 0 0 951.80 432.96
  L 960.01 442.45
  A 4.99 4.97 -17.5 0 0 963.26 444.13
  C 979.63 445.75 990.29 460.07 987.71 476.21
  C 984.98 493.32 968.45 501.82 952.51 495.93
  C 948.95 494.61 946.37 491.97 942.00 491.51
  C 932.56 490.52 924.56 485.62 917.79 479.57
  A 0.51 0.51 0.0 0 0 917.06 479.62
  L 903.69 495.17
  A 1.47 1.45 43.8 0 0 903.74 497.12
  Q 909.59 503.28 914.54 510.56
  A 3.78 3.73 -13.5 0 0 917.22 512.18
  C 921.82 512.71 925.20 514.39 928.20 518.06
  C 933.39 524.40 936.19 531.43 934.72 539.52
  C 932.59 551.22 924.07 560.79 911.99 562.04
  Q 905.31 562.74 900.11 561.30
  Q 893.04 559.35 889.67 554.85
  Q 887.28 551.66 883.92 550.74
  C 875.23 548.37 866.94 542.24 861.11 535.54
  A 0.55 0.55 0.0 0 0 860.27 535.56
  Q 859.33 536.71 858.24 537.75
  Q 834.45 560.56 811.61 577.26
  A 1.03 1.02 -38.6 0 0 811.44 578.76
  C 813.14 580.71 815.50 583.22 816.18 585.89
  Q 817.79 592.24 816.46 598.79
  C 814.49 608.49 804.54 615.66 795.11 616.81
  C 787.63 617.72 778.38 617.48 771.13 614.64
  Q 770.00 614.19 764.47 611.16
  A 1.20 1.20 0.0 0 0 763.03 611.38
  Q 756.54 618.10 750.31 626.10
  Q 737.68 642.32 733.33 661.80
  Q 730.37 675.10 731.15 686.12
  Q 731.96 697.56 735.01 710.08
  A 0.89 0.87 84.2 0 0 735.82 710.75
  L 744.63 711.25
  A 1.30 1.29 11.7 0 0 745.93 710.40
  Q 749.65 700.29 755.49 691.98
  Q 776.39 662.27 806.78 643.26
  Q 840.22 622.33 878.63 613.82
  Q 893.92 610.44 907.06 610.01
  Q 923.67 609.48 935.78 610.82
  Q 957.21 613.20 978.75 622.34
  Q 1000.42 631.54 1017.60 647.42
  C 1023.12 652.53 1028.26 658.93 1032.55 665.14
  A 1.75 1.74 62.6 0 0 1034.59 665.79
  C 1038.53 664.34 1041.26 663.45 1044.27 662.14
  Q 1070.41 650.68 1098.06 640.72
  A 1.15 1.14 79.2 0 0 1098.82 639.60
  Q 1097.15 601.65 1103.64 564.32
  Q 1111.53 518.91 1129.06 472.03
  Q 1151.50 412.05 1193.01 359.26
  Q 1206.46 342.16 1216.18 333.20
  A 1.59 1.57 64.1 0 0 1216.66 331.80
  L 1206.02 263.66
  A 0.47 0.46 -23.6 0 0 1205.27 263.37"
/>
<path stroke="#6a280d" vector-effect="non-scaling-stroke" d="
  M 839.69 325.12
  Q 839.90 325.19 847.61 324.20
  C 852.53 323.57 856.29 323.75 861.27 323.90
  A 0.44 0.43 3.4 0 0 861.73 323.50
  L 865.50 271.65
  A 0.24 0.24 0.0 0 0 865.08 271.47
  C 855.74 282.05 848.07 293.36 843.83 306.78
  Q 843.03 309.33 841.71 315.65
  Q 840.23 322.76 839.39 324.40
  A 0.52 0.51 22.7 0 0 839.69 325.12"
/>
<path stroke="#6a280d" vector-effect="non-scaling-stroke" d="
  M 538.49 344.71
  A 0.22 0.22 0.0 0 0 538.74 345.01
  Q 554.25 342.26 569.49 343.37
  C 586.27 344.59 601.65 347.68 617.92 353.06
  Q 643.58 361.56 668.42 374.22
  Q 692.66 386.57 694.07 387.19
  C 698.72 389.25 704.92 391.65 709.39 389.89
  Q 711.52 389.05 711.72 387.40
  Q 712.69 379.37 705.90 375.25
  Q 685.00 362.57 662.06 352.17
  Q 648.65 346.09 632.60 339.62
  Q 606.46 329.07 577.80 324.62
  Q 560.52 321.94 546.67 323.61
  A 0.67 0.66 -83.4 0 0 546.13 324.04
  L 538.49 344.71"
/>
<path stroke="#6a280d" vector-effect="non-scaling-stroke" d="
  M 828.87 361.03
  Q 831.49 360.64 835.51 360.49
  C 851.86 359.89 869.98 360.93 887.24 364.95
  Q 903.31 368.69 909.81 370.71
  C 938.39 379.60 966.59 391.98 992.49 405.75
  C 997.24 408.28 1009.17 412.33 1010.06 403.26
  C 1010.70 396.84 1005.80 394.39 1000.78 391.47
  Q 973.56 375.63 942.55 363.17
  C 907.95 349.28 872.28 342.08 834.74 343.99
  A 0.06 0.05 5.7 0 0 834.68 344.03
  L 828.55 360.63
  A 0.30 0.30 0.0 0 0 828.87 361.03"
/>
<path stroke="#6a280d" vector-effect="non-scaling-stroke" d="
  M 1116.84 633.32
  A 0.37 0.37 0.0 0 0 1117.35 633.66
  L 1137.36 625.27
  A 1.12 1.11 -10.8 0 0 1138.04 624.28
  Q 1138.17 616.44 1138.70 604.10
  C 1140.48 562.42 1150.56 521.15 1167.07 482.73
  Q 1181.14 450.01 1201.00 420.75
  Q 1213.65 402.12 1226.06 388.06
  Q 1228.69 385.08 1227.61 381.44
  Q 1224.03 369.30 1222.14 359.60
  A 0.76 0.76 0.0 0 0 1220.85 359.21
  Q 1212.58 367.65 1205.44 376.68
  C 1173.70 416.73 1150.16 464.16 1135.66 513.38
  Q 1120.77 563.93 1117.29 615.76
  Q 1116.75 623.77 1116.84 633.32"
/>
<path stroke="#6a280d" vector-effect="non-scaling-stroke" d="
  M 551.34 363.67
  C 551.66 364.47 552.73 365.00 553.39 365.72
  Q 581.45 395.97 595.64 412.41
  Q 617.81 438.09 625.70 446.71
  C 628.80 450.09 631.81 453.94 635.65 456.34
  C 638.36 458.03 647.38 461.14 650.11 457.34
  Q 651.78 455.01 651.44 452.73
  C 650.83 448.61 647.31 444.13 644.78 441.07
  Q 613.83 403.76 590.11 376.75
  Q 587.92 374.26 579.51 365.97
  C 577.90 364.38 576.54 363.97 574.49 363.93
  Q 560.09 363.69 551.61 363.30
  A 0.27 0.27 0.0 0 0 551.34 363.67"
/>
<path stroke="#121c31" vector-effect="non-scaling-stroke" d="
  M 525.36 373.27
  Q 526.84 371.89 527.55 369.82
  Q 527.90 368.81 527.70 367.54
  A 0.25 0.24 54.3 0 0 527.24 367.46
  C 527.04 367.85 527.40 368.49 526.99 369.17
  Q 525.13 372.32 522.74 374.90
  A 0.39 0.39 0.0 0 0 523.19 375.52
  L 524.46 374.94
  A 1.34 1.32 -54.1 0 1 525.17 374.82
  L 533.42 375.65
  A 0.29 0.29 0.0 0 0 533.59 375.11
  L 532.80 374.68
  A 1.60 1.55 86.9 0 1 532.23 374.15
  Q 530.70 371.72 528.59 370.08
  A 0.29 0.29 0.0 0 0 528.13 370.41
  Q 528.71 372.04 530.55 373.46
  A 0.28 0.28 0.0 0 1 530.32 373.95
  Q 527.27 373.39 525.58 373.70
  A 0.25 0.25 0.0 0 1 525.36 373.27"
/>
<path stroke="#121c31" vector-effect="non-scaling-stroke" d="
  M 614.21 373.63
  A 0.37 0.37 0.0 0 0 613.79 374.22
  L 636.22 400.11
  A 0.37 0.37 0.0 0 0 636.79 400.10
  L 647.11 387.21
  A 0.37 0.37 0.0 0 0 646.96 386.64
  L 614.21 373.63"
/>
<path stroke="#121c31" vector-effect="non-scaling-stroke" d="
  M 726.84 396.36
  Q 727.02 396.40 727.04 396.51
  A 0.28 0.17 -40.4 0 0 727.45 396.44
  C 728.85 394.64 731.24 394.01 732.91 392.00
  C 737.53 386.41 736.24 377.28 729.11 374.72
  A 0.42 0.42 0.0 0 0 728.59 375.29
  Q 730.07 378.35 730.64 382.21
  Q 731.90 390.61 726.80 396.24
  A 0.08 0.07 27.4 0 0 726.84 396.36"
/>
<path stroke="#6a280d" vector-effect="non-scaling-stroke" d="
  M 835.74 380.98
  A 0.27 0.26 62.7 0 0 835.59 381.46
  C 845.67 388.80 855.78 397.49 866.23 406.20
  C 890.44 426.38 913.37 447.88 934.61 468.89
  C 938.86 473.08 945.33 474.84 950.87 472.05
  A 1.39 1.36 87.3 0 0 951.53 471.31
  C 953.16 467.00 951.78 461.68 948.65 458.34
  C 923.52 431.52 897.59 407.33 869.46 385.53
  Q 864.91 382.01 861.27 381.08
  A 3.07 2.98 51.6 0 0 860.50 380.98
  L 835.74 380.98"
/>
<path stroke="#121c31" vector-effect="non-scaling-stroke" d="
  M 825.51 400.12
  A 0.53 0.53 0.0 0 0 825.91 399.24
  L 816.65 388.55
  A 0.53 0.53 0.0 0 0 815.79 388.63
  L 809.62 399.33
  A 0.53 0.53 0.0 0 0 810.08 400.12
  L 825.51 400.12"
/>
<path stroke="#121c31" vector-effect="non-scaling-stroke" d="
  M 906.00 391.32
  C 915.53 399.18 926.16 408.49 934.31 417.81
  A 0.54 0.52 44.4 0 0 935.11 417.81
  L 945.79 405.39
  A 0.49 0.49 0.0 0 0 945.56 404.60
  Q 941.65 403.41 933.10 399.98
  C 925.17 396.81 915.30 393.89 906.18 390.99
  A 0.19 0.19 0.0 0 0 906.00 391.32"
/>
<path stroke="#121c31" vector-effect="non-scaling-stroke" d="
  M 1026.98 411.63
  A 0.31 0.31 0.0 0 0 1027.40 412.04
  C 1034.34 408.27 1035.25 402.61 1031.86 395.82
  Q 1030.68 393.45 1028.63 392.07
  A 0.35 0.35 0.0 0 0 1028.14 392.54
  Q 1030.69 396.85 1029.72 402.06
  C 1029.18 404.94 1028.37 409.00 1026.98 411.63"
/>
<path stroke="#6a280d" vector-effect="non-scaling-stroke" d="
  M 578.89 421.34
  A 0.33 0.33 0.0 0 0 579.13 420.78
  C 575.19 416.75 571.49 411.89 567.19 407.42
  C 564.25 404.38 561.55 400.95 557.31 399.90
  Q 547.69 397.51 537.51 395.78
  C 536.51 395.61 535.09 394.80 534.37 394.86
  A 0.41 0.41 0.0 0 0 534.11 395.56
  C 539.37 400.99 545.18 406.55 550.77 412.54
  Q 553.92 415.91 558.67 416.86
  Q 566.70 418.48 574.36 419.93
  C 575.92 420.23 577.76 421.31 578.89 421.34"
/>
<path stroke="#6a280d" vector-effect="non-scaling-stroke" d="
  M 489.97 414.86
  C 494.93 416.37 500.57 418.16 505.01 421.04
  Q 515.81 428.02 522.63 435.39
  Q 538.75 452.80 553.09 474.41
  Q 562.10 488.00 572.28 506.20
  C 574.75 510.62 578.63 515.93 584.05 517.08
  A 1.62 1.61 -50.6 0 0 585.04 516.98
  C 591.53 514.23 590.45 505.55 588.43 500.14
  Q 584.99 490.94 580.15 482.34
  C 566.24 457.69 549.95 435.22 528.55 416.46
  C 520.26 409.19 511.70 404.49 502.03 399.21
  A 0.53 0.52 33.3 0 0 501.37 399.34
  L 489.69 413.93
  A 0.59 0.58 -62.2 0 0 489.97 414.86"
/>
<path stroke="#121c31" vector-effect="non-scaling-stroke" d="
  M 1158.26 618.32
  C 1167.17 615.41 1175.75 611.50 1183.42 608.45
  Q 1212.45 596.90 1226.52 590.74
  Q 1245.20 582.55 1265.01 570.96
  A 2.28 2.28 0.0 0 0 1266.13 568.70
  Q 1258.27 505.41 1242.03 443.20
  Q 1237.56 426.10 1233.94 410.15
  A 0.25 0.25 0.0 0 0 1233.50 410.05
  Q 1224.96 421.09 1217.39 431.64
  C 1204.87 449.09 1195.38 467.64 1186.37 487.72
  Q 1175.35 512.29 1168.99 537.92
  Q 1164.21 557.17 1162.64 565.44
  Q 1157.87 590.70 1157.82 617.99
  A 0.34 0.34 0.0 0 0 1158.26 618.32"
/>
<path stroke="#6a280d" vector-effect="non-scaling-stroke" d="
  M 818.26 420.92
  A 0.38 0.38 0.0 0 0 817.98 421.60
  Q 827.95 428.60 835.65 434.08
  Q 839.08 436.52 842.87 436.93
  Q 860.26 438.82 877.73 441.57
  A 0.35 0.34 -19.0 0 0 878.02 440.98
  Q 870.37 433.86 861.61 426.65
  Q 858.75 424.29 856.12 424.01
  Q 835.39 421.83 823.52 421.67
  Q 822.74 421.66 818.26 420.92"
/>
<path stroke="#6a280d" vector-effect="non-scaling-stroke" d="
  M 779.03 441.87
  A 0.48 0.48 0.0 0 0 779.15 442.58
  Q 812.96 464.12 843.75 491.62
  Q 861.40 507.39 876.65 523.48
  C 880.68 527.72 887.37 533.44 893.45 534.00
  C 898.26 534.45 901.68 531.73 901.12 526.75
  Q 900.59 522.12 898.82 520.41
  Q 896.78 518.44 879.94 500.61
  C 855.48 474.71 827.16 449.98 796.49 430.53
  C 794.61 429.34 793.41 427.98 791.60 427.13
  A 0.80 0.78 -58.2 0 0 790.65 427.36
  L 779.03 441.87"
/>
<path stroke="#121c31" vector-effect="non-scaling-stroke" d="
  M 518.40 457.42
  Q 510.53 449.18 502.54 442.47
  Q 497.06 437.88 490.01 437.28
  Q 482.16 436.61 475.39 436.66
  A 3.88 3.73 32.6 0 0 474.03 436.93
  Q 472.01 437.73 471.26 438.53
  Q 466.39 443.66 463.14 446.52
  A 0.21 0.21 0.0 0 0 463.23 446.88
  C 475.75 450.28 488.93 450.25 502.19 453.60
  Q 513.74 456.51 514.89 456.52
  A 2.09 2.08 61.0 0 1 515.93 456.82
  Q 517.26 457.62 518.18 457.81
  A 0.24 0.23 -16.1 0 0 518.40 457.42"
/>
<path stroke="#121c31" vector-effect="non-scaling-stroke" d="
  M 595.48 456.05
  Q 598.36 452.10 599.43 450.11
  A 1.14 1.13 31.6 0 0 599.08 448.64
  Q 598.40 448.17 596.97 447.78
  Q 586.81 445.02 576.93 442.36
  Q 576.77 442.32 576.72 442.38
  Q 576.67 442.44 576.77 442.59
  Q 582.32 451.18 588.06 460.00
  Q 588.87 461.24 589.53 461.75
  A 1.14 1.13 40.5 0 0 591.04 461.63
  Q 592.60 460.00 595.48 456.05"
/>
<path stroke="#121c31" vector-effect="non-scaling-stroke" d="
  M 669.38 454.70
  Q 668.68 460.45 664.92 465.32
  A 0.27 0.27 0.0 0 0 665.19 465.76
  C 670.84 464.79 674.40 461.05 675.09 455.39
  C 675.78 449.73 673.21 445.25 667.95 442.95
  A 0.27 0.27 0.0 0 0 667.59 443.31
  Q 670.07 448.95 669.38 454.70"
/>
<path stroke="#121c31" vector-effect="non-scaling-stroke" d="
  M 758.63 470.25
  Q 772.69 469.35 785.65 470.69
  A 0.15 0.15 0.0 0 0 785.76 470.42
  Q 777.27 463.31 768.62 458.31
  A 0.90 0.90 0.0 0 0 767.47 458.53
  L 758.42 469.84
  A 0.25 0.25 0.0 0 0 758.63 470.25"
/>
<path stroke="#6a280d" vector-effect="non-scaling-stroke" d="
  M 434.03 469.69
  Q 447.25 479.05 457.09 488.46
  Q 475.12 505.69 486.08 517.96
  Q 496.56 529.68 501.29 535.10
  Q 501.49 535.33 505.26 538.20
  A 1.24 1.24 0.0 0 0 506.82 538.15
  L 517.43 528.97
  A 0.63 0.62 -39.0 0 0 517.52 528.13
  Q 503.15 508.83 486.95 492.33
  C 474.44 479.60 462.33 467.05 446.01 459.47
  A 2.06 2.05 -52.8 0 0 443.80 459.78
  L 433.96 468.30
  A 0.89 0.88 -47.9 0 0 434.03 469.69"
/>
<path stroke="#121c31" vector-effect="non-scaling-stroke" d="
  M 866.53 459.78
  A 0.35 0.35 0.0 0 0 866.25 460.38
  Q 877.83 470.67 887.71 481.56
  A 1.15 1.15 0.0 0 0 889.41 481.56
  L 902.90 466.74
  A 0.78 0.77 31.3 0 0 902.59 465.49
  L 900.21 464.64
  A 1.26 1.25 59.3 0 0 899.90 464.56
  L 866.53 459.78"
/>
<path stroke="#121c31" vector-effect="non-scaling-stroke" d="
  M 970.34 463.48
  A 0.21 0.21 0.0 0 0 969.96 463.64
  Q 971.15 470.33 968.25 476.19
  A 3.66 3.39 -12.5 0 1 967.69 477.00
  L 963.92 481.15
  A 0.39 0.39 0.0 0 0 964.44 481.72
  Q 966.97 479.84 970.38 477.83
  A 2.32 2.13 -81.1 0 0 970.92 477.40
  C 974.50 473.65 973.01 466.91 970.34 463.48"
/>
<path stroke="#6a280d" vector-effect="non-scaling-stroke" d="
  M 545.86 496.45
  Q 542.01 492.66 539.01 487.35
  C 537.99 485.53 535.57 482.63 534.11 482.11
  Q 515.34 475.47 495.11 471.61
  A 0.48 0.48 0.0 0 0 494.66 472.40
  L 509.67 489.73
  A 2.31 2.28 -15.7 0 0 511.06 490.50
  Q 527.30 492.88 545.46 497.18
  A 0.43 0.43 0.0 0 0 545.86 496.45"
/>
<path stroke="#6a280d" vector-effect="non-scaling-stroke" d="
  M 425.23 489.59
  A 0.36 0.36 0.0 0 0 425.45 488.93
  L 419.02 484.56
  A 3.09 3.08 41.5 0 0 415.26 484.78
  L 411.23 488.26
  A 0.31 0.31 0.0 0 0 411.42 488.81
  L 425.23 489.59"
/>
<path stroke="#6a280d" vector-effect="non-scaling-stroke" d="
  M 788.16 502.27
  A 0.30 0.30 0.0 0 0 788.32 502.34
  L 829.79 506.49
  A 0.30 0.30 0.0 0 0 830.02 505.97
  L 813.84 491.25
  A 0.30 0.30 0.0 0 0 813.65 491.17
  L 772.23 488.82
  A 0.30 0.30 0.0 0 0 772.02 489.36
  L 788.16 502.27"
/>
<path stroke="#6a280d" vector-effect="non-scaling-stroke" d="
  M 725.53 501.39
  Q 741.72 511.92 754.19 522.19
  C 758.51 525.75 762.00 529.21 767.83 534.57
  C 777.85 543.78 787.01 553.60 796.91 563.65
  A 1.34 1.34 0.0 0 0 798.74 563.73
  L 810.42 553.61
  A 0.32 0.32 0.0 0 0 810.45 553.16
  Q 792.94 533.75 775.52 517.24
  C 765.17 507.43 753.20 496.70 740.09 491.16
  Q 737.62 490.11 736.13 491.43
  Q 729.81 497.01 725.49 500.80
  A 0.37 0.37 0.0 0 0 725.53 501.39"
/>
<path stroke="#121c31" vector-effect="non-scaling-stroke" d="
  M 443.6856 503.0959
  A 1.34 0.40 -162.0 0 0 444.8364 503.8904
  A 1.34 0.40 -162.0 0 0 446.2344 503.9241
  A 1.34 0.40 -162.0 0 0 445.0836 503.1296
  A 1.34 0.40 -162.0 0 0 443.6856 503.0959"
/>
<path stroke="#6a280d" vector-effect="non-scaling-stroke" d="
  M 372.80 517.76
  Q 376.15 518.02 379.26 518.75
  Q 417.90 527.72 450.08 547.14
  Q 469.04 558.58 477.94 564.06
  C 483.45 567.45 489.99 571.19 496.70 570.02
  Q 501.58 569.16 502.84 564.62
  C 504.14 559.98 499.26 557.50 495.81 554.89
  Q 484.45 546.30 468.11 536.22
  Q 433.58 514.92 394.53 505.22
  C 390.50 504.22 388.21 504.26 384.91 506.92
  Q 378.16 512.38 372.48 516.68
  A 0.60 0.60 0.0 0 0 372.80 517.76"
/>
<path stroke="#121c31" vector-effect="non-scaling-stroke" d="
  M 600.64 527.15
  Q 609.77 524.17 610.38 514.33
  Q 610.57 511.33 608.72 508.90
  A 0.36 0.35 28.2 0 0 608.08 509.09
  C 607.73 515.71 605.78 522.50 600.46 526.82
  A 0.19 0.19 0.0 0 0 600.64 527.15"
/>
<path stroke="#121c31" vector-effect="non-scaling-stroke" d="
  M 531.58 517.72
  Q 531.62 517.73 531.70 517.73
  A 0.42 0.29 -51.5 0 0 531.93 517.66
  L 537.04 514.33
  A 0.40 0.40 0.0 0 0 536.96 513.61
  Q 536.32 513.39 532.95 512.50
  Q 529.58 511.62 528.92 511.50
  A 0.40 0.40 0.0 0 0 528.49 512.08
  L 531.30 517.50
  A 0.42 0.29 81.0 0 0 531.47 517.67
  Q 531.54 517.71 531.58 517.72"
/>
<path stroke="#6a280d" vector-effect="non-scaling-stroke" d="
  M 706.58 520.78
  L 720.62 521.80
  A 0.37 0.37 0.0 0 0 720.88 521.15
  L 713.56 515.29
  A 1.42 1.42 0.0 0 0 711.75 515.33
  L 706.33 520.03
  A 0.43 0.43 0.0 0 0 706.58 520.78"
/>
<path stroke="#121c31" vector-effect="non-scaling-stroke" d="
  M 839.49 527.31
  L 809.54 524.31
  A 0.07 0.07 0.0 0 0 809.48 524.42
  Q 811.96 527.42 814.39 529.56
  C 818.21 532.93 820.83 536.33 824.47 540.59
  A 0.73 0.72 49.1 0 0 825.50 540.67
  L 839.80 528.29
  A 0.56 0.56 0.0 0 0 839.49 527.31"
/>
<path stroke="#121c31" vector-effect="non-scaling-stroke" d="
  M 915.63 540.17
  C 914.10 542.62 911.59 544.29 910.62 545.52
  A 0.17 0.17 0.0 0 0 910.82 545.78
  Q 915.07 543.91 916.90 540.97
  Q 918.74 538.04 918.57 533.40
  A 0.17 0.17 0.0 0 0 918.25 533.33
  C 917.57 534.74 917.16 537.73 915.63 540.17"
/>
<path stroke="#121c31" vector-effect="non-scaling-stroke" d="
  M 445.59 567.78
  A 0.47 0.47 0.0 0 0 445.64 566.96
  C 437.27 561.54 431.25 557.34 422.78 553.49
  Q 398.48 542.46 372.51 537.73
  Q 367.65 536.84 354.66 535.07
  C 352.38 534.76 349.36 533.84 347.86 533.49
  A 3.92 3.81 -41.3 0 0 346.48 533.42
  Q 345.11 533.58 342.78 534.76
  Q 320.32 546.20 292.70 556.86
  C 282.31 560.87 267.60 565.75 260.34 568.15
  C 250.08 571.54 241.72 575.63 231.87 580.62
  C 216.10 588.62 200.74 600.21 190.48 614.74
  A 0.44 0.44 0.0 0 0 190.60 615.37
  Q 198.62 620.38 206.04 623.71
  Q 228.98 634.03 250.40 639.79
  Q 272.30 645.68 295.94 649.82
  Q 335.31 656.72 372.95 660.05
  A 0.61 0.61 0.0 0 0 373.61 659.54
  C 375.97 644.76 379.92 630.35 387.73 617.48
  C 392.32 609.89 397.48 602.63 403.90 596.16
  C 416.03 583.96 430.11 575.08 445.59 567.78"
/>
<path stroke="#121c31" vector-effect="non-scaling-stroke" d="
  M 752.04 542.77
  L 745.74 537.35
  A 2.74 2.66 -20.3 0 0 744.29 536.71
  Q 740.39 536.22 739.99 536.25
  Q 732.13 536.87 732.11 536.87
  A 0.26 0.26 0.0 0 0 732.07 537.37
  L 751.75 543.30
  A 0.31 0.31 0.0 0 0 752.04 542.77"
/>
<path stroke="#6a280d" vector-effect="non-scaling-stroke" d="
  M 658.51 558.89
  C 664.14 558.65 668.94 559.51 674.10 560.18
  Q 708.42 564.64 740.74 579.04
  Q 754.43 585.15 774.94 596.04
  C 781.09 599.31 789.88 601.31 796.08 597.32
  A 1.69 1.60 85.9 0 0 796.72 596.54
  C 798.73 591.50 795.62 588.92 791.76 586.35
  Q 785.39 582.10 769.47 573.26
  C 742.27 558.17 712.71 547.38 681.88 544.44
  C 679.26 544.19 677.72 544.52 675.74 545.99
  Q 665.72 553.42 658.28 558.18
  A 0.39 0.39 0.0 0 0 658.51 558.89"
/>
<path stroke="#121c31" vector-effect="non-scaling-stroke" d="
  M 744.80 602.08
  A 0.30 0.28 26.1 0 0 744.66 601.70
  Q 730.88 595.17 716.47 590.05
  Q 708.45 587.20 701.20 585.57
  C 682.11 581.27 662.06 579.08 642.31 577.45
  Q 634.67 576.82 629.24 577.21
  A 9.40 9.29 -59.2 0 0 625.95 578.06
  C 610.96 585.00 598.97 590.92 586.87 596.06
  Q 560.33 607.34 550.90 611.11
  Q 530.99 619.09 514.71 627.45
  C 501.54 634.23 486.89 643.16 477.81 654.30
  Q 473.24 659.91 471.21 662.34
  A 0.88 0.87 -55.0 0 0 471.44 663.66
  C 489.80 674.34 509.08 681.24 529.97 687.41
  Q 537.97 689.77 553.29 693.01
  C 571.88 696.94 581.67 698.60 599.39 701.33
  C 611.37 703.17 620.60 704.00 632.85 705.30
  Q 650.91 707.22 678.76 709.24
  C 687.84 709.90 698.65 710.08 707.75 710.92
  Q 709.68 711.10 713.42 710.90
  A 0.44 0.44 0.0 0 0 713.83 710.38
  C 712.29 702.13 711.06 694.91 710.91 686.63
  Q 710.07 638.18 744.35 602.86
  Q 744.49 602.72 744.80 602.08"
/>
<path stroke="#6a280d" vector-effect="non-scaling-stroke" d="
  M 1267.86 593.31
  A 0.33 0.33 0.0 0 0 1267.36 593.05
  Q 1253.37 601.35 1237.00 608.47
  Q 1200.56 624.32 1166.54 636.33
  C 1155.40 640.26 1144.64 644.99 1132.68 649.37
  Q 1122.98 652.92 1107.29 659.18
  C 1067.10 675.22 1048.65 682.79 1015.98 693.96
  Q 990.66 702.62 974.86 706.57
  Q 939.46 715.43 901.34 721.35
  Q 879.27 724.78 852.05 727.21
  Q 821.66 729.93 802.52 730.50
  Q 765.39 731.61 753.75 731.42
  C 731.46 731.05 714.76 731.04 693.77 730.02
  Q 656.39 728.20 619.26 724.15
  Q 580.82 719.96 541.13 710.85
  Q 518.56 705.67 494.48 696.28
  Q 477.03 689.48 459.69 679.37
  A 0.51 0.51 0.0 0 0 458.98 679.57
  Q 452.44 691.53 449.53 704.88
  A 1.92 1.91 -62.6 0 0 450.10 706.69
  Q 454.19 710.53 459.36 714.15
  Q 481.37 729.56 506.22 738.73
  Q 531.52 748.07 561.81 754.42
  Q 600.29 762.48 638.26 765.88
  Q 673.46 769.04 687.50 769.72
  Q 748.41 772.66 806.72 771.41
  C 822.54 771.07 837.96 772.31 852.24 778.94
  Q 859.49 782.30 867.67 788.97
  Q 882.92 801.41 893.28 817.94
  A 1.38 1.36 66.9 0 0 894.77 818.55
  C 907.10 815.44 919.21 811.41 931.37 807.87
  C 941.05 805.06 951.40 801.46 960.28 798.02
  Q 994.56 784.78 1013.82 776.74
  C 1024.16 772.42 1032.91 769.58 1043.00 765.58
  Q 1053.33 761.49 1065.01 757.62
  Q 1095.38 747.53 1129.21 738.79
  C 1163.76 729.87 1194.45 720.68 1225.42 706.64
  Q 1242.81 698.76 1255.83 688.34
  Q 1262.71 682.85 1264.68 675.19
  Q 1266.82 666.89 1267.76 656.24
  C 1269.59 635.35 1269.23 614.21 1267.86 593.31"
/>
<path stroke="#6a280d" vector-effect="non-scaling-stroke" d="
  M 768.16 711.53
  Q 768.53 711.76 769.18 711.75
  Q 854.94 710.74 934.38 695.14
  Q 974.54 687.26 1013.25 673.76
  A 0.37 0.37 0.0 0 0 1013.41 673.17
  Q 1007.90 666.61 1001.49 660.52
  C 991.61 651.14 979.98 644.43 967.25 639.00
  Q 949.04 631.25 928.25 630.11
  Q 894.05 628.24 862.22 639.51
  C 843.09 646.29 824.80 655.04 808.37 666.83
  Q 783.38 684.77 767.99 710.78
  Q 767.71 711.25 768.16 711.53"
/>
<path stroke="#6a280d" vector-effect="non-scaling-stroke" d="
  M 435.55 681.31
  A 0.27 0.27 0.0 0 0 435.27 680.95
  Q 417.62 682.62 399.31 681.77
  Q 382.28 680.98 375.18 680.35
  Q 328.22 676.12 286.07 668.59
  Q 267.26 665.23 244.37 658.89
  Q 232.11 655.49 219.67 650.67
  Q 203.65 644.47 195.54 640.67
  Q 190.60 638.36 181.22 633.08
  A 1.27 1.26 30.7 0 0 179.52 633.51
  Q 172.38 644.96 168.93 658.29
  C 168.03 661.76 167.10 663.21 170.17 665.44
  C 188.56 678.77 210.50 688.87 233.45 696.69
  Q 246.77 701.23 252.59 702.91
  Q 275.03 709.37 296.57 713.86
  Q 313.37 717.36 342.37 721.91
  C 367.39 725.83 391.33 726.64 417.25 725.85
  Q 421.33 725.73 425.34 724.97
  A 0.68 0.67 -3.4 0 0 425.89 724.36
  Q 427.61 702.51 435.55 681.31"
/>
<path stroke="#6a280d" vector-effect="non-scaling-stroke" d="
  M 164.81 685.75
  Q 164.21 705.44 168.56 720.44
  Q 172.13 732.77 181.78 744.08
  C 190.45 754.25 203.60 761.46 216.30 766.46
  Q 226.98 770.66 233.42 772.63
  Q 283.27 787.93 334.76 791.98
  Q 338.82 792.30 355.08 793.38
  Q 367.21 794.19 375.43 794.06
  C 384.57 793.91 395.24 794.31 405.24 793.60
  C 414.74 792.92 425.29 792.65 435.56 790.93
  A 0.47 0.47 0.0 0 0 435.90 790.25
  Q 425.72 769.96 424.66 746.57
  A 0.49 0.49 0.0 0 0 424.14 746.11
  Q 415.91 746.70 406.01 746.53
  Q 389.61 746.24 378.49 745.63
  C 351.37 744.16 323.41 739.94 297.57 734.85
  C 267.55 728.95 235.64 719.43 205.46 707.51
  Q 184.40 699.19 165.26 685.53
  A 0.28 0.28 0.0 0 0 164.81 685.75"
/>
<path stroke="#6a280d" vector-effect="non-scaling-stroke" d="
  M 872.64 823.12
  Q 864.76 810.99 853.32 802.44
  C 842.82 794.58 830.62 791.35 817.99 791.08
  C 795.39 790.61 770.57 791.64 747.00 791.37
  Q 712.38 790.99 703.50 790.70
  Q 693.68 790.39 660.21 788.22
  Q 635.89 786.65 618.86 784.41
  Q 594.39 781.20 577.79 778.13
  Q 555.52 774.02 543.44 770.78
  Q 519.80 764.46 492.81 754.11
  Q 471.37 745.90 452.95 734.29
  Q 447.83 731.06 444.32 728.04
  A 0.30 0.30 0.0 0 0 443.83 728.25
  C 443.15 742.70 444.46 756.76 449.53 770.22
  Q 453.58 780.95 460.36 787.92
  C 471.85 799.72 486.46 807.97 503.22 813.76
  Q 535.12 824.80 580.99 832.44
  Q 618.99 838.77 652.76 840.65
  Q 667.09 841.44 668.43 841.52
  Q 677.03 842.06 684.09 842.15
  Q 728.33 842.73 746.37 841.76
  Q 773.71 840.28 781.25 839.46
  Q 809.42 836.39 828.93 833.15
  Q 849.78 829.69 872.40 823.73
  A 0.41 0.40 -23.5 0 0 872.64 823.12"
/>
<path stroke="#121c31" vector-effect="non-scaling-stroke" d="
  M 731.9320 290.3035
  A 26.35 26.23 -130.4 0 0 729.0349 327.3702
  A 26.35 26.23 -130.4 0 0 766.0880 330.4365
  A 26.35 26.23 -130.4 0 0 768.9851 293.3698
  A 26.35 26.23 -130.4 0 0 731.9320 290.3035"
/>
<path stroke="#121c31" vector-effect="non-scaling-stroke" d="
  M 1073.3311 324.6218
  A 26.32 26.02 -6.3 0 0 1044.3147 301.6471
  A 26.32 26.02 -6.3 0 0 1021.0089 330.3982
  A 26.32 26.02 -6.3 0 0 1050.0253 353.3729
  A 26.32 26.02 -6.3 0 0 1073.3311 324.6218"
/>
<path stroke="#121c31" vector-effect="non-scaling-stroke" d="
  M 759.2076 308.7109
  A 10.02 9.73 -8.2 0 0 747.9022 300.5095
  A 10.02 9.73 -8.2 0 0 739.3724 311.5691
  A 10.02 9.73 -8.2 0 0 750.6778 319.7705
  A 10.02 9.73 -8.2 0 0 759.2076 308.7109"
/>
<path stroke="#121c31" vector-effect="non-scaling-stroke" d="
  M 1044.2021 318.1617
  A 10.04 9.31 -109.6 0 0 1038.7994 330.7431
  A 10.04 9.31 -109.6 0 0 1050.9379 337.0783
  A 10.04 9.31 -109.6 0 0 1056.3406 324.4969
  A 10.04 9.31 -109.6 0 0 1044.2021 318.1617"
/>
</g>
<path fill="#000000" d="
  M 577.77 183.64
  Q 583.74 167.38 590.88 156.15
  Q 594.80 149.98 600.22 145.09
  C 607.50 138.52 618.83 134.93 628.74 134.09
  Q 632.60 133.75 650.27 134.15
  A 6.06 5.74 -35.9 0 1 651.64 134.33
  C 654.31 134.98 657.07 134.98 659.65 135.40
  Q 677.22 138.30 689.65 142.73
  Q 723.06 154.64 745.60 182.69
  Q 748.61 186.43 751.21 190.62
  A 2.59 2.58 70.4 0 0 753.75 191.83
  L 782.42 188.04
  A 1.14 0.99 -14.9 0 1 782.58 188.03
  Q 787.97 187.97 788.76 187.81
  Q 792.52 187.10 795.36 187.02
  C 800.12 186.90 802.72 186.06 807.27 186.00
  Q 808.34 185.99 812.56 185.59
  Q 823.34 184.58 832.18 184.09
  Q 837.60 183.79 841.08 183.24
  C 844.77 182.67 849.11 183.23 852.97 182.70
  C 859.19 181.84 866.42 182.22 871.94 181.60
  Q 876.25 181.12 880.64 181.08
  A 2.60 2.58 14.3 0 0 882.86 179.77
  Q 892.26 163.11 910.14 157.18
  Q 917.72 154.66 927.75 154.14
  Q 956.23 152.66 983.52 161.00
  Q 997.23 165.19 1009.90 173.32
  Q 1022.48 181.38 1030.59 192.10
  Q 1039.94 204.46 1045.40 217.85
  A 2.55 2.54 73.4 0 0 1048.23 219.39
  Q 1056.25 217.85 1062.96 216.27
  C 1064.15 215.99 1065.71 215.90 1066.65 215.94
  A 2.74 2.73 -53.7 0 0 1067.68 215.78
  C 1070.37 214.82 1073.58 215.28 1075.97 214.48
  C 1078.17 213.75 1080.78 214.32 1083.01 213.67
  C 1086.80 212.57 1091.73 213.41 1095.10 212.33
  C 1097.33 211.61 1101.02 211.95 1104.26 211.34
  C 1107.51 210.73 1112.70 211.23 1115.92 210.77
  C 1117.60 210.53 1120.35 210.16 1123.05 210.09
  Q 1133.58 209.81 1153.25 210.02
  C 1158.03 210.07 1163.00 210.76 1167.31 210.89
  Q 1178.89 211.22 1191.51 215.09
  C 1199.85 217.65 1208.14 222.25 1213.55 228.13
  C 1219.93 235.07 1223.27 244.87 1225.43 254.32
  C 1227.16 261.88 1228.45 266.70 1229.31 272.77
  C 1229.86 276.65 1230.83 280.44 1231.49 284.43
  Q 1232.90 293.09 1235.40 309.81
  Q 1238.76 332.37 1241.00 344.52
  Q 1243.03 355.54 1247.99 375.53
  Q 1264.26 441.16 1270.48 467.21
  Q 1274.13 482.47 1279.34 509.38
  Q 1284.29 534.96 1288.51 572.19
  C 1288.88 575.41 1289.25 582.03 1289.63 586.51
  Q 1291.25 605.86 1290.93 630.68
  Q 1290.85 636.78 1290.50 641.84
  C 1289.99 649.06 1290.31 653.56 1289.33 659.49
  Q 1289.08 660.97 1288.89 666.03
  A 11.50 11.39 -38.0 0 1 1288.64 667.99
  C 1287.55 673.00 1287.02 676.87 1286.02 680.06
  Q 1280.93 696.22 1267.08 706.84
  C 1253.61 717.16 1238.67 724.92 1222.85 731.49
  Q 1208.19 737.57 1192.24 743.19
  Q 1176.10 748.88 1155.34 754.23
  Q 1119.51 763.47 1118.04 763.85
  Q 1083.85 772.57 1052.40 784.90
  Q 1032.02 792.89 985.55 811.81
  Q 970.68 817.86 932.66 830.45
  Q 930.30 831.23 909.75 837.06
  Q 896.02 840.96 886.70 843.17
  Q 856.20 850.39 837.18 853.61
  Q 827.98 855.17 805.05 858.32
  Q 800.21 858.98 798.42 858.98
  C 795.46 858.96 792.80 859.81 789.62 860.03
  Q 771.85 861.29 769.33 861.57
  C 763.78 862.19 758.61 861.73 753.20 862.42
  Q 749.43 862.89 746.77 862.91
  C 732.81 862.99 723.60 863.50 710.73 863.31
  Q 708.02 863.27 682.07 862.93
  Q 676.07 862.85 670.94 862.37
  C 663.80 861.71 657.49 862.15 649.74 861.35
  Q 645.49 860.91 639.58 860.94
  A 11.03 10.48 -37.7 0 1 637.22 860.70
  C 633.01 859.82 628.47 860.18 624.02 859.48
  Q 620.65 858.95 616.00 858.85
  A 7.85 7.50 -36.3 0 1 614.39 858.64
  Q 611.14 857.83 607.68 857.91
  A 5.58 5.39 -38.8 0 1 606.36 857.79
  Q 603.16 857.10 591.49 855.71
  Q 591.42 855.70 590.31 855.52
  Q 574.88 852.97 574.75 852.94
  Q 570.11 851.93 559.19 850.07
  Q 554.42 849.26 553.14 848.93
  Q 550.58 848.27 549.11 848.10
  Q 546.37 847.77 545.05 847.46
  Q 528.47 843.61 510.00 838.29
  C 504.34 836.66 496.67 833.62 492.49 832.01
  Q 471.11 823.78 453.94 809.82
  C 452.69 808.80 450.07 809.83 448.49 810.05
  Q 442.45 810.90 439.32 811.66
  A 8.85 8.75 37.2 0 1 437.41 811.91
  Q 434.24 811.98 432.25 812.42
  C 428.28 813.30 423.90 812.88 420.24 813.36
  Q 416.36 813.87 413.25 813.95
  Q 385.95 814.58 358.48 813.85
  C 353.98 813.73 348.71 812.97 343.61 813.00
  C 338.92 813.03 334.80 812.17 330.18 812.00
  C 326.09 811.85 323.45 811.00 319.60 810.97
  Q 318.36 810.96 315.35 810.60
  Q 297.42 808.45 294.00 807.92
  Q 266.12 803.64 244.01 797.91
  Q 233.06 795.07 215.24 788.53
  Q 210.43 786.76 206.66 784.88
  C 202.85 782.98 199.18 781.64 195.45 779.65
  Q 183.44 773.22 173.56 765.44
  Q 170.05 762.67 167.81 759.98
  C 165.50 757.21 162.89 754.72 160.61 751.58
  Q 148.43 734.81 144.96 713.74
  Q 141.83 694.83 143.57 677.77
  C 144.11 672.43 145.04 664.88 146.31 659.29
  Q 156.35 615.22 188.83 584.58
  Q 197.26 576.62 207.36 570.33
  C 216.85 564.41 226.47 559.19 236.67 555.09
  C 240.76 553.44 244.70 551.47 248.47 550.11
  Q 256.36 547.27 262.03 544.97
  Q 270.43 541.57 275.56 539.78
  Q 288.01 535.43 303.75 528.97
  Q 322.69 521.20 339.43 512.21
  Q 361.79 500.20 380.16 486.15
  Q 399.13 471.64 416.08 457.67
  C 420.20 454.27 423.42 451.19 427.96 447.20
  Q 447.57 430.00 466.62 409.62
  Q 467.50 408.67 469.08 406.55
  A 6.49 6.32 -4.4 0 1 469.74 405.80
  C 472.50 403.15 474.72 400.12 476.51 398.02
  Q 492.53 379.28 503.65 362.42
  Q 514.87 345.40 520.95 328.48
  Q 526.61 312.74 528.73 300.55
  Q 529.14 298.16 529.32 297.38
  Q 529.73 295.57 529.95 292.09
  Q 530.16 288.75 530.64 286.83
  C 531.21 284.58 530.96 281.57 531.41 278.71
  Q 533.45 265.56 535.14 259.32
  C 536.51 254.25 539.34 247.18 542.79 242.31
  Q 551.75 229.66 565.20 219.95
  Q 567.51 218.28 568.61 213.86
  Q 571.22 203.28 576.59 186.90
  Q 576.75 186.41 577.77 183.64
  Z
  M 585.32 303.89
  Q 594.95 306.01 597.23 306.56
  C 622.88 312.75 648.11 323.08 671.82 334.92
  A 0.95 0.95 0.0 0 0 673.03 334.61
  Q 673.20 334.36 673.49 333.50
  Q 681.04 310.62 691.66 289.65
  Q 700.31 272.58 711.04 259.53
  C 721.40 246.95 733.60 237.46 748.94 232.29
  A 1.00 1.00 0.0 0 0 749.51 230.89
  C 741.84 215.86 734.33 203.52 723.77 190.96
  Q 715.81 181.50 708.28 176.19
  Q 694.78 166.69 678.60 162.21
  Q 659.81 157.02 641.75 156.18
  C 627.20 155.50 615.79 157.80 607.73 171.24
  Q 603.69 177.97 601.02 185.02
  C 595.30 200.14 590.47 214.80 588.28 230.02
  Q 584.71 254.77 584.81 283.25
  Q 584.88 302.28 584.82 303.23
  A 0.64 0.63 -82.7 0 0 585.32 303.89
  Z
  M 971.17 352.52
  Q 972.77 346.11 975.69 338.91
  C 984.69 316.75 996.02 297.44 1012.70 280.44
  Q 1024.37 268.54 1039.76 261.67
  A 1.21 1.21 0.0 0 0 1040.40 260.14
  Q 1032.62 239.20 1021.31 218.16
  C 1012.79 202.32 1003.13 190.38 985.44 184.35
  Q 962.32 176.48 936.80 175.98
  C 923.66 175.73 909.76 177.08 902.35 189.82
  C 897.68 197.84 895.40 205.57 893.52 214.76
  Q 888.42 239.72 886.18 265.66
  C 884.41 286.12 882.30 305.76 880.58 324.37
  A 0.87 0.86 7.4 0 0 881.31 325.31
  Q 928.23 332.76 970.50 352.83
  A 0.48 0.47 19.7 0 0 971.17 352.52
  Z
  M 873.68 204.21
  C 865.51 205.09 856.78 204.82 848.80 205.48
  C 839.21 206.26 821.77 206.77 808.42 207.98
  C 788.17 209.80 776.17 210.71 765.54 212.16
  A 0.51 0.51 0.0 0 0 765.15 212.89
  L 772.08 227.22
  A 1.60 1.59 74.5 0 0 773.64 228.11
  Q 811.36 224.97 846.50 229.86
  C 853.61 230.85 859.07 232.21 868.40 234.28
  A 0.44 0.43 -79.9 0 0 868.93 233.91
  Q 870.57 219.43 873.98 204.54
  A 0.28 0.27 -87.7 0 0 873.68 204.21
  Z
  M 1056.54 239.36
  A 0.84 0.83 -16.9 0 0 1055.90 240.55
  Q 1059.61 248.19 1061.21 255.51
  A 0.53 0.53 0.0 0 0 1061.81 255.93
  C 1077.89 253.55 1093.04 252.97 1111.50 253.11
  C 1129.52 253.24 1151.35 255.64 1166.25 255.49
  C 1177.98 255.37 1186.34 253.19 1194.26 244.36
  Q 1195.69 242.76 1195.06 240.93
  A 1.66 1.62 -83.2 0 0 1194.44 240.12
  C 1188.68 236.27 1181.69 234.75 1174.83 233.62
  Q 1170.76 232.95 1165.14 232.57
  Q 1147.60 231.40 1126.18 232.40
  Q 1113.48 233.00 1110.99 233.19
  Q 1086.77 235.11 1056.54 239.36
  Z
  M 439.06 660.38
  Q 443.39 659.91 446.47 659.18
  Q 448.35 658.73 449.29 657.29
  Q 452.40 652.56 457.65 645.61
  Q 461.45 640.60 466.54 636.03
  Q 474.38 628.98 476.42 627.41
  Q 500.76 608.72 529.38 597.39
  Q 561.47 584.68 566.21 582.68
  Q 579.68 577.01 586.44 573.94
  C 606.29 564.91 625.46 554.70 643.84 542.92
  Q 654.72 535.95 660.93 532.18
  Q 664.17 530.20 668.71 526.69
  Q 686.62 512.82 704.46 495.96
  Q 718.28 482.90 729.90 470.16
  Q 734.46 465.17 736.47 463.06
  Q 740.62 458.72 742.89 455.82
  Q 751.53 444.81 760.38 433.88
  Q 764.19 429.17 777.32 410.57
  Q 788.21 395.16 792.76 386.28
  C 800.75 370.71 806.72 359.44 811.66 345.56
  Q 812.49 343.23 816.50 332.26
  C 818.49 326.80 820.11 320.50 821.42 314.82
  C 823.28 306.73 826.11 298.26 828.94 290.69
  Q 831.12 284.87 835.04 277.16
  C 839.98 267.48 848.14 259.31 856.73 253.13
  A 0.61 0.61 0.0 0 0 856.44 252.03
  L 840.71 250.36
  Q 812.43 247.32 784.00 247.79
  Q 776.17 247.92 769.23 248.96
  C 745.27 252.55 727.48 268.00 715.89 289.13
  Q 701.84 314.76 692.14 342.43
  A 1.71 1.71 0.0 0 0 692.97 344.51
  Q 701.64 348.93 709.18 354.58
  C 711.05 355.97 712.66 357.81 714.57 359.10
  A 0.93 0.92 50.7 0 0 715.41 359.19
  Q 725.57 355.15 734.34 358.63
  C 755.58 367.06 758.55 397.20 738.77 408.71
  Q 729.04 414.37 716.77 411.18
  Q 713.72 410.39 711.45 408.77
  A 2.90 2.89 55.2 0 0 708.98 408.32
  Q 701.41 410.39 693.86 408.11
  C 685.11 405.47 676.13 400.25 668.38 395.84
  A 0.72 0.71 34.0 0 0 667.46 396.01
  L 650.50 417.20
  A 0.95 0.95 0.0 0 0 650.52 418.42
  L 656.31 425.11
  A 2.53 2.52 78.8 0 0 657.41 425.85
  Q 658.84 426.34 660.63 426.12
  C 666.90 425.36 674.19 427.97 679.34 431.44
  C 688.63 437.71 692.15 448.42 691.02 459.33
  C 689.12 477.72 668.09 486.49 651.95 480.13
  C 648.69 478.84 646.31 478.95 641.70 478.95
  C 631.70 478.94 623.33 472.40 617.12 464.96
  A 0.39 0.38 47.0 0 0 616.55 464.93
  L 601.73 479.75
  A 1.98 1.97 -37.4 0 0 601.41 482.13
  L 604.16 486.88
  A 1.77 1.77 0.0 0 0 605.15 487.68
  Q 607.31 488.37 611.16 489.87
  C 622.49 494.27 626.53 509.15 625.18 520.06
  Q 624.41 526.27 622.18 529.71
  C 614.72 541.24 603.11 544.94 589.93 541.63
  Q 586.16 540.69 581.11 537.13
  Q 577.84 534.83 572.51 531.97
  C 566.86 528.94 563.15 524.92 560.05 519.51
  A 0.55 0.54 52.5 0 0 559.19 519.39
  C 547.64 531.03 533.77 541.40 520.34 550.55
  A 2.14 2.14 0.0 0 0 519.57 553.14
  Q 520.98 556.50 520.95 560.39
  C 520.93 563.82 519.80 571.38 517.79 574.32
  C 510.95 584.30 500.36 591.41 487.74 588.78
  C 480.44 587.26 475.03 584.44 467.60 580.77
  A 3.26 3.24 -44.7 0 0 464.75 580.76
  C 454.52 585.74 445.46 589.82 437.36 595.28
  Q 427.99 601.60 418.30 611.75
  C 407.55 623.00 400.93 635.18 396.30 649.58
  Q 394.51 655.16 393.98 660.49
  A 0.56 0.55 7.1 0 0 394.45 661.09
  Q 398.02 661.66 399.06 661.72
  Q 419.73 662.89 439.06 660.38
  Z
  M 565.65 250.02
  Q 565.36 250.06 565.11 250.39
  Q 554.06 265.30 552.65 283.43
  Q 552.53 284.97 551.09 302.31
  A 0.53 0.53 0.0 0 0 551.70 302.88
  Q 557.92 301.90 563.61 302.48
  A 0.57 0.57 0.0 0 0 564.24 301.94
  Q 565.01 284.03 565.00 263.53
  C 565.00 259.73 565.39 254.49 566.02 250.40
  A 0.33 0.33 0.0 0 0 565.65 250.02
  Z
  M 1205.27 263.37
  Q 1197.37 269.63 1192.44 271.40
  Q 1180.36 275.71 1166.62 275.63
  Q 1146.76 275.50 1126.50 274.32
  Q 1105.58 273.10 1084.00 274.05
  Q 1063.19 274.97 1052.26 279.02
  C 1033.55 285.95 1021.58 298.78 1011.11 315.34
  Q 997.40 337.04 988.97 361.22
  A 0.67 0.66 -67.0 0 0 989.29 362.03
  C 997.22 366.08 1004.00 369.46 1009.64 374.86
  Q 1012.45 377.55 1015.71 376.32
  C 1027.18 372.00 1040.99 376.53 1046.80 387.47
  Q 1055.49 403.83 1045.03 419.00
  C 1039.96 426.37 1030.87 429.72 1021.75 429.82
  Q 1016.84 429.87 1010.54 426.17
  A 1.66 1.64 60.0 0 0 1009.70 425.94
  Q 1008.76 425.95 1006.49 426.48
  C 999.00 428.22 990.65 425.86 983.45 422.78
  Q 975.20 419.26 966.87 414.53
  A 1.75 1.74 34.1 0 0 964.64 414.96
  L 951.76 431.05
  A 1.49 1.49 0.0 0 0 951.80 432.96
  L 960.01 442.45
  A 4.99 4.97 -17.5 0 0 963.26 444.13
  C 979.63 445.75 990.29 460.07 987.71 476.21
  C 984.98 493.32 968.45 501.82 952.51 495.93
  C 948.95 494.61 946.37 491.97 942.00 491.51
  C 932.56 490.52 924.56 485.62 917.79 479.57
  A 0.51 0.51 0.0 0 0 917.06 479.62
  L 903.69 495.17
  A 1.47 1.45 43.8 0 0 903.74 497.12
  Q 909.59 503.28 914.54 510.56
  A 3.78 3.73 -13.5 0 0 917.22 512.18
  C 921.82 512.71 925.20 514.39 928.20 518.06
  C 933.39 524.40 936.19 531.43 934.72 539.52
  C 932.59 551.22 924.07 560.79 911.99 562.04
  Q 905.31 562.74 900.11 561.30
  Q 893.04 559.35 889.67 554.85
  Q 887.28 551.66 883.92 550.74
  C 875.23 548.37 866.94 542.24 861.11 535.54
  A 0.55 0.55 0.0 0 0 860.27 535.56
  Q 859.33 536.71 858.24 537.75
  Q 834.45 560.56 811.61 577.26
  A 1.03 1.02 -38.6 0 0 811.44 578.76
  C 813.14 580.71 815.50 583.22 816.18 585.89
  Q 817.79 592.24 816.46 598.79
  C 814.49 608.49 804.54 615.66 795.11 616.81
  C 787.63 617.72 778.38 617.48 771.13 614.64
  Q 770.00 614.19 764.47 611.16
  A 1.20 1.20 0.0 0 0 763.03 611.38
  Q 756.54 618.10 750.31 626.10
  Q 737.68 642.32 733.33 661.80
  Q 730.37 675.10 731.15 686.12
  Q 731.96 697.56 735.01 710.08
  A 0.89 0.87 84.2 0 0 735.82 710.75
  L 744.63 711.25
  A 1.30 1.29 11.7 0 0 745.93 710.40
  Q 749.65 700.29 755.49 691.98
  Q 776.39 662.27 806.78 643.26
  Q 840.22 622.33 878.63 613.82
  Q 893.92 610.44 907.06 610.01
  Q 923.67 609.48 935.78 610.82
  Q 957.21 613.20 978.75 622.34
  Q 1000.42 631.54 1017.60 647.42
  C 1023.12 652.53 1028.26 658.93 1032.55 665.14
  A 1.75 1.74 62.6 0 0 1034.59 665.79
  C 1038.53 664.34 1041.26 663.45 1044.27 662.14
  Q 1070.41 650.68 1098.06 640.72
  A 1.15 1.14 79.2 0 0 1098.82 639.60
  Q 1097.15 601.65 1103.64 564.32
  Q 1111.53 518.91 1129.06 472.03
  Q 1151.50 412.05 1193.01 359.26
  Q 1206.46 342.16 1216.18 333.20
  A 1.59 1.57 64.1 0 0 1216.66 331.80
  L 1206.02 263.66
  A 0.47 0.46 -23.6 0 0 1205.27 263.37
  Z
  M 839.69 325.12
  Q 839.90 325.19 847.61 324.20
  C 852.53 323.57 856.29 323.75 861.27 323.90
  A 0.44 0.43 3.4 0 0 861.73 323.50
  L 865.50 271.65
  A 0.24 0.24 0.0 0 0 865.08 271.47
  C 855.74 282.05 848.07 293.36 843.83 306.78
  Q 843.03 309.33 841.71 315.65
  Q 840.23 322.76 839.39 324.40
  A 0.52 0.51 22.7 0 0 839.69 325.12
  Z
  M 538.49 344.71
  A 0.22 0.22 0.0 0 0 538.74 345.01
  Q 554.25 342.26 569.49 343.37
  C 586.27 344.59 601.65 347.68 617.92 353.06
  Q 643.58 361.56 668.42 374.22
  Q 692.66 386.57 694.07 387.19
  C 698.72 389.25 704.92 391.65 709.39 389.89
  Q 711.52 389.05 711.72 387.40
  Q 712.69 379.37 705.90 375.25
  Q 685.00 362.57 662.06 352.17
  Q 648.65 346.09 632.60 339.62
  Q 606.46 329.07 577.80 324.62
  Q 560.52 321.94 546.67 323.61
  A 0.67 0.66 -83.4 0 0 546.13 324.04
  L 538.49 344.71
  Z
  M 828.87 361.03
  Q 831.49 360.64 835.51 360.49
  C 851.86 359.89 869.98 360.93 887.24 364.95
  Q 903.31 368.69 909.81 370.71
  C 938.39 379.60 966.59 391.98 992.49 405.75
  C 997.24 408.28 1009.17 412.33 1010.06 403.26
  C 1010.70 396.84 1005.80 394.39 1000.78 391.47
  Q 973.56 375.63 942.55 363.17
  C 907.95 349.28 872.28 342.08 834.74 343.99
  A 0.06 0.05 5.7 0 0 834.68 344.03
  L 828.55 360.63
  A 0.30 0.30 0.0 0 0 828.87 361.03
  Z
  M 1116.84 633.32
  A 0.37 0.37 0.0 0 0 1117.35 633.66
  L 1137.36 625.27
  A 1.12 1.11 -10.8 0 0 1138.04 624.28
  Q 1138.17 616.44 1138.70 604.10
  C 1140.48 562.42 1150.56 521.15 1167.07 482.73
  Q 1181.14 450.01 1201.00 420.75
  Q 1213.65 402.12 1226.06 388.06
  Q 1228.69 385.08 1227.61 381.44
  Q 1224.03 369.30 1222.14 359.60
  A 0.76 0.76 0.0 0 0 1220.85 359.21
  Q 1212.58 367.65 1205.44 376.68
  C 1173.70 416.73 1150.16 464.16 1135.66 513.38
  Q 1120.77 563.93 1117.29 615.76
  Q 1116.75 623.77 1116.84 633.32
  Z
  M 551.34 363.67
  C 551.66 364.47 552.73 365.00 553.39 365.72
  Q 581.45 395.97 595.64 412.41
  Q 617.81 438.09 625.70 446.71
  C 628.80 450.09 631.81 453.94 635.65 456.34
  C 638.36 458.03 647.38 461.14 650.11 457.34
  Q 651.78 455.01 651.44 452.73
  C 650.83 448.61 647.31 444.13 644.78 441.07
  Q 613.83 403.76 590.11 376.75
  Q 587.92 374.26 579.51 365.97
  C 577.90 364.38 576.54 363.97 574.49 363.93
  Q 560.09 363.69 551.61 363.30
  A 0.27 0.27 0.0 0 0 551.34 363.67
  Z
  M 525.36 373.27
  Q 526.84 371.89 527.55 369.82
  Q 527.90 368.81 527.70 367.54
  A 0.25 0.24 54.3 0 0 527.24 367.46
  C 527.04 367.85 527.40 368.49 526.99 369.17
  Q 525.13 372.32 522.74 374.90
  A 0.39 0.39 0.0 0 0 523.19 375.52
  L 524.46 374.94
  A 1.34 1.32 -54.1 0 1 525.17 374.82
  L 533.42 375.65
  A 0.29 0.29 0.0 0 0 533.59 375.11
  L 532.80 374.68
  A 1.60 1.55 86.9 0 1 532.23 374.15
  Q 530.70 371.72 528.59 370.08
  A 0.29 0.29 0.0 0 0 528.13 370.41
  Q 528.71 372.04 530.55 373.46
  A 0.28 0.28 0.0 0 1 530.32 373.95
  Q 527.27 373.39 525.58 373.70
  A 0.25 0.25 0.0 0 1 525.36 373.27
  Z
  M 614.21 373.63
  A 0.37 0.37 0.0 0 0 613.79 374.22
  L 636.22 400.11
  A 0.37 0.37 0.0 0 0 636.79 400.10
  L 647.11 387.21
  A 0.37 0.37 0.0 0 0 646.96 386.64
  L 614.21 373.63
  Z
  M 726.84 396.36
  Q 727.02 396.40 727.04 396.51
  A 0.28 0.17 -40.4 0 0 727.45 396.44
  C 728.85 394.64 731.24 394.01 732.91 392.00
  C 737.53 386.41 736.24 377.28 729.11 374.72
  A 0.42 0.42 0.0 0 0 728.59 375.29
  Q 730.07 378.35 730.64 382.21
  Q 731.90 390.61 726.80 396.24
  A 0.08 0.07 27.4 0 0 726.84 396.36
  Z
  M 835.74 380.98
  A 0.27 0.26 62.7 0 0 835.59 381.46
  C 845.67 388.80 855.78 397.49 866.23 406.20
  C 890.44 426.38 913.37 447.88 934.61 468.89
  C 938.86 473.08 945.33 474.84 950.87 472.05
  A 1.39 1.36 87.3 0 0 951.53 471.31
  C 953.16 467.00 951.78 461.68 948.65 458.34
  C 923.52 431.52 897.59 407.33 869.46 385.53
  Q 864.91 382.01 861.27 381.08
  A 3.07 2.98 51.6 0 0 860.50 380.98
  L 835.74 380.98
  Z
  M 825.51 400.12
  A 0.53 0.53 0.0 0 0 825.91 399.24
  L 816.65 388.55
  A 0.53 0.53 0.0 0 0 815.79 388.63
  L 809.62 399.33
  A 0.53 0.53 0.0 0 0 810.08 400.12
  L 825.51 400.12
  Z
  M 906.00 391.32
  C 915.53 399.18 926.16 408.49 934.31 417.81
  A 0.54 0.52 44.4 0 0 935.11 417.81
  L 945.79 405.39
  A 0.49 0.49 0.0 0 0 945.56 404.60
  Q 941.65 403.41 933.10 399.98
  C 925.17 396.81 915.30 393.89 906.18 390.99
  A 0.19 0.19 0.0 0 0 906.00 391.32
  Z
  M 1026.98 411.63
  A 0.31 0.31 0.0 0 0 1027.40 412.04
  C 1034.34 408.27 1035.25 402.61 1031.86 395.82
  Q 1030.68 393.45 1028.63 392.07
  A 0.35 0.35 0.0 0 0 1028.14 392.54
  Q 1030.69 396.85 1029.72 402.06
  C 1029.18 404.94 1028.37 409.00 1026.98 411.63
  Z
  M 578.89 421.34
  A 0.33 0.33 0.0 0 0 579.13 420.78
  C 575.19 416.75 571.49 411.89 567.19 407.42
  C 564.25 404.38 561.55 400.95 557.31 399.90
  Q 547.69 397.51 537.51 395.78
  C 536.51 395.61 535.09 394.80 534.37 394.86
  A 0.41 0.41 0.0 0 0 534.11 395.56
  C 539.37 400.99 545.18 406.55 550.77 412.54
  Q 553.92 415.91 558.67 416.86
  Q 566.70 418.48 574.36 419.93
  C 575.92 420.23 577.76 421.31 578.89 421.34
  Z
  M 489.97 414.86
  C 494.93 416.37 500.57 418.16 505.01 421.04
  Q 515.81 428.02 522.63 435.39
  Q 538.75 452.80 553.09 474.41
  Q 562.10 488.00 572.28 506.20
  C 574.75 510.62 578.63 515.93 584.05 517.08
  A 1.62 1.61 -50.6 0 0 585.04 516.98
  C 591.53 514.23 590.45 505.55 588.43 500.14
  Q 584.99 490.94 580.15 482.34
  C 566.24 457.69 549.95 435.22 528.55 416.46
  C 520.26 409.19 511.70 404.49 502.03 399.21
  A 0.53 0.52 33.3 0 0 501.37 399.34
  L 489.69 413.93
  A 0.59 0.58 -62.2 0 0 489.97 414.86
  Z
  M 1158.26 618.32
  C 1167.17 615.41 1175.75 611.50 1183.42 608.45
  Q 1212.45 596.90 1226.52 590.74
  Q 1245.20 582.55 1265.01 570.96
  A 2.28 2.28 0.0 0 0 1266.13 568.70
  Q 1258.27 505.41 1242.03 443.20
  Q 1237.56 426.10 1233.94 410.15
  A 0.25 0.25 0.0 0 0 1233.50 410.05
  Q 1224.96 421.09 1217.39 431.64
  C 1204.87 449.09 1195.38 467.64 1186.37 487.72
  Q 1175.35 512.29 1168.99 537.92
  Q 1164.21 557.17 1162.64 565.44
  Q 1157.87 590.70 1157.82 617.99
  A 0.34 0.34 0.0 0 0 1158.26 618.32
  Z
  M 818.26 420.92
  A 0.38 0.38 0.0 0 0 817.98 421.60
  Q 827.95 428.60 835.65 434.08
  Q 839.08 436.52 842.87 436.93
  Q 860.26 438.82 877.73 441.57
  A 0.35 0.34 -19.0 0 0 878.02 440.98
  Q 870.37 433.86 861.61 426.65
  Q 858.75 424.29 856.12 424.01
  Q 835.39 421.83 823.52 421.67
  Q 822.74 421.66 818.26 420.92
  Z
  M 779.03 441.87
  A 0.48 0.48 0.0 0 0 779.15 442.58
  Q 812.96 464.12 843.75 491.62
  Q 861.40 507.39 876.65 523.48
  C 880.68 527.72 887.37 533.44 893.45 534.00
  C 898.26 534.45 901.68 531.73 901.12 526.75
  Q 900.59 522.12 898.82 520.41
  Q 896.78 518.44 879.94 500.61
  C 855.48 474.71 827.16 449.98 796.49 430.53
  C 794.61 429.34 793.41 427.98 791.60 427.13
  A 0.80 0.78 -58.2 0 0 790.65 427.36
  L 779.03 441.87
  Z
  M 518.40 457.42
  Q 510.53 449.18 502.54 442.47
  Q 497.06 437.88 490.01 437.28
  Q 482.16 436.61 475.39 436.66
  A 3.88 3.73 32.6 0 0 474.03 436.93
  Q 472.01 437.73 471.26 438.53
  Q 466.39 443.66 463.14 446.52
  A 0.21 0.21 0.0 0 0 463.23 446.88
  C 475.75 450.28 488.93 450.25 502.19 453.60
  Q 513.74 456.51 514.89 456.52
  A 2.09 2.08 61.0 0 1 515.93 456.82
  Q 517.26 457.62 518.18 457.81
  A 0.24 0.23 -16.1 0 0 518.40 457.42
  Z
  M 595.48 456.05
  Q 598.36 452.10 599.43 450.11
  A 1.14 1.13 31.6 0 0 599.08 448.64
  Q 598.40 448.17 596.97 447.78
  Q 586.81 445.02 576.93 442.36
  Q 576.77 442.32 576.72 442.38
  Q 576.67 442.44 576.77 442.59
  Q 582.32 451.18 588.06 460.00
  Q 588.87 461.24 589.53 461.75
  A 1.14 1.13 40.5 0 0 591.04 461.63
  Q 592.60 460.00 595.48 456.05
  Z
  M 669.38 454.70
  Q 668.68 460.45 664.92 465.32
  A 0.27 0.27 0.0 0 0 665.19 465.76
  C 670.84 464.79 674.40 461.05 675.09 455.39
  C 675.78 449.73 673.21 445.25 667.95 442.95
  A 0.27 0.27 0.0 0 0 667.59 443.31
  Q 670.07 448.95 669.38 454.70
  Z
  M 758.63 470.25
  Q 772.69 469.35 785.65 470.69
  A 0.15 0.15 0.0 0 0 785.76 470.42
  Q 777.27 463.31 768.62 458.31
  A 0.90 0.90 0.0 0 0 767.47 458.53
  L 758.42 469.84
  A 0.25 0.25 0.0 0 0 758.63 470.25
  Z
  M 434.03 469.69
  Q 447.25 479.05 457.09 488.46
  Q 475.12 505.69 486.08 517.96
  Q 496.56 529.68 501.29 535.10
  Q 501.49 535.33 505.26 538.20
  A 1.24 1.24 0.0 0 0 506.82 538.15
  L 517.43 528.97
  A 0.63 0.62 -39.0 0 0 517.52 528.13
  Q 503.15 508.83 486.95 492.33
  C 474.44 479.60 462.33 467.05 446.01 459.47
  A 2.06 2.05 -52.8 0 0 443.80 459.78
  L 433.96 468.30
  A 0.89 0.88 -47.9 0 0 434.03 469.69
  Z
  M 866.53 459.78
  A 0.35 0.35 0.0 0 0 866.25 460.38
  Q 877.83 470.67 887.71 481.56
  A 1.15 1.15 0.0 0 0 889.41 481.56
  L 902.90 466.74
  A 0.78 0.77 31.3 0 0 902.59 465.49
  L 900.21 464.64
  A 1.26 1.25 59.3 0 0 899.90 464.56
  L 866.53 459.78
  Z
  M 970.34 463.48
  A 0.21 0.21 0.0 0 0 969.96 463.64
  Q 971.15 470.33 968.25 476.19
  A 3.66 3.39 -12.5 0 1 967.69 477.00
  L 963.92 481.15
  A 0.39 0.39 0.0 0 0 964.44 481.72
  Q 966.97 479.84 970.38 477.83
  A 2.32 2.13 -81.1 0 0 970.92 477.40
  C 974.50 473.65 973.01 466.91 970.34 463.48
  Z
  M 545.86 496.45
  Q 542.01 492.66 539.01 487.35
  C 537.99 485.53 535.57 482.63 534.11 482.11
  Q 515.34 475.47 495.11 471.61
  A 0.48 0.48 0.0 0 0 494.66 472.40
  L 509.67 489.73
  A 2.31 2.28 -15.7 0 0 511.06 490.50
  Q 527.30 492.88 545.46 497.18
  A 0.43 0.43 0.0 0 0 545.86 496.45
  Z
  M 425.23 489.59
  A 0.36 0.36 0.0 0 0 425.45 488.93
  L 419.02 484.56
  A 3.09 3.08 41.5 0 0 415.26 484.78
  L 411.23 488.26
  A 0.31 0.31 0.0 0 0 411.42 488.81
  L 425.23 489.59
  Z
  M 788.16 502.27
  A 0.30 0.30 0.0 0 0 788.32 502.34
  L 829.79 506.49
  A 0.30 0.30 0.0 0 0 830.02 505.97
  L 813.84 491.25
  A 0.30 0.30 0.0 0 0 813.65 491.17
  L 772.23 488.82
  A 0.30 0.30 0.0 0 0 772.02 489.36
  L 788.16 502.27
  Z
  M 725.53 501.39
  Q 741.72 511.92 754.19 522.19
  C 758.51 525.75 762.00 529.21 767.83 534.57
  C 777.85 543.78 787.01 553.60 796.91 563.65
  A 1.34 1.34 0.0 0 0 798.74 563.73
  L 810.42 553.61
  A 0.32 0.32 0.0 0 0 810.45 553.16
  Q 792.94 533.75 775.52 517.24
  C 765.17 507.43 753.20 496.70 740.09 491.16
  Q 737.62 490.11 736.13 491.43
  Q 729.81 497.01 725.49 500.80
  A 0.37 0.37 0.0 0 0 725.53 501.39
  Z
  M 443.6856 503.0959
  A 1.34 0.40 -162.0 0 0 444.8364 503.8904
  A 1.34 0.40 -162.0 0 0 446.2344 503.9241
  A 1.34 0.40 -162.0 0 0 445.0836 503.1296
  A 1.34 0.40 -162.0 0 0 443.6856 503.0959
  Z
  M 372.80 517.76
  Q 376.15 518.02 379.26 518.75
  Q 417.90 527.72 450.08 547.14
  Q 469.04 558.58 477.94 564.06
  C 483.45 567.45 489.99 571.19 496.70 570.02
  Q 501.58 569.16 502.84 564.62
  C 504.14 559.98 499.26 557.50 495.81 554.89
  Q 484.45 546.30 468.11 536.22
  Q 433.58 514.92 394.53 505.22
  C 390.50 504.22 388.21 504.26 384.91 506.92
  Q 378.16 512.38 372.48 516.68
  A 0.60 0.60 0.0 0 0 372.80 517.76
  Z
  M 600.64 527.15
  Q 609.77 524.17 610.38 514.33
  Q 610.57 511.33 608.72 508.90
  A 0.36 0.35 28.2 0 0 608.08 509.09
  C 607.73 515.71 605.78 522.50 600.46 526.82
  A 0.19 0.19 0.0 0 0 600.64 527.15
  Z
  M 531.58 517.72
  Q 531.62 517.73 531.70 517.73
  A 0.42 0.29 -51.5 0 0 531.93 517.66
  L 537.04 514.33
  A 0.40 0.40 0.0 0 0 536.96 513.61
  Q 536.32 513.39 532.95 512.50
  Q 529.58 511.62 528.92 511.50
  A 0.40 0.40 0.0 0 0 528.49 512.08
  L 531.30 517.50
  A 0.42 0.29 81.0 0 0 531.47 517.67
  Q 531.54 517.71 531.58 517.72
  Z
  M 706.58 520.78
  L 720.62 521.80
  A 0.37 0.37 0.0 0 0 720.88 521.15
  L 713.56 515.29
  A 1.42 1.42 0.0 0 0 711.75 515.33
  L 706.33 520.03
  A 0.43 0.43 0.0 0 0 706.58 520.78
  Z
  M 839.49 527.31
  L 809.54 524.31
  A 0.07 0.07 0.0 0 0 809.48 524.42
  Q 811.96 527.42 814.39 529.56
  C 818.21 532.93 820.83 536.33 824.47 540.59
  A 0.73 0.72 49.1 0 0 825.50 540.67
  L 839.80 528.29
  A 0.56 0.56 0.0 0 0 839.49 527.31
  Z
  M 915.63 540.17
  C 914.10 542.62 911.59 544.29 910.62 545.52
  A 0.17 0.17 0.0 0 0 910.82 545.78
  Q 915.07 543.91 916.90 540.97
  Q 918.74 538.04 918.57 533.40
  A 0.17 0.17 0.0 0 0 918.25 533.33
  C 917.57 534.74 917.16 537.73 915.63 540.17
  Z
  M 445.59 567.78
  A 0.47 0.47 0.0 0 0 445.64 566.96
  C 437.27 561.54 431.25 557.34 422.78 553.49
  Q 398.48 542.46 372.51 537.73
  Q 367.65 536.84 354.66 535.07
  C 352.38 534.76 349.36 533.84 347.86 533.49
  A 3.92 3.81 -41.3 0 0 346.48 533.42
  Q 345.11 533.58 342.78 534.76
  Q 320.32 546.20 292.70 556.86
  C 282.31 560.87 267.60 565.75 260.34 568.15
  C 250.08 571.54 241.72 575.63 231.87 580.62
  C 216.10 588.62 200.74 600.21 190.48 614.74
  A 0.44 0.44 0.0 0 0 190.60 615.37
  Q 198.62 620.38 206.04 623.71
  Q 228.98 634.03 250.40 639.79
  Q 272.30 645.68 295.94 649.82
  Q 335.31 656.72 372.95 660.05
  A 0.61 0.61 0.0 0 0 373.61 659.54
  C 375.97 644.76 379.92 630.35 387.73 617.48
  C 392.32 609.89 397.48 602.63 403.90 596.16
  C 416.03 583.96 430.11 575.08 445.59 567.78
  Z
  M 752.04 542.77
  L 745.74 537.35
  A 2.74 2.66 -20.3 0 0 744.29 536.71
  Q 740.39 536.22 739.99 536.25
  Q 732.13 536.87 732.11 536.87
  A 0.26 0.26 0.0 0 0 732.07 537.37
  L 751.75 543.30
  A 0.31 0.31 0.0 0 0 752.04 542.77
  Z
  M 658.51 558.89
  C 664.14 558.65 668.94 559.51 674.10 560.18
  Q 708.42 564.64 740.74 579.04
  Q 754.43 585.15 774.94 596.04
  C 781.09 599.31 789.88 601.31 796.08 597.32
  A 1.69 1.60 85.9 0 0 796.72 596.54
  C 798.73 591.50 795.62 588.92 791.76 586.35
  Q 785.39 582.10 769.47 573.26
  C 742.27 558.17 712.71 547.38 681.88 544.44
  C 679.26 544.19 677.72 544.52 675.74 545.99
  Q 665.72 553.42 658.28 558.18
  A 0.39 0.39 0.0 0 0 658.51 558.89
  Z
  M 744.80 602.08
  A 0.30 0.28 26.1 0 0 744.66 601.70
  Q 730.88 595.17 716.47 590.05
  Q 708.45 587.20 701.20 585.57
  C 682.11 581.27 662.06 579.08 642.31 577.45
  Q 634.67 576.82 629.24 577.21
  A 9.40 9.29 -59.2 0 0 625.95 578.06
  C 610.96 585.00 598.97 590.92 586.87 596.06
  Q 560.33 607.34 550.90 611.11
  Q 530.99 619.09 514.71 627.45
  C 501.54 634.23 486.89 643.16 477.81 654.30
  Q 473.24 659.91 471.21 662.34
  A 0.88 0.87 -55.0 0 0 471.44 663.66
  C 489.80 674.34 509.08 681.24 529.97 687.41
  Q 537.97 689.77 553.29 693.01
  C 571.88 696.94 581.67 698.60 599.39 701.33
  C 611.37 703.17 620.60 704.00 632.85 705.30
  Q 650.91 707.22 678.76 709.24
  C 687.84 709.90 698.65 710.08 707.75 710.92
  Q 709.68 711.10 713.42 710.90
  A 0.44 0.44 0.0 0 0 713.83 710.38
  C 712.29 702.13 711.06 694.91 710.91 686.63
  Q 710.07 638.18 744.35 602.86
  Q 744.49 602.72 744.80 602.08
  Z
  M 1267.86 593.31
  A 0.33 0.33 0.0 0 0 1267.36 593.05
  Q 1253.37 601.35 1237.00 608.47
  Q 1200.56 624.32 1166.54 636.33
  C 1155.40 640.26 1144.64 644.99 1132.68 649.37
  Q 1122.98 652.92 1107.29 659.18
  C 1067.10 675.22 1048.65 682.79 1015.98 693.96
  Q 990.66 702.62 974.86 706.57
  Q 939.46 715.43 901.34 721.35
  Q 879.27 724.78 852.05 727.21
  Q 821.66 729.93 802.52 730.50
  Q 765.39 731.61 753.75 731.42
  C 731.46 731.05 714.76 731.04 693.77 730.02
  Q 656.39 728.20 619.26 724.15
  Q 580.82 719.96 541.13 710.85
  Q 518.56 705.67 494.48 696.28
  Q 477.03 689.48 459.69 679.37
  A 0.51 0.51 0.0 0 0 458.98 679.57
  Q 452.44 691.53 449.53 704.88
  A 1.92 1.91 -62.6 0 0 450.10 706.69
  Q 454.19 710.53 459.36 714.15
  Q 481.37 729.56 506.22 738.73
  Q 531.52 748.07 561.81 754.42
  Q 600.29 762.48 638.26 765.88
  Q 673.46 769.04 687.50 769.72
  Q 748.41 772.66 806.72 771.41
  C 822.54 771.07 837.96 772.31 852.24 778.94
  Q 859.49 782.30 867.67 788.97
  Q 882.92 801.41 893.28 817.94
  A 1.38 1.36 66.9 0 0 894.77 818.55
  C 907.10 815.44 919.21 811.41 931.37 807.87
  C 941.05 805.06 951.40 801.46 960.28 798.02
  Q 994.56 784.78 1013.82 776.74
  C 1024.16 772.42 1032.91 769.58 1043.00 765.58
  Q 1053.33 761.49 1065.01 757.62
  Q 1095.38 747.53 1129.21 738.79
  C 1163.76 729.87 1194.45 720.68 1225.42 706.64
  Q 1242.81 698.76 1255.83 688.34
  Q 1262.71 682.85 1264.68 675.19
  Q 1266.82 666.89 1267.76 656.24
  C 1269.59 635.35 1269.23 614.21 1267.86 593.31
  Z
  M 768.16 711.53
  Q 768.53 711.76 769.18 711.75
  Q 854.94 710.74 934.38 695.14
  Q 974.54 687.26 1013.25 673.76
  A 0.37 0.37 0.0 0 0 1013.41 673.17
  Q 1007.90 666.61 1001.49 660.52
  C 991.61 651.14 979.98 644.43 967.25 639.00
  Q 949.04 631.25 928.25 630.11
  Q 894.05 628.24 862.22 639.51
  C 843.09 646.29 824.80 655.04 808.37 666.83
  Q 783.38 684.77 767.99 710.78
  Q 767.71 711.25 768.16 711.53
  Z
  M 435.55 681.31
  A 0.27 0.27 0.0 0 0 435.27 680.95
  Q 417.62 682.62 399.31 681.77
  Q 382.28 680.98 375.18 680.35
  Q 328.22 676.12 286.07 668.59
  Q 267.26 665.23 244.37 658.89
  Q 232.11 655.49 219.67 650.67
  Q 203.65 644.47 195.54 640.67
  Q 190.60 638.36 181.22 633.08
  A 1.27 1.26 30.7 0 0 179.52 633.51
  Q 172.38 644.96 168.93 658.29
  C 168.03 661.76 167.10 663.21 170.17 665.44
  C 188.56 678.77 210.50 688.87 233.45 696.69
  Q 246.77 701.23 252.59 702.91
  Q 275.03 709.37 296.57 713.86
  Q 313.37 717.36 342.37 721.91
  C 367.39 725.83 391.33 726.64 417.25 725.85
  Q 421.33 725.73 425.34 724.97
  A 0.68 0.67 -3.4 0 0 425.89 724.36
  Q 427.61 702.51 435.55 681.31
  Z
  M 164.81 685.75
  Q 164.21 705.44 168.56 720.44
  Q 172.13 732.77 181.78 744.08
  C 190.45 754.25 203.60 761.46 216.30 766.46
  Q 226.98 770.66 233.42 772.63
  Q 283.27 787.93 334.76 791.98
  Q 338.82 792.30 355.08 793.38
  Q 367.21 794.19 375.43 794.06
  C 384.57 793.91 395.24 794.31 405.24 793.60
  C 414.74 792.92 425.29 792.65 435.56 790.93
  A 0.47 0.47 0.0 0 0 435.90 790.25
  Q 425.72 769.96 424.66 746.57
  A 0.49 0.49 0.0 0 0 424.14 746.11
  Q 415.91 746.70 406.01 746.53
  Q 389.61 746.24 378.49 745.63
  C 351.37 744.16 323.41 739.94 297.57 734.85
  C 267.55 728.95 235.64 719.43 205.46 707.51
  Q 184.40 699.19 165.26 685.53
  A 0.28 0.28 0.0 0 0 164.81 685.75
  Z
  M 872.64 823.12
  Q 864.76 810.99 853.32 802.44
  C 842.82 794.58 830.62 791.35 817.99 791.08
  C 795.39 790.61 770.57 791.64 747.00 791.37
  Q 712.38 790.99 703.50 790.70
  Q 693.68 790.39 660.21 788.22
  Q 635.89 786.65 618.86 784.41
  Q 594.39 781.20 577.79 778.13
  Q 555.52 774.02 543.44 770.78
  Q 519.80 764.46 492.81 754.11
  Q 471.37 745.90 452.95 734.29
  Q 447.83 731.06 444.32 728.04
  A 0.30 0.30 0.0 0 0 443.83 728.25
  C 443.15 742.70 444.46 756.76 449.53 770.22
  Q 453.58 780.95 460.36 787.92
  C 471.85 799.72 486.46 807.97 503.22 813.76
  Q 535.12 824.80 580.99 832.44
  Q 618.99 838.77 652.76 840.65
  Q 667.09 841.44 668.43 841.52
  Q 677.03 842.06 684.09 842.15
  Q 728.33 842.73 746.37 841.76
  Q 773.71 840.28 781.25 839.46
  Q 809.42 836.39 828.93 833.15
  Q 849.78 829.69 872.40 823.73
  A 0.41 0.40 -23.5 0 0 872.64 823.12
  Z"
/>
<path fill="#243861" d="
  M 584.82 303.23
  Q 584.88 302.28 584.81 283.25
  Q 584.71 254.77 588.28 230.02
  C 590.47 214.80 595.30 200.14 601.02 185.02
  Q 603.69 177.97 607.73 171.24
  C 615.79 157.80 627.20 155.50 641.75 156.18
  Q 659.81 157.02 678.60 162.21
  Q 694.78 166.69 708.28 176.19
  Q 715.81 181.50 723.77 190.96
  C 734.33 203.52 741.84 215.86 749.51 230.89
  A 1.00 1.00 0.0 0 1 748.94 232.29
  C 733.60 237.46 721.40 246.95 711.04 259.53
  Q 700.31 272.58 691.66 289.65
  Q 681.04 310.62 673.49 333.50
  Q 673.20 334.36 673.03 334.61
  A 0.95 0.95 0.0 0 1 671.82 334.92
  C 648.11 323.08 622.88 312.75 597.23 306.56
  Q 594.95 306.01 585.32 303.89
  A 0.64 0.63 -82.7 0 1 584.82 303.23
  Z"
/>
<path fill="#243861" d="
  M 971.17 352.52
  A 0.48 0.47 19.7 0 1 970.50 352.83
  Q 928.23 332.76 881.31 325.31
  A 0.87 0.86 7.4 0 1 880.58 324.37
  C 882.30 305.76 884.41 286.12 886.18 265.66
  Q 888.42 239.72 893.52 214.76
  C 895.40 205.57 897.68 197.84 902.35 189.82
  C 909.76 177.08 923.66 175.73 936.80 175.98
  Q 962.32 176.48 985.44 184.35
  C 1003.13 190.38 1012.79 202.32 1021.31 218.16
  Q 1032.62 239.20 1040.40 260.14
  A 1.21 1.21 0.0 0 1 1039.76 261.67
  Q 1024.37 268.54 1012.70 280.44
  C 996.02 297.44 984.69 316.75 975.69 338.91
  Q 972.77 346.11 971.17 352.52
  Z"
/>
<path fill="#d34f19" d="
  M 873.68 204.21
  A 0.28 0.27 -87.7 0 1 873.98 204.54
  Q 870.57 219.43 868.93 233.91
  A 0.44 0.43 -79.9 0 1 868.40 234.28
  C 859.07 232.21 853.61 230.85 846.50 229.86
  Q 811.36 224.97 773.64 228.11
  A 1.60 1.59 74.5 0 1 772.08 227.22
  L 765.15 212.89
  A 0.51 0.51 0.0 0 1 765.54 212.16
  C 776.17 210.71 788.17 209.80 808.42 207.98
  C 821.77 206.77 839.21 206.26 848.80 205.48
  C 856.78 204.82 865.51 205.09 873.68 204.21
  Z"
/>
<path fill="#d34f19" d="
  M 1056.54 239.36
  Q 1086.77 235.11 1110.99 233.19
  Q 1113.48 233.00 1126.18 232.40
  Q 1147.60 231.40 1165.14 232.57
  Q 1170.76 232.95 1174.83 233.62
  C 1181.69 234.75 1188.68 236.27 1194.44 240.12
  A 1.66 1.62 -83.2 0 1 1195.06 240.93
  Q 1195.69 242.76 1194.26 244.36
  C 1186.34 253.19 1177.98 255.37 1166.25 255.49
  C 1151.35 255.64 1129.52 253.24 1111.50 253.11
  C 1093.04 252.97 1077.89 253.55 1061.81 255.93
  A 0.53 0.53 0.0 0 1 1061.21 255.51
  Q 1059.61 248.19 1055.90 240.55
  A 0.84 0.83 -16.9 0 1 1056.54 239.36
  Z"
/>
<path fill="#243861" d="
  M 840.71 250.36
  L 840.67 250.63
  A 0.30 0.29 -85.4 0 1 840.38 250.88
  L 837.44 250.88
  A 0.96 0.95 -82.5 0 0 836.52 251.59
  Q 832.60 266.70 831.90 268.63
  Q 826.53 283.42 821.60 300.69
  Q 817.70 314.34 815.21 321.44
  Q 808.90 339.39 807.81 341.86
  Q 798.46 363.18 796.26 367.54
  Q 784.57 390.75 772.22 409.24
  C 767.13 416.86 759.90 425.72 753.82 433.81
  C 746.97 442.91 741.66 447.95 730.47 459.83
  C 724.38 466.29 718.59 471.41 712.46 477.39
  Q 705.66 484.02 698.45 489.98
  Q 675.40 509.01 653.64 525.38
  Q 643.07 533.34 633.91 538.90
  Q 612.08 552.17 591.26 562.40
  Q 585.05 565.45 572.76 571.69
  Q 559.36 578.49 554.04 580.53
  Q 517.15 594.66 506.82 599.34
  Q 489.71 607.10 472.90 619.21
  Q 461.24 627.62 453.22 637.50
  Q 444.79 647.89 439.06 660.38
  Q 419.73 662.89 399.06 661.72
  Q 398.02 661.66 394.45 661.09
  A 0.56 0.55 7.1 0 1 393.98 660.49
  Q 394.51 655.16 396.30 649.58
  C 400.93 635.18 407.55 623.00 418.30 611.75
  Q 427.99 601.60 437.36 595.28
  C 445.46 589.82 454.52 585.74 464.75 580.76
  A 3.26 3.24 -44.7 0 1 467.60 580.77
  C 475.03 584.44 480.44 587.26 487.74 588.78
  C 500.36 591.41 510.95 584.30 517.79 574.32
  C 519.80 571.38 520.93 563.82 520.95 560.39
  Q 520.98 556.50 519.57 553.14
  A 2.14 2.14 0.0 0 1 520.34 550.55
  C 533.77 541.40 547.64 531.03 559.19 519.39
  A 0.55 0.54 52.5 0 1 560.05 519.51
  C 563.15 524.92 566.86 528.94 572.51 531.97
  Q 577.84 534.83 581.11 537.13
  Q 586.16 540.69 589.93 541.63
  C 603.11 544.94 614.72 541.24 622.18 529.71
  Q 624.41 526.27 625.18 520.06
  C 626.53 509.15 622.49 494.27 611.16 489.87
  Q 607.31 488.37 605.15 487.68
  A 1.77 1.77 0.0 0 1 604.16 486.88
  L 601.41 482.13
  A 1.98 1.97 -37.4 0 1 601.73 479.75
  L 616.55 464.93
  A 0.39 0.38 47.0 0 1 617.12 464.96
  C 623.33 472.40 631.70 478.94 641.70 478.95
  C 646.31 478.95 648.69 478.84 651.95 480.13
  C 668.09 486.49 689.12 477.72 691.02 459.33
  C 692.15 448.42 688.63 437.71 679.34 431.44
  C 674.19 427.97 666.90 425.36 660.63 426.12
  Q 658.84 426.34 657.41 425.85
  A 2.53 2.52 78.8 0 1 656.31 425.11
  L 650.52 418.42
  A 0.95 0.95 0.0 0 1 650.50 417.20
  L 667.46 396.01
  A 0.72 0.71 34.0 0 1 668.38 395.84
  C 676.13 400.25 685.11 405.47 693.86 408.11
  Q 701.41 410.39 708.98 408.32
  A 2.90 2.89 55.2 0 1 711.45 408.77
  Q 713.72 410.39 716.77 411.18
  Q 729.04 414.37 738.77 408.71
  C 758.55 397.20 755.58 367.06 734.34 358.63
  Q 725.57 355.15 715.41 359.19
  A 0.93 0.92 50.7 0 1 714.57 359.10
  C 712.66 357.81 711.05 355.97 709.18 354.58
  Q 701.64 348.93 692.97 344.51
  A 1.71 1.71 0.0 0 1 692.14 342.43
  Q 701.84 314.76 715.89 289.13
  C 727.48 268.00 745.27 252.55 769.23 248.96
  Q 776.17 247.92 784.00 247.79
  Q 812.43 247.32 840.71 250.36
  Z
  M 731.9320 290.3035
  A 26.35 26.23 -130.4 0 0 729.0349 327.3702
  A 26.35 26.23 -130.4 0 0 766.0880 330.4365
  A 26.35 26.23 -130.4 0 0 768.9851 293.3698
  A 26.35 26.23 -130.4 0 0 731.9320 290.3035
  Z"
/>
<path fill="#d34f19" d="
  M 565.65 250.02
  A 0.33 0.33 0.0 0 1 566.02 250.40
  C 565.39 254.49 565.00 259.73 565.00 263.53
  Q 565.01 284.03 564.24 301.94
  A 0.57 0.57 0.0 0 1 563.61 302.48
  Q 557.92 301.90 551.70 302.88
  A 0.53 0.53 0.0 0 1 551.09 302.31
  Q 552.53 284.97 552.65 283.43
  Q 554.06 265.30 565.11 250.39
  Q 565.36 250.06 565.65 250.02
  Z"
/>
<path fill="#141f35" d="
  M 439.06 660.38
  Q 444.79 647.89 453.22 637.50
  Q 461.24 627.62 472.90 619.21
  Q 489.71 607.10 506.82 599.34
  Q 517.15 594.66 554.04 580.53
  Q 559.36 578.49 572.76 571.69
  Q 585.05 565.45 591.26 562.40
  Q 612.08 552.17 633.91 538.90
  Q 643.07 533.34 653.64 525.38
  Q 675.40 509.01 698.45 489.98
  Q 705.66 484.02 712.46 477.39
  C 718.59 471.41 724.38 466.29 730.47 459.83
  C 741.66 447.95 746.97 442.91 753.82 433.81
  C 759.90 425.72 767.13 416.86 772.22 409.24
  Q 784.57 390.75 796.26 367.54
  Q 798.46 363.18 807.81 341.86
  Q 808.90 339.39 815.21 321.44
  Q 817.70 314.34 821.60 300.69
  Q 826.53 283.42 831.90 268.63
  Q 832.60 266.70 836.52 251.59
  A 0.96 0.95 -82.5 0 1 837.44 250.88
  L 840.38 250.88
  A 0.30 0.29 -85.4 0 0 840.67 250.63
  L 840.71 250.36
  L 856.44 252.03
  A 0.61 0.61 0.0 0 1 856.73 253.13
  C 848.14 259.31 839.98 267.48 835.04 277.16
  Q 831.12 284.87 828.94 290.69
  C 826.11 298.26 823.28 306.73 821.42 314.82
  C 820.11 320.50 818.49 326.80 816.50 332.26
  Q 812.49 343.23 811.66 345.56
  C 806.72 359.44 800.75 370.71 792.76 386.28
  Q 788.21 395.16 777.32 410.57
  Q 764.19 429.17 760.38 433.88
  Q 751.53 444.81 742.89 455.82
  Q 740.62 458.72 736.47 463.06
  Q 734.46 465.17 729.90 470.16
  Q 718.28 482.90 704.46 495.96
  Q 686.62 512.82 668.71 526.69
  Q 664.17 530.20 660.93 532.18
  Q 654.72 535.95 643.84 542.92
  C 625.46 554.70 606.29 564.91 586.44 573.94
  Q 579.68 577.01 566.21 582.68
  Q 561.47 584.68 529.38 597.39
  Q 500.76 608.72 476.42 627.41
  Q 474.38 628.98 466.54 636.03
  Q 461.45 640.60 457.65 645.61
  Q 452.40 652.56 449.29 657.29
  Q 448.35 658.73 446.47 659.18
  Q 443.39 659.91 439.06 660.38
  Z"
/>
<path fill="#243861" d="
  M 1206.02 263.66
  L 1216.66 331.80
  A 1.59 1.57 64.1 0 1 1216.18 333.20
  Q 1206.46 342.16 1193.01 359.26
  Q 1151.50 412.05 1129.06 472.03
  Q 1111.53 518.91 1103.64 564.32
  Q 1097.15 601.65 1098.82 639.60
  A 1.15 1.14 79.2 0 1 1098.06 640.72
  Q 1070.41 650.68 1044.27 662.14
  C 1041.26 663.45 1038.53 664.34 1034.59 665.79
  A 1.75 1.74 62.6 0 1 1032.55 665.14
  C 1028.26 658.93 1023.12 652.53 1017.60 647.42
  Q 1000.42 631.54 978.75 622.34
  Q 957.21 613.20 935.78 610.82
  Q 923.67 609.48 907.06 610.01
  Q 893.92 610.44 878.63 613.82
  Q 840.22 622.33 806.78 643.26
  Q 776.39 662.27 755.49 691.98
  Q 749.65 700.29 745.93 710.40
  A 1.30 1.29 11.7 0 1 744.63 711.25
  L 735.82 710.75
  A 0.89 0.87 84.2 0 1 735.01 710.08
  Q 731.96 697.56 731.15 686.12
  Q 730.37 675.10 733.33 661.80
  Q 737.68 642.32 750.31 626.10
  Q 756.54 618.10 763.03 611.38
  A 1.20 1.20 0.0 0 1 764.47 611.16
  Q 770.00 614.19 771.13 614.64
  C 778.38 617.48 787.63 617.72 795.11 616.81
  C 804.54 615.66 814.49 608.49 816.46 598.79
  Q 817.79 592.24 816.18 585.89
  C 815.50 583.22 813.14 580.71 811.44 578.76
  A 1.03 1.02 -38.6 0 1 811.61 577.26
  Q 834.45 560.56 858.24 537.75
  Q 859.33 536.71 860.27 535.56
  A 0.55 0.55 0.0 0 1 861.11 535.54
  C 866.94 542.24 875.23 548.37 883.92 550.74
  Q 887.28 551.66 889.67 554.85
  Q 893.04 559.35 900.11 561.30
  Q 905.31 562.74 911.99 562.04
  C 924.07 560.79 932.59 551.22 934.72 539.52
  C 936.19 531.43 933.39 524.40 928.20 518.06
  C 925.20 514.39 921.82 512.71 917.22 512.18
  A 3.78 3.73 -13.5 0 1 914.54 510.56
  Q 909.59 503.28 903.74 497.12
  A 1.47 1.45 43.8 0 1 903.69 495.17
  L 917.06 479.62
  A 0.51 0.51 0.0 0 1 917.79 479.57
  C 924.56 485.62 932.56 490.52 942.00 491.51
  C 946.37 491.97 948.95 494.61 952.51 495.93
  C 968.45 501.82 984.98 493.32 987.71 476.21
  C 990.29 460.07 979.63 445.75 963.26 444.13
  A 4.99 4.97 -17.5 0 1 960.01 442.45
  L 951.80 432.96
  A 1.49 1.49 0.0 0 1 951.76 431.05
  L 964.64 414.96
  A 1.75 1.74 34.1 0 1 966.87 414.53
  Q 975.20 419.26 983.45 422.78
  C 990.65 425.86 999.00 428.22 1006.49 426.48
  Q 1008.76 425.95 1009.70 425.94
  A 1.66 1.64 60.0 0 1 1010.54 426.17
  Q 1016.84 429.87 1021.75 429.82
  C 1030.87 429.72 1039.96 426.37 1045.03 419.00
  Q 1055.49 403.83 1046.80 387.47
  C 1040.99 376.53 1027.18 372.00 1015.71 376.32
  Q 1012.45 377.55 1009.64 374.86
  C 1004.00 369.46 997.22 366.08 989.29 362.03
  A 0.67 0.66 -67.0 0 1 988.97 361.22
  Q 997.40 337.04 1011.11 315.34
  C 1021.58 298.78 1033.55 285.95 1052.26 279.02
  Q 1063.19 274.97 1084.00 274.05
  Q 1105.58 273.10 1126.50 274.32
  Q 1146.76 275.50 1166.62 275.63
  Q 1180.36 275.71 1192.44 271.40
  Q 1197.37 269.63 1205.27 263.37
  A 0.47 0.46 -23.6 0 1 1206.02 263.66
  Z
  M 1073.3311 324.6218
  A 26.32 26.02 -6.3 0 0 1044.3147 301.6471
  A 26.32 26.02 -6.3 0 0 1021.0089 330.3982
  A 26.32 26.02 -6.3 0 0 1050.0253 353.3729
  A 26.32 26.02 -6.3 0 0 1073.3311 324.6218
  Z"
/>
<path fill="#d34f19" d="
  M 839.39 324.40
  Q 840.23 322.76 841.71 315.65
  Q 843.03 309.33 843.83 306.78
  C 848.07 293.36 855.74 282.05 865.08 271.47
  A 0.24 0.24 0.0 0 1 865.50 271.65
  L 861.73 323.50
  A 0.44 0.43 3.4 0 1 861.27 323.90
  C 856.29 323.75 852.53 323.57 847.61 324.20
  Q 839.90 325.19 839.69 325.12
  A 0.52 0.51 22.7 0 1 839.39 324.40
  Z"
/>
<path fill="#000000" d="
  M 731.9320 290.3035
  A 26.35 26.23 -130.4 0 1 768.9851 293.3698
  A 26.35 26.23 -130.4 0 1 766.0880 330.4365
  A 26.35 26.23 -130.4 0 1 729.0349 327.3702
  A 26.35 26.23 -130.4 0 1 731.9320 290.3035
  Z
  M 759.2076 308.7109
  A 10.02 9.73 -8.2 0 0 747.9022 300.5095
  A 10.02 9.73 -8.2 0 0 739.3724 311.5691
  A 10.02 9.73 -8.2 0 0 750.6778 319.7705
  A 10.02 9.73 -8.2 0 0 759.2076 308.7109
  Z"
/>
<ellipse fill="#243861" cx="0.00" cy="0.00" transform="translate(749.29,310.14) rotate(-8.2)" rx="10.02" ry="9.73"/>
<path fill="#000000" d="
  M 1073.3311 324.6218
  A 26.32 26.02 -6.3 0 1 1050.0253 353.3729
  A 26.32 26.02 -6.3 0 1 1021.0089 330.3982
  A 26.32 26.02 -6.3 0 1 1044.3147 301.6471
  A 26.32 26.02 -6.3 0 1 1073.3311 324.6218
  Z
  M 1044.2021 318.1617
  A 10.04 9.31 -109.6 0 0 1038.7994 330.7431
  A 10.04 9.31 -109.6 0 0 1050.9379 337.0783
  A 10.04 9.31 -109.6 0 0 1056.3406 324.4969
  A 10.04 9.31 -109.6 0 0 1044.2021 318.1617
  Z"
/>
<ellipse fill="#243861" cx="0.00" cy="0.00" transform="translate(1047.57,327.62) rotate(-109.6)" rx="10.04" ry="9.31"/>
<path fill="#d34f19" d="
  M 538.49 344.71
  L 546.13 324.04
  A 0.67 0.66 -83.4 0 1 546.67 323.61
  Q 560.52 321.94 577.80 324.62
  Q 606.46 329.07 632.60 339.62
  Q 648.65 346.09 662.06 352.17
  Q 685.00 362.57 705.90 375.25
  Q 712.69 379.37 711.72 387.40
  Q 711.52 389.05 709.39 389.89
  C 704.92 391.65 698.72 389.25 694.07 387.19
  Q 692.66 386.57 668.42 374.22
  Q 643.58 361.56 617.92 353.06
  C 601.65 347.68 586.27 344.59 569.49 343.37
  Q 554.25 342.26 538.74 345.01
  A 0.22 0.22 0.0 0 1 538.49 344.71
  Z"
/>
<path fill="#d34f19" d="
  M 828.87 361.03
  A 0.30 0.30 0.0 0 1 828.55 360.63
  L 834.68 344.03
  A 0.06 0.05 5.7 0 1 834.74 343.99
  C 872.28 342.08 907.95 349.28 942.55 363.17
  Q 973.56 375.63 1000.78 391.47
  C 1005.80 394.39 1010.70 396.84 1010.06 403.26
  C 1009.17 412.33 997.24 408.28 992.49 405.75
  C 966.59 391.98 938.39 379.60 909.81 370.71
  Q 903.31 368.69 887.24 364.95
  C 869.98 360.93 851.86 359.89 835.51 360.49
  Q 831.49 360.64 828.87 361.03
  Z"
/>
<path fill="#d34f19" d="
  M 1116.84 633.32
  Q 1116.75 623.77 1117.29 615.76
  Q 1120.77 563.93 1135.66 513.38
  C 1150.16 464.16 1173.70 416.73 1205.44 376.68
  Q 1212.58 367.65 1220.85 359.21
  A 0.76 0.76 0.0 0 1 1222.14 359.60
  Q 1224.03 369.30 1227.61 381.44
  Q 1228.69 385.08 1226.06 388.06
  Q 1213.65 402.12 1201.00 420.75
  Q 1181.14 450.01 1167.07 482.73
  C 1150.56 521.15 1140.48 562.42 1138.70 604.10
  Q 1138.17 616.44 1138.04 624.28
  A 1.12 1.11 -10.8 0 1 1137.36 625.27
  L 1117.35 633.66
  A 0.37 0.37 0.0 0 1 1116.84 633.32
  Z"
/>
<path fill="#d34f19" d="
  M 551.34 363.67
  A 0.27 0.27 0.0 0 1 551.61 363.30
  Q 560.09 363.69 574.49 363.93
  C 576.54 363.97 577.90 364.38 579.51 365.97
  Q 587.92 374.26 590.11 376.75
  Q 613.83 403.76 644.78 441.07
  C 647.31 444.13 650.83 448.61 651.44 452.73
  Q 651.78 455.01 650.11 457.34
  C 647.38 461.14 638.36 458.03 635.65 456.34
  C 631.81 453.94 628.80 450.09 625.70 446.71
  Q 617.81 438.09 595.64 412.41
  Q 581.45 395.97 553.39 365.72
  C 552.73 365.00 551.66 364.47 551.34 363.67
  Z"
/>
<path fill="#243861" d="
  M 525.58 373.70
  Q 527.27 373.39 530.32 373.95
  A 0.28 0.28 0.0 0 0 530.55 373.46
  Q 528.71 372.04 528.13 370.41
  A 0.29 0.29 0.0 0 1 528.59 370.08
  Q 530.70 371.72 532.23 374.15
  A 1.60 1.55 86.9 0 0 532.80 374.68
  L 533.59 375.11
  A 0.29 0.29 0.0 0 1 533.42 375.65
  L 525.17 374.82
  A 1.34 1.32 -54.1 0 0 524.46 374.94
  L 523.19 375.52
  A 0.39 0.39 0.0 0 1 522.74 374.90
  Q 525.13 372.32 526.99 369.17
  C 527.40 368.49 527.04 367.85 527.24 367.46
  A 0.25 0.24 54.3 0 1 527.70 367.54
  Q 527.90 368.81 527.55 369.82
  Q 526.84 371.89 525.36 373.27
  A 0.25 0.25 0.0 0 0 525.58 373.70
  Z"
/>
<path fill="#243861" d="
  M 614.21 373.63
  L 646.96 386.64
  A 0.37 0.37 0.0 0 1 647.11 387.21
  L 636.79 400.10
  A 0.37 0.37 0.0 0 1 636.22 400.11
  L 613.79 374.22
  A 0.37 0.37 0.0 0 1 614.21 373.63
  Z"
/>
<path fill="#243861" d="
  M 726.80 396.24
  Q 731.90 390.61 730.64 382.21
  Q 730.07 378.35 728.59 375.29
  A 0.42 0.42 0.0 0 1 729.11 374.72
  C 736.24 377.28 737.53 386.41 732.91 392.00
  C 731.24 394.01 728.85 394.64 727.45 396.44
  A 0.28 0.17 -40.4 0 1 727.04 396.51
  Q 727.02 396.40 726.84 396.36
  A 0.08 0.07 27.4 0 1 726.80 396.24
  Z"
/>
<path fill="#d34f19" d="
  M 835.74 380.98
  L 860.50 380.98
  A 3.07 2.98 51.6 0 1 861.27 381.08
  Q 864.91 382.01 869.46 385.53
  C 897.59 407.33 923.52 431.52 948.65 458.34
  C 951.78 461.68 953.16 467.00 951.53 471.31
  A 1.39 1.36 87.3 0 1 950.87 472.05
  C 945.33 474.84 938.86 473.08 934.61 468.89
  C 913.37 447.88 890.44 426.38 866.23 406.20
  C 855.78 397.49 845.67 388.80 835.59 381.46
  A 0.27 0.26 62.7 0 1 835.74 380.98
  Z"
/>
<path fill="#243861" d="
  M 825.51 400.12
  L 810.08 400.12
  A 0.53 0.53 0.0 0 1 809.62 399.33
  L 815.79 388.63
  A 0.53 0.53 0.0 0 1 816.65 388.55
  L 825.91 399.24
  A 0.53 0.53 0.0 0 1 825.51 400.12
  Z"
/>
<path fill="#243861" d="
  M 906.00 391.32
  A 0.19 0.19 0.0 0 1 906.18 390.99
  C 915.30 393.89 925.17 396.81 933.10 399.98
  Q 941.65 403.41 945.56 404.60
  A 0.49 0.49 0.0 0 1 945.79 405.39
  L 935.11 417.81
  A 0.54 0.52 44.4 0 1 934.31 417.81
  C 926.16 408.49 915.53 399.18 906.00 391.32
  Z"
/>
<path fill="#243861" d="
  M 1026.98 411.63
  C 1028.37 409.00 1029.18 404.94 1029.72 402.06
  Q 1030.69 396.85 1028.14 392.54
  A 0.35 0.35 0.0 0 1 1028.63 392.07
  Q 1030.68 393.45 1031.86 395.82
  C 1035.25 402.61 1034.34 408.27 1027.40 412.04
  A 0.31 0.31 0.0 0 1 1026.98 411.63
  Z"
/>
<path fill="#d34f19" d="
  M 578.89 421.34
  C 577.76 421.31 575.92 420.23 574.36 419.93
  Q 566.70 418.48 558.67 416.86
  Q 553.92 415.91 550.77 412.54
  C 545.18 406.55 539.37 400.99 534.11 395.56
  A 0.41 0.41 0.0 0 1 534.37 394.86
  C 535.09 394.80 536.51 395.61 537.51 395.78
  Q 547.69 397.51 557.31 399.90
  C 561.55 400.95 564.25 404.38 567.19 407.42
  C 571.49 411.89 575.19 416.75 579.13 420.78
  A 0.33 0.33 0.0 0 1 578.89 421.34
  Z"
/>
<path fill="#d34f19" d="
  M 489.97 414.86
  A 0.59 0.58 -62.2 0 1 489.69 413.93
  L 501.37 399.34
  A 0.53 0.52 33.3 0 1 502.03 399.21
  C 511.70 404.49 520.26 409.19 528.55 416.46
  C 549.95 435.22 566.24 457.69 580.15 482.34
  Q 584.99 490.94 588.43 500.14
  C 590.45 505.55 591.53 514.23 585.04 516.98
  A 1.62 1.61 -50.6 0 1 584.05 517.08
  C 578.63 515.93 574.75 510.62 572.28 506.20
  Q 562.10 488.00 553.09 474.41
  Q 538.75 452.80 522.63 435.39
  Q 515.81 428.02 505.01 421.04
  C 500.57 418.16 494.93 416.37 489.97 414.86
  Z"
/>
<path fill="#243861" d="
  M 1157.82 617.99
  Q 1157.87 590.70 1162.64 565.44
  Q 1164.21 557.17 1168.99 537.92
  Q 1175.35 512.29 1186.37 487.72
  C 1195.38 467.64 1204.87 449.09 1217.39 431.64
  Q 1224.96 421.09 1233.50 410.05
  A 0.25 0.25 0.0 0 1 1233.94 410.15
  Q 1237.56 426.10 1242.03 443.20
  Q 1258.27 505.41 1266.13 568.70
  A 2.28 2.28 0.0 0 1 1265.01 570.96
  Q 1245.20 582.55 1226.52 590.74
  Q 1212.45 596.90 1183.42 608.45
  C 1175.75 611.50 1167.17 615.41 1158.26 618.32
  A 0.34 0.34 0.0 0 1 1157.82 617.99
  Z"
/>
<path fill="#d34f19" d="
  M 818.26 420.92
  Q 822.74 421.66 823.52 421.67
  Q 835.39 421.83 856.12 424.01
  Q 858.75 424.29 861.61 426.65
  Q 870.37 433.86 878.02 440.98
  A 0.35 0.34 -19.0 0 1 877.73 441.57
  Q 860.26 438.82 842.87 436.93
  Q 839.08 436.52 835.65 434.08
  Q 827.95 428.60 817.98 421.60
  A 0.38 0.38 0.0 0 1 818.26 420.92
  Z"
/>
<path fill="#d34f19" d="
  M 779.03 441.87
  L 790.65 427.36
  A 0.80 0.78 -58.2 0 1 791.60 427.13
  C 793.41 427.98 794.61 429.34 796.49 430.53
  C 827.16 449.98 855.48 474.71 879.94 500.61
  Q 896.78 518.44 898.82 520.41
  Q 900.59 522.12 901.12 526.75
  C 901.68 531.73 898.26 534.45 893.45 534.00
  C 887.37 533.44 880.68 527.72 876.65 523.48
  Q 861.40 507.39 843.75 491.62
  Q 812.96 464.12 779.15 442.58
  A 0.48 0.48 0.0 0 1 779.03 441.87
  Z"
/>
<path fill="#243861" d="
  M 518.18 457.81
  Q 517.26 457.62 515.93 456.82
  A 2.09 2.08 61.0 0 0 514.89 456.52
  Q 513.74 456.51 502.19 453.60
  C 488.93 450.25 475.75 450.28 463.23 446.88
  A 0.21 0.21 0.0 0 1 463.14 446.52
  Q 466.39 443.66 471.26 438.53
  Q 472.01 437.73 474.03 436.93
  A 3.88 3.73 32.6 0 1 475.39 436.66
  Q 482.16 436.61 490.01 437.28
  Q 497.06 437.88 502.54 442.47
  Q 510.53 449.18 518.40 457.42
  A 0.24 0.23 -16.1 0 1 518.18 457.81
  Z"
/>
<path fill="#243861" d="
  M 595.48 456.05
  Q 592.60 460.00 591.04 461.63
  A 1.14 1.13 40.5 0 1 589.53 461.75
  Q 588.87 461.24 588.06 460.00
  Q 582.32 451.18 576.77 442.59
  Q 576.67 442.44 576.72 442.38
  Q 576.77 442.32 576.93 442.36
  Q 586.81 445.02 596.97 447.78
  Q 598.40 448.17 599.08 448.64
  A 1.14 1.13 31.6 0 1 599.43 450.11
  Q 598.36 452.10 595.48 456.05
  Z"
/>
<path fill="#243861" d="
  M 675.09 455.39
  C 674.40 461.05 670.84 464.79 665.19 465.76
  A 0.27 0.27 0.0 0 1 664.92 465.32
  Q 668.68 460.45 669.38 454.70
  Q 670.07 448.95 667.59 443.31
  A 0.27 0.27 0.0 0 1 667.95 442.95
  C 673.21 445.25 675.78 449.73 675.09 455.39
  Z"
/>
<path fill="#243861" d="
  M 758.42 469.84
  L 767.47 458.53
  A 0.90 0.90 0.0 0 1 768.62 458.31
  Q 777.27 463.31 785.76 470.42
  A 0.15 0.15 0.0 0 1 785.65 470.69
  Q 772.69 469.35 758.63 470.25
  A 0.25 0.25 0.0 0 1 758.42 469.84
  Z"
/>
<path fill="#d34f19" d="
  M 434.03 469.69
  A 0.89 0.88 -47.9 0 1 433.96 468.30
  L 443.80 459.78
  A 2.06 2.05 -52.8 0 1 446.01 459.47
  C 462.33 467.05 474.44 479.60 486.95 492.33
  Q 503.15 508.83 517.52 528.13
  A 0.63 0.62 -39.0 0 1 517.43 528.97
  L 506.82 538.15
  A 1.24 1.24 0.0 0 1 505.26 538.20
  Q 501.49 535.33 501.29 535.10
  Q 496.56 529.68 486.08 517.96
  Q 475.12 505.69 457.09 488.46
  Q 447.25 479.05 434.03 469.69
  Z"
/>
<path fill="#243861" d="
  M 866.53 459.78
  L 899.90 464.56
  A 1.26 1.25 59.3 0 1 900.21 464.64
  L 902.59 465.49
  A 0.78 0.77 31.3 0 1 902.90 466.74
  L 889.41 481.56
  A 1.15 1.15 0.0 0 1 887.71 481.56
  Q 877.83 470.67 866.25 460.38
  A 0.35 0.35 0.0 0 1 866.53 459.78
  Z"
/>
<path fill="#243861" d="
  M 970.34 463.48
  C 973.01 466.91 974.50 473.65 970.92 477.40
  A 2.32 2.13 -81.1 0 1 970.38 477.83
  Q 966.97 479.84 964.44 481.72
  A 0.39 0.39 0.0 0 1 963.92 481.15
  L 967.69 477.00
  A 3.66 3.39 -12.5 0 0 968.25 476.19
  Q 971.15 470.33 969.96 463.64
  A 0.21 0.21 0.0 0 1 970.34 463.48
  Z"
/>
<path fill="#d34f19" d="
  M 545.86 496.45
  A 0.43 0.43 0.0 0 1 545.46 497.18
  Q 527.30 492.88 511.06 490.50
  A 2.31 2.28 -15.7 0 1 509.67 489.73
  L 494.66 472.40
  A 0.48 0.48 0.0 0 1 495.11 471.61
  Q 515.34 475.47 534.11 482.11
  C 535.57 482.63 537.99 485.53 539.01 487.35
  Q 542.01 492.66 545.86 496.45
  Z"
/>
<path fill="#d34f19" d="
  M 425.23 489.59
  L 411.42 488.81
  A 0.31 0.31 0.0 0 1 411.23 488.26
  L 415.26 484.78
  A 3.09 3.08 41.5 0 1 419.02 484.56
  L 425.45 488.93
  A 0.36 0.36 0.0 0 1 425.23 489.59
  Z"
/>
<path fill="#d34f19" d="
  M 788.16 502.27
  L 772.02 489.36
  A 0.30 0.30 0.0 0 1 772.23 488.82
  L 813.65 491.17
  A 0.30 0.30 0.0 0 1 813.84 491.25
  L 830.02 505.97
  A 0.30 0.30 0.0 0 1 829.79 506.49
  L 788.32 502.34
  A 0.30 0.30 0.0 0 1 788.16 502.27
  Z"
/>
<path fill="#d34f19" d="
  M 725.53 501.39
  A 0.37 0.37 0.0 0 1 725.49 500.80
  Q 729.81 497.01 736.13 491.43
  Q 737.62 490.11 740.09 491.16
  C 753.20 496.70 765.17 507.43 775.52 517.24
  Q 792.94 533.75 810.45 553.16
  A 0.32 0.32 0.0 0 1 810.42 553.61
  L 798.74 563.73
  A 1.34 1.34 0.0 0 1 796.91 563.65
  C 787.01 553.60 777.85 543.78 767.83 534.57
  C 762.00 529.21 758.51 525.75 754.19 522.19
  Q 741.72 511.92 725.53 501.39
  Z"
/>
<ellipse fill="#243861" cx="0.00" cy="0.00" transform="translate(444.96,503.51) rotate(-162.0)" rx="1.34" ry="0.40"/>
<path fill="#d34f19" d="
  M 372.80 517.76
  A 0.60 0.60 0.0 0 1 372.48 516.68
  Q 378.16 512.38 384.91 506.92
  C 388.21 504.26 390.50 504.22 394.53 505.22
  Q 433.58 514.92 468.11 536.22
  Q 484.45 546.30 495.81 554.89
  C 499.26 557.50 504.14 559.98 502.84 564.62
  Q 501.58 569.16 496.70 570.02
  C 489.99 571.19 483.45 567.45 477.94 564.06
  Q 469.04 558.58 450.08 547.14
  Q 417.90 527.72 379.26 518.75
  Q 376.15 518.02 372.80 517.76
  Z"
/>
<path fill="#243861" d="
  M 600.64 527.15
  A 0.19 0.19 0.0 0 1 600.46 526.82
  C 605.78 522.50 607.73 515.71 608.08 509.09
  A 0.36 0.35 28.2 0 1 608.72 508.90
  Q 610.57 511.33 610.38 514.33
  Q 609.77 524.17 600.64 527.15
  Z"
/>
<path fill="#243861" d="
  M 532.95 512.50
  Q 536.32 513.39 536.96 513.61
  A 0.40 0.40 0.0 0 1 537.04 514.33
  L 531.93 517.66
  A 0.42 0.29 -51.5 0 1 531.70 517.73
  Q 531.62 517.73 531.58 517.72
  Q 531.54 517.71 531.47 517.67
  A 0.42 0.29 81.0 0 1 531.30 517.50
  L 528.49 512.08
  A 0.40 0.40 0.0 0 1 528.92 511.50
  Q 529.58 511.62 532.95 512.50
  Z"
/>
<path fill="#d34f19" d="
  M 706.58 520.78
  A 0.43 0.43 0.0 0 1 706.33 520.03
  L 711.75 515.33
  A 1.42 1.42 0.0 0 1 713.56 515.29
  L 720.88 521.15
  A 0.37 0.37 0.0 0 1 720.62 521.80
  L 706.58 520.78
  Z"
/>
<path fill="#243861" d="
  M 839.49 527.31
  A 0.56 0.56 0.0 0 1 839.80 528.29
  L 825.50 540.67
  A 0.73 0.72 49.1 0 1 824.47 540.59
  C 820.83 536.33 818.21 532.93 814.39 529.56
  Q 811.96 527.42 809.48 524.42
  A 0.07 0.07 0.0 0 1 809.54 524.31
  L 839.49 527.31
  Z"
/>
<path fill="#243861" d="
  M 916.90 540.97
  Q 915.07 543.91 910.82 545.78
  A 0.17 0.17 0.0 0 1 910.62 545.52
  C 911.59 544.29 914.10 542.62 915.63 540.17
  C 917.16 537.73 917.57 534.74 918.25 533.33
  A 0.17 0.17 0.0 0 1 918.57 533.40
  Q 918.74 538.04 916.90 540.97
  Z"
/>
<path fill="#243861" d="
  M 445.59 567.78
  C 430.11 575.08 416.03 583.96 403.90 596.16
  C 397.48 602.63 392.32 609.89 387.73 617.48
  C 379.92 630.35 375.97 644.76 373.61 659.54
  A 0.61 0.61 0.0 0 1 372.95 660.05
  Q 335.31 656.72 295.94 649.82
  Q 272.30 645.68 250.40 639.79
  Q 228.98 634.03 206.04 623.71
  Q 198.62 620.38 190.60 615.37
  A 0.44 0.44 0.0 0 1 190.48 614.74
  C 200.74 600.21 216.10 588.62 231.87 580.62
  C 241.72 575.63 250.08 571.54 260.34 568.15
  C 267.60 565.75 282.31 560.87 292.70 556.86
  Q 320.32 546.20 342.78 534.76
  Q 345.11 533.58 346.48 533.42
  A 3.92 3.81 -41.3 0 1 347.86 533.49
  C 349.36 533.84 352.38 534.76 354.66 535.07
  Q 367.65 536.84 372.51 537.73
  Q 398.48 542.46 422.78 553.49
  C 431.25 557.34 437.27 561.54 445.64 566.96
  A 0.47 0.47 0.0 0 1 445.59 567.78
  Z"
/>
<path fill="#243861" d="
  M 752.04 542.77
  A 0.31 0.31 0.0 0 1 751.75 543.30
  L 732.07 537.37
  A 0.26 0.26 0.0 0 1 732.11 536.87
  Q 732.13 536.87 739.99 536.25
  Q 740.39 536.22 744.29 536.71
  A 2.74 2.66 -20.3 0 1 745.74 537.35
  L 752.04 542.77
  Z"
/>
<path fill="#d34f19" d="
  M 658.51 558.89
  A 0.39 0.39 0.0 0 1 658.28 558.18
  Q 665.72 553.42 675.74 545.99
  C 677.72 544.52 679.26 544.19 681.88 544.44
  C 712.71 547.38 742.27 558.17 769.47 573.26
  Q 785.39 582.10 791.76 586.35
  C 795.62 588.92 798.73 591.50 796.72 596.54
  A 1.69 1.60 85.9 0 1 796.08 597.32
  C 789.88 601.31 781.09 599.31 774.94 596.04
  Q 754.43 585.15 740.74 579.04
  Q 708.42 564.64 674.10 560.18
  C 668.94 559.51 664.14 558.65 658.51 558.89
  Z"
/>
<path fill="#243861" d="
  M 744.80 602.08
  Q 744.49 602.72 744.35 602.86
  Q 710.07 638.18 710.91 686.63
  C 711.06 694.91 712.29 702.13 713.83 710.38
  A 0.44 0.44 0.0 0 1 713.42 710.90
  Q 709.68 711.10 707.75 710.92
  C 698.65 710.08 687.84 709.90 678.76 709.24
  Q 650.91 707.22 632.85 705.30
  C 620.60 704.00 611.37 703.17 599.39 701.33
  C 581.67 698.60 571.88 696.94 553.29 693.01
  Q 537.97 689.77 529.97 687.41
  C 509.08 681.24 489.80 674.34 471.44 663.66
  A 0.88 0.87 -55.0 0 1 471.21 662.34
  Q 473.24 659.91 477.81 654.30
  C 486.89 643.16 501.54 634.23 514.71 627.45
  Q 530.99 619.09 550.90 611.11
  Q 560.33 607.34 586.87 596.06
  C 598.97 590.92 610.96 585.00 625.95 578.06
  A 9.40 9.29 -59.2 0 1 629.24 577.21
  Q 634.67 576.82 642.31 577.45
  C 662.06 579.08 682.11 581.27 701.20 585.57
  Q 708.45 587.20 716.47 590.05
  Q 730.88 595.17 744.66 601.70
  A 0.30 0.28 26.1 0 1 744.80 602.08
  Z"
/>
<path fill="#d34f19" d="
  M 1267.86 593.31
  C 1269.23 614.21 1269.59 635.35 1267.76 656.24
  Q 1266.82 666.89 1264.68 675.19
  Q 1262.71 682.85 1255.83 688.34
  Q 1242.81 698.76 1225.42 706.64
  C 1194.45 720.68 1163.76 729.87 1129.21 738.79
  Q 1095.38 747.53 1065.01 757.62
  Q 1053.33 761.49 1043.00 765.58
  C 1032.91 769.58 1024.16 772.42 1013.82 776.74
  Q 994.56 784.78 960.28 798.02
  C 951.40 801.46 941.05 805.06 931.37 807.87
  C 919.21 811.41 907.10 815.44 894.77 818.55
  A 1.38 1.36 66.9 0 1 893.28 817.94
  Q 882.92 801.41 867.67 788.97
  Q 859.49 782.30 852.24 778.94
  C 837.96 772.31 822.54 771.07 806.72 771.41
  Q 748.41 772.66 687.50 769.72
  Q 673.46 769.04 638.26 765.88
  Q 600.29 762.48 561.81 754.42
  Q 531.52 748.07 506.22 738.73
  Q 481.37 729.56 459.36 714.15
  Q 454.19 710.53 450.10 706.69
  A 1.92 1.91 -62.6 0 1 449.53 704.88
  Q 452.44 691.53 458.98 679.57
  A 0.51 0.51 0.0 0 1 459.69 679.37
  Q 477.03 689.48 494.48 696.28
  Q 518.56 705.67 541.13 710.85
  Q 580.82 719.96 619.26 724.15
  Q 656.39 728.20 693.77 730.02
  C 714.76 731.04 731.46 731.05 753.75 731.42
  Q 765.39 731.61 802.52 730.50
  Q 821.66 729.93 852.05 727.21
  Q 879.27 724.78 901.34 721.35
  Q 939.46 715.43 974.86 706.57
  Q 990.66 702.62 1015.98 693.96
  C 1048.65 682.79 1067.10 675.22 1107.29 659.18
  Q 1122.98 652.92 1132.68 649.37
  C 1144.64 644.99 1155.40 640.26 1166.54 636.33
  Q 1200.56 624.32 1237.00 608.47
  Q 1253.37 601.35 1267.36 593.05
  A 0.33 0.33 0.0 0 1 1267.86 593.31
  Z"
/>
<path fill="#d34f19" d="
  M 768.16 711.53
  Q 767.71 711.25 767.99 710.78
  Q 783.38 684.77 808.37 666.83
  C 824.80 655.04 843.09 646.29 862.22 639.51
  Q 894.05 628.24 928.25 630.11
  Q 949.04 631.25 967.25 639.00
  C 979.98 644.43 991.61 651.14 1001.49 660.52
  Q 1007.90 666.61 1013.41 673.17
  A 0.37 0.37 0.0 0 1 1013.25 673.76
  Q 974.54 687.26 934.38 695.14
  Q 854.94 710.74 769.18 711.75
  Q 768.53 711.76 768.16 711.53
  Z"
/>
<path fill="#d34f19" d="
  M 435.55 681.31
  Q 427.61 702.51 425.89 724.36
  A 0.68 0.67 -3.4 0 1 425.34 724.97
  Q 421.33 725.73 417.25 725.85
  C 391.33 726.64 367.39 725.83 342.37 721.91
  Q 313.37 717.36 296.57 713.86
  Q 275.03 709.37 252.59 702.91
  Q 246.77 701.23 233.45 696.69
  C 210.50 688.87 188.56 678.77 170.17 665.44
  C 167.10 663.21 168.03 661.76 168.93 658.29
  Q 172.38 644.96 179.52 633.51
  A 1.27 1.26 30.7 0 1 181.22 633.08
  Q 190.60 638.36 195.54 640.67
  Q 203.65 644.47 219.67 650.67
  Q 232.11 655.49 244.37 658.89
  Q 267.26 665.23 286.07 668.59
  Q 328.22 676.12 375.18 680.35
  Q 382.28 680.98 399.31 681.77
  Q 417.62 682.62 435.27 680.95
  A 0.27 0.27 0.0 0 1 435.55 681.31
  Z"
/>
<path fill="#d34f19" d="
  M 165.26 685.53
  Q 184.40 699.19 205.46 707.51
  C 235.64 719.43 267.55 728.95 297.57 734.85
  C 323.41 739.94 351.37 744.16 378.49 745.63
  Q 389.61 746.24 406.01 746.53
  Q 415.91 746.70 424.14 746.11
  A 0.49 0.49 0.0 0 1 424.66 746.57
  Q 425.72 769.96 435.90 790.25
  A 0.47 0.47 0.0 0 1 435.56 790.93
  C 425.29 792.65 414.74 792.92 405.24 793.60
  C 395.24 794.31 384.57 793.91 375.43 794.06
  Q 367.21 794.19 355.08 793.38
  Q 338.82 792.30 334.76 791.98
  Q 283.27 787.93 233.42 772.63
  Q 226.98 770.66 216.30 766.46
  C 203.60 761.46 190.45 754.25 181.78 744.08
  Q 172.13 732.77 168.56 720.44
  Q 164.21 705.44 164.81 685.75
  A 0.28 0.28 0.0 0 1 165.26 685.53
  Z"
/>
<path fill="#d34f19" d="
  M 872.40 823.73
  Q 849.78 829.69 828.93 833.15
  Q 809.42 836.39 781.25 839.46
  Q 773.71 840.28 746.37 841.76
  Q 728.33 842.73 684.09 842.15
  Q 677.03 842.06 668.43 841.52
  Q 667.09 841.44 652.76 840.65
  Q 618.99 838.77 580.99 832.44
  Q 535.12 824.80 503.22 813.76
  C 486.46 807.97 471.85 799.72 460.36 787.92
  Q 453.58 780.95 449.53 770.22
  C 444.46 756.76 443.15 742.70 443.83 728.25
  A 0.30 0.30 0.0 0 1 444.32 728.04
  Q 447.83 731.06 452.95 734.29
  Q 471.37 745.90 492.81 754.11
  Q 519.80 764.46 543.44 770.78
  Q 555.52 774.02 577.79 778.13
  Q 594.39 781.20 618.86 784.41
  Q 635.89 786.65 660.21 788.22
  Q 693.68 790.39 703.50 790.70
  Q 712.38 790.99 747.00 791.37
  C 770.57 791.64 795.39 790.61 817.99 791.08
  C 830.62 791.35 842.82 794.58 853.32 802.44
  Q 864.76 810.99 872.64 823.12
  A 0.41 0.40 -23.5 0 1 872.40 823.73
  Z"
/>
</svg>
