<?xml version="1.0" encoding="UTF-8" standalone="no"?>
<!DOCTYPE svg PUBLIC "-//W3C//DTD SVG 1.1//EN" "http://www.w3.org/Graphics/SVG/1.1/DTD/svg11.dtd">
<svg xmlns="http://www.w3.org/2000/svg" version="1.1" viewBox="0.00 0.00 1024.00 1024.00">
<g stroke-width="2.00" fill="none" stroke-linecap="butt">
<path stroke="#898882" vector-effect="non-scaling-stroke" d="
  M 109.04 680.34
  C 114.65 689.83 128.15 696.94 137.99 700.30
  Q 157.51 706.97 177.84 709.91
  C 182.39 710.57 189.32 711.99 193.03 713.51
  C 201.91 717.13 205.20 725.99 207.03 734.73
  Q 209.38 745.93 211.11 758.92
  A 1.31 1.31 0.0 0 0 212.61 760.04
  Q 214.62 759.72 229.23 756.95
  Q 251.09 752.80 273.01 754.21
  Q 310.66 756.62 340.83 780.01
  Q 342.46 781.27 355.11 790.67
  C 367.32 799.73 379.70 806.80 393.10 811.60
  Q 433.22 825.98 474.97 818.53
  Q 502.69 813.59 528.03 797.04
  C 536.03 791.81 545.28 783.98 553.99 777.75
  Q 573.72 763.64 596.20 757.49
  A 0.61 0.61 0.0 0 0 596.52 756.52
  C 568.06 721.06 553.56 675.59 555.37 630.69
  Q 557.50 577.94 584.52 532.77
  C 602.71 502.36 629.60 478.55 660.98 462.98
  Q 679.33 453.87 698.87 447.20
  C 704.61 445.24 709.45 444.38 716.20 443.01
  A 1.08 1.07 85.0 0 0 717.06 441.98
  C 717.21 433.94 713.76 423.16 703.97 423.07
  Q 696.69 423.00 689.42 425.91
  Q 680.94 429.30 669.30 434.07
  C 656.64 439.25 642.27 440.24 630.12 432.83
  C 619.14 426.13 619.44 416.24 620.37 404.78
  Q 622.25 381.50 622.43 379.10
  C 622.91 372.90 622.93 368.06 623.38 362.67
  Q 623.81 357.46 624.05 350.36
  C 624.44 338.70 624.82 331.92 624.30 322.22
  C 623.48 307.06 622.64 292.29 619.39 277.08
  C 608.72 227.14 573.05 187.06 527.36 165.15
  Q 487.40 145.99 441.49 146.96
  C 392.34 148.00 346.70 168.58 313.77 204.74
  C 289.46 231.44 277.05 263.33 273.53 299.24
  Q 271.79 316.93 271.87 333.50
  Q 271.95 350.34 272.02 356.77
  C 272.08 363.30 272.83 369.18 272.90 375.41
  Q 272.97 380.57 273.60 389.35
  Q 274.25 398.42 274.80 407.00
  Q 275.33 415.21 274.60 419.12
  C 272.51 430.35 260.00 437.33 249.25 438.03
  Q 239.39 438.66 229.27 435.71
  Q 223.38 433.99 204.89 428.09
  Q 199.93 426.51 192.94 425.89
  C 185.80 425.26 179.19 426.74 177.90 434.84
  C 176.59 443.05 185.07 451.91 191.46 456.06
  C 202.61 463.31 213.97 466.96 228.54 471.82
  C 242.26 476.39 257.69 484.25 264.10 498.24
  C 268.70 508.30 268.93 518.51 266.44 529.25
  C 262.34 546.95 253.19 563.51 242.83 578.59
  Q 225.95 603.19 205.59 624.09
  C 182.21 648.09 153.37 666.68 121.02 676.14
  C 118.06 677.00 112.68 678.05 109.46 679.18
  A 0.80 0.80 0.0 0 0 109.04 680.34"
/>
<path stroke="#867229" vector-effect="non-scaling-stroke" d="
  M 664.96 487.58
  Q 696.66 494.15 724.14 512.65
  C 741.34 524.24 758.63 537.60 776.95 549.57
  Q 796.74 562.50 818.10 570.40
  Q 821.15 571.53 823.97 571.98
  A 0.36 0.35 -1.0 0 0 824.38 571.56
  C 816.72 534.20 800.35 498.28 775.77 469.98
  Q 774.55 468.57 772.90 468.12
  C 762.13 465.15 749.31 464.94 737.99 465.02
  C 712.44 465.19 687.21 474.00 664.91 487.27
  A 0.17 0.17 0.0 0 0 664.96 487.58"
/>
<path stroke="#867229" vector-effect="non-scaling-stroke" d="
  M 804.63 476.61
  C 814.26 489.77 822.43 503.28 828.67 518.55
  Q 840.00 546.31 844.66 575.58
  A 0.51 0.51 0.0 0 0 845.16 576.01
  C 857.83 575.88 871.12 572.33 880.28 563.33
  Q 888.78 554.98 888.19 543.56
  C 887.96 539.00 883.64 534.00 881.25 531.02
  Q 851.93 494.44 807.92 476.81
  Q 806.30 476.16 804.89 476.13
  A 0.31 0.30 -16.8 0 0 804.63 476.61"
/>
<path stroke="#867229" vector-effect="non-scaling-stroke" d="
  M 579.83 620.96
  Q 580.24 621.01 597.84 621.03
  C 610.59 621.05 623.91 622.04 635.30 622.01
  Q 638.54 622.01 643.15 622.36
  C 650.85 622.95 657.93 622.80 665.50 623.36
  Q 676.06 624.14 680.00 623.98
  Q 680.77 623.95 697.73 624.79
  Q 742.28 627.01 751.80 627.87
  C 755.04 628.16 758.91 627.96 762.57 628.26
  Q 768.49 628.75 769.91 628.83
  Q 801.31 630.52 828.29 632.89
  A 0.50 0.49 -86.2 0 0 828.83 632.41
  Q 829.63 613.19 827.81 593.93
  A 1.09 1.09 0.0 0 0 827.01 592.98
  Q 790.06 583.11 758.20 561.03
  Q 742.36 550.05 717.92 532.60
  Q 697.95 518.34 675.63 509.65
  Q 661.39 504.10 646.51 503.06
  Q 642.68 502.79 641.42 503.71
  C 617.54 521.00 600.00 545.59 589.93 573.16
  Q 582.76 592.78 579.65 614.82
  Q 579.14 618.36 579.26 620.36
  A 0.65 0.64 -89.0 0 0 579.83 620.96"
/>
<path stroke="#867229" vector-effect="non-scaling-stroke" d="
  M 914.91 640.31
  Q 917.22 602.54 902.91 567.65
  A 0.51 0.51 0.0 0 0 901.98 567.62
  C 900.35 571.00 897.99 573.56 895.30 576.54
  C 882.93 590.23 865.88 595.00 847.83 595.19
  A 0.35 0.34 87.7 0 0 847.49 595.57
  Q 849.45 614.28 848.82 632.89
  A 0.83 0.81 4.1 0 0 849.56 633.73
  L 914.60 640.56
  A 0.28 0.27 5.0 0 0 914.91 640.31"
/>
<path stroke="#867229" vector-effect="non-scaling-stroke" d="
  M 578.06 641.79
  Q 577.94 644.94 578.11 647.26
  C 579.10 660.73 580.70 672.92 584.17 685.32
  Q 592.78 716.18 614.10 742.64
  Q 618.02 747.50 621.45 751.53
  A 4.19 4.18 -19.2 0 0 624.47 752.99
  Q 631.39 753.27 643.27 752.96
  Q 655.81 752.63 672.06 748.72
  C 689.41 744.56 706.60 736.40 723.14 727.89
  C 734.88 721.85 756.34 708.74 773.68 701.70
  Q 796.03 692.63 819.74 692.94
  A 1.43 1.43 0.0 0 0 821.16 691.83
  Q 825.63 672.68 827.86 653.04
  A 0.73 0.71 -85.4 0 0 827.19 652.24
  Q 796.74 650.49 776.75 649.04
  Q 756.97 647.60 690.74 644.34
  Q 642.94 641.99 607.03 641.12
  Q 598.04 640.90 578.68 641.18
  A 0.63 0.63 0.0 0 0 578.06 641.79"
/>
<path stroke="#867229" vector-effect="non-scaling-stroke" d="
  M 912.80 660.32
  L 848.62 654.12
  A 1.20 1.20 0.0 0 0 847.31 655.20
  Q 845.54 675.04 840.89 694.81
  A 0.75 0.75 0.0 0 0 841.47 695.71
  Q 872.75 702.00 887.27 730.70
  A 0.47 0.47 0.0 0 0 888.09 730.73
  Q 901.36 708.54 908.22 683.49
  Q 911.53 671.41 913.20 660.83
  A 0.45 0.44 -83.3 0 0 912.80 660.32"
/>
<path stroke="#867229" vector-effect="non-scaling-stroke" d="
  M 815.31 711.75
  C 797.14 712.96 779.57 719.22 763.70 727.44
  Q 750.30 734.39 727.39 747.14
  Q 706.77 758.61 683.81 765.81
  Q 664.27 771.95 643.69 772.32
  A 0.34 0.34 0.0 0 0 643.47 772.92
  C 668.92 794.46 700.57 808.24 733.77 809.45
  Q 736.02 809.53 740.24 808.01
  Q 756.43 802.17 769.19 790.93
  C 792.79 770.14 807.20 742.12 815.56 712.06
  A 0.24 0.24 0.0 0 0 815.31 711.75"
/>
<path stroke="#867229" vector-effect="non-scaling-stroke" d="
  M 780.15 806.05
  A 0.17 0.17 0.0 0 0 780.29 806.35
  Q 818.38 798.28 849.18 774.65
  Q 861.57 765.15 868.89 755.91
  C 870.70 753.63 871.35 752.18 871.13 749.35
  C 869.75 730.74 854.75 717.37 837.08 713.64
  A 0.84 0.84 0.0 0 0 836.10 714.24
  C 829.67 737.61 819.85 759.97 805.32 780.08
  Q 794.53 795.02 780.15 806.05"
/>
</g>
<path fill="#fbfaf4" d="
  M 109.04 680.34
  A 0.80 0.80 0.0 0 1 109.46 679.18
  C 112.68 678.05 118.06 677.00 121.02 676.14
  C 153.37 666.68 182.21 648.09 205.59 624.09
  Q 225.95 603.19 242.83 578.59
  C 253.19 563.51 262.34 546.95 266.44 529.25
  C 268.93 518.51 268.70 508.30 264.10 498.24
  C 257.69 484.25 242.26 476.39 228.54 471.82
  C 213.97 466.96 202.61 463.31 191.46 456.06
  C 185.07 451.91 176.59 443.05 177.90 434.84
  C 179.19 426.74 185.80 425.26 192.94 425.89
  Q 199.93 426.51 204.89 428.09
  Q 223.38 433.99 229.27 435.71
  Q 239.39 438.66 249.25 438.03
  C 260.00 437.33 272.51 430.35 274.60 419.12
  Q 275.33 415.21 274.80 407.00
  Q 274.25 398.42 273.60 389.35
  Q 272.97 380.57 272.90 375.41
  C 272.83 369.18 272.08 363.30 272.02 356.77
  Q 271.95 350.34 271.87 333.50
  Q 271.79 316.93 273.53 299.24
  C 277.05 263.33 289.46 231.44 313.77 204.74
  C 346.70 168.58 392.34 148.00 441.49 146.96
  Q 487.40 145.99 527.36 165.15
  C 573.05 187.06 608.72 227.14 619.39 277.08
  C 622.64 292.29 623.48 307.06 624.30 322.22
  C 624.82 331.92 624.44 338.70 624.05 350.36
  Q 623.81 357.46 623.38 362.67
  C 622.93 368.06 622.91 372.90 622.43 379.10
  Q 622.25 381.50 620.37 404.78
  C 619.44 416.24 619.14 426.13 630.12 432.83
  C 642.27 440.24 656.64 439.25 669.30 434.07
  Q 680.94 429.30 689.42 425.91
  Q 696.69 423.00 703.97 423.07
  C 713.76 423.16 717.21 433.94 717.06 441.98
  A 1.08 1.07 85.0 0 1 716.20 443.01
  C 709.45 444.38 704.61 445.24 698.87 447.20
  Q 679.33 453.87 660.98 462.98
  C 629.60 478.55 602.71 502.36 584.52 532.77
  Q 557.50 577.94 555.37 630.69
  C 553.56 675.59 568.06 721.06 596.52 756.52
  A 0.61 0.61 0.0 0 1 596.20 757.49
  Q 573.72 763.64 553.99 777.75
  C 545.28 783.98 536.03 791.81 528.03 797.04
  Q 502.69 813.59 474.97 818.53
  Q 433.22 825.98 393.10 811.60
  C 379.70 806.80 367.32 799.73 355.11 790.67
  Q 342.46 781.27 340.83 780.01
  Q 310.66 756.62 273.01 754.21
  Q 251.09 752.80 229.23 756.95
  Q 214.62 759.72 212.61 760.04
  A 1.31 1.31 0.0 0 1 211.11 758.92
  Q 209.38 745.93 207.03 734.73
  C 205.20 725.99 201.91 717.13 193.03 713.51
  C 189.32 711.99 182.39 710.57 177.84 709.91
  Q 157.51 706.97 137.99 700.30
  C 128.15 696.94 114.65 689.83 109.04 680.34
  Z"
/>
<path fill="#16150f" d="
  M 614.83 776.32
  A 1.55 1.53 59.1 0 0 613.25 775.91
  Q 606.10 778.12 597.49 781.21
  Q 588.97 784.27 582.35 787.93
  Q 572.60 793.30 561.70 801.72
  Q 549.83 810.89 547.88 812.37
  Q 539.82 818.46 527.67 825.13
  Q 517.10 830.94 505.87 834.88
  Q 481.79 843.33 458.24 844.88
  Q 450.40 845.40 433.52 845.06
  Q 429.95 844.98 426.51 844.49
  Q 420.53 843.64 419.56 843.53
  Q 418.03 843.35 417.52 843.32
  Q 415.75 843.22 412.05 842.52
  Q 381.41 836.67 355.90 820.37
  C 346.57 814.41 341.02 810.37 331.94 803.21
  Q 319.03 793.03 308.36 787.57
  Q 293.71 780.07 275.44 778.12
  Q 271.72 777.72 255.96 778.16
  A 5.38 5.27 34.8 0 0 254.48 778.41
  C 252.34 779.09 249.87 778.95 247.37 779.41
  Q 221.87 784.11 217.26 784.68
  Q 208.50 785.76 202.02 783.67
  C 194.40 781.21 190.03 773.96 188.48 766.51
  Q 188.02 764.32 185.95 750.75
  Q 185.65 748.78 184.06 741.74
  Q 183.02 737.17 181.67 735.46
  A 2.86 2.83 -2.7 0 0 180.96 734.82
  Q 179.44 733.86 177.43 733.95
  A 1.96 1.94 -30.5 0 1 176.32 733.67
  Q 175.93 733.44 172.76 732.95
  Q 151.78 729.72 131.91 722.84
  C 118.60 718.23 105.22 710.89 95.74 701.21
  C 89.54 694.88 85.42 687.01 84.29 678.24
  Q 83.93 675.50 84.55 672.34
  C 86.77 660.87 94.27 658.01 105.01 656.18
  C 128.92 652.11 151.55 639.60 170.59 624.08
  Q 190.20 608.09 206.09 588.27
  C 217.95 573.47 227.93 559.39 235.42 543.94
  Q 240.54 533.38 242.72 522.50
  Q 244.08 515.75 241.96 509.75
  C 239.06 501.54 229.97 496.70 221.54 493.72
  Q 215.80 491.70 204.53 487.92
  Q 201.38 486.87 192.02 482.94
  Q 184.32 479.70 175.81 474.20
  Q 157.85 462.59 153.25 441.76
  Q 152.55 438.59 152.93 432.53
  Q 153.23 427.67 154.81 423.53
  Q 158.74 413.21 167.36 407.77
  C 175.49 402.63 186.10 401.01 195.76 401.94
  Q 205.81 402.92 216.26 406.04
  Q 234.65 411.53 243.56 413.89
  Q 248.68 415.25 250.69 410.47
  A 2.99 2.72 -34.6 0 0 250.90 409.57
  C 251.14 405.35 249.94 401.05 249.95 396.99
  Q 249.96 393.71 249.33 391.26
  A 6.96 6.84 -53.1 0 1 249.11 389.61
  Q 249.05 381.19 248.66 377.51
  C 247.67 368.12 247.94 362.44 247.28 351.25
  Q 246.63 340.37 247.26 315.25
  Q 247.36 311.10 249.08 294.52
  Q 253.65 250.68 275.45 215.52
  Q 297.35 180.20 333.53 155.69
  Q 370.22 130.84 416.51 123.87
  Q 428.01 122.14 443.30 121.93
  Q 457.78 121.74 470.11 123.26
  Q 503.80 127.42 534.43 141.34
  Q 556.84 151.53 575.26 166.04
  Q 581.87 171.25 584.35 173.42
  Q 625.51 209.54 639.67 260.07
  Q 644.26 276.42 646.36 297.24
  Q 647.02 303.74 647.07 307.85
  C 647.14 312.69 647.80 317.06 647.86 322.06
  Q 647.99 332.27 647.88 343.36
  C 647.83 349.64 646.91 355.73 647.05 361.90
  Q 647.11 364.36 646.33 371.20
  C 645.88 375.06 646.18 381.26 645.28 386.29
  A 13.74 12.89 52.2 0 0 645.07 388.54
  Q 645.02 394.11 644.62 396.90
  C 643.86 402.19 644.02 404.47 643.62 409.98
  C 643.39 413.23 646.24 415.10 649.28 415.07
  Q 650.08 415.07 654.42 413.82
  Q 663.28 411.27 674.47 406.23
  C 680.58 403.48 688.95 400.18 695.83 399.30
  Q 710.77 397.39 723.72 405.69
  C 735.72 413.38 740.85 426.79 741.95 440.70
  A 0.81 0.80 -0.4 0 0 742.71 441.44
  Q 751.04 441.87 757.24 442.42
  Q 766.87 443.26 771.73 444.04
  Q 821.52 452.05 861.87 480.64
  Q 880.36 493.74 895.29 511.85
  C 911.98 532.11 924.26 554.31 931.47 579.77
  Q 934.04 588.85 935.46 596.24
  Q 936.86 603.50 937.93 613.22
  C 942.40 653.74 933.93 694.49 915.06 730.82
  C 906.92 746.49 896.43 760.76 884.79 773.54
  Q 865.30 794.94 839.57 809.08
  Q 814.33 822.96 786.38 828.94
  C 781.99 829.88 775.68 830.70 771.51 831.36
  Q 767.18 832.04 764.14 832.01
  C 760.78 831.98 757.86 832.76 754.28 832.85
  C 748.25 833.00 739.48 833.41 732.69 832.48
  C 728.71 831.94 725.58 832.16 721.81 831.57
  Q 714.94 830.48 710.00 829.50
  C 672.76 822.09 640.94 803.70 614.83 776.32
  Z
  M 109.04 680.34
  C 114.65 689.83 128.15 696.94 137.99 700.30
  Q 157.51 706.97 177.84 709.91
  C 182.39 710.57 189.32 711.99 193.03 713.51
  C 201.91 717.13 205.20 725.99 207.03 734.73
  Q 209.38 745.93 211.11 758.92
  A 1.31 1.31 0.0 0 0 212.61 760.04
  Q 214.62 759.72 229.23 756.95
  Q 251.09 752.80 273.01 754.21
  Q 310.66 756.62 340.83 780.01
  Q 342.46 781.27 355.11 790.67
  C 367.32 799.73 379.70 806.80 393.10 811.60
  Q 433.22 825.98 474.97 818.53
  Q 502.69 813.59 528.03 797.04
  C 536.03 791.81 545.28 783.98 553.99 777.75
  Q 573.72 763.64 596.20 757.49
  A 0.61 0.61 0.0 0 0 596.52 756.52
  C 568.06 721.06 553.56 675.59 555.37 630.69
  Q 557.50 577.94 584.52 532.77
  C 602.71 502.36 629.60 478.55 660.98 462.98
  Q 679.33 453.87 698.87 447.20
  C 704.61 445.24 709.45 444.38 716.20 443.01
  A 1.08 1.07 85.0 0 0 717.06 441.98
  C 717.21 433.94 713.76 423.16 703.97 423.07
  Q 696.69 423.00 689.42 425.91
  Q 680.94 429.30 669.30 434.07
  C 656.64 439.25 642.27 440.24 630.12 432.83
  C 619.14 426.13 619.44 416.24 620.37 404.78
  Q 622.25 381.50 622.43 379.10
  C 622.91 372.90 622.93 368.06 623.38 362.67
  Q 623.81 357.46 624.05 350.36
  C 624.44 338.70 624.82 331.92 624.30 322.22
  C 623.48 307.06 622.64 292.29 619.39 277.08
  C 608.72 227.14 573.05 187.06 527.36 165.15
  Q 487.40 145.99 441.49 146.96
  C 392.34 148.00 346.70 168.58 313.77 204.74
  C 289.46 231.44 277.05 263.33 273.53 299.24
  Q 271.79 316.93 271.87 333.50
  Q 271.95 350.34 272.02 356.77
  C 272.08 363.30 272.83 369.18 272.90 375.41
  Q 272.97 380.57 273.60 389.35
  Q 274.25 398.42 274.80 407.00
  Q 275.33 415.21 274.60 419.12
  C 272.51 430.35 260.00 437.33 249.25 438.03
  Q 239.39 438.66 229.27 435.71
  Q 223.38 433.99 204.89 428.09
  Q 199.93 426.51 192.94 425.89
  C 185.80 425.26 179.19 426.74 177.90 434.84
  C 176.59 443.05 185.07 451.91 191.46 456.06
  C 202.61 463.31 213.97 466.96 228.54 471.82
  C 242.26 476.39 257.69 484.25 264.10 498.24
  C 268.70 508.30 268.93 518.51 266.44 529.25
  C 262.34 546.95 253.19 563.51 242.83 578.59
  Q 225.95 603.19 205.59 624.09
  C 182.21 648.09 153.37 666.68 121.02 676.14
  C 118.06 677.00 112.68 678.05 109.46 679.18
  A 0.80 0.80 0.0 0 0 109.04 680.34
  Z
  M 664.96 487.58
  Q 696.66 494.15 724.14 512.65
  C 741.34 524.24 758.63 537.60 776.95 549.57
  Q 796.74 562.50 818.10 570.40
  Q 821.15 571.53 823.97 571.98
  A 0.36 0.35 -1.0 0 0 824.38 571.56
  C 816.72 534.20 800.35 498.28 775.77 469.98
  Q 774.55 468.57 772.90 468.12
  C 762.13 465.15 749.31 464.94 737.99 465.02
  C 712.44 465.19 687.21 474.00 664.91 487.27
  A 0.17 0.17 0.0 0 0 664.96 487.58
  Z
  M 804.63 476.61
  C 814.26 489.77 822.43 503.28 828.67 518.55
  Q 840.00 546.31 844.66 575.58
  A 0.51 0.51 0.0 0 0 845.16 576.01
  C 857.83 575.88 871.12 572.33 880.28 563.33
  Q 888.78 554.98 888.19 543.56
  C 887.96 539.00 883.64 534.00 881.25 531.02
  Q 851.93 494.44 807.92 476.81
  Q 806.30 476.16 804.89 476.13
  A 0.31 0.30 -16.8 0 0 804.63 476.61
  Z
  M 579.83 620.96
  Q 580.24 621.01 597.84 621.03
  C 610.59 621.05 623.91 622.04 635.30 622.01
  Q 638.54 622.01 643.15 622.36
  C 650.85 622.95 657.93 622.80 665.50 623.36
  Q 676.06 624.14 680.00 623.98
  Q 680.77 623.95 697.73 624.79
  Q 742.28 627.01 751.80 627.87
  C 755.04 628.16 758.91 627.96 762.57 628.26
  Q 768.49 628.75 769.91 628.83
  Q 801.31 630.52 828.29 632.89
  A 0.50 0.49 -86.2 0 0 828.83 632.41
  Q 829.63 613.19 827.81 593.93
  A 1.09 1.09 0.0 0 0 827.01 592.98
  Q 790.06 583.11 758.20 561.03
  Q 742.36 550.05 717.92 532.60
  Q 697.95 518.34 675.63 509.65
  Q 661.39 504.10 646.51 503.06
  Q 642.68 502.79 641.42 503.71
  C 617.54 521.00 600.00 545.59 589.93 573.16
  Q 582.76 592.78 579.65 614.82
  Q 579.14 618.36 579.26 620.36
  A 0.65 0.64 -89.0 0 0 579.83 620.96
  Z
  M 914.91 640.31
  Q 917.22 602.54 902.91 567.65
  A 0.51 0.51 0.0 0 0 901.98 567.62
  C 900.35 571.00 897.99 573.56 895.30 576.54
  C 882.93 590.23 865.88 595.00 847.83 595.19
  A 0.35 0.34 87.7 0 0 847.49 595.57
  Q 849.45 614.28 848.82 632.89
  A 0.83 0.81 4.1 0 0 849.56 633.73
  L 914.60 640.56
  A 0.28 0.27 5.0 0 0 914.91 640.31
  Z
  M 578.06 641.79
  Q 577.94 644.94 578.11 647.26
  C 579.10 660.73 580.70 672.92 584.17 685.32
  Q 592.78 716.18 614.10 742.64
  Q 618.02 747.50 621.45 751.53
  A 4.19 4.18 -19.2 0 0 624.47 752.99
  Q 631.39 753.27 643.27 752.96
  Q 655.81 752.63 672.06 748.72
  C 689.41 744.56 706.60 736.40 723.14 727.89
  C 734.88 721.85 756.34 708.74 773.68 701.70
  Q 796.03 692.63 819.74 692.94
  A 1.43 1.43 0.0 0 0 821.16 691.83
  Q 825.63 672.68 827.86 653.04
  A 0.73 0.71 -85.4 0 0 827.19 652.24
  Q 796.74 650.49 776.75 649.04
  Q 756.97 647.60 690.74 644.34
  Q 642.94 641.99 607.03 641.12
  Q 598.04 640.90 578.68 641.18
  A 0.63 0.63 0.0 0 0 578.06 641.79
  Z
  M 912.80 660.32
  L 848.62 654.12
  A 1.20 1.20 0.0 0 0 847.31 655.20
  Q 845.54 675.04 840.89 694.81
  A 0.75 0.75 0.0 0 0 841.47 695.71
  Q 872.75 702.00 887.27 730.70
  A 0.47 0.47 0.0 0 0 888.09 730.73
  Q 901.36 708.54 908.22 683.49
  Q 911.53 671.41 913.20 660.83
  A 0.45 0.44 -83.3 0 0 912.80 660.32
  Z
  M 815.31 711.75
  C 797.14 712.96 779.57 719.22 763.70 727.44
  Q 750.30 734.39 727.39 747.14
  Q 706.77 758.61 683.81 765.81
  Q 664.27 771.95 643.69 772.32
  A 0.34 0.34 0.0 0 0 643.47 772.92
  C 668.92 794.46 700.57 808.24 733.77 809.45
  Q 736.02 809.53 740.24 808.01
  Q 756.43 802.17 769.19 790.93
  C 792.79 770.14 807.20 742.12 815.56 712.06
  A 0.24 0.24 0.0 0 0 815.31 711.75
  Z
  M 780.15 806.05
  A 0.17 0.17 0.0 0 0 780.29 806.35
  Q 818.38 798.28 849.18 774.65
  Q 861.57 765.15 868.89 755.91
  C 870.70 753.63 871.35 752.18 871.13 749.35
  C 869.75 730.74 854.75 717.37 837.08 713.64
  A 0.84 0.84 0.0 0 0 836.10 714.24
  C 829.67 737.61 819.85 759.97 805.32 780.08
  Q 794.53 795.02 780.15 806.05
  Z"
/>
<g fill="#f6cf42">
<path d="
  M 664.96 487.58
  A 0.17 0.17 0.0 0 1 664.91 487.27
  C 687.21 474.00 712.44 465.19 737.99 465.02
  C 749.31 464.94 762.13 465.15 772.90 468.12
  Q 774.55 468.57 775.77 469.98
  C 800.35 498.28 816.72 534.20 824.38 571.56
  A 0.36 0.35 -1.0 0 1 823.97 571.98
  Q 821.15 571.53 818.10 570.40
  Q 796.74 562.50 776.95 549.57
  C 758.63 537.60 741.34 524.24 724.14 512.65
  Q 696.66 494.15 664.96 487.58
  Z"
/>
<path d="
  M 804.89 476.13
  Q 806.30 476.16 807.92 476.81
  Q 851.93 494.44 881.25 531.02
  C 883.64 534.00 887.96 539.00 888.19 543.56
  Q 888.78 554.98 880.28 563.33
  C 871.12 572.33 857.83 575.88 845.16 576.01
  A 0.51 0.51 0.0 0 1 844.66 575.58
  Q 840.00 546.31 828.67 518.55
  C 822.43 503.28 814.26 489.77 804.63 476.61
  A 0.31 0.30 -16.8 0 1 804.89 476.13
  Z"
/>
<path d="
  M 579.26 620.36
  Q 579.14 618.36 579.65 614.82
  Q 582.76 592.78 589.93 573.16
  C 600.00 545.59 617.54 521.00 641.42 503.71
  Q 642.68 502.79 646.51 503.06
  Q 661.39 504.10 675.63 509.65
  Q 697.95 518.34 717.92 532.60
  Q 742.36 550.05 758.20 561.03
  Q 790.06 583.11 827.01 592.98
  A 1.09 1.09 0.0 0 1 827.81 593.93
  Q 829.63 613.19 828.83 632.41
  A 0.50 0.49 -86.2 0 1 828.29 632.89
  Q 801.31 630.52 769.91 628.83
  Q 768.49 628.75 762.57 628.26
  C 758.91 627.96 755.04 628.16 751.80 627.87
  Q 742.28 627.01 697.73 624.79
  Q 680.77 623.95 680.00 623.98
  Q 676.06 624.14 665.50 623.36
  C 657.93 622.80 650.85 622.95 643.15 622.36
  Q 638.54 622.01 635.30 622.01
  C 623.91 622.04 610.59 621.05 597.84 621.03
  Q 580.24 621.01 579.83 620.96
  A 0.65 0.64 -89.0 0 1 579.26 620.36
  Z"
/>
<path d="
  M 914.91 640.31
  A 0.28 0.27 5.0 0 1 914.60 640.56
  L 849.56 633.73
  A 0.83 0.81 4.1 0 1 848.82 632.89
  Q 849.45 614.28 847.49 595.57
  A 0.35 0.34 87.7 0 1 847.83 595.19
  C 865.88 595.00 882.93 590.23 895.30 576.54
  C 897.99 573.56 900.35 571.00 901.98 567.62
  A 0.51 0.51 0.0 0 1 902.91 567.65
  Q 917.22 602.54 914.91 640.31
  Z"
/>
<path d="
  M 578.68 641.18
  Q 598.04 640.90 607.03 641.12
  Q 642.94 641.99 690.74 644.34
  Q 756.97 647.60 776.75 649.04
  Q 796.74 650.49 827.19 652.24
  A 0.73 0.71 -85.4 0 1 827.86 653.04
  Q 825.63 672.68 821.16 691.83
  A 1.43 1.43 0.0 0 1 819.74 692.94
  Q 796.03 692.63 773.68 701.70
  C 756.34 708.74 734.88 721.85 723.14 727.89
  C 706.60 736.40 689.41 744.56 672.06 748.72
  Q 655.81 752.63 643.27 752.96
  Q 631.39 753.27 624.47 752.99
  A 4.19 4.18 -19.2 0 1 621.45 751.53
  Q 618.02 747.50 614.10 742.64
  Q 592.78 716.18 584.17 685.32
  C 580.70 672.92 579.10 660.73 578.11 647.26
  Q 577.94 644.94 578.06 641.79
  A 0.63 0.63 0.0 0 1 578.68 641.18
  Z"
/>
<path d="
  M 913.20 660.83
  Q 911.53 671.41 908.22 683.49
  Q 901.36 708.54 888.09 730.73
  A 0.47 0.47 0.0 0 1 887.27 730.70
  Q 872.75 702.00 841.47 695.71
  A 0.75 0.75 0.0 0 1 840.89 694.81
  Q 845.54 675.04 847.31 655.20
  A 1.20 1.20 0.0 0 1 848.62 654.12
  L 912.80 660.32
  A 0.45 0.44 -83.3 0 1 913.20 660.83
  Z"
/>
<path d="
  M 815.31 711.75
  A 0.24 0.24 0.0 0 1 815.56 712.06
  C 807.20 742.12 792.79 770.14 769.19 790.93
  Q 756.43 802.17 740.24 808.01
  Q 736.02 809.53 733.77 809.45
  C 700.57 808.24 668.92 794.46 643.47 772.92
  A 0.34 0.34 0.0 0 1 643.69 772.32
  Q 664.27 771.95 683.81 765.81
  Q 706.77 758.61 727.39 747.14
  Q 750.30 734.39 763.70 727.44
  C 779.57 719.22 797.14 712.96 815.31 711.75
  Z"
/>
<path d="
  M 780.15 806.05
  Q 794.53 795.02 805.32 780.08
  C 819.85 759.97 829.67 737.61 836.10 714.24
  A 0.84 0.84 0.0 0 1 837.08 713.64
  C 854.75 717.37 869.75 730.74 871.13 749.35
  C 871.35 752.18 870.70 753.63 868.89 755.91
  Q 861.57 765.15 849.18 774.65
  Q 818.38 798.28 780.29 806.35
  A 0.17 0.17 0.0 0 1 780.15 806.05
  Z"
/>
</g>
<path fill="#faf9fa" fill-opacity="0.588" d="
  M 1024.00 0.00
  L 1024.00 1024.00
  L 0.00 1024.00
  L 0.00 0.00
  L 1024.00 0.00
  Z
  M 1023.04 1.30
  A 0.35 0.35 0.0 0 0 1022.69 0.95
  L 1.19 0.95
  A 0.35 0.35 0.0 0 0 0.84 1.30
  L 0.84 1022.80
  A 0.35 0.35 0.0 0 0 1.19 1023.15
  L 1022.69 1023.15
  A 0.35 0.35 0.0 0 0 1023.04 1022.80
  L 1023.04 1.30
  Z"
/>
</svg>
